<svg width="32" height="32" viewBox="0 0 32 32" fill="none" xmlns="http://www.w3.org/2000/svg">
<path fill-rule="evenodd" clip-rule="evenodd" d="M0.761719 16.0227C0.761719 7.99543 7.17696 0.761719 16.0303 0.761719C24.6855 0.761719 31.2379 7.85808 31.2379 15.977C31.2379 25.393 23.5579 31.2379 15.9998 31.2379C13.5008 31.2379 10.7274 30.5665 8.50268 29.254C7.72553 28.7809 7.07029 28.4299 6.23219 28.7046L3.1541 29.6203C2.37696 29.8644 1.676 29.254 1.90457 28.4299L2.92553 25.0115C3.09314 24.5383 3.06267 24.0347 2.81886 23.6379C1.50839 21.2267 0.761719 18.5866 0.761719 16.0227ZM14.019 16.0227C14.019 17.1062 14.8875 17.9761 15.9694 17.9914C17.0513 17.9914 17.9199 17.1062 17.9199 16.038C17.9199 14.9545 17.0513 14.0845 15.9694 14.0845C14.9027 14.0693 14.019 14.9545 14.019 16.0227ZM21.0437 16.038C21.0437 17.1062 21.9122 17.9914 22.9942 17.9914C24.076 17.9914 24.9446 17.1062 24.9446 16.038C24.9446 14.9545 24.076 14.0845 22.9942 14.0845C21.9122 14.0845 21.0437 14.9545 21.0437 16.038ZM8.94452 17.9914C7.87785 17.9914 6.99405 17.1062 6.99405 16.038C6.99405 14.9545 7.86262 14.0845 8.94452 14.0845C10.0264 14.0845 10.895 14.9545 10.895 16.038C10.895 17.1062 10.0264 17.9761 8.94452 17.9914Z" fill="white"/>
</svg>
