<svg width="1030" height="804" viewBox="0 0 1030 804" fill="none" xmlns="http://www.w3.org/2000/svg">
<path d="M336.612 341.132H252.875L228.611 265.245H107.288L83.2609 341.132H0L124.178 0H215.289L336.612 341.132ZM211.007 206.249L174.372 91.587C171.676 83.023 169.773 72.7938 168.663 60.8994H166.76C165.967 70.8907 163.984 80.8027 160.812 90.6354L123.702 206.249H211.007Z" fill="white" fill-opacity="0.75"/>
<path d="M504.751 223.615V341.132H427.913V0H548.285C634.242 0 677.22 36.2383 677.22 108.715C677.22 142.971 664.85 170.724 640.11 191.976C615.528 213.069 582.62 223.615 541.386 223.615H504.751ZM504.751 58.9963V165.332H534.963C575.88 165.332 596.338 147.411 596.338 111.57C596.338 76.5207 575.88 58.9963 534.963 58.9963H504.751Z" fill="white" fill-opacity="0.75"/>
<path d="M852.734 223.615V341.132H775.896V0H896.268C982.225 0 1025.2 36.2383 1025.2 108.715C1025.2 142.971 1012.83 170.724 988.093 191.976C963.511 213.069 930.603 223.615 889.369 223.615H852.734ZM852.734 58.9963V165.332H882.946C923.863 165.332 944.321 147.411 944.321 111.57C944.321 76.5207 923.863 58.9963 882.946 58.9963H852.734Z" fill="white" fill-opacity="0.75"/>
<path d="M489.821 456.656L399.661 797.788H314.497L257.88 578.931C254.867 567.512 253.043 554.745 252.409 540.631H251.457C250.03 556.173 247.968 568.939 245.272 578.931L187.227 797.788H98.4949L8.81104 456.656H92.7856L140.839 683.839C142.901 693.514 144.407 706.518 145.359 722.853H146.786C147.421 710.642 149.72 697.32 153.685 682.888L215.536 456.656H297.845L353.749 685.743C355.811 694.148 357.634 706.36 359.22 722.377H360.172C360.806 709.849 362.472 697.161 365.168 684.315L412.269 456.656H489.821Z" fill="white" fill-opacity="0.75"/>
<path d="M731.278 697.399H572.368C574.906 732.765 597.188 750.448 639.215 750.448C666.017 750.448 689.568 744.105 709.868 731.417V785.656C687.348 797.709 658.087 803.735 622.087 803.735C582.756 803.735 552.227 792.872 530.5 771.144C508.773 749.259 497.909 718.809 497.909 679.795C497.909 639.354 509.645 607.319 533.117 583.689C556.588 560.058 585.452 548.243 619.708 548.243C655.233 548.243 682.669 558.79 702.017 579.882C721.524 600.975 731.278 629.601 731.278 665.76V697.399ZM661.576 651.249C661.576 616.359 647.462 598.913 619.232 598.913C607.179 598.913 596.712 603.909 587.831 613.9C579.108 623.892 573.796 636.341 571.892 651.249H661.576Z" fill="white" fill-opacity="0.75"/>
<path d="M852.125 769.479H851.173V797.788H776.001V437.149H851.173V590.825H852.125C870.68 562.437 897.086 548.243 931.342 548.243C962.743 548.243 986.928 559.027 1003.9 580.596C1020.87 602.165 1029.35 631.663 1029.35 669.09C1029.35 709.69 1019.44 742.281 999.615 766.862C979.791 791.444 953.307 803.735 920.161 803.735C890.187 803.735 867.508 792.317 852.125 769.479ZM849.984 666.712V691.69C849.984 707.39 854.504 720.395 863.543 730.703C872.583 741.012 884.16 746.166 898.275 746.166C915.403 746.166 928.646 739.585 938.002 726.421C947.518 713.1 952.276 694.307 952.276 670.042C952.276 649.901 947.914 634.2 939.192 622.94C930.628 611.521 918.337 605.812 902.319 605.812C887.253 605.812 874.724 611.442 864.733 622.702C854.9 633.962 849.984 648.632 849.984 666.712Z" fill="white" fill-opacity="0.75"/>
</svg>
