<svg width="1288" height="1188" viewBox="0 0 1288 1188" fill="none" xmlns="http://www.w3.org/2000/svg">
<g opacity="0.8">
<path d="M0 241.8V12.322H81.2935C162.8 12.322 203.554 49.6082 203.554 124.181C203.554 159.92 192.405 188.458 170.108 209.795C147.918 231.132 118.313 241.8 81.2935 241.8H0ZM51.6886 54.409V199.873H77.2928C99.6965 199.873 117.246 193.152 129.942 179.71C142.744 166.268 149.145 147.971 149.145 124.821C149.145 102.95 142.797 85.7742 130.102 73.2921C117.513 60.7034 99.8032 54.409 76.9727 54.409H51.6886Z" fill="#F7F6F8"/>
<path d="M383.904 174.269H277.006C278.713 198.059 293.702 209.955 321.973 209.955C340.003 209.955 355.846 205.687 369.501 197.153V233.639C354.352 241.747 334.669 245.801 310.451 245.801C283.994 245.801 263.457 238.493 248.841 223.877C234.225 209.155 226.918 188.671 226.918 162.427C226.918 135.222 234.812 113.672 250.602 97.7762C266.391 81.8802 285.807 73.9323 308.851 73.9323C332.748 73.9323 351.205 81.0268 364.22 95.2158C377.342 109.405 383.904 128.661 383.904 152.985V174.269ZM337.016 143.224C337.016 119.753 327.521 108.018 308.531 108.018C300.423 108.018 293.382 111.378 287.408 118.1C281.54 124.821 277.966 133.195 276.686 143.224H337.016Z" fill="#F7F6F8"/>
<path d="M403.267 237.479V196.513C411.588 201.527 419.856 205.261 428.071 207.714C436.392 210.168 444.234 211.395 451.595 211.395C460.556 211.395 467.597 210.168 472.718 207.714C477.946 205.261 480.56 201.527 480.56 196.513C480.56 193.312 479.386 190.645 477.039 188.511C474.692 186.378 471.651 184.511 467.917 182.91C464.29 181.31 460.29 179.87 455.915 178.59C451.541 177.309 447.327 175.869 443.273 174.269C436.766 171.815 431.005 169.201 425.991 166.428C421.083 163.547 416.922 160.24 413.508 156.506C410.201 152.772 407.641 148.451 405.827 143.544C404.12 138.636 403.267 132.822 403.267 126.101C403.267 116.926 405.24 109.031 409.188 102.417C413.242 95.8025 418.576 90.415 425.19 86.2543C431.912 81.9869 439.539 78.8931 448.074 76.9728C456.716 74.9457 465.677 73.9323 474.959 73.9323C482.213 73.9323 489.574 74.519 497.042 75.6925C504.51 76.7594 511.871 78.3596 519.126 80.4933V119.54C512.725 115.806 505.844 113.032 498.483 111.218C491.228 109.298 484.08 108.338 477.039 108.338C473.732 108.338 470.585 108.658 467.597 109.298C464.717 109.832 462.157 110.685 459.916 111.859C457.676 112.925 455.915 114.366 454.635 116.179C453.355 117.886 452.715 119.86 452.715 122.1C452.715 125.087 453.675 127.648 455.595 129.782C457.516 131.915 460.023 133.782 463.117 135.382C466.211 136.876 469.624 138.263 473.358 139.543C477.199 140.717 480.986 141.944 484.72 143.224C491.441 145.571 497.522 148.131 502.963 150.905C508.404 153.679 513.045 156.933 516.886 160.667C520.833 164.401 523.82 168.775 525.847 173.789C527.981 178.803 529.048 184.777 529.048 191.712C529.048 201.42 526.914 209.741 522.647 216.676C518.486 223.504 512.885 229.105 505.844 233.479C498.909 237.746 490.855 240.84 481.68 242.76C472.612 244.787 463.17 245.801 453.355 245.801C435.325 245.801 418.629 243.027 403.267 237.479Z" fill="#F7F6F8"/>
<path d="M583.937 52.0086C575.402 52.0086 568.414 49.5015 562.973 44.4874C557.532 39.3665 554.812 33.1255 554.812 25.7643C554.812 18.1897 557.532 12.002 562.973 7.20119C568.414 2.4004 575.402 0 583.937 0C592.578 0 599.566 2.4004 604.9 7.20119C610.341 12.002 613.062 18.1897 613.062 25.7643C613.062 33.4455 610.341 39.7399 604.9 44.6474C599.566 49.5549 592.578 52.0086 583.937 52.0086ZM608.901 241.8H558.332V77.9329H608.901V241.8Z" fill="#F7F6F8"/>
<path d="M812.134 223.077C812.134 253.482 803.333 277.006 785.73 293.649C768.127 310.398 742.63 318.773 709.237 318.773C687.154 318.773 669.658 315.626 656.749 309.331V266.764C673.605 276.579 690.621 281.487 707.797 281.487C724.867 281.487 738.096 276.953 747.484 267.884C756.872 258.923 761.566 246.708 761.566 231.238V218.276H760.926C749.404 236.626 732.388 245.801 709.878 245.801C688.967 245.801 672.378 238.439 660.109 223.717C647.841 208.995 641.706 189.258 641.706 164.507C641.706 136.769 648.534 114.739 662.19 98.4163C675.845 82.0936 693.822 73.9323 716.119 73.9323C736.069 73.9323 751.004 81.6135 760.926 96.9761H761.566V77.9329H812.134V223.077ZM762.206 163.067V150.105C762.206 139.756 759.112 130.955 752.925 123.7C746.844 116.339 738.896 112.659 729.081 112.659C717.879 112.659 709.077 117.033 702.676 125.781C696.275 134.529 693.075 146.851 693.075 162.747C693.075 176.403 696.115 187.231 702.196 195.232C708.277 203.127 716.599 207.074 727.16 207.074C737.615 207.074 746.044 203.074 752.445 195.072C758.952 186.964 762.206 176.296 762.206 163.067Z" fill="#F7F6F8"/>
<path d="M1012.65 241.8H962.239V150.745C962.239 125.354 953.171 112.659 935.035 112.659C926.287 112.659 919.086 116.019 913.431 122.74C907.777 129.461 904.95 137.996 904.95 148.345V241.8H854.381V77.9329H904.95V103.857H905.59C917.645 83.9072 935.195 73.9323 958.239 73.9323C994.511 73.9323 1012.65 96.4426 1012.65 141.463V241.8Z" fill="#F7F6F8"/>
<path d="M85.4541 392.651C81.1156 390.945 76.955 390.091 72.9721 390.091C62.1614 390.091 56.7561 395.959 56.7561 407.694V419.323H81.7202V444.18H56.7561V528.567H23.1505V444.18H4.80078V419.323H23.1505V405.774C23.1505 393.327 27.2045 383.299 35.3125 375.689C43.4205 368.079 54.4446 364.273 68.3846 364.273C75.2124 364.273 80.9023 364.985 85.4541 366.407V392.651Z" fill="#F7F6F8"/>
<path d="M150.105 531.234C131.897 531.234 117.566 526.149 107.111 515.979C96.7271 505.737 91.5351 491.868 91.5351 474.372C91.5351 456.306 96.9405 442.189 107.751 432.018C118.562 421.776 133.178 416.655 151.598 416.655C169.735 416.655 183.959 421.776 194.272 432.018C204.585 442.189 209.741 455.666 209.741 472.451C209.741 490.588 204.407 504.919 193.739 515.445C183.141 525.971 168.597 531.234 150.105 531.234ZM150.958 442.473C142.993 442.473 136.805 445.211 132.395 450.688C127.986 456.164 125.781 463.917 125.781 473.945C125.781 494.926 134.244 505.417 151.172 505.417C167.317 505.417 175.389 494.642 175.389 473.091C175.389 452.679 167.245 442.473 150.958 442.473Z" fill="#F7F6F8"/>
<path d="M302.877 449.728C298.823 447.523 294.093 446.42 288.688 446.42C281.362 446.42 275.637 449.123 271.512 454.528C267.387 459.863 265.324 467.153 265.324 476.399V528.567H231.612V419.323H265.324V439.593H265.751C271.085 424.799 280.686 417.402 294.555 417.402C298.112 417.402 300.885 417.829 302.877 418.682V449.728Z" fill="#F7F6F8"/>
<path d="M382.357 528.567V375.582H438.046C455.115 375.582 468.238 378.711 477.412 384.97C486.587 391.229 491.175 400.048 491.175 411.428C491.175 419.678 488.365 426.897 482.747 433.085C477.199 439.273 470.087 443.575 461.41 445.994V446.42C472.292 447.772 480.969 451.79 487.441 458.476C493.984 465.161 497.256 473.305 497.256 482.906C497.256 496.918 492.242 508.048 482.213 516.299C472.185 524.478 458.494 528.567 441.14 528.567H382.357ZM416.816 400.973V437.246H431.965C439.077 437.246 444.66 435.539 448.714 432.125C452.839 428.64 454.902 423.874 454.902 417.829C454.902 406.592 446.51 400.973 429.725 400.973H416.816ZM416.816 462.85V503.176H435.485C443.451 503.176 449.674 501.327 454.155 497.629C458.707 493.93 460.983 488.881 460.983 482.48C460.983 476.363 458.743 471.562 454.262 468.077C449.852 464.592 443.665 462.85 435.699 462.85H416.816Z" fill="#F7F6F8"/>
<path d="M623.037 528.567H589.431V511.925H588.898C580.576 524.798 569.445 531.234 555.505 531.234C530.186 531.234 517.526 515.907 517.526 485.253V419.323H551.131V482.266C551.131 497.7 557.248 505.417 569.481 505.417C575.526 505.417 580.363 503.319 583.99 499.122C587.617 494.855 589.431 489.094 589.431 481.84V419.323H623.037V528.567Z" fill="#F7F6F8"/>
<path d="M644.373 525.687V498.376C649.921 501.718 655.433 504.208 660.909 505.844C666.457 507.479 671.685 508.297 676.592 508.297C682.566 508.297 687.26 507.479 690.674 505.844C694.159 504.208 695.902 501.718 695.902 498.376C695.902 496.242 695.12 494.464 693.555 493.041C691.99 491.619 689.963 490.374 687.474 489.307C685.056 488.241 682.389 487.28 679.473 486.427C676.557 485.574 673.747 484.613 671.044 483.547C666.706 481.911 662.865 480.168 659.523 478.319C656.251 476.399 653.477 474.194 651.201 471.705C648.996 469.215 647.289 466.335 646.08 463.063C644.942 459.791 644.373 455.915 644.373 451.435C644.373 445.318 645.689 440.055 648.321 435.645C651.023 431.236 654.58 427.644 658.989 424.87C663.47 422.025 668.555 419.963 674.245 418.682C680.006 417.331 685.98 416.655 692.168 416.655C697.004 416.655 701.912 417.047 706.89 417.829C711.869 418.54 716.776 419.607 721.613 421.03V447.06C717.346 444.571 712.758 442.722 707.851 441.513C703.014 440.233 698.249 439.593 693.555 439.593C691.35 439.593 689.252 439.806 687.26 440.233C685.34 440.588 683.633 441.157 682.14 441.94C680.646 442.651 679.473 443.611 678.619 444.82C677.766 445.958 677.339 447.274 677.339 448.767C677.339 450.759 677.979 452.466 679.259 453.888C680.539 455.311 682.211 456.555 684.273 457.622C686.336 458.618 688.612 459.543 691.101 460.396C693.662 461.178 696.186 461.996 698.676 462.85C703.156 464.414 707.211 466.121 710.838 467.971C714.465 469.82 717.559 471.989 720.119 474.478C722.751 476.968 724.742 479.884 726.094 483.226C727.516 486.569 728.227 490.552 728.227 495.175C728.227 501.647 726.805 507.195 723.96 511.818C721.186 516.37 717.452 520.104 712.758 523.02C708.135 525.865 702.765 527.927 696.649 529.207C690.603 530.559 684.309 531.234 677.766 531.234C665.746 531.234 654.615 529.385 644.373 525.687Z" fill="#F7F6F8"/>
<path d="M764.82 402.04C759.13 402.04 754.472 400.368 750.844 397.026C747.217 393.612 745.404 389.451 745.404 384.543C745.404 379.494 747.217 375.369 750.844 372.168C754.472 368.968 759.13 367.367 764.82 367.367C770.581 367.367 775.24 368.968 778.796 372.168C782.423 375.369 784.237 379.494 784.237 384.543C784.237 389.664 782.423 393.861 778.796 397.132C775.24 400.404 770.581 402.04 764.82 402.04ZM781.463 528.567H747.751V419.323H781.463V528.567Z" fill="#F7F6F8"/>
<path d="M915.352 528.567H881.746V467.864C881.746 450.937 875.701 442.473 863.61 442.473C857.778 442.473 852.977 444.713 849.207 449.194C845.438 453.675 843.553 459.365 843.553 466.264V528.567H809.841V419.323H843.553V436.605H843.98C852.017 423.305 863.716 416.655 879.079 416.655C903.261 416.655 915.352 431.662 915.352 461.676V528.567Z" fill="#F7F6F8"/>
<path d="M1040.28 483.547H969.014C970.152 499.407 980.145 507.337 998.992 507.337C1011.01 507.337 1021.57 504.492 1030.68 498.802V523.126C1020.58 528.532 1007.46 531.234 991.311 531.234C973.672 531.234 959.981 526.363 950.237 516.619C940.494 506.804 935.622 493.148 935.622 475.652C935.622 457.516 940.885 443.149 951.411 432.551C961.937 421.954 974.882 416.655 990.244 416.655C1006.18 416.655 1018.48 421.385 1027.16 430.844C1035.9 440.304 1040.28 453.141 1040.28 469.358V483.547ZM1009.02 462.85C1009.02 447.203 1002.69 439.379 990.031 439.379C984.625 439.379 979.931 441.62 975.948 446.1C972.037 450.581 969.654 456.164 968.8 462.85H1009.02Z" fill="#F7F6F8"/>
<path d="M1053.19 525.687V498.376C1058.74 501.718 1064.25 504.208 1069.72 505.844C1075.27 507.479 1080.5 508.297 1085.41 508.297C1091.38 508.297 1096.07 507.479 1099.49 505.844C1102.97 504.208 1104.72 501.718 1104.72 498.376C1104.72 496.242 1103.93 494.464 1102.37 493.041C1100.8 491.619 1098.78 490.374 1096.29 489.307C1093.87 488.241 1091.2 487.28 1088.29 486.427C1085.37 485.574 1082.56 484.613 1079.86 483.547C1075.52 481.911 1071.68 480.168 1068.34 478.319C1065.07 476.399 1062.29 474.194 1060.02 471.705C1057.81 469.215 1056.1 466.335 1054.89 463.063C1053.76 459.791 1053.19 455.915 1053.19 451.435C1053.19 445.318 1054.5 440.055 1057.14 435.645C1059.84 431.236 1063.39 427.644 1067.8 424.87C1072.28 422.025 1077.37 419.963 1083.06 418.682C1088.82 417.331 1094.79 416.655 1100.98 416.655C1105.82 416.655 1110.73 417.047 1115.7 417.829C1120.68 418.54 1125.59 419.607 1130.43 421.03V447.06C1126.16 444.571 1121.57 442.722 1116.67 441.513C1111.83 440.233 1107.06 439.593 1102.37 439.593C1100.16 439.593 1098.07 439.806 1096.07 440.233C1094.15 440.588 1092.45 441.157 1090.95 441.94C1089.46 442.651 1088.29 443.611 1087.43 444.82C1086.58 445.958 1086.15 447.274 1086.15 448.767C1086.15 450.759 1086.79 452.466 1088.07 453.888C1089.35 455.311 1091.03 456.555 1093.09 457.622C1095.15 458.618 1097.43 459.543 1099.92 460.396C1102.48 461.178 1105 461.996 1107.49 462.85C1111.97 464.414 1116.02 466.121 1119.65 467.971C1123.28 469.82 1126.37 471.989 1128.93 474.478C1131.57 476.968 1133.56 479.884 1134.91 483.226C1136.33 486.569 1137.04 490.552 1137.04 495.175C1137.04 501.647 1135.62 507.195 1132.77 511.818C1130 516.37 1126.27 520.104 1121.57 523.02C1116.95 525.865 1111.58 527.927 1105.46 529.207C1099.42 530.559 1093.12 531.234 1086.58 531.234C1074.56 531.234 1063.43 529.385 1053.19 525.687Z" fill="#F7F6F8"/>
<path d="M1149.42 525.687V498.376C1154.96 501.718 1160.48 504.208 1165.95 505.844C1171.5 507.479 1176.73 508.297 1181.64 508.297C1187.61 508.297 1192.3 507.479 1195.72 505.844C1199.2 504.208 1200.95 501.718 1200.95 498.376C1200.95 496.242 1200.16 494.464 1198.6 493.041C1197.03 491.619 1195.01 490.374 1192.52 489.307C1190.1 488.241 1187.43 487.28 1184.52 486.427C1181.6 485.574 1178.79 484.613 1176.09 483.547C1171.75 481.911 1167.91 480.168 1164.57 478.319C1161.29 476.399 1158.52 474.194 1156.24 471.705C1154.04 469.215 1152.33 466.335 1151.12 463.063C1149.99 459.791 1149.42 455.915 1149.42 451.435C1149.42 445.318 1150.73 440.055 1153.36 435.645C1156.07 431.236 1159.62 427.644 1164.03 424.87C1168.51 422.025 1173.6 419.963 1179.29 418.682C1185.05 417.331 1191.02 416.655 1197.21 416.655C1202.05 416.655 1206.96 417.047 1211.93 417.829C1216.91 418.54 1221.82 419.607 1226.66 421.03V447.06C1222.39 444.571 1217.8 442.722 1212.89 441.513C1208.06 440.233 1203.29 439.593 1198.6 439.593C1196.39 439.593 1194.3 439.806 1192.3 440.233C1190.38 440.588 1188.68 441.157 1187.18 441.94C1185.69 442.651 1184.52 443.611 1183.66 444.82C1182.81 445.958 1182.38 447.274 1182.38 448.767C1182.38 450.759 1183.02 452.466 1184.3 453.888C1185.58 455.311 1187.25 456.555 1189.32 457.622C1191.38 458.618 1193.66 459.543 1196.14 460.396C1198.71 461.178 1201.23 461.996 1203.72 462.85C1208.2 464.414 1212.25 466.121 1215.88 467.971C1219.51 469.82 1222.6 471.989 1225.16 474.478C1227.79 476.968 1229.79 479.884 1231.14 483.226C1232.56 486.569 1233.27 490.552 1233.27 495.175C1233.27 501.647 1231.85 507.195 1229 511.818C1226.23 516.37 1222.5 520.104 1217.8 523.02C1213.18 525.865 1207.81 527.927 1201.69 529.207C1195.65 530.559 1189.35 531.234 1182.81 531.234C1170.79 531.234 1159.66 529.385 1149.42 525.687Z" fill="#F7F6F8"/>
<path d="M1284.69 501.683L1269.01 555.665H1242.77L1253.65 501.683H1284.69Z" fill="#F7F6F8"/>
</g>
<g opacity="0.8">
<path d="M4.06934 894.87V665.392H85.3628C166.87 665.392 207.623 702.678 207.623 777.25C207.623 812.989 196.475 841.528 174.178 862.864C151.987 884.201 122.382 894.87 85.3628 894.87H4.06934ZM55.7579 707.479V852.943H81.3622C103.766 852.943 121.315 846.222 134.011 832.779C146.813 819.337 153.214 801.041 153.214 777.89C153.214 756.02 146.866 738.844 134.171 726.362C121.582 713.773 103.873 707.479 81.0421 707.479H55.7579Z" fill="#F7F6F8"/>
<path d="M387.973 827.339H281.075C282.782 851.129 297.771 863.024 326.043 863.024C344.072 863.024 359.915 858.757 373.571 850.222V886.708C358.421 894.816 338.738 898.87 314.521 898.87C288.063 898.87 267.526 891.563 252.911 876.947C238.295 862.224 230.987 841.741 230.987 815.497C230.987 788.292 238.882 766.742 254.671 750.846C270.46 734.95 289.877 727.002 312.921 727.002C336.818 727.002 355.274 734.096 368.29 748.285C381.412 762.474 387.973 781.731 387.973 806.055V827.339ZM341.085 796.293C341.085 772.823 331.59 761.088 312.6 761.088C304.492 761.088 297.451 764.448 291.477 771.169C285.609 777.89 282.035 786.265 280.755 796.293H341.085Z" fill="#F7F6F8"/>
<path d="M574.084 731.003L513.114 894.87H455.504L397.415 731.003H451.504L479.988 831.979C483.189 843.395 485.056 853.103 485.589 861.104H486.229C486.976 853.53 488.95 844.141 492.15 832.939L521.275 731.003H574.084Z" fill="#F7F6F8"/>
<path d="M739.711 827.339H632.814C634.521 851.129 649.51 863.024 677.781 863.024C695.811 863.024 711.653 858.757 725.309 850.222V886.708C710.16 894.816 690.476 898.87 666.259 898.87C639.801 898.87 619.265 891.563 604.649 876.947C590.033 862.224 582.725 841.741 582.725 815.497C582.725 788.292 590.62 766.742 606.409 750.846C622.198 734.95 641.615 727.002 664.659 727.002C688.556 727.002 707.013 734.096 720.028 748.285C733.15 762.474 739.711 781.731 739.711 806.055V827.339ZM692.823 796.293C692.823 772.823 683.329 761.088 664.339 761.088C656.231 761.088 649.19 764.448 643.215 771.169C637.348 777.89 633.774 786.265 632.494 796.293H692.823Z" fill="#F7F6F8"/>
<path d="M820.365 894.87H769.796V652.27H820.365V894.87Z" fill="#F7F6F8"/>
<path d="M941.025 898.87C913.713 898.87 892.217 891.242 876.534 875.987C860.958 860.624 853.17 839.821 853.17 813.576C853.17 786.478 861.278 765.302 877.494 750.046C893.71 734.683 915.634 727.002 943.265 727.002C970.47 727.002 991.806 734.683 1007.28 750.046C1022.74 765.302 1030.48 785.518 1030.48 810.696C1030.48 837.9 1022.48 859.397 1006.48 875.186C990.58 890.976 968.763 898.87 941.025 898.87ZM942.305 765.728C930.356 765.728 921.075 769.836 914.46 778.05C907.846 786.265 904.539 797.894 904.539 812.936C904.539 844.408 917.234 860.144 942.625 860.144C966.842 860.144 978.951 843.981 978.951 811.656C978.951 781.038 966.736 765.728 942.305 765.728Z" fill="#F7F6F8"/>
<path d="M1114.49 875.827H1113.85V970.242H1063.28V731.003H1113.85V755.647H1114.49C1126.98 736.55 1144.53 727.002 1167.14 727.002C1188.37 727.002 1204.75 734.31 1216.27 748.926C1227.9 763.435 1233.71 783.225 1233.71 808.295C1233.71 835.607 1226.94 857.53 1213.39 874.066C1199.95 890.602 1182.02 898.87 1159.62 898.87C1139.88 898.87 1124.84 891.189 1114.49 875.827ZM1113.05 808.615V821.738C1113.05 833.046 1116.04 842.274 1122.01 849.422C1127.99 856.57 1135.83 860.144 1145.54 860.144C1157.06 860.144 1165.97 855.717 1172.26 846.862C1178.66 837.9 1181.86 825.258 1181.86 808.935C1181.86 780.131 1170.66 765.728 1148.26 765.728C1137.91 765.728 1129.43 769.676 1122.81 777.57C1116.31 785.358 1113.05 795.707 1113.05 808.615Z" fill="#F7F6F8"/>
<path d="M85.4541 1049.07C81.1156 1047.36 76.955 1046.51 72.9721 1046.51C62.1614 1046.51 56.7561 1052.38 56.7561 1064.11V1075.74H81.7202V1100.6H56.7561V1184.99H23.1505V1100.6H4.80078V1075.74H23.1505V1062.19C23.1505 1049.75 27.2045 1039.72 35.3125 1032.11C43.4205 1024.5 54.4446 1020.69 68.3846 1020.69C75.2124 1020.69 80.9023 1021.4 85.4541 1022.83V1049.07Z" fill="#F7F6F8"/>
<path d="M150.105 1187.65C131.897 1187.65 117.566 1182.57 107.111 1172.4C96.7271 1162.16 91.5351 1148.29 91.5351 1130.79C91.5351 1112.73 96.9405 1098.61 107.751 1088.44C118.562 1078.2 133.178 1073.07 151.598 1073.07C169.735 1073.07 183.959 1078.2 194.272 1088.44C204.585 1098.61 209.741 1112.09 209.741 1128.87C209.741 1147.01 204.407 1161.34 193.739 1171.86C183.141 1182.39 168.597 1187.65 150.105 1187.65ZM150.958 1098.89C142.993 1098.89 136.805 1101.63 132.395 1107.11C127.986 1112.58 125.781 1120.34 125.781 1130.36C125.781 1151.35 134.244 1161.84 151.172 1161.84C167.317 1161.84 175.389 1151.06 175.389 1129.51C175.389 1109.1 167.245 1098.89 150.958 1098.89Z" fill="#F7F6F8"/>
<path d="M302.877 1106.15C298.823 1103.94 294.093 1102.84 288.688 1102.84C281.362 1102.84 275.637 1105.54 271.512 1110.95C267.387 1116.28 265.324 1123.57 265.324 1132.82V1184.99H231.612V1075.74H265.324V1096.01H265.751C271.085 1081.22 280.686 1073.82 294.555 1073.82C298.112 1073.82 300.885 1074.25 302.877 1075.1V1106.15Z" fill="#F7F6F8"/>
<path d="M382.357 1184.99V1032H438.046C455.115 1032 468.238 1035.13 477.412 1041.39C486.587 1047.65 491.175 1056.47 491.175 1067.85C491.175 1076.1 488.365 1083.32 482.747 1089.5C477.199 1095.69 470.087 1099.99 461.41 1102.41V1102.84C472.292 1104.19 480.969 1108.21 487.441 1114.89C493.984 1121.58 497.256 1129.72 497.256 1139.33C497.256 1153.34 492.242 1164.47 482.213 1172.72C472.185 1180.9 458.494 1184.99 441.14 1184.99H382.357ZM416.816 1057.39V1093.66H431.965C439.077 1093.66 444.66 1091.96 448.714 1088.54C452.839 1085.06 454.902 1080.29 454.902 1074.25C454.902 1063.01 446.51 1057.39 429.725 1057.39H416.816ZM416.816 1119.27V1159.6H435.485C443.451 1159.6 449.674 1157.75 454.155 1154.05C458.707 1150.35 460.983 1145.3 460.983 1138.9C460.983 1132.78 458.743 1127.98 454.262 1124.5C449.852 1121.01 443.665 1119.27 435.699 1119.27H416.816Z" fill="#F7F6F8"/>
<path d="M623.037 1184.99H589.431V1168.34H588.898C580.576 1181.22 569.445 1187.65 555.505 1187.65C530.186 1187.65 517.526 1172.33 517.526 1141.67V1075.74H551.131V1138.69C551.131 1154.12 557.248 1161.84 569.481 1161.84C575.526 1161.84 580.363 1159.74 583.99 1155.54C587.617 1151.27 589.431 1145.51 589.431 1138.26V1075.74H623.037V1184.99Z" fill="#F7F6F8"/>
<path d="M644.373 1182.11V1154.79C649.921 1158.14 655.433 1160.63 660.909 1162.26C666.457 1163.9 671.685 1164.72 676.592 1164.72C682.566 1164.72 687.26 1163.9 690.674 1162.26C694.159 1160.63 695.902 1158.14 695.902 1154.79C695.902 1152.66 695.12 1150.88 693.555 1149.46C691.99 1148.04 689.963 1146.79 687.474 1145.73C685.056 1144.66 682.389 1143.7 679.473 1142.85C676.557 1141.99 673.747 1141.03 671.044 1139.97C666.706 1138.33 662.865 1136.59 659.523 1134.74C656.251 1132.82 653.477 1130.61 651.201 1128.12C648.996 1125.63 647.289 1122.75 646.08 1119.48C644.942 1116.21 644.373 1112.33 644.373 1107.85C644.373 1101.74 645.689 1096.47 648.321 1092.06C651.023 1087.65 654.58 1084.06 658.989 1081.29C663.47 1078.44 668.555 1076.38 674.245 1075.1C680.006 1073.75 685.98 1073.07 692.168 1073.07C697.004 1073.07 701.912 1073.47 706.89 1074.25C711.869 1074.96 716.776 1076.03 721.613 1077.45V1103.48C717.346 1100.99 712.758 1099.14 707.851 1097.93C703.014 1096.65 698.249 1096.01 693.555 1096.01C691.35 1096.01 689.252 1096.22 687.26 1096.65C685.34 1097.01 683.633 1097.58 682.14 1098.36C680.646 1099.07 679.473 1100.03 678.619 1101.24C677.766 1102.38 677.339 1103.69 677.339 1105.19C677.339 1107.18 677.979 1108.88 679.259 1110.31C680.539 1111.73 682.211 1112.97 684.273 1114.04C686.336 1115.04 688.612 1115.96 691.101 1116.81C693.662 1117.6 696.186 1118.42 698.676 1119.27C703.156 1120.83 707.211 1122.54 710.838 1124.39C714.465 1126.24 717.559 1128.41 720.119 1130.9C722.751 1133.39 724.742 1136.3 726.094 1139.65C727.516 1142.99 728.227 1146.97 728.227 1151.59C728.227 1158.07 726.805 1163.61 723.96 1168.24C721.186 1172.79 717.452 1176.52 712.758 1179.44C708.135 1182.28 702.765 1184.35 696.649 1185.63C690.603 1186.98 684.309 1187.65 677.766 1187.65C665.746 1187.65 654.615 1185.8 644.373 1182.11Z" fill="#F7F6F8"/>
<path d="M764.82 1058.46C759.13 1058.46 754.472 1056.79 750.844 1053.44C747.217 1050.03 745.404 1045.87 745.404 1040.96C745.404 1035.91 747.217 1031.79 750.844 1028.59C754.472 1025.39 759.13 1023.79 764.82 1023.79C770.581 1023.79 775.24 1025.39 778.796 1028.59C782.423 1031.79 784.237 1035.91 784.237 1040.96C784.237 1046.08 782.423 1050.28 778.796 1053.55C775.24 1056.82 770.581 1058.46 764.82 1058.46ZM781.463 1184.99H747.751V1075.74H781.463V1184.99Z" fill="#F7F6F8"/>
<path d="M915.352 1184.99H881.746V1124.28C881.746 1107.36 875.701 1098.89 863.61 1098.89C857.778 1098.89 852.977 1101.13 849.207 1105.61C845.438 1110.09 843.553 1115.78 843.553 1122.68V1184.99H809.841V1075.74H843.553V1093.02H843.98C852.017 1079.72 863.716 1073.07 879.079 1073.07C903.261 1073.07 915.352 1088.08 915.352 1118.1V1184.99Z" fill="#F7F6F8"/>
<path d="M1040.28 1139.97H969.014C970.152 1155.83 980.145 1163.76 998.992 1163.76C1011.01 1163.76 1021.57 1160.91 1030.68 1155.22V1179.55C1020.58 1184.95 1007.46 1187.65 991.311 1187.65C973.672 1187.65 959.981 1182.78 950.237 1173.04C940.494 1163.22 935.622 1149.57 935.622 1132.07C935.622 1113.93 940.885 1099.57 951.411 1088.97C961.937 1078.37 974.882 1073.07 990.244 1073.07C1006.18 1073.07 1018.48 1077.8 1027.16 1087.26C1035.9 1096.72 1040.28 1109.56 1040.28 1125.78V1139.97ZM1009.02 1119.27C1009.02 1103.62 1002.69 1095.8 990.031 1095.8C984.625 1095.8 979.931 1098.04 975.948 1102.52C972.037 1107 969.654 1112.58 968.8 1119.27H1009.02Z" fill="#F7F6F8"/>
<path d="M1053.19 1182.11V1154.79C1058.74 1158.14 1064.25 1160.63 1069.72 1162.26C1075.27 1163.9 1080.5 1164.72 1085.41 1164.72C1091.38 1164.72 1096.07 1163.9 1099.49 1162.26C1102.97 1160.63 1104.72 1158.14 1104.72 1154.79C1104.72 1152.66 1103.93 1150.88 1102.37 1149.46C1100.8 1148.04 1098.78 1146.79 1096.29 1145.73C1093.87 1144.66 1091.2 1143.7 1088.29 1142.85C1085.37 1141.99 1082.56 1141.03 1079.86 1139.97C1075.52 1138.33 1071.68 1136.59 1068.34 1134.74C1065.07 1132.82 1062.29 1130.61 1060.02 1128.12C1057.81 1125.63 1056.1 1122.75 1054.89 1119.48C1053.76 1116.21 1053.19 1112.33 1053.19 1107.85C1053.19 1101.74 1054.5 1096.47 1057.14 1092.06C1059.84 1087.65 1063.39 1084.06 1067.8 1081.29C1072.28 1078.44 1077.37 1076.38 1083.06 1075.1C1088.82 1073.75 1094.79 1073.07 1100.98 1073.07C1105.82 1073.07 1110.73 1073.47 1115.7 1074.25C1120.68 1074.96 1125.59 1076.03 1130.43 1077.45V1103.48C1126.16 1100.99 1121.57 1099.14 1116.67 1097.93C1111.83 1096.65 1107.06 1096.01 1102.37 1096.01C1100.16 1096.01 1098.07 1096.22 1096.07 1096.65C1094.15 1097.01 1092.45 1097.58 1090.95 1098.36C1089.46 1099.07 1088.29 1100.03 1087.43 1101.24C1086.58 1102.38 1086.15 1103.69 1086.15 1105.19C1086.15 1107.18 1086.79 1108.88 1088.07 1110.31C1089.35 1111.73 1091.03 1112.97 1093.09 1114.04C1095.15 1115.04 1097.43 1115.96 1099.92 1116.81C1102.48 1117.6 1105 1118.42 1107.49 1119.27C1111.97 1120.83 1116.02 1122.54 1119.65 1124.39C1123.28 1126.24 1126.37 1128.41 1128.93 1130.9C1131.57 1133.39 1133.56 1136.3 1134.91 1139.65C1136.33 1142.99 1137.04 1146.97 1137.04 1151.59C1137.04 1158.07 1135.62 1163.61 1132.77 1168.24C1130 1172.79 1126.27 1176.52 1121.57 1179.44C1116.95 1182.28 1111.58 1184.35 1105.46 1185.63C1099.42 1186.98 1093.12 1187.65 1086.58 1187.65C1074.56 1187.65 1063.43 1185.8 1053.19 1182.11Z" fill="#F7F6F8"/>
<path d="M1149.42 1182.11V1154.79C1154.96 1158.14 1160.48 1160.63 1165.95 1162.26C1171.5 1163.9 1176.73 1164.72 1181.64 1164.72C1187.61 1164.72 1192.3 1163.9 1195.72 1162.26C1199.2 1160.63 1200.95 1158.14 1200.95 1154.79C1200.95 1152.66 1200.16 1150.88 1198.6 1149.46C1197.03 1148.04 1195.01 1146.79 1192.52 1145.73C1190.1 1144.66 1187.43 1143.7 1184.52 1142.85C1181.6 1141.99 1178.79 1141.03 1176.09 1139.97C1171.75 1138.33 1167.91 1136.59 1164.57 1134.74C1161.29 1132.82 1158.52 1130.61 1156.24 1128.12C1154.04 1125.63 1152.33 1122.75 1151.12 1119.48C1149.99 1116.21 1149.42 1112.33 1149.42 1107.85C1149.42 1101.74 1150.73 1096.47 1153.36 1092.06C1156.07 1087.65 1159.62 1084.06 1164.03 1081.29C1168.51 1078.44 1173.6 1076.38 1179.29 1075.1C1185.05 1073.75 1191.02 1073.07 1197.21 1073.07C1202.05 1073.07 1206.96 1073.47 1211.93 1074.25C1216.91 1074.96 1221.82 1076.03 1226.66 1077.45V1103.48C1222.39 1100.99 1217.8 1099.14 1212.89 1097.93C1208.06 1096.65 1203.29 1096.01 1198.6 1096.01C1196.39 1096.01 1194.3 1096.22 1192.3 1096.65C1190.38 1097.01 1188.68 1097.58 1187.18 1098.36C1185.69 1099.07 1184.52 1100.03 1183.66 1101.24C1182.81 1102.38 1182.38 1103.69 1182.38 1105.19C1182.38 1107.18 1183.02 1108.88 1184.3 1110.31C1185.58 1111.73 1187.25 1112.97 1189.32 1114.04C1191.38 1115.04 1193.66 1115.96 1196.14 1116.81C1198.71 1117.6 1201.23 1118.42 1203.72 1119.27C1208.2 1120.83 1212.25 1122.54 1215.88 1124.39C1219.51 1126.24 1222.6 1128.41 1225.16 1130.9C1227.79 1133.39 1229.79 1136.3 1231.14 1139.65C1232.56 1142.99 1233.27 1146.97 1233.27 1151.59C1233.27 1158.07 1231.85 1163.61 1229 1168.24C1226.23 1172.79 1222.5 1176.52 1217.8 1179.44C1213.18 1182.28 1207.81 1184.35 1201.69 1185.63C1195.65 1186.98 1189.35 1187.65 1182.81 1187.65C1170.79 1187.65 1159.66 1185.8 1149.42 1182.11Z" fill="#F7F6F8"/>
<path d="M1267.84 1187.65C1262.29 1187.65 1257.67 1185.95 1253.97 1182.53C1250.27 1179.12 1248.42 1174.92 1248.42 1169.94C1248.42 1164.82 1250.3 1160.63 1254.07 1157.36C1257.92 1154.08 1262.68 1152.45 1268.37 1152.45C1274.13 1152.45 1278.83 1154.12 1282.45 1157.46C1286.15 1160.73 1288 1164.89 1288 1169.94C1288 1175.14 1286.12 1179.4 1282.35 1182.75C1278.65 1186.02 1273.81 1187.65 1267.84 1187.65Z" fill="#F7F6F8"/>
</g>
</svg>
