<svg width="140" height="140" viewBox="0 0 140 140" fill="none" xmlns="http://www.w3.org/2000/svg">
<g clip-path="url(#clip0_6995_4434)">
<path d="M0 70C0 31.3401 31.3401 0 70 0C108.66 0 140 31.3401 140 70C140 108.66 108.66 140 70 140C31.3401 140 0 108.66 0 70Z" fill="#ECECF6"/>
<g clip-path="url(#clip1_6995_4434)">
<path d="M107.798 43.4086V86.5251C107.798 89.6078 105.285 92.1212 102.202 92.1212H36.3954C33.3127 92.1212 30.7993 89.6078 30.7993 86.5251V43.4086C30.7993 40.3259 33.3127 37.8125 36.3954 37.8125H102.202C105.285 37.8125 107.798 40.3259 107.798 43.4086Z" fill="white"/>
<path d="M104.715 99.1201C105.41 99.1201 105.979 99.6894 105.979 100.384C105.979 101.078 105.41 101.647 104.715 101.647C104.021 101.647 103.452 101.078 103.452 100.384C103.452 99.6894 104.021 99.1201 104.715 99.1201Z" fill="#300045"/>
<path d="M103.035 29.9668C103.729 29.9668 104.299 30.5361 104.299 31.2304C104.299 31.9247 103.729 32.4941 103.035 32.4941C102.341 32.4941 101.771 31.9247 101.771 31.2304C101.771 30.5361 102.341 29.9668 103.035 29.9668Z" fill="#300045"/>
<path d="M102.618 81.6234H36.1177V43.1172H102.618V81.6234Z" fill="#FFC5CD"/>
<path d="M93.3842 99.9668C94.0785 99.9668 94.6478 100.536 94.6478 101.23C94.6478 101.925 94.0785 102.494 93.3842 102.494C92.6899 102.494 92.1206 101.925 92.1206 101.23C92.1206 100.536 92.6899 99.9668 93.3842 99.9668Z" fill="#300045"/>
<path d="M82.8721 103.466C84.1357 103.466 85.1077 104.452 85.1077 105.702C85.1077 106.951 84.1218 107.937 82.8721 107.937H55.7108C54.4471 107.937 53.4751 106.951 53.4751 105.702C53.4751 104.452 54.461 103.466 55.7108 103.466H82.8721Z" fill="#FFC5CD"/>
<path d="M82.4556 92.1211V93.107C82.4556 94.9261 80.9143 96.4675 79.0952 96.4675H59.6407C57.8216 96.4675 56.2803 94.9261 56.2803 93.107V92.1211H82.4556Z" fill="#FFC5CD"/>
<path d="M75.4572 96.4678H63.1401V103.466H75.4572V96.4678Z" fill="white"/>
<path d="M70.5554 85.5399C70.8331 85.8176 71.1108 86.2341 71.1108 86.8035C71.1108 87.3728 70.972 87.7894 70.5554 88.0671C70.2777 88.3448 69.8611 88.6226 69.2917 88.6226C68.3058 88.6226 67.4727 87.7894 67.4727 86.8035C67.4727 86.3869 67.6115 85.8176 68.0281 85.5399C68.3058 85.2621 68.7224 84.9844 69.2917 84.9844C69.8611 84.9844 70.2777 85.2621 70.5554 85.5399Z" fill="#300045"/>
<path d="M67.0561 34.3134C67.754 34.3134 68.3198 33.7477 68.3198 33.0498C68.3198 32.3519 67.754 31.7861 67.0561 31.7861C66.3582 31.7861 65.7925 32.3519 65.7925 33.0498C65.7925 33.7477 66.3582 34.3134 67.0561 34.3134Z" fill="#300045"/>
<path d="M51.3783 94.7871C52.0727 94.7871 52.642 95.3564 52.642 96.0508C52.642 96.7451 52.0727 97.3144 51.3783 97.3144C50.684 97.3144 50.1147 96.7451 50.1147 96.0508C50.1147 95.3564 50.684 94.7871 51.3783 94.7871Z" fill="#300045"/>
<path d="M42.1302 107.799C44.9908 107.799 47.3097 105.48 47.3097 102.619C47.3097 99.7584 44.9908 97.4395 42.1302 97.4395C39.2697 97.4395 36.9507 99.7584 36.9507 102.619C36.9507 105.48 39.2697 107.799 42.1302 107.799Z" fill="white"/>
<path d="M40.0337 29.9668C40.728 29.9668 41.2973 30.5361 41.2973 31.2304C41.2973 31.9247 40.728 32.4941 40.0337 32.4941C39.3394 32.4941 38.77 31.9247 38.77 31.2304C38.77 30.5361 39.3394 29.9668 40.0337 29.9668Z" fill="#300045"/>
<path d="M32.063 97.3008C32.7573 97.3008 33.3266 97.8701 33.3266 98.5644C33.3266 99.2587 32.7573 99.828 32.063 99.828C31.3687 99.828 30.7993 99.2587 30.7993 98.5644C30.7993 97.8701 31.3687 97.3008 32.063 97.3008Z" fill="#300045"/>
<path d="M63.1401 97.3004H59.5019C57.1274 97.3004 55.1694 95.3425 55.1694 92.9541V91.9681C55.1694 91.5515 55.586 91.1211 56.0026 91.1211C56.4192 91.1211 56.8358 91.5377 56.8358 91.9681V92.9541C56.8358 94.3566 57.9605 95.4813 59.363 95.4813H63.0012C63.4178 95.4813 63.8483 95.8979 63.8483 96.3145C63.8483 96.7311 63.7094 97.3004 63.154 97.3004H63.1401Z" fill="#300045"/>
<path d="M78.9562 97.3008H75.318C74.9015 97.3008 74.4849 96.8842 74.4849 96.4537C74.4849 96.0233 74.9015 95.6206 75.318 95.6206H78.9562C80.3587 95.6206 81.4696 94.4958 81.4696 93.1072V92.1213C81.4696 91.7047 81.8862 91.2881 82.3028 91.2881C82.7193 91.2881 83.1498 91.7047 83.1498 92.1213V93.1072C83.2887 95.3428 81.3307 97.3008 78.9562 97.3008Z" fill="#300045"/>
<path d="M75.4568 104.3C75.0403 104.3 74.6098 103.883 74.6098 103.467V97.3011H64.1119V103.467C64.1119 103.883 63.6953 104.3 63.2787 104.3C62.8621 104.3 62.4316 103.883 62.4316 103.467V96.4679C62.4316 96.0514 62.8482 95.6348 63.2787 95.6348H75.5957C76.0123 95.6348 76.4288 96.0514 76.4288 96.4679V103.467C76.29 103.883 75.8734 104.3 75.4429 104.3H75.4568Z" fill="#300045"/>
<path d="M82.8724 108.646H55.7111C54.0309 108.646 52.6284 107.243 52.6284 105.563C52.6284 104.73 52.9061 104.022 53.4755 103.466C54.0309 102.911 54.878 102.619 55.5723 102.619H82.7335C84.4138 102.619 85.8163 104.022 85.8163 105.702C85.8163 106.549 85.5385 107.243 84.9692 107.799C84.4137 108.354 83.7056 108.646 82.8724 108.646ZM55.7111 104.299C55.2946 104.299 55.0168 104.438 54.7252 104.716C54.4475 104.994 54.3086 105.271 54.3086 105.702C54.3086 106.396 54.8641 106.966 55.5723 106.966H82.7335C83.1501 106.966 83.4278 106.827 83.7194 106.549C83.9972 106.271 84.1361 105.993 84.1361 105.563C84.1361 104.869 83.5806 104.299 82.8724 104.299H55.7111Z" fill="#300045"/>
<path d="M42.1303 108.645C38.7698 108.645 35.9648 105.84 35.9648 102.48C35.9648 99.1195 38.7698 96.3145 42.1303 96.3145C45.4907 96.3145 48.2957 99.1195 48.2957 102.48C48.2957 105.84 45.4907 108.645 42.1303 108.645ZM42.1303 98.1474C39.7558 98.1474 37.7978 100.105 37.7978 102.494C37.7978 104.882 39.7558 106.826 42.1303 106.826C44.5048 106.826 46.4766 104.868 46.4766 102.494C46.4766 100.119 44.5187 98.1474 42.1303 98.1474Z" fill="#300045"/>
<path d="M102.618 82.4704H36.1175C35.701 82.4704 35.2705 82.0538 35.2705 81.6372V43.131C35.2705 42.7144 35.6871 42.2979 36.1175 42.2979H102.618C103.035 42.2979 103.451 42.7144 103.451 43.131V81.6372C103.451 82.0538 103.035 82.4704 102.618 82.4704ZM36.9507 80.6375H101.771V43.9642H36.9507V80.6375Z" fill="#300045"/>
<path d="M102.202 92.9686H36.3953C32.7572 92.9686 29.9521 90.0247 29.9521 86.5254V43.409C29.9521 39.7708 32.896 36.9658 36.3953 36.9658H102.202C105.84 36.9658 108.645 39.9097 108.645 43.409V86.5254C108.645 90.0247 105.84 92.9686 102.202 92.9686ZM36.3953 38.646C33.7431 38.646 31.6324 40.7428 31.6324 43.409V86.5254C31.6324 89.1916 33.7292 91.2884 36.3953 91.2884H102.202C104.868 91.2884 106.965 89.1916 106.965 86.5254V43.409C106.965 40.7428 104.868 38.646 102.202 38.646H36.3953Z" fill="#300045"/>
<path d="M64.1122 63.1412H59.7797C59.3631 63.1412 58.9326 62.7246 58.9326 62.2941C58.9326 61.8636 59.3492 61.4609 59.7797 61.4609H64.1122C64.5287 61.4609 64.9592 61.8775 64.9592 62.2941C64.9592 62.7107 64.5426 63.1412 64.1122 63.1412Z" fill="#300045"/>
<path d="M79.8032 63.1412H67.4862C67.0696 63.1412 66.6392 62.7246 66.6392 62.2941C66.6392 61.8636 67.0557 61.4609 67.4862 61.4609H79.8032C80.2198 61.4609 80.6503 61.8775 80.6503 62.2941C80.6503 62.7107 80.2337 63.1412 79.8032 63.1412Z" fill="#300045"/>
<path d="M67.6111 67.6263H59.7655C59.3489 67.6263 58.9185 67.2097 58.9185 66.7931C58.9185 66.3766 59.335 65.96 59.7655 65.96H67.6111C68.0277 65.96 68.4582 66.3766 68.4582 66.7931C68.4582 67.2097 68.0416 67.6263 67.6111 67.6263Z" fill="#300045"/>
<path d="M72.7907 67.6263H70.9716C70.555 67.6263 70.1245 67.2097 70.1245 66.7931C70.1245 66.3766 70.5411 65.96 70.9716 65.96H72.7907C73.2073 65.96 73.6377 66.3766 73.6377 66.7931C73.6377 67.2097 73.2211 67.6263 72.7907 67.6263Z" fill="#300045"/>
<path d="M78.9563 67.6263H76.2902C75.8736 67.6263 75.457 67.2097 75.457 66.7931C75.457 66.3766 75.8736 65.96 76.2902 65.96H78.9563C79.3729 65.96 79.7895 66.3766 79.7895 66.7931C79.7895 67.2097 79.3729 67.6263 78.9563 67.6263Z" fill="#300045"/>
<path d="M62.2927 71.9583H59.6266C59.21 71.9583 58.7935 71.5418 58.7935 71.1252C58.7935 70.7086 59.21 70.292 59.6266 70.292H62.2927C62.7093 70.292 63.1259 70.7086 63.1259 71.1252C63.1259 71.5418 62.7093 71.9583 62.2927 71.9583Z" fill="#300045"/>
<path d="M71.9576 71.9583H65.7921C65.3755 71.9583 64.959 71.5418 64.959 71.1252C64.959 70.7086 65.3755 70.292 65.7921 70.292H71.9576C72.3741 70.292 72.7907 70.7086 72.7907 71.1252C72.7907 71.5418 72.3741 71.9583 71.9576 71.9583Z" fill="#300045"/>
<path d="M78.9562 71.9583H75.4569C75.0404 71.9583 74.6099 71.5418 74.6099 71.1252C74.6099 70.7086 75.0265 70.292 75.4569 70.292H78.9562C79.3728 70.292 79.7894 70.7086 79.7894 71.1252C79.7894 71.5418 79.3728 71.9583 78.9562 71.9583Z" fill="#300045"/>
<path d="M63.1401 76.3052H59.6408C59.2242 76.3052 58.8076 75.8886 58.8076 75.4582C58.8076 75.0277 59.2242 74.625 59.6408 74.625H63.1401C63.5567 74.625 63.9872 75.0416 63.9872 75.4582C63.9872 75.8748 63.7094 76.3052 63.1401 76.3052Z" fill="#300045"/>
<path d="M74.6097 76.3052H66.7641C66.3475 76.3052 65.917 75.8886 65.917 75.4582C65.917 75.0277 66.3336 74.625 66.7641 74.625H74.6097C75.0263 74.625 75.4568 75.0416 75.4568 75.4582C75.4568 75.8748 75.0402 76.3052 74.6097 76.3052Z" fill="#300045"/>
<path d="M63.973 57.9608C63.8341 57.9608 63.5564 57.9608 63.4175 57.822L59.0712 54.3227C58.9323 54.1838 58.7935 53.9061 58.7935 53.6284C58.7935 53.3507 58.9323 53.0729 59.0712 52.9341L63.4175 49.4348C63.8341 49.1571 64.4034 49.157 64.6812 49.5736C64.9589 49.9902 64.9589 50.5595 64.5423 50.8373L61.043 53.6423L64.5423 56.4473C64.9589 56.725 64.9589 57.2943 64.6812 57.7109C64.5423 57.8498 64.2646 57.9886 63.9869 57.9886L63.973 57.9608Z" fill="#300045"/>
<path d="M74.61 57.9613C74.3323 57.9613 74.0546 57.8224 73.9157 57.6835C73.638 57.267 73.638 56.6977 74.0546 56.4199L77.5539 53.6149L74.0546 50.8099C73.638 50.5322 73.638 49.9768 73.9157 49.5463C74.1934 49.1297 74.7489 49.1297 75.1794 49.4074L79.5257 52.9068C79.6646 53.0456 79.8034 53.3233 79.8034 53.6011C79.8034 53.8788 79.6646 54.1565 79.5257 54.2954L75.1794 57.7947C74.9016 57.7947 74.7628 57.9335 74.6239 57.9335L74.61 57.9613Z" fill="#300045"/>
<path d="M67.4726 57.1278C67.3337 57.1278 67.1948 57.1278 67.056 56.989C66.6394 56.7112 66.5006 56.1558 66.7783 55.7254L70.2776 49.5599C70.5553 49.1433 71.1107 49.0045 71.5412 49.2822C71.9578 49.5599 72.0966 50.1292 71.8189 50.5458L68.3196 56.7113C68.1808 56.8501 67.903 57.1278 67.4864 57.1278H67.4726Z" fill="#300045"/>
</g>
</g>
<defs>
<clipPath id="clip0_6995_4434">
<path d="M0 70C0 31.3401 31.3401 0 70 0C108.66 0 140 31.3401 140 70C140 108.66 108.66 140 70 140C31.3401 140 0 108.66 0 70Z" fill="white"/>
</clipPath>
<clipPath id="clip1_6995_4434">
<rect width="140" height="140" fill="white"/>
</clipPath>
</defs>
</svg>
