<svg width="140" height="140" viewBox="0 0 140 140" fill="none" xmlns="http://www.w3.org/2000/svg">
<g clip-path="url(#clip0_6995_4325)">
<path d="M0 70C0 31.3401 31.3401 0 70 0C108.66 0 140 31.3401 140 70C140 108.66 108.66 140 70 140C31.3401 140 0 108.66 0 70Z" fill="#ECECF6"/>
<g clip-path="url(#clip1_6995_4325)">
<path d="M79.3869 29.1191H48.032C44.1161 29.1191 41.0334 32.3407 41.0334 36.1178V102.48C41.0334 106.395 44.255 109.478 48.032 109.478H79.3869C83.3028 109.478 86.3855 106.257 86.3855 102.48V36.1178C86.3855 32.2019 83.3028 29.1191 79.3869 29.1191Z" fill="#FFC5CD"/>
<path d="M77.429 34.2988H70.7081V34.5765C70.7081 35.8402 69.7222 36.8122 68.4724 36.8122H59.0993C57.8356 36.8122 56.8636 35.8263 56.8636 34.5765V34.2988H50.1427C48.0459 34.2988 46.3657 35.9791 46.3657 38.0759V100.661C46.3657 102.757 48.0459 104.438 50.1427 104.438H77.7206C79.8174 104.438 81.4976 102.757 81.4976 100.661V38.0759C81.081 35.9791 79.4008 34.2988 77.4428 34.2988H77.429Z" fill="white"/>
<path d="M103.049 39.6172C105.424 39.6172 107.381 41.5751 107.381 43.9635C107.381 46.3519 105.424 48.3099 103.049 48.3099C100.674 48.3099 98.7026 46.3519 98.7026 43.9635C98.7026 41.5751 100.522 39.6172 103.049 39.6172Z" fill="white"/>
<path d="M77.8456 71.1108V55.1556C77.8456 53.1977 79.2481 51.5175 81.0672 50.962C83.7195 50.2677 86.3855 52.3645 86.3855 55.1556V67.3338H105.701V81.6087C105.701 90.9818 98.0083 98.6886 88.6213 98.6886C79.2342 98.6886 71.5413 90.9818 71.5413 81.6087V74.0546C71.5413 72.3744 72.805 71.1108 74.4852 71.1108H77.8456Z" fill="white"/>
<path d="M102.618 101.771C103.313 101.771 103.882 102.341 103.882 103.035C103.882 103.729 103.313 104.299 102.618 104.299C101.924 104.299 101.355 103.729 101.355 103.035C101.355 102.341 101.924 101.771 102.618 101.771Z" fill="#300045"/>
<path d="M96.0502 54.4609C96.7445 54.4609 97.3138 55.0303 97.3138 55.7246C97.3138 56.4189 96.7445 56.9882 96.0502 56.9882C95.3559 56.9882 94.7866 56.4189 94.7866 55.7246C94.7866 55.0303 95.3559 54.4609 96.0502 54.4609Z" fill="#300045"/>
<path d="M91.1485 31.7715C91.8428 31.7715 92.4121 32.3408 92.4121 33.0351C92.4121 33.7294 91.8428 34.2988 91.1485 34.2988C90.4541 34.2988 89.8848 33.7294 89.8848 33.0351C89.8848 32.3408 90.4541 31.7715 91.1485 31.7715Z" fill="#300045"/>
<path d="M62.7236 43.1162C69.0279 43.1162 74.0686 48.1569 74.0686 54.4612C74.0686 60.7655 69.0279 65.8062 62.7236 65.8062C56.4193 65.8062 51.3787 60.7655 51.3787 54.4612C51.3787 48.1569 56.4193 43.1162 62.7236 43.1162Z" fill="#FFC5CD"/>
<path d="M36.1177 81.6084C36.812 81.6084 37.3813 82.1777 37.3813 82.872C37.3813 83.5663 36.812 84.1357 36.1177 84.1357C35.4234 84.1357 34.854 83.5663 34.854 82.872C34.854 82.1777 35.4234 81.6084 36.1177 81.6084Z" fill="#300045"/>
<path d="M33.8822 92.1201C35.2847 92.1201 36.5484 93.2449 36.5484 94.7863C36.5484 96.3276 35.4235 97.4524 33.8822 97.4524C32.3408 97.4524 31.2161 96.3276 31.2161 94.7863C31.2161 93.2449 32.4797 92.1201 33.8822 92.1201Z" fill="white"/>
<path d="M33.4655 40.4502C34.1598 40.4502 34.7292 41.0195 34.7292 41.7138C34.7292 42.4081 34.1598 42.9775 33.4655 42.9775C32.7712 42.9775 32.2019 42.4081 32.2019 41.7138C32.2019 41.0195 32.7712 40.4502 33.4655 40.4502Z" fill="#300045"/>
<path d="M77.429 105.132H49.8511C47.3377 105.132 45.2271 103.035 45.2271 100.508V38.0616C45.2271 35.5482 47.3238 33.4375 49.8511 33.4375H56.572C56.9886 33.4375 57.419 33.8541 57.419 34.2707V34.5484C57.419 35.3816 58.1134 35.9509 58.8215 35.9509H68.1947C69.0417 35.9509 69.5972 35.2566 69.5972 34.5484V34.2707C69.5972 33.8541 70.0138 33.4375 70.4303 33.4375H77.1513C79.6647 33.4375 81.7754 35.5343 81.7754 38.0616V51.0868C81.7754 51.5034 81.3587 51.9338 80.9422 51.9338C80.5256 51.9338 80.0951 51.5173 80.0951 51.0868V38.0616C80.0951 36.5202 78.8315 35.2566 77.2901 35.2566H71.4163C71.1386 36.7979 69.8749 37.9227 68.3335 37.9227H58.9604C57.419 37.9227 56.1554 36.7979 55.8777 35.2566H49.865C48.3236 35.2566 47.06 36.5202 47.06 38.0616V100.646C47.06 102.188 48.3236 103.451 49.865 103.451H77.4428C78.9842 103.451 80.2478 102.188 80.2478 100.646V97.0082C80.2478 96.5916 80.6644 96.1612 81.0949 96.1612C81.5253 96.1612 81.9281 96.5778 81.9281 97.0082V100.646C82.067 103.16 79.9701 105.132 77.4428 105.132H77.429Z" fill="#300045"/>
<path d="M79.2481 110.45H47.8932C43.5469 110.45 39.9087 106.951 39.9087 102.466V36.1037C39.9087 31.7573 43.408 28.1191 47.8932 28.1191H79.2481C83.5806 28.1191 87.2327 31.6184 87.2327 36.1037V60.5988C87.2327 61.0154 86.816 61.4459 86.3994 61.4459C85.9829 61.4459 85.5663 61.0293 85.5663 60.5988V36.1037C85.5663 32.7432 82.7613 29.9382 79.4009 29.9382H47.9071C44.5467 29.9382 41.7417 32.7432 41.7417 36.1037V102.466C41.7417 105.826 44.5467 108.631 47.9071 108.631H79.262C82.6224 108.631 85.4274 105.826 85.4274 102.466V98.5496C85.4274 98.133 85.844 97.7165 86.2745 97.7165C86.6911 97.7165 87.1077 98.133 87.1077 98.5496V102.466C87.2465 106.812 83.7472 110.45 79.262 110.45H79.2481Z" fill="#300045"/>
<path d="M77.8457 80.9139C77.4291 80.9139 77.0125 80.4974 77.0125 80.0808V71.2631C77.0125 70.8465 77.4291 70.416 77.8457 70.416C78.2623 70.416 78.6927 70.8326 78.6927 71.2631V80.0808C78.8316 80.4974 78.415 80.9139 77.8457 80.9139Z" fill="#300045"/>
<path d="M86.3856 88.1903C85.969 88.1903 85.5525 87.7737 85.5525 87.3571V73.0822C85.5525 72.6656 85.969 72.249 86.3856 72.249C86.8022 72.249 87.2188 72.6656 87.2188 73.0822V87.3571C87.3577 87.7737 86.9411 88.1903 86.3856 88.1903Z" fill="#300045"/>
<path d="M92.1205 88.1902C91.7039 88.1902 91.2734 87.7736 91.2734 87.357V75.8732C91.2734 75.4566 91.69 75.04 92.1205 75.04C92.5509 75.04 92.9537 75.4566 92.9537 75.8732V87.357C92.9537 87.7736 92.6759 88.1902 92.1205 88.1902Z" fill="#300045"/>
<path d="M97.8695 88.1909C97.4529 88.1909 97.0225 87.7743 97.0225 87.3577V78.8178C97.0225 78.4012 97.439 77.9707 97.8695 77.9707C98.3 77.9707 98.7026 78.3873 98.7026 78.8178V87.3577C98.7026 87.7743 98.2861 88.1909 97.8695 88.1909Z" fill="#300045"/>
<path d="M88.6213 99.536C87.7743 99.536 87.0799 99.536 86.2468 99.3971C84.2888 99.1194 82.4697 98.5639 80.7895 97.7169C78.9704 96.8698 77.2902 95.6201 75.8877 94.2176C72.5272 90.8571 70.5693 86.3719 70.5693 81.484V73.9299C70.5693 71.8331 72.2495 70.1529 74.3463 70.1529H77.0124V55.1698C77.0124 52.7952 78.5538 50.6845 80.9283 50.1291C81.3449 49.9902 81.7616 49.9902 82.192 49.9902C83.5945 49.9902 84.8582 50.5457 85.8302 51.5316C86.8161 52.5175 87.3715 53.7673 87.3715 55.1698V66.3759H105.715C106.132 66.3759 106.562 66.7925 106.562 67.2091V81.484C106.562 91.5653 98.4387 99.5499 88.6351 99.5499L88.6213 99.536ZM74.4852 72.097C73.3605 72.097 72.3884 73.0829 72.3884 74.1938V81.7478C72.3884 86.0942 74.0686 90.1489 77.1514 93.2317C78.415 94.4953 79.9563 95.6062 81.4838 96.3144C83.0252 97.0087 84.7054 97.578 86.5245 97.8557C87.2188 97.9946 87.927 97.9946 88.6213 97.9946C97.5779 97.9946 104.868 90.7183 104.868 81.7478V68.306H86.3856C85.969 68.306 85.5524 67.8895 85.5524 67.4729V55.2947C85.5524 54.3088 85.2747 53.4757 84.5665 52.9202C84.0111 52.2259 83.0252 51.9343 82.192 51.9343C81.9143 51.9343 81.6365 51.9343 81.3449 52.0732C79.8035 52.4897 78.8315 53.7534 78.8315 55.4336V71.3888C78.8315 71.8054 78.415 72.2219 77.9845 72.2219L74.4852 72.0831V72.097Z" fill="#300045"/>
<path d="M62.7235 66.6389C56.0026 66.6389 50.4065 61.1817 50.4065 54.3219C50.4065 47.4621 55.8637 42.0049 62.7235 42.0049C69.5832 42.0049 75.0405 47.4621 75.0405 54.3219C75.0405 61.1817 69.4444 66.6389 62.7235 66.6389ZM62.7235 43.949C56.9885 43.949 52.2256 48.7119 52.2256 54.4469C52.2256 60.1818 56.9885 64.9448 62.7235 64.9448C68.4585 64.9448 73.2214 60.1818 73.2214 54.4469C73.2214 48.7119 68.4585 43.949 62.7235 43.949Z" fill="#300045"/>
<path d="M103.049 49.129C100.105 49.129 97.7305 46.7544 97.7305 43.8106C97.7305 40.8667 100.105 38.4922 103.049 38.4922C105.993 38.4922 108.367 40.8667 108.367 43.8106C108.367 46.7544 105.84 49.129 103.049 49.129ZM103.049 40.4501C101.091 40.4501 99.5495 41.9915 99.5495 43.9494C99.5495 45.9074 101.091 47.4488 103.049 47.4488C105.007 47.4488 106.548 45.9074 106.548 43.9494C106.548 41.9915 104.868 40.4501 103.049 40.4501Z" fill="#300045"/>
<path d="M33.8821 98.1334C31.9241 98.1334 30.3828 96.592 30.3828 94.6341C30.3828 92.6761 31.9241 91.1348 33.8821 91.1348C35.84 91.1348 37.3814 92.6761 37.3814 94.6341C37.3814 96.592 35.84 98.1334 33.8821 98.1334ZM33.8821 92.9538C32.91 92.9538 32.063 93.8009 32.063 94.7729C32.063 95.745 32.91 96.592 33.8821 96.592C34.8541 96.592 35.7011 95.745 35.7011 94.7729C35.7011 93.8009 34.8541 92.9538 33.8821 92.9538Z" fill="#300045"/>
<path d="M67.07 95.6197H46.0742C45.6576 95.6197 45.241 95.2031 45.241 94.7865C45.241 94.3699 45.6576 93.9395 46.0742 93.9395H67.07C67.4866 93.9395 67.9032 94.356 67.9032 94.7865C67.9032 95.217 67.6255 95.6197 67.07 95.6197Z" fill="#300045"/>
</g>
</g>
<defs>
<clipPath id="clip0_6995_4325">
<path d="M0 70C0 31.3401 31.3401 0 70 0C108.66 0 140 31.3401 140 70C140 108.66 108.66 140 70 140C31.3401 140 0 108.66 0 70Z" fill="white"/>
</clipPath>
<clipPath id="clip1_6995_4325">
<rect width="140" height="140" fill="white"/>
</clipPath>
</defs>
</svg>
