<svg width="140" height="140" viewBox="0 0 140 140" fill="none" xmlns="http://www.w3.org/2000/svg">
<g clip-path="url(#clip0_6995_4359)">
<path d="M0 70C0 31.3401 31.3401 0 70 0C108.66 0 140 31.3401 140 70C140 108.66 108.66 140 70 140C31.3401 140 0 108.66 0 70Z" fill="#ECECF6"/>
<path d="M106.548 74.4853C107.246 74.4853 107.812 73.9195 107.812 73.2217C107.812 72.5238 107.246 71.958 106.548 71.958C105.85 71.958 105.285 72.5238 105.285 73.2217C105.285 73.9195 105.85 74.4853 106.548 74.4853Z" fill="#300045"/>
<path d="M104.299 89.4542C104.299 92.3981 103.313 95.1892 101.785 97.5776C99.2579 93.9395 95.0643 91.7038 90.3014 91.7038C93.2452 91.7038 95.6198 89.3293 95.6198 86.3854C95.6198 83.4416 93.2452 81.067 90.3014 81.067C87.3575 81.067 84.983 83.4416 84.983 86.3854C84.983 89.3293 87.3575 91.7038 90.3014 91.7038C85.5384 91.7038 81.3449 94.0783 78.8176 97.5776C77.1374 95.342 76.3042 92.537 76.3042 89.4542C76.3042 81.7613 82.6084 75.457 90.3014 75.457C97.9943 75.457 104.299 81.7613 104.299 89.4542Z" fill="#FFC5CD"/>
<path d="M101.785 97.4385C99.2577 101.077 95.0641 103.312 90.3012 103.312C85.5382 103.312 81.3447 100.938 78.8174 97.4385C81.3308 93.8003 85.5382 91.5508 90.3012 91.5508C95.0641 91.5508 99.2577 93.9253 101.785 97.4385Z" fill="white"/>
<path d="M97.3002 34.4375C100.161 34.4375 102.48 36.7565 102.48 39.617C102.48 42.4776 100.161 44.7965 97.3002 44.7965C94.4396 44.7965 92.1206 42.4776 92.1206 39.617C92.1206 36.7565 94.4396 34.4375 97.3002 34.4375Z" fill="white"/>
<path d="M96.4667 53.6143C97.161 53.6143 97.7304 54.1836 97.7304 54.8779C97.7304 55.5722 97.161 56.1415 96.4667 56.1415C95.7724 56.1415 95.2031 55.5722 95.2031 54.8779C95.2031 54.1836 95.7724 53.6143 96.4667 53.6143Z" fill="#300045"/>
<path d="M90.3012 80.7754C93.2451 80.7754 95.6197 83.1499 95.6197 86.0938C95.6197 89.0376 93.2451 91.4122 90.3012 91.4122C87.3574 91.4122 84.9829 89.0376 84.9829 86.0938C84.9829 83.1499 87.3574 80.7754 90.3012 80.7754Z" fill="white"/>
<path d="M77.5678 33.4512C78.2621 33.4512 78.8314 34.0205 78.8314 34.7148C78.8314 35.4091 78.2621 35.9784 77.5678 35.9784C76.8735 35.9784 76.3042 35.4091 76.3042 34.7148C76.3042 34.0205 76.8735 33.4512 77.5678 33.4512Z" fill="#300045"/>
<path d="M67.0698 102.618C67.7641 102.618 68.3334 103.188 68.3334 103.882C68.3334 104.576 67.7641 105.145 67.0698 105.145C66.3754 105.145 65.8062 104.576 65.8062 103.882C65.8062 103.188 66.3754 102.618 67.0698 102.618Z" fill="#300045"/>
<path d="M62.307 64.1123V68.1671C62.307 69.7084 61.0434 71.1109 59.3632 71.1109H41.589C40.0476 71.1109 38.645 69.8473 38.645 68.1671V64.1123H62.307Z" fill="#FFC5CD"/>
<path d="M62.307 38.9224V63.9869H38.645V38.9224C38.645 37.3811 39.9087 35.9785 41.589 35.9785H59.5159C61.0573 36.1174 62.3209 37.3811 62.3209 38.9224H62.307Z" fill="white"/>
<path d="M42.1444 93.8008C44.1023 93.8008 45.6437 95.3421 45.6437 97.3001C45.6437 99.258 44.1023 100.799 42.1444 100.799C40.1864 100.799 38.645 99.258 38.645 97.3001C38.645 95.3421 40.1864 93.8008 42.1444 93.8008Z" fill="white"/>
<path d="M40.0473 81.623C40.7416 81.623 41.311 82.1923 41.311 82.8866C41.311 83.581 40.7416 84.1503 40.0473 84.1503C39.353 84.1503 38.7837 83.581 38.7837 82.8866C38.7837 82.1923 39.353 81.623 40.0473 81.623Z" fill="#300045"/>
<path d="M32.0629 58.7939C32.7572 58.7939 33.3266 59.3632 33.3266 60.0575C33.3266 60.7519 32.7572 61.3212 32.0629 61.3212C31.3686 61.3212 30.7993 60.7519 30.7993 60.0575C30.7993 59.3632 31.3686 58.7939 32.0629 58.7939Z" fill="#300045"/>
<path d="M59.3633 71.9576H41.5891C39.4923 71.9576 37.812 70.2774 37.812 68.1806V38.9225C37.812 36.8257 39.4923 35.1455 41.5891 35.1455H59.516C61.6128 35.1455 63.293 36.8257 63.293 38.9225V68.1806C63.1542 70.2774 61.474 71.9576 59.3772 71.9576H59.3633ZM41.5891 36.9507C40.4643 36.9507 39.6311 37.7977 39.6311 38.9086V68.1667C39.6311 69.2915 40.4782 70.1246 41.5891 70.1246H59.516C60.6408 70.1246 61.474 69.2776 61.474 68.1667V38.9086C61.474 37.7839 60.6408 36.9507 59.516 36.9507H41.5891Z" fill="#300045"/>
<path d="M62.3069 64.9595H38.6449C38.2283 64.9595 37.7979 64.5429 37.7979 64.1125C37.7979 63.682 38.2144 63.2793 38.6449 63.2793H62.3069C62.7235 63.2793 63.1539 63.6959 63.1539 64.1125C63.1539 64.5291 62.7374 64.9595 62.3069 64.9595Z" fill="#300045"/>
<path d="M52.6424 42.1304H48.296C47.8794 42.1304 47.4629 41.7139 47.4629 41.2973C47.4629 40.8807 47.8794 40.4502 48.296 40.4502H52.6424C53.059 40.4502 53.4756 40.8668 53.4756 41.2973C53.4756 41.7277 53.1978 42.1304 52.6424 42.1304Z" fill="#300045"/>
<path d="M101.785 98.4111C101.507 98.4111 101.23 98.2722 101.091 97.9945C98.5773 94.4952 94.6475 92.3984 90.3151 92.3984C85.9826 92.3984 82.0528 94.4952 79.5394 97.9945C79.2617 98.4111 78.7063 98.4111 78.2758 98.1334C77.8592 97.8557 77.8592 97.2863 78.1369 96.8697C80.9419 92.9539 85.4133 90.5654 90.3151 90.5654C95.2169 90.5654 99.6882 92.94 102.493 96.8697C102.771 97.2863 102.632 97.8418 102.354 98.1334C102.077 98.2723 101.938 98.4111 101.799 98.4111H101.785Z" fill="#300045"/>
<path d="M90.3013 92.3984C86.802 92.3984 83.9971 89.5934 83.9971 86.233C83.9971 82.8725 86.802 79.9287 90.3013 79.9287C93.8006 79.9287 96.6057 82.7337 96.6057 86.233C96.6057 89.7323 93.8006 92.3984 90.3013 92.3984ZM90.3013 81.6228C87.7741 81.6228 85.8162 83.5807 85.8162 86.108C85.8162 88.6353 87.7741 90.5933 90.3013 90.5933C92.8286 90.5933 94.7866 88.6353 94.7866 86.108C94.7866 83.7335 92.8286 81.6228 90.3013 81.6228Z" fill="#300045"/>
<path d="M90.3013 104.299C85.5384 104.299 80.9282 101.924 78.1232 97.9946C76.3041 95.4673 75.457 92.5374 75.457 89.4546C75.457 81.1924 82.1779 74.6104 90.3013 74.6104C98.4247 74.6104 105.146 81.1924 105.146 89.4546C105.146 92.5374 104.16 95.4673 102.493 97.9946C99.6884 101.91 95.0782 104.299 90.3152 104.299H90.3013ZM90.3013 76.2906C83.025 76.2906 77.1373 82.1644 77.1373 89.4546C77.1373 92.2596 77.9705 94.773 79.5118 97.0087C82.0252 100.508 85.9549 102.605 90.2874 102.605C94.6199 102.605 98.5497 100.508 101.063 97.0087C102.604 94.773 103.438 92.1069 103.438 89.4546C103.438 82.1783 97.5638 76.2906 90.2736 76.2906H90.3013Z" fill="#300045"/>
<path d="M71.1248 95.6195C60.0715 95.6195 50.2679 88.2043 47.4629 77.4148C47.324 76.9982 47.6017 76.4289 48.0183 76.29C48.4349 76.1512 49.0043 76.4289 49.1431 76.8455C51.7954 86.788 60.9046 93.6477 71.1248 93.6477C71.5414 93.6477 71.958 94.0643 71.958 94.4948C71.958 94.9252 71.5414 95.6195 71.1248 95.6195Z" fill="#300045"/>
<path d="M94.6478 71.9574C94.2312 71.9574 93.8146 71.5409 93.8146 71.1104C93.8146 58.5157 83.5944 48.2955 70.9997 48.2955C70.5831 48.2955 70.1665 47.8789 70.1665 47.4484C70.1665 47.0179 70.5831 46.6152 70.9997 46.6152C84.4415 46.6152 95.4948 57.6686 95.4948 71.1104C95.6337 71.527 95.2171 71.9574 94.6478 71.9574Z" fill="#300045"/>
<path d="M97.3002 45.6297C93.9398 45.6297 91.1348 42.8247 91.1348 39.4643C91.1348 36.1038 93.9398 33.2988 97.3002 33.2988C100.661 33.2988 103.466 36.1038 103.466 39.4643C103.466 42.8247 100.661 45.6297 97.3002 45.6297ZM97.3002 35.1318C94.9257 35.1318 92.9538 37.0898 92.9538 39.4782C92.9538 41.8666 94.9118 43.8106 97.3002 43.8106C99.6886 43.8106 101.633 41.8527 101.633 39.4782C101.633 37.1036 99.6747 35.1318 97.3002 35.1318Z" fill="#300045"/>
<path d="M42.1442 101.633C39.7697 101.633 37.7979 99.675 37.7979 97.2866C37.7979 94.8982 39.7558 92.9541 42.1442 92.9541C44.5326 92.9541 46.4767 94.9121 46.4767 97.2866C46.6155 99.6611 44.5187 101.633 42.1442 101.633ZM42.1442 94.6344C40.7417 94.6344 39.4781 95.7591 39.4781 97.2866C39.4781 98.6891 40.6029 99.9527 42.1442 99.9527C43.5467 99.9527 44.7965 98.828 44.7965 97.2866C44.7965 95.7452 43.6717 94.6344 42.1442 94.6344Z" fill="#300045"/>
</g>
<defs>
<clipPath id="clip0_6995_4359">
<path d="M0 70C0 31.3401 31.3401 0 70 0C108.66 0 140 31.3401 140 70C140 108.66 108.66 140 70 140C31.3401 140 0 108.66 0 70Z" fill="white"/>
</clipPath>
</defs>
</svg>
