<svg width="140" height="140" viewBox="0 0 140 140" fill="none" xmlns="http://www.w3.org/2000/svg">
<g clip-path="url(#clip0_6995_4392)">
<path d="M0 70C0 31.3401 31.3401 0 70 0C108.66 0 140 31.3401 140 70C140 108.66 108.66 140 70 140C31.3401 140 0 108.66 0 70Z" fill="#ECECF6"/>
<g clip-path="url(#clip1_6995_4392)">
<path d="M106.534 45.2135V50.9485H68.4586C65.3759 50.9485 62.7236 48.4351 62.7236 45.2135C62.7236 41.9919 65.237 39.4785 68.4586 39.4785H100.799C103.882 39.6174 106.534 42.1447 106.534 45.2135Z" fill="white"/>
<path d="M104.299 30.7998C104.993 30.7998 105.562 31.3691 105.562 32.0634C105.562 32.7578 104.993 33.3271 104.299 33.3271C103.604 33.3271 103.035 32.7578 103.035 32.0634C103.035 31.3691 103.604 30.7998 104.299 30.7998Z" fill="#300045"/>
<path d="M103.466 66.7783C104.16 66.7783 104.729 67.3476 104.729 68.0419C104.729 68.7362 104.16 69.3056 103.466 69.3056C102.771 69.3056 102.202 68.7362 102.202 68.0419C102.202 67.3476 102.771 66.7783 103.466 66.7783Z" fill="#300045"/>
<path d="M102.48 86.8022C102.48 89.1767 101.647 91.5651 100.383 93.3842C98.2862 90.4404 94.9258 88.6213 91.1488 88.6213C93.5233 88.6213 95.4812 86.6633 95.4812 84.2749C95.4812 81.8865 93.5233 79.7897 91.1488 79.7897C88.7742 79.7897 86.8024 81.7476 86.8024 84.1361C86.8024 86.5245 88.7603 88.4824 91.1488 88.4824C87.3717 88.4824 83.8724 90.4404 81.9144 93.2454C80.6508 91.4263 79.8176 89.1906 79.8176 86.6633C79.8176 80.359 84.8584 75.3184 91.1627 75.3184C97.467 75.3184 102.508 80.4979 102.508 86.8022H102.48Z" fill="#FFC5CD"/>
<path d="M100.383 93.3704C98.286 96.3142 94.9256 98.1333 91.1486 98.1333C87.3716 98.1333 83.8723 96.1754 81.9143 93.3704C84.0111 90.4265 87.3716 88.6074 91.1486 88.6074C94.9256 88.6074 98.286 90.4265 100.383 93.3704Z" fill="white"/>
<path d="M101.216 57.531C101.216 61.1692 98.2723 64.1131 94.6341 64.1131H48.2961L39.0618 70.2785V57.5449C39.0618 53.9067 42.0056 50.9629 45.6438 50.9629H94.648C98.2862 50.9629 101.23 53.9067 101.23 57.5449L101.216 57.531Z" fill="#FFC5CD"/>
<path d="M95.62 103.452C96.3144 103.452 96.8837 104.021 96.8837 104.716C96.8837 105.41 96.3144 105.979 95.62 105.979C94.9257 105.979 94.3564 105.41 94.3564 104.716C94.3564 104.021 94.9257 103.452 95.62 103.452Z" fill="#300045"/>
<path d="M91.1347 79.79C93.5092 79.79 95.4672 81.748 95.4672 84.1364C95.4672 86.5248 93.5092 88.4828 91.1347 88.4828C88.7602 88.4828 86.7883 86.5248 86.7883 84.1364C86.7883 81.748 88.6074 79.79 91.1347 79.79Z" fill="white"/>
<path d="M75.8738 99.9531C77.8318 99.9531 79.3732 101.494 79.3732 103.452C79.3732 105.41 77.8318 106.952 75.8738 106.952C73.9159 106.952 72.3745 105.41 72.3745 103.452C72.3745 101.494 73.9159 99.9531 75.8738 99.9531Z" fill="white"/>
<path d="M80.2203 81.6096C80.2203 83.9841 79.3732 86.3726 78.1235 88.1917C76.0267 85.2478 72.6662 83.4287 68.8892 83.4287C71.2637 83.4287 73.2355 81.4708 73.2355 79.0824C73.2355 76.6939 71.2776 74.736 68.8892 74.736C66.5007 74.736 64.5567 76.6939 64.5567 79.0824C64.5567 81.4708 66.5146 83.4287 68.8892 83.4287C65.1121 83.4287 61.6129 85.3867 59.6549 88.1917C58.3913 86.3726 57.5581 84.1369 57.5581 81.6096C57.5581 75.3053 62.5987 70.2646 68.9031 70.2646C75.2074 70.2646 80.248 75.3053 80.248 81.6096H80.2203Z" fill="#FFC5CD"/>
<path d="M78.1236 88.052C76.0268 90.9959 72.6663 92.815 68.8893 92.815C65.1122 92.815 61.613 90.9959 59.655 88.052C61.7518 85.1081 65.1122 83.2891 68.8893 83.2891C72.6663 83.2891 76.0268 85.247 78.1236 88.052Z" fill="white"/>
<path d="M68.8753 74.6104C71.2498 74.6104 73.2216 76.5683 73.2216 78.9567C73.2216 81.3451 71.2637 83.3031 68.8753 83.3031C66.4869 83.3031 64.5427 81.3451 64.5427 78.9567C64.5427 76.5683 66.5007 74.6104 68.8753 74.6104Z" fill="white"/>
<path d="M63.1404 99.9531C63.8347 99.9531 64.404 100.522 64.404 101.217C64.404 101.911 63.8347 102.48 63.1404 102.48C62.4461 102.48 61.8767 101.911 61.8767 101.217C61.8767 100.522 62.4461 99.9531 63.1404 99.9531Z" fill="#300045"/>
<path d="M59.6411 32.6191C60.3354 32.6191 60.9047 33.1885 60.9047 33.8828C60.9047 34.5771 60.3354 35.1464 59.6411 35.1464C58.9468 35.1464 58.3774 34.5771 58.3774 33.8828C58.3774 33.1885 58.9468 32.6191 59.6411 32.6191Z" fill="#300045"/>
<path d="M57.9608 86.8022C57.9608 89.1767 57.1276 91.5651 55.8639 93.3842C53.7671 90.4404 50.4067 88.6213 46.6297 88.6213C49.0042 88.6213 50.9622 86.6633 50.9622 84.2749C50.9622 81.8865 49.0042 79.7897 46.6297 79.7897C44.2552 79.7897 42.2834 81.7476 42.2834 84.1361C42.2834 86.5245 44.2413 88.4824 46.6297 88.4824C42.8527 88.4824 39.3533 90.4404 37.3954 93.2454C36.1318 91.4263 35.2986 89.1906 35.2986 86.6633C35.2986 80.359 40.3393 75.3184 46.6436 75.3184C52.9479 75.4572 57.9886 80.4979 57.9886 86.8022H57.9608Z" fill="#FFC5CD"/>
<path d="M55.8641 93.3704C53.7672 96.3142 50.4069 98.1333 46.6298 98.1333C42.8528 98.1333 39.3535 96.1754 37.3955 93.3704C39.4923 90.4265 42.8528 88.6074 46.6298 88.6074C50.4069 88.6074 53.9061 90.4265 55.8641 93.3704Z" fill="white"/>
<path d="M46.6159 79.79C48.9904 79.79 50.9484 81.748 50.9484 84.1364C50.9484 86.5248 48.9904 88.4828 46.6159 88.4828C44.2414 88.4828 42.2695 86.5248 42.2695 84.1364C42.2695 81.748 44.2275 79.79 46.6159 79.79Z" fill="white"/>
<path d="M42.5612 33.4521C45.4217 33.4521 47.7407 35.7711 47.7407 38.6317C47.7407 41.4922 45.4217 43.8112 42.5612 43.8112C39.7006 43.8112 37.3816 41.4922 37.3816 38.6317C37.3816 35.7711 39.7006 33.4521 42.5612 33.4521Z" fill="white"/>
<path d="M32.6186 68.459C33.3129 68.459 33.8823 69.0283 33.8823 69.7226C33.8823 70.4169 33.3129 70.9863 32.6186 70.9863C31.9243 70.9863 31.355 70.4169 31.355 69.7226C31.355 69.0283 31.9243 68.459 32.6186 68.459Z" fill="#300045"/>
<path d="M55.8639 94.2178C55.5862 94.2178 55.3085 94.0789 55.1696 93.8012C53.2117 90.9962 49.9902 89.316 46.6297 89.316C43.2693 89.316 40.0476 90.9962 38.0897 93.8012C37.812 94.2178 37.2566 94.2178 36.8261 93.9401C36.4095 93.8012 36.4095 93.2458 36.6872 92.8153C38.9229 89.5937 42.6999 87.6357 46.6297 87.6357C50.5595 87.6357 54.3226 89.5937 56.5721 92.8153C56.8499 93.2319 56.711 93.8012 56.4333 94.0789C56.2945 94.2178 56.1556 94.2178 55.8778 94.2178H55.8639Z" fill="#300045"/>
<path d="M46.6158 89.4551C43.6719 89.4551 41.2974 87.0806 41.2974 84.1368C41.2974 81.1929 43.6719 78.8184 46.6158 78.8184C49.5596 78.8184 51.9342 81.1929 51.9342 84.1368C51.9342 87.0806 49.5596 89.4551 46.6158 89.4551ZM46.6158 80.6374C44.6578 80.6374 43.1164 82.1788 43.1164 84.1368C43.1164 86.0947 44.6578 87.636 46.6158 87.636C48.5737 87.636 50.1151 86.0947 50.1151 84.1368C50.1151 82.1788 48.5737 80.6374 46.6158 80.6374Z" fill="#300045"/>
<path d="M78.1235 89.0383C77.8458 89.0383 77.568 88.8994 77.4292 88.6217C75.4712 85.8167 72.2496 84.1365 68.8892 84.1365C65.5287 84.1365 62.3072 85.8167 60.3493 88.6217C60.0715 89.0383 59.516 89.0383 59.0856 88.7605C58.669 88.4828 58.669 87.9274 58.9467 87.4969C61.1824 84.2753 64.9733 82.3174 68.8892 82.3174C72.8051 82.3174 76.596 84.2753 78.8317 87.4969C79.1094 87.9135 78.9705 88.4828 78.6928 88.7605C78.5539 88.8994 78.2763 89.0383 78.1374 89.0383H78.1235Z" fill="#300045"/>
<path d="M68.8753 84.1368C65.9314 84.1368 63.5569 81.7623 63.5569 78.8184C63.5569 75.8745 65.9314 73.5 68.8753 73.5C71.8192 73.5 74.1936 75.8745 74.1936 78.8184C74.1936 81.7623 71.8192 84.1368 68.8753 84.1368ZM68.8753 75.4579C66.9174 75.4579 65.376 76.9993 65.376 78.9572C65.376 80.9152 66.9174 82.4566 68.8753 82.4566C70.8332 82.4566 72.3745 80.9152 72.3745 78.9572C72.3745 76.9993 70.8332 75.4579 68.8753 75.4579Z" fill="#300045"/>
<path d="M100.383 94.218C100.105 94.218 99.8275 94.0791 99.6887 93.8014C97.7307 90.9964 94.5092 89.3162 91.1488 89.3162C87.7883 89.3162 84.5667 90.9964 82.6087 93.8014C82.331 94.218 81.7617 94.218 81.3451 93.9402C80.9286 93.6625 80.9285 93.1071 81.2062 92.6766C83.4419 89.455 87.2329 87.4971 91.1488 87.4971C95.0646 87.4971 98.8416 89.455 101.091 92.6766C101.369 93.0932 101.23 93.6625 100.952 93.9402C100.675 94.218 100.536 94.218 100.397 94.218H100.383Z" fill="#300045"/>
<path d="M91.1348 89.4551C88.191 89.4551 85.8164 87.0806 85.8164 84.1368C85.8164 81.1929 88.191 78.8184 91.1348 78.8184C94.0787 78.8184 96.4532 81.1929 96.4532 84.1368C96.4532 87.0806 93.9398 89.4551 91.1348 89.4551ZM91.1348 80.6374C89.1769 80.6374 87.6355 82.1788 87.6355 84.1368C87.6355 86.0947 89.1769 87.636 91.1348 87.636C93.0928 87.636 94.6342 86.0947 94.6342 84.1368C94.6342 82.1788 92.9539 80.6374 91.1348 80.6374Z" fill="#300045"/>
<path d="M46.6159 99.1192C42.7 99.1192 38.9091 97.1612 36.6735 93.9396C35.271 91.8428 34.4377 89.4544 34.4377 86.941C34.4377 80.2201 39.895 74.624 46.7547 74.624C53.6145 74.624 59.0717 80.0813 59.0717 86.941C59.0717 89.4544 58.2386 91.9817 56.8361 93.9396C54.3227 97.1612 50.5318 99.1192 46.6159 99.1192ZM38.0759 92.8149C40.0339 95.6199 43.2555 97.3001 46.6159 97.3001C49.9764 97.3001 53.198 95.6199 55.1559 92.8149C56.4196 90.9958 57.1138 88.899 57.1138 86.7883C57.1138 81.0533 52.3509 76.2904 46.6159 76.2904C40.8809 76.2904 36.118 81.0533 36.118 86.7883C36.118 89.0239 36.8123 91.1346 38.0759 92.8149Z" fill="#300045"/>
<path d="M68.8754 93.8008C64.9595 93.8008 61.1825 91.8429 58.9329 88.6213C57.5304 86.5245 56.6973 84.1361 56.6973 81.6227C56.6973 74.9018 62.1545 69.3057 69.0143 69.3057C75.874 69.3057 81.3313 74.7629 81.3313 81.6227C81.3313 84.1361 80.4842 86.6633 79.0956 88.6213C76.5822 91.8429 72.7913 93.8008 68.8754 93.8008ZM60.3354 87.6354C62.2934 90.4404 65.515 92.1206 68.8754 92.1206C72.2359 92.1206 75.4574 90.4404 77.4154 87.6354C78.679 85.8163 79.3733 83.7195 79.3733 81.6088C79.3733 75.8738 74.6104 71.1109 68.8754 71.1109C63.1405 71.1109 58.3774 75.8738 58.3774 81.6088C58.3774 83.7056 59.0718 85.8024 60.3354 87.6354Z" fill="#300045"/>
<path d="M91.1347 99.1192C87.2188 99.1192 83.4279 97.1612 81.1923 93.9396C79.7898 91.8428 78.9565 89.4544 78.9565 86.941C78.9565 80.2201 84.4138 74.624 91.1347 74.624C97.8556 74.624 103.452 80.0813 103.452 86.941C103.452 89.4544 102.605 91.9817 101.216 93.9396C98.8415 97.1612 95.0506 99.1192 91.1347 99.1192ZM82.4559 92.8149C84.4138 95.6199 87.6354 97.3001 90.9959 97.3001C94.3563 97.3001 97.5779 95.6199 99.5358 92.8149C100.799 90.9958 101.494 88.899 101.494 86.7883C101.494 81.0533 96.7309 76.2904 90.9959 76.2904C85.2609 76.2904 80.498 81.0533 80.498 86.7883C80.6368 89.0239 81.1922 91.1346 82.4559 92.8149Z" fill="#300045"/>
<path d="M106.535 51.7959H94.773C94.3564 51.7959 93.9398 51.3793 93.9398 50.9627C93.9398 50.5461 94.3564 50.1296 94.773 50.1296H105.687V45.3666C105.687 42.7005 103.591 40.6037 100.924 40.6037H68.4448C67.1812 40.6037 65.9176 41.1591 65.0844 42.0062C64.2373 42.8532 63.6819 44.103 63.6819 45.3666C63.6819 48.0328 65.7787 50.1296 68.4448 50.1296C68.8614 50.1296 69.278 50.5461 69.278 50.9627C69.278 51.3793 68.8614 51.7959 68.4448 51.7959C64.8066 51.7959 61.8628 48.852 61.8628 45.2139C61.8628 43.3948 62.5571 41.8534 63.8208 40.5898C65.0844 39.3261 66.7646 38.6318 68.4448 38.6318H100.786C104.424 38.6318 107.368 41.5757 107.368 45.2139V50.9488C107.368 51.3654 106.951 51.782 106.521 51.782L106.535 51.7959Z" fill="#300045"/>
<path d="M39.0616 71.1111C38.9228 71.1111 38.7839 71.111 38.6451 70.9722C38.3674 70.8333 38.2285 70.5556 38.2285 70.139V57.4054C38.2285 53.3507 41.5889 49.9902 45.6437 49.9902H94.6479C96.6058 49.9902 98.5637 50.8234 99.9662 52.2259C101.369 53.6284 102.202 55.4475 102.202 57.5443C102.202 61.599 98.8415 64.9595 94.7867 64.9595H48.5875L39.6309 70.9861C39.4921 70.9861 39.3533 71.1249 39.0755 71.1249L39.0616 71.1111ZM45.6437 51.7954C42.5609 51.7954 39.9087 54.3088 39.9087 57.5304V68.5838L47.7544 63.4042C47.8932 63.2654 48.0321 63.2654 48.171 63.2654H94.509C97.5917 63.2654 100.244 60.752 100.244 57.5304C100.244 55.9891 99.6885 54.5866 98.5637 53.4757C97.4389 52.3648 96.0503 51.7954 94.509 51.7954H45.6437Z" fill="#300045"/>
<path d="M42.5612 44.7967C39.2008 44.7967 36.3958 41.9917 36.3958 38.6313C36.3958 35.2708 39.2008 32.4658 42.5612 32.4658C45.9216 32.4658 48.7266 35.2708 48.7266 38.6313C48.7266 41.9917 45.9216 44.7967 42.5612 44.7967ZM42.5612 34.2988C40.1867 34.2988 38.2148 36.2567 38.2148 38.6451C38.2148 41.0336 40.1728 42.9915 42.5612 42.9915C44.9496 42.9915 46.8937 41.0336 46.8937 38.6451C47.0325 36.2706 45.0746 34.2988 42.5612 34.2988Z" fill="#300045"/>
<path d="M75.874 107.798C73.4994 107.798 71.5415 105.84 71.5415 103.452C71.5415 101.063 73.4994 99.1055 75.874 99.1055C78.2485 99.1055 80.2203 101.063 80.2203 103.452C80.2203 105.84 78.2624 107.798 75.874 107.798ZM75.874 100.8C74.4715 100.8 73.2079 101.924 73.2079 103.466C73.2079 104.868 74.3326 106.132 75.874 106.132C77.4153 106.132 78.5401 105.007 78.5401 103.466C78.5401 101.924 77.2765 100.8 75.874 100.8Z" fill="#300045"/>
</g>
</g>
<defs>
<clipPath id="clip0_6995_4392">
<path d="M0 70C0 31.3401 31.3401 0 70 0C108.66 0 140 31.3401 140 70C140 108.66 108.66 140 70 140C31.3401 140 0 108.66 0 70Z" fill="white"/>
</clipPath>
<clipPath id="clip1_6995_4392">
<rect width="140" height="140" fill="white"/>
</clipPath>
</defs>
</svg>
