<svg width="176" height="88" viewBox="0 0 176 88" fill="none" xmlns="http://www.w3.org/2000/svg">
<g clip-path="url(#clip0_7450_59850)">
<path d="M28.998 38.6151C27.7521 37.3693 26.1128 36.594 24.3594 36.4214C22.606 36.2488 20.847 36.6895 19.3822 37.6685C17.9173 38.6474 16.8372 40.1041 16.3259 41.7901C15.8147 43.4762 15.9039 45.2874 16.5784 46.915C17.2529 48.5427 18.4709 49.8861 20.0249 50.7164C21.5789 51.5466 23.3727 51.8123 25.1006 51.4682C26.8286 51.1241 28.3837 50.1915 29.5011 48.8293C30.6185 47.467 31.2289 45.7595 31.2284 43.9976C31.2308 42.9975 31.0349 42.0069 30.6521 41.0831C30.2692 40.1592 29.707 39.3204 28.998 38.6151ZM23.6155 50.5169C22.3267 50.5169 21.0668 50.1347 19.9951 49.4187C18.9235 48.7026 18.0882 47.6849 17.595 46.4941C17.1018 45.3034 16.9727 43.9931 17.2242 42.729C17.4756 41.4649 18.0963 40.3038 19.0076 39.3924C19.919 38.481 21.0801 37.8604 22.3442 37.609C23.6083 37.3575 24.9186 37.4866 26.1093 37.9798C27.3001 38.473 28.3178 39.3083 29.0339 40.3799C29.7499 41.4516 30.1321 42.7115 30.1321 44.0003C30.1379 44.8579 29.9732 45.708 29.6477 46.5013C29.3221 47.2947 28.8422 48.0154 28.2358 48.6217C27.6293 49.228 26.9084 49.7078 26.115 50.0331C25.3216 50.3585 24.4714 50.5229 23.6139 50.5169H23.6155Z" fill="#DC000C"/>
<path d="M20.2016 47.3574H27.1345C27.2998 47.3574 27.4584 47.4231 27.5753 47.54C27.6922 47.6569 27.7578 47.8155 27.7578 47.9808C27.7578 48.1463 27.6921 48.305 27.5751 48.422C27.4581 48.539 27.2994 48.6047 27.1339 48.6047H20.201C20.0357 48.6047 19.8771 48.539 19.7602 48.4221C19.6433 48.3052 19.5776 48.1467 19.5776 47.9813C19.5776 47.8159 19.6434 47.6572 19.7604 47.5402C19.8774 47.4232 20.0361 47.3574 20.2016 47.3574Z" fill="#DC000C"/>
<path d="M26.9378 43.5902L24.307 43.6023C24.301 43.5221 24.2949 43.4425 24.2889 43.3639H26.6357C26.7828 43.3638 26.9237 43.3053 27.0276 43.2013C27.1315 43.0973 27.1899 42.9562 27.1899 42.8092V41.5405C27.1993 41.5018 27.2041 41.4622 27.2042 41.4224C27.2043 41.315 27.1715 41.2102 27.1103 41.122C27.061 41.0402 26.9914 40.9724 26.9083 40.9254C26.8251 40.8783 26.7313 40.8535 26.6357 40.8534C26.6264 40.8534 26.6176 40.8534 26.6088 40.8534V40.5519H26.9812C27.1198 40.5421 27.2495 40.4801 27.3442 40.3784C27.4389 40.2768 27.4916 40.143 27.4916 40.004C27.4916 39.8651 27.4389 39.7313 27.3442 39.6296C27.2495 39.528 27.1198 39.466 26.9812 39.4562H25.623C25.6447 39.39 25.6524 39.32 25.6456 39.2506C25.6389 39.1813 25.6178 39.1141 25.5837 39.0533C25.5496 38.9925 25.5033 38.9395 25.4477 38.8976C25.392 38.8557 25.3283 38.8257 25.2605 38.8097C25.186 38.7729 25.1047 38.7518 25.0217 38.7478C24.9387 38.7438 24.8558 38.7569 24.7781 38.7864C24.7005 38.8159 24.6297 38.8611 24.5703 38.9191C24.5108 38.9772 24.464 39.0469 24.4328 39.1239C24.3182 39.4233 24.1841 39.7148 24.0313 39.9966C23.71 40.3498 23.7649 40.6255 24.0428 40.8106C24.0947 40.8452 24.1499 40.8746 24.2076 40.8984H22.7247V40.5519H23.0965C23.1717 40.5572 23.2472 40.547 23.3183 40.5219C23.3894 40.4968 23.4545 40.4573 23.5097 40.4059C23.5649 40.3545 23.6089 40.2923 23.6389 40.2232C23.669 40.154 23.6845 40.0794 23.6845 40.004C23.6845 39.9286 23.669 39.854 23.6389 39.7849C23.6089 39.7158 23.5649 39.6536 23.5097 39.6022C23.4545 39.5508 23.3894 39.5113 23.3183 39.4862C23.2472 39.4611 23.1717 39.4508 23.0965 39.4562H21.7372C21.7589 39.39 21.7666 39.32 21.7599 39.2506C21.7531 39.1813 21.732 39.1141 21.6979 39.0533C21.6639 38.9925 21.6175 38.9395 21.5619 38.8976C21.5062 38.8557 21.4425 38.8257 21.3747 38.8097C21.3002 38.7729 21.2189 38.7518 21.1359 38.7478C21.053 38.7438 20.97 38.7569 20.8923 38.7864C20.8147 38.8159 20.7439 38.8611 20.6845 38.9191C20.6251 38.9772 20.5782 39.0469 20.547 39.1239C20.4323 39.4232 20.2982 39.7148 20.1455 39.9966C19.8242 40.3498 19.8791 40.6255 20.157 40.8106C20.234 40.8619 20.3185 40.901 20.4075 40.9265C20.1647 40.9968 20.1032 41.1939 20.1032 41.4257C20.1032 41.7162 20.2004 41.9524 20.6299 41.9524H22.7719C22.7758 42.0419 22.7812 42.1446 22.7878 42.2572H20.8106C20.6756 42.2643 20.5455 42.3106 20.4365 42.3905C20.3274 42.4704 20.244 42.5804 20.1966 42.7071L19.9192 44.1488C19.9039 44.2294 19.9066 44.3124 19.9271 44.3918C19.9477 44.4712 19.9856 44.545 20.0381 44.6081C20.0906 44.6711 20.1565 44.7217 20.2309 44.7562C20.3053 44.7908 20.3864 44.8084 20.4684 44.8079L21.384 44.8035C21.0267 45.1131 20.6355 45.3813 20.218 45.6031C20.1517 45.6301 20.0921 45.671 20.0432 45.7233C19.9944 45.7755 19.9574 45.8376 19.9349 45.9055C19.9124 45.9734 19.9049 46.0454 19.9129 46.1164C19.9209 46.1875 19.9442 46.256 19.9813 46.3171C20.0484 46.4545 20.1606 46.5647 20.2991 46.6293C20.4376 46.694 20.5941 46.7092 20.7425 46.6725C21.6239 46.2294 22.3946 45.5941 22.9976 44.8134C23.0756 45.6042 23.0877 46.0173 23.1564 46.3726C23.2162 46.6829 23.6155 46.7455 23.9604 46.7192C24.1179 46.7065 24.2642 46.6327 24.3679 46.5135C24.4715 46.3943 24.5244 46.2392 24.5152 46.0815C24.5009 45.9464 24.4558 45.4268 24.4053 44.7886L26.1376 44.7804V45.3889C25.9349 45.4087 25.5488 45.4356 25.4675 45.4323C25.3722 45.4514 25.2851 45.4997 25.2186 45.5706C25.152 45.6415 25.1092 45.7314 25.0962 45.8278C25.082 45.9326 25.0905 46.0392 25.1212 46.1405C25.152 46.2417 25.2041 46.3351 25.2742 46.4143C25.4627 46.515 25.6805 46.5466 25.8899 46.5039C26.0684 46.4901 26.3886 46.4973 26.6698 46.4704H26.6923C26.9801 46.4704 27.4986 46.2573 27.4986 45.8217V44.1438C27.4986 44.0708 27.4842 43.9985 27.4561 43.9311C27.4281 43.8636 27.3871 43.8024 27.3353 43.7508C27.2836 43.6993 27.2222 43.6585 27.1546 43.6307C27.087 43.603 27.0147 43.5888 26.9417 43.5891L26.9378 43.5902ZM24.8837 40.7727C24.9477 40.6985 25.0059 40.6195 25.0578 40.5365C25.0957 40.5448 25.1344 40.549 25.1731 40.5491H25.2934V40.8957H24.7211C24.7826 40.8649 24.8377 40.8228 24.8837 40.7716V40.7727ZM21.1748 40.5365C21.2125 40.5448 21.2509 40.549 21.2895 40.5491H21.4076V40.8957H20.8353C20.8975 40.8654 20.9534 40.8237 21.0001 40.7727C21.064 40.6984 21.1222 40.6195 21.1742 40.5365H21.1748ZM24.1906 41.9497H25.8306V42.2545H24.2087C24.201 42.1397 24.195 42.0348 24.1906 41.9497ZM21.4521 43.3639H22.8631C22.8693 43.4485 22.8753 43.53 22.8812 43.6084L21.389 43.6149L21.4521 43.3639Z" fill="#DC000C"/>
<path d="M159.22 43.6998H159.997V37.1865H134.311V43.6998H135.23" fill="#003E92"/>
<path d="M135.23 43.7021H134.311V50.216H159.997V43.7021H159.22" fill="#159A4B"/>
<path d="M138.563 40.7786C138.452 40.6646 138.319 40.5743 138.172 40.5135C138.025 40.4527 137.867 40.4226 137.708 40.4249H135.965V46.9723H137.675C137.827 46.9728 137.978 46.9424 138.118 46.883C138.258 46.8235 138.384 46.7362 138.49 46.6263C138.831 46.2319 139.057 45.7508 139.142 45.2362C139.26 44.6797 139.318 44.1123 139.315 43.5435C139.318 43.0411 139.268 42.5398 139.166 42.0479C139.088 41.5766 138.879 41.1368 138.563 40.7786ZM138.449 43.6429C138.449 44.1526 138.386 45.8151 137.578 45.8151H136.798V41.5811H137.567C137.652 41.5768 137.737 41.5904 137.817 41.621C137.896 41.6517 137.968 41.6987 138.028 41.759C138.308 42.0391 138.449 42.6729 138.449 43.6429Z" fill="white"/>
<path d="M142.125 40.4374V40.4248H141.152V40.4374L139.757 46.9529L139.753 46.9722H140.646L140.649 46.9595L140.918 45.6287H142.335L142.584 46.959V46.9727H143.504L143.5 46.9535L142.125 40.4374ZM141.631 41.967L142.102 44.471H141.144L141.631 41.967Z" fill="white"/>
<path d="M144.108 40.4248H144.092V46.9722H144.94V40.4248H144.108Z" fill="white"/>
<path d="M148.464 40.5094H148.477H148.492V40.2227H146.308V40.5094H146.321H146.335C146.615 40.5396 146.879 40.5681 146.879 41.2195V46.1807C146.879 46.8068 146.645 46.8425 146.321 46.8947H146.308V47.1814H148.492V46.8947H148.478C148.149 46.8546 147.908 46.8255 147.908 46.1807V41.2195C147.907 40.5478 148.178 40.5291 148.464 40.5094Z" fill="#F38200"/>
<path d="M152.053 44.7099H152.04V44.7242C151.945 45.5052 151.643 45.9325 151.19 45.9325C151.106 45.9325 151.024 45.9153 150.947 45.8822C150.87 45.8491 150.8 45.8006 150.743 45.7397C150.421 45.4184 150.237 44.6841 150.237 43.7251C150.237 42.4465 150.517 41.899 150.751 41.6639C150.807 41.6027 150.875 41.5534 150.951 41.519C151.026 41.4846 151.108 41.4657 151.191 41.4634C151.855 41.4634 151.976 42.1868 152.041 42.5756V42.5893H152.888V42.5729C152.869 42.0396 152.724 41.5184 152.464 41.0521C152.344 40.8149 152.161 40.6151 151.935 40.4743C151.71 40.3335 151.45 40.2569 151.184 40.2529C150.909 40.2644 150.642 40.3521 150.414 40.5064C150.186 40.6606 150.006 40.8752 149.893 41.1262C149.508 41.9303 149.329 42.8171 149.37 43.7076C149.359 44.3401 149.435 44.9712 149.598 45.5826C149.705 46.0129 149.918 46.4095 150.218 46.736C150.341 46.8656 150.489 46.9688 150.653 47.0391C150.817 47.1095 150.994 47.1456 151.173 47.1452C151.41 47.1437 151.643 47.0802 151.848 46.961C152.053 46.8418 152.223 46.6711 152.342 46.4658C152.656 45.9359 152.843 45.3402 152.887 44.7259V44.7077H152.053L152.053 44.7099Z" fill="white"/>
<path d="M155.968 40.4248H155.952V42.8919H154.459V40.4248H153.611V46.9722H154.459V44.0486H155.952V46.9722H156.8V40.4248H155.968Z" fill="white"/>
<path d="M158.503 40.4248H157.67V46.9722H158.519V40.4248H158.503Z" fill="white"/>
<path d="M104.034 40.6293C104.059 40.5752 104.073 40.5161 104.073 40.4563C104.071 40.3619 104.04 40.2703 103.984 40.1943C103.755 39.8502 103.491 39.5312 103.195 39.2425C103.157 39.1999 103.11 39.1656 103.057 39.1417C103.005 39.1178 102.949 39.1048 102.891 39.1036C102.834 39.1024 102.777 39.1129 102.723 39.1345C102.67 39.1561 102.622 39.1884 102.582 39.2293C102.541 39.2658 102.508 39.3103 102.486 39.36C102.463 39.4097 102.451 39.4636 102.45 39.5182C102.45 39.5728 102.46 39.627 102.481 39.6773C102.503 39.7276 102.534 39.7729 102.574 39.8104C102.836 40.0834 103.072 40.3799 103.28 40.6963C103.319 40.7604 103.374 40.8125 103.44 40.8471C103.507 40.8817 103.581 40.8974 103.656 40.8924C103.736 40.8852 103.813 40.8571 103.88 40.811C103.946 40.7648 103.999 40.7022 104.034 40.6293Z" fill="#1A1311"/>
<path d="M102.383 40.5327H99.097C99.2 40.3367 99.2864 40.1324 99.3552 39.9219C99.3754 39.8625 99.386 39.8002 99.3865 39.7374C99.3817 39.625 99.3425 39.5168 99.2743 39.4274C99.206 39.3381 99.1119 39.2718 99.0048 39.2376C98.8577 39.1706 98.6904 39.1635 98.5382 39.2178C98.386 39.2722 98.261 39.3837 98.1897 39.5287C97.6025 40.8941 96.5956 42.037 95.3151 42.7917C95.2247 42.8398 95.1493 42.9119 95.0972 43.0001C95.0451 43.0882 95.0182 43.1891 95.0196 43.2915C95.0235 43.4078 95.0575 43.5211 95.1182 43.6205C95.179 43.7198 95.2644 43.8017 95.3661 43.8582C95.4685 43.9137 95.5841 43.9399 95.7004 43.934C95.8166 43.928 95.929 43.8903 96.0252 43.8247C96.9426 43.2508 97.7481 42.5152 98.4028 41.6536H102.159C102.249 41.6536 102.3 41.6657 102.324 41.6921C102.348 41.7185 102.356 41.7964 102.336 41.9195C101.913 45.0501 100.01 46.8367 96.6794 47.2267C96.5762 47.2339 96.4771 47.2693 96.3926 47.3289C96.3082 47.3886 96.2417 47.4702 96.2004 47.565C96.1568 47.6727 96.1414 47.7897 96.1556 47.9051C96.1698 48.0204 96.2132 48.1302 96.2817 48.2241C96.3496 48.3142 96.4409 48.3839 96.5457 48.4255C96.6505 48.4672 96.7648 48.4792 96.876 48.4602C100.84 48.0302 103.027 45.9058 103.568 41.9662C103.609 41.7819 103.609 41.591 103.569 41.4066C103.529 41.2223 103.449 41.0489 103.335 40.8985C103.212 40.772 103.064 40.6737 102.899 40.6105C102.735 40.5474 102.558 40.5208 102.383 40.5327Z" fill="#1A1311"/>
<path d="M104.264 40.1296C104.303 40.1899 104.358 40.2383 104.423 40.2694C104.487 40.3006 104.559 40.3135 104.631 40.3065C104.706 40.2969 104.777 40.2682 104.837 40.2231C104.898 40.178 104.946 40.118 104.977 40.0489C105.006 39.9795 105.016 39.9034 105.005 39.8288C104.994 39.7542 104.964 39.684 104.916 39.6255C104.687 39.3161 104.433 39.0257 104.158 38.7571C104.117 38.7163 104.069 38.6841 104.016 38.6624C103.963 38.6407 103.906 38.63 103.848 38.6309C103.791 38.6318 103.734 38.6444 103.682 38.6678C103.629 38.6911 103.582 38.7249 103.543 38.767C103.506 38.8033 103.477 38.8471 103.458 38.8954C103.439 38.9438 103.431 38.9955 103.433 39.0474C103.435 39.0992 103.449 39.15 103.472 39.1963C103.496 39.2427 103.529 39.2835 103.569 39.3162C103.829 39.5622 104.062 39.8349 104.264 40.1296Z" fill="#1A1311"/>
<path d="M106.508 39.2031C106.431 39.1967 106.354 39.2061 106.281 39.2306C106.208 39.2552 106.141 39.2943 106.083 39.3458C106.026 39.3972 105.98 39.4598 105.948 39.5297C105.915 39.5996 105.898 39.6754 105.896 39.7523V43.2603C105.896 45.0678 105.322 46.3359 104.138 47.1356C104.05 47.1907 103.978 47.2691 103.931 47.3622C103.884 47.4552 103.863 47.5594 103.871 47.6634C103.88 47.7887 103.921 47.9096 103.989 48.0148C104.058 48.1199 104.152 48.2058 104.264 48.2643C104.364 48.3137 104.475 48.3347 104.586 48.3251C104.698 48.3154 104.804 48.2753 104.894 48.2094C106.389 47.246 107.117 45.628 107.117 43.263V39.7523C107.115 39.6756 107.097 39.6001 107.065 39.5304C107.033 39.4607 106.987 39.3982 106.93 39.3468C106.873 39.2954 106.806 39.2562 106.734 39.2315C106.661 39.2068 106.584 39.1971 106.508 39.2031Z" fill="#1A1311"/>
<path d="M112.829 43.2516C112.718 43.2731 112.614 43.3244 112.53 43.4002C112.445 43.4759 112.383 43.5732 112.349 43.6817C111.908 44.9443 110.986 45.9816 109.784 46.5673C109.768 46.5769 109.75 46.5823 109.731 46.5831C109.713 46.584 109.694 46.5803 109.677 46.5723C109.657 46.5535 109.641 46.5301 109.632 46.504C109.622 46.4779 109.619 46.4499 109.623 46.4223V39.7168C109.607 39.5651 109.536 39.4244 109.423 39.3221C109.31 39.2198 109.163 39.1631 109.011 39.1631C108.858 39.1631 108.711 39.2198 108.598 39.3221C108.485 39.4244 108.414 39.5651 108.399 39.7168V46.8886C108.384 47.0856 108.42 47.2832 108.503 47.4626C108.585 47.6419 108.713 47.7972 108.872 47.9135C109.05 48.0136 109.249 48.0673 109.453 48.0696C109.656 48.0719 109.857 48.0227 110.037 47.9267C111.624 47.1963 112.86 45.8684 113.473 44.232C113.528 44.1123 113.549 43.9799 113.535 43.849C113.521 43.7181 113.471 43.5935 113.392 43.4884C113.327 43.403 113.241 43.3362 113.142 43.2947C113.044 43.2531 112.936 43.2383 112.829 43.2516Z" fill="#1A1311"/>
<path d="M121.827 43.082H114.831C114.684 43.1089 114.551 43.1865 114.456 43.3014C114.36 43.4162 114.308 43.5609 114.308 43.7103C114.308 43.8598 114.36 44.0045 114.456 44.1193C114.551 44.2341 114.684 44.3118 114.831 44.3387H121.827C121.903 44.3338 121.977 44.3134 122.045 44.2789C122.113 44.2444 122.173 44.1964 122.222 44.1379C122.27 44.0794 122.306 44.0116 122.328 43.9387C122.349 43.8657 122.356 43.7891 122.346 43.7136C122.355 43.6378 122.349 43.5611 122.327 43.4879C122.306 43.4146 122.27 43.3465 122.221 43.2876C122.173 43.2286 122.113 43.1801 122.045 43.1447C121.978 43.1094 121.904 43.0881 121.827 43.082Z" fill="#1A1311"/>
<path d="M130.924 39.0455C130.623 39.0487 130.335 39.1713 130.124 39.3864C129.913 39.6015 129.796 39.8916 129.799 40.1929C129.799 40.1929 129.799 40.2407 129.804 40.2884C129.652 40.2291 129.49 40.1982 129.327 40.1973H122.635C122.562 40.1978 122.489 40.2136 122.422 40.2435C122.355 40.2735 122.295 40.317 122.245 40.3713C122.196 40.4256 122.158 40.4895 122.134 40.5591C122.111 40.6287 122.102 40.7024 122.108 40.7756C122.102 40.8491 122.111 40.923 122.135 40.9929C122.159 41.0627 122.196 41.127 122.246 41.1817C122.295 41.2365 122.355 41.2807 122.422 41.3115C122.489 41.3424 122.561 41.3592 122.635 41.3611H129.116C129.147 41.3575 129.178 41.3605 129.208 41.37C129.238 41.3794 129.265 41.3951 129.288 41.416C129.304 41.4401 129.314 41.4673 129.319 41.4957C129.323 41.5241 129.321 41.5531 129.314 41.5808C128.843 44.8135 126.912 46.6205 123.412 47.1071C123.316 47.117 123.223 47.1533 123.146 47.212C123.068 47.2707 123.009 47.3495 122.973 47.4399C122.93 47.5535 122.917 47.6761 122.935 47.7961C122.953 47.9161 123.001 48.0296 123.075 48.1259C123.146 48.2159 123.24 48.2845 123.347 48.3244C123.455 48.3644 123.571 48.3739 123.684 48.3522C127.699 47.7717 130 45.4962 130.516 41.5967C130.527 41.5192 130.532 41.441 130.532 41.3627C130.532 41.3193 130.526 41.2793 130.523 41.2381C130.651 41.2933 130.788 41.3228 130.927 41.3248C131.23 41.3248 131.521 41.2045 131.735 40.9902C131.949 40.776 132.07 40.4854 132.07 40.1824C132.07 39.8794 131.949 39.5889 131.735 39.3746C131.521 39.1604 131.23 39.04 130.927 39.04L130.924 39.0455ZM130.914 39.7211C131.005 39.719 131.095 39.7441 131.172 39.7931C131.249 39.842 131.309 39.9127 131.346 39.9962C131.383 40.0797 131.394 40.1722 131.378 40.2621C131.363 40.352 131.32 40.4351 131.257 40.5011C131.194 40.567 131.113 40.6128 131.024 40.6326C130.935 40.6525 130.842 40.6454 130.757 40.6125C130.672 40.5795 130.599 40.522 130.546 40.4473C130.494 40.3726 130.465 40.2841 130.463 40.1929C130.46 40.132 130.47 40.0712 130.491 40.0142C130.513 39.9571 130.546 39.905 130.588 39.8609C130.63 39.8169 130.68 39.7818 130.736 39.7578C130.792 39.7337 130.853 39.7212 130.914 39.7211Z" fill="#1A1311"/>
<path d="M42.3699 39.3932H40.0521C40.0659 39.3348 40.0669 39.2741 40.0552 39.2152C40.0434 39.1564 40.0192 39.1007 39.984 39.0521C39.9169 38.9694 39.8299 38.9051 39.7312 38.8652C39.6324 38.8253 39.5251 38.8112 39.4194 38.8242C39.3243 38.8311 39.2328 38.8635 39.1544 38.9179C39.0761 38.9723 39.0138 39.0467 38.974 39.1334C38.8007 39.53 38.5578 39.8923 38.2567 40.2033C38.3032 40.1163 38.3272 40.0191 38.3265 39.9205C38.3258 39.8219 38.3005 39.725 38.2529 39.6387C38.2078 39.5612 38.1426 39.4975 38.0641 39.4543C37.9857 39.411 37.897 39.3899 37.8074 39.3932H35.482C35.4954 39.2765 35.4682 39.1588 35.4048 39.0599C35.3415 38.9611 35.2459 38.8871 35.1343 38.8505C35.0681 38.8216 34.9968 38.8061 34.9245 38.8048C34.8522 38.8035 34.7803 38.8165 34.7131 38.843C34.6458 38.8696 34.5845 38.9091 34.5325 38.9594C34.4806 39.0097 34.4391 39.0698 34.4105 39.1361C34.1834 39.7193 33.8157 40.2372 33.34 40.6438C33.2911 40.6905 33.2522 40.7466 33.2254 40.8088C33.1987 40.8709 33.1847 40.9378 33.1843 41.0054C33.184 41.0731 33.1972 41.1401 33.2233 41.2025C33.2494 41.265 33.2878 41.3215 33.3362 41.3687C33.4438 41.4952 33.5969 41.5742 33.7624 41.5884C33.7023 41.6808 33.6704 41.7886 33.6706 41.8988C33.6675 41.9684 33.6786 42.0379 33.7034 42.103C33.7282 42.1682 33.7661 42.2275 33.8148 42.2774C33.8634 42.3273 33.9218 42.3667 33.9863 42.3931C34.0508 42.4195 34.12 42.4324 34.1897 42.431H37.5455V43.0214H34.7087C34.0562 43.0214 33.7118 43.1614 33.6316 43.9216L33.591 44.3214L33.5465 44.7712C33.5165 44.9069 33.5161 45.0474 33.5453 45.1832C33.5745 45.319 33.6326 45.4469 33.7157 45.5583C33.8045 45.6443 33.911 45.71 34.0277 45.7507C34.1445 45.7915 34.2687 45.8064 34.3918 45.7944H36.5557C35.7096 46.4184 34.7604 46.8888 33.7514 47.184C33.6653 47.2089 33.5879 47.2573 33.5279 47.3237C33.4678 47.3902 33.4275 47.4721 33.4114 47.5602C33.3904 47.6774 33.3999 47.7981 33.439 47.9106C33.478 48.0231 33.5453 48.1238 33.6344 48.2028C33.7135 48.2709 33.8101 48.3155 33.9133 48.3316C34.0165 48.3477 34.1221 48.3347 34.2182 48.294C35.4593 47.8316 36.5919 47.1188 37.5455 46.1998V48.0155C37.5437 48.1036 37.5662 48.1904 37.6103 48.2666C37.6545 48.3428 37.7187 48.4054 37.7959 48.4477C37.902 48.5051 38.0207 48.5352 38.1414 48.5352C38.262 48.5352 38.3807 48.5051 38.4868 48.4477C38.5644 48.4058 38.6288 48.3432 38.6731 48.2669C38.7174 48.1907 38.7398 48.1037 38.7378 48.0155V45.795H41.5526C41.5916 45.795 41.5993 45.8027 41.6021 45.8038C41.6105 45.8237 41.6132 45.8456 41.6097 45.8669C41.6093 45.872 41.6093 45.8772 41.6097 45.8823C41.5834 46.4475 41.5685 46.7611 41.4318 46.8709C41.2835 46.9917 40.9188 46.933 40.2575 46.8308L39.9022 46.7759C39.8091 46.7575 39.7127 46.7655 39.6238 46.7989C39.5349 46.8322 39.4571 46.8897 39.3991 46.9648C39.3361 47.0531 39.2971 47.1562 39.2861 47.2641C39.2752 47.372 39.2925 47.4809 39.3365 47.58C39.3832 47.6815 39.4567 47.7683 39.5492 47.831C39.6416 47.8937 39.7494 47.93 39.861 47.9359C41.222 48.0649 41.8931 48.1122 42.2672 47.7887C42.628 47.48 42.6807 46.8402 42.7401 45.7368C42.7511 45.6089 42.7354 45.4801 42.6939 45.3587C42.6524 45.2373 42.586 45.1258 42.4989 45.0315C42.3991 44.9311 42.2798 44.8523 42.1483 44.7999C42.0168 44.7474 41.8759 44.7225 41.7344 44.7267H38.7395V44.0847H41.5955C41.7099 44.0996 41.8262 44.088 41.9355 44.0509C42.0448 44.0137 42.144 43.952 42.2257 43.8705C42.3073 43.7889 42.3692 43.6897 42.4065 43.5805C42.4438 43.4713 42.4555 43.355 42.4407 43.2405V42.2107C42.4556 42.0961 42.444 41.9796 42.4068 41.8702C42.3696 41.7607 42.3078 41.6613 42.2262 41.5794C42.1446 41.4976 42.0453 41.4356 41.9359 41.3981C41.8266 41.3606 41.7101 41.3487 41.5955 41.3633H41.2577C41.3163 41.3414 41.3696 41.3075 41.4142 41.2637C41.4588 41.2199 41.4938 41.1672 41.5167 41.1091C41.5396 41.0509 41.5501 40.9886 41.5474 40.9261C41.5447 40.8636 41.5289 40.8024 41.501 40.7465C41.4486 40.6456 41.389 40.5487 41.3225 40.4565H42.3693C42.4592 40.4596 42.5482 40.4382 42.6267 40.3946C42.7053 40.351 42.7705 40.2867 42.8153 40.2088C42.8631 40.1209 42.8882 40.0224 42.8882 39.9224C42.8882 39.8223 42.8631 39.7238 42.8153 39.6359C42.7697 39.5592 42.7043 39.4962 42.6259 39.4534C42.5475 39.4107 42.4591 39.3899 42.3699 39.3932ZM41.3219 42.51V42.9439C41.3219 43.0054 41.3055 43.0225 41.2451 43.0225H38.7378V42.432H41.2451C41.2668 42.4302 41.2884 42.4362 41.306 42.4491C41.3186 42.4668 41.3243 42.4885 41.3219 42.51ZM34.2457 41.366C34.5245 41.0944 34.7696 40.7901 34.9756 40.4598H35.733C35.8574 40.676 35.9675 40.9002 36.0625 41.1309C36.1109 41.2362 36.1963 41.3199 36.3025 41.366H34.2457ZM37.5455 44.0869V44.7289H34.7416C34.7359 44.7296 34.7301 44.7291 34.7245 44.7273C34.719 44.7254 34.714 44.7225 34.7098 44.7185C34.7076 44.7151 34.7062 44.7113 34.7056 44.7073C34.7051 44.7033 34.7053 44.6993 34.7065 44.6954L34.7378 44.4615C34.7548 44.3269 34.7751 44.1868 34.7806 44.1187C34.7806 44.1138 34.7861 44.0863 34.8487 44.0863L37.5455 44.0869ZM37.9349 40.5048C37.8691 40.5603 37.8198 40.6327 37.7923 40.7143C37.7648 40.7958 37.7602 40.8833 37.7789 40.9673C37.7977 41.0503 37.8335 41.1286 37.8839 41.1972C37.9344 41.2658 37.9985 41.3233 38.0722 41.366H36.8452C36.9426 41.3269 37.0269 41.261 37.0885 41.176C37.1353 41.1063 37.1619 41.025 37.1653 40.9411C37.1687 40.8573 37.1488 40.7741 37.1077 40.7009C37.0626 40.6165 37.011 40.5357 36.9534 40.4592H37.8074C37.8912 40.4604 37.9741 40.4416 38.0491 40.4043C38.0112 40.4373 37.9744 40.4724 37.9349 40.5048ZM38.6489 41.366C38.6936 41.3409 38.7352 41.3107 38.773 41.2759C39.0327 41.0311 39.2634 40.7572 39.4606 40.4598H40.1433C40.2531 40.652 40.3537 40.8646 40.4586 41.0908L40.4684 41.1112C40.5174 41.2261 40.6089 41.3176 40.7238 41.3665L38.6489 41.366Z" fill="#1A1311"/>
<path d="M52.5469 42.6035H44.0794C43.7439 42.6035 43.5681 42.933 43.5681 43.2587C43.5681 43.5844 43.7439 43.914 44.0794 43.914H52.5469C52.6314 43.914 52.7143 43.8909 52.7867 43.8471C52.859 43.8033 52.918 43.7406 52.9572 43.6657C53.0229 43.54 53.0572 43.4003 53.0572 43.2585C53.0572 43.1166 53.0229 42.9769 52.9572 42.8512C52.9178 42.7765 52.8588 42.714 52.7865 42.6703C52.7142 42.6267 52.6314 42.6036 52.5469 42.6035Z" fill="#1A1311"/>
<path d="M62.9278 47.2448C61.7054 47.0883 60.5279 46.6835 59.4677 46.0552C60.2307 45.2512 60.8426 44.3163 61.2741 43.2953C61.5679 43.5699 61.865 43.8682 62.1528 44.157C62.2058 44.2161 62.2741 44.2592 62.3501 44.2816C62.4262 44.304 62.507 44.3048 62.5834 44.2839C62.7017 44.2399 62.8072 44.1672 62.8903 44.0723C62.9734 43.9773 63.0316 43.8632 63.0596 43.7402C63.0928 43.6304 63.0958 43.5138 63.0684 43.4024C63.0409 43.2911 62.984 43.1892 62.9036 43.1075C62.1567 42.3645 61.3682 41.6646 60.542 41.0111C60.495 40.975 60.443 40.9459 60.3876 40.9248H62.6351C62.7235 40.9265 62.8107 40.9041 62.8873 40.86C62.9639 40.8158 63.0271 40.7517 63.0701 40.6744C63.1252 40.5733 63.1541 40.46 63.1541 40.3448C63.1541 40.2297 63.1252 40.1164 63.0701 40.0153C63.027 39.9382 62.9637 39.8743 62.8871 39.8304C62.8105 39.7865 62.7234 39.7642 62.6351 39.766H59.098V39.3167C59.0674 39.1698 58.9872 39.0379 58.8707 38.9432C58.7543 38.8486 58.6088 38.7969 58.4587 38.7969C58.3087 38.7969 58.1632 38.8486 58.0467 38.9432C57.9303 39.0379 57.85 39.1698 57.8194 39.3167V39.766H54.4005C54.2572 39.7813 54.1246 39.849 54.0283 39.9562C53.9319 40.0634 53.8786 40.2024 53.8786 40.3465C53.8786 40.4906 53.9319 40.6296 54.0283 40.7368C54.1246 40.844 54.2572 40.9117 54.4005 40.927H56.5589C56.5339 40.9478 56.5105 40.9705 56.4892 40.9951C55.8633 41.8198 55.0945 42.5254 54.2192 43.0784C54.1338 43.131 54.0648 43.2066 54.0201 43.2965C53.9755 43.3864 53.9569 43.487 53.9666 43.587C53.9761 43.7292 54.0214 43.8667 54.0982 43.9868C54.175 44.1069 54.2809 44.2057 54.406 44.274C54.4791 44.3129 54.5616 44.3307 54.6442 44.3254C54.7269 44.3201 54.8064 44.2918 54.8739 44.2438C55.2111 44.0089 55.5363 43.7572 55.8483 43.4897C56.2723 44.4419 56.8555 45.3149 57.5728 46.0711C56.5093 46.69 55.333 47.0903 54.1127 47.2487C54.0201 47.2587 53.9321 47.2938 53.858 47.3502C53.784 47.4066 53.7267 47.4823 53.6925 47.5689C53.6561 47.6914 53.6513 47.8212 53.6787 47.9461C53.706 48.0709 53.7647 48.1868 53.8491 48.2828C53.9119 48.366 53.9963 48.4304 54.0931 48.4691C54.1899 48.5079 54.2954 48.5194 54.3983 48.5025C55.8768 48.2759 57.2856 47.7203 58.5208 46.8768C59.7543 47.7239 61.1641 48.2798 62.6439 48.5025C62.7467 48.5194 62.8522 48.5078 62.949 48.4691C63.0458 48.4304 63.1302 48.366 63.1931 48.2828C63.2778 48.187 63.3367 48.0711 63.3641 47.9462C63.3915 47.8212 63.3865 47.6913 63.3496 47.5689C63.3158 47.4813 63.2586 47.4048 63.1842 47.3477C63.1098 47.2905 63.0211 47.2549 62.9278 47.2448ZM59.6418 41.1357C59.5955 41.1859 59.5602 41.2451 59.5379 41.3096C59.5157 41.374 59.507 41.4424 59.5125 41.5104C59.5179 41.5784 59.5374 41.6445 59.5697 41.7046C59.602 41.7647 59.6463 41.8175 59.7 41.8596C59.923 42.0557 60.1394 42.2507 60.3338 42.4253C59.9589 43.5231 59.3391 44.5212 58.5213 45.3439C57.7417 44.5662 57.144 43.6256 56.771 42.5895C57.0277 42.3057 57.2694 42.0085 57.4948 41.6992C57.5356 41.6411 57.564 41.5752 57.5782 41.5056C57.5925 41.436 57.5922 41.3643 57.5776 41.2948C57.5629 41.2253 57.5341 41.1596 57.4929 41.1017C57.4518 41.0438 57.3991 40.995 57.3383 40.9583C57.321 40.9459 57.3026 40.9351 57.2834 40.9259H59.9307C59.8177 40.9695 59.7181 41.0418 59.6418 41.1357Z" fill="#1A1311"/>
<path d="M65.2046 41.0335C65.2469 41.1175 65.3115 41.1883 65.3913 41.2381C65.4711 41.2879 65.5631 41.3148 65.6572 41.3158C65.772 41.3152 65.8848 41.2854 65.9849 41.229C66.0849 41.1727 66.1689 41.0918 66.229 40.9939C66.282 40.9036 66.3089 40.8004 66.3069 40.6957C66.3049 40.591 66.2739 40.4889 66.2174 40.4007C65.9624 39.9519 65.6644 39.5288 65.3277 39.1375C65.27 39.0733 65.2003 39.0212 65.1224 38.9841C65.0445 38.9471 64.96 38.9259 64.8738 38.9217C64.7876 38.9175 64.7015 38.9304 64.6204 38.9597C64.5392 38.9891 64.4647 39.0342 64.4011 39.0925C64.345 39.1385 64.2991 39.1959 64.2666 39.2608C64.2341 39.3257 64.2156 39.3968 64.2124 39.4693C64.2092 39.5419 64.2213 39.6143 64.248 39.6819C64.2746 39.7494 64.3152 39.8106 64.3671 39.8614C64.6832 40.2243 64.9637 40.6168 65.2046 41.0335Z" fill="#1A1311"/>
<path d="M73.3546 47.0873C70.6178 47.3218 68.9059 47.313 67.7487 47.0559C67.8047 47.0284 67.8564 46.9927 67.9019 46.9499C67.9519 46.9032 67.9922 46.847 68.0205 46.7846C68.0488 46.7222 68.0645 46.6548 68.0667 46.5863V45.4489H69.5792V46.4705C69.5767 46.5596 69.5987 46.6478 69.6429 46.7252C69.6871 46.8027 69.7517 46.8666 69.8297 46.9099C69.9264 46.9629 70.0349 46.9907 70.1452 46.9907C70.2555 46.9907 70.3641 46.9629 70.4608 46.9099C70.5382 46.8661 70.6022 46.8021 70.6458 46.7247C70.6895 46.6472 70.7111 46.5593 70.7085 46.4705V45.4511H72.2952V45.6538C72.2952 45.8372 72.2738 45.9317 72.2221 45.9751C72.1233 46.0569 71.8498 46.0245 71.4389 45.9449C71.3589 45.9281 71.2758 45.9339 71.199 45.9618C71.1222 45.9896 71.0546 46.0384 71.0039 46.1025C70.9365 46.1887 70.8929 46.291 70.8774 46.3994C70.8619 46.5077 70.875 46.6182 70.9155 46.7198C70.9574 46.8156 71.0256 46.8976 71.112 46.9564C71.1985 47.0152 71.2998 47.0484 71.4043 47.0521C72.3111 47.1339 72.8235 47.0521 73.1163 46.7874C73.233 46.6619 73.3211 46.5126 73.3746 46.3498C73.4281 46.187 73.4456 46.0146 73.426 45.8444V42.0657C73.4283 41.9555 73.4087 41.8461 73.3683 41.7436C73.328 41.6411 73.2677 41.5477 73.191 41.4686C73.0388 41.3212 72.8344 41.2398 72.6225 41.2424H71.4604C71.9574 41.0238 72.4359 40.7652 72.8911 40.469C72.9983 40.3863 73.0767 40.2719 73.1151 40.142C73.1536 40.0122 73.1501 39.8735 73.1053 39.7457C73.043 39.5677 72.9229 39.4156 72.7641 39.3136C72.6054 39.2117 72.4171 39.1659 72.2293 39.1833H67.2862C67.2172 39.1836 67.1491 39.198 67.0859 39.2257C67.0227 39.2533 66.9658 39.2935 66.9187 39.3439C66.8717 39.3943 66.8354 39.4539 66.8122 39.5188C66.789 39.5837 66.7792 39.6527 66.7837 39.7215C66.7812 39.8542 66.8242 39.9837 66.9056 40.0884C66.9521 40.1438 67.0104 40.1881 67.0763 40.2178C67.1422 40.2476 67.2139 40.2621 67.2862 40.2604H68.0595C67.9904 40.313 67.9359 40.3823 67.9011 40.4619C67.8663 40.5415 67.8524 40.6287 67.8607 40.7151C67.8771 40.7993 67.9166 40.8773 67.9748 40.9404C68.033 41.0034 68.1076 41.049 68.1902 41.0721C68.2962 41.1122 68.4204 41.155 68.5533 41.2028C68.5917 41.2155 68.628 41.2286 68.6675 41.2429H67.7196C67.6117 41.2405 67.5044 41.2602 67.4045 41.301C67.3045 41.3418 67.2141 41.4028 67.1388 41.4801C67.0634 41.5574 67.0048 41.6494 66.9666 41.7503C66.9284 41.8512 66.9114 41.959 66.9166 42.0668V46.5875C66.9166 46.5962 66.9166 46.6067 66.9166 46.6171C66.9164 46.6584 66.9189 46.6997 66.9243 46.7407C66.7166 46.6188 66.533 46.4598 66.3827 46.2716V42.895C66.395 42.8003 66.3855 42.7041 66.3547 42.6137C66.324 42.5234 66.2729 42.4412 66.2054 42.3737C66.1379 42.3062 66.0558 42.2551 65.9654 42.2244C65.875 42.1936 65.7788 42.1841 65.6841 42.1964H64.656C64.5802 42.198 64.5056 42.215 64.4367 42.2463C64.3678 42.2777 64.306 42.3228 64.2551 42.3789C64.2042 42.435 64.1653 42.5009 64.1407 42.5725C64.1161 42.6442 64.1064 42.7201 64.1122 42.7956C64.1102 42.9396 64.1568 43.0801 64.2446 43.1943C64.2943 43.2549 64.3572 43.3034 64.4285 43.3358C64.4998 43.3683 64.5776 43.384 64.656 43.3816H65.1651C65.1876 43.3816 65.1997 43.3816 65.203 43.3882C65.2098 43.3996 65.2126 43.4129 65.2112 43.4261V46.5523C64.993 46.8832 64.7122 47.1683 64.3846 47.3915C64.2955 47.4526 64.2252 47.5374 64.1815 47.6362C64.1379 47.7351 64.1226 47.8442 64.1375 47.9512C64.1569 48.081 64.209 48.2037 64.2888 48.3078C64.3686 48.412 64.4736 48.4941 64.5939 48.5465C64.6691 48.5807 64.7523 48.5933 64.8342 48.5827C64.9161 48.5721 64.9934 48.5389 65.0574 48.4867C65.4283 48.1956 65.7645 47.8628 66.0592 47.4948C67.1396 48.3461 69.2387 48.5971 73.2541 48.3565C73.3624 48.3479 73.4662 48.3097 73.5544 48.2463C73.6426 48.1829 73.7118 48.0966 73.7545 47.9968C73.8128 47.8821 73.8416 47.7547 73.8383 47.6261C73.8349 47.4975 73.7995 47.3717 73.7353 47.2603C73.694 47.1991 73.6365 47.1506 73.5694 47.12C73.5022 47.0895 73.4279 47.0782 73.3546 47.0873ZM72.293 42.8653H70.7046V42.2551H72.204C72.2268 42.2568 72.248 42.2673 72.2633 42.2843C72.2799 42.2993 72.29 42.3201 72.2913 42.3425L72.293 42.8653ZM72.293 44.4987H70.7046V43.8144H72.2913L72.293 44.4987ZM68.0639 42.8653V42.3425C68.0657 42.32 68.0761 42.2992 68.093 42.2843C68.1082 42.2674 68.1292 42.257 68.1518 42.2551H69.576V42.8653H68.0639ZM68.0639 44.4987V43.8144H69.5765V44.4987H68.0639ZM70.0878 40.9678C69.8555 40.8497 69.6116 40.7063 69.3738 40.5668C69.1794 40.4531 68.9943 40.3471 68.8323 40.2604H71.4686C71.0312 40.5376 70.5694 40.7744 70.0889 40.9678H70.0878Z" fill="#1A1311"/>
<path d="M83.7601 47.0871H80.7767V46.3731H83.0911C83.1803 46.376 83.2685 46.3542 83.346 46.3101C83.4236 46.266 83.4874 46.2013 83.5305 46.1232C83.583 46.0283 83.6105 45.9216 83.6105 45.8131C83.6105 45.7047 83.583 45.598 83.5305 45.5031C83.4873 45.4252 83.4234 45.3609 83.3458 45.3172C83.2683 45.2734 83.1801 45.252 83.0911 45.2554H80.7767V44.6199H83.3784C83.4674 44.6231 83.5555 44.6016 83.6331 44.5578C83.7106 44.514 83.7745 44.4496 83.8177 44.3717C83.8715 44.2768 83.8997 44.1696 83.8997 44.0606C83.8997 43.9515 83.8715 43.8443 83.8177 43.7494C83.7743 43.6718 83.7103 43.6077 83.6328 43.5641C83.5553 43.5205 83.4672 43.4991 83.3784 43.5023H80.7767V43.0437C80.778 42.9697 80.762 42.8964 80.7301 42.8297C80.6982 42.763 80.6511 42.7046 80.5927 42.6592H83.675C83.764 42.6618 83.8521 42.64 83.9295 42.596C84.007 42.5521 84.0709 42.4877 84.1143 42.4099C84.169 42.3136 84.1978 42.2048 84.1978 42.094C84.1978 41.9833 84.169 41.8745 84.1143 41.7782C84.0707 41.7007 84.0067 41.6365 83.9293 41.5928C83.8518 41.549 83.7639 41.5273 83.675 41.53H81.8801C81.9899 41.2109 82.0998 40.8358 82.1684 40.5485H83.2284C83.3162 40.5516 83.4032 40.5304 83.4798 40.4874C83.5564 40.4444 83.6197 40.3812 83.6629 40.3047C83.7139 40.2131 83.7407 40.1101 83.7407 40.0053C83.7407 39.9006 83.7139 39.7975 83.6629 39.706C83.6198 39.6294 83.5565 39.5661 83.4799 39.5231C83.4033 39.48 83.3162 39.459 83.2284 39.4621H80.2884V39.3737C80.2776 39.233 80.214 39.1015 80.1105 39.0056C80.0069 38.9097 79.871 38.8564 79.7298 38.8564C79.5887 38.8564 79.4528 38.9097 79.3492 39.0056C79.2456 39.1015 79.1821 39.233 79.1713 39.3737V39.4621H75.7221C75.584 39.4709 75.4545 39.532 75.3598 39.6329C75.2651 39.7338 75.2124 39.867 75.2124 40.0053C75.2124 40.1437 75.2651 40.2769 75.3598 40.3778C75.4545 40.4787 75.584 40.5397 75.7221 40.5485H76.8953C76.9875 40.7786 77.1347 41.2005 77.2424 41.53H76.0808C75.5129 41.53 75.2355 41.7969 75.2355 42.3445V44.0312C75.3002 45.2234 75.0936 46.4147 74.6314 47.5155C74.5826 47.6183 74.562 47.7322 74.5717 47.8456C74.5813 47.9589 74.6209 48.0677 74.6863 48.1608C74.739 48.2565 74.8157 48.3368 74.9088 48.394C75.0019 48.4512 75.1082 48.4833 75.2174 48.4871C75.3095 48.4793 75.3976 48.4458 75.4717 48.3905C75.5458 48.3352 75.6029 48.2602 75.6364 48.174C76.2906 46.8921 76.3883 45.0472 76.3883 44.0641V42.7355C76.3861 42.7143 76.3914 42.6929 76.4032 42.6751C76.4209 42.6632 76.4422 42.6576 76.4636 42.6592H77.8438C77.7974 42.6589 77.751 42.6631 77.7054 42.6718C77.6148 42.6884 77.5308 42.7301 77.4628 42.7922C77.3948 42.8542 77.3457 42.9341 77.3209 43.0228C77.1553 43.6605 76.8679 44.2601 76.4746 44.7886C76.4174 44.8598 76.3818 44.9459 76.3721 45.0367C76.3624 45.1276 76.3789 45.2193 76.4196 45.301C76.4678 45.3911 76.5352 45.4694 76.6172 45.5303C76.6991 45.5913 76.7935 45.6334 76.8936 45.6536C76.8708 45.7363 76.8651 45.8228 76.8769 45.9078C76.8887 45.9928 76.9178 46.0745 76.9623 46.1479C77.0077 46.22 77.0711 46.2791 77.1464 46.3192C77.2216 46.3592 77.306 46.3789 77.3912 46.3764H79.5997V47.0904H76.7118C76.5729 47.098 76.4421 47.1586 76.3465 47.2597C76.2508 47.3608 76.1975 47.4947 76.1975 47.6338C76.1975 47.773 76.2508 47.9069 76.3465 48.008C76.4421 48.109 76.5729 48.1697 76.7118 48.1773H83.765C83.8526 48.18 83.9393 48.1587 84.0156 48.1157C84.092 48.0727 84.1552 48.0097 84.1984 47.9334C84.249 47.8417 84.2755 47.7386 84.2755 47.6338C84.2755 47.5291 84.249 47.426 84.1984 47.3342C84.1551 47.2568 84.0912 47.1927 84.0139 47.1491C83.9366 47.1055 83.8488 47.0841 83.7601 47.0871ZM80.6399 41.5278H78.4891C78.4117 41.207 78.2991 40.8846 78.1805 40.5463H80.9288C80.8622 40.8815 80.7655 41.21 80.6399 41.5278ZM77.9026 44.6199H79.5947V45.2532H77.5445C77.6758 45.0491 77.7954 44.8377 77.9026 44.6199ZM79.7754 42.6565C79.7179 42.7024 79.6716 42.761 79.6402 42.8276C79.6087 42.8943 79.593 42.9672 79.5942 43.0409V43.4995H78.3727C78.3725 43.4957 78.3735 43.4919 78.3754 43.4885C78.3974 43.4336 78.4205 43.3699 78.4386 43.3073C78.4672 43.2316 78.4743 43.1495 78.4592 43.07C78.444 42.9906 78.4073 42.9168 78.3529 42.8569C78.2341 42.7352 78.0736 42.6628 77.9036 42.6543L79.7754 42.6565Z" fill="#1A1311"/>
<path d="M94.2242 47.0597C93.2443 46.9249 92.2826 46.6806 91.3572 46.3314H93.9655C94.0523 46.3349 94.1384 46.3147 94.2146 46.2729C94.2908 46.2311 94.3541 46.1693 94.3978 46.0942C94.4442 46.0107 94.4686 45.9167 94.4686 45.8212C94.4686 45.7257 94.4442 45.6317 94.3978 45.5482C94.3548 45.4723 94.2917 45.4098 94.2154 45.3675C94.1391 45.3253 94.0526 45.3049 93.9655 45.3088H90.323V44.8562H93.3405C93.4266 44.8602 93.5122 44.8404 93.5879 44.7991C93.6635 44.7577 93.7263 44.6964 93.7694 44.6217C93.8154 44.5375 93.8395 44.443 93.8395 44.3471C93.8395 44.2511 93.8154 44.1567 93.7694 44.0725C93.7265 43.9976 93.664 43.9358 93.5886 43.8938C93.5133 43.8518 93.4278 43.8312 93.3416 43.8341H90.3241V43.4364H93.6195C93.7061 43.4395 93.7919 43.4188 93.8676 43.3766C93.9434 43.3344 94.0061 43.2723 94.049 43.197C94.097 43.1104 94.1222 43.0131 94.1222 42.9141C94.1222 42.8152 94.097 42.7178 94.049 42.6313C94.006 42.556 93.9433 42.4938 93.8676 42.4515C93.792 42.4092 93.7062 42.3884 93.6195 42.3913H91.8411C91.9412 42.1401 92.0269 41.8834 92.0976 41.6224H93.9452C94.0344 41.6273 94.1232 41.6076 94.202 41.5656C94.2808 41.5236 94.3466 41.4608 94.3923 41.384C94.4398 41.2953 94.4639 41.1959 94.4623 41.0952C94.4606 40.9946 94.4333 40.8961 94.3829 40.8089C94.3394 40.731 94.2755 40.6663 94.1982 40.6217C94.1208 40.5771 94.0328 40.5543 93.9435 40.5557H93.1356C93.3286 40.3108 93.4999 40.0495 93.6475 39.7747C93.679 39.7107 93.6971 39.641 93.7007 39.5698C93.7043 39.4985 93.6934 39.4273 93.6685 39.3605C93.6436 39.2936 93.6053 39.2325 93.556 39.181C93.5067 39.1295 93.4474 39.0886 93.3817 39.0607C93.3217 39.026 93.2552 39.0039 93.1863 38.9958C93.1174 38.9877 93.0476 38.9938 92.9812 39.0137C92.9148 39.0336 92.8531 39.0669 92.8001 39.1116C92.747 39.1562 92.7036 39.2113 92.6726 39.2733C92.4445 39.7263 92.1714 40.1552 91.8576 40.5535H91.4484V39.3727C91.4332 39.2308 91.3661 39.0995 91.2599 39.0042C91.1537 38.9088 91.0161 38.856 90.8734 38.856C90.7306 38.856 90.593 38.9088 90.4868 39.0042C90.3807 39.0995 90.3135 39.2308 90.2983 39.3727V40.5535H89.2103V39.3727C89.1963 39.2295 89.1295 39.0966 89.0229 38.9999C88.9163 38.9032 88.7775 38.8496 88.6336 38.8496C88.4897 38.8496 88.3509 38.9032 88.2443 38.9999C88.1377 39.0966 88.0709 39.2295 88.0569 39.3727V40.5535H87.7411C87.5994 40.319 87.2715 39.7912 86.8486 39.2096C86.7999 39.1529 86.7404 39.1065 86.6736 39.0732C86.6067 39.0398 86.5338 39.0202 86.4593 39.0154C86.3847 39.0107 86.3099 39.0209 86.2394 39.0455C86.1688 39.07 86.1039 39.1085 86.0484 39.1585C85.9941 39.1935 85.9477 39.2395 85.9121 39.2934C85.8765 39.3473 85.8525 39.408 85.8417 39.4717C85.8308 39.5354 85.8333 39.6007 85.8491 39.6633C85.8648 39.726 85.8934 39.7847 85.9331 39.8357C86.0347 39.9785 86.1527 40.1224 86.2703 40.2603C86.3549 40.363 86.4323 40.4596 86.5043 40.553H85.531C85.4294 40.5602 85.3317 40.5952 85.2487 40.6542C85.1656 40.7132 85.1004 40.7938 85.0602 40.8874C85.0199 40.981 85.0062 41.0838 85.0204 41.1847C85.0347 41.2855 85.0764 41.3805 85.1411 41.4592C85.1907 41.5124 85.2512 41.5543 85.3185 41.5819C85.3858 41.6095 85.4583 41.6222 85.531 41.619H87.4648C87.5747 41.8316 87.695 42.1243 87.7982 42.388H85.9028C85.7703 42.3966 85.646 42.4553 85.5552 42.5522C85.4644 42.6491 85.4139 42.7769 85.4139 42.9097C85.4139 43.0425 85.4644 43.1704 85.5552 43.2673C85.646 43.3642 85.7703 43.4229 85.9028 43.4315H89.2048V43.8291H86.1791C86.0463 43.8335 85.9204 43.8893 85.828 43.9848C85.7356 44.0802 85.684 44.2079 85.684 44.3408C85.684 44.4736 85.7356 44.6013 85.828 44.6967C85.9204 44.7922 86.0463 44.848 86.1791 44.8524H89.2048V45.3049H85.5524C85.4197 45.3093 85.2938 45.3651 85.2014 45.4605C85.109 45.556 85.0573 45.6837 85.0573 45.8165C85.0573 45.9494 85.109 46.077 85.2014 46.1725C85.2938 46.268 85.4197 46.3238 85.5524 46.3281H88.2162C87.2929 46.7061 86.3276 46.9718 85.341 47.1196C85.2475 47.1316 85.1592 47.1693 85.0858 47.2284C85.0125 47.2876 84.9569 47.3658 84.9252 47.4546C84.895 47.5598 84.8926 47.671 84.9183 47.7774C84.944 47.8838 84.9969 47.9817 85.0719 48.0615C85.1381 48.1379 85.2241 48.1945 85.3204 48.2251C85.4167 48.2557 85.5196 48.2592 85.6178 48.235C86.8993 47.9575 88.1171 47.4412 89.2076 46.7131V48.0697C89.2054 48.1587 89.2275 48.2466 89.2714 48.324C89.3153 48.4013 89.3794 48.4654 89.4569 48.5091C89.5523 48.5609 89.6592 48.588 89.7678 48.588C89.8763 48.588 89.9832 48.5609 90.0786 48.5091C90.156 48.4654 90.22 48.4014 90.2637 48.3239C90.3073 48.2465 90.329 48.1586 90.3263 48.0697V46.7131C91.4216 47.4421 92.6514 47.9454 93.9435 48.1933C94.0391 48.2101 94.1375 48.2008 94.2283 48.1664C94.319 48.132 94.3988 48.0737 94.4593 47.9978C94.535 47.9087 94.5872 47.802 94.6109 47.6875C94.6346 47.573 94.6291 47.4544 94.5949 47.3426C94.5659 47.2654 94.5157 47.1979 94.4502 47.1479C94.3846 47.0979 94.3063 47.0673 94.2242 47.0597ZM88.9868 42.3913C88.9038 42.16 88.7984 41.8629 88.6918 41.6224H90.9134C90.8327 41.8857 90.7327 42.1427 90.6141 42.3913H88.9868Z" fill="#1A1311"/>
</g>
<defs>
<clipPath id="clip0_7450_59850">
<rect width="144" height="15.2296" fill="white" transform="translate(16 36.3848)"/>
</clipPath>
</defs>
</svg>
