<svg width="176" height="88" viewBox="0 0 176 88" fill="none" xmlns="http://www.w3.org/2000/svg">
<g clip-path="url(#clip0_7300_60614)">
<mask id="mask0_7300_60614" style="mask-type:luminance" maskUnits="userSpaceOnUse" x="24" y="31" width="128" height="26">
<path d="M152 31.8672H24V56.1417H152V31.8672Z" fill="white"/>
</mask>
<g mask="url(#mask0_7300_60614)">
<path d="M54.8223 52.1397V46.5558H55.4625C56.1877 50.1919 57.9071 52.01 60.6208 52.01C61.1401 52.0422 61.6603 51.9662 62.1486 51.7866C62.6369 51.607 63.0825 51.3279 63.4571 50.9669C63.7716 50.6635 64.0224 50.3005 64.195 49.8991C64.3675 49.4977 64.4584 49.0659 64.4623 48.629C64.4722 48.223 64.399 47.8192 64.247 47.4426C64.095 47.0659 63.8675 46.7244 63.5785 46.439C62.6177 45.636 61.5262 45.0038 60.3515 44.5699C59.2642 44.1253 58.2112 43.601 57.2012 43.0011C56.5087 42.5704 55.9379 41.9698 55.5429 41.2564C55.1507 40.5564 54.9456 39.7671 54.9474 38.9647C54.9329 38.3874 55.0402 37.8135 55.2624 37.2805C55.4846 36.7475 55.8167 36.2673 56.237 35.8713C56.6715 35.4591 57.1837 35.1376 57.7437 34.9254C58.3037 34.7133 58.9004 34.6147 59.4989 34.6355C60.2056 34.6315 60.9074 34.7535 61.5713 34.9959C62.3451 35.3244 63.0297 35.8322 63.5687 36.4774C63.9427 36.0504 64.1751 35.518 64.2339 34.9534H64.7976V39.4995H64.2339C63.9845 38.3098 63.3848 37.2219 62.512 36.3757C61.7423 35.6385 60.7156 35.2304 59.6498 35.2378C59.2321 35.2015 58.8116 35.2579 58.4182 35.4029C58.0248 35.548 57.6683 35.7781 57.3741 36.0768C56.9143 36.5792 56.6565 37.2339 56.6504 37.9149C56.6455 38.2998 56.7244 38.6812 56.8816 39.0327C57.0388 39.3841 57.2705 39.6972 57.5607 39.9501C58.5379 40.7435 59.6304 41.383 60.8006 41.8466C61.916 42.3232 63.0048 42.8595 64.0625 43.4532C64.7444 43.8627 65.3072 44.4436 65.695 45.138C66.1158 45.897 66.328 46.754 66.3102 47.6216C66.3347 48.2967 66.2149 48.9693 65.9586 49.5944C65.7023 50.2194 65.3155 50.7826 64.8241 51.2461C63.7351 52.2134 62.31 52.7146 60.8552 52.6419C59.9479 52.6569 59.0488 52.468 58.2243 52.0891C57.3998 51.7102 56.6709 51.1509 56.0914 50.4526C55.7663 50.9656 55.5526 51.5412 55.464 52.142L54.8223 52.1397Z" fill="#474645"/>
<path d="M74.711 42.4192H71.5493V48.7579C71.5244 49.4159 71.5673 50.0748 71.6775 50.7241C71.7558 51.0514 71.9487 51.3399 72.2214 51.5373C72.4769 51.7329 72.7894 51.8395 73.1112 51.8407C73.4465 51.8209 73.7707 51.7135 74.0516 51.5293C74.3324 51.3451 74.56 51.0905 74.7118 50.7908L75.1207 51.0351C74.8775 51.5748 74.4668 52.0218 73.9494 52.3095C73.4719 52.5844 72.9317 52.732 72.3807 52.7381C71.7943 52.7473 71.2225 52.5548 70.7611 52.1927C70.3313 51.8823 70.0233 51.4316 69.8903 50.9183C69.7472 50.0723 69.6892 49.2141 69.7173 48.3566V42.4192H68.1934V41.8298C68.5505 41.8169 68.9013 41.732 69.2248 41.5803C69.5483 41.4286 69.8379 41.2131 70.0761 40.9468C70.6756 40.2766 71.0474 39.4337 71.1382 38.5391H71.5493V41.8298H74.7118L74.711 42.4192Z" fill="#474645"/>
<path d="M76.131 47.0578C76.1116 46.312 76.2447 45.57 76.5222 44.8773C76.7996 44.1847 77.2156 43.556 77.7445 43.0298C78.8074 41.9903 80.2354 41.4089 81.722 41.4102C83.2087 41.4114 84.6356 41.9953 85.6967 43.0366C86.2247 43.562 86.64 44.1895 86.9174 44.8807C87.1948 45.572 87.3285 46.3125 87.3102 47.0571C87.3515 47.8293 87.2265 48.6014 86.9437 49.3212C86.6609 50.041 86.2268 50.6917 85.6709 51.2293C84.6004 52.2322 83.18 52.7767 81.7134 52.7464C80.9859 52.7612 80.2626 52.6325 79.5848 52.3677C78.9071 52.1028 78.2882 51.7069 77.7635 51.2027C77.214 50.667 76.7844 50.0208 76.503 49.3069C76.2216 48.5929 76.0948 47.8274 76.131 47.0609M78.2551 47.1246C78.2551 48.9861 78.5585 50.2901 79.1654 51.0366C79.4912 51.39 79.8868 51.6721 80.3271 51.8651C80.7674 52.058 81.2429 52.1576 81.7237 52.1576C82.2044 52.1576 82.6799 52.058 83.1202 51.8651C83.5605 51.6721 83.9561 51.39 84.282 51.0366C84.8752 50.2896 85.1718 48.9856 85.1718 47.1246C85.1718 45.2802 84.8772 43.9654 84.288 43.18C83.9693 42.8108 83.5749 42.5146 83.1315 42.3113C82.6882 42.1081 82.2063 42.0026 81.7186 42.002C81.2309 42.0014 80.7488 42.1058 80.3049 42.308C79.8611 42.5102 79.466 42.8055 79.1464 43.1739C78.5532 43.9548 78.2566 45.2714 78.2566 47.1238" fill="#474645"/>
<path d="M98.2986 49.7563H98.8615C98.2809 51.7453 96.829 52.74 94.5057 52.7406C93.8064 52.7568 93.1112 52.6299 92.4628 52.3677C91.8143 52.1055 91.2263 51.7135 90.7348 51.2158C90.2182 50.6836 89.8159 50.0512 89.5528 49.3577C89.2897 48.6642 89.1712 47.9242 89.2048 47.1832C89.175 46.4112 89.3064 45.6414 89.5908 44.9231C89.8751 44.2047 90.3061 43.5535 90.8562 43.011C91.3674 42.497 91.9764 42.0905 92.6472 41.8156C93.3181 41.5407 94.0372 41.4029 94.7621 41.4104C95.6308 41.4017 96.4883 41.6064 97.2593 42.0067C98.0179 42.4032 98.3972 42.8876 98.3972 43.4601C98.3952 43.6785 98.3208 43.8901 98.1856 44.0617C98.1152 44.1547 98.0231 44.2291 97.9173 44.2783C97.8115 44.3275 97.6952 44.35 97.5787 44.3439C97.0148 44.3439 96.6689 44.0151 96.541 43.3577C96.4916 42.9719 96.3266 42.6102 96.0676 42.32C95.6826 42.0809 95.2287 41.9773 94.778 42.0257C94.283 41.994 93.7879 42.0864 93.3376 42.2944C92.8872 42.5023 92.4959 42.8193 92.1989 43.2166C91.5482 44.2943 91.2464 45.5467 91.3349 46.8024C91.2587 48.1551 91.5816 49.5004 92.2634 50.6712C92.5687 51.1297 92.989 51.5 93.4824 51.7451C93.9757 51.9902 94.5248 52.1014 95.0746 52.0677C95.8 52.1335 96.5248 51.9362 97.1166 51.5118C97.7085 51.0874 98.1281 50.4644 98.2986 49.7563Z" fill="#474645"/>
<path d="M106.402 41.8302H110.629V42.4196C109.852 42.4368 108.81 43.0184 107.503 44.1643C107.085 44.5224 106.437 45.0473 105.557 45.7391L109.296 50.1192C109.679 50.608 110.127 51.0419 110.629 51.4087C110.928 51.6011 111.272 51.7136 111.627 51.7357V52.3251H106.402V51.7357C107.273 51.7185 107.708 51.5309 107.708 51.1728C107.708 51.01 107.422 50.5958 106.85 49.9303L104.161 46.8057L103.61 47.2161V48.7264C103.61 49.8451 103.625 50.5472 103.656 50.833C103.664 50.9637 103.702 51.091 103.764 51.206C103.827 51.3211 103.914 51.421 104.02 51.499C104.359 51.6876 104.747 51.7703 105.134 51.7364V52.3259H99.8203V51.7364H100.217C100.634 51.7872 101.056 51.6946 101.414 51.474C101.592 51.3104 101.704 51.0872 101.728 50.8466C101.754 50.6034 101.767 49.8966 101.767 48.7264V38.2072C101.83 37.5443 101.731 36.876 101.479 36.26C101.286 35.9788 100.823 35.8379 100.089 35.8374V35.2488C100.697 35.2389 101.303 35.179 101.902 35.0697C102.394 35.0053 102.878 34.8849 103.343 34.7109H103.611V46.5053L104.713 45.7369C106.497 44.4726 107.389 43.5623 107.389 43.006C107.389 42.6307 107.061 42.4343 106.403 42.4166L106.402 41.8302Z" fill="#474645"/>
<path d="M113.535 52.1397V46.5558H114.175C114.901 50.1919 116.62 52.01 119.334 52.01C119.853 52.0422 120.373 51.9662 120.862 51.7866C121.35 51.607 121.795 51.3279 122.17 50.9669C122.484 50.6635 122.735 50.3005 122.908 49.8991C123.08 49.4977 123.171 49.0659 123.175 48.629C123.185 48.223 123.112 47.8192 122.96 47.4426C122.808 47.0659 122.58 46.7244 122.291 46.439C121.331 45.636 120.239 45.0038 119.064 44.5699C117.977 44.1253 116.924 43.601 115.914 43.0011C115.222 42.5704 114.651 41.9698 114.256 41.2564C113.864 40.5564 113.659 39.7671 113.66 38.9647C113.646 38.3874 113.753 37.8135 113.975 37.2805C114.198 36.7475 114.53 36.2673 114.95 35.8713C115.384 35.4591 115.897 35.1376 116.457 34.9254C117.017 34.7133 117.613 34.6147 118.212 34.6355C118.919 34.6315 119.62 34.7535 120.284 34.9959C121.058 35.3255 121.743 35.8346 122.282 36.4812C122.656 36.0542 122.888 35.5218 122.947 34.9572H123.51V39.4995H122.947C122.697 38.3098 122.098 37.2219 121.225 36.3757C120.455 35.6385 119.428 35.2304 118.363 35.2378C117.945 35.2015 117.524 35.2579 117.131 35.4029C116.738 35.548 116.381 35.7781 116.087 36.0768C115.627 36.5792 115.369 37.2339 115.363 37.9149C115.358 38.2998 115.437 38.6812 115.594 39.0327C115.752 39.3841 115.983 39.6972 116.274 39.9501C117.251 40.7435 118.343 41.383 119.514 41.8466C120.629 42.3232 121.718 42.8595 122.775 43.4532C123.457 43.8627 124.02 44.4436 124.408 45.138C124.829 45.897 125.041 46.754 125.023 47.6216C125.048 48.2967 124.928 48.9693 124.672 49.5944C124.415 50.2194 124.028 50.7826 123.537 51.2461C122.448 52.2134 121.023 52.7146 119.568 52.6419C118.661 52.6569 117.762 52.468 116.937 52.0891C116.113 51.7102 115.384 51.1509 114.804 50.4526C114.479 50.9656 114.266 51.5412 114.177 52.142L113.535 52.1397Z" fill="#474645"/>
<path d="M137.098 41.8289V48.7054C137.098 49.8498 137.115 50.5669 137.149 50.8567C137.158 50.9871 137.198 51.1137 137.263 51.2267C137.329 51.3398 137.42 51.4363 137.528 51.5091C137.892 51.6864 138.297 51.7619 138.7 51.7276V52.317C137.736 52.2804 136.773 52.4189 135.858 52.7258H135.706C135.372 51.9599 135.223 51.1264 135.271 50.2923C134.822 51.0306 134.211 51.6571 133.484 52.1243C132.816 52.5339 132.046 52.747 131.262 52.7395C130.611 52.7521 129.968 52.5857 129.405 52.2586C128.921 51.996 128.533 51.5853 128.298 51.0866C128.063 50.4171 127.96 49.7084 127.994 48.9997V45.4268C128.012 44.6858 127.99 43.9445 127.931 43.2057C127.916 43.0815 127.871 42.9628 127.801 42.8592C127.731 42.7557 127.637 42.6703 127.527 42.6102C127.131 42.4516 126.705 42.3857 126.279 42.4175V41.8281H129.835V49.1021C129.817 49.626 129.86 50.1501 129.963 50.664C130.07 51.018 130.303 51.3209 130.617 51.5159C130.974 51.7608 131.398 51.8881 131.831 51.88C132.511 51.8719 133.171 51.6453 133.713 51.2337C134.233 50.8911 134.654 50.4186 134.935 49.863C135.184 49.2033 135.295 48.5 135.262 47.7958V45.4268C135.262 44.2834 135.249 43.5878 135.224 43.34C135.197 43.0919 135.081 42.862 134.897 42.6937C134.543 42.4665 134.121 42.3692 133.703 42.4183H133.434V41.8289H137.098Z" fill="#474645"/>
<path d="M142.243 41.4087H142.589C142.813 42.1085 142.925 42.839 142.922 43.5737C143.457 42.914 144.113 42.3623 144.855 41.948C145.504 41.5956 146.23 41.4105 146.968 41.4094C147.69 41.3794 148.405 41.5622 149.023 41.9351C149.511 42.2263 149.878 42.6844 150.054 43.2247C150.232 43.951 150.309 44.6985 150.282 45.4458V48.7244C150.264 49.4634 150.285 50.2027 150.345 50.9394C150.362 51.0632 150.407 51.1814 150.477 51.2847C150.547 51.3881 150.64 51.4737 150.749 51.5349C151.144 51.6988 151.572 51.7669 151.998 51.7337V52.3231H146.632V51.7337H146.875C147.295 51.7843 147.72 51.6892 148.079 51.4644C148.258 51.3012 148.372 51.0782 148.399 50.837C148.424 50.5983 148.437 49.8944 148.438 48.7252V45.3412C148.456 44.7471 148.415 44.1527 148.315 43.5668C148.215 43.1862 147.984 42.853 147.662 42.6262C147.271 42.3411 146.796 42.1965 146.312 42.2158C145.674 42.2203 145.052 42.4141 144.525 42.7726C143.885 43.2181 143.339 43.7851 142.917 44.4415V48.7191C142.898 49.4582 142.922 50.1977 142.987 50.9341C143.006 51.0582 143.053 51.1763 143.124 51.2795C143.195 51.3828 143.289 51.4683 143.398 51.5296C143.797 51.6941 144.229 51.7622 144.659 51.7284V52.3178H139.358V51.7284C139.776 51.7569 140.195 51.6956 140.586 51.5486C140.695 51.4968 140.79 51.4209 140.864 51.3265C140.938 51.2322 140.99 51.1221 141.015 51.0047C141.096 50.2457 141.124 49.482 141.099 48.7191V45.5968C141.119 44.8554 141.095 44.1135 141.029 43.3749C141.009 43.252 140.962 43.1351 140.891 43.0329C140.82 42.9308 140.727 42.8462 140.618 42.7855C140.219 42.6215 139.787 42.5534 139.357 42.5868V41.9973C140.334 41.8876 141.299 41.6904 142.24 41.4079" fill="#474645"/>
<path d="M26.3812 44.0013L24 39.7305V48.272L26.3812 44.0013Z" fill="#BDBEBF"/>
<path d="M24 53.3598L33.1477 56.1438L24 48.2773V53.3598Z" fill="#A6A7A7"/>
<path d="M24 48.2747L33.1477 56.1411L26.3804 44.0039L24 48.2747Z" fill="#E0E0E0"/>
<path d="M33.1477 31.8672L24 34.6512V39.7336L33.1477 31.8672Z" fill="#A6A7A7"/>
<path d="M24 39.7336L26.3804 44.0044L33.1477 31.8672L24 39.7336Z" fill="#E0E0E0"/>
<path d="M33.1481 56.1417V31.8672L26.3809 44.0044L33.1481 56.1417Z" fill="white"/>
<path d="M39.9141 44.0013L42.2945 48.272V39.7305L39.9141 44.0013Z" fill="#BDBEBF"/>
<path d="M42.2961 34.6512L33.1484 31.8672L42.2961 39.7336V34.6512Z" fill="#A6A7A7"/>
<path d="M42.2961 39.7336L33.1484 31.8672L39.9157 44.0044L42.2961 39.7336Z" fill="#E0E0E0"/>
<path d="M33.1484 56.1438L42.2961 53.3598V48.2773L33.1484 56.1438Z" fill="#A6A7A7"/>
<path d="M42.2961 48.2747L39.9157 44.0039L33.1484 56.1411L42.2961 48.2747Z" fill="#E0E0E0"/>
<path d="M33.1484 31.8672V56.1417L39.9157 44.0044L33.1484 31.8672Z" fill="white"/>
</g>
</g>
<defs>
<clipPath id="clip0_7300_60614">
<rect width="128" height="24.2745" fill="white" transform="translate(24 31.8633)"/>
</clipPath>
</defs>
</svg>
