<svg width="176" height="88" viewBox="0 0 176 88" fill="none" xmlns="http://www.w3.org/2000/svg">
<path d="M74.4374 25.771C73.3792 31.7185 68.1703 36.2424 61.9329 36.2424H38.4293C39.495 30.295 44.6965 25.771 50.9412 25.771H74.4374ZM76.8667 23.5352H50.9412C42.6919 23.5352 36 30.2279 36 38.4783H61.9329C70.1823 38.4783 76.8742 31.7856 76.8742 23.5352H76.8667Z" fill="url(#paint0_linear_7300_60671)"/>
<path d="M52.6711 25.9648C58.6178 27.0231 63.1412 32.2327 63.1412 38.4708V62.0221C57.1945 60.9638 52.6711 55.7542 52.6711 49.5161V25.9648ZM50.4355 23.5352V49.5161C50.4355 57.7665 57.1274 64.4592 65.3768 64.4592V38.4783C65.3768 30.2279 58.6924 23.5352 50.4355 23.5352Z" fill="url(#paint1_linear_7300_60671)"/>
<path d="M52.6711 25.9648C58.6178 27.0231 63.1412 32.2327 63.1412 38.4708V47.0119C57.1945 45.9536 52.6711 40.744 52.6711 34.5059V25.9648ZM50.4355 23.5352V34.5059C50.4355 42.7563 57.1274 49.449 65.3768 49.449V38.4783C65.3768 30.2279 58.6924 23.5352 50.4355 23.5352Z" fill="url(#paint2_linear_7300_60671)"/>
<path d="M92.4601 34.8118V56.27H88.6865V34.8118H82.9355C82.9355 32.8531 84.523 31.2656 86.4817 31.2656H98.1925C98.1925 33.2244 96.6051 34.8118 94.6463 34.8118H92.4601Z" fill="#3E3A39"/>
<path d="M100.834 40.4988H104.478V41.9099C105.146 41.209 105.74 40.7262 106.26 40.4663C106.789 40.1971 107.416 40.0625 108.14 40.0625C109.101 40.0625 110.103 40.3735 111.152 41.0001L109.486 44.3374C108.794 43.8408 108.121 43.5948 107.462 43.5948C105.476 43.5948 104.482 45.094 104.482 48.0971V56.2756H100.839V40.4988H100.834Z" fill="#3E3A39"/>
<path d="M118.708 40.4961V56.2683H115.064V40.4961H118.708Z" fill="#3E3A39"/>
<path d="M123.174 48.2735C123.174 45.9945 123.991 44.0589 125.62 42.4576C127.249 40.8609 129.236 40.0625 131.58 40.0625C133.924 40.0625 135.929 40.8655 137.572 42.4761C139.192 44.0868 140 46.0595 140 48.4035C140 50.7475 139.183 52.748 137.554 54.3494C135.91 55.9368 133.901 56.7305 131.515 56.7305C129.129 56.7305 127.17 55.9229 125.574 54.303C123.977 52.7062 123.178 50.6964 123.178 48.2782L123.174 48.2735ZM126.896 48.3338C126.896 49.912 127.319 51.1559 128.159 52.075C129.022 53.0033 130.159 53.4675 131.575 53.4675C132.991 53.4675 134.137 53.008 134.991 52.0889C135.845 51.1699 136.272 49.9445 136.272 48.4128C136.272 46.881 135.845 45.6556 134.991 44.7366C134.128 43.8083 132.991 43.3441 131.575 43.3441C130.159 43.3441 129.055 43.8083 128.191 44.7366C127.328 45.6649 126.896 46.8625 126.896 48.3338Z" fill="#3E3A39"/>
<path d="M117.805 31.7742H119.169V33.046C119.169 34.8608 117.698 36.3322 115.883 36.3322H114.611V34.9676C114.611 33.2038 116.046 31.7695 117.809 31.7695L117.805 31.7742Z" fill="#3E3A39"/>
<defs>
<linearGradient id="paint0_linear_7300_60671" x1="36" y1="31.003" x2="76.8667" y2="31.003" gradientUnits="userSpaceOnUse">
<stop stop-color="#AA3D59"/>
<stop offset="1" stop-color="#E35C73"/>
</linearGradient>
<linearGradient id="paint1_linear_7300_60671" x1="50.4355" y1="44.0009" x2="65.3768" y2="44.0009" gradientUnits="userSpaceOnUse">
<stop stop-color="#AA3D59"/>
<stop offset="1" stop-color="#E35C73"/>
</linearGradient>
<linearGradient id="paint2_linear_7300_60671" x1="50.4355" y1="36.4958" x2="65.3768" y2="36.4958" gradientUnits="userSpaceOnUse">
<stop stop-color="#AA3D59"/>
<stop offset="1" stop-color="#E35C73"/>
</linearGradient>
</defs>
</svg>
