<svg width="176" height="88" viewBox="0 0 176 88" fill="none" xmlns="http://www.w3.org/2000/svg">
<path d="M69.2746 24.2328C66.1308 25.2484 63.0891 26.5566 60.1895 28.1402L60.1856 28.1363C59.9949 28.2439 59.8274 28.388 59.6924 28.5604C59.5574 28.7328 59.4577 28.9301 59.399 29.141C59.3403 29.3519 59.3237 29.5723 59.3502 29.7896C59.3767 30.007 59.4457 30.2169 59.5533 30.4076C59.6609 30.5982 59.805 30.7658 59.9774 30.9008C60.1498 31.0357 60.3471 31.1354 60.558 31.1941C60.7689 31.2528 60.9893 31.2694 61.2066 31.243C61.424 31.2165 61.6339 31.1475 61.8246 31.0399H61.8442C64.5415 29.5304 67.3744 28.2773 70.3059 27.2972C73.268 26.3106 76.2943 25.5284 79.3636 24.9563C85.5426 23.8144 91.8293 23.3614 98.1083 23.6055C101.249 23.7158 104.38 24.0045 107.487 24.4701C110.587 24.9385 113.653 25.6072 116.667 26.4718C116.969 26.5518 117.267 26.6468 117.565 26.7419C117.639 26.7656 117.714 26.7894 117.788 26.8129C117.897 26.8472 118.005 26.8811 118.114 26.915C118.378 26.9976 118.643 27.0802 118.906 27.1678L120.009 27.5599C120.086 27.5877 120.163 27.6144 120.24 27.6411C120.348 27.6785 120.456 27.7159 120.562 27.756L122.195 28.3892L123.27 28.8479C123.618 28.9898 123.955 29.1499 124.293 29.3107L124.33 29.3283C124.444 29.3824 124.559 29.4355 124.673 29.4885C124.911 29.5989 125.148 29.7091 125.381 29.8282C126.763 30.5176 128.102 31.2881 129.393 32.1358C130.664 32.9786 131.861 33.9276 132.972 34.9727C134.066 35.9926 135.026 37.1467 135.829 38.4075C136.611 39.6337 137.159 40.9945 137.444 42.4207C137.717 43.8316 137.687 45.2842 137.358 46.683C137.01 48.1065 136.412 49.4572 135.594 50.6727C134.756 51.926 133.772 53.0751 132.663 54.0958C131.525 55.1295 130.308 56.0716 129.022 56.9131C126.438 58.6187 123.599 59.9695 120.68 61.1007C117.735 62.2066 114.713 63.099 111.64 63.771C108.555 64.4439 105.432 64.9303 102.288 65.2277C95.9855 65.8373 89.6354 65.7611 83.3493 65.0003C83.1355 64.9831 82.9232 65.0488 82.7565 65.1839C82.5899 65.319 82.4816 65.5131 82.4541 65.7258C82.4266 65.9386 82.4821 66.1538 82.609 66.3268C82.7358 66.4998 82.9244 66.6173 83.1356 66.655C89.5418 67.4999 96.0207 67.6472 102.459 67.0941C105.682 66.825 108.886 66.3621 112.054 65.708C115.233 65.0479 118.361 64.1601 121.413 63.0515C124.46 61.9104 127.442 60.5342 130.216 58.7481C131.614 57.8535 132.939 56.8498 134.178 55.7465C135.437 54.6145 136.556 53.3364 137.511 51.9392C138.493 50.5051 139.213 48.9089 139.638 47.2241C140.059 45.5065 140.114 43.7197 139.799 41.9796C139.475 40.2601 138.836 38.6152 137.915 37.1273C137.016 35.6792 135.938 34.3505 134.706 33.1729C133.503 32.0131 132.203 30.9584 130.82 30.0203C129.449 29.0984 128.025 28.2579 126.556 27.503C126.309 27.3733 126.059 27.2533 125.808 27.1336C125.688 27.076 125.568 27.0185 125.448 26.96C125.079 26.7796 124.709 26.6012 124.332 26.4424L123.205 25.9463L122.066 25.4896L121.496 25.2621C121.362 25.2091 121.221 25.1592 121.079 25.1086C121.026 25.09 120.974 25.0713 120.921 25.0524L119.768 24.6348C119.388 24.4936 118.996 24.3662 118.604 24.2426C118.48 24.2037 118.356 24.1635 118.232 24.1234C117.964 24.0363 117.696 23.9492 117.427 23.8741C114.306 22.9421 111.128 22.2125 107.913 21.69C104.704 21.1739 101.469 20.8401 98.222 20.6902C91.7203 20.3677 85.2029 20.7668 78.7891 21.8802C75.5676 22.4463 72.3887 23.2323 69.2746 24.2328Z" fill="#F34109"/>
<path fill-rule="evenodd" clip-rule="evenodd" d="M45.3919 57.1308C46.9545 58.6935 49.0731 59.5727 51.283 59.5758C53.4931 59.5732 55.612 58.6942 57.1747 57.1314C58.7375 55.5686 59.6166 53.4497 59.6192 51.2396H54.0611C54.0611 51.9764 53.7684 52.6831 53.2474 53.204C52.7264 53.725 52.0198 54.0177 51.283 54.0177C50.5462 54.0177 49.8396 53.725 49.3186 53.204C48.7976 52.6831 48.5049 51.9764 48.5049 51.2396V42.9034H49.893C51.2674 42.9038 52.611 42.4966 53.7539 41.7333C54.8968 40.9699 55.7877 39.8848 56.3138 38.6151C56.8399 37.3454 56.9777 35.9483 56.7097 34.6003C56.4416 33.2523 55.7799 32.014 54.808 31.0422C53.8362 30.0704 52.598 29.4086 51.25 29.1405C49.902 28.8725 48.5048 29.0103 47.2351 29.5364C45.9654 30.0626 44.8803 30.9534 44.117 32.0963C43.3536 33.2393 42.9464 34.5829 42.9468 35.9572V37.3453H37.3887V42.9034H42.9468V51.2396C42.9499 53.4496 43.8292 55.5681 45.3919 57.1308ZM49.893 37.3453H48.5049V35.9572C48.5045 35.6822 48.5858 35.4132 48.7384 35.1843C48.891 34.9554 49.108 34.7769 49.3621 34.6715C49.6162 34.566 49.8958 34.5383 50.1656 34.5919C50.4355 34.6455 50.6833 34.7779 50.8778 34.9724C51.0724 35.1669 51.2048 35.4148 51.2583 35.6846C51.3119 35.9544 51.2842 36.2341 51.1788 36.4882C51.0733 36.7422 50.8949 36.9593 50.666 37.1119C50.4371 37.2645 50.1681 37.3457 49.893 37.3453Z" fill="#F34109"/>
<path d="M42.9473 45.6805C42.9478 44.9438 43.2406 44.2375 43.7615 43.7166C44.2824 43.1957 44.9887 42.9029 45.7253 42.9023H42.9473V45.6805Z" fill="#BF0008"/>
<path d="M37.39 42.9038C38.1577 42.9038 38.7801 41.66 38.7801 40.1257C38.7801 38.5914 38.1577 37.3477 37.39 37.3477C36.6223 37.3477 36 38.5914 36 40.1257C36 41.66 36.6223 42.9038 37.39 42.9038Z" fill="white"/>
<path d="M37.3888 41.2349C37.6952 41.2349 37.9437 40.7373 37.9437 40.1233C37.9437 39.5094 37.6952 39.0117 37.3888 39.0117C37.0824 39.0117 36.834 39.5094 36.834 40.1233C36.834 40.7373 37.0824 41.2349 37.3888 41.2349Z" fill="#F34109"/>
<path d="M57.9143 46.1218L57.2811 44.2201C57.0399 43.4966 56.6439 43.4966 56.4028 44.2201L55.7676 46.1218C56.1018 46.2909 56.4712 46.3791 56.8459 46.3791C57.2205 46.3791 57.5899 46.2909 57.9242 46.1218H57.9143Z" fill="#F34109"/>
<path d="M57.9169 46.125C57.5827 46.2942 57.2133 46.3823 56.8386 46.3823C56.464 46.3823 56.0946 46.2942 55.7603 46.125L54.0547 51.242C54.0547 52.0085 55.2996 52.632 56.8347 52.632C58.3698 52.632 59.6128 52.0085 59.6128 51.242L57.9169 46.125Z" fill="white"/>
<path d="M114.882 32.5327C114.792 32.7538 114.746 32.9907 114.748 33.2296L114.75 51.9939C114.765 52.4689 114.965 52.9193 115.306 53.2498C115.648 53.5804 116.104 53.7651 116.58 53.7651C117.055 53.7651 117.512 53.5804 117.853 53.2498C118.195 52.9193 118.394 52.4689 118.41 51.9939V44.6419C118.41 42.1598 119.892 40.6777 122.011 40.6777C124.19 40.6777 125.431 42.0991 125.431 44.5811V51.9939C125.429 52.2348 125.477 52.4734 125.569 52.6958C125.661 52.9183 125.797 53.12 125.969 53.2891C126.14 53.4583 126.344 53.5914 126.568 53.6808C126.791 53.7701 127.031 53.8138 127.272 53.8094C127.511 53.8139 127.749 53.77 127.972 53.6804C128.194 53.5907 128.396 53.4572 128.565 53.2877C128.735 53.1182 128.868 52.9163 128.958 52.694C129.048 52.4717 129.092 52.2336 129.087 51.9939V43.4577C129.087 39.766 127.001 37.3448 123.401 37.3448C120.919 37.3448 119.437 38.6466 118.408 40.1287V33.2296C118.406 32.9892 118.357 32.7514 118.264 32.5299C118.17 32.3084 118.034 32.1075 117.862 31.9389C117.691 31.7702 117.488 31.6371 117.265 31.547C117.042 31.457 116.804 31.4118 116.563 31.4141C116.324 31.4123 116.087 31.458 115.866 31.5486C115.645 31.6392 115.444 31.7729 115.275 31.9418C115.106 32.1108 114.973 32.3116 114.882 32.5327Z" fill="#231815"/>
<path fill-rule="evenodd" clip-rule="evenodd" d="M62.4004 45.7281C62.4004 50.6608 65.9725 54.0192 70.6013 54.0192C73.0853 54.0192 74.8969 53.2036 76.3496 51.9116C76.6525 51.6171 76.8266 51.2146 76.8339 50.7922C76.8394 50.5985 76.8058 50.4057 76.7352 50.2253C76.6645 50.0449 76.5582 49.8806 76.4226 49.7423C76.2869 49.6039 76.1248 49.4943 75.9459 49.42C75.7669 49.3458 75.5748 49.3083 75.3811 49.31C75.0381 49.2983 74.7034 49.4166 74.444 49.6413C73.3933 50.5476 72.0496 51.0421 70.6621 51.0333C68.3016 51.0333 66.4548 49.5825 66.0627 46.9789H76.0771C76.3075 46.9809 76.536 46.9363 76.7488 46.8478C76.9616 46.7593 77.1543 46.6288 77.3154 46.464C77.4765 46.2992 77.6027 46.1036 77.6864 45.8889C77.7701 45.6742 77.8095 45.4448 77.8024 45.2144C77.8024 41.5227 75.2909 37.3468 70.2072 37.3468C65.6392 37.3468 62.4004 41.0993 62.4004 45.6693V45.7281ZM70.1779 40.3425C72.5972 40.3425 73.9891 42.1972 74.2322 44.5498H66.0313C66.3646 42.0678 67.9389 40.3425 70.1779 40.3425Z" fill="#231815"/>
<path fill-rule="evenodd" clip-rule="evenodd" d="M79.7183 48.9933V49.0541C79.7183 52.2635 82.3807 53.9887 85.3843 53.9887C87.8448 53.9887 89.4995 52.9595 90.5895 51.6577V52.2635C90.5895 53.0811 91.3149 53.8064 92.3736 53.8064C92.607 53.8119 92.8391 53.7705 93.0563 53.6847C93.2734 53.5989 93.4711 53.4703 93.6376 53.3067C93.8042 53.1431 93.9362 52.9477 94.0259 52.7322C94.1155 52.5166 94.161 52.2852 94.1596 52.0518V44.1841C94.1596 42.0961 93.6107 40.4022 92.4344 39.2534C91.3169 38.1025 89.5328 37.4673 87.1409 37.4673C85.3823 37.4461 83.6361 37.765 81.9984 38.4064C81.7079 38.5236 81.4582 38.7236 81.2805 38.9815C81.1027 39.2395 81.0046 39.544 80.9986 39.8572C80.9998 40.0581 81.0408 40.2567 81.1192 40.4417C81.1975 40.6267 81.3117 40.7943 81.4551 40.935C81.5985 41.0757 81.7684 41.1866 81.9548 41.2614C82.1412 41.3362 82.3406 41.3733 82.5415 41.3708C82.7369 41.3683 82.9311 41.338 83.1179 41.2806C84.243 40.8459 85.4408 40.6303 86.6469 40.6454C89.2191 40.6454 90.6111 41.855 90.6111 44.1234V44.5155C89.2252 44.0604 87.7741 43.8359 86.3155 43.8508C82.4121 43.8508 79.7183 45.5447 79.7183 48.9933ZM90.6718 46.8152V47.9072C90.6718 49.9344 88.827 51.3264 86.4057 51.3244C84.6608 51.3244 83.2885 50.4461 83.2885 48.9031V48.8423C83.2885 47.1778 84.6883 46.18 87.0409 46.18C88.2798 46.1684 89.5104 46.3837 90.6718 46.8152Z" fill="#231815"/>
<path d="M97.082 45.7595V45.6987C97.082 41.16 100.593 37.3468 105.404 37.3468C107.916 37.3468 109.639 38.1643 111.002 39.3446C111.18 39.5053 111.323 39.7011 111.422 39.9198C111.521 40.1384 111.573 40.3751 111.576 40.615C111.576 40.836 111.532 41.0548 111.446 41.2585C111.361 41.4623 111.235 41.647 111.078 41.8019C110.92 41.9568 110.733 42.0788 110.528 42.1608C110.323 42.2428 110.103 42.2831 109.882 42.2795C109.49 42.2754 109.109 42.1486 108.792 41.9168C107.855 41.1326 106.832 40.5445 105.373 40.5445C102.711 40.5445 100.744 42.8441 100.744 45.6281V45.6889C100.744 48.5336 102.705 50.802 105.524 50.802C106.977 50.802 108.096 50.2275 109.096 49.3806C109.322 49.1777 109.602 49.0459 109.902 49.0017C110.202 48.9575 110.509 49.0027 110.783 49.1319C111.057 49.2611 111.288 49.4684 111.445 49.7278C111.602 49.9872 111.679 50.2872 111.666 50.5902C111.675 50.8086 111.633 51.0259 111.543 51.2254C111.454 51.4249 111.321 51.6013 111.153 51.7411C109.731 53.1017 108.006 54.0094 105.344 54.0094C100.593 54.0192 97.082 50.2981 97.082 45.7595Z" fill="#231815"/>
</svg>
