<svg width="176" height="88" viewBox="0 0 176 88" fill="none" xmlns="http://www.w3.org/2000/svg">
<g clip-path="url(#clip0_7309_59526)">
<path d="M41 10.7656C72.02 10.7656 103.04 10.7656 135 10.7656C135 32.7006 135 54.6355 135 77.2351C103.98 77.2351 72.96 77.2351 41 77.2351C41 55.3002 41 33.3653 41 10.7656Z" fill="#FCC900"/>
<path d="M104.755 37.9571C104.813 37.9574 104.872 37.9577 104.932 37.958C105.387 37.9648 105.799 38.0085 106.238 38.1345C106.275 38.1449 106.312 38.1553 106.35 38.1659C107.3 38.4375 108.118 38.8757 108.862 39.5271C108.906 39.5655 108.95 39.6039 108.995 39.6435C109.601 40.2141 110.024 40.9161 110.362 41.6696C110.384 41.7192 110.407 41.7689 110.43 41.82C111.04 43.2527 110.917 44.9448 110.35 46.3649C109.733 47.8367 108.561 48.9818 107.094 49.5967C106.931 49.661 106.766 49.7206 106.599 49.7774C106.543 49.7966 106.543 49.7966 106.486 49.8162C105.015 50.2901 103.366 50.0788 102.006 49.3824C101.575 49.157 101.198 48.8943 100.828 48.579C100.769 48.5314 100.769 48.5314 100.708 48.483C99.6018 47.563 98.9084 46.0906 98.7485 44.6761C98.6888 43.9633 98.73 43.2742 98.8996 42.5801C98.9139 42.5176 98.9282 42.4552 98.9429 42.3908C99.2034 41.3639 99.7791 40.4952 100.506 39.7414C100.542 39.7028 100.577 39.6642 100.613 39.6244C101.657 38.5115 103.254 37.9489 104.755 37.9571Z" fill="#FEFEFD"/>
<path d="M65.4741 38.2891C65.5311 38.2893 65.5311 38.2893 65.5892 38.2895C65.6293 38.2895 65.6694 38.2894 65.7107 38.2894C65.846 38.2893 65.9813 38.2896 66.1165 38.2899C66.2131 38.2899 66.3097 38.2899 66.4063 38.2899C66.6693 38.2899 66.9323 38.2902 67.1954 38.2905C67.4699 38.2909 67.7445 38.2909 68.0191 38.291C68.5394 38.2911 69.0597 38.2916 69.5801 38.2921C70.1723 38.2927 70.7645 38.293 71.3567 38.2933C72.5753 38.2938 73.7938 38.2948 75.0124 38.296C75.0217 38.6161 75.0285 38.9362 75.033 39.2564C75.0349 39.3652 75.0374 39.474 75.0407 39.5828C75.0453 39.7397 75.0474 39.8965 75.049 40.0535C75.051 40.1016 75.0529 40.1498 75.0549 40.1994C75.0551 40.5336 74.9718 40.6968 74.7373 40.9334C74.7043 40.9645 74.6714 40.9956 74.6375 41.0276C74.5897 41.0774 74.542 41.1272 74.4928 41.1786C74.4235 41.2476 74.4235 41.2476 74.3528 41.318C74.3267 41.344 74.3006 41.3701 74.2737 41.397C74.1878 41.4827 74.1017 41.5683 74.0156 41.6539C73.9533 41.7159 73.8911 41.778 73.8289 41.8401C73.6957 41.973 73.5624 42.1057 73.429 42.2385C73.2182 42.4483 73.0076 42.6584 72.7971 42.8685C72.1987 43.4656 71.5999 44.0624 71.001 44.659C70.6696 44.989 70.3384 45.3193 70.0074 45.6498C69.798 45.8588 69.5884 46.0675 69.3787 46.2761C69.2486 46.4056 69.1187 46.5353 68.9889 46.665C68.9286 46.7252 68.8681 46.7854 68.8076 46.8454C68.7252 46.9272 68.6431 47.0093 68.5611 47.0914C68.515 47.1374 68.469 47.1833 68.4215 47.2305C68.3068 47.3441 68.3068 47.3441 68.2637 47.5085C68.2981 47.5085 68.3326 47.5084 68.3681 47.5084C69.2053 47.5072 70.0425 47.5063 70.8797 47.5057C71.2846 47.5055 71.6895 47.5051 72.0943 47.5045C72.4471 47.5039 72.7998 47.5036 73.1526 47.5035C73.3395 47.5034 73.5264 47.5032 73.7133 47.5028C73.9216 47.5024 74.1299 47.5024 74.3382 47.5024C74.4006 47.5022 74.463 47.502 74.5273 47.5018C74.6119 47.502 74.6119 47.502 74.6982 47.5021C74.7476 47.502 74.7969 47.502 74.8477 47.5019C74.9588 47.5085 74.9588 47.5085 75.0124 47.5621C75.0172 47.7205 75.0186 47.8776 75.0176 48.036C75.0175 48.1072 75.0175 48.1072 75.0174 48.1798C75.0171 48.3321 75.0164 48.4844 75.0158 48.6366C75.0155 48.7396 75.0152 48.8426 75.015 48.9456C75.0144 49.1986 75.0135 49.4515 75.0124 49.7045C73.7353 49.7058 72.4583 49.7067 71.1812 49.7073C70.5883 49.7076 69.9954 49.708 69.4025 49.7086C68.8859 49.7091 68.3693 49.7094 67.8527 49.7096C67.579 49.7096 67.3053 49.7098 67.0316 49.7102C66.7743 49.7105 66.517 49.7107 66.2597 49.7106C66.1649 49.7106 66.0702 49.7107 65.9755 49.7109C65.8467 49.7112 65.718 49.7111 65.5892 49.711C65.5323 49.7112 65.5323 49.7112 65.4741 49.7114C65.2168 49.7106 65.2168 49.7106 65.1571 49.651C65.1388 49.3373 65.1357 49.0235 65.1325 48.7093C65.1311 48.6035 65.1289 48.4977 65.1259 48.3919C65.1216 48.239 65.1199 48.0863 65.1186 47.9334C65.1169 47.8866 65.1151 47.8398 65.1133 47.7915C65.1141 47.5465 65.1397 47.3938 65.3081 47.2108C65.3422 47.1737 65.3764 47.1365 65.4116 47.0983C65.6577 46.8422 65.908 46.5905 66.1597 46.34C66.2226 46.2773 66.2854 46.2145 66.3483 46.1517C66.4828 46.0173 66.6174 45.883 66.7521 45.7488C66.9649 45.5368 67.1775 45.3245 67.39 45.1122C67.8407 44.6622 68.2915 44.2124 68.7424 43.7626C69.2305 43.2757 69.7185 42.7887 70.2063 42.3015C70.4179 42.0902 70.6295 41.8791 70.8413 41.6681C70.9724 41.5373 71.1035 41.4064 71.2345 41.2755C71.2955 41.2146 71.3566 41.1537 71.4177 41.0929C71.5007 41.0103 71.5836 40.9275 71.6664 40.8446C71.7129 40.7982 71.7594 40.7518 71.8074 40.704C71.912 40.6166 71.912 40.6166 71.9059 40.5455C71.8542 40.5452 71.8542 40.5452 71.8014 40.5449C70.9642 40.5393 70.127 40.5335 69.2898 40.5274C68.8849 40.5244 68.4801 40.5215 68.0752 40.5189C67.7225 40.5166 67.3697 40.5141 67.017 40.5114C66.8301 40.51 66.6432 40.5087 66.4563 40.5076C66.248 40.5063 66.0397 40.5047 65.8314 40.503C65.769 40.5027 65.7065 40.5024 65.6422 40.5021C65.5576 40.5013 65.5576 40.5013 65.4713 40.5005C65.422 40.5001 65.3727 40.4998 65.3218 40.4994C65.2107 40.492 65.2107 40.492 65.1571 40.4384C65.1517 40.2846 65.1497 40.132 65.15 39.9781C65.15 39.932 65.1499 39.8858 65.1499 39.8382C65.1498 39.7405 65.1499 39.6427 65.1502 39.5449C65.1504 39.3946 65.1502 39.2444 65.1498 39.0942C65.1498 38.9994 65.1499 38.9046 65.15 38.8098C65.1499 38.7646 65.1498 38.7193 65.1497 38.6727C65.1512 38.2901 65.1512 38.2901 65.4741 38.2891Z" fill="#FEFEFD"/>
<path d="M85.7246 38.2969C88.9592 38.2969 92.1937 38.2969 95.5263 38.2969C95.5263 40.8671 95.5263 40.8671 94.6991 41.7648C94.6358 41.8231 94.5717 41.8806 94.5069 41.9372C94.4339 42.004 94.3609 42.0708 94.288 42.1377C94.2326 42.188 94.2326 42.188 94.1761 42.2392C93.9843 42.4156 93.7995 42.599 93.6137 42.7817C93.2628 43.1248 92.9064 43.4615 92.5474 43.7961C92.0984 44.2153 91.6572 44.6425 91.2158 45.0698C90.7652 45.5054 90.314 45.9402 89.858 46.3702C89.8232 46.403 89.7884 46.4359 89.7526 46.4697C89.5896 46.6235 89.4264 46.7771 89.2627 46.93C89.2057 46.9837 89.1487 47.0374 89.0918 47.0911C89.0425 47.1373 88.9931 47.1834 88.9423 47.231C88.8203 47.3437 88.8203 47.3437 88.7776 47.5094C91.0047 47.5094 93.2318 47.5094 95.5263 47.5094C95.5263 48.2341 95.5263 48.9588 95.5263 49.7054C92.2918 49.7054 89.0572 49.7054 85.7246 49.7054C85.7246 47.3088 85.7246 47.3088 86.2837 46.7294C86.4071 46.6077 86.5341 46.4929 86.666 46.3805C86.9416 46.1402 87.1988 45.8825 87.4572 45.6239C87.5115 45.5698 87.5658 45.5156 87.6202 45.4615C87.7665 45.3157 87.9126 45.1697 88.0586 45.0237C88.15 44.9323 88.2414 44.8411 88.3328 44.7498C88.6518 44.4313 88.9706 44.1127 89.2894 43.7939C89.5864 43.4968 89.8837 43.2001 90.1811 42.9035C90.4369 42.6484 90.6925 42.3931 90.9479 42.1376C91.1003 41.9852 91.2528 41.8329 91.4055 41.6808C91.5488 41.5381 91.6918 41.3951 91.8345 41.2519C91.887 41.1993 91.9396 41.1469 91.9923 41.0945C92.064 41.0232 92.1354 40.9515 92.2068 40.8798C92.2468 40.8398 92.2869 40.7997 92.3282 40.7585C92.431 40.6543 92.431 40.6543 92.4733 40.4929C90.2463 40.4929 88.0192 40.4929 85.7246 40.4929C85.7246 39.7682 85.7246 39.0435 85.7246 38.2969Z" fill="#FEFEFE"/>
<path d="M106.881 40.9193C107.111 41.1002 107.319 41.3006 107.524 41.5085C107.557 41.5416 107.59 41.5748 107.624 41.6089C107.984 41.9979 108.21 42.5116 108.381 43.0082C108.393 43.0434 108.405 43.0786 108.417 43.1149C108.684 44.067 108.42 45.0737 107.963 45.9183C107.801 46.1994 107.596 46.4265 107.363 46.6504C107.327 46.6875 107.292 46.7247 107.255 46.7629C106.616 47.3924 105.651 47.7355 104.765 47.7484C103.734 47.7345 102.835 47.2838 102.096 46.5859C101.629 46.1051 101.294 45.4851 101.15 44.8293C101.141 44.7883 101.132 44.7473 101.122 44.7051C101 44.03 101.033 43.2626 101.31 42.6333C101.333 42.5792 101.356 42.5252 101.379 42.4695C101.809 41.5299 102.594 40.8311 103.557 40.4707C104.625 40.1 105.953 40.2857 106.881 40.9193Z" fill="#FBC901"/>
<path d="M79.2969 42.418C80.0039 42.418 80.7109 42.418 81.4393 42.418C81.4393 44.8218 81.4393 47.2256 81.4393 49.7023C80.7323 49.7023 80.0253 49.7023 79.2969 49.7023C79.2969 47.2985 79.2969 44.8946 79.2969 42.418Z" fill="#FEFEFE"/>
<path d="M81.2038 38.1967C81.4732 38.4087 81.6526 38.6659 81.758 38.9919C81.8029 39.4092 81.8176 39.8143 81.5766 40.174C81.2753 40.5345 80.9647 40.7686 80.4941 40.8316C80.0385 40.8566 79.7064 40.7079 79.3578 40.4213C79.3191 40.3738 79.2805 40.3263 79.2406 40.2774C79.2158 40.2509 79.1909 40.2245 79.1653 40.1973C78.8982 39.8641 78.9206 39.4487 78.9575 39.0422C79.0111 38.6793 79.236 38.4179 79.5195 38.2002C80.0405 37.8461 80.6722 37.8655 81.2038 38.1967Z" fill="#FEFEFC"/>
</g>
<defs>
<clipPath id="clip0_7309_59526">
<rect width="94" height="66.4695" fill="white" transform="translate(41 10.7656)"/>
</clipPath>
</defs>
</svg>
