<svg width="176" height="88" viewBox="0 0 176 88" fill="none" xmlns="http://www.w3.org/2000/svg">
<g clip-path="url(#clip0_7300_60644)">
<path d="M39.6093 47.6133C37.6159 47.6133 35.9999 45.9974 35.9999 44.0039C35.9999 42.0105 37.6159 40.3945 39.6093 40.3945C41.6028 40.3945 43.2188 42.0105 43.2188 44.0039C43.2188 45.9974 41.6028 47.6133 39.6093 47.6133Z" fill="#7BA23F"/>
<path fill-rule="evenodd" clip-rule="evenodd" d="M62.9797 40.3945C64.9731 40.3945 66.5891 42.0105 66.5891 44.0039C66.5891 45.9974 64.9731 47.6134 62.9797 47.6134H47.6855V47.5112C49.2657 47.1268 50.4387 45.7024 50.4387 44.004C50.4387 42.3056 49.2657 40.8812 47.6855 40.4968V40.3945H62.9797Z" fill="#1C1C1C"/>
<path d="M62.9785 35.9258C64.972 35.9258 66.588 34.3099 66.588 32.3164C66.588 30.323 64.972 28.707 62.9785 28.707C60.9851 28.707 59.3691 30.323 59.3691 32.3164C59.3691 34.3099 60.9851 35.9258 62.9785 35.9258Z" fill="#F05E1C"/>
<path fill-rule="evenodd" clip-rule="evenodd" d="M41.1388 28.707C38.3007 28.707 36 31.0078 36 33.8458V35.9258H54.9035V35.8236C53.3235 35.4391 52.1506 34.0148 52.1506 32.3164C52.1506 30.6181 53.3235 29.1938 54.9035 28.8093V28.707H41.1388Z" fill="#1C1C1C"/>
<path d="M62.9785 59.293C64.972 59.293 66.588 57.677 66.588 55.6836C66.588 53.6902 64.972 52.0742 62.9785 52.0742C60.9851 52.0742 59.3691 53.6902 59.3691 55.6836C59.3691 57.677 60.9851 59.293 62.9785 59.293Z" fill="#005B98"/>
<path fill-rule="evenodd" clip-rule="evenodd" d="M54.9035 52.0742H36V54.1542C36 56.9923 38.3007 59.293 41.1388 59.293H54.9035V59.1909C53.3235 58.8064 52.1506 57.382 52.1506 55.6837C52.1506 53.9854 53.3235 52.561 54.9035 52.1765V52.0742Z" fill="#1C1C1C"/>
<path d="M77.4101 41.7856C78.1961 39.1413 80.5185 37.426 83.2338 37.426C85.9849 37.426 88.2358 39.177 89.0576 41.7141L89.0933 41.7856H77.4101ZM92.559 45.1804C93.1663 41.6784 91.773 39.3199 91.3799 38.6767C89.665 35.7822 86.628 34.0312 83.2338 34.0312C78.7678 34.0312 74.9449 37.1401 74.0159 41.4997C73.3728 44.4657 74.2302 47.7175 76.3382 49.8973C78.0889 51.827 80.6614 52.9347 83.2696 52.9347C86.3065 52.9347 88.9631 51.5736 90.8595 49.0959C91.4099 48.3769 91.7619 47.6124 91.7619 47.6124H87.7242C86.5452 48.9346 85.0202 49.54 83.2696 49.54C80.5542 49.54 78.1604 47.7532 77.4101 45.1804H92.559Z" fill="#1C1C1C"/>
<path d="M100.779 41.7856C101.565 39.1413 103.888 37.426 106.603 37.426C109.354 37.426 111.605 39.177 112.427 41.7141L112.462 41.7856H100.779ZM115.928 45.1804C116.536 41.6784 115.142 39.3199 114.749 38.6767C113.034 35.7822 109.997 34.0312 106.603 34.0312C102.137 34.0312 98.3139 37.1401 97.385 41.4997C96.7419 44.4657 97.5994 47.7175 99.7074 49.8973C101.458 51.827 104.03 52.9347 106.639 52.9347C109.676 52.9347 112.332 51.5736 114.229 49.0959C114.779 48.3769 115.131 47.6124 115.131 47.6124H111.093C109.914 48.9346 108.389 49.54 106.639 49.54C103.923 49.54 101.53 47.7532 100.779 45.1804H115.928Z" fill="#1C1C1C"/>
<path d="M124.149 41.7856C124.935 39.1413 127.257 37.426 129.972 37.426C132.723 37.426 134.975 39.177 135.796 41.7141L135.832 41.7856H124.149ZM139.297 45.1804C139.905 41.6784 138.511 39.3199 138.118 38.6767C136.403 35.7822 133.366 34.0312 129.972 34.0312C125.506 34.0312 121.683 37.1401 120.754 41.4997C120.111 44.4657 120.969 47.7175 123.077 49.8973C124.827 51.827 127.399 52.9347 130.008 52.9347C133.045 52.9347 135.702 51.5736 137.598 49.0959C138.148 48.3769 138.501 47.6124 138.501 47.6124H134.463C133.284 48.9346 131.759 49.54 130.008 49.54C127.292 49.54 124.899 47.7532 124.149 45.1804H139.297Z" fill="#1C1C1C"/>
</g>
<defs>
<clipPath id="clip0_7300_60644">
<rect width="104" height="30.5882" fill="white" transform="translate(36 28.707)"/>
</clipPath>
</defs>
</svg>
