<svg width="176" height="88" viewBox="0 0 176 88" fill="none" xmlns="http://www.w3.org/2000/svg">
<g clip-path="url(#clip0_7300_60665)">
<path d="M57.6719 53.3159V34.6445H62.3151V48.6399H76.3432V53.3159H57.6719Z" fill="#04C500"/>
<path d="M66.9906 30.0042H57.6713C49.9328 30.0042 43.6761 36.2609 43.6761 43.9995C43.6761 51.738 49.9328 57.9948 57.6713 57.9948H137V62.6708H57.6713C47.3643 62.6708 39 54.3066 39 43.9995C39 33.6924 47.3643 25.3281 57.6713 25.3281H66.9906V30.0042Z" fill="black"/>
<path d="M132.326 53.3159V34.6445H127.683V47.6848L114.643 34.6445H109.012V53.3159H113.655V40.2756L126.695 53.3159H132.326Z" fill="black"/>
<path d="M95.28 34.6445H90.0771L80.7578 53.3159H85.9608L87.1133 50.9778H98.2437L99.3963 53.3159H104.599L95.28 34.6445ZM89.4514 46.3348L92.6785 39.8805L95.9057 46.3348H89.4514Z" fill="black"/>
</g>
<defs>
<clipPath id="clip0_7300_60665">
<rect width="98" height="37.8636" fill="white" transform="translate(39 25.0664)"/>
</clipPath>
</defs>
</svg>
