<svg width="176" height="88" viewBox="0 0 176 88" fill="none" xmlns="http://www.w3.org/2000/svg">
<g clip-path="url(#clip0_7450_59896)">
<path d="M46.723 32.2926C46.723 34.0891 45.015 35.5432 42.9069 35.5432C40.7988 35.5432 39.0908 34.0872 39.0908 32.2926C39.0908 30.498 40.7988 29.042 42.9069 29.042C45.015 29.042 46.723 30.498 46.723 32.2926ZM82.9664 29.042C80.8583 29.042 79.1503 30.498 79.1503 32.2926C79.1503 34.0872 80.8583 35.5432 82.9664 35.5432C85.0745 35.5432 86.7825 34.0872 86.7825 32.2926C86.7825 30.498 85.0745 29.042 82.9664 29.042ZM65.74 40.121C63.1607 40.121 61.3758 41.2135 59.8716 43.2562V40.121H53.9051V58.9515H59.8716V50.9115C59.8716 45.1412 66.0035 45.6874 66.0035 49.719V58.9515H71.9701V47.1223C71.9701 42.5368 69.3446 40.1191 65.74 40.1191V40.121ZM116.827 34.8835C111.751 42.9331 112.081 51.4135 116.827 58.9515H122.793C118.456 51.3404 118.204 42.9273 122.793 34.8835H116.827ZM135.317 34.8835H129.35C133.939 42.9254 133.687 51.3404 129.35 58.9515H135.317C140.062 51.4135 140.393 42.935 135.317 34.8835ZM45.8901 52.533V40.121H37V43.11C38.6138 43.11 39.9236 44.4199 39.9236 46.0337V52.533C39.9236 54.1467 38.6138 55.4566 37 55.4566V58.9515H48.8138V55.4566C47.2 55.4566 45.8901 54.1467 45.8901 52.533ZM85.9496 52.533V40.121H77.0595V43.11C78.6732 43.11 79.9831 44.4199 79.9831 46.0337V52.533C79.9831 54.1467 78.6732 55.4566 77.0595 55.4566V58.9515H88.8732V55.4566C87.2595 55.4566 85.9496 54.1467 85.9496 52.533ZM102.501 44.3487H106.79V40.8173H102.501C101.083 40.8173 99.933 39.6671 99.933 38.2495V34.8854H93.9665V58.9534H106.792V55.4585H102.762C101.201 55.4585 99.933 54.191 99.933 52.6291V46.9204C99.933 45.5028 101.083 44.3526 102.501 44.3526V44.3487Z" fill="url(#paint0_linear_7450_59896)"/>
</g>
<defs>
<linearGradient id="paint0_linear_7450_59896" x1="44.1956" y1="22.6908" x2="128.256" y2="71.223" gradientUnits="userSpaceOnUse">
<stop offset="0.14" stop-color="#0974D2"/>
<stop offset="0.75" stop-color="#3FD2B8"/>
<stop offset="1" stop-color="#DEFFE8"/>
</linearGradient>
<clipPath id="clip0_7450_59896">
<rect width="102" height="29.9095" fill="white" transform="translate(37 29.0449)"/>
</clipPath>
</defs>
</svg>
