<svg width="320" height="86" viewBox="0 0 320 86" fill="none" xmlns="http://www.w3.org/2000/svg">
<path fill-rule="evenodd" clip-rule="evenodd" d="M42.1115 0.171134C43.0308 -0.145589 43.7752 0.0108616 44.4926 0.366647C44.8241 0.531027 45.1368 0.74324 45.4573 1.00344C46.4841 1.83706 47.7569 3.32344 49.006 5.16097C52.1707 9.81653 54.6681 15.7905 55.713 22.3235L55.7603 22.6274L55.9191 22.9719C59.7518 31.3217 62.6057 38.9545 64.2322 45.7759L64.3344 46.2102C66.3756 55.0108 66.2662 62.1178 63.4095 67.2659C60.9166 71.7583 56.355 73.7693 50.0292 73.949L49.6775 73.9575C45.6349 74.0378 41.6301 73.5165 34.2211 72.139L32.5871 71.8321C25.2139 78.4671 17.5731 83.4497 11.7853 85.2518C3.83066 87.7286 -1.19662 83.9717 0.246575 75.2305C1.34458 68.5802 5.64158 65.0526 12.3773 64.2571L12.5886 64.2331C17.1721 63.7342 21.7253 64.257 30.9096 65.9758C39.1207 58.1841 45.6142 49.4318 48.4249 41.9883L48.5311 41.7026L48.7809 40.9963C50.6889 35.3837 51.2005 29.821 50.522 24.422L50.4914 24.1884L50.0049 23.1505C48.2975 19.5315 46.5328 16.0352 44.4418 12.0558L41.8354 7.12885L41.4533 6.39639C40.9903 5.50195 40.7077 4.92241 40.5304 4.4925L40.5046 4.42912C40.3162 3.96058 40.1998 3.5215 40.184 3.03142C40.146 1.85206 40.7285 0.647597 42.1115 0.171134ZM25.7134 70.5718L24.9003 70.436C19.4727 69.5434 16.2062 69.3134 13.1761 69.6432L12.7992 69.688C8.46383 70.2473 6.27096 72.1135 5.60981 76.118C5.19537 78.6282 5.48544 79.8941 6.01693 80.2913C6.5748 80.7082 7.99091 80.7341 10.1708 80.0553C14.1915 78.8034 19.6188 75.5111 25.2046 70.9873L25.7134 70.5718ZM55.5363 36.6041L55.5964 36.2705L55.7251 36.6157L55.8646 36.9948C60.4347 49.4772 61.696 59.147 58.6572 64.6233C57.254 67.1521 54.4718 68.3786 49.8749 68.5092L49.7178 68.5133L49.5401 68.5171C46.5762 68.572 43.4698 68.2394 38.4569 67.3725L37.427 67.1915L37.8074 66.8019C45.1812 59.1958 50.9315 50.9512 53.6451 43.5473L53.9163 42.7803L54.0884 42.2642C54.7069 40.372 55.1876 38.4842 55.5363 36.6041Z" fill="#FF5268"/>
<path fill-rule="evenodd" clip-rule="evenodd" d="M94.883 73.0104V56.913H101.216C103.989 56.913 106.348 56.478 108.293 55.6078C110.238 54.7377 111.811 53.6086 113.011 52.2206C114.212 50.8325 115.081 49.258 115.619 47.497C116.157 45.736 116.426 43.9647 116.426 42.183C116.426 39.9041 116.033 37.8842 115.247 36.1232C114.46 34.3622 113.353 32.8706 111.925 31.6482C110.497 30.4259 108.8 29.504 106.834 28.8825C104.868 28.261 102.706 27.9502 100.346 27.9502H88.0537V73.0104H94.883ZM101.029 50.5133H94.8822V34.2916H101.091C102.705 34.2916 104.06 34.5609 105.157 35.0996C106.254 35.6382 107.133 36.3115 107.796 37.1195C108.458 37.9275 108.924 38.7976 109.193 39.7299C109.462 40.6622 109.596 41.5219 109.596 42.3092C109.596 43.055 109.462 43.9044 109.193 44.8574C108.924 45.8104 108.468 46.7013 107.827 47.53C107.185 48.3587 106.306 49.0631 105.188 49.6431C104.071 50.2232 102.684 50.5133 101.029 50.5133ZM136.168 72.6392C134.388 73.3021 132.567 73.6336 130.705 73.6336C128.801 73.6336 127.011 73.271 125.334 72.5459C123.658 71.8208 122.199 70.8471 120.957 69.6248C119.716 68.4025 118.733 66.9626 118.008 65.3052C117.284 63.6478 116.922 61.8869 116.922 60.0223C116.922 58.1577 117.284 56.3968 118.008 54.7394C118.733 53.082 119.716 51.6318 120.957 50.3887C122.199 49.1457 123.637 48.1616 125.272 47.4365C126.907 46.7114 128.656 46.3489 130.518 46.3489C133.457 46.3489 136.013 47.2293 138.186 48.9903C140.359 50.7513 141.921 53.0613 142.873 55.9203C141.59 56.376 140.121 56.9354 138.465 57.5984C136.81 58.2613 135.092 58.9554 133.312 59.6805C131.532 60.4056 129.753 61.1203 127.973 61.8247C126.193 62.5291 124.538 63.1713 123.006 63.7514C123.71 65.1602 124.734 66.2893 126.079 67.1387C127.425 67.9881 128.925 68.4128 130.58 68.4128C131.698 68.4128 132.826 68.2057 133.964 67.7913C135.102 67.377 136.023 66.8176 136.727 66.1132L140.7 69.9666C139.459 71.0854 137.948 71.9762 136.168 72.6392ZM122.262 60.3899C122.262 60.3484 122.252 60.2863 122.231 60.2034C122.21 60.1205 122.2 59.9755 122.2 59.7684C122.2 58.7325 122.417 57.7173 122.852 56.7229C123.287 55.7285 123.876 54.848 124.621 54.0814C125.366 53.3149 126.246 52.7037 127.26 52.248C128.274 51.7922 129.381 51.5643 130.581 51.5643C131.699 51.5643 132.796 51.8233 133.872 52.3412C134.948 52.8591 135.734 53.636 136.231 54.6719C135.32 55.0448 134.286 55.4695 133.127 55.946C131.968 56.4225 130.768 56.9197 129.526 57.4377C128.284 57.9556 127.032 58.4735 125.77 58.9915C124.508 59.5094 123.338 59.9755 122.262 60.3899ZM152.745 60.1466V73.0121H147.468V47.0325H152.124C152.207 48.317 152.279 49.4875 152.341 50.5441C152.403 51.6007 152.476 52.6469 152.558 53.6828C153.51 51.4453 154.866 49.6636 156.625 48.3377C158.384 47.0118 160.547 46.3489 163.113 46.3489C165.72 46.3489 167.81 47.074 169.383 48.5242C170.956 49.9744 171.784 51.839 171.867 54.1179V73.0121H166.527V56.5418C166.445 55.2159 165.989 54.0868 165.162 53.1545C164.334 52.2222 163.03 51.7146 161.25 51.6318C160.009 51.6318 158.87 51.8493 157.836 52.2844C156.801 52.7194 155.911 53.3099 155.166 54.0557C154.421 54.8015 153.831 55.6924 153.397 56.7282C152.962 57.7641 152.745 58.9036 152.745 60.1466ZM186.582 73.0129V51.8191H193.535V47.0955H186.582V35.5974H181.305V47.0955H176.648V51.8191H181.305V73.0129H186.582ZM212.656 73.1985C211.663 73.4886 210.525 73.6336 209.242 73.6336C207.255 73.6336 205.424 73.271 203.747 72.5459C202.071 71.8208 200.633 70.8471 199.433 69.6248C198.232 68.4025 197.291 66.9833 196.608 65.3674C195.925 63.7514 195.583 62.0526 195.583 60.2709C195.583 58.3649 195.946 56.5729 196.67 54.8948C197.394 53.2167 198.377 51.7457 199.619 50.482C200.861 49.2182 202.299 48.2134 203.934 47.4676C205.569 46.7218 207.317 46.3489 209.18 46.3489C210.421 46.3489 211.56 46.5042 212.594 46.815C213.629 47.1258 214.519 47.509 215.264 47.9648C216.009 48.4206 216.609 48.8971 217.064 49.3943C217.52 49.8915 217.83 50.3266 217.996 50.6995L218.244 47.0325H223.335V73.0121H217.996V69.718C217.789 70.0495 217.458 70.4431 217.002 70.8989C216.547 71.3547 215.957 71.7794 215.233 72.173C214.509 72.5667 213.65 72.9085 212.656 73.1985ZM209.427 68.4075C208.186 68.4075 207.048 68.1899 206.013 67.7549C204.978 67.3198 204.088 66.7294 203.343 65.9836C202.598 65.2377 202.008 64.3469 201.574 63.311C201.139 62.2752 200.922 61.1564 200.922 59.9548C200.922 58.7532 201.139 57.6448 201.574 56.6297C202.008 55.6145 202.598 54.734 203.343 53.9882C204.088 53.2424 204.978 52.6519 206.013 52.2169C207.048 51.7818 208.186 51.5643 209.427 51.5643C210.669 51.5643 211.818 51.7818 212.873 52.2169C213.929 52.6519 214.839 53.2424 215.605 53.9882C216.371 54.734 216.96 55.6145 217.374 56.6297C217.788 57.6448 217.995 58.7532 217.995 59.9548C217.995 61.1564 217.788 62.2648 217.374 63.2799C216.96 64.2951 216.371 65.1859 215.605 65.9525C214.839 66.719 213.929 67.3198 212.873 67.7549C211.818 68.1899 210.669 68.4075 209.427 68.4075ZM253.011 81.8998C250.486 84.303 247.071 85.5046 242.767 85.5046C241.277 85.5046 239.942 85.3493 238.762 85.0385C237.583 84.7277 236.507 84.3237 235.534 83.8265C234.561 83.3293 233.672 82.7492 232.864 82.0863C232.057 81.4233 231.261 80.7396 230.474 80.0353L233.889 76.4304C235.172 77.632 236.486 78.585 237.831 79.2894C239.176 79.9938 240.78 80.346 242.643 80.346C245.416 80.346 247.568 79.6831 249.099 78.3572C250.631 77.0312 251.417 75.1874 251.459 72.8256V71.0232C251.459 70.6917 251.5 70.3292 251.583 69.9356C251.666 69.5419 251.707 69.2415 251.707 69.0343C251.334 69.5316 250.869 70.0599 250.31 70.6192C249.751 71.1786 249.099 71.6758 248.354 72.1109C247.609 72.5459 246.74 72.9085 245.747 73.1985C244.754 73.4886 243.636 73.6336 242.394 73.6336C240.449 73.6336 238.669 73.2814 237.055 72.577C235.441 71.8726 234.034 70.9093 232.833 69.6869C231.633 68.4646 230.702 67.0351 230.04 65.3985C229.377 63.7618 229.046 61.9905 229.046 60.0845C229.046 58.137 229.398 56.3243 230.102 54.6462C230.805 52.968 231.757 51.5178 232.958 50.2955C234.158 49.0732 235.565 48.1098 237.179 47.4054C238.793 46.701 240.511 46.3489 242.332 46.3489C243.74 46.3489 244.992 46.5353 246.088 46.9082C247.185 47.2811 248.106 47.7162 248.851 48.2134C249.596 48.7106 250.186 49.1975 250.62 49.674C251.055 50.1505 251.334 50.4923 251.459 50.6995C251.459 50.1194 251.5 49.5082 251.583 48.866C251.666 48.2238 251.707 47.6126 251.707 47.0325H256.798V71.8312C256.798 76.1404 255.535 79.4966 253.011 81.8998ZM242.89 68.4075C241.649 68.4075 240.511 68.1899 239.476 67.7549C238.441 67.3198 237.551 66.7294 236.806 65.9836C236.061 65.2377 235.471 64.3469 235.037 63.311C234.602 62.2752 234.385 61.1564 234.385 59.9548C234.385 58.7532 234.602 57.6448 235.037 56.6297C235.471 55.6145 236.061 54.734 236.806 53.9882C237.551 53.2424 238.441 52.6519 239.476 52.2169C240.511 51.7818 241.649 51.5643 242.89 51.5643C244.132 51.5643 245.281 51.7818 246.336 52.2169C247.391 52.6519 248.302 53.2424 249.068 53.9882C249.833 54.734 250.423 55.6145 250.837 56.6297C251.251 57.6448 251.458 58.7532 251.458 59.9548C251.458 61.1564 251.251 62.2648 250.837 63.2799C250.423 64.2951 249.833 65.1859 249.068 65.9525C248.302 66.719 247.391 67.3198 246.336 67.7549C245.281 68.1899 244.132 68.4075 242.89 68.4075ZM281.726 72.5459C280.049 73.271 278.218 73.6336 276.231 73.6336C274.327 73.6336 272.537 73.3021 270.861 72.6392C269.185 71.9762 267.726 71.0439 266.484 69.8423C265.242 68.6407 264.259 67.2009 263.535 65.5228C262.811 63.8447 262.449 61.9905 262.449 59.9602C262.449 58.0956 262.811 56.3346 263.535 54.6772C264.259 53.0198 265.242 51.58 266.484 50.3577C267.726 49.1353 269.185 48.1616 270.861 47.4365C272.537 46.7114 274.348 46.3489 276.293 46.3489C278.239 46.3489 280.049 46.7114 281.726 47.4365C283.402 48.1616 284.851 49.1353 286.072 50.3577C287.293 51.58 288.245 53.0198 288.928 54.6772C289.61 56.3346 289.952 58.0956 289.952 59.9602C289.952 61.8247 289.61 63.5857 288.928 65.2431C288.245 66.9005 287.293 68.3507 286.072 69.5937C284.851 70.8368 283.402 71.8208 281.726 72.5459ZM276.106 68.4075C274.947 68.4075 273.861 68.1899 272.847 67.7549C271.833 67.3198 270.943 66.719 270.177 65.9525C269.411 65.1859 268.811 64.2951 268.377 63.2799C267.942 62.2648 267.725 61.1771 267.725 60.017C267.725 58.8568 267.942 57.7588 268.377 56.7229C268.811 55.687 269.411 54.7858 270.177 54.0193C270.943 53.2527 271.833 52.6519 272.847 52.2169C273.861 51.7818 274.947 51.5643 276.106 51.5643C277.265 51.5643 278.362 51.7818 279.397 52.2169C280.431 52.6519 281.332 53.2527 282.097 54.0193C282.863 54.7858 283.473 55.687 283.929 56.7229C284.384 57.7588 284.612 58.8568 284.612 60.017C284.612 61.1771 284.384 62.2648 283.929 63.2799C283.473 64.2951 282.863 65.1859 282.097 65.9525C281.332 66.719 280.431 67.3198 279.397 67.7549C278.362 68.1899 277.265 68.4075 276.106 68.4075ZM300.878 60.1466V73.0121H295.601V47.0325H300.257C300.34 48.317 300.413 49.4875 300.475 50.5441C300.537 51.6007 300.609 52.6469 300.692 53.6828C301.644 51.4453 302.999 49.6636 304.758 48.3377C306.518 47.0118 308.68 46.3489 311.246 46.3489C313.854 46.3489 315.944 47.074 317.517 48.5242C319.09 49.9744 319.917 51.839 320 54.1179V73.0121H314.661V56.5418C314.578 55.2159 314.123 54.0868 313.295 53.1545C312.467 52.2222 311.163 51.7146 309.384 51.6318C308.142 51.6318 307.004 51.8493 305.969 52.2844C304.934 52.7194 304.045 53.3099 303.3 54.0557C302.555 54.8015 301.965 55.6924 301.53 56.7282C301.096 57.7641 300.878 58.9036 300.878 60.1466Z" fill="#300045"/>
<path d="M107.207 3.75841C107.017 3.96851 106.732 4.31868 106.566 4.57546C105.616 6.16287 103.362 9.17427 100.656 11.0185L99.066 9.78122C101.273 8.54397 103.504 6.0228 104.264 4.57546C102.602 4.57546 91.8748 4.57546 90.7356 4.57546C89.8574 4.57546 88.9793 4.62215 88.0537 4.69218V2.5912C88.8844 2.70793 89.8574 2.8013 90.7356 2.8013C91.8748 2.8013 102.958 2.8013 104.382 2.8013C104.833 2.8013 105.688 2.73127 106.02 2.63789L107.207 3.75841ZM97.7132 6.8165C97.7132 13.1428 97.1436 17.4148 91.0916 20.4028L89.359 19.0022C89.9998 18.7921 90.8305 18.3952 91.495 17.9517C95.15 15.734 95.6721 12.4191 95.6721 8.52063C95.6721 7.96037 95.6721 7.4468 95.5772 6.8165H97.7132Z" fill="#300045"/>
<path d="M127.949 2.75461C127.949 3.61835 128.638 4.29533 129.516 4.29533C130.37 4.29533 131.082 3.61835 131.082 2.75461C131.082 1.91422 130.37 1.2139 129.516 1.2139C128.638 1.2139 127.949 1.91422 127.949 2.75461ZM126.858 2.75461C126.858 1.30727 128.044 0.140065 129.516 0.140065C130.987 0.140065 132.174 1.30727 132.174 2.75461C132.174 4.20195 130.987 5.36916 129.516 5.36916C128.044 5.36916 126.858 4.20195 126.858 2.75461ZM128.923 4.31868C128.756 4.64549 128.661 5.04235 128.567 5.48588C128.044 7.93702 126.905 11.7188 125.007 14.0999C122.847 16.8545 120.023 19.0022 115.679 20.3561L114.065 18.6053C118.67 17.4615 121.328 15.4772 123.321 12.9794C125.007 10.8784 126.098 7.61021 126.431 5.36916C125.054 5.36916 115.656 5.36916 114.279 5.36916C113.33 5.36916 112.523 5.41585 111.929 5.46254V3.38491C112.57 3.45494 113.52 3.54832 114.303 3.54832C115.656 3.54832 125.125 3.54832 126.193 3.54832C126.573 3.54832 127.024 3.52497 127.475 3.40825L128.923 4.31868Z" fill="#300045"/>
<path d="M150.971 1.82085C150.923 2.38111 150.9 3.05809 150.9 3.85179C150.9 4.76221 150.9 6.74647 150.9 7.61021C150.9 13.2362 150.14 15.0803 148.408 17.0646C146.889 18.8855 144.515 19.9126 142.783 20.4962L141.216 18.8855C143.4 18.3252 145.417 17.4148 146.889 15.7573C148.574 13.8431 148.882 11.9289 148.882 7.54017C148.882 6.62975 148.882 4.66884 148.882 3.85179C148.882 3.05809 148.811 2.38111 148.74 1.82085H150.971ZM139.959 2.0076C139.911 2.45114 139.887 3.12812 139.887 3.66504C139.887 4.36536 139.887 10.4815 139.887 11.462C139.887 12.0689 139.911 12.8393 139.959 13.2595H137.799C137.846 12.886 137.894 12.139 137.894 11.462C137.894 10.4582 137.894 4.36536 137.894 3.66504C137.894 3.26819 137.87 2.45114 137.799 2.0076H139.959Z" fill="#300045"/>
<path d="M162.268 10.2481H174.04V11.6954H162.268V10.2481ZM161.817 14.24H174.538V15.734H161.817V14.24ZM169.72 10.715H171.334V20.9631H169.72V10.715ZM164.855 10.785H166.397V15.0337C166.397 16.4577 165.828 19.5157 163.146 21.2899C162.909 20.9631 162.363 20.4729 161.959 20.2394C164.356 18.7921 164.855 16.3176 164.855 15.0337V10.785ZM159.325 4.15527H165.994V5.41585H159.325V4.15527ZM170.266 4.15527H176.983V5.41585H170.266V4.15527ZM176.294 0.910423H178.051V19.1189C178.051 20.1694 177.813 20.7296 177.101 21.0331C176.389 21.3366 175.203 21.3599 173.399 21.3599C173.328 20.8931 173.09 20.076 172.829 19.5858C174.135 19.6325 175.416 19.6325 175.796 19.6091C176.176 19.6091 176.294 19.4691 176.294 19.1189V0.910423ZM159.467 0.910423H167.086V8.77742H159.467V7.4468H165.401V2.26439H159.467V0.910423ZM177.149 0.910423V2.26439H170.883V7.47014H177.149V8.80076H169.174V0.910423H177.149ZM158.399 0.910423H160.156V21.4066H158.399V0.910423Z" fill="#300045"/>
<path d="M185.384 8.21715H198.438V9.87459H185.384V8.21715ZM183.011 0.910423H190.083V2.47448H183.011V0.910423ZM182.394 13.3762H201.333V14.987H182.394V13.3762ZM189.466 0.910423H189.799L190.131 0.840391L191.318 1.40065C189.585 6.0228 185.693 9.33768 181.824 11.0418C181.587 10.6449 181.065 10.038 180.709 9.71118C184.269 8.28719 188.019 5.06569 189.466 1.26059V0.910423ZM187.924 9.01086H189.68V13.0027C189.68 16.2476 188.92 19.4924 183.058 21.5C182.821 21.1031 182.275 20.4495 181.895 20.1227C187.283 18.3485 187.924 15.6173 187.924 12.9794V9.01086ZM193.786 0C195.447 4.2253 198.865 7.91368 203.089 9.52443C202.686 9.89794 202.14 10.5749 201.855 11.0185C197.536 9.12758 194.094 5.18241 192.219 0.443539L193.786 0ZM182.679 4.2253L183.818 3.26819C184.933 4.03854 186.334 5.15907 187.022 5.88274L185.835 6.93322C185.171 6.20955 183.794 5.04235 182.679 4.2253ZM198.2 0.163409L199.577 1.09718C198.366 2.28773 196.776 3.595 195.566 4.41205L194.474 3.57166C195.661 2.70793 197.298 1.23724 198.2 0.163409ZM201.024 2.84799L202.354 3.78176C201.048 4.99566 199.339 6.32628 198.01 7.21336L196.919 6.37296C198.224 5.48588 200.004 3.94517 201.024 2.84799ZM193.833 9.05755H195.661V18.7454C195.661 19.4924 195.803 19.6325 196.634 19.6325C196.99 19.6325 198.865 19.6325 199.339 19.6325C200.099 19.6325 200.218 19.1656 200.312 16.6678C200.716 16.9712 201.428 17.2747 201.926 17.3681C201.76 20.3795 201.262 21.2199 199.506 21.2199C199.055 21.2199 196.8 21.2199 196.373 21.2199C194.355 21.2199 193.833 20.683 193.833 18.7454V9.05755Z" fill="#300045"/>
<path d="M222.337 3.24484C222.337 4.10858 223.049 4.78556 223.903 4.78556C224.758 4.78556 225.47 4.10858 225.47 3.24484C225.47 2.40445 224.758 1.70413 223.903 1.70413C223.049 1.70413 222.337 2.40445 222.337 3.24484ZM221.245 3.24484C221.245 1.7975 222.432 0.630293 223.903 0.630293C225.375 0.630293 226.562 1.7975 226.562 3.24484C226.562 4.69218 225.375 5.85939 223.903 5.85939C222.432 5.85939 221.245 4.69218 221.245 3.24484ZM208.928 12.5125C209.972 10.0847 210.945 6.53637 211.277 3.85179L213.39 4.27199C213.223 4.78556 213.057 5.48588 212.939 5.97611C212.63 7.42345 211.799 10.8784 210.803 13.2828C209.924 15.4072 208.619 17.8116 207.29 19.7025L205.273 18.8621C206.768 16.9012 208.121 14.4501 208.928 12.5125ZM220.628 11.6254C219.679 9.22096 218.207 5.97611 217.187 4.2253L219.109 3.595C220.035 5.29913 221.554 8.52063 222.574 10.9718C223.524 13.2828 224.782 16.8545 225.422 18.9788L223.31 19.6325C222.717 17.2747 221.601 14.0999 220.628 11.6254Z" fill="#300045"/>
<path d="M229.908 9.40771C230.644 9.47774 231.878 9.54777 233.231 9.54777C234.963 9.54777 244.48 9.54777 246.236 9.54777C247.423 9.54777 248.254 9.4544 248.8 9.40771V11.6954C248.301 11.6721 247.304 11.6021 246.26 11.6021C244.456 11.6021 234.987 11.6021 233.231 11.6021C231.925 11.6021 230.667 11.6488 229.908 11.6954V9.40771Z" fill="#300045"/>
<path d="M259.219 17.4615C259.219 16.1542 259.219 5.83605 259.219 3.89848C259.219 3.2215 259.171 2.19435 259.052 1.44734H261.378C261.283 2.17101 261.212 3.17481 261.212 3.89848C261.212 7.51683 261.236 16.3643 261.236 17.4615C261.236 18.2085 261.283 19.4691 261.378 20.2394H259.076C259.195 19.4924 259.219 18.3252 259.219 17.4615ZM260.785 7.58686C263.918 8.47394 268.712 10.2714 271.346 11.532L270.516 13.5163C267.81 12.0923 263.372 10.4349 260.785 9.64115V7.58686Z" fill="#300045"/>
<path d="M286.488 3.78176C286.488 3.05809 286.393 1.93757 286.251 1.44734H288.624C288.553 1.93757 288.458 3.10478 288.458 3.78176C288.458 5.11238 288.458 7.28339 288.458 8.70738C288.458 13.8664 286.726 17.6716 281.884 20.4028L280.033 19.0722C284.542 16.9712 286.488 13.5163 286.488 8.70738C286.488 7.30673 286.488 5.11238 286.488 3.78176ZM277.28 6.79316C277.754 6.86319 278.632 6.90988 279.487 6.90988C280.65 6.90988 293.632 6.90988 294.771 6.90988C295.578 6.90988 296.48 6.86319 296.836 6.8165V8.80076C296.48 8.77742 295.483 8.75407 294.747 8.75407C293.632 8.75407 280.65 8.75407 279.534 8.75407C278.632 8.75407 277.778 8.77742 277.28 8.8241V6.79316Z" fill="#300045"/>
<path d="M301.108 9.40771C301.844 9.47774 303.078 9.54777 304.431 9.54777C306.163 9.54777 315.68 9.54777 317.437 9.54777C318.623 9.54777 319.454 9.4544 320 9.40771V11.6954C319.501 11.6721 318.505 11.6021 317.46 11.6021C315.657 11.6021 306.187 11.6021 304.431 11.6021C303.125 11.6021 301.867 11.6488 301.108 11.6954V9.40771Z" fill="#300045"/>
</svg>
