<svg width="250" height="60" viewBox="0 0 250 60" fill="none" xmlns="http://www.w3.org/2000/svg">
<path d="M238.178 11.8047C241.85 11.8047 244.73 13.2793 246.82 16.2285C248.91 19.1582 249.955 23.3867 249.955 28.9141C249.955 32.6836 249.428 35.8574 248.373 38.4355C247.318 40.9941 245.873 42.9277 244.037 44.2363C242.221 45.5254 240.15 46.1699 237.826 46.1699C236.264 46.1699 234.936 45.9746 233.842 45.584C232.768 45.1934 231.869 44.7051 231.146 44.1191C230.443 43.5332 229.848 42.9375 229.359 42.332H229.008C229.105 43.0938 229.184 43.9141 229.242 44.793C229.32 45.6719 229.359 46.6973 229.359 47.8691V59.998H217.904V12.3906H227.221L228.832 16.6094H229.359C229.906 15.75 230.57 14.959 231.352 14.2363C232.133 13.4941 233.08 12.9082 234.193 12.4785C235.326 12.0293 236.654 11.8047 238.178 11.8047ZM233.871 20.7988C232.758 20.7988 231.879 21.0625 231.234 21.5898C230.59 22.1172 230.121 22.918 229.828 23.9922C229.555 25.0469 229.398 26.3652 229.359 27.9473V28.8555C229.359 30.6133 229.496 32.0977 229.77 33.3086C230.043 34.5 230.512 35.4082 231.176 36.0332C231.84 36.6387 232.758 36.9414 233.93 36.9414C234.887 36.9414 235.688 36.668 236.332 36.1211C236.977 35.5742 237.465 34.7051 237.797 33.5137C238.129 32.3223 238.295 30.75 238.295 28.7969C238.295 25.8867 237.914 23.8262 237.152 22.6152C236.41 21.4043 235.316 20.7988 233.871 20.7988Z" fill="white"/>
<path d="M210.342 28.9141C210.342 31.6875 209.961 34.1484 209.199 36.2969C208.438 38.4453 207.334 40.252 205.889 41.7168C204.443 43.1816 202.695 44.2949 200.645 45.0566C198.594 45.7988 196.279 46.1699 193.701 46.1699C191.299 46.1699 189.092 45.7988 187.08 45.0566C185.088 44.2949 183.35 43.1816 181.865 41.7168C180.381 40.252 179.229 38.4453 178.408 36.2969C177.607 34.1484 177.207 31.6875 177.207 28.9141C177.207 25.2422 177.871 22.1367 179.199 19.5977C180.547 17.0586 182.461 15.125 184.941 13.7969C187.441 12.4688 190.42 11.8047 193.877 11.8047C197.061 11.8047 199.893 12.4688 202.373 13.7969C204.854 15.125 206.797 17.0586 208.203 19.5977C209.629 22.1367 210.342 25.2422 210.342 28.9141ZM188.838 28.9141C188.838 30.8086 189.004 32.4102 189.336 33.7188C189.668 35.0078 190.195 35.9941 190.918 36.6777C191.66 37.3418 192.627 37.6738 193.818 37.6738C195.01 37.6738 195.957 37.3418 196.66 36.6777C197.363 35.9941 197.871 35.0078 198.184 33.7188C198.516 32.4102 198.682 30.8086 198.682 28.9141C198.682 27.0195 198.516 25.4375 198.184 24.168C197.871 22.8984 197.354 21.9414 196.631 21.2969C195.928 20.6523 194.971 20.3301 193.76 20.3301C192.021 20.3301 190.762 21.0527 189.98 22.498C189.219 23.9434 188.838 26.082 188.838 28.9141Z" fill="white"/>
<path d="M169.703 45.5859H158.248V0L169.703 0V45.5859Z" fill="white"/>
<path d="M135.1 11.8047C138.322 11.8047 141.105 12.3711 143.449 13.5039C145.793 14.6172 147.6 16.2969 148.869 18.543C150.139 20.7891 150.773 23.6016 150.773 26.9805V32.0781H130.295C130.393 33.8164 131.037 35.2422 132.229 36.3555C133.439 37.4688 135.217 38.0254 137.561 38.0254C139.631 38.0254 141.525 37.8203 143.244 37.4102C144.982 37 146.77 36.3652 148.605 35.5059V43.7383C147.004 44.5781 145.256 45.1934 143.361 45.584C141.467 45.9746 139.074 46.1699 136.184 46.1699C132.844 46.1699 129.855 45.5742 127.219 44.3828C124.582 43.1914 122.502 41.3457 120.979 38.8457C119.475 36.3457 118.723 33.1328 118.723 29.207C118.723 25.2227 119.406 21.9512 120.773 19.3926C122.141 16.8145 124.055 14.9102 126.516 13.6797C128.977 12.4297 131.838 11.8047 135.1 11.8047ZM135.51 19.5977C134.162 19.5977 133.029 20.0273 132.111 20.8867C131.213 21.7266 130.686 23.0547 130.529 24.8711H140.373C140.354 23.8945 140.158 23.0059 139.787 22.2051C139.416 21.4043 138.869 20.7695 138.146 20.3008C137.443 19.832 136.564 19.5977 135.51 19.5977Z" fill="white"/>
<path d="M91.1797 45.584L78.5234 12.3906H90.4766L96.1016 32.0195C96.1602 32.1953 96.2578 32.6445 96.3945 33.3672C96.5508 34.0898 96.6289 34.7637 96.6289 35.3887H96.834C96.834 34.7246 96.9023 34.0898 97.0391 33.4844C97.1758 32.8789 97.2832 32.4102 97.3613 32.0781L103.25 12.3906H115.174L102.518 45.584H91.1797Z" fill="white"/>
<path d="M59.3301 11.8047C62.5527 11.8047 65.3359 12.3711 67.6797 13.5039C70.0234 14.6172 71.8301 16.2969 73.0996 18.543C74.3691 20.7891 75.0039 23.6016 75.0039 26.9805V32.0781H54.5254C54.623 33.8164 55.2676 35.2422 56.459 36.3555C57.6699 37.4688 59.4473 38.0254 61.791 38.0254C63.8613 38.0254 65.7559 37.8203 67.4746 37.4102C69.2129 37 71 36.3652 72.8359 35.5059V43.7383C71.2344 44.5781 69.4863 45.1934 67.5918 45.584C65.6973 45.9746 63.3047 46.1699 60.4141 46.1699C57.0742 46.1699 54.0859 45.5742 51.4492 44.3828C48.8125 43.1914 46.7324 41.3457 45.209 38.8457C43.7051 36.3457 42.9531 33.1328 42.9531 29.207C42.9531 25.2227 43.6367 21.9512 45.0039 19.3926C46.3711 16.8145 48.2852 14.9102 50.7461 13.6797C53.207 12.4297 56.0684 11.8047 59.3301 11.8047ZM59.7402 19.5977C58.3926 19.5977 57.2598 20.0273 56.3418 20.8867C55.4434 21.7266 54.916 23.0547 54.7598 24.8711H64.6035C64.584 23.8945 64.3887 23.0059 64.0176 22.2051C63.6465 21.4043 63.0996 20.7695 62.377 20.3008C61.6738 19.832 60.7949 19.5977 59.7402 19.5977Z" fill="white"/>
<path d="M36.3574 23.2617C36.3574 28.2422 35.4297 32.3828 33.5742 35.6836C31.7188 38.9844 29.1016 41.4648 25.7227 43.125C22.3633 44.7656 18.4082 45.5859 13.8574 45.5859H0L0 2.75391L14.8242 2.75391C19.4336 2.75391 23.3398 3.54492 26.543 5.12695C29.7461 6.70898 32.1777 9.02344 33.8379 12.0703C35.5176 15.1172 36.3574 18.8477 36.3574 23.2617ZM24.3457 23.6719C24.3457 21.0742 23.9941 18.9258 23.291 17.2266C22.6074 15.5078 21.5723 14.2285 20.1855 13.3887C18.7988 12.5293 17.0508 12.0996 14.9414 12.0996H11.5723V36.0938H14.1504C17.666 36.0938 20.2441 35.0781 21.8848 33.0469C23.5254 30.9961 24.3457 27.8711 24.3457 23.6719Z" fill="white"/>
</svg>
