<svg width="205" height="61" viewBox="0 0 205 61" fill="none" xmlns="http://www.w3.org/2000/svg">
<path d="M193.203 12.7734C196.621 12.7734 199.414 13.7402 201.582 15.6738C203.75 17.6074 204.834 20.7031 204.834 24.9609V46.5527H193.379V28.4473C193.379 26.2402 193.057 24.5801 192.412 23.4668C191.787 22.334 190.771 21.7676 189.365 21.7676C187.197 21.7676 185.742 22.6562 185 24.4336C184.258 26.1914 183.887 28.7207 183.887 32.0215V46.5527H172.432V13.3594H181.074L182.627 17.7539H183.066C183.77 16.6992 184.609 15.8008 185.586 15.0586C186.562 14.3164 187.686 13.75 188.955 13.3594C190.225 12.9688 191.641 12.7734 193.203 12.7734Z" fill="white"/>
<path d="M146.383 60.9668C141.676 60.9668 138.043 60.1758 135.484 58.5938C132.945 57.0312 131.676 54.7754 131.676 51.8262C131.676 49.8535 132.291 48.2227 133.521 46.9336C134.752 45.6445 136.598 44.7168 139.059 44.1504C138.043 43.7207 137.154 43.0273 136.393 42.0703C135.65 41.1133 135.279 40.166 135.279 39.2285C135.279 38.1934 135.562 37.2852 136.129 36.5039C136.695 35.7031 137.877 34.7559 139.674 33.6621C137.955 32.9004 136.598 31.709 135.602 30.0879C134.625 28.4668 134.137 26.4941 134.137 24.1699C134.137 21.7676 134.684 19.7168 135.777 18.0176C136.891 16.3184 138.502 15.0195 140.611 14.1211C142.74 13.2227 145.328 12.7734 148.375 12.7734C148.785 12.7734 149.41 12.8125 150.25 12.8906C151.09 12.9492 151.939 13.0273 152.799 13.125C153.658 13.2031 154.322 13.2812 154.791 13.3594H166.363V18.8965L161.822 20.5664C162.135 21.1328 162.369 21.748 162.525 22.4121C162.682 23.0762 162.76 23.7793 162.76 24.5215C162.76 28.0957 161.5 30.8691 158.98 32.8418C156.48 34.8145 152.74 35.8008 147.76 35.8008C146.529 35.8008 145.553 35.7227 144.83 35.5664C144.693 35.8203 144.586 36.0742 144.508 36.3281C144.449 36.5625 144.42 36.7871 144.42 37.002C144.42 37.4512 144.684 37.8125 145.211 38.0859C145.758 38.3398 146.412 38.5156 147.174 38.6133C147.955 38.7109 148.697 38.7598 149.4 38.7598H154.908C158.639 38.7598 161.432 39.541 163.287 41.1035C165.143 42.666 166.07 45.0195 166.07 48.1641C166.07 52.207 164.342 55.3516 160.885 57.5977C157.447 59.8438 152.613 60.9668 146.383 60.9668ZM146.939 53.8184C148.326 53.8184 149.723 53.6914 151.129 53.4375C152.535 53.2031 153.717 52.8125 154.674 52.2656C155.631 51.7188 156.109 50.9961 156.109 50.0977C156.109 49.4141 155.826 48.8965 155.26 48.5449C154.693 48.2129 153.961 47.9883 153.062 47.8711C152.164 47.7539 151.217 47.6953 150.221 47.6953H145.768C144.947 47.6953 144.195 47.8223 143.512 48.0762C142.848 48.3496 142.32 48.7109 141.93 49.1602C141.539 49.6094 141.344 50.1172 141.344 50.6836C141.344 51.6211 141.852 52.373 142.867 52.9395C143.883 53.5254 145.24 53.8184 146.939 53.8184ZM148.492 29.3262C149.586 29.3262 150.426 28.9062 151.012 28.0664C151.617 27.2266 151.92 25.9668 151.92 24.2871C151.92 22.5684 151.637 21.2793 151.07 20.4199C150.504 19.5605 149.645 19.1309 148.492 19.1309C147.301 19.1309 146.412 19.5605 145.826 20.4199C145.24 21.2598 144.947 22.5293 144.947 24.2285C144.947 25.9277 145.24 27.207 145.826 28.0664C146.412 28.9062 147.301 29.3262 148.492 29.3262Z" fill="white"/>
<path d="M126.047 13.3594V46.5527H114.592V13.3594H126.047ZM120.363 0C122.004 0 123.43 0.341797 124.641 1.02539C125.871 1.70898 126.486 3.06641 126.486 5.09766C126.486 7.07031 125.871 8.4082 124.641 9.11133C123.43 9.79492 122.004 10.1367 120.363 10.1367C118.684 10.1367 117.248 9.79492 116.057 9.11133C114.885 8.4082 114.299 7.07031 114.299 5.09766C114.299 3.06641 114.885 1.70898 116.057 1.02539C117.248 0.341797 118.684 0 120.363 0Z" fill="white"/>
<path d="M107.146 36.3574C107.146 38.4668 106.678 40.332 105.74 41.9531C104.803 43.5742 103.299 44.8438 101.229 45.7617C99.1777 46.6797 96.4727 47.1387 93.1133 47.1387C90.75 47.1387 88.6309 47.0117 86.7559 46.7578C84.9004 46.5039 83.0156 46.0156 81.1016 45.293V36.123C83.1914 37.0801 85.3203 37.7734 87.4883 38.2031C89.6562 38.6133 91.3652 38.8184 92.6152 38.8184C93.9043 38.8184 94.8418 38.6816 95.4277 38.4082C96.0332 38.1152 96.3359 37.6855 96.3359 37.1191C96.3359 36.6309 96.1309 36.2207 95.7207 35.8887C95.3301 35.5371 94.6172 35.1367 93.582 34.6875C92.5664 34.2383 91.1309 33.6328 89.2754 32.8711C87.4395 32.1094 85.9062 31.2793 84.6758 30.3809C83.4648 29.4824 82.5566 28.4082 81.9512 27.1582C81.3457 25.9082 81.043 24.375 81.043 22.5586C81.043 19.3164 82.293 16.875 84.793 15.2344C87.293 13.5938 90.6035 12.7734 94.7246 12.7734C96.9121 12.7734 98.9727 13.0176 100.906 13.5059C102.84 13.9746 104.842 14.668 106.912 15.5859L103.777 22.9688C102.137 22.2266 100.477 21.6309 98.7969 21.1816C97.1172 20.7324 95.7793 20.5078 94.7832 20.5078C93.8848 20.5078 93.1914 20.625 92.7031 20.8594C92.2148 21.0938 91.9707 21.4355 91.9707 21.8848C91.9707 22.2949 92.1367 22.6562 92.4688 22.9688C92.8203 23.2812 93.4746 23.6426 94.4316 24.0527C95.3887 24.4629 96.7852 25.0391 98.6211 25.7812C100.555 26.5625 102.146 27.4023 103.396 28.3008C104.666 29.1797 105.604 30.2539 106.209 31.5234C106.834 32.793 107.146 34.4043 107.146 36.3574Z" fill="white"/>
<path d="M59.3301 12.7734C62.5527 12.7734 65.3359 13.3398 67.6797 14.4727C70.0234 15.5859 71.8301 17.2656 73.0996 19.5117C74.3691 21.7578 75.0039 24.5703 75.0039 27.9492V33.0469H54.5254C54.623 34.7852 55.2676 36.2109 56.459 37.3242C57.6699 38.4375 59.4473 38.9941 61.791 38.9941C63.8613 38.9941 65.7559 38.7891 67.4746 38.3789C69.2129 37.9688 71 37.334 72.8359 36.4746V44.707C71.2344 45.5469 69.4863 46.1621 67.5918 46.5527C65.6973 46.9434 63.3047 47.1387 60.4141 47.1387C57.0742 47.1387 54.0859 46.543 51.4492 45.3516C48.8125 44.1602 46.7324 42.3145 45.209 39.8145C43.7051 37.3145 42.9531 34.1016 42.9531 30.1758C42.9531 26.1914 43.6367 22.9199 45.0039 20.3613C46.3711 17.7832 48.2852 15.8789 50.7461 14.6484C53.207 13.3984 56.0684 12.7734 59.3301 12.7734ZM59.7402 20.5664C58.3926 20.5664 57.2598 20.9961 56.3418 21.8555C55.4434 22.6953 54.916 24.0234 54.7598 25.8398H64.6035C64.584 24.8633 64.3887 23.9746 64.0176 23.1738C63.6465 22.373 63.0996 21.7383 62.377 21.2695C61.6738 20.8008 60.7949 20.5664 59.7402 20.5664Z" fill="white"/>
<path d="M36.3574 24.2266C36.3574 29.207 35.4297 33.3477 33.5742 36.6484C31.7188 39.9492 29.1016 42.4297 25.7227 44.0898C22.3633 45.7305 18.4082 46.5508 13.8574 46.5508H0L0 3.71875L14.8242 3.71875C19.4336 3.71875 23.3398 4.50977 26.543 6.0918C29.7461 7.67383 32.1777 9.98828 33.8379 13.0352C35.5176 16.082 36.3574 19.8125 36.3574 24.2266ZM24.3457 24.6367C24.3457 22.0391 23.9941 19.8906 23.291 18.1914C22.6074 16.4727 21.5723 15.1934 20.1855 14.3535C18.7988 13.4941 17.0508 13.0645 14.9414 13.0645H11.5723V37.0586H14.1504C17.666 37.0586 20.2441 36.043 21.8848 34.0117C23.5254 31.9609 24.3457 28.8359 24.3457 24.6367Z" fill="white"/>
</svg>
