<svg width="248" height="58" viewBox="0 0 248 58" fill="none" xmlns="http://www.w3.org/2000/svg">
<path d="M242.074 34.9785C243.109 34.9785 244.057 34.8711 244.916 34.6562C245.775 34.4414 246.674 34.168 247.611 33.8359V42.1855C246.361 42.7324 245.033 43.1719 243.627 43.5039C242.24 43.8555 240.463 44.0312 238.295 44.0312C236.146 44.0312 234.252 43.6992 232.611 43.0352C230.971 42.3516 229.691 41.1797 228.773 39.5195C227.875 37.8398 227.426 35.5059 227.426 32.5176V18.8359H223.412V14.1777L228.51 10.5742L231.469 3.60156L238.969 3.60156V10.252H247.113V18.8359H238.969V31.7559C238.969 32.8301 239.242 33.6406 239.789 34.1875C240.336 34.7148 241.098 34.9785 242.074 34.9785Z" fill="white"/>
<path d="M216.67 9.66797C217.295 9.66797 217.949 9.7168 218.633 9.81445C219.316 9.89258 219.824 9.96094 220.156 10.0195L219.131 20.8301C218.76 20.7324 218.281 20.6543 217.695 20.5957C217.109 20.5176 216.289 20.4785 215.234 20.4785C214.512 20.4785 213.74 20.5469 212.92 20.6836C212.1 20.8203 211.318 21.1133 210.576 21.5625C209.854 21.9922 209.258 22.6562 208.789 23.5547C208.32 24.4336 208.086 25.625 208.086 27.1289V43.4473H196.631V10.2539H205.156L206.943 15.5566H207.5C208.105 14.4629 208.877 13.4766 209.814 12.5977C210.771 11.6992 211.836 10.9863 213.008 10.459C214.199 9.93164 215.42 9.66797 216.67 9.66797Z" fill="white"/>
<path d="M189.068 26.7773C189.068 29.5508 188.688 32.0117 187.926 34.1602C187.164 36.3086 186.061 38.1152 184.615 39.5801C183.17 41.0449 181.422 42.1582 179.371 42.9199C177.32 43.6621 175.006 44.0332 172.428 44.0332C170.025 44.0332 167.818 43.6621 165.807 42.9199C163.814 42.1582 162.076 41.0449 160.592 39.5801C159.107 38.1152 157.955 36.3086 157.135 34.1602C156.334 32.0117 155.934 29.5508 155.934 26.7773C155.934 23.1055 156.598 20 157.926 17.4609C159.273 14.9219 161.188 12.9883 163.668 11.6602C166.168 10.332 169.146 9.66797 172.604 9.66797C175.787 9.66797 178.619 10.332 181.1 11.6602C183.58 12.9883 185.523 14.9219 186.93 17.4609C188.355 20 189.068 23.1055 189.068 26.7773ZM167.564 26.7773C167.564 28.6719 167.73 30.2734 168.062 31.582C168.395 32.8711 168.922 33.8574 169.645 34.541C170.387 35.2051 171.354 35.5371 172.545 35.5371C173.736 35.5371 174.684 35.2051 175.387 34.541C176.09 33.8574 176.598 32.8711 176.91 31.582C177.242 30.2734 177.408 28.6719 177.408 26.7773C177.408 24.8828 177.242 23.3008 176.91 22.0312C176.598 20.7617 176.08 19.8047 175.357 19.1602C174.654 18.5156 173.697 18.1934 172.486 18.1934C170.748 18.1934 169.488 18.916 168.707 20.3613C167.945 21.8066 167.564 23.9453 167.564 26.7773Z" fill="white"/>
<path d="M138.029 9.66797C141.701 9.66797 144.582 11.1426 146.672 14.0918C148.762 17.0215 149.807 21.25 149.807 26.7773C149.807 30.5469 149.279 33.7207 148.225 36.2988C147.17 38.8574 145.725 40.791 143.889 42.0996C142.072 43.3887 140.002 44.0332 137.678 44.0332C136.115 44.0332 134.787 43.8379 133.693 43.4473C132.619 43.0566 131.721 42.5684 130.998 41.9824C130.295 41.3965 129.699 40.8008 129.211 40.1953H128.859C128.957 40.957 129.035 41.7773 129.094 42.6562C129.172 43.5352 129.211 44.5605 129.211 45.7324V57.8613H117.756V10.2539H127.072L128.684 14.4727H129.211C129.758 13.6133 130.422 12.8223 131.203 12.0996C131.984 11.3574 132.932 10.7715 134.045 10.3418C135.178 9.89258 136.506 9.66797 138.029 9.66797ZM133.723 18.6621C132.609 18.6621 131.73 18.9258 131.086 19.4531C130.441 19.9805 129.973 20.7812 129.68 21.8555C129.406 22.9102 129.25 24.2285 129.211 25.8105V26.7188C129.211 28.4766 129.348 29.9609 129.621 31.1719C129.895 32.3633 130.363 33.2715 131.027 33.8965C131.691 34.502 132.609 34.8047 133.781 34.8047C134.738 34.8047 135.539 34.5312 136.184 33.9844C136.828 33.4375 137.316 32.5684 137.648 31.377C137.98 30.1855 138.146 28.6133 138.146 26.6602C138.146 23.75 137.766 21.6895 137.004 20.4785C136.262 19.2676 135.168 18.6621 133.723 18.6621Z" fill="white"/>
<path d="M98.416 9.66797C102.088 9.66797 104.969 11.1426 107.059 14.0918C109.148 17.0215 110.193 21.25 110.193 26.7773C110.193 30.5469 109.666 33.7207 108.611 36.2988C107.557 38.8574 106.111 40.791 104.275 42.0996C102.459 43.3887 100.389 44.0332 98.0645 44.0332C96.502 44.0332 95.1738 43.8379 94.0801 43.4473C93.0059 43.0566 92.1074 42.5684 91.3848 41.9824C90.6816 41.3965 90.0859 40.8008 89.5977 40.1953H89.2461C89.3438 40.957 89.4219 41.7773 89.4805 42.6562C89.5586 43.5352 89.5977 44.5605 89.5977 45.7324V57.8613H78.1426V10.2539H87.459L89.0703 14.4727H89.5977C90.1445 13.6133 90.8086 12.8223 91.5898 12.0996C92.3711 11.3574 93.3184 10.7715 94.4316 10.3418C95.5645 9.89258 96.8926 9.66797 98.416 9.66797ZM94.1094 18.6621C92.9961 18.6621 92.1172 18.9258 91.4727 19.4531C90.8281 19.9805 90.3594 20.7812 90.0664 21.8555C89.793 22.9102 89.6367 24.2285 89.5977 25.8105V26.7188C89.5977 28.4766 89.7344 29.9609 90.0078 31.1719C90.2812 32.3633 90.75 33.2715 91.4141 33.8965C92.0781 34.502 92.9961 34.8047 94.168 34.8047C95.125 34.8047 95.9258 34.5312 96.5703 33.9844C97.2148 33.4375 97.7031 32.5684 98.0352 31.377C98.3672 30.1855 98.5332 28.6133 98.5332 26.6602C98.5332 23.75 98.1523 21.6895 97.3906 20.4785C96.6484 19.2676 95.5547 18.6621 94.1094 18.6621Z" fill="white"/>
<path d="M69.2324 10.2539V43.4473H60.5898L59.1543 39.3164H58.4805C57.7969 40.4297 56.9277 41.3379 55.873 42.041C54.8379 42.7246 53.6855 43.2227 52.416 43.5352C51.1465 43.8672 49.8281 44.0332 48.4609 44.0332C46.293 44.0332 44.3301 43.6133 42.5723 42.7734C40.834 41.9336 39.4473 40.6152 38.4121 38.8184C37.3965 37.0215 36.8887 34.707 36.8887 31.875V10.2539H48.3438V28.3887C48.3438 30.5371 48.6465 32.1777 49.252 33.3105C49.877 34.4238 50.8926 34.9805 52.2988 34.9805C53.7441 34.9805 54.8574 34.5898 55.6387 33.8086C56.4395 33.0273 56.9961 31.875 57.3086 30.3516C57.6211 28.8281 57.7773 26.9727 57.7773 24.7852V10.2539H69.2324Z" fill="white"/>
<path d="M30 30.4395C30 32.7637 29.4141 34.9707 28.2422 37.0605C27.0703 39.1309 25.2441 40.8105 22.7637 42.0996C20.3027 43.3887 17.1191 44.0332 13.2129 44.0332C11.2598 44.0332 9.54102 43.9453 8.05664 43.7695C6.5918 43.5938 5.22461 43.3105 3.95508 42.9199C2.68555 42.5098 1.36719 41.9824 0 41.3379L0 31.0254C2.32422 32.1973 4.66797 33.0957 7.03125 33.7207C9.39453 34.3262 11.5332 34.6289 13.4473 34.6289C14.5996 34.6289 15.5371 34.4922 16.2598 34.2188C17.002 33.9453 17.5488 33.5742 17.9004 33.1055C18.252 32.6172 18.4277 32.0605 18.4277 31.4355C18.4277 30.6934 18.1641 30.0684 17.6367 29.5605C17.1289 29.0332 16.3086 28.4863 15.1758 27.9199C14.043 27.3535 12.5488 26.6504 10.6934 25.8105C9.11133 25.0684 7.67578 24.3066 6.38672 23.5254C5.11719 22.7441 4.02344 21.8555 3.10547 20.8594C2.20703 19.8438 1.51367 18.6621 1.02539 17.3145C0.537109 15.9668 0.292969 14.375 0.292969 12.5391C0.292969 9.78516 0.966797 7.48047 2.31445 5.625C3.68164 3.75 5.57617 2.34375 7.99805 1.40625C10.4395 0.46875 13.252 0 16.4355 0C19.2285 0 21.7383 0.3125 23.9648 0.9375C26.2109 1.5625 28.2227 2.27539 30 3.07617L26.4551 12.0117C24.6191 11.1719 22.8125 10.5078 21.0352 10.0195C19.2578 9.51172 17.6074 9.25781 16.084 9.25781C15.0879 9.25781 14.2676 9.38477 13.623 9.63867C12.998 9.87305 12.5293 10.1953 12.2168 10.6055C11.9238 11.0156 11.7773 11.4844 11.7773 12.0117C11.7773 12.6758 12.0312 13.2715 12.5391 13.7988C13.0664 14.3262 13.9355 14.9023 15.1465 15.5273C16.377 16.1328 18.0469 16.9238 20.1562 17.9004C22.2461 18.8379 24.0234 19.8535 25.4883 20.9473C26.9531 22.0215 28.0664 23.3203 28.8281 24.8438C29.6094 26.3477 30 28.2129 30 30.4395Z" fill="white"/>
</svg>
