<svg width="100" height="100" viewBox="0 0 100 100" fill="none" xmlns="http://www.w3.org/2000/svg">
<path d="M59.8784 38.2528V46.153L50.137 47.3413L51.8477 53.1391H39.4686L41.1792 47.3413L30.2495 46.0224V38.3834C31.3072 37.5999 31.9601 36.4116 31.9601 35.0927V29.9609H30.2495V21.6689H59.8784V29.9609H58.1678V34.9621C58.2984 36.281 58.8207 37.4693 59.8784 38.2528Z" fill="#FFC5CD"/>
<path d="M82.1168 16.001C83.958 16.001 85.4074 17.4504 85.4074 19.2916C85.4074 21.1328 83.958 22.5823 82.1168 22.5823C80.2757 22.5823 78.8262 21.1328 78.8262 19.2916C78.8262 17.4504 80.2757 16.001 82.1168 16.001Z" fill="white"/>
<path d="M23.6689 71.9551C26.8682 71.9551 29.4667 74.5536 29.4667 77.7529C29.4667 80.9521 26.8682 83.5507 23.6689 83.5507C20.4697 83.5507 17.8711 80.9521 17.8711 77.7529C17.8711 74.5536 20.4697 71.9551 23.6689 71.9551Z" fill="white"/>
<path d="M55.9214 16.7835H35.3809C35.3809 15.4646 35.9032 14.1458 36.8303 13.2317C37.7574 12.3046 38.9327 11.7822 40.3822 11.7822H51.0506C53.6884 11.9128 55.9214 14.0152 55.9214 16.7835Z" fill="#FFC5CD"/>
<path d="M53.2844 27.4521H36.8311V35.7441H53.2844V27.4521Z" fill="white"/>
<path d="M62.3733 33.2373H66.4604V34.9479C66.4604 36.2668 65.8075 37.4551 64.7498 38.2386C64.0969 38.7609 63.1698 39.0221 62.2427 39.0221C61.3155 39.0221 60.4015 38.7609 59.7355 38.2386C58.6778 37.4551 58.0249 36.2668 58.0249 34.9479V33.2373H62.3733Z" fill="white"/>
<path d="M27.7424 33.2373H31.8166V34.9479C31.8166 36.2668 31.1637 37.4551 30.1059 38.2386C29.453 38.7609 28.5259 39.0221 27.6118 39.0221C26.6977 39.0221 25.7706 38.7609 25.1047 38.2386C24.0469 37.4551 23.394 36.2668 23.394 34.9479V33.2373H27.7424Z" fill="white"/>
<path d="M66.4607 29.9463V33.2369H62.3735V29.9463H64.8807H66.4607Z" fill="#FFC5CD"/>
<path d="M62.373 29.9463V33.2369H58.2988V29.9463H59.8789H62.373Z" fill="#FFC5CD"/>
<path d="M31.9599 29.9463V33.2369H27.7422V29.9463H30.2493H31.9599Z" fill="#FFC5CD"/>
<path d="M27.7426 29.9463V33.2369H23.6685V29.9463H25.3791H27.7426Z" fill="#FFC5CD"/>
<path d="M64.8802 21.7871V29.9484H62.3731H59.8789V21.7871H64.8802Z" fill="white"/>
<path d="M64.8802 38.2523V45.4865L59.8789 46.1394V38.2393C60.5318 38.7616 61.459 39.0228 62.3731 39.0228C63.2871 39.0228 64.0837 38.631 64.8802 38.2393V38.2523Z" fill="white"/>
<path d="M30.2501 21.7871V29.9484H27.7429H25.3794V21.7871H30.2501Z" fill="white"/>
<path d="M30.2493 38.2513V45.8903L25.248 45.2374V38.1338C25.901 38.6561 26.8281 38.9173 27.7553 38.9173C28.6824 38.9173 29.5964 38.6561 30.2493 38.2644V38.2513Z" fill="white"/>
<path d="M48.5444 52.9961V55.0985C48.5444 56.6785 47.2255 57.9974 45.6455 57.9974C44.0654 57.9974 42.7466 56.6785 42.7466 55.0985V52.9961H48.5444Z" fill="#FFC5CD"/>
<path d="M19.5818 60.358V44.5576L25.3796 45.2105L30.3809 45.8634L41.3106 47.1823L39.4693 52.9801H42.76V55.0825C42.76 56.6625 44.0788 57.9814 45.6589 57.9814C47.2389 57.9814 48.5578 56.6625 48.5578 55.0825V52.9801H51.8484L50.1378 47.1823L59.8792 45.994L64.8805 45.3411L71.5924 44.5576V50.6166H55.792V58.9085H50.7907V67.2005H24.1913C21.5535 67.2005 19.4512 65.0981 19.4512 62.4603V60.358H19.5818Z" fill="white"/>
<path d="M25.3792 38.2531V45.3568L19.5814 44.7039L18.3931 44.4427C16.4213 44.1815 14.8413 42.4709 14.8413 40.3555V25.7435C14.8413 23.5105 16.6825 21.6562 18.9285 21.6562H25.3792V29.9482H23.6686V34.9494C23.6686 36.2683 24.3215 37.4566 25.3792 38.2401V38.2531Z" fill="#FFC5CD"/>
<path d="M76.4622 25.7431V40.2246C76.4622 42.3269 74.8821 44.0376 72.9104 44.3118L71.4609 44.4423L64.749 45.2258V37.9916C65.8067 37.1951 66.4596 36.0199 66.4596 34.701V29.9609H64.749V21.6689H72.3881C74.621 21.7995 76.4622 23.5101 76.4622 25.7562V25.7431Z" fill="#FFC5CD"/>
<path d="M55.7918 58.7793V84.321H55.6613H50.7905V66.9406V58.7793H55.7918Z" fill="white"/>
<path d="M86.2041 57.996H78.8262V50.6182C81.8557 53.5171 83.1746 54.836 86.2041 57.996Z" fill="white"/>
<path d="M86.203 57.9977V87.6135H55.7905V84.3229V58.7812V50.4893H71.5909H78.8251V57.9977H86.203Z" fill="#FFC5CD"/>
<path d="M85.8118 27.583C86.4647 27.583 87.0001 28.1184 87.0001 28.7713C87.0001 29.4242 86.4647 29.9596 85.8118 29.9596C85.1589 29.9596 84.6235 29.4242 84.6235 28.7713C84.6235 28.1184 85.1589 27.583 85.8118 27.583Z" fill="#300045"/>
<path d="M81.7244 44.7037C82.3807 44.7037 82.9127 44.1717 82.9127 43.5154C82.9127 42.8592 82.3807 42.3271 81.7244 42.3271C81.0681 42.3271 80.5361 42.8592 80.5361 43.5154C80.5361 44.1717 81.0681 44.7037 81.7244 44.7037Z" fill="#300045"/>
<path d="M65.2718 13.4941C65.9247 13.4941 66.46 14.0295 66.46 14.6824C66.46 15.3353 65.9247 15.8707 65.2718 15.8707C64.6188 15.8707 64.0835 15.3353 64.0835 14.6824C64.0835 14.0295 64.6188 13.4941 65.2718 13.4941Z" fill="#300045"/>
<path d="M43.8035 80.2461C44.4564 80.2461 44.9917 80.7815 44.9917 81.4344C44.9917 82.0873 44.4564 82.6227 43.8035 82.6227C43.1506 82.6227 42.6152 82.0873 42.6152 81.4344C42.6152 80.7815 43.1506 80.2461 43.8035 80.2461Z" fill="#300045"/>
<path d="M19.9867 12.7119C20.6396 12.7119 21.1749 13.2473 21.1749 13.9002C21.1749 14.5531 20.6396 15.0885 19.9867 15.0885C19.3338 15.0885 18.7983 14.5531 18.7983 13.9002C18.7983 13.2473 19.3338 12.7119 19.9867 12.7119Z" fill="#300045"/>
<path d="M14.1883 61.2871C14.8412 61.2871 15.3766 61.8225 15.3766 62.4754C15.3766 63.1283 14.8412 63.6637 14.1883 63.6637C13.5354 63.6637 13 63.1283 13 62.4754C13 61.8225 13.5354 61.2871 14.1883 61.2871Z" fill="#300045"/>
<path d="M45.6585 58.7805C43.5561 58.7805 41.9761 57.0699 41.9761 55.0981V52.9958C41.9761 52.604 42.3679 52.1992 42.7596 52.1992C43.1514 52.1992 43.5561 52.591 43.5561 52.9958V55.0981C43.5561 56.2864 44.4832 57.2005 45.6585 57.2005C46.8337 57.2005 47.7609 56.2734 47.7609 55.0981V52.9958C47.7609 52.604 48.1526 52.1992 48.5444 52.1992C48.9361 52.1992 49.3278 52.591 49.3278 52.9958V55.0981C49.3278 57.0699 47.6172 58.7805 45.6454 58.7805H45.6585Z" fill="#300045"/>
<path d="M55.9216 17.5813H52.6309C52.2392 17.5813 51.8344 17.1896 51.8344 16.7978C51.8344 16.4061 52.2261 16.0013 52.6309 16.0013H54.9944C54.6027 14.1601 52.8921 12.7106 50.9072 12.7106H40.2387C39.181 12.7106 38.1363 13.1024 37.3398 13.8989C36.8175 14.4212 36.4258 15.2178 36.1515 16.0013H38.5281C38.9199 16.0013 39.3116 16.393 39.3116 16.7978C39.3116 17.2026 38.9199 17.5813 38.5281 17.5813H35.2374C34.8457 17.5813 34.4409 17.1896 34.4409 16.7978C34.4409 15.2178 35.0938 13.7683 36.1515 12.7106C37.2092 11.6529 38.6587 11 40.2387 11H50.9072C54.0673 11 56.705 13.6377 56.705 16.7978C56.705 17.1896 56.3133 17.5813 55.9216 17.5813Z" fill="#300045"/>
<path d="M52.6312 22.5826C52.2394 22.5826 51.8346 22.1909 51.8346 21.7861V17.6989H39.4555V21.7861C39.4555 22.1778 39.0638 22.5826 38.672 22.5826C38.2803 22.5826 37.8755 22.1909 37.8755 21.7861V16.7848C37.8755 16.3931 38.2672 15.9883 38.672 15.9883H52.6312C53.0229 15.9883 53.4146 16.38 53.4146 16.7848V21.7861C53.4146 22.1778 53.0229 22.5826 52.6312 22.5826Z" fill="#300045"/>
<path d="M30.2503 30.7444C29.8585 30.7444 29.4668 30.3527 29.4668 29.9479V21.6559C29.4668 21.2642 29.8585 20.8594 30.2503 20.8594C30.642 20.8594 31.0468 21.2511 31.0468 21.6559V29.9479C31.0468 30.3396 30.6551 30.7444 30.2503 30.7444Z" fill="#300045"/>
<path d="M25.3788 30.7444C24.987 30.7444 24.5952 30.3527 24.5952 29.9479V21.6559C24.5952 21.2642 24.987 20.8594 25.3788 20.8594C25.7705 20.8594 26.1753 21.2511 26.1753 21.6559V29.9479C26.1753 30.3396 25.7836 30.7444 25.3788 30.7444Z" fill="#300045"/>
<path d="M27.7425 39.8322C26.6848 39.8322 25.6401 39.4405 24.713 38.7745C23.3941 37.8474 22.7412 36.411 22.7412 34.8309V29.9603C22.7412 29.5685 23.133 29.1768 23.5247 29.1768H31.8166C32.2084 29.1768 32.6132 29.5685 32.6132 29.9603V34.9615C32.6132 36.5416 31.9602 37.991 30.6414 38.9051C29.8579 39.4274 28.8002 39.8322 27.7425 39.8322ZM24.4518 30.7437V34.8309C24.4518 35.8886 24.9742 36.8027 25.7707 37.4687C26.293 37.8604 27.0896 38.1216 27.7425 38.1216C28.3954 38.1216 29.192 37.8604 29.7143 37.4687C30.5108 36.8158 31.0332 35.8886 31.0332 34.8309V30.7437H24.4518Z" fill="#300045"/>
<path d="M31.9607 34.0338H23.6688C23.277 34.0338 22.8853 33.642 22.8853 33.2503C22.8853 32.8585 23.277 32.4668 23.6688 32.4668H31.9607C32.3524 32.4668 32.7442 32.8585 32.7442 33.2503C32.7442 33.642 32.3524 34.0338 31.9607 34.0338Z" fill="#300045"/>
<path d="M27.7423 36.5289C27.3506 36.5289 26.9458 36.1371 26.9458 35.7454V29.9476C26.9458 29.5558 27.3375 29.1641 27.7423 29.1641C28.1471 29.1641 28.5258 29.5558 28.5258 29.9476V35.7454C28.6564 36.1371 28.2647 36.5289 27.7423 36.5289Z" fill="#300045"/>
<path d="M64.8797 30.7444C64.488 30.7444 64.0962 30.3527 64.0962 29.9479V21.6559C64.0962 21.2642 64.488 20.8594 64.8797 20.8594C65.2715 20.8594 65.6632 21.2511 65.6632 21.6559V29.9479C65.6632 30.3396 65.2715 30.7444 64.8797 30.7444Z" fill="#300045"/>
<path d="M59.8786 30.7444C59.4868 30.7444 59.082 30.3527 59.082 29.9479V21.6559C59.082 21.2642 59.4738 20.8594 59.8786 20.8594C60.2834 20.8594 60.662 21.2511 60.662 21.6559V29.9479C60.662 30.3396 60.2703 30.7444 59.8786 30.7444Z" fill="#300045"/>
<path d="M30.2503 46.6741C29.8585 46.6741 29.4668 46.2824 29.4668 45.8776V38.2386C29.4668 37.8468 29.8585 37.4551 30.2503 37.4551C30.642 37.4551 31.0468 37.8468 31.0468 38.2386V45.8776C31.0468 46.2693 30.6551 46.6741 30.2503 46.6741Z" fill="#300045"/>
<path d="M25.3788 46.1387C24.987 46.1387 24.5952 45.747 24.5952 45.3422V38.2386C24.5952 37.8468 24.987 37.4551 25.3788 37.4551C25.7705 37.4551 26.1753 37.8468 26.1753 38.2386V45.3422C26.1753 45.7339 25.7836 46.1387 25.3788 46.1387Z" fill="#300045"/>
<path d="M64.8797 46.282C64.488 46.282 64.0962 45.8903 64.0962 45.4855V38.2513C64.0962 37.8595 64.488 37.4678 64.8797 37.4678C65.2715 37.4678 65.6632 37.8595 65.6632 38.2513V45.4855C65.6632 45.8772 65.2715 46.282 64.8797 46.282Z" fill="#300045"/>
<path d="M59.8786 46.8064C59.4868 46.8064 59.082 46.4146 59.082 46.0098V38.1097C59.082 37.7179 59.4738 37.3262 59.8786 37.3262C60.2834 37.3262 60.662 37.7179 60.662 38.1097V46.0098C60.662 46.4016 60.2703 46.8064 59.8786 46.8064Z" fill="#300045"/>
<path d="M62.3734 39.8322C61.3157 39.8322 60.271 39.4405 59.3439 38.7745C58.025 37.8474 57.3721 36.411 57.3721 34.8309V29.9603C57.3721 29.5685 57.7638 29.1768 58.1686 29.1768H66.4605C66.8522 29.1768 67.244 29.5685 67.244 29.9603V34.9615C67.244 36.5416 66.5911 37.991 65.2722 38.9051C64.4757 39.4274 63.4311 39.8322 62.3734 39.8322ZM59.0827 30.7437V34.8309C59.0827 35.8886 59.605 36.8027 60.4016 37.4687C60.9239 37.8604 61.7205 38.1216 62.3734 38.1216C63.0263 38.1216 63.8227 37.8604 64.3451 37.4687C65.1286 36.8158 65.664 35.8886 65.664 34.8309V30.7437H59.0827Z" fill="#300045"/>
<path d="M66.4605 34.0338H58.1686C57.7769 34.0338 57.3721 33.642 57.3721 33.2503C57.3721 32.8585 57.7638 32.4668 58.1686 32.4668H66.4605C66.8522 32.4668 67.244 32.8585 67.244 33.2503C67.244 33.642 66.8522 34.0338 66.4605 34.0338Z" fill="#300045"/>
<path d="M62.3724 36.5289C61.9807 36.5289 61.5889 36.1371 61.5889 35.7454V29.9476C61.5889 29.5558 61.9807 29.1641 62.3724 29.1641C62.7641 29.1641 63.1689 29.5558 63.1689 29.9476V35.7454C63.1689 36.1371 62.7772 36.5289 62.3724 36.5289Z" fill="#300045"/>
<path d="M51.8342 53.7789H39.455C39.1938 53.7789 38.9327 53.6483 38.8021 53.5177C38.6715 53.2565 38.541 52.9954 38.6715 52.8648L39.9904 47.9941L18.1311 45.2258C15.637 44.9646 13.7827 42.8623 13.7827 40.3551V25.8736C13.7827 23.1053 16.0156 21.0029 18.6534 21.0029H72.3746C75.1429 21.0029 77.2453 23.2359 77.2453 25.8736V40.3551C77.2453 42.8623 75.4041 44.9646 72.897 45.2258L51.0376 47.9941L52.3564 52.8648C52.487 53.126 52.3565 53.3871 52.2259 53.5177C52.3565 53.6483 52.0953 53.7789 51.8342 53.7789ZM40.5127 52.1988H50.6458L49.3269 47.4587C49.1964 47.1976 49.327 46.9364 49.4576 46.8058C49.5882 46.5447 49.8493 46.4141 49.9798 46.4141L72.7533 43.5152C74.3333 43.254 75.6522 41.9351 75.6522 40.3551V25.8736C75.6522 24.0324 74.2027 22.583 72.3615 22.583H18.7709C16.9297 22.583 15.4803 24.0324 15.4803 25.8736V40.3551C15.4803 41.9351 16.6686 43.3846 18.3792 43.5152L41.1526 46.4141C41.4138 46.4141 41.5443 46.5447 41.6749 46.8058C41.8055 47.067 41.8055 47.1976 41.8055 47.4587L40.4866 52.1988H40.5127Z" fill="#300045"/>
<path d="M53.2846 36.5288H36.8313C36.4396 36.5288 36.0479 36.1371 36.0479 35.7453V27.4534C36.0479 27.0617 36.4396 26.6699 36.8313 26.6699H53.2846C53.6764 26.6699 54.0681 27.0617 54.0681 27.4534V35.7453C54.0681 36.1371 53.6764 36.5288 53.2846 36.5288ZM37.6279 34.9488H52.5011V28.3675H37.6279V34.9488Z" fill="#300045"/>
<path d="M50.79 67.8682H24.1906C21.1611 67.8682 18.667 65.3611 18.667 62.3446V44.8337C18.667 44.4419 19.0587 44.0371 19.4635 44.0371C19.8683 44.0371 20.2471 44.4289 20.2471 44.8337V62.3446C20.2471 64.447 21.9577 66.1576 24.06 66.1576H50.6594C51.0512 66.1576 51.4429 66.5494 51.4429 66.9542C51.4429 67.359 51.3123 67.8813 50.79 67.8813V67.8682Z" fill="#300045"/>
<path d="M71.5912 51.4134C71.1994 51.4134 70.8076 51.0216 70.8076 50.6168V44.819C70.8076 44.4273 71.1994 44.0225 71.5912 44.0225C71.9829 44.0225 72.3877 44.4142 72.3877 44.819V50.6168C72.3877 51.0086 71.996 51.4134 71.5912 51.4134Z" fill="#300045"/>
<path d="M55.6613 85.1195H50.9212C50.5295 85.1195 50.1377 84.7277 50.1377 84.336V58.7942C50.1377 58.4025 50.5295 58.0107 50.9212 58.0107H55.9225C56.3143 58.0107 56.706 58.4025 56.706 58.7942C56.706 59.186 56.3143 59.5908 55.9225 59.5908H51.8353V83.4219H55.7788C56.1706 83.4219 56.5754 83.8136 56.5754 84.2054C56.4448 84.7277 56.0531 85.1325 55.6483 85.1325L55.6613 85.1195Z" fill="#300045"/>
<path d="M86.2033 88.409H55.7908C55.399 88.409 55.0073 88.0173 55.0073 87.6256V50.5013C55.0073 50.1095 55.399 49.7178 55.7908 49.7178H78.8254C79.0865 49.7178 79.2171 49.8484 79.3477 49.9789L86.7255 57.3568C86.8561 57.4874 86.9867 57.7485 86.9867 57.8791V87.495C86.9867 88.0173 86.595 88.4221 86.1902 88.4221L86.2033 88.409ZM56.5743 86.6984H85.4066V58.2578L78.4336 51.2847H56.5743V86.6984Z" fill="#300045"/>
<path d="M86.2032 58.7808H78.8253C78.4336 58.7808 78.0288 58.389 78.0288 57.9973V50.6194C78.0288 50.2277 78.4205 49.8359 78.8253 49.8359C79.2301 49.8359 79.6088 50.2277 79.6088 50.6194V57.2007H86.1901C86.5819 57.2007 86.9867 57.5925 86.9867 57.9973C86.9867 58.4021 86.595 58.7808 86.1901 58.7808H86.2032Z" fill="#300045"/>
<path d="M80.4062 79.3189H61.5763C61.1846 79.3189 60.7798 78.9272 60.7798 78.5354C60.7798 78.1437 61.1715 77.752 61.5763 77.752H80.5368C80.9285 77.752 81.3202 78.1437 81.3202 78.5354C81.3202 78.9272 80.9285 79.3189 80.4062 79.3189Z" fill="#300045"/>
<path d="M80.4062 75.2451H61.5763C61.1846 75.2451 60.7798 74.8533 60.7798 74.4485C60.7798 74.0437 61.1715 73.665 61.5763 73.665H80.5368C80.9285 73.665 81.3202 74.0568 81.3202 74.4485C81.3202 74.8403 80.9285 75.2451 80.4062 75.2451Z" fill="#300045"/>
<path d="M80.4062 71.1572H61.5763C61.1846 71.1572 60.7798 70.7654 60.7798 70.3606C60.7798 69.9558 61.1715 69.5771 61.5763 69.5771H80.5368C80.9285 69.5771 81.3202 69.9689 81.3202 70.3606C81.3202 70.7524 80.9285 71.1572 80.4062 71.1572Z" fill="#300045"/>
<path d="M71.4605 66.9423H61.5885C61.1968 66.9423 60.792 66.5506 60.792 66.1458C60.792 65.741 61.1837 65.3623 61.5885 65.3623H71.4605C71.8522 65.3623 72.244 65.754 72.244 66.1458C72.244 66.5375 71.8522 66.9423 71.4605 66.9423Z" fill="#300045"/>
<path d="M23.6683 84.3208C19.9859 84.3208 17.0869 81.4219 17.0869 77.7395C17.0869 74.0571 19.9859 71.1582 23.6683 71.1582C27.3507 71.1582 30.2495 74.0571 30.2495 77.7395C30.2495 81.4219 27.3507 84.3208 23.6683 84.3208ZM23.6683 72.7382C20.8999 72.7382 18.667 74.9712 18.667 77.7395C18.667 80.5078 20.8999 82.6102 23.6683 82.6102C26.4366 82.6102 28.6695 80.3773 28.6695 77.6089C28.6695 74.8406 26.4366 72.7382 23.6683 72.7382Z" fill="#300045"/>
<path d="M82.116 23.3678C79.8831 23.3678 78.0288 21.5265 78.0288 19.2805C78.0288 17.0345 79.87 15.1934 82.116 15.1934C84.362 15.1934 86.1901 17.0345 86.1901 19.2805C86.1901 21.5265 84.349 23.3678 82.116 23.3678ZM82.116 16.7865C80.7971 16.7865 79.6088 17.8442 79.6088 19.2936C79.6088 20.7431 80.6666 21.8008 82.116 21.8008C83.5655 21.8008 84.6232 20.7431 84.6232 19.2936C84.6232 17.8442 83.4349 16.7865 82.116 16.7865Z" fill="#300045"/>
<path d="M40.1216 61.2877H19.5812C19.1895 61.2877 18.7847 60.8959 18.7847 60.5042C18.7847 60.1125 19.1764 59.7207 19.5812 59.7207H40.1216C40.5134 59.7207 40.9052 60.1125 40.9052 60.5042C40.9052 60.8959 40.5134 61.2877 40.1216 61.2877Z" fill="#300045"/>
<path d="M59.8784 38.2528V46.153L50.137 47.3413L51.8477 53.1391H39.4686L41.1792 47.3413L30.2495 46.0224V38.3834C31.3072 37.5999 31.9601 36.4116 31.9601 35.0927V29.9609H30.2495V21.6689H59.8784V29.9609H58.1678V34.9621C58.2984 36.281 58.8207 37.4693 59.8784 38.2528Z" fill="#FFC5CD"/>
<path d="M82.1168 16.001C83.958 16.001 85.4074 17.4504 85.4074 19.2916C85.4074 21.1328 83.958 22.5823 82.1168 22.5823C80.2757 22.5823 78.8262 21.1328 78.8262 19.2916C78.8262 17.4504 80.2757 16.001 82.1168 16.001Z" fill="white"/>
<path d="M23.6689 71.9551C26.8682 71.9551 29.4667 74.5536 29.4667 77.7529C29.4667 80.9521 26.8682 83.5507 23.6689 83.5507C20.4697 83.5507 17.8711 80.9521 17.8711 77.7529C17.8711 74.5536 20.4697 71.9551 23.6689 71.9551Z" fill="white"/>
<path d="M55.9214 16.7835H35.3809C35.3809 15.4646 35.9032 14.1458 36.8303 13.2317C37.7574 12.3046 38.9327 11.7822 40.3822 11.7822H51.0506C53.6884 11.9128 55.9214 14.0152 55.9214 16.7835Z" fill="#FFC5CD"/>
<path d="M53.2844 27.4521H36.8311V35.7441H53.2844V27.4521Z" fill="white"/>
<path d="M62.3733 33.2373H66.4604V34.9479C66.4604 36.2668 65.8075 37.4551 64.7498 38.2386C64.0969 38.7609 63.1698 39.0221 62.2427 39.0221C61.3155 39.0221 60.4015 38.7609 59.7355 38.2386C58.6778 37.4551 58.0249 36.2668 58.0249 34.9479V33.2373H62.3733Z" fill="white"/>
<path d="M27.7424 33.2373H31.8166V34.9479C31.8166 36.2668 31.1637 37.4551 30.1059 38.2386C29.453 38.7609 28.5259 39.0221 27.6118 39.0221C26.6977 39.0221 25.7706 38.7609 25.1047 38.2386C24.0469 37.4551 23.394 36.2668 23.394 34.9479V33.2373H27.7424Z" fill="white"/>
<path d="M66.4607 29.9463V33.2369H62.3735V29.9463H64.8807H66.4607Z" fill="#FFC5CD"/>
<path d="M62.373 29.9463V33.2369H58.2988V29.9463H59.8789H62.373Z" fill="#FFC5CD"/>
<path d="M31.9599 29.9463V33.2369H27.7422V29.9463H30.2493H31.9599Z" fill="#FFC5CD"/>
<path d="M27.7426 29.9463V33.2369H23.6685V29.9463H25.3791H27.7426Z" fill="#FFC5CD"/>
<path d="M64.8802 21.7871V29.9484H62.3731H59.8789V21.7871H64.8802Z" fill="white"/>
<path d="M64.8802 38.2523V45.4865L59.8789 46.1394V38.2393C60.5318 38.7616 61.459 39.0228 62.3731 39.0228C63.2871 39.0228 64.0837 38.631 64.8802 38.2393V38.2523Z" fill="white"/>
<path d="M30.2501 21.7871V29.9484H27.7429H25.3794V21.7871H30.2501Z" fill="white"/>
<path d="M30.2493 38.2513V45.8903L25.248 45.2374V38.1338C25.901 38.6561 26.8281 38.9173 27.7553 38.9173C28.6824 38.9173 29.5964 38.6561 30.2493 38.2644V38.2513Z" fill="white"/>
<path d="M48.5444 52.9961V55.0985C48.5444 56.6785 47.2255 57.9974 45.6455 57.9974C44.0654 57.9974 42.7466 56.6785 42.7466 55.0985V52.9961H48.5444Z" fill="#FFC5CD"/>
<path d="M19.5818 60.358V44.5576L25.3796 45.2105L30.3809 45.8634L41.3106 47.1823L39.4693 52.9801H42.76V55.0825C42.76 56.6625 44.0788 57.9814 45.6589 57.9814C47.2389 57.9814 48.5578 56.6625 48.5578 55.0825V52.9801H51.8484L50.1378 47.1823L59.8792 45.994L64.8805 45.3411L71.5924 44.5576V50.6166H55.792V58.9085H50.7907V67.2005H24.1913C21.5535 67.2005 19.4512 65.0981 19.4512 62.4603V60.358H19.5818Z" fill="white"/>
<path d="M25.3792 38.2531V45.3568L19.5814 44.7039L18.3931 44.4427C16.4213 44.1815 14.8413 42.4709 14.8413 40.3555V25.7435C14.8413 23.5105 16.6825 21.6562 18.9285 21.6562H25.3792V29.9482H23.6686V34.9494C23.6686 36.2683 24.3215 37.4566 25.3792 38.2401V38.2531Z" fill="#FFC5CD"/>
<path d="M76.4622 25.7431V40.2246C76.4622 42.3269 74.8821 44.0376 72.9104 44.3118L71.4609 44.4423L64.749 45.2258V37.9916C65.8067 37.1951 66.4596 36.0199 66.4596 34.701V29.9609H64.749V21.6689H72.3881C74.621 21.7995 76.4622 23.5101 76.4622 25.7562V25.7431Z" fill="#FFC5CD"/>
<path d="M55.7918 58.7793V84.321H55.6613H50.7905V66.9406V58.7793H55.7918Z" fill="white"/>
<path d="M86.2041 57.996H78.8262V50.6182C81.8557 53.5171 83.1746 54.836 86.2041 57.996Z" fill="white"/>
<path d="M86.203 57.9977V87.6135H55.7905V84.3229V58.7812V50.4893H71.5909H78.8251V57.9977H86.203Z" fill="#FFC5CD"/>
<path d="M85.8118 27.583C86.4647 27.583 87.0001 28.1184 87.0001 28.7713C87.0001 29.4242 86.4647 29.9596 85.8118 29.9596C85.1589 29.9596 84.6235 29.4242 84.6235 28.7713C84.6235 28.1184 85.1589 27.583 85.8118 27.583Z" fill="#300045"/>
<path d="M81.7244 44.7037C82.3807 44.7037 82.9127 44.1717 82.9127 43.5154C82.9127 42.8592 82.3807 42.3271 81.7244 42.3271C81.0681 42.3271 80.5361 42.8592 80.5361 43.5154C80.5361 44.1717 81.0681 44.7037 81.7244 44.7037Z" fill="#300045"/>
<path d="M65.2718 13.4941C65.9247 13.4941 66.46 14.0295 66.46 14.6824C66.46 15.3353 65.9247 15.8707 65.2718 15.8707C64.6188 15.8707 64.0835 15.3353 64.0835 14.6824C64.0835 14.0295 64.6188 13.4941 65.2718 13.4941Z" fill="#300045"/>
<path d="M43.8035 80.2461C44.4564 80.2461 44.9917 80.7815 44.9917 81.4344C44.9917 82.0873 44.4564 82.6227 43.8035 82.6227C43.1506 82.6227 42.6152 82.0873 42.6152 81.4344C42.6152 80.7815 43.1506 80.2461 43.8035 80.2461Z" fill="#300045"/>
<path d="M19.9867 12.7119C20.6396 12.7119 21.1749 13.2473 21.1749 13.9002C21.1749 14.5531 20.6396 15.0885 19.9867 15.0885C19.3338 15.0885 18.7983 14.5531 18.7983 13.9002C18.7983 13.2473 19.3338 12.7119 19.9867 12.7119Z" fill="#300045"/>
<path d="M14.1883 61.2871C14.8412 61.2871 15.3766 61.8225 15.3766 62.4754C15.3766 63.1283 14.8412 63.6637 14.1883 63.6637C13.5354 63.6637 13 63.1283 13 62.4754C13 61.8225 13.5354 61.2871 14.1883 61.2871Z" fill="#300045"/>
<path d="M45.6585 58.7805C43.5561 58.7805 41.9761 57.0699 41.9761 55.0981V52.9958C41.9761 52.604 42.3679 52.1992 42.7596 52.1992C43.1514 52.1992 43.5561 52.591 43.5561 52.9958V55.0981C43.5561 56.2864 44.4832 57.2005 45.6585 57.2005C46.8337 57.2005 47.7609 56.2734 47.7609 55.0981V52.9958C47.7609 52.604 48.1526 52.1992 48.5444 52.1992C48.9361 52.1992 49.3278 52.591 49.3278 52.9958V55.0981C49.3278 57.0699 47.6172 58.7805 45.6454 58.7805H45.6585Z" fill="#300045"/>
<path d="M55.9216 17.5813H52.6309C52.2392 17.5813 51.8344 17.1896 51.8344 16.7978C51.8344 16.4061 52.2261 16.0013 52.6309 16.0013H54.9944C54.6027 14.1601 52.8921 12.7106 50.9072 12.7106H40.2387C39.181 12.7106 38.1363 13.1024 37.3398 13.8989C36.8175 14.4212 36.4258 15.2178 36.1515 16.0013H38.5281C38.9199 16.0013 39.3116 16.393 39.3116 16.7978C39.3116 17.2026 38.9199 17.5813 38.5281 17.5813H35.2374C34.8457 17.5813 34.4409 17.1896 34.4409 16.7978C34.4409 15.2178 35.0938 13.7683 36.1515 12.7106C37.2092 11.6529 38.6587 11 40.2387 11H50.9072C54.0673 11 56.705 13.6377 56.705 16.7978C56.705 17.1896 56.3133 17.5813 55.9216 17.5813Z" fill="#300045"/>
<path d="M52.6312 22.5826C52.2394 22.5826 51.8346 22.1909 51.8346 21.7861V17.6989H39.4555V21.7861C39.4555 22.1778 39.0638 22.5826 38.672 22.5826C38.2803 22.5826 37.8755 22.1909 37.8755 21.7861V16.7848C37.8755 16.3931 38.2672 15.9883 38.672 15.9883H52.6312C53.0229 15.9883 53.4146 16.38 53.4146 16.7848V21.7861C53.4146 22.1778 53.0229 22.5826 52.6312 22.5826Z" fill="#300045"/>
<path d="M30.2503 30.7444C29.8585 30.7444 29.4668 30.3527 29.4668 29.9479V21.6559C29.4668 21.2642 29.8585 20.8594 30.2503 20.8594C30.642 20.8594 31.0468 21.2511 31.0468 21.6559V29.9479C31.0468 30.3396 30.6551 30.7444 30.2503 30.7444Z" fill="#300045"/>
<path d="M25.3788 30.7444C24.987 30.7444 24.5952 30.3527 24.5952 29.9479V21.6559C24.5952 21.2642 24.987 20.8594 25.3788 20.8594C25.7705 20.8594 26.1753 21.2511 26.1753 21.6559V29.9479C26.1753 30.3396 25.7836 30.7444 25.3788 30.7444Z" fill="#300045"/>
<path d="M27.7425 39.8322C26.6848 39.8322 25.6401 39.4405 24.713 38.7745C23.3941 37.8474 22.7412 36.411 22.7412 34.8309V29.9603C22.7412 29.5685 23.133 29.1768 23.5247 29.1768H31.8166C32.2084 29.1768 32.6132 29.5685 32.6132 29.9603V34.9615C32.6132 36.5416 31.9602 37.991 30.6414 38.9051C29.8579 39.4274 28.8002 39.8322 27.7425 39.8322ZM24.4518 30.7437V34.8309C24.4518 35.8886 24.9742 36.8027 25.7707 37.4687C26.293 37.8604 27.0896 38.1216 27.7425 38.1216C28.3954 38.1216 29.192 37.8604 29.7143 37.4687C30.5108 36.8158 31.0332 35.8886 31.0332 34.8309V30.7437H24.4518Z" fill="#300045"/>
<path d="M31.9607 34.0338H23.6688C23.277 34.0338 22.8853 33.642 22.8853 33.2503C22.8853 32.8585 23.277 32.4668 23.6688 32.4668H31.9607C32.3524 32.4668 32.7442 32.8585 32.7442 33.2503C32.7442 33.642 32.3524 34.0338 31.9607 34.0338Z" fill="#300045"/>
<path d="M27.7423 36.5289C27.3506 36.5289 26.9458 36.1371 26.9458 35.7454V29.9476C26.9458 29.5558 27.3375 29.1641 27.7423 29.1641C28.1471 29.1641 28.5258 29.5558 28.5258 29.9476V35.7454C28.6564 36.1371 28.2647 36.5289 27.7423 36.5289Z" fill="#300045"/>
<path d="M64.8797 30.7444C64.488 30.7444 64.0962 30.3527 64.0962 29.9479V21.6559C64.0962 21.2642 64.488 20.8594 64.8797 20.8594C65.2715 20.8594 65.6632 21.2511 65.6632 21.6559V29.9479C65.6632 30.3396 65.2715 30.7444 64.8797 30.7444Z" fill="#300045"/>
<path d="M59.8786 30.7444C59.4868 30.7444 59.082 30.3527 59.082 29.9479V21.6559C59.082 21.2642 59.4738 20.8594 59.8786 20.8594C60.2834 20.8594 60.662 21.2511 60.662 21.6559V29.9479C60.662 30.3396 60.2703 30.7444 59.8786 30.7444Z" fill="#300045"/>
<path d="M30.2503 46.6741C29.8585 46.6741 29.4668 46.2824 29.4668 45.8776V38.2386C29.4668 37.8468 29.8585 37.4551 30.2503 37.4551C30.642 37.4551 31.0468 37.8468 31.0468 38.2386V45.8776C31.0468 46.2693 30.6551 46.6741 30.2503 46.6741Z" fill="#300045"/>
<path d="M25.3788 46.1387C24.987 46.1387 24.5952 45.747 24.5952 45.3422V38.2386C24.5952 37.8468 24.987 37.4551 25.3788 37.4551C25.7705 37.4551 26.1753 37.8468 26.1753 38.2386V45.3422C26.1753 45.7339 25.7836 46.1387 25.3788 46.1387Z" fill="#300045"/>
<path d="M64.8797 46.282C64.488 46.282 64.0962 45.8903 64.0962 45.4855V38.2513C64.0962 37.8595 64.488 37.4678 64.8797 37.4678C65.2715 37.4678 65.6632 37.8595 65.6632 38.2513V45.4855C65.6632 45.8772 65.2715 46.282 64.8797 46.282Z" fill="#300045"/>
<path d="M59.8786 46.8064C59.4868 46.8064 59.082 46.4146 59.082 46.0098V38.1097C59.082 37.7179 59.4738 37.3262 59.8786 37.3262C60.2834 37.3262 60.662 37.7179 60.662 38.1097V46.0098C60.662 46.4016 60.2703 46.8064 59.8786 46.8064Z" fill="#300045"/>
<path d="M62.3734 39.8322C61.3157 39.8322 60.271 39.4405 59.3439 38.7745C58.025 37.8474 57.3721 36.411 57.3721 34.8309V29.9603C57.3721 29.5685 57.7638 29.1768 58.1686 29.1768H66.4605C66.8522 29.1768 67.244 29.5685 67.244 29.9603V34.9615C67.244 36.5416 66.5911 37.991 65.2722 38.9051C64.4757 39.4274 63.4311 39.8322 62.3734 39.8322ZM59.0827 30.7437V34.8309C59.0827 35.8886 59.605 36.8027 60.4016 37.4687C60.9239 37.8604 61.7205 38.1216 62.3734 38.1216C63.0263 38.1216 63.8227 37.8604 64.3451 37.4687C65.1286 36.8158 65.664 35.8886 65.664 34.8309V30.7437H59.0827Z" fill="#300045"/>
<path d="M66.4605 34.0338H58.1686C57.7769 34.0338 57.3721 33.642 57.3721 33.2503C57.3721 32.8585 57.7638 32.4668 58.1686 32.4668H66.4605C66.8522 32.4668 67.244 32.8585 67.244 33.2503C67.244 33.642 66.8522 34.0338 66.4605 34.0338Z" fill="#300045"/>
<path d="M62.3724 36.5289C61.9807 36.5289 61.5889 36.1371 61.5889 35.7454V29.9476C61.5889 29.5558 61.9807 29.1641 62.3724 29.1641C62.7641 29.1641 63.1689 29.5558 63.1689 29.9476V35.7454C63.1689 36.1371 62.7772 36.5289 62.3724 36.5289Z" fill="#300045"/>
<path d="M51.8342 53.7789H39.455C39.1938 53.7789 38.9327 53.6483 38.8021 53.5177C38.6715 53.2565 38.541 52.9954 38.6715 52.8648L39.9904 47.9941L18.1311 45.2258C15.637 44.9646 13.7827 42.8623 13.7827 40.3551V25.8736C13.7827 23.1053 16.0156 21.0029 18.6534 21.0029H72.3746C75.1429 21.0029 77.2453 23.2359 77.2453 25.8736V40.3551C77.2453 42.8623 75.4041 44.9646 72.897 45.2258L51.0376 47.9941L52.3564 52.8648C52.487 53.126 52.3565 53.3871 52.2259 53.5177C52.3565 53.6483 52.0953 53.7789 51.8342 53.7789ZM40.5127 52.1988H50.6458L49.3269 47.4587C49.1964 47.1976 49.327 46.9364 49.4576 46.8058C49.5882 46.5447 49.8493 46.4141 49.9798 46.4141L72.7533 43.5152C74.3333 43.254 75.6522 41.9351 75.6522 40.3551V25.8736C75.6522 24.0324 74.2027 22.583 72.3615 22.583H18.7709C16.9297 22.583 15.4803 24.0324 15.4803 25.8736V40.3551C15.4803 41.9351 16.6686 43.3846 18.3792 43.5152L41.1526 46.4141C41.4138 46.4141 41.5443 46.5447 41.6749 46.8058C41.8055 47.067 41.8055 47.1976 41.8055 47.4587L40.4866 52.1988H40.5127Z" fill="#300045"/>
<path d="M53.2846 36.5288H36.8313C36.4396 36.5288 36.0479 36.1371 36.0479 35.7453V27.4534C36.0479 27.0617 36.4396 26.6699 36.8313 26.6699H53.2846C53.6764 26.6699 54.0681 27.0617 54.0681 27.4534V35.7453C54.0681 36.1371 53.6764 36.5288 53.2846 36.5288ZM37.6279 34.9488H52.5011V28.3675H37.6279V34.9488Z" fill="#300045"/>
<path d="M50.79 67.8682H24.1906C21.1611 67.8682 18.667 65.3611 18.667 62.3446V44.8337C18.667 44.4419 19.0587 44.0371 19.4635 44.0371C19.8683 44.0371 20.2471 44.4289 20.2471 44.8337V62.3446C20.2471 64.447 21.9577 66.1576 24.06 66.1576H50.6594C51.0512 66.1576 51.4429 66.5494 51.4429 66.9542C51.4429 67.359 51.3123 67.8813 50.79 67.8813V67.8682Z" fill="#300045"/>
<path d="M71.5912 51.4134C71.1994 51.4134 70.8076 51.0216 70.8076 50.6168V44.819C70.8076 44.4273 71.1994 44.0225 71.5912 44.0225C71.9829 44.0225 72.3877 44.4142 72.3877 44.819V50.6168C72.3877 51.0086 71.996 51.4134 71.5912 51.4134Z" fill="#300045"/>
<path d="M55.6613 85.1195H50.9212C50.5295 85.1195 50.1377 84.7277 50.1377 84.336V58.7942C50.1377 58.4025 50.5295 58.0107 50.9212 58.0107H55.9225C56.3143 58.0107 56.706 58.4025 56.706 58.7942C56.706 59.186 56.3143 59.5908 55.9225 59.5908H51.8353V83.4219H55.7788C56.1706 83.4219 56.5754 83.8136 56.5754 84.2054C56.4448 84.7277 56.0531 85.1325 55.6483 85.1325L55.6613 85.1195Z" fill="#300045"/>
<path d="M86.2033 88.409H55.7908C55.399 88.409 55.0073 88.0173 55.0073 87.6256V50.5013C55.0073 50.1095 55.399 49.7178 55.7908 49.7178H78.8254C79.0865 49.7178 79.2171 49.8484 79.3477 49.9789L86.7255 57.3568C86.8561 57.4874 86.9867 57.7485 86.9867 57.8791V87.495C86.9867 88.0173 86.595 88.4221 86.1902 88.4221L86.2033 88.409ZM56.5743 86.6984H85.4066V58.2578L78.4336 51.2847H56.5743V86.6984Z" fill="#300045"/>
<path d="M86.2032 58.7808H78.8253C78.4336 58.7808 78.0288 58.389 78.0288 57.9973V50.6194C78.0288 50.2277 78.4205 49.8359 78.8253 49.8359C79.2301 49.8359 79.6088 50.2277 79.6088 50.6194V57.2007H86.1901C86.5819 57.2007 86.9867 57.5925 86.9867 57.9973C86.9867 58.4021 86.595 58.7808 86.1901 58.7808H86.2032Z" fill="#300045"/>
<path d="M80.4062 79.3189H61.5763C61.1846 79.3189 60.7798 78.9272 60.7798 78.5354C60.7798 78.1437 61.1715 77.752 61.5763 77.752H80.5368C80.9285 77.752 81.3202 78.1437 81.3202 78.5354C81.3202 78.9272 80.9285 79.3189 80.4062 79.3189Z" fill="#300045"/>
<path d="M80.4062 75.2451H61.5763C61.1846 75.2451 60.7798 74.8533 60.7798 74.4485C60.7798 74.0437 61.1715 73.665 61.5763 73.665H80.5368C80.9285 73.665 81.3202 74.0568 81.3202 74.4485C81.3202 74.8403 80.9285 75.2451 80.4062 75.2451Z" fill="#300045"/>
<path d="M80.4062 71.1572H61.5763C61.1846 71.1572 60.7798 70.7654 60.7798 70.3606C60.7798 69.9558 61.1715 69.5771 61.5763 69.5771H80.5368C80.9285 69.5771 81.3202 69.9689 81.3202 70.3606C81.3202 70.7524 80.9285 71.1572 80.4062 71.1572Z" fill="#300045"/>
<path d="M71.4605 66.9423H61.5885C61.1968 66.9423 60.792 66.5506 60.792 66.1458C60.792 65.741 61.1837 65.3623 61.5885 65.3623H71.4605C71.8522 65.3623 72.244 65.754 72.244 66.1458C72.244 66.5375 71.8522 66.9423 71.4605 66.9423Z" fill="#300045"/>
<path d="M23.6683 84.3208C19.9859 84.3208 17.0869 81.4219 17.0869 77.7395C17.0869 74.0571 19.9859 71.1582 23.6683 71.1582C27.3507 71.1582 30.2495 74.0571 30.2495 77.7395C30.2495 81.4219 27.3507 84.3208 23.6683 84.3208ZM23.6683 72.7382C20.8999 72.7382 18.667 74.9712 18.667 77.7395C18.667 80.5078 20.8999 82.6102 23.6683 82.6102C26.4366 82.6102 28.6695 80.3773 28.6695 77.6089C28.6695 74.8406 26.4366 72.7382 23.6683 72.7382Z" fill="#300045"/>
<path d="M82.116 23.3678C79.8831 23.3678 78.0288 21.5265 78.0288 19.2805C78.0288 17.0345 79.87 15.1934 82.116 15.1934C84.362 15.1934 86.1901 17.0345 86.1901 19.2805C86.1901 21.5265 84.349 23.3678 82.116 23.3678ZM82.116 16.7865C80.7971 16.7865 79.6088 17.8442 79.6088 19.2936C79.6088 20.7431 80.6666 21.8008 82.116 21.8008C83.5655 21.8008 84.6232 20.7431 84.6232 19.2936C84.6232 17.8442 83.4349 16.7865 82.116 16.7865Z" fill="#300045"/>
<path d="M40.1216 61.2877H19.5812C19.1895 61.2877 18.7847 60.8959 18.7847 60.5042C18.7847 60.1125 19.1764 59.7207 19.5812 59.7207H40.1216C40.5134 59.7207 40.9052 60.1125 40.9052 60.5042C40.9052 60.8959 40.5134 61.2877 40.1216 61.2877Z" fill="#300045"/>
</svg>
