<svg width="100" height="100" viewBox="0 0 100 100" fill="none" xmlns="http://www.w3.org/2000/svg">
<path d="M81.2068 34.5283C82.5154 34.5283 83.6945 35.5648 83.6945 36.99C83.6945 38.2857 82.645 39.4517 81.2068 39.4517C79.8982 39.4517 78.7192 38.4152 78.7192 36.99C78.7192 35.5648 79.7687 34.5283 81.2068 34.5283Z" fill="#FFC5CD"/>
<path d="M23.8876 76.6367C25.7144 76.6367 27.1526 78.0619 27.1526 79.8758C27.1526 81.6897 25.7144 83.1149 23.8876 83.1149C22.0607 83.1149 20.6226 81.6897 20.6226 79.8758C20.6226 78.0619 22.0607 76.6367 23.8876 76.6367Z" fill="#FFC5CD"/>
<path d="M40.2525 20.792C43.9191 20.792 46.7954 23.6424 46.7954 27.2702C46.7954 30.898 43.9191 33.7484 40.2525 33.7484C36.5858 33.7484 33.7095 30.898 33.7095 27.2702C33.7095 23.6424 36.5858 20.792 40.2525 20.792Z" fill="#FFC5CD"/>
<path d="M82.127 47.8711C83.5652 55.6449 81.6088 63.5483 76.1023 69.1195C70.6089 74.8203 62.7573 76.8933 54.9058 75.7273C55.5536 71.9699 55.6961 68.3421 55.2944 64.7144C56.2143 60.957 58.1707 57.4588 60.9175 54.6084C66.411 49.0372 74.9233 53.7015 82.1141 47.8711H82.127Z" fill="white"/>
<path d="M75.454 27.0137C76.3739 32.1962 75.0653 37.5083 71.3987 41.3952C67.732 45.1526 62.3681 46.7073 57.1338 45.93C56.2139 40.7474 57.5225 35.4353 61.1891 31.5484C64.8558 27.7911 70.6084 30.9006 75.454 27.0137Z" fill="#FFC5CD"/>
<path d="M55.2936 64.7143C55.6823 68.3421 55.5528 72.0994 54.9049 75.7272C43.7884 77.2819 32.7884 74.1724 25.0664 66.269C17.3445 58.3657 14.5977 47.2232 16.5671 36.3398C26.7767 44.5024 38.6836 37.8946 46.4056 45.798C51.5104 51.1101 54.3867 57.7178 55.3066 64.7143H55.2936Z" fill="white"/>
<path d="M81.5961 19.2383C82.2439 19.2383 82.7751 19.7565 82.7751 20.4043C82.7751 21.0522 82.2569 21.5704 81.5961 21.5704C80.9353 21.5704 80.4171 21.0522 80.4171 20.4043C80.2875 19.7565 80.9353 19.2383 81.5961 19.2383Z" fill="#300045"/>
<path d="M80.8177 74.3037C81.4785 74.3037 81.9967 74.822 81.9967 75.4698C81.9967 76.1176 81.4785 76.6358 80.8177 76.6358C80.1569 76.6358 79.6387 76.1176 79.6387 75.4698C79.6387 74.822 80.0274 74.3037 80.8177 74.3037Z" fill="#300045"/>
<path d="M63.5472 81.5586C64.208 81.5586 64.7262 82.0769 64.7262 82.7247C64.7262 83.3725 64.208 83.8907 63.5472 83.8907C62.8864 83.8907 62.3682 83.3725 62.3682 82.7247C62.3682 82.0769 62.8864 81.5586 63.5472 81.5586Z" fill="#300045"/>
<path d="M57.9107 16C58.5586 16 59.0898 16.5182 59.0898 17.1661C59.0898 17.8139 58.5715 18.3321 57.9107 18.3321C57.25 18.3321 56.7317 17.8139 56.7317 17.1661C56.6022 16.5182 57.1204 16 57.9107 16Z" fill="#300045"/>
<path d="M49.6707 36.2109C50.3315 36.2109 50.8498 36.7292 50.8498 37.377C50.8498 38.0248 50.3315 38.5431 49.6707 38.5431C49.01 38.5431 48.4917 38.0248 48.4917 37.377C48.4917 36.7292 49.01 36.2109 49.6707 36.2109Z" fill="#300045"/>
<path d="M38.2821 80.7822C38.9299 80.7822 39.4611 81.3005 39.4611 81.9483C39.4611 82.5961 38.9428 83.1144 38.2821 83.1144C37.6213 83.1144 37.103 82.5961 37.103 81.9483C37.103 81.3005 37.4917 80.7822 38.2821 80.7822Z" fill="#300045"/>
<path d="M22.7221 23.2549C23.3699 23.2549 23.9011 23.7731 23.9011 24.421C23.9011 25.0688 23.3828 25.587 22.7221 25.587C22.0613 25.587 21.543 25.0688 21.543 24.421C21.4135 23.7731 22.0613 23.2549 22.7221 23.2549Z" fill="#300045"/>
<path d="M16.179 63.6807C16.8269 63.6807 17.3581 64.1989 17.3581 64.8467C17.3581 65.4946 16.8398 66.0128 16.179 66.0128C15.5183 66.0128 15 65.4946 15 64.8467C15 64.1989 15.5183 63.6807 16.179 63.6807Z" fill="#300045"/>
<path d="M55.4242 72.6187C46.0049 72.4892 37.363 68.8614 31.2217 62.5128C30.9626 62.2536 30.9626 61.7354 31.2217 61.3467C31.4808 61.0876 32.012 61.0876 32.4007 61.3467C38.2829 67.4362 46.5361 70.8048 55.4371 70.9344C55.8258 70.9344 56.2274 71.3231 56.2274 71.7118C56.2274 72.23 55.8388 72.6187 55.4371 72.6187H55.4242Z" fill="#300045"/>
<path d="M58.8317 76.8943C57.5231 76.8943 56.0849 76.7647 54.7763 76.6352C54.3876 76.6352 53.986 76.1169 54.1285 75.7282C54.1285 75.3395 54.6468 74.9509 55.0484 75.0804C63.0295 76.2465 70.4924 73.7848 75.5972 68.6022C80.4429 63.6788 82.5289 56.6824 81.6219 49.2973C78.0848 51.6294 74.2886 51.8885 71.0236 52.1477C67.357 52.4068 64.2215 52.6659 61.6043 55.2572C58.9871 57.978 57.1603 61.2171 56.1108 64.9745C55.9813 65.3631 55.5926 65.6223 55.0614 65.4927C54.6727 65.3631 54.4136 64.9745 54.5431 64.4562C55.5926 60.4397 57.549 56.9415 60.4253 53.9615C63.4312 50.9816 67.2274 50.7225 70.894 50.4633C74.5607 50.2042 78.3569 49.9451 81.7515 47.2242C82.0106 47.0947 82.2697 46.9651 82.5418 47.0947C82.8009 47.2242 83.06 47.4834 83.06 47.7425C84.4982 56.0346 82.2697 64.0675 76.7762 69.7683C72.1897 74.303 65.9188 76.8943 58.8446 76.8943H58.8317Z" fill="#300045"/>
<path d="M59.7517 46.8379C58.8318 46.8379 57.9249 46.8379 57.005 46.7083C56.6163 46.7083 56.3442 46.4492 56.3442 46.0605C55.2947 40.3597 56.8625 34.918 60.6587 31.0311C62.7576 28.9581 65.3748 28.699 67.8495 28.5694C70.2075 28.4398 72.8247 28.1807 75.0402 26.3668C75.2994 26.2373 75.5585 26.1077 75.8306 26.2373C76.0897 26.3668 76.3488 26.6259 76.3488 26.8851C77.3983 32.5859 75.8306 38.0276 72.0344 41.9145C68.8989 45.1536 64.4419 46.8379 59.7388 46.8379H59.7517ZM57.7824 45.1536C58.4302 45.2831 59.091 45.2831 59.7388 45.2831C64.0532 45.2831 67.979 43.7284 70.8554 40.7484C73.9908 37.5093 75.429 33.1041 74.9107 28.4398C72.5526 29.865 70.1946 29.9946 67.979 30.1242C65.4914 30.2537 63.3925 30.3833 61.8248 32.0676C58.4172 35.4363 57.1086 40.1006 57.7694 45.1536H57.7824Z" fill="#300045"/>
<path d="M49.4129 77.0241C39.605 77.0241 30.704 73.3963 24.4201 66.9181C16.8277 59.1443 13.6922 47.8723 15.7782 36.3411C15.7782 36.082 16.0373 35.8229 16.2965 35.6933C16.5556 35.5638 16.8147 35.6933 17.0868 35.8229C22.0621 39.8393 27.426 40.0985 32.5308 40.4872C37.8947 40.8759 42.9995 41.2646 47.0549 45.4106C52.1597 50.5931 55.2951 57.3304 56.0855 64.7156C56.4742 68.3433 56.3446 72.2303 55.6968 75.9876C55.6968 76.3763 55.3081 76.6354 55.0489 76.6354C53.2221 76.8945 51.2527 77.0241 49.4259 77.0241H49.4129ZM17.0868 37.7663C15.5191 48.3905 18.6545 58.4965 25.5862 65.6225C31.6109 71.8416 40.1103 75.2102 49.4 75.2102C50.9677 75.2102 52.5354 75.0807 54.1161 74.9511C54.6343 71.4529 54.7639 68.0842 54.3752 64.7156C53.5849 57.7191 50.579 51.3705 45.8759 46.4471C42.2092 42.6898 37.5061 42.4306 32.4013 42.0419C27.5556 41.6532 22.1916 41.2645 17.0868 37.7663Z" fill="#300045"/>
<path d="M40.2523 34.5277C36.1969 34.5277 32.9189 31.2886 32.9189 27.2722C32.9189 23.2557 36.184 20.0166 40.2523 20.0166C44.3205 20.0166 47.5856 23.2557 47.5856 27.2722C47.5856 31.2886 44.3205 34.5277 40.2523 34.5277ZM40.2523 21.5714C37.1168 21.5714 34.4996 24.1626 34.4996 27.2722C34.4996 30.3817 37.1168 32.973 40.2523 32.973C43.3877 32.973 46.0049 30.3817 46.0049 27.2722C46.0049 24.1626 43.3877 21.5714 40.2523 21.5714Z" fill="#300045"/>
<path d="M23.8888 84.0212C21.6603 84.0212 19.8335 82.2073 19.8335 80.0048C19.8335 77.8022 21.6603 75.9883 23.8888 75.9883C26.1173 75.9883 27.9442 77.8022 27.9442 80.0048C27.9442 82.0778 26.1173 84.0212 23.8888 84.0212ZM23.8888 77.5431C22.5803 77.5431 21.4012 78.5796 21.4012 80.0048C21.4012 81.3004 22.4507 82.4665 23.8888 82.4665C25.1974 82.4665 26.3764 81.43 26.3764 80.0048C26.3764 78.5796 25.1974 77.5431 23.8888 77.5431Z" fill="#300045"/>
<path d="M81.2076 40.2262C79.3808 40.2262 77.9297 38.801 77.9297 36.9871C77.9297 35.1732 79.3678 33.748 81.2076 33.748C83.0474 33.748 84.4726 35.1732 84.4726 36.9871C84.4726 38.801 82.9049 40.2262 81.2076 40.2262ZM81.2076 35.4324C80.2877 35.4324 79.5104 36.2098 79.5104 37.1167C79.5104 38.0236 80.3007 38.801 81.2076 38.801C82.1146 38.801 82.9049 38.0236 82.9049 37.1167C82.7754 36.0802 82.1146 35.4324 81.2076 35.4324Z" fill="#300045"/>
</svg>
