<svg width="100" height="100" viewBox="0 0 100 100" fill="none" xmlns="http://www.w3.org/2000/svg">
<path d="M16.4712 83.7464H67.4433L75.583 50.2676H23.9592L16.4712 83.7464Z" fill="#FFC5CD"/>
<path d="M62.5368 72.501H56.8633V77.3567H62.5368V72.501Z" fill="white"/>
<path d="M53.6296 72.501H47.9561V77.3567H53.6296V72.501Z" fill="white"/>
<path d="M62.5368 64.5801H56.8633V69.4358H62.5368V64.5801Z" fill="white"/>
<path d="M53.6296 64.5801H47.9561V69.4358H53.6296V64.5801Z" fill="white"/>
<path d="M62.5368 56.5293H56.8633V61.385H62.5368V56.5293Z" fill="white"/>
<path d="M53.6296 56.5293H47.9561V61.385H53.6296V56.5293Z" fill="white"/>
<path d="M17.6345 76.2053C16.5995 74.2886 16.0884 72.2441 16.0884 69.944C16.0884 65.3438 18.2862 61.3826 21.7619 58.827C24.0875 57.1658 26.9243 56.1436 29.8888 56.1436C37.5046 56.1436 43.8298 62.2771 43.8298 69.944C43.8298 77.6109 37.6324 83.7444 29.8888 83.7444C24.5986 83.7444 19.9474 80.6776 17.6345 76.2053Z" fill="white"/>
<path d="M22.1447 22.1553C25.2753 22.1553 27.8182 24.6726 27.8182 27.7777C27.8182 30.8828 25.2753 33.4001 22.1447 33.4001C19.014 33.4001 16.4712 30.8828 16.4712 27.7777C16.4712 24.6726 19.014 22.1553 22.1447 22.1553Z" fill="#FFC5CD"/>
<path d="M74.5475 75.6963L82.0227 83.7465H67.4429L74.5475 75.6963Z" fill="#FFC5CD"/>
<path d="M62.6773 39.2783H72.3504H78.2922L75.5833 50.2675H23.9595L26.6684 39.2783H33.6325H43.3184H52.9915H62.6773Z" fill="white"/>
<path d="M78.2915 39.2783L82.0227 83.7463L74.5475 75.6961L67.4429 83.7463L75.5826 50.2675L78.2915 39.2783Z" fill="white"/>
<path d="M83.8371 38.127C84.476 38.127 84.9999 38.6381 84.9999 39.277C84.9999 39.9159 84.4888 40.427 83.8371 40.427C83.1854 40.427 82.6743 39.9159 82.6743 39.277C82.6743 38.6381 83.1854 38.127 83.8371 38.127Z" fill="#300045"/>
<path d="M83.8371 60.4902C84.476 60.4902 84.9999 61.0014 84.9999 61.6403C84.9999 62.2792 84.4888 62.7903 83.8371 62.7903C83.1854 62.7903 82.6743 62.2792 82.6743 61.6403C82.6743 61.0014 83.1854 60.4902 83.8371 60.4902Z" fill="#300045"/>
<path d="M64.4791 16.6621C65.1307 16.6621 65.6419 17.1732 65.6419 17.8121C65.6419 18.4511 65.1307 18.9622 64.4791 18.9622C63.8274 18.9622 63.3162 18.4511 63.3162 17.8121C63.1885 17.1732 63.8274 16.6621 64.4791 16.6621Z" fill="#300045"/>
<path d="M48.3531 21.3896C48.992 21.3896 49.5159 21.9008 49.5159 22.5397C49.5159 23.1786 49.0048 23.6897 48.3531 23.6897C47.7014 23.6897 47.1903 23.1786 47.1903 22.5397C47.0625 21.9008 47.7014 21.3896 48.3531 21.3896Z" fill="#300045"/>
<path d="M28.2141 15C28.853 15 29.3769 15.5111 29.3769 16.15C29.3769 16.7889 28.8658 17.3001 28.2141 17.3001C27.5624 17.3001 27.0513 16.7889 27.0513 16.15C26.9235 15.5111 27.4346 15 28.2141 15Z" fill="#300045"/>
<path d="M19.7041 42.3455C19.8318 42.9844 19.3207 43.6233 18.669 43.7511C18.0301 43.8789 17.3784 43.3677 17.2507 42.7288C17.1229 42.0899 17.634 41.451 18.2857 41.3232C18.9246 41.3232 19.5763 41.7066 19.7041 42.3455Z" fill="#300045"/>
<path d="M75.584 51.1629H75.3284C74.9451 51.0352 74.6895 50.6518 74.6895 50.1407L77.2707 40.0459H27.3336L24.6246 50.524C24.4968 50.9074 24.1135 51.1629 23.5896 51.1629C23.2062 51.0352 22.9507 50.6518 22.9507 50.1407L25.7874 39.0237C25.9152 38.6403 26.1708 38.3848 26.5669 38.3848H78.1907C78.4463 38.3848 78.7018 38.5126 78.8296 38.6403C78.9574 38.8959 79.0852 39.1515 78.9574 39.2792L76.1207 50.3962C76.2484 50.9074 75.8651 51.1629 75.6095 51.1629H75.584Z" fill="#300045"/>
<path d="M82.0239 84.5119C81.9387 84.5119 81.9387 84.5119 82.0239 84.5119H67.444C67.1884 84.5119 66.8051 84.3841 66.6645 84.0007C66.5367 83.7452 66.5367 83.3618 66.7923 83.1063L73.8842 75.056C74.0119 74.9282 74.2675 74.8004 74.5358 74.8004C74.8042 74.8004 74.9192 74.9282 75.1748 75.056L80.9761 81.3173L77.4876 39.1494C77.4876 38.766 77.7432 38.3827 78.2671 38.2549C78.6504 38.2549 79.0465 38.5104 79.1743 39.0216L82.7906 83.4896V83.6174V83.7452C82.7906 83.8729 82.6628 84.1285 82.535 84.2563C82.2794 84.3841 82.1516 84.5119 82.0239 84.5119ZM69.2585 82.8507H80.0944L74.5486 76.845L69.2585 82.8507Z" fill="#300045"/>
<path d="M38.4113 44.7741C35.319 44.7741 32.8656 42.3462 32.7378 39.2795V39.1517C32.7378 36.0849 35.319 33.5293 38.4113 33.5293C41.5036 33.5293 44.0848 36.0849 44.0848 39.1517C44.0848 39.535 43.7015 39.9184 43.3053 39.9184C42.9092 39.9184 42.5259 39.535 42.5259 39.1517C42.5259 36.9794 40.7241 35.1905 38.5263 35.1905C36.3285 35.1905 34.5267 36.9794 34.5267 39.1517C34.5267 41.324 36.3285 43.1129 38.5263 43.1129C38.9096 43.1129 39.3058 43.4963 39.3058 43.8796C39.178 44.3907 38.7946 44.7741 38.3985 44.7741H38.4113Z" fill="#300045"/>
<path d="M48.0846 44.7741C44.9923 44.7741 42.5389 42.3462 42.4111 39.2795V39.1517C42.4111 36.0849 44.9923 33.5293 48.0846 33.5293C51.177 33.5293 53.7582 36.0849 53.7582 39.1517C53.7582 39.535 53.3748 39.9184 52.9787 39.9184C52.5826 39.9184 52.1992 39.535 52.1992 39.1517C52.1992 36.9794 50.3975 35.1905 48.1997 35.1905C46.0018 35.1905 44.2001 36.9794 44.2001 39.1517C44.2001 41.324 46.0018 43.1129 48.1997 43.1129C48.583 43.1129 48.9791 43.4963 48.9791 43.8796C48.8513 44.3907 48.468 44.7741 48.0719 44.7741H48.0846Z" fill="#300045"/>
<path d="M57.7707 44.7741C54.6784 44.7741 52.2249 42.3462 52.0972 39.2795V39.1517C52.0972 36.0849 54.6784 33.5293 57.7707 33.5293C60.863 33.5293 63.4442 36.0849 63.4442 39.1517C63.4442 39.535 63.0608 39.9184 62.6647 39.9184C62.2686 39.9184 61.8853 39.535 61.8853 39.1517C61.8853 36.9794 60.0835 35.1905 57.8857 35.1905C55.6878 35.1905 53.8861 36.9794 53.8861 39.1517C53.8861 41.324 55.6878 43.1129 57.8857 43.1129C58.269 43.1129 58.6651 43.4963 58.6651 43.8796C58.5374 44.3907 58.154 44.7741 57.7579 44.7741H57.7707Z" fill="#300045"/>
<path d="M67.4435 44.7741C64.3512 44.7741 61.8978 42.3462 61.77 39.2795V39.1517C61.77 36.0849 64.3512 33.5293 67.4435 33.5293C70.5358 33.5293 73.117 36.0849 73.117 39.1517C73.117 39.535 72.7337 39.9184 72.3376 39.9184C71.9414 39.9184 71.5581 39.535 71.5581 39.1517C71.5581 36.9794 69.7564 35.1905 67.5585 35.1905C65.3607 35.1905 63.559 36.9794 63.559 39.1517C63.559 41.324 65.3607 43.1129 67.5585 43.1129C67.9419 43.1129 68.338 43.4963 68.338 43.8796C68.2102 44.3907 67.8269 44.7741 67.4307 44.7741H67.4435Z" fill="#300045"/>
<path d="M67.4434 84.5133H15.8196C15.564 84.5133 15.3085 84.3855 15.1807 84.2577C15.0529 84.0022 14.9251 83.8744 15.0529 83.6188L16.8546 76.0797C16.9824 75.6964 17.5063 75.4408 17.8897 75.5686C18.273 75.6964 18.5286 76.0797 18.4008 76.5908L16.8546 83.1077H66.7917L74.5353 51.2901H24.4577L22.5154 59.2125C22.3876 59.5959 22.0043 59.8514 21.4804 59.8514C21.097 59.7237 20.8287 59.3403 20.8287 58.8292L22.8987 50.2678C23.0265 49.8845 23.2821 49.6289 23.6782 49.6289H75.302C75.5576 49.6289 75.8131 49.7567 75.9537 49.8845C76.0815 50.14 76.2093 50.2678 76.0815 50.5234L67.9546 83.8744C68.0823 84.2577 67.8268 84.5133 67.4434 84.5133Z" fill="#300045"/>
<path d="M30.0168 62.4074C29.6334 62.4074 29.2373 62.024 29.2373 61.6407V59.0851C29.2373 58.7017 29.6207 58.3184 30.0168 58.3184C30.4129 58.3184 30.7962 58.7017 30.7962 59.0851V61.6407C30.7962 62.024 30.4129 62.4074 30.0168 62.4074Z" fill="#300045"/>
<path d="M34.2841 63.4294C34.1563 63.4294 34.0285 63.4294 33.9007 63.3017C33.5174 63.0461 33.3896 62.535 33.6452 62.1516L34.9358 59.9793C35.1913 59.596 35.7152 59.4682 36.0986 59.7238C36.4819 59.9793 36.6097 60.4905 36.3541 60.8738L35.0635 63.0461C34.808 63.3017 34.5524 63.4294 34.2841 63.4294Z" fill="#300045"/>
<path d="M37.3764 66.4969C37.1208 66.4969 36.8652 66.3691 36.7375 66.1135C36.4819 65.7302 36.6097 65.2191 36.993 64.9635L39.1909 63.6857C39.5742 63.4301 40.0981 63.5579 40.3537 63.9413C40.6092 64.3246 40.4814 64.8357 40.0981 65.0913L37.9003 66.3691C37.6447 66.4969 37.5169 66.4969 37.3891 66.4969H37.3764Z" fill="#300045"/>
<path d="M41.1199 70.7131H38.5387C38.1554 70.7131 37.7593 70.3297 37.7593 69.9464C37.7593 69.563 38.1426 69.1797 38.5387 69.1797H41.1199C41.5033 69.1797 41.8994 69.563 41.8994 69.9464C41.8994 70.3297 41.5161 70.7131 41.1199 70.7131Z" fill="#300045"/>
<path d="M39.5742 76.2068C39.4464 76.2068 39.3186 76.2069 39.1909 76.0791L36.993 74.8013C36.6097 74.5457 36.4819 74.0346 36.7375 73.6512C36.993 73.2679 37.5169 73.1401 37.9003 73.3957L40.0981 74.6735C40.4814 74.929 40.6092 75.4402 40.3537 75.8235C40.0981 76.0791 39.8425 76.2068 39.5742 76.2068Z" fill="#300045"/>
<path d="M35.5752 80.2966C35.3197 80.2966 35.0641 80.1689 34.9235 79.9133L33.633 77.741C33.3774 77.3577 33.5052 76.8465 33.8885 76.591C34.2719 76.3354 34.7958 76.4632 35.0513 76.8465L36.3419 79.0188C36.5975 79.4022 36.4697 79.9133 36.0864 80.1689C35.8308 80.1689 35.703 80.2966 35.5752 80.2966Z" fill="#300045"/>
<path d="M30.0168 81.7023C29.6334 81.7023 29.2373 81.3189 29.2373 80.9356V78.38C29.2373 77.9966 29.6207 77.6133 30.0168 77.6133C30.4129 77.6133 30.7962 77.9966 30.7962 78.38V80.9356C30.7962 81.3189 30.4129 81.7023 30.0168 81.7023Z" fill="#300045"/>
<path d="M24.4711 80.2966C24.3433 80.2966 24.2155 80.2966 24.0877 80.1689C23.7044 79.9133 23.5766 79.4022 23.8322 79.0188L25.1228 76.8465C25.3783 76.4632 25.9022 76.3354 26.2856 76.591C26.6689 76.8465 26.7967 77.3577 26.5411 77.741L25.2506 79.9133C24.995 80.0411 24.7394 80.2966 24.4711 80.2966Z" fill="#300045"/>
<path d="M20.4711 76.2068C20.2155 76.2068 19.96 76.0791 19.8322 75.8235C19.5766 75.4402 19.7044 74.929 20.0878 74.6735L22.2856 73.3957C22.6689 73.1401 23.1928 73.2679 23.4484 73.6512C23.704 74.0346 23.5762 74.5457 23.1928 74.8013L20.995 76.0791C20.7394 76.2069 20.6117 76.2068 20.4839 76.2068H20.4711Z" fill="#300045"/>
<path d="M21.5057 70.7131H18.9245C18.5411 70.7131 18.145 70.3297 18.145 69.9464C18.145 69.563 18.5284 69.1797 18.9245 69.1797H21.5057C21.889 69.1797 22.2851 69.563 22.2851 69.9464C22.2851 70.3297 22.0296 70.7131 21.5057 70.7131Z" fill="#300045"/>
<path d="M22.6689 66.4969C22.5411 66.4969 22.4134 66.4969 22.2856 66.3691L20.0878 65.0913C19.7044 64.8357 19.5766 64.3246 19.8322 63.9413C20.0877 63.5579 20.6116 63.4301 20.995 63.6857L23.1928 64.9635C23.5762 65.2191 23.704 65.7302 23.4484 66.1135C23.1928 66.3691 22.9373 66.4969 22.6689 66.4969Z" fill="#300045"/>
<path d="M25.7617 63.4294C25.5061 63.4294 25.2505 63.3017 25.1228 63.0461L23.8322 60.8738C23.5766 60.4905 23.7044 59.9793 24.0877 59.7238C24.4711 59.4682 24.995 59.596 25.2506 59.9793L26.5411 62.1516C26.7967 62.535 26.6689 63.0461 26.2856 63.3017C26.03 63.4294 25.9022 63.4294 25.7745 63.4294H25.7617Z" fill="#300045"/>
<path d="M33.633 71.3521H30.0168C29.6334 71.3521 29.2373 70.9687 29.2373 70.5854V64.963C29.2373 64.5796 29.6207 64.1963 30.0168 64.1963C30.4129 64.1963 30.7962 64.5796 30.7962 64.963V69.8187H33.633C34.0163 69.8187 34.4125 70.202 34.4125 70.5854C34.4125 70.9687 34.1569 71.3521 33.633 71.3521Z" fill="#300045"/>
<path d="M30.0164 84.5122C24.4707 84.5122 19.4361 81.4454 16.9827 76.5897C15.9477 74.5452 15.4365 72.2451 15.4365 69.945C15.4365 65.3449 17.6344 61.0003 21.5062 58.1891C24.0873 56.4002 27.0519 55.3779 30.157 55.3779C38.2839 55.3779 44.8647 61.8948 44.8647 69.945C44.8647 77.9953 38.1561 84.5122 30.0292 84.5122H30.0164ZM30.0164 57.0391C27.1797 57.0391 24.5985 57.9336 22.2729 59.5947C18.9122 62.0226 16.9827 65.9838 16.9827 70.0728C16.9827 72.1173 17.4938 74.1618 18.4011 75.9508C20.5989 80.2954 25.1096 82.9788 30.0164 82.9788C37.2489 82.9788 43.0501 77.2286 43.0501 70.0728C43.0501 62.9171 37.2489 57.0391 30.0164 57.0391Z" fill="#300045"/>
<path d="M53.6434 78.1235H47.9699C47.5866 78.1235 47.1904 77.7401 47.1904 77.3568V72.5011C47.1904 72.1177 47.5738 71.7344 47.9699 71.7344H53.6434C54.0268 71.7344 54.4229 72.1177 54.4229 72.5011V77.3568C54.4229 77.7401 54.0395 78.1235 53.6434 78.1235ZM48.7366 76.4623H52.7362V73.2678H48.7366V76.4623Z" fill="#300045"/>
<path d="M62.4095 78.1235H56.736C56.3527 78.1235 55.9565 77.7401 55.9565 77.3568V72.5011C55.9565 72.1177 56.3399 71.7344 56.736 71.7344H62.4095C62.7929 71.7344 63.189 72.1177 63.189 72.5011V77.3568C63.3168 77.7401 62.9334 78.1235 62.4095 78.1235ZM57.6433 76.4623H61.6428V73.2678H57.6433V76.4623Z" fill="#300045"/>
<path d="M53.6434 70.0727H47.9699C47.5866 70.0727 47.1904 69.6893 47.1904 69.306V64.4503C47.1904 64.0669 47.5738 63.6836 47.9699 63.6836H53.6434C54.0268 63.6836 54.4229 64.0669 54.4229 64.4503V69.306C54.4229 69.8171 54.0395 70.0727 53.6434 70.0727ZM48.7366 68.5393H52.7362V65.3448H48.7366V68.5393Z" fill="#300045"/>
<path d="M62.4095 70.0727H56.736C56.3527 70.0727 55.9565 69.6893 55.9565 69.306V64.4503C55.9565 64.0669 56.3399 63.6836 56.736 63.6836H62.4095C62.7929 63.6836 63.189 64.0669 63.189 64.4503V69.306C63.3168 69.8171 62.9334 70.0727 62.4095 70.0727ZM57.6433 68.5393H61.6428V65.3448H57.6433V68.5393Z" fill="#300045"/>
<path d="M53.6434 62.1518H47.9699C47.5866 62.1518 47.1904 61.7684 47.1904 61.3851V56.5294C47.1904 56.146 47.5738 55.7627 47.9699 55.7627H53.6434C54.0268 55.7627 54.4229 56.146 54.4229 56.5294V61.3851C54.4229 61.7684 54.0395 62.1518 53.6434 62.1518ZM48.7366 60.4906H52.7362V57.2961H48.7366V60.4906Z" fill="#300045"/>
<path d="M62.4095 62.1518H56.736C56.3527 62.1518 55.9565 61.7684 55.9565 61.3851V56.5294C55.9565 56.146 56.3399 55.7627 56.736 55.7627H62.4095C62.7929 55.7627 63.189 56.146 63.189 56.5294V61.3851C63.3168 61.7684 62.9334 62.1518 62.4095 62.1518ZM57.6433 60.4906H61.6428V57.2961H57.6433V60.4906Z" fill="#300045"/>
<path d="M22.1439 34.1678C18.5277 34.1678 15.6909 31.3566 15.6909 27.7787C15.6909 24.2008 18.5277 21.3896 22.1439 21.3896C25.7601 21.3896 28.5969 24.2008 28.5969 27.7787C28.5969 31.3566 25.6323 34.1678 22.1439 34.1678ZM22.1439 23.0508C19.4349 23.0508 17.2371 25.2231 17.2371 27.9065C17.2371 30.5899 19.4349 32.7622 22.1439 32.7622C24.8528 32.7622 27.0507 30.5899 27.0507 27.9065C27.0507 25.2231 24.7251 23.0508 22.1439 23.0508Z" fill="#300045"/>
<path d="M77.7684 21.8994C79.6212 21.8994 81.129 23.3817 81.129 25.2217C81.129 27.0618 79.6212 28.5441 77.7684 28.5441C75.9155 28.5441 74.4077 27.0618 74.4077 25.2217C74.4077 23.3817 75.9155 21.8994 77.7684 21.8994Z" fill="#FFC5CD"/>
<path d="M77.768 29.3118C75.4424 29.3118 73.6406 27.5229 73.6406 25.2228C73.6406 22.9227 75.4424 21.1338 77.768 21.1338C80.0936 21.1338 81.8953 22.9227 81.8953 25.2228C81.8953 27.5229 80.0936 29.3118 77.768 29.3118ZM77.768 22.4116C76.2218 22.4116 74.8034 23.6894 74.8034 25.3506C74.8034 27.0118 76.094 28.2896 77.768 28.2896C79.4419 28.2896 80.7325 27.0118 80.7325 25.3506C80.7325 23.6894 79.3141 22.4116 77.768 22.4116Z" fill="#300045"/>
</svg>
