<svg width="100" height="100" viewBox="0 0 100 100" fill="none" xmlns="http://www.w3.org/2000/svg">
<path d="M84.0841 58.4972H70.6585C71.2478 41.9832 57.115 29.2648 41.1904 30.9268C43.9251 22.2514 51.9993 15.957 61.5116 15.957C73.2752 15.957 82.7875 25.4693 82.7875 37.233C82.7875 43.1737 80.4065 48.5251 76.4932 52.3206L84.0959 58.4972H84.0841Z" fill="white"/>
<path d="M79.9237 18.208C80.5131 18.208 80.9963 18.6913 80.9963 19.2806C80.9963 19.87 80.5131 20.3533 79.9237 20.3533C79.3344 20.3533 78.8511 19.87 78.8511 19.2806C78.8511 18.6913 79.3344 18.208 79.9237 18.208Z" fill="#300045"/>
<path d="M79.2167 66.4512C79.806 66.4512 80.2893 66.9344 80.2893 67.5238C80.2893 68.1131 79.806 68.5964 79.2167 68.5964C78.6273 68.5964 78.144 68.1131 78.144 67.5238C78.144 66.9344 78.6273 66.4512 79.2167 66.4512Z" fill="#300045"/>
<path d="M75.173 73.8174C76.835 73.8174 78.1434 75.1258 78.1434 76.7877C78.1434 78.4497 76.835 79.7581 75.173 79.7581C73.511 79.7581 72.2026 78.4497 72.2026 76.7877C72.2026 75.1258 73.511 73.8174 75.173 73.8174Z" fill="white"/>
<path d="M43.9253 84.2726H15.7656L25.1483 76.5519C20.2801 71.6838 17.3097 65.024 17.3097 57.5391C17.3097 42.8051 29.3091 30.7939 44.055 30.7939C58.8008 30.7939 70.6705 42.6754 70.6705 57.5391C70.6705 72.4028 58.6711 84.2726 43.9253 84.2726Z" fill="#FFC5CD"/>
<path d="M65.7904 81.9031C66.3828 81.9031 66.863 81.4229 66.863 80.8305C66.863 80.2381 66.3828 79.7578 65.7904 79.7578C65.198 79.7578 64.7178 80.2381 64.7178 80.8305C64.7178 81.4229 65.198 81.9031 65.7904 81.9031Z" fill="#300045"/>
<path d="M55.806 47.0828C56.9965 47.0828 58.0691 48.0375 58.0691 49.3459C58.0691 49.9353 57.8334 50.5364 57.3501 50.8901C56.9965 51.2437 56.3953 51.4794 55.806 51.4794H32.0429C30.8524 51.4794 29.7798 50.5246 29.7798 49.2163C29.7798 48.6269 30.0155 48.0257 30.3691 47.6721C30.7228 47.3185 31.3239 46.9531 31.9133 46.9531L55.806 47.071V47.0828Z" fill="white"/>
<path d="M55.806 55.9959C56.9965 55.9959 58.0691 56.9506 58.0691 58.259C58.0691 58.8484 57.8334 59.4495 57.3501 59.8031C56.9965 60.1568 56.3953 60.3925 55.806 60.3925H32.0429C30.8524 60.3925 29.7798 59.4377 29.7798 58.1293C29.7798 57.54 30.0155 56.9388 30.3691 56.5852C30.7228 56.2316 31.3239 55.8662 31.9133 55.8662L55.806 55.9841V55.9959Z" fill="white"/>
<path d="M55.806 64.9079C56.9965 64.9079 58.0691 65.8627 58.0691 67.171C58.0691 67.7604 57.8334 68.3616 57.3501 68.7152C56.9965 69.0688 56.3953 69.3045 55.806 69.3045H32.0429C30.8524 69.3045 29.7798 68.3498 29.7798 67.0414C29.7798 66.452 30.0155 65.8509 30.3691 65.4972C30.7228 65.1436 31.3239 64.79 31.9133 64.79L55.806 64.9079Z" fill="white"/>
<path d="M35.3676 19.9854C35.9569 19.9854 36.4402 20.4686 36.4402 21.058C36.4402 21.6474 35.9569 22.1306 35.3676 22.1306C34.7782 22.1306 34.2949 21.6474 34.2949 21.058C34.2949 20.4686 34.7782 19.9854 35.3676 19.9854Z" fill="#300045"/>
<path d="M23.1212 20.3379C26.0091 20.3379 28.3548 22.6836 28.3548 25.5714C28.3548 28.4593 26.0091 30.8049 23.1212 30.8049C20.2334 30.8049 17.8877 28.4593 17.8877 25.5714C17.8877 22.6836 20.2334 20.3379 23.1212 20.3379Z" fill="white"/>
<path d="M19.078 36.7461C19.6674 36.7461 20.1506 37.2294 20.1506 37.8187C20.1506 38.4081 19.6674 38.8914 19.078 38.8914C18.4887 38.8914 18.0054 38.4081 18.0054 37.8187C18.0054 37.2294 18.4887 36.7461 19.078 36.7461Z" fill="#300045"/>
<path d="M18.2523 74.6543C18.8417 74.6543 19.325 75.1376 19.325 75.7269C19.325 76.3163 18.8417 76.7996 18.2523 76.7996C17.663 76.7996 17.1797 76.3163 17.1797 75.7269C17.1797 75.1376 17.663 74.6543 18.2523 74.6543Z" fill="#300045"/>
<path d="M84.0843 59.32H70.6587C70.305 59.32 69.9396 58.9663 69.9396 58.6127C69.9396 58.2591 70.1754 57.7758 70.6587 57.7758H81.9508L76.01 52.9077C75.8922 52.7898 75.7743 52.5541 75.7743 52.3183C75.7743 52.0826 75.8922 51.9647 76.01 51.729C79.9352 47.8038 82.0687 42.7 82.0687 37.1128C82.0687 25.8207 72.8039 16.5559 61.5118 16.5559C52.4828 16.5559 44.5146 22.3788 41.8978 31.0542C41.78 31.4078 41.3085 31.6436 40.9431 31.5257C40.5894 31.4078 40.3537 30.9363 40.4716 30.5709C41.78 26.1743 44.6325 22.2492 48.3101 19.3966C52.1173 16.5441 56.7497 15 61.5 15C73.6172 15 83.601 24.8659 83.601 37.101C83.601 42.8061 81.4675 48.0396 77.6603 52.1887L84.5558 57.8937C84.7915 58.1295 84.9094 58.3652 84.7915 58.7306C84.5558 59.0842 84.32 59.32 84.0843 59.32Z" fill="#300045"/>
<path d="M43.9249 84.9947H15.7653C15.4116 84.9947 15.1759 84.759 15.0462 84.5232C14.9284 84.2875 15.0462 83.9339 15.282 83.6863L24.0752 76.4372C19.2071 71.3333 16.5904 64.6735 16.5904 57.5423C16.5904 50.411 19.0893 44.1166 23.7216 39.1189C28.2361 34.1329 34.5305 30.915 41.1903 30.2077C42.1451 30.0899 43.088 30.0898 44.0428 30.0898C59.2483 30.0898 71.4952 42.4546 71.4952 57.5423V58.6149C71.2595 65.7462 68.2891 72.406 63.0556 77.2741C57.8221 82.2601 51.0562 84.9947 43.9249 84.9947ZM17.7809 83.4506H43.9249C57.9517 83.4506 69.3618 72.5121 69.9511 58.4971V57.4244C69.9511 43.044 58.3053 31.3982 43.9249 31.3982C42.9702 31.3982 42.1451 31.3982 41.1903 31.5161C27.8825 32.8245 17.8987 43.9988 17.8987 57.4244C17.8987 64.4378 20.6334 70.9679 25.6194 75.8478C25.7372 75.9657 25.8551 76.2014 25.8551 76.4372C25.8551 76.6729 25.7372 76.7908 25.6194 77.0265L17.7809 83.4388V83.4506Z" fill="#300045"/>
<path d="M55.8067 61.2298H32.0436C30.3816 61.2298 29.0732 59.9214 29.0732 58.2594C29.0732 57.4225 29.4269 56.7153 29.9101 56.1259C30.4995 55.5366 31.2185 55.2891 32.0436 55.2891H55.8067C57.4687 55.2891 58.777 56.5974 58.777 58.2594C58.777 59.0963 58.4234 59.8036 57.9402 60.4047C57.3508 60.8762 56.6318 61.2416 55.8067 61.2416V61.2298ZM32.0318 56.7035C31.6782 56.7035 31.3128 56.8214 30.9592 57.175C30.7235 57.4107 30.4877 57.894 30.4877 58.2476C30.4877 59.0845 31.1949 59.7918 32.0318 59.7918H55.7949C56.1485 59.7918 56.5021 59.6739 56.8675 59.3203C57.1033 59.0845 57.339 58.613 57.339 58.2476C57.339 57.4107 56.6318 56.7035 55.7949 56.7035H32.0318Z" fill="#300045"/>
<path d="M55.8067 52.306H32.0436C30.3816 52.306 29.0732 50.9976 29.0732 49.3356C29.0732 48.4987 29.4269 47.7915 29.9101 47.2021C30.4995 46.6128 31.2185 46.3652 32.0436 46.3652H55.8067C57.4687 46.3652 58.777 47.6736 58.777 49.3356C58.777 50.1725 58.4234 50.8797 57.9402 51.4809C57.3508 51.9524 56.6318 52.3178 55.8067 52.3178V52.306ZM32.0318 47.7915C31.6782 47.7915 31.3128 47.9093 30.9592 48.263C30.7235 48.4987 30.4877 48.982 30.4877 49.3356C30.4877 50.1725 31.1949 50.8797 32.0318 50.8797H55.7949C56.1485 50.8797 56.5021 50.7619 56.8675 50.4082C57.1033 50.1725 57.339 49.701 57.339 49.3356C57.339 48.4987 56.6318 47.7915 55.7949 47.7915H32.0318Z" fill="#300045"/>
<path d="M55.8067 70.1409H32.0436C30.3816 70.1409 29.0732 68.8326 29.0732 67.1706C29.0732 66.3337 29.4269 65.6264 29.9101 65.0371C30.4995 64.4477 31.2185 64.2002 32.0436 64.2002H55.8067C57.4687 64.2002 58.777 65.5086 58.777 67.1706C58.777 68.0075 58.4234 68.7147 57.9402 69.3158C57.3508 69.7873 56.6318 70.1527 55.8067 70.1527V70.1409ZM32.0318 65.6264C31.6782 65.6264 31.3128 65.7443 30.9592 66.0979C30.7235 66.3337 30.4877 66.8169 30.4877 67.1706C30.4877 68.0075 31.1949 68.7147 32.0318 68.7147H55.7949C56.1485 68.7147 56.5021 68.5968 56.8675 68.2432C57.1033 68.0075 57.339 67.5242 57.339 67.1706C57.339 66.3337 56.6318 65.6264 55.7949 65.6264H32.0318Z" fill="#300045"/>
<path d="M23.1204 31.5133C19.7965 31.5133 17.1797 28.8966 17.1797 25.5726C17.1797 22.2486 19.7965 19.6318 23.1204 19.6318C26.4444 19.6318 29.0612 22.2486 29.0612 25.5726C29.0612 28.8966 26.4444 31.5133 23.1204 31.5133ZM23.1204 21.0581C20.6216 21.0581 18.6059 23.0737 18.6059 25.5726C18.6059 28.0715 20.6216 30.0871 23.1204 30.0871C25.6193 30.0871 27.635 28.0715 27.635 25.5726C27.635 23.0737 25.6193 21.0581 23.1204 21.0581Z" fill="#300045"/>
<path d="M75.1733 80.4803C73.1577 80.4803 71.4839 78.8183 71.4839 76.8027C71.4839 74.7871 73.1459 73.1133 75.1733 73.1133C77.2007 73.1133 78.8627 74.7753 78.8627 76.8027C78.8627 78.8301 77.2007 80.4803 75.1733 80.4803ZM75.1733 74.5395C73.9828 74.5395 72.9101 75.4943 72.9101 76.8027C72.9101 77.9932 73.8649 79.0658 75.1733 79.0658C76.3638 79.0658 77.4364 78.1111 77.4364 76.8027C77.4364 75.4943 76.3638 74.5395 75.1733 74.5395Z" fill="#300045"/>
</svg>
