<svg width="100" height="100" viewBox="0 0 100 100" fill="none" xmlns="http://www.w3.org/2000/svg">
<path d="M80.2788 25.4531V84.0178H20.2788V25.4531H80.2788Z" fill="#FFC5CD"/>
<path d="M21.8447 55.6905V27.1259H80.2788V25.4414H20.2788V83.8756H21.8447V55.6787V55.6905Z" fill="#FFC5CD"/>
<path d="M71.287 71.8945H65.2847V76.4497H71.287V71.8945Z" fill="white"/>
<path d="M66.3642 72.974H71.2752V71.8945H65.2847V76.4497H66.3642V72.974Z" fill="white"/>
<path d="M71.287 47.8975H65.2847V71.8951H71.287V47.8975Z" fill="white"/>
<path d="M66.3642 49.0956H71.2752V47.8975H65.2847V71.8951H66.3642V49.0956Z" fill="white"/>
<path d="M68.2859 38.8936L71.2752 47.8971H65.2847L68.2859 38.8936Z" fill="white"/>
<path d="M68.879 40.6966L68.2859 38.8936L65.2847 47.8971H66.4828L68.879 40.6966Z" fill="white"/>
<path d="M81.9633 17.2919C82.8055 18.1342 83.28 19.3323 83.28 20.649C83.28 23.1638 81.3583 25.2041 78.8435 25.3228H25.3203C26.8743 24.3619 27.9656 22.5588 27.9656 20.5185C27.9656 18.5968 27.0048 16.7937 25.4508 15.8447H78.6062C79.923 15.9634 81.121 16.4497 81.9633 17.2801V17.2919Z" fill="white"/>
<path d="M27.0051 17.5297H79.0811C80.3978 17.5297 81.5959 18.0042 82.4381 18.9651C82.794 19.3209 83.0431 19.6887 83.2804 20.1632C83.1617 19.0837 82.6754 18.1228 81.9636 17.3992C81.1214 16.557 79.9233 15.9639 78.6066 15.9639H25.4512C26.0562 16.3197 26.6493 16.9247 27.017 17.5179L27.0051 17.5297Z" fill="white"/>
<path d="M28.4402 22.215C28.4402 21.3728 28.203 20.5306 27.8353 19.7002C27.8353 19.9374 27.9539 20.3052 27.9539 20.661C27.9539 22.7014 26.8744 24.5045 25.3086 25.4653H27.4675C28.0725 24.5045 28.4284 23.425 28.4284 22.2269L28.4402 22.215Z" fill="white"/>
<path d="M25.4391 15.9751C27.0049 17.0545 27.9539 18.739 27.9539 20.6607C27.9539 22.701 26.8744 24.5041 25.3086 25.465H20.2671V54.0296H15.7119V22.4756C15.7119 18.5136 18.7131 15.5124 22.6751 15.7615L25.4391 15.9988V15.9751Z" fill="white"/>
<path d="M17.0402 23.5314C17.0402 19.5694 20.0414 16.5682 24.0035 16.8054L26.6488 17.0427C26.2929 16.6868 25.9252 16.2004 25.4507 15.9632L22.8172 15.7259C18.8552 15.3701 15.854 18.4899 15.854 22.4401V53.8754H17.0521V23.5195L17.0402 23.5314Z" fill="white"/>
<path d="M60.8361 31.4561H57.835V34.4572H60.8361V31.4561Z" fill="#300045"/>
<path d="M54.8459 31.4561H51.8447V34.4572H54.8459V31.4561Z" fill="#300045"/>
<path d="M48.8435 31.4561H45.8423V34.4572H48.8435V31.4561Z" fill="#300045"/>
<path d="M42.841 31.4561H39.8398V34.4572H42.841V31.4561Z" fill="#300045"/>
<path d="M80.2788 84.6109H20.2788C19.9229 84.6109 19.5552 84.255 19.5552 83.8873V25.4531C19.5552 25.0972 19.911 24.7295 20.2788 24.7295H80.2788C80.6347 24.7295 81.0024 25.0854 81.0024 25.4531V84.0178C81.121 84.3736 80.7652 84.6227 80.2788 84.6227V84.6109ZM21.121 83.1755H79.6857V26.1767H21.121V83.1755Z" fill="#300045"/>
<path d="M78.5943 26.1774H25.3203C24.9644 26.1774 24.5967 25.8215 24.5967 25.4538C24.5967 25.086 24.9525 24.7302 25.3203 24.7302H78.8434C80.8838 24.6115 82.5682 22.9271 82.5682 20.7681C82.5682 19.6886 82.2123 18.7278 81.3701 17.8856C80.6465 17.162 79.6857 16.6874 78.6062 16.6874H25.4508C25.0949 16.6874 24.7271 16.3316 24.7271 15.9638C24.7271 15.5961 25.083 15.2402 25.4508 15.2402H78.6062C80.0415 15.2402 81.4887 15.8452 82.4496 16.9247C83.4104 18.0042 84.0154 19.3209 84.0154 20.7681C84.0154 23.6507 81.7378 26.0469 78.8553 26.1655H78.6181L78.5943 26.1774Z" fill="#300045"/>
<path d="M20.2787 54.6113H15.7236C15.3677 54.6113 15 54.2554 15 53.8876V22.4523C15 20.2933 15.8422 18.253 17.3962 16.8177C18.8315 15.5009 20.7533 14.896 22.7936 15.0146L25.427 15.2518C25.5456 15.2518 25.6643 15.2518 25.7829 15.3704C27.586 16.5686 28.5468 18.6089 28.5468 20.6492C28.5468 21.0051 28.191 21.3728 27.8232 21.3728C27.4555 21.3728 27.0996 21.017 27.0996 20.6492C27.0996 19.0834 26.376 17.648 25.0593 16.6872L22.5445 16.4499C20.9905 16.3313 19.4247 16.8058 18.3452 17.8853C17.1471 18.9648 16.4235 20.6492 16.4235 22.4404V53.164H20.1483C20.5041 53.164 20.8719 53.5199 20.8719 53.8876C21.1091 54.3621 20.7533 54.6113 20.2669 54.6113H20.2787Z" fill="#300045"/>
<path d="M25.3202 26.1771C25.0829 26.1771 24.8339 26.0585 24.7152 25.8213C24.478 25.4654 24.5966 24.979 24.9525 24.7418C26.3878 23.8995 27.2301 22.3456 27.2301 20.6611C27.2301 20.3052 27.5859 19.9375 27.9536 19.9375C28.3214 19.9375 28.6773 20.2934 28.6773 20.6611C28.6773 22.8201 27.5978 24.979 25.6761 26.0585C25.5575 26.1771 25.4388 26.1771 25.3202 26.1771Z" fill="#300045"/>
<path d="M59.2824 41.1708H26.2812C25.9253 41.1708 25.5576 40.815 25.5576 40.4472C25.5576 40.0795 25.9135 39.7236 26.2812 39.7236H59.2824C59.6383 39.7236 60.006 40.0795 60.006 40.4472C60.1247 40.8031 59.7688 41.1708 59.2824 41.1708Z" fill="#300045"/>
<path d="M59.2824 47.1738H26.2812C25.9253 47.1738 25.5576 46.8179 25.5576 46.4502C25.5576 46.0824 25.9135 45.7266 26.2812 45.7266H59.2824C59.6383 45.7266 60.006 46.0824 60.006 46.4502C60.1247 46.806 59.7688 47.1738 59.2824 47.1738Z" fill="#300045"/>
<path d="M59.2824 53.1757H26.2812C25.9253 53.1757 25.5576 52.8199 25.5576 52.4521C25.5576 52.0844 25.9135 51.7285 26.2812 51.7285H59.2824C59.6383 51.7285 60.006 52.0844 60.006 52.4521C60.1247 52.808 59.7688 53.1757 59.2824 53.1757Z" fill="#300045"/>
<path d="M59.2824 59.166H26.2812C25.9253 59.166 25.5576 58.8101 25.5576 58.4424C25.5576 58.0746 25.9135 57.7188 26.2812 57.7188H59.2824C59.6383 57.7188 60.006 58.0746 60.006 58.4424C60.1247 58.7982 59.7688 59.166 59.2824 59.166Z" fill="#300045"/>
<path d="M59.2824 65.1689H26.2812C25.9253 65.1689 25.5576 64.813 25.5576 64.4453C25.5576 64.0776 25.9135 63.7217 26.2812 63.7217H59.2824C59.6383 63.7217 60.006 64.0776 60.006 64.4453C60.1247 64.8012 59.7688 65.1689 59.2824 65.1689Z" fill="#300045"/>
<path d="M59.2824 71.1708H26.2812C25.9253 71.1708 25.5576 70.815 25.5576 70.4472C25.5576 70.0795 25.9135 69.7236 26.2812 69.7236H59.2824C59.6383 69.7236 60.006 70.0795 60.006 70.4472C60.1247 70.8031 59.7688 71.1708 59.2824 71.1708Z" fill="#300045"/>
<path d="M59.2822 77.1738H49.5669C49.211 77.1738 48.8433 76.8179 48.8433 76.4502C48.8433 76.0824 49.1991 75.7266 49.5669 75.7266H59.2822C59.638 75.7266 60.0058 76.0824 60.0058 76.4502C60.1244 76.806 59.7685 77.1738 59.2822 77.1738Z" fill="#300045"/>
<path d="M71.2754 72.6069C70.9195 72.6069 70.5518 72.2511 70.5518 71.8833V47.8857C70.5518 47.5298 70.9076 47.1621 71.2754 47.1621C71.6431 47.1621 71.999 47.518 71.999 47.8857V71.8833C72.1176 72.3578 71.7617 72.6069 71.2754 72.6069Z" fill="#300045"/>
<path d="M65.2846 72.6069C64.9288 72.6069 64.561 72.2511 64.561 71.8833V47.8857C64.561 47.5298 64.9169 47.1621 65.2846 47.1621C65.6524 47.1621 66.0082 47.518 66.0082 47.8857V71.8833C66.1269 72.3578 65.771 72.6069 65.2846 72.6069Z" fill="#300045"/>
<path d="M71.2753 77.1733H65.2729C64.9171 77.1733 64.5493 76.8174 64.5493 76.4497V71.8945C64.5493 71.5386 64.9052 71.1709 65.2729 71.1709H71.2753C71.6312 71.1709 71.9989 71.5268 71.9989 71.8945V76.4497C72.1175 76.8055 71.7617 77.1733 71.2753 77.1733ZM66.1152 75.6074H70.5517V72.6062H65.9965V75.6074H66.1152Z" fill="#300045"/>
<path d="M71.2753 48.6088H65.2729C65.0357 48.6088 64.7984 48.4902 64.6679 48.253C64.5493 48.1343 64.5493 47.8971 64.5493 47.648L67.5505 38.6444C67.6691 38.2886 67.9064 38.1699 68.2741 38.1699C68.6419 38.1699 68.8791 38.4072 68.9977 38.6444L71.9989 47.648C72.1175 47.8852 71.9989 48.1225 71.8803 48.3716C71.7616 48.4902 71.5244 48.6088 71.2872 48.6088H71.2753ZM66.3643 47.1735H70.3263L68.4046 41.2897L66.3643 47.1735Z" fill="#300045"/>
<path d="M75.8422 72.6068H71.2871C70.9312 72.6068 70.5635 72.2509 70.5635 71.8832C70.5635 71.5155 70.9193 71.1596 71.2871 71.1596H75.0119V61.4443C75.0119 61.0884 75.3677 60.7207 75.7355 60.7207C76.1032 60.7207 76.4591 61.0766 76.4591 61.4443V72.0018C76.5777 72.3577 76.2218 72.6068 75.8541 72.6068H75.8422Z" fill="#300045"/>
</svg>
