<svg width="100" height="100" viewBox="0 0 100 100" fill="none" xmlns="http://www.w3.org/2000/svg">
<path d="M86.427 52.7818C86.427 58.8296 81.4825 63.7741 75.4347 63.7741H23.9328C17.8849 63.7741 12.9404 58.8296 12.9404 52.7818C12.9404 47.2924 17.054 42.6203 22.4208 41.9392C20.9089 34.5293 26.5344 27.5144 34.2304 27.5144C36.6959 27.5144 39.0387 28.1954 40.9593 29.5712C44.1195 23.8094 50.1537 19.8184 57.1686 19.8184C68.7058 19.8184 77.4915 30.3884 75.1623 41.9256C81.4825 41.6532 86.427 46.7339 86.427 52.7682V52.7818Z" fill="white"/>
<path d="M75.4341 64.7269H66.2398C65.8312 64.7269 65.4225 64.3183 65.4225 63.9096C65.4225 63.501 65.8312 63.0787 66.2398 63.0787H75.4341C81.0597 63.0787 85.5956 58.5429 85.5956 52.9173C85.5956 47.2917 81.0597 42.7558 75.4341 42.7558H75.0255C74.7531 42.7558 74.4806 42.6196 74.3444 42.4834C74.2082 42.3472 74.072 42.0748 74.2082 41.8023C74.4806 40.699 74.6169 39.4731 74.6169 38.2336C74.6169 28.617 66.7846 20.6486 57.0318 20.6486C50.5754 20.6486 44.6774 24.2173 41.5172 29.9927C41.381 30.2652 41.2448 30.4014 40.9724 30.4014C40.7 30.4014 40.4275 30.4014 40.2913 30.2652C38.5069 29.0256 36.3139 28.3446 34.1073 28.3446C27.9232 28.3446 22.9787 33.2891 22.9787 39.4731C22.9787 40.2904 23.1149 40.9851 23.2511 41.6661C23.2511 41.9386 23.2511 42.0748 23.1149 42.3472C22.9787 42.4834 22.7063 42.6196 22.5701 42.7558C17.6256 43.4369 13.7844 47.8366 13.7844 52.7811C13.7844 58.4066 18.3203 62.9425 23.9458 62.9425H69.3999C69.8086 62.9425 70.2172 63.3511 70.2172 63.7734C70.2172 64.1957 69.8086 64.5907 69.3999 64.5907H23.9458C17.3531 64.5907 12 59.2375 12 52.6448C12 47.0193 15.9774 42.211 21.3442 40.9715C21.208 40.4266 21.208 39.8681 21.208 39.1871C21.208 32.0495 26.9697 26.2741 34.1209 26.2741C36.3139 26.2741 38.5206 26.819 40.4412 27.9223C43.8737 22.1605 50.194 18.5781 56.9229 18.5781C67.4929 18.5781 76.1424 27.2276 76.1424 37.7977C76.1424 38.7648 76.0062 39.7183 75.87 40.6854C82.1903 40.9578 87.1348 46.1748 87.1348 52.495C87.4072 59.3601 82.054 64.7133 75.4614 64.7133L75.4341 64.7269Z" fill="#300045"/>
<path d="M77.082 75.4482C80.4192 75.4482 83.1299 78.1589 83.1299 81.4961C83.1299 84.8333 80.4192 87.5439 77.082 87.5439C73.7448 87.5439 71.0342 84.8333 71.0342 81.4961C71.0342 78.1589 73.7448 75.4482 77.082 75.4482Z" fill="#FFC5CD"/>
<path d="M20.5133 17.0801C23.401 17.0801 25.7303 19.4229 25.7303 22.297C25.7303 25.1711 23.3874 27.514 20.5133 27.514C17.6392 27.514 15.2964 25.1711 15.2964 22.297C15.2964 19.4229 17.6392 17.0801 20.5133 17.0801Z" fill="#FFC5CD"/>
<path d="M50.4535 57.3184C54.1585 57.3184 57.1824 60.3423 57.1824 64.0473C57.1824 67.7522 54.1585 70.7762 50.4535 70.7762C46.7485 70.7762 43.7246 67.7522 43.7246 64.0473C43.8608 60.3423 46.8847 57.3184 50.4535 57.3184ZM53.7498 64.0473C53.7498 62.2629 52.2379 60.7509 50.4535 60.7509C48.6691 60.7509 47.1572 62.2629 47.1572 64.0473C47.1572 65.8316 48.6691 67.3436 50.4535 67.3436C52.3741 67.3436 53.7498 65.8316 53.7498 64.0473Z" fill="white"/>
<path d="M86.1546 30.9473C86.8356 30.9473 87.3941 31.5057 87.3941 32.1868C87.3941 32.8679 86.8356 33.4263 86.1546 33.4263C85.4735 33.4263 84.915 32.8679 84.915 32.1868C84.915 31.5057 85.4735 30.9473 86.1546 30.9473Z" fill="#300045"/>
<path d="M80.9373 66.9336C81.6184 66.9336 82.1768 67.4921 82.1768 68.1731C82.1768 68.8542 81.6184 69.4127 80.9373 69.4127C80.2562 69.4127 79.6978 68.8542 79.6978 68.1731C79.6978 67.4921 80.2562 66.9336 80.9373 66.9336Z" fill="#300045"/>
<path d="M77.5042 12C78.1852 12 78.7437 12.5585 78.7437 13.2395C78.7437 13.9206 78.1852 14.4791 77.5042 14.4791C76.8231 14.4791 76.2646 13.9206 76.2646 13.2395C76.2646 12.5585 76.8231 12 77.5042 12Z" fill="#300045"/>
<path d="M66.24 62.9429V66.3755L61.5679 66.9203C61.2955 68.0236 60.8869 68.9771 60.3284 69.9442L63.2161 73.513L59.7835 76.9456L56.2148 74.0578C55.2477 74.6027 54.2942 75.025 53.1909 75.2974L52.7822 79.9695H47.9739L47.4291 75.2974C46.3257 75.025 45.3723 74.6163 44.4052 74.0578L40.8364 76.9456L37.4038 73.513L40.2915 69.9442C39.7467 68.9771 39.3244 68.0236 39.052 66.9203L34.6523 66.3755V61.5672L39.3244 61.1585C39.5969 60.0552 40.0055 59.1017 40.564 58.1346L37.6763 54.5659L41.1088 51.1333L44.6776 54.021C45.6447 53.4762 46.5982 53.0539 47.7015 52.7815L48.2463 48.1094H53.0546L53.4633 52.7815C54.5666 53.0539 55.5201 53.4625 56.4872 54.021L60.056 51.1333L63.4885 54.5659L60.6008 58.1346C61.1457 59.1017 61.5679 60.0552 61.8403 61.1585L66.5124 61.5672L66.24 62.9429ZM57.1819 64.0462C57.1819 60.3413 54.158 57.3173 50.453 57.3173C46.748 57.3173 43.7241 60.3413 43.7241 64.0462C43.7241 67.7512 46.748 70.7751 50.453 70.7751C54.158 70.6389 57.1819 67.615 57.1819 64.0462Z" fill="#FFC5CD"/>
<path d="M40.7005 13.7861C41.3815 13.7861 41.94 14.3446 41.94 15.0257C41.94 15.7067 41.3815 16.2652 40.7005 16.2652C40.0194 16.2652 39.4609 15.7067 39.4609 15.0257C39.4609 14.3446 40.0194 13.7861 40.7005 13.7861Z" fill="#300045"/>
<path d="M34.6521 79.0146C35.3332 79.0146 35.8917 79.5731 35.8917 80.2542C35.8917 80.9352 35.3332 81.4937 34.6521 81.4937C33.9711 81.4937 33.4126 80.9352 33.4126 80.2542C33.4126 79.5731 33.9711 79.0146 34.6521 79.0146Z" fill="#300045"/>
<path d="M15.7044 69.5361C16.3854 69.5361 16.9439 70.0946 16.9439 70.7757C16.9439 71.4567 16.3854 72.0152 15.7044 72.0152C15.0233 72.0152 14.4648 71.4567 14.4648 70.7757C14.4648 70.0946 15.0233 69.5361 15.7044 69.5361Z" fill="#300045"/>
<path d="M14.8748 32.5947C15.5559 32.5947 16.1143 33.1532 16.1143 33.8343C16.1143 34.5153 15.5559 35.0738 14.8748 35.0738C14.1937 35.0738 13.6353 34.5153 13.6353 33.8343C13.6353 33.1532 14.1937 32.5947 14.8748 32.5947Z" fill="#300045"/>
<path d="M67.4798 40.1555C67.0712 40.1555 66.6626 39.7469 66.6626 39.3382C66.6626 32.8818 61.4456 27.6648 54.9891 27.6648C54.5805 27.6648 54.1719 27.2562 54.1719 26.8476C54.1719 26.4389 54.5805 26.0303 54.9891 26.0303C62.3991 26.0303 68.4469 32.0781 68.4469 39.4881C68.4469 39.7605 68.0383 40.1691 67.4798 40.1691V40.1555Z" fill="#300045"/>
<path d="M50.4529 71.5923C46.3392 71.5923 42.8931 68.1597 42.8931 64.0325C42.8931 59.9053 46.3256 56.4863 50.4529 56.4863C54.5801 56.4863 58.0126 59.9189 58.0126 64.0325C58.0126 68.1461 54.7163 71.5923 50.4529 71.5923ZM50.4529 58.1345C47.2927 58.1345 44.6911 60.7498 44.6911 63.8963C44.6911 67.0428 47.3063 69.6581 50.4529 69.6581C53.5994 69.6581 56.2146 67.0428 56.2146 63.8963C56.3509 60.7362 53.7492 58.1345 50.4529 58.1345Z" fill="#300045"/>
<path d="M50.4535 68.1608C48.1242 68.1608 46.3398 66.2402 46.3398 64.0472C46.3398 61.718 48.2604 59.9336 50.4535 59.9336C52.7827 59.9336 54.5671 61.8542 54.5671 64.0472C54.7033 66.2402 52.7827 68.1608 50.4535 68.1608ZM50.4535 61.5681C49.0777 61.5681 47.9744 62.6715 47.9744 64.0336C47.9744 65.3957 49.0777 66.499 50.4535 66.499C51.8292 66.499 52.9189 65.3957 52.9189 64.0336C52.9189 62.6715 51.8156 61.5681 50.4535 61.5681Z" fill="#300045"/>
<path d="M52.9184 80.6652H48.1101C47.7014 80.6652 47.2928 80.3928 47.2928 79.8479L46.8842 75.8705C46.2031 75.5981 45.5084 75.3257 44.8274 75.0533L41.531 77.5187C41.2586 77.7911 40.7137 77.7911 40.4277 77.5187L36.9951 74.0861C36.7227 73.8137 36.7227 73.2553 36.9951 72.9828L39.6104 69.8227C39.2018 69.1416 38.9293 68.447 38.7795 67.7659L34.6659 67.221C34.2573 67.221 33.8486 66.8124 33.8486 66.4038V61.5955C33.8486 61.1868 34.1211 60.7646 34.6659 60.7646L38.6433 60.3559C38.9157 59.6749 39.1882 58.9802 39.4606 58.2991L36.8453 55.139C36.5729 54.8666 36.5729 54.3081 36.8453 54.0357L40.2779 50.6031C40.5503 50.3307 41.0951 50.3307 41.3812 50.6031L44.5413 53.2184C45.2224 52.8098 45.917 52.5373 46.5981 52.4011L47.0067 48.4237C47.0067 48.0151 47.4154 47.6064 47.8376 47.6064H52.6459C53.0546 47.6064 53.4632 47.8789 53.4632 48.4237L53.8719 52.4011C54.5529 52.6736 55.2476 52.946 55.9287 53.2184L59.0888 50.6031C59.3612 50.3307 59.9061 50.3307 60.1921 50.6031L63.6247 54.0357C63.8971 54.3081 63.8971 54.8529 63.6247 55.139L61.0094 58.2991C61.418 58.9802 61.6904 59.6749 61.8403 60.3559L65.8177 60.7646C66.2263 60.7646 66.6486 61.1732 66.6486 61.5955V66.4038C66.6486 66.8124 66.3762 67.221 65.8177 67.221L61.8403 67.6297C61.5679 68.3107 61.2954 69.0054 61.0094 69.6865L63.6247 72.8466C63.8971 73.119 63.8971 73.6639 63.6247 73.9499L60.1921 77.3825C59.9197 77.6549 59.3612 77.6549 59.0888 77.3825L55.9287 74.7672C55.2476 75.1758 54.5529 75.4483 53.8719 75.5981L53.4632 79.5755C53.7356 80.2566 53.327 80.6788 52.9184 80.6788V80.6652ZM48.8048 78.8808H52.1011L52.5097 75.0396C52.5097 74.631 52.7822 74.3586 53.1908 74.3586C54.1579 74.0861 55.1114 73.6775 55.9423 73.2552C56.2147 73.119 56.6234 73.119 56.9094 73.3915L59.9333 75.8569L62.2625 73.5277L59.7835 70.5038C59.511 70.2313 59.511 69.8227 59.6473 69.5367C60.1921 68.7194 60.6144 67.7523 60.7506 66.7852C60.8868 66.3765 61.1592 66.2403 61.4317 66.1041L65.2728 65.6955V62.3991L61.4317 61.9905C61.023 61.9905 60.7506 61.7181 60.7506 61.3094C60.4782 60.3423 60.0695 59.3888 59.6473 58.5579C59.511 58.2855 59.511 57.8769 59.7835 57.5908L62.2625 54.5669L59.9333 52.2377L56.9094 54.7031C56.637 54.9755 56.2283 54.9755 55.9423 54.8393C55.1114 54.2945 54.1579 53.8722 53.1908 53.736C52.7822 53.5998 52.6459 53.3274 52.5097 53.0549L52.1011 49.2138H48.8048L48.5323 52.9187C48.5323 53.3274 48.2599 53.5998 47.8513 53.5998C46.8842 53.8722 45.9307 54.2809 45.0998 54.7031C44.8273 54.8393 44.4187 54.8393 44.1327 54.5669L41.1087 52.1015L38.7795 54.5669L41.2586 57.5908C41.531 57.8632 41.531 58.2719 41.3948 58.5579C40.8499 59.3752 40.5639 60.3423 40.2915 61.3094C40.1553 61.7181 39.8828 61.8543 39.6104 61.9905L35.7692 62.3991V65.6955L39.6104 66.1041C40.0191 66.1041 40.2915 66.3765 40.2915 66.7852C40.5639 67.7523 40.9725 68.7058 41.3948 69.5367C41.531 69.8091 41.531 70.2177 41.2586 70.5038L38.7795 73.3915L41.1087 75.7207L44.1327 73.2416C44.4051 72.9692 44.8137 72.9692 45.0998 73.1054C45.917 73.6503 46.8842 74.0725 47.8513 74.2087C48.2599 74.3449 48.3961 74.6174 48.5323 74.8898L48.8048 78.8672V78.8808Z" fill="#300045"/>
<path d="M77.0826 60.0681H69.3866C68.978 60.0681 68.5693 59.6595 68.5693 59.2372C68.5693 58.8149 68.978 58.4199 69.3866 58.4199H77.0826C77.4913 58.4199 77.9135 58.8286 77.9135 59.2372C77.9135 59.6458 77.6411 60.0681 77.0826 60.0681Z" fill="#300045"/>
<path d="M77.0826 56.6238H69.3866C68.978 56.6238 68.5693 56.2152 68.5693 55.8065C68.5693 55.3979 68.978 54.9893 69.3866 54.9893H77.0826C77.4913 54.9893 77.9135 55.3979 77.9135 55.8065C77.9135 56.2152 77.6411 56.6238 77.0826 56.6238Z" fill="#300045"/>
<path d="M77.0826 53.1883H69.3866C68.978 53.1883 68.5693 52.7796 68.5693 52.371C68.5693 51.9623 68.978 51.5537 69.3866 51.5537H77.0826C77.4913 51.5537 77.9135 51.9623 77.9135 52.371C77.9135 52.7796 77.6411 53.1883 77.0826 53.1883Z" fill="#300045"/>
<path d="M77.0826 49.7576H69.3866C68.978 49.7576 68.5693 49.3489 68.5693 48.9267C68.5693 48.5044 68.978 48.1094 69.3866 48.1094H77.0826C77.4913 48.1094 77.9135 48.518 77.9135 48.9267C77.9135 49.3353 77.6411 49.7576 77.0826 49.7576Z" fill="#300045"/>
<path d="M31.629 60.0681H23.933C23.5244 60.0681 23.1157 59.6595 23.1157 59.2372C23.1157 58.8149 23.5244 58.4199 23.933 58.4199H31.629C32.0376 58.4199 32.4463 58.8286 32.4463 59.2372C32.4463 59.6458 32.0376 60.0681 31.629 60.0681Z" fill="#300045"/>
<path d="M31.629 56.6238H23.933C23.5244 56.6238 23.1157 56.2152 23.1157 55.8065C23.1157 55.3979 23.5244 54.9893 23.933 54.9893H31.629C32.0376 54.9893 32.4463 55.3979 32.4463 55.8065C32.4463 56.2152 32.0376 56.6238 31.629 56.6238Z" fill="#300045"/>
<path d="M31.629 53.1883H23.933C23.5244 53.1883 23.1157 52.7796 23.1157 52.371C23.1157 51.9623 23.5244 51.5537 23.933 51.5537H31.629C32.0376 51.5537 32.4463 51.9623 32.4463 52.371C32.4463 52.7796 32.0376 53.1883 31.629 53.1883Z" fill="#300045"/>
<path d="M31.629 49.7576H23.933C23.5244 49.7576 23.1157 49.3489 23.1157 48.9267C23.1157 48.5044 23.5244 48.1094 23.933 48.1094H31.629C32.0376 48.1094 32.4463 48.518 32.4463 48.9267C32.4463 49.3353 32.0376 49.7576 31.629 49.7576Z" fill="#300045"/>
<path d="M20.5127 28.3447C17.2163 28.3447 14.4648 25.5932 14.4648 22.2969C14.4648 19.0005 17.2163 16.249 20.5127 16.249C23.809 16.249 26.5605 19.0005 26.5605 22.2969C26.5605 25.5932 23.809 28.3447 20.5127 28.3447ZM20.5127 18.0334C18.1834 18.0334 16.2492 19.954 16.2492 22.2969C16.2492 24.6397 18.1698 26.5467 20.5127 26.5467C22.8555 26.5467 24.7761 24.6261 24.7761 22.2832C24.7761 19.9404 22.8555 18.0334 20.5127 18.0334Z" fill="#300045"/>
<path d="M77.0829 88.3621C73.2417 88.3621 70.2178 85.3381 70.2178 81.497C70.2178 77.6558 73.2417 74.6318 77.0829 74.6318C80.9241 74.6318 83.948 77.6558 83.948 81.497C83.948 85.3381 80.9241 88.3621 77.0829 88.3621ZM77.0829 76.4026C74.1952 76.4026 71.8659 78.7318 71.8659 81.6195C71.8659 84.5072 74.1952 86.8365 77.0829 86.8365C79.9706 86.8365 82.2998 84.5072 82.2998 81.6195C82.2998 78.7318 79.9706 76.4026 77.0829 76.4026Z" fill="#300045"/>
<path d="M86.427 52.7818C86.427 58.8296 81.4825 63.7741 75.4347 63.7741H23.9328C17.8849 63.7741 12.9404 58.8296 12.9404 52.7818C12.9404 47.2924 17.054 42.6203 22.4208 41.9392C20.9089 34.5293 26.5344 27.5144 34.2304 27.5144C36.6959 27.5144 39.0387 28.1954 40.9593 29.5712C44.1195 23.8094 50.1537 19.8184 57.1686 19.8184C68.7058 19.8184 77.4915 30.3884 75.1623 41.9256C81.4825 41.6532 86.427 46.7339 86.427 52.7682V52.7818Z" fill="white"/>
<path d="M75.4341 64.7269H66.2398C65.8312 64.7269 65.4225 64.3183 65.4225 63.9096C65.4225 63.501 65.8312 63.0787 66.2398 63.0787H75.4341C81.0597 63.0787 85.5956 58.5429 85.5956 52.9173C85.5956 47.2917 81.0597 42.7558 75.4341 42.7558H75.0255C74.7531 42.7558 74.4806 42.6196 74.3444 42.4834C74.2082 42.3472 74.072 42.0748 74.2082 41.8023C74.4806 40.699 74.6169 39.4731 74.6169 38.2336C74.6169 28.617 66.7846 20.6486 57.0318 20.6486C50.5754 20.6486 44.6774 24.2173 41.5172 29.9927C41.381 30.2652 41.2448 30.4014 40.9724 30.4014C40.7 30.4014 40.4275 30.4014 40.2913 30.2652C38.5069 29.0256 36.3139 28.3446 34.1073 28.3446C27.9232 28.3446 22.9787 33.2891 22.9787 39.4731C22.9787 40.2904 23.1149 40.9851 23.2511 41.6661C23.2511 41.9386 23.2511 42.0748 23.1149 42.3472C22.9787 42.4834 22.7063 42.6196 22.5701 42.7558C17.6256 43.4369 13.7844 47.8366 13.7844 52.7811C13.7844 58.4066 18.3203 62.9425 23.9458 62.9425H69.3999C69.8086 62.9425 70.2172 63.3511 70.2172 63.7734C70.2172 64.1957 69.8086 64.5907 69.3999 64.5907H23.9458C17.3531 64.5907 12 59.2375 12 52.6448C12 47.0193 15.9774 42.211 21.3442 40.9715C21.208 40.4266 21.208 39.8681 21.208 39.1871C21.208 32.0495 26.9697 26.2741 34.1209 26.2741C36.3139 26.2741 38.5206 26.819 40.4412 27.9223C43.8737 22.1605 50.194 18.5781 56.9229 18.5781C67.4929 18.5781 76.1424 27.2276 76.1424 37.7977C76.1424 38.7648 76.0062 39.7183 75.87 40.6854C82.1903 40.9578 87.1348 46.1748 87.1348 52.495C87.4072 59.3601 82.054 64.7133 75.4614 64.7133L75.4341 64.7269Z" fill="#300045"/>
<path d="M77.082 75.4482C80.4192 75.4482 83.1299 78.1589 83.1299 81.4961C83.1299 84.8333 80.4192 87.5439 77.082 87.5439C73.7448 87.5439 71.0342 84.8333 71.0342 81.4961C71.0342 78.1589 73.7448 75.4482 77.082 75.4482Z" fill="#FFC5CD"/>
<path d="M20.5133 17.0801C23.401 17.0801 25.7303 19.4229 25.7303 22.297C25.7303 25.1711 23.3874 27.514 20.5133 27.514C17.6392 27.514 15.2964 25.1711 15.2964 22.297C15.2964 19.4229 17.6392 17.0801 20.5133 17.0801Z" fill="#FFC5CD"/>
<path d="M50.4535 57.3184C54.1585 57.3184 57.1824 60.3423 57.1824 64.0473C57.1824 67.7522 54.1585 70.7762 50.4535 70.7762C46.7485 70.7762 43.7246 67.7522 43.7246 64.0473C43.8608 60.3423 46.8847 57.3184 50.4535 57.3184ZM53.7498 64.0473C53.7498 62.2629 52.2379 60.7509 50.4535 60.7509C48.6691 60.7509 47.1572 62.2629 47.1572 64.0473C47.1572 65.8316 48.6691 67.3436 50.4535 67.3436C52.3741 67.3436 53.7498 65.8316 53.7498 64.0473Z" fill="white"/>
<path d="M86.1546 30.9473C86.8356 30.9473 87.3941 31.5057 87.3941 32.1868C87.3941 32.8679 86.8356 33.4263 86.1546 33.4263C85.4735 33.4263 84.915 32.8679 84.915 32.1868C84.915 31.5057 85.4735 30.9473 86.1546 30.9473Z" fill="#300045"/>
<path d="M80.9373 66.9336C81.6184 66.9336 82.1768 67.4921 82.1768 68.1731C82.1768 68.8542 81.6184 69.4127 80.9373 69.4127C80.2562 69.4127 79.6978 68.8542 79.6978 68.1731C79.6978 67.4921 80.2562 66.9336 80.9373 66.9336Z" fill="#300045"/>
<path d="M77.5042 12C78.1852 12 78.7437 12.5585 78.7437 13.2395C78.7437 13.9206 78.1852 14.4791 77.5042 14.4791C76.8231 14.4791 76.2646 13.9206 76.2646 13.2395C76.2646 12.5585 76.8231 12 77.5042 12Z" fill="#300045"/>
<path d="M66.24 62.9429V66.3755L61.5679 66.9203C61.2955 68.0236 60.8869 68.9771 60.3284 69.9442L63.2161 73.513L59.7835 76.9456L56.2148 74.0578C55.2477 74.6027 54.2942 75.025 53.1909 75.2974L52.7822 79.9695H47.9739L47.4291 75.2974C46.3257 75.025 45.3723 74.6163 44.4052 74.0578L40.8364 76.9456L37.4038 73.513L40.2915 69.9442C39.7467 68.9771 39.3244 68.0236 39.052 66.9203L34.6523 66.3755V61.5672L39.3244 61.1585C39.5969 60.0552 40.0055 59.1017 40.564 58.1346L37.6763 54.5659L41.1088 51.1333L44.6776 54.021C45.6447 53.4762 46.5982 53.0539 47.7015 52.7815L48.2463 48.1094H53.0546L53.4633 52.7815C54.5666 53.0539 55.5201 53.4625 56.4872 54.021L60.056 51.1333L63.4885 54.5659L60.6008 58.1346C61.1457 59.1017 61.5679 60.0552 61.8403 61.1585L66.5124 61.5672L66.24 62.9429ZM57.1819 64.0462C57.1819 60.3413 54.158 57.3173 50.453 57.3173C46.748 57.3173 43.7241 60.3413 43.7241 64.0462C43.7241 67.7512 46.748 70.7751 50.453 70.7751C54.158 70.6389 57.1819 67.615 57.1819 64.0462Z" fill="#FFC5CD"/>
<path d="M40.7005 13.7861C41.3815 13.7861 41.94 14.3446 41.94 15.0257C41.94 15.7067 41.3815 16.2652 40.7005 16.2652C40.0194 16.2652 39.4609 15.7067 39.4609 15.0257C39.4609 14.3446 40.0194 13.7861 40.7005 13.7861Z" fill="#300045"/>
<path d="M34.6521 79.0146C35.3332 79.0146 35.8917 79.5731 35.8917 80.2542C35.8917 80.9352 35.3332 81.4937 34.6521 81.4937C33.9711 81.4937 33.4126 80.9352 33.4126 80.2542C33.4126 79.5731 33.9711 79.0146 34.6521 79.0146Z" fill="#300045"/>
<path d="M15.7044 69.5361C16.3854 69.5361 16.9439 70.0946 16.9439 70.7757C16.9439 71.4567 16.3854 72.0152 15.7044 72.0152C15.0233 72.0152 14.4648 71.4567 14.4648 70.7757C14.4648 70.0946 15.0233 69.5361 15.7044 69.5361Z" fill="#300045"/>
<path d="M14.8748 32.5947C15.5559 32.5947 16.1143 33.1532 16.1143 33.8343C16.1143 34.5153 15.5559 35.0738 14.8748 35.0738C14.1937 35.0738 13.6353 34.5153 13.6353 33.8343C13.6353 33.1532 14.1937 32.5947 14.8748 32.5947Z" fill="#300045"/>
<path d="M67.4798 40.1555C67.0712 40.1555 66.6626 39.7469 66.6626 39.3382C66.6626 32.8818 61.4456 27.6648 54.9891 27.6648C54.5805 27.6648 54.1719 27.2562 54.1719 26.8476C54.1719 26.4389 54.5805 26.0303 54.9891 26.0303C62.3991 26.0303 68.4469 32.0781 68.4469 39.4881C68.4469 39.7605 68.0383 40.1691 67.4798 40.1691V40.1555Z" fill="#300045"/>
<path d="M50.4529 71.5923C46.3392 71.5923 42.8931 68.1597 42.8931 64.0325C42.8931 59.9053 46.3256 56.4863 50.4529 56.4863C54.5801 56.4863 58.0126 59.9189 58.0126 64.0325C58.0126 68.1461 54.7163 71.5923 50.4529 71.5923ZM50.4529 58.1345C47.2927 58.1345 44.6911 60.7498 44.6911 63.8963C44.6911 67.0428 47.3063 69.6581 50.4529 69.6581C53.5994 69.6581 56.2146 67.0428 56.2146 63.8963C56.3509 60.7362 53.7492 58.1345 50.4529 58.1345Z" fill="#300045"/>
<path d="M50.4535 68.1608C48.1242 68.1608 46.3398 66.2402 46.3398 64.0472C46.3398 61.718 48.2604 59.9336 50.4535 59.9336C52.7827 59.9336 54.5671 61.8542 54.5671 64.0472C54.7033 66.2402 52.7827 68.1608 50.4535 68.1608ZM50.4535 61.5681C49.0777 61.5681 47.9744 62.6715 47.9744 64.0336C47.9744 65.3957 49.0777 66.499 50.4535 66.499C51.8292 66.499 52.9189 65.3957 52.9189 64.0336C52.9189 62.6715 51.8156 61.5681 50.4535 61.5681Z" fill="#300045"/>
<path d="M52.9184 80.6652H48.1101C47.7014 80.6652 47.2928 80.3928 47.2928 79.8479L46.8842 75.8705C46.2031 75.5981 45.5084 75.3257 44.8274 75.0533L41.531 77.5187C41.2586 77.7911 40.7137 77.7911 40.4277 77.5187L36.9951 74.0861C36.7227 73.8137 36.7227 73.2553 36.9951 72.9828L39.6104 69.8227C39.2018 69.1416 38.9293 68.447 38.7795 67.7659L34.6659 67.221C34.2573 67.221 33.8486 66.8124 33.8486 66.4038V61.5955C33.8486 61.1868 34.1211 60.7646 34.6659 60.7646L38.6433 60.3559C38.9157 59.6749 39.1882 58.9802 39.4606 58.2991L36.8453 55.139C36.5729 54.8666 36.5729 54.3081 36.8453 54.0357L40.2779 50.6031C40.5503 50.3307 41.0951 50.3307 41.3812 50.6031L44.5413 53.2184C45.2224 52.8098 45.917 52.5373 46.5981 52.4011L47.0067 48.4237C47.0067 48.0151 47.4154 47.6064 47.8376 47.6064H52.6459C53.0546 47.6064 53.4632 47.8789 53.4632 48.4237L53.8719 52.4011C54.5529 52.6736 55.2476 52.946 55.9287 53.2184L59.0888 50.6031C59.3612 50.3307 59.9061 50.3307 60.1921 50.6031L63.6247 54.0357C63.8971 54.3081 63.8971 54.8529 63.6247 55.139L61.0094 58.2991C61.418 58.9802 61.6904 59.6749 61.8403 60.3559L65.8177 60.7646C66.2263 60.7646 66.6486 61.1732 66.6486 61.5955V66.4038C66.6486 66.8124 66.3762 67.221 65.8177 67.221L61.8403 67.6297C61.5679 68.3107 61.2954 69.0054 61.0094 69.6865L63.6247 72.8466C63.8971 73.119 63.8971 73.6639 63.6247 73.9499L60.1921 77.3825C59.9197 77.6549 59.3612 77.6549 59.0888 77.3825L55.9287 74.7672C55.2476 75.1758 54.5529 75.4483 53.8719 75.5981L53.4632 79.5755C53.7356 80.2566 53.327 80.6788 52.9184 80.6788V80.6652ZM48.8048 78.8808H52.1011L52.5097 75.0396C52.5097 74.631 52.7822 74.3586 53.1908 74.3586C54.1579 74.0861 55.1114 73.6775 55.9423 73.2552C56.2147 73.119 56.6234 73.119 56.9094 73.3915L59.9333 75.8569L62.2625 73.5277L59.7835 70.5038C59.511 70.2313 59.511 69.8227 59.6473 69.5367C60.1921 68.7194 60.6144 67.7523 60.7506 66.7852C60.8868 66.3765 61.1592 66.2403 61.4317 66.1041L65.2728 65.6955V62.3991L61.4317 61.9905C61.023 61.9905 60.7506 61.7181 60.7506 61.3094C60.4782 60.3423 60.0695 59.3888 59.6473 58.5579C59.511 58.2855 59.511 57.8769 59.7835 57.5908L62.2625 54.5669L59.9333 52.2377L56.9094 54.7031C56.637 54.9755 56.2283 54.9755 55.9423 54.8393C55.1114 54.2945 54.1579 53.8722 53.1908 53.736C52.7822 53.5998 52.6459 53.3274 52.5097 53.0549L52.1011 49.2138H48.8048L48.5323 52.9187C48.5323 53.3274 48.2599 53.5998 47.8513 53.5998C46.8842 53.8722 45.9307 54.2809 45.0998 54.7031C44.8273 54.8393 44.4187 54.8393 44.1327 54.5669L41.1087 52.1015L38.7795 54.5669L41.2586 57.5908C41.531 57.8632 41.531 58.2719 41.3948 58.5579C40.8499 59.3752 40.5639 60.3423 40.2915 61.3094C40.1553 61.7181 39.8828 61.8543 39.6104 61.9905L35.7692 62.3991V65.6955L39.6104 66.1041C40.0191 66.1041 40.2915 66.3765 40.2915 66.7852C40.5639 67.7523 40.9725 68.7058 41.3948 69.5367C41.531 69.8091 41.531 70.2177 41.2586 70.5038L38.7795 73.3915L41.1087 75.7207L44.1327 73.2416C44.4051 72.9692 44.8137 72.9692 45.0998 73.1054C45.917 73.6503 46.8842 74.0725 47.8513 74.2087C48.2599 74.3449 48.3961 74.6174 48.5323 74.8898L48.8048 78.8672V78.8808Z" fill="#300045"/>
<path d="M77.0826 60.0681H69.3866C68.978 60.0681 68.5693 59.6595 68.5693 59.2372C68.5693 58.8149 68.978 58.4199 69.3866 58.4199H77.0826C77.4913 58.4199 77.9135 58.8286 77.9135 59.2372C77.9135 59.6458 77.6411 60.0681 77.0826 60.0681Z" fill="#300045"/>
<path d="M77.0826 56.6238H69.3866C68.978 56.6238 68.5693 56.2152 68.5693 55.8065C68.5693 55.3979 68.978 54.9893 69.3866 54.9893H77.0826C77.4913 54.9893 77.9135 55.3979 77.9135 55.8065C77.9135 56.2152 77.6411 56.6238 77.0826 56.6238Z" fill="#300045"/>
<path d="M77.0826 53.1883H69.3866C68.978 53.1883 68.5693 52.7796 68.5693 52.371C68.5693 51.9623 68.978 51.5537 69.3866 51.5537H77.0826C77.4913 51.5537 77.9135 51.9623 77.9135 52.371C77.9135 52.7796 77.6411 53.1883 77.0826 53.1883Z" fill="#300045"/>
<path d="M77.0826 49.7576H69.3866C68.978 49.7576 68.5693 49.3489 68.5693 48.9267C68.5693 48.5044 68.978 48.1094 69.3866 48.1094H77.0826C77.4913 48.1094 77.9135 48.518 77.9135 48.9267C77.9135 49.3353 77.6411 49.7576 77.0826 49.7576Z" fill="#300045"/>
<path d="M31.629 60.0681H23.933C23.5244 60.0681 23.1157 59.6595 23.1157 59.2372C23.1157 58.8149 23.5244 58.4199 23.933 58.4199H31.629C32.0376 58.4199 32.4463 58.8286 32.4463 59.2372C32.4463 59.6458 32.0376 60.0681 31.629 60.0681Z" fill="#300045"/>
<path d="M31.629 56.6238H23.933C23.5244 56.6238 23.1157 56.2152 23.1157 55.8065C23.1157 55.3979 23.5244 54.9893 23.933 54.9893H31.629C32.0376 54.9893 32.4463 55.3979 32.4463 55.8065C32.4463 56.2152 32.0376 56.6238 31.629 56.6238Z" fill="#300045"/>
<path d="M31.629 53.1883H23.933C23.5244 53.1883 23.1157 52.7796 23.1157 52.371C23.1157 51.9623 23.5244 51.5537 23.933 51.5537H31.629C32.0376 51.5537 32.4463 51.9623 32.4463 52.371C32.4463 52.7796 32.0376 53.1883 31.629 53.1883Z" fill="#300045"/>
<path d="M31.629 49.7576H23.933C23.5244 49.7576 23.1157 49.3489 23.1157 48.9267C23.1157 48.5044 23.5244 48.1094 23.933 48.1094H31.629C32.0376 48.1094 32.4463 48.518 32.4463 48.9267C32.4463 49.3353 32.0376 49.7576 31.629 49.7576Z" fill="#300045"/>
<path d="M20.5127 28.3447C17.2163 28.3447 14.4648 25.5932 14.4648 22.2969C14.4648 19.0005 17.2163 16.249 20.5127 16.249C23.809 16.249 26.5605 19.0005 26.5605 22.2969C26.5605 25.5932 23.809 28.3447 20.5127 28.3447ZM20.5127 18.0334C18.1834 18.0334 16.2492 19.954 16.2492 22.2969C16.2492 24.6397 18.1698 26.5467 20.5127 26.5467C22.8555 26.5467 24.7761 24.6261 24.7761 22.2832C24.7761 19.9404 22.8555 18.0334 20.5127 18.0334Z" fill="#300045"/>
<path d="M77.0829 88.3621C73.2417 88.3621 70.2178 85.3381 70.2178 81.497C70.2178 77.6558 73.2417 74.6318 77.0829 74.6318C80.9241 74.6318 83.948 77.6558 83.948 81.497C83.948 85.3381 80.9241 88.3621 77.0829 88.3621ZM77.0829 76.4026C74.1952 76.4026 71.8659 78.7318 71.8659 81.6195C71.8659 84.5072 74.1952 86.8365 77.0829 86.8365C79.9706 86.8365 82.2998 84.5072 82.2998 81.6195C82.2998 78.7318 79.9706 76.4026 77.0829 76.4026Z" fill="#300045"/>
</svg>
