<svg width="267" height="302" viewBox="0 0 267 302" fill="none" xmlns="http://www.w3.org/2000/svg">
<path d="M21.0273 289.438C20.0794 289.401 19.0586 289.401 17.9648 289.438C16.8711 289.474 15.8503 289.383 14.9023 289.164C14.1732 288.982 13.4622 288.69 12.7695 288.289C12.0768 287.852 11.4023 287.451 10.7461 287.086C10.3815 286.867 9.88932 286.557 9.26953 286.156C8.6862 285.755 8.08464 285.318 7.46484 284.844C6.88151 284.333 6.31641 283.841 5.76953 283.367C5.22266 282.893 4.83984 282.492 4.62109 282.164C4.0013 281.398 3.45443 280.414 2.98047 279.211C2.50651 278.008 2.08724 276.75 1.72266 275.438C1.35807 274.089 1.06641 272.776 0.847656 271.5C0.665365 270.224 0.574219 269.094 0.574219 268.109C0.574219 267.49 0.665365 266.852 0.847656 266.195C1.02995 265.503 1.21224 264.846 1.39453 264.227C1.86849 262.513 2.37891 260.891 2.92578 259.359C3.50911 257.828 4.25651 256.279 5.16797 254.711C5.42318 254.31 5.7513 253.927 6.15234 253.562C6.55339 253.161 6.91797 252.779 7.24609 252.414C9.21484 250.336 11.293 248.859 13.4805 247.984C15.7044 247.073 18.2565 246.617 21.1367 246.617C21.5742 246.617 22.431 246.799 23.707 247.164C25.0195 247.492 26.3503 247.93 27.6992 248.477C29.0846 248.987 30.306 249.534 31.3633 250.117C32.457 250.701 33.0039 251.211 33.0039 251.648C33.0039 251.94 32.8034 252.414 32.4023 253.07C32.0013 253.69 31.5456 254.328 31.0352 254.984C30.5247 255.604 29.9779 256.151 29.3945 256.625C28.8477 257.099 28.4284 257.336 28.1367 257.336C27.6992 257.336 27.1706 257.227 26.5508 257.008C25.931 256.789 25.293 256.552 24.6367 256.297C24.0169 256.042 23.3971 255.805 22.7773 255.586C22.194 255.367 21.7018 255.258 21.3008 255.258C20.5352 255.258 19.6237 255.422 18.5664 255.75C17.5091 256.078 16.6706 256.443 16.0508 256.844C15.3945 257.208 14.793 257.846 14.2461 258.758C13.7357 259.669 13.2617 260.654 12.8242 261.711C12.4232 262.768 12.1133 263.826 11.8945 264.883C11.6758 265.904 11.5664 266.779 11.5664 267.508C11.5664 268.128 11.6758 269.076 11.8945 270.352C12.1133 271.591 12.4049 272.867 12.7695 274.18C13.1706 275.456 13.6263 276.641 14.1367 277.734C14.6471 278.828 15.194 279.539 15.7773 279.867C15.9961 279.977 16.3424 280.104 16.8164 280.25C17.3268 280.396 17.8555 280.542 18.4023 280.688C18.9857 280.833 19.5326 280.961 20.043 281.07C20.5534 281.143 20.9362 281.18 21.1914 281.18C21.7383 281.18 22.3763 281.016 23.1055 280.688C23.8711 280.323 24.6367 279.958 25.4023 279.594C26.2044 279.193 26.9518 278.828 27.6445 278.5C28.3372 278.172 28.8841 278.008 29.2852 278.008C29.6133 278.008 30.0143 278.227 30.4883 278.664C30.9622 279.102 31.418 279.63 31.8555 280.25C32.3294 280.833 32.7305 281.398 33.0586 281.945C33.3867 282.492 33.5508 282.93 33.5508 283.258C33.5508 283.549 33.4596 283.841 33.2773 284.133C33.0951 284.388 32.8581 284.643 32.5664 284.898C32.3112 285.154 32.0195 285.391 31.6914 285.609C31.3997 285.828 31.1445 286.029 30.9258 286.211C30.1237 286.867 29.3398 287.414 28.5742 287.852C27.8451 288.289 27.0977 288.654 26.332 288.945C25.5664 289.201 24.7461 289.383 23.8711 289.492C22.9961 289.602 22.0299 289.656 20.9727 289.656C20.8633 289.656 20.8086 289.656 20.8086 289.656L20.918 289.602L21.0273 289.438Z" fill="#300045"/>
<path d="M37.9258 272.648C37.9258 272.065 37.9987 271.482 38.1445 270.898C38.2904 270.279 38.4362 269.677 38.582 269.094C39.3477 265.776 40.6237 263.078 42.4102 261C44.2331 258.885 46.8763 257.518 50.3398 256.898C50.8867 256.826 51.3971 256.734 51.8711 256.625C52.3815 256.516 52.9102 256.461 53.457 256.461C57.7227 256.461 61.3867 258.029 64.4492 261.164C64.668 261.346 64.9232 261.729 65.2148 262.312C65.5065 262.859 65.7799 263.443 66.0352 264.062C66.3268 264.682 66.582 265.247 66.8008 265.758C67.056 266.268 67.2018 266.578 67.2383 266.688C67.3477 267.052 67.5117 267.544 67.7305 268.164C67.9857 268.747 68.2227 269.404 68.4414 270.133C68.6966 270.826 68.9154 271.518 69.0977 272.211C69.3164 272.867 69.4258 273.432 69.4258 273.906C69.4258 274.125 69.3711 274.526 69.2617 275.109C69.1523 275.656 69.0247 276.276 68.8789 276.969C68.7331 277.625 68.5872 278.263 68.4414 278.883C68.2956 279.466 68.1862 279.867 68.1133 280.086C67.8581 280.815 67.3477 281.635 66.582 282.547C65.8529 283.458 65.0143 284.352 64.0664 285.227C63.1549 286.065 62.207 286.831 61.2227 287.523C60.2747 288.216 59.4544 288.708 58.7617 289C58.5065 289.109 58.1419 289.201 57.668 289.273C57.2305 289.346 56.7747 289.401 56.3008 289.438C55.8268 289.51 55.3529 289.565 54.8789 289.602C54.4049 289.638 54.0221 289.656 53.7305 289.656C50.9232 289.656 48.4805 289.109 46.4023 288.016C44.3242 286.922 42.5013 285.208 40.9336 282.875C40.6419 282.474 40.3503 282.073 40.0586 281.672C39.8034 281.271 39.5846 280.833 39.4023 280.359C39.1836 279.74 39.0013 279.12 38.8555 278.5C38.7461 277.844 38.6367 277.206 38.5273 276.586C38.3815 275.893 38.2357 275.237 38.0898 274.617C37.9805 273.961 37.9258 273.305 37.9258 272.648ZM58.9805 273.578C58.9805 273.286 58.944 272.831 58.8711 272.211C58.7982 271.591 58.6888 270.953 58.543 270.297C58.4336 269.641 58.2878 269.021 58.1055 268.438C57.9596 267.854 57.7956 267.453 57.6133 267.234C57.3581 266.833 57.0299 266.542 56.6289 266.359C56.2643 266.141 55.8815 265.94 55.4805 265.758C55.1523 265.612 54.7513 265.448 54.2773 265.266C53.8034 265.047 53.4023 264.938 53.0742 264.938C52.6732 264.938 52.2904 265.01 51.9258 265.156C51.5977 265.302 51.2878 265.466 50.9961 265.648C50.5951 265.831 50.2122 265.995 49.8477 266.141C49.5195 266.286 49.2461 266.56 49.0273 266.961C48.8815 267.18 48.7174 267.562 48.5352 268.109C48.3893 268.62 48.2435 269.185 48.0977 269.805C47.9518 270.424 47.8242 271.026 47.7148 271.609C47.6419 272.193 47.6055 272.612 47.6055 272.867C47.6055 273.049 47.6784 273.432 47.8242 274.016C47.9701 274.599 48.1523 275.219 48.3711 275.875C48.6263 276.531 48.8451 277.151 49.0273 277.734C49.2461 278.318 49.4102 278.701 49.5195 278.883C49.7383 279.247 50.0299 279.539 50.3945 279.758C50.7591 279.94 51.1055 280.141 51.4336 280.359C51.7253 280.542 52.0169 280.76 52.3086 281.016C52.6367 281.271 53.0195 281.398 53.457 281.398C53.7487 281.398 54.1315 281.253 54.6055 280.961C55.0794 280.669 55.4622 280.451 55.7539 280.305C57.1029 279.576 57.9779 278.664 58.3789 277.57C58.7799 276.44 58.9805 275.109 58.9805 273.578Z" fill="#300045"/>
<path d="M75.0039 275.711C75.0039 274.508 75.0586 273.305 75.168 272.102C75.3138 270.862 75.3867 269.622 75.3867 268.383C75.3867 267.727 75.3503 267.052 75.2773 266.359C75.2044 265.667 75.168 264.974 75.168 264.281C75.168 263.99 75.1862 263.497 75.2227 262.805C75.2956 262.076 75.3685 261.346 75.4414 260.617C75.5508 259.852 75.6602 259.159 75.7695 258.539C75.9154 257.919 76.0794 257.518 76.2617 257.336C76.6263 257.044 77.1367 256.898 77.793 256.898C78.4857 256.898 79.069 256.898 79.543 256.898C80.0534 256.898 80.6003 256.88 81.1836 256.844C81.7669 256.807 82.2956 256.917 82.7695 257.172C82.9883 257.281 83.1523 257.536 83.2617 257.938C83.4076 258.339 83.5169 258.758 83.5898 259.195C83.6992 259.596 83.8086 259.961 83.918 260.289C84.0273 260.617 84.1549 260.781 84.3008 260.781C84.4102 260.781 84.5924 260.69 84.8477 260.508C85.1393 260.326 85.431 260.107 85.7227 259.852C86.0508 259.56 86.3607 259.305 86.6523 259.086C86.944 258.831 87.1445 258.648 87.2539 258.539C87.5091 258.32 87.9466 258.102 88.5664 257.883C89.2227 257.664 89.9154 257.464 90.6445 257.281C91.4102 257.099 92.1393 256.953 92.832 256.844C93.5247 256.734 94.0352 256.68 94.3633 256.68C96.1862 256.68 97.5534 256.898 98.4648 257.336C99.3763 257.773 100.069 258.266 100.543 258.812C101.053 259.359 101.454 259.888 101.746 260.398C102.038 260.909 102.512 261.237 103.168 261.383C103.605 261.31 104.116 261 104.699 260.453C105.319 259.87 105.793 259.414 106.121 259.086C106.303 258.904 106.704 258.685 107.324 258.43C107.944 258.138 108.618 257.846 109.348 257.555C110.077 257.227 110.77 256.971 111.426 256.789C112.082 256.57 112.52 256.461 112.738 256.461C112.993 256.461 113.413 256.497 113.996 256.57C114.579 256.643 115.181 256.753 115.801 256.898C116.421 257.008 116.986 257.154 117.496 257.336C118.007 257.482 118.353 257.628 118.535 257.773C119.228 258.284 119.829 259.031 120.34 260.016C120.887 261 121.361 262.076 121.762 263.242C122.163 264.372 122.454 265.503 122.637 266.633C122.855 267.763 122.965 268.747 122.965 269.586C122.965 270.898 122.819 272.193 122.527 273.469C122.272 274.745 122.145 276.039 122.145 277.352C122.145 278.737 122.126 280.104 122.09 281.453C122.053 282.766 121.999 284.096 121.926 285.445C121.853 286.393 121.725 287.104 121.543 287.578C121.361 288.016 121.087 288.307 120.723 288.453C120.395 288.599 119.939 288.672 119.355 288.672C118.809 288.635 118.116 288.617 117.277 288.617C116.475 288.617 115.783 288.635 115.199 288.672C114.652 288.708 114.197 288.654 113.832 288.508C113.467 288.362 113.194 288.089 113.012 287.688C112.829 287.25 112.738 286.576 112.738 285.664C112.702 284.352 112.665 283.057 112.629 281.781C112.629 280.505 112.629 279.211 112.629 277.898C112.629 276.039 112.465 274.289 112.137 272.648C111.845 270.971 111.316 269.294 110.551 267.617C110.478 267.471 110.368 267.271 110.223 267.016C110.113 266.724 109.967 266.469 109.785 266.25C109.603 265.995 109.421 265.776 109.238 265.594C109.056 265.411 108.874 265.32 108.691 265.32C108.436 265.32 108.072 265.466 107.598 265.758C107.124 266.049 106.777 266.268 106.559 266.414C105.829 266.888 105.264 267.344 104.863 267.781C104.499 268.219 104.243 268.693 104.098 269.203C103.988 269.714 103.934 270.279 103.934 270.898C103.934 271.518 103.934 272.229 103.934 273.031C103.934 274.453 103.97 275.857 104.043 277.242C104.152 278.591 104.207 279.977 104.207 281.398C104.207 283.513 104.152 285.099 104.043 286.156C103.934 287.177 103.587 287.906 103.004 288.344C102.457 288.745 101.618 288.945 100.488 288.945C99.3581 288.909 97.7721 288.891 95.7305 288.891C95.1107 288.891 94.6549 288.836 94.3633 288.727C94.1081 288.617 93.9258 288.435 93.8164 288.18C93.7435 287.924 93.707 287.615 93.707 287.25C93.7435 286.885 93.7617 286.448 93.7617 285.938C93.7617 285.391 93.7982 284.88 93.8711 284.406C93.944 283.896 93.9805 283.367 93.9805 282.82C93.9805 281.872 93.9622 280.943 93.9258 280.031C93.8893 279.083 93.8711 278.117 93.8711 277.133C93.8711 276.258 93.9258 275.401 94.0352 274.562C94.1445 273.688 94.1992 272.831 94.1992 271.992C94.1992 271.591 94.0169 271.062 93.6523 270.406C93.2878 269.714 92.8685 269.021 92.3945 268.328C91.9206 267.635 91.4102 267.034 90.8633 266.523C90.3164 266.013 89.8789 265.758 89.5508 265.758C89.2956 265.758 88.9857 265.867 88.6211 266.086C88.2565 266.268 87.9831 266.432 87.8008 266.578C86.9622 267.161 86.3789 267.727 86.0508 268.273C85.7591 268.784 85.5951 269.349 85.5586 269.969C85.5221 270.589 85.5586 271.299 85.668 272.102C85.7773 272.867 85.7956 273.815 85.7227 274.945C85.6497 276.112 85.5586 277.26 85.4492 278.391C85.3763 279.521 85.2852 280.669 85.1758 281.836C85.1758 281.909 85.1576 282.31 85.1211 283.039C85.0846 283.768 85.0117 284.57 84.9023 285.445C84.8294 286.284 84.7018 287.104 84.5195 287.906C84.3737 288.672 84.1367 289.146 83.8086 289.328C83.4805 289.51 83.0612 289.602 82.5508 289.602C82.1862 289.602 81.5846 289.583 80.7461 289.547C79.9076 289.547 79.0508 289.474 78.1758 289.328C77.3372 289.219 76.5898 289.036 75.9336 288.781C75.3138 288.49 75.0039 288.07 75.0039 287.523V275.711Z" fill="#300045"/>
<path d="M136.691 257.008C137.384 257.008 137.876 257.099 138.168 257.281C138.496 257.464 138.733 257.901 138.879 258.594C138.915 258.667 138.952 258.904 138.988 259.305C139.025 259.706 139.061 259.943 139.098 260.016C139.134 260.016 139.207 259.979 139.316 259.906C139.535 259.578 139.827 259.341 140.191 259.195C140.592 259.049 140.975 258.904 141.34 258.758C141.887 258.539 142.488 258.302 143.145 258.047C143.837 257.755 144.53 257.482 145.223 257.227C145.952 256.935 146.645 256.698 147.301 256.516C147.993 256.333 148.632 256.242 149.215 256.242C149.652 256.242 150.09 256.333 150.527 256.516C151.001 256.698 151.439 256.862 151.84 257.008C152.35 257.19 152.861 257.372 153.371 257.555C153.918 257.737 154.392 258.01 154.793 258.375C155.486 258.922 156.087 259.596 156.598 260.398C157.145 261.201 157.618 262.057 158.02 262.969C158.457 263.844 158.803 264.755 159.059 265.703C159.35 266.615 159.605 267.471 159.824 268.273C159.97 268.784 160.152 269.495 160.371 270.406C160.626 271.281 160.754 271.974 160.754 272.484C160.754 273.323 160.645 274.344 160.426 275.547C160.207 276.75 159.934 277.971 159.605 279.211C159.277 280.451 158.876 281.617 158.402 282.711C157.928 283.805 157.418 284.68 156.871 285.336C156.507 285.81 156.142 286.174 155.777 286.43C155.449 286.685 155.048 286.958 154.574 287.25C153.699 287.87 152.824 288.435 151.949 288.945C151.074 289.456 150.053 289.711 148.887 289.711C148.194 289.711 147.483 289.565 146.754 289.273C146.025 289.018 145.314 288.727 144.621 288.398C143.928 288.07 143.272 287.76 142.652 287.469C142.033 287.177 141.486 287.031 141.012 287.031C140.647 287.031 140.447 287.286 140.41 287.797C140.41 288.307 140.41 288.69 140.41 288.945C140.374 290.221 140.301 291.461 140.191 292.664C140.118 293.904 140.046 295.161 139.973 296.438C139.936 296.948 139.9 297.477 139.863 298.023C139.863 298.57 139.79 299.081 139.645 299.555C139.535 300.029 139.316 300.411 138.988 300.703C138.66 301.031 138.168 301.195 137.512 301.195C137.22 301.195 136.728 301.177 136.035 301.141C135.342 301.104 134.613 301.031 133.848 300.922C133.118 300.849 132.426 300.74 131.77 300.594C131.15 300.484 130.73 300.339 130.512 300.156C130.184 299.865 130.001 299.354 129.965 298.625C129.928 297.896 129.91 297.312 129.91 296.875C129.91 295.271 129.874 293.667 129.801 292.062C129.764 290.495 129.746 288.909 129.746 287.305C129.746 285.372 129.874 283.458 130.129 281.562C130.421 279.667 130.566 277.734 130.566 275.766C130.566 274.089 130.53 272.43 130.457 270.789C130.421 269.148 130.402 267.49 130.402 265.812C130.402 264.609 130.311 263.406 130.129 262.203C129.983 261 129.91 259.797 129.91 258.594C129.91 258.156 130.02 257.828 130.238 257.609C130.493 257.354 130.785 257.19 131.113 257.117C131.441 257.008 131.806 256.971 132.207 257.008C132.608 257.008 132.973 257.008 133.301 257.008H136.691ZM145.605 281.617C146.225 281.07 146.736 280.615 147.137 280.25C147.538 279.885 147.902 279.521 148.23 279.156C148.559 278.755 148.85 278.299 149.105 277.789C149.361 277.279 149.616 276.659 149.871 275.93C150.017 275.565 150.199 275.091 150.418 274.508C150.673 273.888 150.801 273.396 150.801 273.031C150.801 272.411 150.728 271.737 150.582 271.008C150.436 270.279 150.217 269.586 149.926 268.93C149.634 268.237 149.27 267.599 148.832 267.016C148.395 266.432 147.902 265.977 147.355 265.648C147.173 265.539 146.863 265.357 146.426 265.102C145.988 264.846 145.66 264.719 145.441 264.719C145.077 264.719 144.676 264.828 144.238 265.047C143.837 265.266 143.491 265.448 143.199 265.594C142.434 265.958 141.868 266.378 141.504 266.852C141.139 267.289 140.884 267.799 140.738 268.383C140.629 268.93 140.574 269.549 140.574 270.242C140.611 270.898 140.629 271.664 140.629 272.539V275.219C140.629 275.948 140.611 276.586 140.574 277.133C140.538 277.68 140.556 278.19 140.629 278.664C140.738 279.102 140.957 279.484 141.285 279.812C141.65 280.141 142.197 280.451 142.926 280.742C143.217 280.888 143.618 281.07 144.129 281.289C144.639 281.508 145.022 281.635 145.277 281.672L145.605 281.617Z" fill="#300045"/>
<path d="M174.918 289.984C174.663 289.911 174.189 289.729 173.496 289.438C172.84 289.182 172.147 288.872 171.418 288.508C170.689 288.143 170.014 287.779 169.395 287.414C168.775 287.049 168.374 286.758 168.191 286.539C167.827 286.102 167.535 285.591 167.316 285.008C167.098 284.388 166.861 283.823 166.605 283.312C166.423 282.766 166.223 282.219 166.004 281.672C165.785 281.089 165.676 280.505 165.676 279.922C165.676 279.411 165.767 278.901 165.949 278.391C166.168 277.88 166.387 277.388 166.605 276.914C166.824 276.477 167.043 276.003 167.262 275.492C167.517 274.945 167.79 274.49 168.082 274.125C168.374 273.688 168.829 273.25 169.449 272.812C170.105 272.375 170.798 271.956 171.527 271.555C172.257 271.154 172.986 270.807 173.715 270.516C174.48 270.224 175.1 270.023 175.574 269.914C175.793 269.878 176.285 269.805 177.051 269.695C177.816 269.549 178.6 269.385 179.402 269.203C180.204 269.021 180.915 268.839 181.535 268.656C182.191 268.474 182.52 268.292 182.52 268.109C182.52 267.927 182.319 267.654 181.918 267.289C181.517 266.888 181.043 266.505 180.496 266.141C179.949 265.74 179.402 265.393 178.855 265.102C178.345 264.81 177.98 264.664 177.762 264.664C177.178 264.664 176.595 264.755 176.012 264.938C175.465 265.12 174.918 265.32 174.371 265.539C173.824 265.758 173.277 265.958 172.73 266.141C172.22 266.323 171.691 266.414 171.145 266.414C170.853 266.414 170.507 266.214 170.105 265.812C169.741 265.411 169.358 264.938 168.957 264.391C168.592 263.807 168.283 263.242 168.027 262.695C167.809 262.112 167.699 261.693 167.699 261.438C167.699 261.146 167.79 260.891 167.973 260.672C168.155 260.417 168.392 260.18 168.684 259.961C168.975 259.742 169.267 259.56 169.559 259.414C169.85 259.232 170.105 259.086 170.324 258.977C171.965 258.029 173.587 257.318 175.191 256.844C176.832 256.333 178.618 256.078 180.551 256.078C182.775 256.078 184.634 256.497 186.129 257.336C187.66 258.138 188.918 259.232 189.902 260.617C190.923 261.966 191.707 263.516 192.254 265.266C192.837 267.016 193.257 268.839 193.512 270.734C193.621 271.646 193.639 272.557 193.566 273.469C193.53 274.38 193.512 275.292 193.512 276.203C193.512 277.26 193.566 278.336 193.676 279.43C193.785 280.523 193.84 281.599 193.84 282.656C193.84 282.911 193.803 283.385 193.73 284.078C193.694 284.771 193.621 285.482 193.512 286.211C193.439 286.94 193.329 287.615 193.184 288.234C193.038 288.818 192.874 289.164 192.691 289.273C192.4 289.419 192.072 289.492 191.707 289.492C191.452 289.492 191.051 289.474 190.504 289.438C189.957 289.438 189.392 289.401 188.809 289.328C188.262 289.292 187.715 289.237 187.168 289.164C186.658 289.091 186.293 289 186.074 288.891C185.819 288.781 185.618 288.599 185.473 288.344C185.327 288.052 185.199 287.76 185.09 287.469C184.98 287.177 184.871 286.922 184.762 286.703C184.652 286.448 184.507 286.284 184.324 286.211C184.105 286.247 183.832 286.375 183.504 286.594C183.176 286.776 182.848 286.977 182.52 287.195C182.191 287.414 181.882 287.651 181.59 287.906C181.298 288.125 181.043 288.307 180.824 288.453C180.059 288.964 179.092 289.292 177.926 289.438C176.796 289.62 175.793 289.802 174.918 289.984ZM183.559 275.547C183.559 275.328 183.467 275.091 183.285 274.836C183.103 274.763 182.957 274.727 182.848 274.727C182.191 274.727 181.444 274.836 180.605 275.055C179.767 275.237 178.983 275.547 178.254 275.984C177.561 276.385 176.978 276.896 176.504 277.516C176.03 278.099 175.811 278.81 175.848 279.648C175.921 279.794 176.103 279.995 176.395 280.25C176.686 280.505 176.996 280.779 177.324 281.07C177.689 281.362 178.053 281.617 178.418 281.836C178.783 282.055 179.038 282.182 179.184 282.219C179.402 282.146 179.749 282 180.223 281.781C180.733 281.526 181.098 281.326 181.316 281.18C181.79 280.852 182.173 280.578 182.465 280.359C182.757 280.141 182.975 279.922 183.121 279.703C183.303 279.448 183.413 279.138 183.449 278.773C183.522 278.372 183.559 277.88 183.559 277.297V275.547Z" fill="#300045"/>
<path d="M210.793 285.883C210.757 286.32 210.72 286.758 210.684 287.195C210.684 287.596 210.611 287.997 210.465 288.398C210.355 288.763 210.137 289.055 209.809 289.273C209.517 289.492 209.098 289.602 208.551 289.602C208.259 289.602 207.767 289.583 207.074 289.547C206.382 289.51 205.652 289.438 204.887 289.328C204.121 289.255 203.41 289.146 202.754 289C202.098 288.891 201.66 288.763 201.441 288.617C201.186 288.435 201.04 288.198 201.004 287.906C201.004 287.578 201.004 287.268 201.004 286.977C201.004 285.154 201.113 283.331 201.332 281.508C201.587 279.685 201.715 277.826 201.715 275.93C201.715 273.888 201.715 271.865 201.715 269.859C201.715 267.818 201.697 265.776 201.66 263.734C201.66 262.932 201.551 262.112 201.332 261.273C201.113 260.435 201.004 259.596 201.004 258.758C201.004 258.284 201.259 257.938 201.77 257.719C202.316 257.464 202.936 257.299 203.629 257.227C204.358 257.154 205.069 257.135 205.762 257.172C206.491 257.172 207.02 257.172 207.348 257.172C208.004 257.172 208.478 257.281 208.77 257.5C209.061 257.719 209.262 257.992 209.371 258.32C209.517 258.648 209.608 259.031 209.645 259.469C209.717 259.906 209.827 260.362 209.973 260.836L210.246 260.945C210.283 260.872 210.41 260.763 210.629 260.617C210.848 260.435 211.066 260.253 211.285 260.07C211.54 259.888 211.796 259.724 212.051 259.578C212.306 259.396 212.488 259.268 212.598 259.195C213.655 258.43 214.858 257.792 216.207 257.281C217.592 256.771 218.978 256.516 220.363 256.516C220.801 256.516 221.238 256.57 221.676 256.68C222.15 256.789 222.587 256.917 222.988 257.062C223.389 257.208 223.809 257.354 224.246 257.5C224.72 257.609 225.121 257.792 225.449 258.047C226.908 259.031 227.983 260.216 228.676 261.602C229.368 262.951 229.824 264.391 230.043 265.922C230.298 267.453 230.408 269.039 230.371 270.68C230.371 272.32 230.371 273.906 230.371 275.438C230.371 276.531 230.408 277.625 230.48 278.719C230.553 279.812 230.59 280.906 230.59 282C230.59 284.005 230.517 285.5 230.371 286.484C230.225 287.469 229.861 288.143 229.277 288.508C228.694 288.836 227.837 288.982 226.707 288.945C225.613 288.909 224.118 288.891 222.223 288.891C221.384 288.891 220.837 288.781 220.582 288.562C220.327 288.344 220.199 287.815 220.199 286.977C220.199 286.284 220.236 285.609 220.309 284.953C220.418 284.26 220.473 283.549 220.473 282.82C220.473 281.872 220.454 280.943 220.418 280.031C220.382 279.083 220.363 278.117 220.363 277.133C220.363 276.258 220.418 275.401 220.527 274.562C220.637 273.688 220.691 272.831 220.691 271.992C220.691 271.591 220.509 271.062 220.145 270.406C219.816 269.714 219.397 269.039 218.887 268.383C218.376 267.69 217.848 267.089 217.301 266.578C216.754 266.068 216.316 265.812 215.988 265.812C215.697 265.812 215.35 265.922 214.949 266.141C214.585 266.323 214.275 266.487 214.02 266.633C213.108 267.18 212.47 267.708 212.105 268.219C211.777 268.693 211.595 269.258 211.559 269.914C211.522 270.534 211.559 271.245 211.668 272.047C211.777 272.849 211.796 273.815 211.723 274.945C211.65 276.112 211.559 277.26 211.449 278.391C211.376 279.521 211.285 280.669 211.176 281.836L210.793 285.883Z" fill="#300045"/>
<path d="M241.582 301.523C241.436 301.523 241.163 301.487 240.762 301.414C240.397 301.341 240.014 301.232 239.613 301.086C239.212 300.977 238.848 300.831 238.52 300.648C238.228 300.503 238.082 300.339 238.082 300.156C238.082 299.938 238.246 299.5 238.574 298.844C238.902 298.188 239.285 297.477 239.723 296.711C240.16 295.982 240.579 295.289 240.98 294.633C241.418 293.977 241.728 293.539 241.91 293.32C242.202 293.029 242.639 292.664 243.223 292.227C243.806 291.789 244.408 291.352 245.027 290.914C245.647 290.477 246.194 290.021 246.668 289.547C247.142 289.109 247.379 288.727 247.379 288.398C247.379 288.216 247.233 287.833 246.941 287.25C246.65 286.667 246.322 286.047 245.957 285.391C245.629 284.698 245.283 284.042 244.918 283.422C244.553 282.802 244.298 282.365 244.152 282.109C243.642 281.125 243.204 280.068 242.84 278.938C242.512 277.771 242.147 276.659 241.746 275.602C241.309 274.289 240.798 273.031 240.215 271.828C239.668 270.589 239.194 269.312 238.793 268C238.538 267.125 238.319 266.268 238.137 265.43C237.991 264.591 237.754 263.771 237.426 262.969C237.353 262.75 237.207 262.385 236.988 261.875C236.77 261.328 236.551 260.781 236.332 260.234C236.113 259.688 235.913 259.195 235.73 258.758C235.585 258.32 235.512 258.029 235.512 257.883L235.73 257.281C235.949 257.099 236.204 257.008 236.496 257.008C236.824 256.971 237.134 256.953 237.426 256.953C237.79 256.953 238.301 256.953 238.957 256.953C239.613 256.953 240.288 256.971 240.98 257.008C241.673 257.044 242.329 257.099 242.949 257.172C243.605 257.245 244.043 257.372 244.262 257.555C244.48 257.664 244.645 257.81 244.754 257.992C244.9 258.174 245.009 258.357 245.082 258.539C245.374 259.341 245.592 260.198 245.738 261.109C245.921 261.984 246.139 262.841 246.395 263.68C246.686 264.773 247.105 265.885 247.652 267.016C248.236 268.109 248.764 269.203 249.238 270.297C249.712 271.427 250.059 272.594 250.277 273.797C250.496 275 250.751 276.203 251.043 277.406C251.116 277.625 251.171 277.844 251.207 278.062C251.28 278.281 251.353 278.518 251.426 278.773L251.59 279.047C251.59 279.12 251.608 279.156 251.645 279.156L251.754 279.047C252.228 276.969 252.757 274.927 253.34 272.922C253.96 270.88 254.525 268.802 255.035 266.688C255.363 265.375 255.655 264.026 255.91 262.641C256.202 261.219 256.548 259.852 256.949 258.539C257.059 258.102 257.277 257.792 257.605 257.609C257.788 257.464 258.079 257.372 258.48 257.336C258.918 257.263 259.355 257.227 259.793 257.227C260.267 257.19 260.723 257.172 261.16 257.172C261.598 257.172 261.926 257.172 262.145 257.172C262.363 257.172 262.71 257.172 263.184 257.172C263.694 257.135 264.204 257.135 264.715 257.172C265.225 257.208 265.681 257.318 266.082 257.5C266.483 257.646 266.684 257.865 266.684 258.156C266.684 258.375 266.592 258.721 266.41 259.195C266.264 259.669 266.155 260.016 266.082 260.234C265.79 260.964 265.499 261.711 265.207 262.477C264.952 263.206 264.715 263.953 264.496 264.719C264.241 265.594 264.04 266.505 263.895 267.453C263.749 268.401 263.475 269.312 263.074 270.188C262.637 271.318 262.145 272.43 261.598 273.523C261.087 274.617 260.632 275.747 260.23 276.914C259.939 277.643 259.738 278.427 259.629 279.266C259.52 280.068 259.374 280.87 259.191 281.672C258.936 282.948 258.572 284.279 258.098 285.664C257.624 287.013 257.077 288.344 256.457 289.656C255.837 291.005 255.126 292.281 254.324 293.484C253.559 294.724 252.72 295.799 251.809 296.711C251.553 296.93 251.262 297.203 250.934 297.531C250.642 297.896 250.314 298.242 249.949 298.57C249.585 298.935 249.202 299.263 248.801 299.555C248.436 299.883 248.108 300.12 247.816 300.266C247.561 300.375 247.178 300.484 246.668 300.594C246.158 300.703 245.611 300.794 245.027 300.867C244.444 300.977 243.879 301.068 243.332 301.141C242.822 301.214 242.384 301.268 242.02 301.305L241.965 301.469L241.582 301.523Z" fill="#300045"/>
<path d="M151.108 0.116419C155.444 -0.292215 159.817 0.418995 163.997 1.56067C166.458 1.98178 169.075 2.14399 171.284 3.44476C172.822 4.59579 174.172 5.9839 175.729 7.11622C176.961 7.99588 177.532 9.44949 178.446 10.6005C179.416 11.3429 180.814 11.4396 181.625 12.4066C182.208 13.7791 182.061 15.3419 182.277 16.7924C181.986 18.6235 183.652 19.734 184.398 21.1626C185.418 22.6942 184.866 24.8871 186.226 26.2253C187.511 27.445 187.913 29.2573 189.033 30.5924C190.44 31.7559 192.474 31.2069 194.093 31.8183C195.097 32.3423 196.023 33.0099 196.931 33.6899C198.335 33.4778 199.723 33.1814 201.13 32.988C202.93 35.5209 206.199 35.6176 209.009 35.811C210.488 35.8641 211.966 34.7286 213.408 35.496C214.209 35.6832 214.961 36.8186 214.022 37.3582C211.477 38.9522 208.56 40.1563 205.484 39.9411C203.295 40.0284 201.542 41.9717 199.255 41.4446C197.558 41.3884 195.846 40.1812 194.174 40.9704C192.742 41.6099 191.188 41.9062 189.623 41.7503C189.429 42.5363 189.264 43.3318 189.067 44.1178C191.104 43.965 193.116 44.4953 195.153 44.4048C199.349 44.0742 203.566 44.436 207.749 43.8839C209.92 43.5501 212.035 44.3955 214.212 44.1865C215.919 44.2457 217.912 44.3549 219.066 45.7929C219.967 49.0464 219.297 52.4902 219.593 55.8279C219.571 57.1817 218.467 58.183 218.152 59.4494C218.052 60.8625 218.854 62.2631 218.38 63.6543C217.594 65.9844 217.884 68.4799 217.591 70.8912C217.912 74.1321 217.665 77.395 217.07 80.5954C216.795 82.7072 217.251 84.8565 216.889 86.9682C216.312 89.4793 217.416 92.1713 219.094 94.0336C218.726 97.2434 217.722 100.55 215.104 102.659C215.351 105.248 213.563 107.194 212.125 109.103C210.878 110.71 209.015 111.639 207.39 112.793C205.444 114.197 202.842 114.029 200.83 115.301C199.533 116.206 198.659 117.557 197.655 118.751C196.248 118.742 194.47 118.461 193.509 119.809C192.252 120.751 193.151 122.292 193.275 123.514C193.999 125.72 192.224 127.688 192.184 129.825C192.826 131.831 194.476 133.518 194.23 135.78C193.294 138.247 190.362 139.024 189.095 141.198C188.409 143.428 187.174 145.425 186.375 147.608C185.851 149.034 185.982 150.59 185.524 152.031C182.071 154.602 177.682 154.128 173.642 154.33C170.663 154.337 167.609 154.667 164.705 153.85C166.252 159.003 166.596 164.652 164.949 169.827C164.147 172.435 163.925 175.28 162.444 177.638C160.27 181.016 159.359 185.243 156.236 187.96C154.449 189.691 152.156 191.098 151.236 193.541C150.35 195.63 149.704 197.823 149.227 200.041C149.077 200.581 149.305 201.145 149.736 201.495C150.849 202.468 152.25 203.095 153.229 204.231C153.728 204.995 153.956 205.896 154.284 206.745C156.873 205.887 159.577 205.148 162.331 205.226C162.325 207.562 161.867 210.001 162.734 212.244C163.261 213.607 163.136 215.083 163.33 216.505C164.119 218.355 165.641 219.908 165.735 222.029C166.346 223.967 165.351 225.891 163.932 227.164C162.228 229.032 159.59 229.463 157.294 230.202C155.363 230.645 153.675 231.718 151.847 232.429C149.037 232.822 146.173 232.454 143.431 231.781C142.764 231.609 142.262 231.032 142.087 230.38C141.61 228.639 141.413 226.708 142.096 224.99C143.316 222.507 145.752 221.075 147.783 219.344C148.875 218.327 148.266 216.851 147.986 215.632C147.589 213.713 145.892 212.456 145.181 210.684C146.71 208.738 149.551 209.143 151.663 208.423C151.311 207.509 151.273 206.38 150.625 205.644C149.346 205.013 147.811 205.076 146.56 204.343C145.696 203.41 145.861 202.044 145.228 201.011C144.461 200.122 143.541 199.339 143.023 198.26C142.446 197.54 142.283 196.323 141.354 195.967C138.559 195.553 135.589 194.239 132.785 195.406C129.198 196.682 126.602 199.586 124.123 202.334C123.071 203.507 122.681 205.101 122.485 206.626C122.513 208.507 124.962 208.476 126.262 209.019C127.513 209.524 128.82 209.197 130.077 208.959C130.464 212.547 130.321 216.196 131.297 219.709C131.671 221.615 132.704 223.567 132.083 225.545C131.646 226.843 131.494 228.324 130.642 229.441C129.503 230.458 128.381 231.631 126.924 232.189C124.859 232.707 122.775 233.19 120.648 233.353C116.867 233.711 113.077 234.457 109.271 233.998C108.467 233.939 107.662 233.973 106.86 234.002C105.612 231.774 103.248 229.669 104.349 226.84C105.641 224.656 106.826 222.051 109.234 220.888C110.32 220.317 111.38 219.702 112.394 219.013C113.483 218.274 114.861 218.711 116.072 218.739C117.176 215.71 115.41 212.893 114.986 209.942C115.828 209.493 116.649 209.012 117.45 208.498C115.941 206.923 115.697 204.695 115.856 202.612C117.687 201.404 120.055 200.802 121.253 198.84C122.407 197.015 123.698 195.106 124.017 192.926C123.73 191.641 122.276 191.223 121.265 190.671C119.437 189.944 117.921 188.621 116.752 187.065C115.869 185.611 114.206 185.047 112.958 184.008C112.463 183.203 112.668 182.199 112.609 181.3C111.873 180.704 110.971 180.087 110.937 179.036C110.9 177.142 109.711 175.598 109.243 173.829C109.281 172.962 109.827 172.217 110.154 171.437C108.75 169.497 109.877 167.126 109.446 164.97C108.669 161.333 109.097 157.409 110.741 154.075C111.539 151.794 110.766 149.109 112.163 147.022C112.987 145.649 113.52 144.14 114.088 142.652C112.943 143.89 111.823 145.163 110.504 146.223C110.126 148.011 110.825 150.191 109.777 151.791C108.308 152.871 106.296 152.758 104.611 153.298C105.029 155.525 105.681 157.727 105.572 160.023C104.829 160.928 103.669 161.411 102.98 162.356C102.35 163.982 102 165.81 100.806 167.154C100.185 167.962 99.2864 168.598 98.8591 169.55C98.257 171.275 98.4691 173.224 97.6051 174.874C96.5539 176.999 95.955 179.319 95.59 181.653C95.0597 184.797 92.3209 186.878 90.1124 188.905C87.9788 190.474 85.5208 192.393 82.6822 191.9C80.8199 191.837 79.123 190.877 77.2451 190.886C73.8794 190.742 70.5666 190.172 67.2414 189.688C63.0054 189.81 58.6071 190.449 54.5675 188.743C52.4963 188.381 52.359 185.883 52.4246 184.264C52.749 182.994 52.8457 181.144 54.1745 180.449C56.2863 180.118 58.3482 180.991 60.4225 181.269C60.5286 180.237 60.12 179.185 60.4069 178.178C61.3178 176.097 63.6667 175.161 64.6617 173.121C64.8801 170.339 64.147 167.634 63.8164 164.899C63.676 164.11 64.119 163.401 64.4247 162.715C65.1764 161.106 65.975 159.487 67.1291 158.127C69.8398 155.784 73.6579 155.896 76.7086 154.243C77.6631 153.276 78.5334 152.234 79.4006 151.189C78.9358 150.899 78.443 150.65 78.0281 150.288C77.1703 149.427 77.5758 147.842 76.5152 147.153C75.2956 146.273 73.8513 145.503 72.2854 145.855C68.8978 146.389 66.106 148.878 62.6622 149.152C60.5723 148.176 58.579 146.853 56.9632 145.203C54.2431 140.861 56.9757 135.09 61.0589 132.732C65.5071 131.774 70.9441 131.497 74.5376 134.785C76.1159 136.784 77.2639 139.114 78.2309 141.463C79.1511 138.288 80.299 134.654 83.4246 132.991C85.0809 132.348 86.5533 131.263 88.2346 130.705C90.2934 130.692 92.4207 131.035 94.1395 132.249C96.3917 133.172 98.2009 135.05 99.1211 137.293C99.2303 139.22 98.7405 141.164 98.1291 142.982C97.1403 145.181 94.6417 146.198 92.402 146.566C89.9471 147.097 87.5265 146.173 85.0622 146.276C84.8002 145.709 84.5413 145.141 84.2824 144.576C82.782 144.907 80.7638 145.637 80.4612 147.362C80.7669 148.656 81.5498 149.782 81.8774 151.077C81.3221 152.234 80.6265 153.329 79.9715 154.436C81.4282 154.558 82.888 154.695 84.3448 154.833C87.5795 154.67 90.0345 157.135 92.6266 158.654C92.3022 160.535 91.8624 162.394 91.4257 164.25C91.2884 164.771 91.382 165.519 91.9061 165.782C93.263 166.221 94.6292 165.233 96.0236 165.47C97.4023 165.663 98.7156 165.158 99.9571 164.624C99.9914 163.317 99.8105 161.988 100.032 160.697C100.547 159.583 101.941 159.315 102.861 158.641C102.493 156.548 101.748 154.518 101.698 152.378C101.779 151.283 102.702 150.509 103.529 149.92C104.539 148.928 105.968 149.486 107.166 149.667C107.406 149.499 107.649 149.333 107.893 149.168C107.837 146.794 107.2 144.458 107.269 142.084C107.4 140.733 108.935 140.371 109.942 139.86C111.574 139.205 113.436 138.656 114.393 137.056C116.939 134.108 119.93 131.565 122.884 129.033C124.525 127.635 126.587 127.005 128.527 126.181C129.575 125.277 130.015 123.805 131.15 122.975C133.016 122.108 135.093 121.821 136.99 121.022C136.082 119.64 134.504 118.539 132.776 118.698C129.341 118.82 126.085 120.277 122.61 120.089C121.309 120.046 120.17 121.069 118.86 120.763C116.611 120.389 114.297 119.837 112.491 118.358C111.274 117.061 109.331 117.603 107.952 116.655C106.274 115.395 104.543 114.222 102.818 113.033C101.735 112.382 101.286 111.174 100.977 110.023C100.575 108.613 99.4798 107.565 98.8404 106.283C98.8185 104.318 99.1367 102.303 98.5159 100.394C97.8609 98.5722 98.2913 96.6351 98.4567 94.7728C98.8965 91.2979 100.955 88.3657 102.715 85.4304C106.08 80.7171 111.084 77.6102 115.145 73.5738C116.072 72.8345 117.341 72.7191 118.293 72.011C119.222 71.1594 119.556 69.8243 120.57 69.0445C122.064 67.9122 123.751 67.0419 125.174 65.816C126.116 64.8365 126.964 63.7728 127.853 62.7497C125.869 62.7934 124.095 63.7042 122.235 64.2626C121.499 63.6449 121.112 62.7247 120.442 62.0541C117.846 59.621 114.097 58.8318 111.57 56.3363C111.031 53.5258 111.209 50.5811 110.435 47.7956C109.742 45.2782 110.217 42.4085 111.86 40.3497C112.812 38.9023 114.097 37.7045 114.949 36.1916C113.907 36.1511 112.862 36.2633 111.867 36.5784C110.16 37.1025 108.339 36.7718 106.604 37.0463C105.435 37.4144 104.468 38.2129 103.413 38.8025C101.379 37.9291 99.5391 36.5971 97.3961 35.9826C95.9331 36.1105 94.5669 36.9465 93.0602 36.8779C91.4382 36.987 90.3152 35.6114 88.8928 35.0718C89.7724 33.3624 91.5848 32.5482 93.1382 31.5812C95.0535 30.0964 97.5583 31.5438 99.7138 30.9885C101.429 30.2149 102.768 28.8112 104.349 27.8131C105.534 28.3745 106.707 29.1232 108.095 28.9859C109.998 28.883 111.62 27.7101 113.358 27.0706C114.793 26.818 116.284 26.8835 117.703 26.5185C119.537 26.1255 120.941 24.6968 122.816 24.4161C123.346 23.3243 123.764 22.1483 124.519 21.1876C125.816 20.0646 127.42 19.344 128.714 18.2148C129.9 16.6739 130.327 14.69 131.45 13.1116C132.698 11.8046 134.248 10.8345 135.801 9.93299C137.149 9.14379 137.08 7.20356 138.397 6.36758C140.197 4.99507 142.352 4.20276 144.258 2.98933C146.573 2.11592 148.709 0.755884 151.108 0.116419ZM151.358 2.22821C149.707 2.91135 147.995 3.36989 146.22 3.58201C144.529 3.72238 143.556 5.26333 142.399 6.29584C142.673 7.05072 142.86 7.81495 143.085 8.58855C141.759 8.64158 140.44 8.37332 139.117 8.45442C138.088 8.59791 137.788 9.7739 137.286 10.5194C138.615 10.9187 140.727 10.3822 140.877 12.3817C137.626 13.252 133.83 13.3299 131.188 15.632C132.626 16.0781 134.129 16.181 135.617 16.3651C135.502 19.0103 132.642 18.2242 130.982 18.3739C130.47 18.8231 129.959 19.2692 129.447 19.7152C130.118 20.4608 130.751 21.2344 131.225 22.1265C129.815 22.3604 128.396 22.5632 127.045 23.0436C126.347 23.343 125.62 23.0529 124.94 22.8627C124.188 23.9232 123.464 25.0056 122.719 26.0725C121.1 26.5528 119.79 27.6165 118.318 28.387C117.17 28.8861 115.872 28.6303 114.668 28.8736C112.509 29.0639 110.728 30.4614 108.616 30.7951C107.069 31.1352 105.528 30.686 104.087 30.1713C102.989 31.132 102.091 32.4016 100.678 32.9225C98.8341 33.9613 96.7691 32.7884 94.8601 32.6262C94.0116 33.1596 93.1663 33.6961 92.3116 34.2171C92.2866 34.4572 92.2398 34.9345 92.2149 35.1716C94.9942 35.2277 97.7049 34.3106 100.487 34.6257C101.598 35.0936 102.421 36.0325 103.482 36.5909C104.867 36.1978 105.906 35.0655 107.259 34.6007C108.464 34.5228 109.664 34.9158 110.872 34.8004C111.892 34.5914 112.768 33.9457 113.794 33.7679C114.518 33.7741 115.217 34.0049 115.931 34.1048C116.967 34.4073 117.778 33.4497 118.661 33.0941C120.457 32.021 122.625 31.9431 124.665 31.837C127.467 31.8245 130.807 31.3473 132.966 33.6275C134.916 35.4586 136.853 37.3052 138.727 39.2142C140.64 37.8105 142.67 36.4911 144.114 34.5695C144.829 33.8365 145.319 32.8102 146.254 32.3236C147.873 31.7996 149.614 32.1708 151.289 32.0647C154.402 31.7933 157.578 31.6966 160.675 32.1489C161.333 32.8477 161.636 33.8396 162.413 34.4354C165.042 36.2509 168.314 36.647 171.275 37.6671C174.048 37.8605 176.846 37.483 179.619 37.8449C181.912 38.3159 184.101 37.2272 186.366 37.1773C187.807 37.6546 188.967 38.8493 190.499 39.0832C192.109 39.0052 193.593 38.2566 195.181 38.0538C196.775 38.1287 198.232 39.0458 199.838 39.0708C201.566 39.1862 203.167 38.4219 204.623 37.5859C202.824 37.2116 201.152 36.4412 199.692 35.3369C198.84 35.549 197.989 35.9077 197.1 35.8329C194.935 35.3307 193.016 33.3031 190.661 34.1765C189.301 34.4448 187.91 34.3668 186.534 34.4167C186.572 32.8071 186.64 31.1757 186.263 29.5942C185.564 28.3777 184.201 27.707 183.474 26.5092C182.928 25.2146 183.25 23.7423 182.804 22.4291C181.974 21.434 181.004 20.5731 180.077 19.6778C180.112 17.7812 180.018 15.8878 179.89 13.9975C178.418 13.305 176.565 12.965 175.807 11.3616C174.388 8.8069 170.906 8.2579 169.815 5.45361C167.257 5.00755 164.818 4.14349 162.384 3.26072C160.107 2.43097 157.649 2.76786 155.285 2.51831C153.981 2.25629 152.69 1.37039 151.358 2.22821ZM120.523 34.4136C117.803 35.2527 116.171 37.7825 114.534 39.9286C113.158 41.5101 112.553 43.6219 112.341 45.6713C112.556 48.6627 113.217 51.6074 113.277 54.6176C114.665 55.7499 116.087 56.8385 117.694 57.6496C119.784 58.6165 121.331 60.5474 123.53 61.2929C125.77 61.1432 127.975 60.563 130.224 60.4039C132.152 59.5492 133.599 57.8336 134.953 56.2583C136.082 54.6955 137.517 53.0828 137.249 50.9835C137.707 47.6677 136.02 44.2988 137.314 41.0671C135.305 38.8306 133.153 36.7281 130.895 34.7505C130.099 34.0299 128.936 34.3418 127.966 34.2451C125.492 34.4292 122.959 33.7648 120.523 34.4136ZM148.993 34.2639C146.089 33.7211 144.224 36.7281 143.322 39.0427C141.086 39.5543 140.022 41.8033 138.612 43.3848C139.183 43.3848 139.757 43.3817 140.331 43.3817C140.019 44.3206 139.635 45.2315 139.148 46.0924C139.632 48.747 139.086 51.8164 140.936 54.028C142.901 55.8216 144.579 57.9022 146.626 59.6054C147.39 60.2417 148.438 59.936 149.342 60.0421C150.918 60.0234 152.524 60.4445 154.087 60.2074C155.74 59.1656 157.328 58.0114 159.143 57.2628C161.099 55.7405 162.965 54.0873 165.101 52.7959C164.998 48.7501 165.619 44.7261 165.56 40.6772C165.226 40.7583 164.899 40.8394 164.568 40.9205C164.456 39.835 164.106 38.712 163.171 38.0538C161.583 36.8435 160.176 35.2839 158.326 34.4884C155.247 33.7679 152.1 34.5352 148.993 34.2639ZM168.292 38.8805C168.795 40.9923 167.89 43.0354 167.659 45.1067C169.188 45.924 170.741 46.8722 171.324 48.5972C172.073 48.4413 172.6 48.2011 173.461 48.0919C173.483 46.4106 173.692 44.6107 172.759 43.1072C171.549 41.4352 170.445 39.4201 168.292 38.8805ZM173.193 39.4388C175.639 41.4134 176.537 44.8228 175.592 47.7987C176.612 48.1262 177.632 48.8561 178.745 48.5754C180.742 48.0264 182.71 47.362 184.797 47.2403C185.14 45.1878 186.21 43.4191 187.639 41.953C186.784 41.3323 186.207 40.2 185.162 39.913C182.526 40.2592 179.896 40.7646 177.217 40.6491C177.024 38.2504 174.459 39.7102 173.193 39.4388ZM197.932 46.4449C196.728 46.1111 195.945 46.997 195.172 47.6677C193.665 46.3607 191.775 47.1686 190.115 47.6333C190.306 48.4444 190.521 49.2523 190.714 50.0633C190.281 50.4938 189.766 50.8743 189.482 51.4265C188.696 54.29 188.437 57.2284 188.531 60.1793C187.869 64.3281 188.156 68.5766 187.358 72.7129C187.018 75.3393 187.333 78.0033 187.377 80.6391C187.891 84.164 186.906 87.6576 186.831 91.1762C187.586 90.4307 188.415 89.7195 188.946 88.7931C189.385 85.8671 188.914 82.91 188.815 79.9778C188.93 77.4387 189.71 74.9869 189.966 72.4664C190.515 68.4269 189.903 64.3187 190.711 60.3041C191.001 56.9539 190.499 53.5133 191.61 50.2567C193.013 49.7046 194.517 49.2585 196.03 49.7639C197.29 51.2674 196.357 53.4291 196.576 55.1884C199.224 54.7392 201.897 54.4803 204.586 54.6331C204.717 53.3542 204.405 51.9755 204.976 50.7901C205.774 49.8762 206.913 49.2585 208.073 48.9279C209.908 48.8686 211.57 49.8231 213.289 50.3378C213.42 55.6532 211.792 60.8157 211.754 66.1217C211.91 69.1599 211.261 72.1701 211.171 75.2021C211.595 77.6445 211.065 80.1494 211.695 82.57C212.253 85.1029 211.664 87.7325 212.331 90.2373C213.879 89.4107 214.64 87.7512 214.708 86.0449C214.499 85.106 213.953 84.1671 214.3 83.1876C215.248 79.5255 215.594 75.7137 215.242 71.9424C214.958 70.5262 215.688 69.2098 215.622 67.8186C215.485 66.3868 215.526 64.9363 215.959 63.5576C216.149 61.0995 215.697 58.4356 217.357 56.3425C216.446 54.2183 216.954 51.9724 217.369 49.8138C217.422 48.8967 217.846 47.5834 216.879 47.0469C215.479 46.4324 213.935 46.9471 212.472 46.8098C210.347 46.5229 208.229 46.1735 206.105 45.9302C203.379 46.0768 200.665 46.4106 197.932 46.4449ZM168.57 47.9422C168.171 49.636 168.186 51.4265 167.55 53.061C166.421 54.7018 165.507 56.5048 164.113 57.9521C162.787 59.6646 160.937 60.825 159.246 62.132C158.339 62.8994 157.119 62.5282 156.043 62.4845C153.132 62.3161 150.21 62.288 147.299 62.3878C144.645 61.2649 143.035 58.6945 141.092 56.6857C140.493 56.1024 139.601 55.8965 138.79 55.9901C137.898 57.0194 137.648 58.4107 137.224 59.6646C134.167 60.1887 132.748 63.1552 130.508 64.9083C127.045 68.1337 123.021 70.6822 119.609 73.9668C116.521 76.7618 112.475 78.3963 109.858 81.7059C108.526 83.2999 106.929 84.6163 105.325 85.917C101.214 90.0564 99.5204 96.4292 101.089 102.06C101.42 103.214 101.102 104.424 101.342 105.581C102.225 107.593 103.289 109.549 104.53 111.358C105.878 112.413 107.5 113.127 108.623 114.459C109.505 114.397 110.497 113.997 111.305 114.543C112.693 115.273 113.804 116.487 115.276 117.061C117.482 117.557 119.727 117.082 121.952 117.114C122.968 117.126 123.982 117.6 124.99 117.323C128.221 116.19 131.731 116.14 135.109 116.377C136.201 116.876 137.161 117.619 138.172 118.261C139.903 117.472 142.049 117.366 143.325 115.81C144.614 114.244 146.251 112.99 148.048 112.06C150.035 111.24 150.862 109.028 152.714 108.002C154.471 106.976 155.378 105.079 156.726 103.629C157.64 102.843 158.903 102.543 159.78 101.701C160.438 100.416 160.457 98.8841 161.059 97.5802C161.96 96.4417 163.436 95.8334 164.119 94.5108C165.167 92.5331 166.305 90.5617 168.068 89.1268C168.258 87.6264 167.712 85.8141 168.895 84.5975C170.838 82.2612 171.343 79.2104 172.391 76.4405C172.738 73.7766 172.401 70.4482 174.743 68.5984C176.428 66.6457 178.667 65.3419 181.138 64.6244C183.059 62.94 183.637 60.3166 184.6 58.0488C185.149 58.2641 185.692 58.4855 186.238 58.7101C186.385 56.302 186.553 53.8689 186.254 51.4701C186.032 50.185 184.638 49.7514 183.627 49.2336C183.187 51.3422 181.434 52.565 179.828 53.7816C180.155 54.4522 180.489 55.1229 180.814 55.7998C179.416 57.6963 178.056 59.621 176.827 61.633C175.832 63.3143 173.726 64.484 171.764 63.7853C170.317 63.4921 169.157 62.1539 169.291 60.6472C169.793 57.453 171.817 54.8078 172.454 51.6448C171.664 51.5918 170.878 51.5388 170.092 51.4857C169.59 50.2973 169.157 49.087 168.57 47.9422ZM175.149 50.5063C174.762 52.3779 174.154 54.1871 173.38 55.9308C172.931 57.896 171.602 59.7832 172.273 61.8669C173.471 61.1401 175.186 60.694 175.598 59.1905C176.362 56.6638 177.573 54.2807 178.075 51.676C177.055 51.4015 176.085 50.9898 175.149 50.5063ZM206.027 56.564C202.393 56.2708 198.759 56.4892 195.2 57.2721C194.757 56.2459 194.311 55.2196 193.874 54.1902C192.823 55.3818 192.511 56.9539 192.658 58.498C192.165 61.5113 192.121 64.5683 192.358 67.6096C192.155 71.3809 191.282 75.0742 190.945 78.833C190.836 81.3222 191.123 83.799 191.301 86.2789C192.102 85.8266 192.892 85.3524 193.684 84.8845C195.347 85.9451 196.813 87.5516 196.682 89.6945C197.412 93.1913 195.278 95.9707 193.522 98.6783C194.052 98.2977 194.576 97.9078 195.103 97.5241C197.293 98.6283 199.832 98.1979 202.184 98.6159C202.446 97.1591 202.615 95.6681 203.282 94.3268C204.103 91.6285 206.717 89.7694 209.49 89.5511C208.775 86.6688 209.493 83.6181 208.36 80.82C207.833 79.5598 208.797 78.3682 209.093 77.1797C210.17 72.9 209.175 68.4362 210.032 64.1347C210.157 63.2051 210.101 62.2568 210.329 61.3397C211.155 58.4325 210.65 55.3506 211.324 52.4028C208.984 52.8738 206.866 54.2775 206.027 56.564ZM179.55 68.6671C178.433 69.3221 177.052 69.6497 176.303 70.7913C174.369 72.7815 175.033 75.8416 174.001 78.2497C173 80.3771 173.308 83.041 171.605 84.8128C170.139 86.2352 170.601 88.4749 170.08 90.2591C169.063 91.8562 167.363 92.9262 166.558 94.6855C165.388 96.9314 163.351 98.6377 162.515 101.074C161.792 103.242 159.827 104.555 158.32 106.14C156.124 108.526 153.516 110.482 151.373 112.921C148.903 114.718 146.148 116.193 144.261 118.683C144.972 120.139 145.602 121.633 146.22 123.134C147.58 123.178 148.94 123.081 150.278 122.813C151.604 124.622 152.855 126.484 153.984 128.421C155.229 130.533 157.949 130.549 159.761 131.93C160.8 132.779 161.87 133.612 163.093 134.186C165.491 135.296 166.699 137.817 168.133 139.885C169.116 139.563 170.071 139.086 171.119 139.005C173.018 139.928 173.489 142.555 175.523 143.222C177.741 143.575 179.02 145.528 180.502 146.991C181.581 146.741 182.682 146.582 183.792 146.557C184.083 144.43 184.653 142.327 185.882 140.54C187.554 138.428 189.654 136.722 191.825 135.146C191.057 133.212 189.669 131.612 188.749 129.769C188.434 128.172 189.76 126.837 190.409 125.477C189.314 123.468 189.205 121.134 188.506 118.998C186.665 116.721 184.522 114.64 182.052 113.052C179.759 111.661 178.642 109.053 177.326 106.854C176.259 102.752 178.883 99.0713 179.163 95.0692C179.556 93.2912 178.87 91.4507 179.316 89.6883C180.258 87.6857 181.784 86.0137 182.719 84.0017C183.15 83.0597 184.145 82.6573 185.012 82.2237C185.056 81.2723 185.124 80.3334 185.224 79.3882C185.508 76.8429 184.685 74.2694 185.315 71.7552C185.633 68.9197 186.129 66.0874 186.123 63.2269C183.852 64.9457 182.145 67.3944 179.55 68.6671ZM181.288 90.6834C181.391 92.346 182.064 93.9462 181.93 95.6463C182.935 94.436 184.201 93.3535 184.822 91.8906C184.95 89.5511 184.819 87.1991 185.043 84.8627C183.68 86.7187 181.84 88.3751 181.288 90.6834ZM192.402 87.773C190.256 88.7681 189.498 91.3291 187.523 92.5799C184.775 94.4422 183.112 97.3775 180.81 99.6671C178.973 100.684 179.26 103.155 179.291 104.923C178.979 106.626 180.551 107.484 181.363 108.676C182.67 110.809 184.956 111.995 186.7 113.71C187.882 114.852 189.039 116.019 190.225 117.16C192.486 116.942 194.626 116.094 196.894 115.903C197.642 115.133 198.357 114.316 199.19 113.626C200.681 112.176 202.849 111.982 204.561 110.906C206.221 109.839 208.192 109.409 209.861 108.373C211.367 107.182 212.178 105.354 212.961 103.644C210.298 104.795 208.778 107.534 206.164 108.763C204.09 109.877 201.61 109.633 199.358 109.415C198.073 109.284 197.309 108.08 196.71 107.079C196.641 104.536 198.46 102.565 199.545 100.425C197.246 100.659 194.932 100.962 192.761 101.794C192.589 101.376 192.414 100.958 192.246 100.544C191.815 100.968 191.394 101.398 190.976 101.835C192.177 103.052 193.712 104.078 194.261 105.787C194.919 107.996 195.443 110.245 195.945 112.494C196.31 113.654 195.038 114.284 194.305 114.893C193.381 112.275 192.895 109.534 192.286 106.835C191.535 104.355 188.737 103.632 186.734 102.478C188.069 100.459 190.203 99.2584 191.862 97.5709C193.728 95.2875 195.615 92.4209 194.564 89.3296C194.745 88.2035 193.363 87.1616 192.402 87.773ZM206.944 93.026C205.578 94.0554 205.01 95.7367 204.67 97.3432C207.322 97.1435 208.257 94.4016 209.621 92.5394C208.722 92.6143 207.762 92.6049 206.944 93.026ZM211.492 94.0991C210.843 94.9319 209.349 95.5277 209.521 96.7848C210.594 98.3882 212.263 99.4955 213.713 100.756C215.051 98.4225 214.83 95.7336 214.546 93.1633C213.492 93.2849 212.275 93.2693 211.492 94.0991ZM199.021 105.653C198.853 107.665 201.766 107.063 202.958 107.094C206.651 107.169 209.075 103.972 210.953 101.227C209.795 100.946 208.601 100.809 207.446 100.547C206.863 100.244 206.676 99.5205 206.317 99.0183C203.263 100.332 200.191 102.403 199.021 105.653ZM136.731 123.848C135.636 124.394 134.111 124.41 133.431 125.554C131.774 127.857 130.636 130.502 129.915 133.237C131.815 133.113 133.702 132.885 135.602 132.729C137.177 132.617 138.799 132.997 140.349 132.72C141.17 132.036 141.482 130.929 141.99 130.021C142.695 128.418 143.793 126.971 144.28 125.286C143.877 123.642 143.088 122.114 142.427 120.56C140.25 121.175 138.918 123.259 136.731 123.848ZM146.401 125.467C145.543 127.551 144.364 129.485 143.547 131.581C143.191 132.492 144.018 133.384 144.876 133.568C147.187 131.93 148.326 129.123 150.107 126.983C148.89 126.434 147.649 125.938 146.401 125.467ZM124.556 133.378C125.573 133.783 126.602 134.142 127.663 134.432C128.246 132.464 128.92 130.527 129.425 128.537C126.799 128.864 125.657 131.322 124.556 133.378ZM150.596 129.529C149.255 131.406 148.862 133.771 147.462 135.614C148.432 137.467 149.183 139.454 149.442 141.544C149.586 143.416 149.037 145.241 148.444 146.994C148.959 148.032 149.623 149.021 149.96 150.144C150.297 151.267 149.589 152.384 149.492 153.501C149.146 154.851 149.321 156.268 149.804 157.559C151.404 157.656 152.583 158.772 153.984 159.362C154.976 159.094 155.834 158.492 156.735 158.017C158.08 158.644 159.524 159.989 161.074 159.131C162.403 158.769 162.437 157.185 162.706 156.08C162.029 154.121 160.909 152.24 159.159 151.058C159.565 150.032 160.114 149.071 160.656 148.114C161.864 148.385 163.102 148.307 164.309 148.067C165.108 149.399 165.897 150.731 166.748 152.031C168.664 151.813 170.582 151.476 172.519 151.595C175.065 151.523 178.084 152.066 180.224 150.3C178.281 148.064 175.355 147.2 173.034 145.456C171.718 144.748 171.231 143.275 170.517 142.065C169.153 142.274 167.625 142.988 166.324 142.209C165.023 140.774 164.471 138.774 162.937 137.514C161.991 137.037 160.906 136.928 159.895 136.7C158.794 134.463 156.467 133.537 154.296 132.682C152.655 132.186 151.772 130.633 150.596 129.529ZM83.437 135.923C80.6452 137.586 80.4082 141.17 79.6751 144.024C81.2317 143.528 82.7321 142.165 84.4352 142.639C87.9227 143.684 91.9216 145.412 95.4091 143.344C96.8128 142 96.5445 139.807 97.4055 138.147C95.1751 135.48 92.0183 132.448 88.2221 133.138C86.5127 133.849 85.2026 135.29 83.437 135.923ZM62.2817 135.53C59.3526 136.85 57.8335 140.406 58.3045 143.491C59.6614 144.854 61.349 145.93 62.9679 146.956C65.4228 146.75 67.4379 144.947 69.7806 144.258C71.8612 143.085 74.2475 143.971 76.4435 144.18C76.4154 141.448 75.0959 138.955 73.2087 137.059C70.2297 134.445 65.872 134.579 62.2817 135.53ZM133.431 135.499C132.273 135.851 130.867 135.839 129.937 136.706C128.237 138.912 129.51 142.399 127.12 144.186C124.017 147.393 119.01 145.462 116.652 142.383C115.913 144.233 115.139 146.07 114.184 147.82C112.927 150.085 114.053 152.821 113.127 155.185C112.803 156.034 112.307 156.882 112.428 157.83C112.774 161.486 112.865 165.298 111.664 168.82C112.188 169.45 112.721 170.071 113.227 170.719C112.834 172.014 111.511 173.424 112.622 174.728C114.206 177.077 115.432 179.672 116.012 182.458C117.55 183.041 118.601 184.323 119.431 185.692C120.997 188.415 124.251 189.214 126.562 191.114C127.566 191.079 128.633 190.774 129.628 191.092C131.291 191.429 132.816 192.705 134.61 192.053C137.093 191.369 139.585 192.046 142.093 192.081C144.551 191.616 146.856 190.608 149.146 189.641C150.834 188.939 151.944 187.42 153.388 186.366C155.762 184.616 157.453 182.13 158.803 179.544C160.291 177.095 161.221 174.338 161.767 171.534C162.104 169.865 163.364 168.483 163.236 166.699C163.258 165.048 162.902 163.433 162.575 161.829C160.454 162.194 158.332 161.839 156.224 161.661C153.806 161.929 151.386 162.182 148.971 162.456C147.945 162.612 147.006 161.754 146.859 160.772C146.385 158.13 145.556 155.248 146.835 152.696C148.089 149.923 145.194 147.452 146.027 144.601C143.191 144.944 139.691 145.958 137.439 143.637C134.803 141.713 135.792 137.913 137.186 135.518C135.985 135.012 134.657 135.156 133.431 135.499ZM120.626 138.331C119.584 139.298 119.132 141.326 120.27 142.377C121.643 143.238 123.48 143.94 125.012 143.029C126.425 142.471 126.278 140.643 126.631 139.448C125.601 138.581 124.659 137.617 123.864 136.535C122.731 136.984 121.368 137.233 120.626 138.331ZM141.678 137.243C140.091 137.798 138.356 139.857 139.576 141.497C141.17 143.201 143.831 142.586 145.755 141.89C147.04 141.179 146.13 139.579 145.337 138.852C144.255 138.088 143.269 136.341 141.678 137.243ZM70.8942 158.644C69.4749 158.966 68.4361 160.033 67.6937 161.218C71.6646 162.684 75.9226 161.948 80.037 162.434C83.5181 162.266 87.3269 161.889 90.0126 159.412C87.5858 158.08 84.9624 156.963 82.1082 157.244C81.5467 158.214 81.3689 160.416 79.7874 160.117C78.2433 159.923 78.4742 157.974 78.0811 156.86C75.5202 156.735 73.3429 158.208 70.8942 158.644ZM78.4555 164.565C74.4845 164.384 70.4918 164.425 66.6144 163.433C66.3867 166.739 66.4616 170.067 66.8577 173.362C67.5502 176.456 69.9771 178.764 72.4382 180.577C72.8968 179.139 73.1962 177.601 74.1788 176.4C75.3143 174.297 78.2589 174.722 79.9153 175.882C81.0757 177.12 81.8961 178.636 82.9442 179.971C84.3541 178.764 85.8421 177.623 87.0742 176.231C88.4217 174.013 88.1972 171.268 89.1486 168.891C90.022 166.951 89.3731 164.839 89.1142 162.84C85.6299 163.729 82.1269 165.239 78.4555 164.565ZM91.1512 168.801C90.0812 171.646 90.0812 174.722 89.3981 177.657C88.952 178.331 88.1597 178.677 87.5608 179.201C86.129 180.252 85.2119 181.809 84.167 183.206C81.5998 182.698 80.3364 180.339 78.9015 178.446C78.1997 177.432 76.7211 177.654 75.7136 177.354C75.0117 179.684 73.6673 182.046 74.4128 184.557C74.7497 185.817 75.1614 187.165 76.0972 188.116C78.8048 189.613 82.0552 188.512 84.8657 189.57C87.7168 188.409 90.1093 186.397 92.0059 184.002C93.1382 181.512 93.5094 178.764 94.5481 176.234C95.6368 173.583 96.4073 170.723 95.8645 167.847C94.3017 168.202 92.742 168.573 91.1512 168.801ZM63.0927 177.158C62.7465 177.791 62.3129 178.402 62.16 179.12C62.238 181.662 63.9068 183.768 65.5913 185.518C67.8372 187.399 70.8755 187.489 73.5955 188.194C73.0528 186.644 72.5568 185.068 71.8362 183.59C70.5323 182.008 68.7138 180.938 67.3818 179.372C66.3368 178.034 64.643 177.604 63.0927 177.158ZM54.8919 183C54.0372 183.886 54.3554 185.249 54.3648 186.36C57.5746 187.121 60.8437 187.997 64.172 187.651C62.7465 186.113 62.0976 183.456 59.7332 183.175C58.1797 182.716 56.4547 182.464 54.8919 183ZM153.959 211.567C152.206 210.794 150.285 210.99 148.457 211.33C150.294 213.95 152.506 216.805 151.663 220.22C151.423 222.023 149.177 221.933 147.898 222.454C146.173 222.972 144.258 224.285 144.364 226.278C144.426 226.93 144.196 228.571 145.3 228.658C147.315 228.873 149.342 229.198 151.37 229.21C153.716 228.63 155.902 227.491 158.336 227.264C160.41 227.02 161.979 225.364 162.578 223.443C162.503 222.039 161.483 220.882 161.102 219.553C160.192 217.731 161.021 215.766 160.875 213.863C160.522 212.328 159.926 210.856 159.624 209.312C157.652 209.82 155.591 210.266 153.959 211.567ZM117.082 211.439C117.89 212.958 119.26 214.378 118.742 216.284C119.104 219.787 115.763 222.054 112.696 222.628C110.6 222.869 108.139 223.561 107.185 225.645C106.314 227.323 107.759 229.092 108.448 230.555C111.071 230.892 113.71 231.559 116.374 231.154C119.653 229.856 123.23 229.126 126.758 229.419C127.916 229.391 128.243 227.981 128.814 227.258C129.042 226.568 129.99 225.732 129.516 224.921C128.923 223.308 127.407 221.774 128.193 219.908C128.602 217.085 128.215 214.222 128.299 211.383C124.569 211.221 120.779 210.6 117.082 211.439Z" fill="black"/>
<path d="M154.739 48.6002C155.669 48.2259 156.598 48.9839 157.019 49.7669C156.835 51.1706 156.158 52.4214 155.469 53.6317C154.15 53.1389 152.156 53.404 151.464 51.8912C151.826 50.2909 153.245 49.1337 154.739 48.6002Z" fill="black"/>
<path d="M130.009 49.137C131.197 49.3616 132.377 49.6766 133.484 50.1695C133.456 51.0741 133.431 51.9818 133.403 52.8864C132.024 53.4323 130.349 55.1635 128.967 53.8472C127.726 52.3468 129.185 50.4596 130.009 49.137Z" fill="black"/>
<path d="M172.404 171.378C174.737 169.207 178.277 167.856 181.372 169.228C182.835 170.972 183.792 173.05 184.7 175.118C185.667 173.452 186.157 171.393 187.614 170.068C190.418 168.92 193.628 168.246 196.635 168.979C197.879 169.55 198.89 170.744 199.074 172.129C199.582 174.634 199.579 177.579 197.733 179.563C195.683 181.622 192.639 180.764 190.05 180.982C188.269 180.963 185.835 181.169 185.177 183.206C184.472 185.574 185.193 188.129 185.545 190.512C183.702 191.404 181.64 191.644 179.616 191.497C178.695 191.223 178.084 190.259 177.108 190.159C175.061 190.396 174.01 192.405 172.578 193.647C172.113 190.087 175.944 188.26 178.911 188.066C180.258 188.699 181.465 190.063 183.078 189.417C182.591 187.14 183.075 184.042 180.626 182.794C177.894 181.64 174.734 183.68 172.036 182.33C170.679 181.459 169.409 180.14 169.163 178.49C169.475 175.863 170.679 173.374 172.404 171.378ZM177.226 170.957C174.107 171.665 171.658 174.438 171.256 177.591C171.402 178.736 172.369 179.607 173.371 180.068C176.449 181.244 179.921 179.267 182.897 180.857C182.435 177.669 183.356 173.929 180.841 171.371C179.906 170.473 178.358 170.741 177.226 170.957ZM188.309 171.97C187.224 174.285 186.31 176.681 185.689 179.164C188.986 178.215 192.452 178.54 195.808 178.24C198.104 176.796 196.962 173.645 196.444 171.521C193.737 170.866 190.957 171.278 188.309 171.97Z" fill="black"/>
<path d="M69.1536 214.739C71.4369 212.756 74.759 211.867 77.6725 212.84C79.5597 213.329 81.8898 214.156 82.1082 216.43C83.1781 220.86 79.3445 225.061 75.0772 225.47C72.1731 225.744 69.2284 225.707 66.3805 226.409C66.9544 228.68 66.0467 230.976 66.5271 233.253C67.2976 234.176 68.826 234.242 69.3251 235.389C69.2596 236.406 68.6981 237.299 68.2583 238.191C66.7361 237.261 64.983 236.7 63.18 236.771C62.1382 237.077 61.3459 237.888 60.4568 238.478C59.4119 237.823 58.4417 237.015 57.2813 236.581C55.9587 237.305 55.5127 238.874 54.6143 240H53.4258C54.1994 237.352 56.0305 234.937 58.7131 234.033C60.0825 233.63 61.0246 234.968 61.9136 235.764C62.0539 235.758 62.3284 235.751 62.4688 235.748C62.4127 232.744 62.2161 229.737 61.5892 226.796C59.7737 227.086 57.9676 227.688 56.1116 227.66C52.2187 227.073 48.3632 224.756 47 220.903V220.145C47.2589 217.213 49.2366 214.443 52.0783 213.542C55.5751 212.356 59.2465 213.367 62.7683 213.866C63.3391 216.661 63.807 219.512 64.8582 222.182C66.1278 219.612 67.1884 216.879 69.1536 214.739ZM70.4481 216.037C68.7917 217.881 68.2646 220.326 67.4878 222.6C70.158 222.903 72.8437 222.918 75.5201 222.663C76.7523 222.65 77.947 222.145 78.8485 221.312C80.327 220.336 79.9808 218.289 79.4318 216.92C77.2888 214.334 73.0964 213.985 70.4481 216.037ZM50.8649 216.733C49.3925 217.703 49.8667 219.93 51.0084 220.994C52.1656 222.032 53.22 223.18 54.3616 224.235C55.703 225.667 58.0175 224.69 59.7176 225.121C60.251 224.444 60.7875 223.776 61.324 223.109C61.9635 223.233 62.6029 223.361 63.2393 223.486C62.2723 220.797 60.8031 218.333 59.73 215.694C56.7916 215.095 53.3011 214.493 50.8649 216.733Z" fill="black"/>
<path d="M151.358 2.2284C152.69 1.37058 153.981 2.25647 155.285 2.5185C157.649 2.76804 160.107 2.43116 162.384 3.2609C164.818 4.14367 167.257 5.00773 169.815 5.4538C170.906 8.25809 174.388 8.80709 175.807 11.3618C176.565 12.9652 178.418 13.3052 179.89 13.9977C180.018 15.888 180.112 17.7814 180.077 19.678C181.004 20.5732 181.974 21.4342 182.804 22.4293C183.25 23.7425 182.928 25.2148 183.474 26.5093C184.201 27.7072 185.564 28.3778 186.263 29.5944C186.64 31.1759 186.572 32.8073 186.534 34.4169C187.91 34.367 189.301 34.445 190.661 34.1767C193.016 33.3033 194.935 35.3308 197.1 35.8331C197.989 35.9079 198.84 35.5492 199.692 35.3371C201.152 36.4413 202.824 37.2118 204.623 37.5861C203.167 38.4221 201.566 39.1864 199.838 39.0709C198.232 39.046 196.775 38.1289 195.181 38.054C193.593 38.2568 192.109 39.0054 190.499 39.0834C188.967 38.8495 187.807 37.6548 186.366 37.1775C184.101 37.2274 181.912 38.3161 179.619 37.845C176.846 37.4832 174.048 37.8606 171.275 37.6672C168.314 36.6472 165.042 36.2511 162.412 34.4356C161.636 33.8398 161.333 32.8479 160.675 32.1491C157.578 31.6968 154.402 31.7935 151.289 32.0649C149.614 32.171 147.873 31.7998 146.254 32.3238C145.319 32.8104 144.829 33.8367 144.114 34.5697C142.67 36.4912 140.639 37.8107 138.727 39.2144C136.853 37.3054 134.916 35.4587 132.966 33.6277C130.807 31.3475 127.467 31.8247 124.665 31.8372C122.625 31.9432 120.457 32.0212 118.661 33.0943C117.778 33.4499 116.967 34.4075 115.931 34.1049C115.217 34.0051 114.518 33.7743 113.794 33.7681C112.768 33.9459 111.892 34.5916 110.872 34.8006C109.664 34.916 108.463 34.5229 107.259 34.6009C105.906 35.0657 104.867 36.198 103.482 36.5911C102.421 36.0327 101.598 35.0938 100.487 34.6259C97.7049 34.3108 94.9942 35.2279 92.2148 35.1718C92.2398 34.9347 92.2866 34.4574 92.3115 34.2172C93.1662 33.6963 94.0116 33.1598 94.86 32.6264C96.7691 32.7886 98.8341 33.9615 100.678 32.9227C102.091 32.4018 102.989 31.1322 104.087 30.1715C105.528 30.6861 107.069 31.1353 108.616 30.7953C110.728 30.4616 112.509 29.0641 114.668 28.8738C115.872 28.6305 117.17 28.8863 118.317 28.3872C119.79 27.6167 121.1 26.553 122.719 26.0726C123.464 25.0058 124.188 23.9234 124.94 22.8628C125.62 23.0531 126.347 23.3432 127.045 23.0438C128.396 22.5634 129.815 22.3606 131.225 22.1267C130.751 21.2345 130.118 20.4609 129.447 19.7154C129.959 19.2694 130.47 18.8233 130.982 18.3741C132.642 18.2244 135.502 19.0105 135.617 16.3653C134.129 16.1812 132.626 16.0783 131.188 15.6322C133.83 13.3301 137.626 13.2522 140.877 12.3819C140.727 10.3824 138.615 10.9189 137.286 10.5196C137.788 9.77409 138.088 8.59809 139.117 8.4546C140.44 8.3735 141.759 8.64176 143.085 8.58874C142.86 7.81514 142.673 7.0509 142.399 6.29602C143.556 5.26352 144.529 3.72256 146.22 3.58219C147.995 3.37008 149.707 2.91153 151.358 2.2284Z" fill="#E2B65F"/>
<path d="M120.523 34.4137C122.959 33.7649 125.492 34.4293 127.966 34.2452C128.936 34.3419 130.099 34.03 130.895 34.7506C133.153 36.7282 135.305 38.8307 137.314 41.0672C136.02 44.2989 137.707 47.6678 137.249 50.9836C137.517 53.0829 136.082 54.6956 134.953 56.2584C133.599 57.8337 132.152 59.5493 130.224 60.404C127.975 60.5631 125.77 61.1433 123.53 61.2931C121.331 60.5475 119.784 58.6167 117.694 57.6497C116.087 56.8386 114.665 55.75 113.277 54.6177C113.217 51.6075 112.556 48.6628 112.341 45.6714C112.553 43.622 113.158 41.5102 114.534 39.9287C116.171 37.7826 117.803 35.2528 120.523 34.4137ZM130.009 49.137C129.185 50.4596 127.725 52.3468 128.967 53.8472C130.349 55.1635 132.024 53.4323 133.403 52.8864C133.431 51.9818 133.456 51.0741 133.484 50.1695C132.376 49.6766 131.197 49.3616 130.009 49.137Z" fill="white"/>
<path d="M148.993 34.2638C152.1 34.5352 155.247 33.7679 158.326 34.4884C160.176 35.2839 161.583 36.8435 163.17 38.0538C164.106 38.712 164.456 39.835 164.568 40.9205C164.899 40.8394 165.226 40.7583 165.56 40.6772C165.619 44.7261 164.998 48.7501 165.101 52.7959C162.965 54.0873 161.099 55.7405 159.143 57.2628C157.328 58.0114 155.74 59.1656 154.087 60.2074C152.524 60.4445 150.918 60.0234 149.342 60.0421C148.438 59.936 147.39 60.2417 146.625 59.6054C144.579 57.9022 142.901 55.8216 140.936 54.028C139.086 51.8164 139.632 48.747 139.148 46.0924C139.635 45.2315 140.019 44.3206 140.331 43.3817C139.757 43.3817 139.183 43.3848 138.612 43.3848C140.022 41.8033 141.085 39.5543 143.322 39.0427C144.224 36.7281 146.089 33.7211 148.993 34.2638ZM154.739 48.6003C153.245 49.1338 151.825 50.291 151.464 51.8913C152.156 53.4041 154.149 53.139 155.469 53.6318C156.158 52.4215 156.835 51.1707 157.019 49.767C156.598 48.984 155.668 48.226 154.739 48.6003Z" fill="white"/>
<path d="M168.292 38.8806C170.445 39.4203 171.549 41.4354 172.759 43.1073C173.692 44.6108 173.483 46.4107 173.461 48.092C172.6 48.2012 172.073 48.4414 171.324 48.5974C170.741 46.8724 169.188 45.9241 167.659 45.1068C167.89 43.0356 168.795 40.9924 168.292 38.8806Z" fill="#FFF2EB"/>
<path d="M173.193 39.4389C174.459 39.7103 177.023 38.2504 177.217 40.6492C179.896 40.7646 182.526 40.2593 185.162 39.913C186.207 40.2 186.784 41.3323 187.639 41.9531C186.21 43.4192 185.14 45.1878 184.797 47.2404C182.71 47.362 180.742 48.0264 178.745 48.5754C177.632 48.8562 176.612 48.1263 175.592 47.7987C176.537 44.8229 175.638 41.4134 173.193 39.4389Z" fill="#AB2E2E"/>
<path d="M197.932 46.4449C200.665 46.4106 203.379 46.0768 206.105 45.9302C208.229 46.1735 210.347 46.5228 212.472 46.8098C213.935 46.9471 215.479 46.4324 216.879 47.0469C217.846 47.5834 217.422 48.8967 217.369 49.8138C216.954 51.9723 216.446 54.2183 217.356 56.3425C215.697 58.4356 216.149 61.0995 215.959 63.5576C215.525 64.9363 215.485 66.3868 215.622 67.8186C215.688 69.2098 214.958 70.5262 215.242 71.9424C215.594 75.7136 215.248 79.5255 214.299 83.1876C213.953 84.1671 214.499 85.106 214.708 86.0449C214.64 87.7512 213.878 89.4107 212.331 90.2373C211.664 87.7325 212.253 85.1029 211.695 82.57C211.065 80.1493 211.595 77.6445 211.171 75.2021C211.261 72.1701 211.91 69.1599 211.754 66.1217C211.792 60.8157 213.42 55.6532 213.289 50.3378C211.57 49.8231 209.907 48.8686 208.073 48.9279C206.913 49.2585 205.774 49.8761 204.976 50.7901C204.405 51.9755 204.717 53.3542 204.586 54.6331C201.897 54.4803 199.224 54.7392 196.575 55.1884C196.357 53.4291 197.29 51.2674 196.03 49.7638C194.517 49.2585 193.013 49.7046 191.609 50.2567C190.499 53.5133 191.001 56.9539 190.711 60.3041C189.903 64.3187 190.515 68.4269 189.966 72.4664C189.71 74.9868 188.93 77.4386 188.814 79.9778C188.914 82.91 189.385 85.8671 188.945 88.793C188.415 89.7195 187.585 90.4307 186.831 91.1762C186.905 87.6576 187.891 84.1639 187.376 80.6391C187.333 78.0032 187.018 75.3393 187.358 72.7128C188.156 68.5766 187.869 64.328 188.531 60.1793C188.437 57.2284 188.696 54.29 189.482 51.4265C189.766 50.8743 190.281 50.4938 190.714 50.0633C190.521 49.2523 190.306 48.4444 190.115 47.6333C191.775 47.1686 193.665 46.3606 195.172 47.6676C195.945 46.997 196.728 46.1111 197.932 46.4449Z" fill="white"/>
<path d="M168.57 47.9424C169.157 49.0872 169.59 50.2975 170.092 51.486C170.878 51.539 171.665 51.592 172.454 51.645C171.817 54.8081 169.793 57.4533 169.291 60.6475C169.157 62.1541 170.317 63.4923 171.764 63.7855C173.726 64.4842 175.832 63.3145 176.827 61.6332C178.056 59.6212 179.416 57.6966 180.814 55.8C180.489 55.1231 180.155 54.4524 179.828 53.7818C181.434 52.5652 183.187 51.3425 183.627 49.2338C184.638 49.7516 186.032 50.1852 186.254 51.4704C186.553 53.8691 186.385 56.3022 186.238 58.7104C185.692 58.4858 185.149 58.2643 184.6 58.049C183.637 60.3168 183.06 62.9402 181.138 64.6246C178.667 65.3421 176.428 66.646 174.743 68.5987C172.401 70.4484 172.738 73.7768 172.391 76.4407C171.343 79.2107 170.838 82.2614 168.895 84.5978C167.712 85.8143 168.258 87.6266 168.068 89.127C166.306 90.5619 165.167 92.5334 164.119 94.511C163.436 95.8336 161.96 96.4419 161.059 97.5805C160.457 98.8843 160.438 100.416 159.78 101.701C158.903 102.543 157.64 102.843 156.726 103.629C155.378 105.079 154.471 106.976 152.715 108.002C150.862 109.028 150.035 111.24 148.048 112.06C146.251 112.99 144.614 114.244 143.325 115.81C142.05 117.366 139.903 117.473 138.172 118.262C137.162 117.619 136.201 116.877 135.109 116.378C131.731 116.141 128.221 116.19 124.99 117.323C123.982 117.6 122.969 117.126 121.952 117.114C119.728 117.083 117.482 117.557 115.276 117.061C113.804 116.487 112.693 115.273 111.305 114.543C110.497 113.998 109.505 114.397 108.623 114.459C107.5 113.127 105.878 112.413 104.53 111.359C103.289 109.549 102.225 107.594 101.342 105.582C101.102 104.424 101.42 103.214 101.089 102.06C99.5204 96.4294 101.214 90.0566 105.326 85.9172C106.929 84.6165 108.526 83.3001 109.858 81.7061C112.475 78.3965 116.521 76.762 119.609 73.967C123.022 70.6824 127.045 68.1339 130.508 64.9085C132.748 63.1554 134.167 60.1889 137.224 59.6649C137.648 58.4109 137.898 57.0197 138.79 55.9903C139.601 55.8967 140.493 56.1026 141.092 56.6859C143.035 58.6948 144.645 61.2651 147.299 62.3881C150.21 62.2882 153.133 62.3163 156.043 62.4848C157.119 62.5284 158.339 62.8996 159.246 62.1323C160.937 60.8253 162.787 59.6649 164.113 57.9523C165.507 56.505 166.421 54.702 167.55 53.0612C168.186 51.4267 168.171 49.6362 168.57 47.9424Z" fill="#FFF2EB"/>
<path d="M175.149 50.5063C176.084 50.9898 177.054 51.4016 178.074 51.6761C177.572 54.2808 176.362 56.6639 175.598 59.1906C175.186 60.6941 173.47 61.1402 172.273 61.867C171.602 59.7833 172.931 57.8961 173.38 55.9309C174.153 54.1872 174.762 52.378 175.149 50.5063Z" fill="#AB2E2E"/>
<path d="M206.027 56.564C206.866 54.2776 208.984 52.8739 211.324 52.4028C210.65 55.3506 211.155 58.4325 210.329 61.3397C210.101 62.2568 210.157 63.2051 210.032 64.1347C209.174 68.4362 210.17 72.9 209.093 77.1798C208.797 78.3682 207.833 79.5598 208.36 80.82C209.493 83.6181 208.775 86.6688 209.489 89.5511C206.716 89.7694 204.102 91.6285 203.282 94.3268C202.614 95.6681 202.446 97.1591 202.184 98.6159C199.832 98.1979 197.293 98.6283 195.103 97.5241C194.576 97.9078 194.052 98.2977 193.522 98.6783C195.278 95.9707 197.411 93.1913 196.681 89.6946C196.812 87.5516 195.346 85.9451 193.684 84.8845C192.891 85.3524 192.102 85.8266 191.301 86.2789C191.123 83.799 190.836 81.3222 190.945 78.833C191.282 75.0742 192.155 71.3809 192.358 67.6096C192.121 64.5683 192.165 61.5113 192.658 58.498C192.511 56.9539 192.823 55.3818 193.874 54.1902C194.311 55.2196 194.757 56.2459 195.2 57.2721C198.759 56.4892 202.393 56.2708 206.027 56.564Z" fill="#FF5268"/>
<path d="M181.288 90.6835C181.84 88.3752 183.68 86.7188 185.043 84.8628C184.819 87.1992 184.95 89.5512 184.822 91.8907C184.201 93.3536 182.935 94.4361 181.93 95.6464C182.064 93.9463 181.391 92.3461 181.288 90.6835Z" fill="#FFF2EB"/>
<path d="M192.402 87.7731C193.363 87.1617 194.745 88.2036 194.564 89.3297C195.615 92.421 193.728 95.2876 191.862 97.571C190.203 99.2585 188.069 100.459 186.734 102.478C188.737 103.632 191.535 104.356 192.287 106.835C192.895 109.534 193.381 112.276 194.305 114.893C195.038 114.284 196.31 113.654 195.946 112.494C195.443 110.245 194.919 107.996 194.261 105.787C193.712 104.078 192.177 103.052 190.976 101.835C191.394 101.398 191.816 100.968 192.246 100.544C192.414 100.959 192.589 101.377 192.761 101.795C194.932 100.962 197.246 100.659 199.545 100.425C198.46 102.565 196.641 104.536 196.71 107.079C197.309 108.08 198.073 109.284 199.358 109.415C201.61 109.633 204.09 109.877 206.164 108.763C208.778 107.534 210.298 104.795 212.962 103.644C212.179 105.354 211.368 107.182 209.861 108.373C208.192 109.409 206.221 109.839 204.561 110.906C202.849 111.982 200.681 112.176 199.19 113.626C198.357 114.316 197.642 115.133 196.894 115.903C194.626 116.094 192.486 116.942 190.225 117.16C189.039 116.019 187.882 114.852 186.7 113.71C184.956 111.995 182.67 110.809 181.363 108.676C180.552 107.484 178.979 106.626 179.291 104.923C179.26 103.155 178.973 100.684 180.81 99.6672C183.113 97.3776 184.775 94.4423 187.523 92.58C189.498 91.3292 190.256 88.7682 192.402 87.7731Z" fill="#FFF2EB"/>
<path d="M206.944 93.0262C207.761 92.6051 208.722 92.6144 209.62 92.5396C208.257 94.4018 207.321 97.1437 204.67 97.3433C205.01 95.7369 205.578 94.0555 206.944 93.0262Z" fill="#FFF2EB"/>
<path d="M211.492 94.0991C212.275 93.2694 213.492 93.285 214.546 93.1633C214.83 95.7337 215.052 98.4225 213.713 100.756C212.263 99.4956 210.594 98.3882 209.521 96.7849C209.349 95.5278 210.844 94.932 211.492 94.0991Z" fill="#FFF2EB"/>
<path d="M199.021 105.653C200.191 102.403 203.263 100.332 206.317 99.0183C206.676 99.5205 206.863 100.244 207.447 100.547C208.601 100.809 209.795 100.946 210.953 101.227C209.075 103.972 206.651 107.169 202.958 107.094C201.766 107.063 198.853 107.665 199.021 105.653Z" fill="#FFF2EB"/>
<path d="M136.731 123.848C138.917 123.259 140.249 121.175 142.427 120.561C143.088 122.114 143.877 123.642 144.28 125.286C143.793 126.971 142.695 128.418 141.99 130.022C141.482 130.929 141.17 132.037 140.349 132.72C138.799 132.997 137.177 132.617 135.602 132.729C133.702 132.885 131.815 133.113 129.915 133.238C130.636 130.502 131.774 127.857 133.431 125.555C134.111 124.41 135.636 124.394 136.731 123.848Z" fill="#C29074"/>
<path d="M146.401 125.467C147.648 125.938 148.89 126.434 150.107 126.983C148.325 129.123 147.187 131.931 144.875 133.568C144.018 133.384 143.191 132.492 143.547 131.581C144.364 129.485 145.543 127.551 146.401 125.467Z" fill="#00CCBC"/>
<path d="M124.556 133.378C125.657 131.322 126.799 128.864 129.425 128.537C128.92 130.527 128.246 132.464 127.663 134.432C126.602 134.142 125.573 133.783 124.556 133.378Z" fill="#00CCBC"/>
<path d="M150.596 129.529C151.772 130.633 152.655 132.186 154.296 132.682C156.467 133.537 158.794 134.463 159.895 136.7C160.906 136.928 161.991 137.037 162.936 137.514C164.471 138.774 165.023 140.774 166.324 142.209C167.625 142.989 169.153 142.274 170.516 142.065C171.231 143.276 171.717 144.748 173.034 145.456C175.355 147.2 178.281 148.064 180.224 150.3C178.084 152.066 175.064 151.523 172.519 151.595C170.582 151.476 168.664 151.813 166.748 152.031C165.897 150.731 165.108 149.399 164.309 148.067C163.102 148.307 161.863 148.385 160.656 148.114C160.113 149.071 159.564 150.032 159.159 151.058C160.909 152.24 162.029 154.121 162.706 156.08C162.437 157.185 162.403 158.769 161.074 159.131C159.524 159.989 158.08 158.644 156.735 158.018C155.834 158.492 154.976 159.094 153.984 159.362C152.583 158.772 151.404 157.656 149.804 157.559C149.321 156.268 149.146 154.851 149.492 153.501C149.589 152.384 150.297 151.267 149.96 150.144C149.623 149.021 148.959 148.032 148.444 146.994C149.037 145.241 149.586 143.416 149.442 141.544C149.183 139.454 148.432 137.467 147.461 135.614C148.862 133.771 149.255 131.406 150.596 129.529Z" fill="#C29074"/>
<path d="M83.4367 135.923C85.2023 135.29 86.5124 133.849 88.2218 133.138C92.018 132.448 95.1748 135.48 97.4051 138.147C96.5442 139.807 96.8125 142 95.4088 143.344C91.9213 145.412 87.9223 143.684 84.4349 142.639C82.7318 142.165 81.2314 143.528 79.6748 144.024C80.4078 141.17 80.6449 137.586 83.4367 135.923Z" fill="#6AB985"/>
<path d="M62.2815 135.53C65.8718 134.579 70.2296 134.445 73.2085 137.059C75.0957 138.955 76.4152 141.448 76.4433 144.18C74.2473 143.971 71.861 143.085 69.7804 144.258C67.4378 144.947 65.4227 146.75 62.9677 146.956C61.3488 145.93 59.6612 144.854 58.3043 143.491C57.8333 140.406 59.3524 136.85 62.2815 135.53Z" fill="#6AB985"/>
<path d="M133.431 135.499C134.657 135.156 135.986 135.012 137.187 135.518C135.792 137.913 134.803 141.713 137.439 143.637C139.691 145.958 143.191 144.944 146.027 144.601C145.194 147.452 148.089 149.923 146.835 152.696C145.556 155.248 146.385 158.13 146.86 160.772C147.006 161.754 147.945 162.612 148.971 162.456C151.386 162.182 153.806 161.929 156.224 161.661C158.333 161.839 160.454 162.194 162.575 161.829C162.902 163.433 163.258 165.049 163.236 166.699C163.364 168.483 162.104 169.865 161.767 171.534C161.221 174.338 160.291 177.095 158.804 179.544C157.453 182.13 155.762 184.616 153.388 186.366C151.944 187.42 150.834 188.94 149.146 189.641C146.856 190.608 144.551 191.616 142.093 192.081C139.585 192.046 137.093 191.37 134.61 192.053C132.816 192.705 131.291 191.429 129.628 191.092C128.633 190.774 127.566 191.079 126.562 191.114C124.251 189.214 120.997 188.416 119.431 185.692C118.601 184.323 117.55 183.041 116.012 182.458C115.432 179.672 114.206 177.077 112.622 174.728C111.511 173.424 112.834 172.014 113.227 170.719C112.722 170.071 112.188 169.45 111.664 168.82C112.865 165.298 112.775 161.486 112.428 157.83C112.307 156.882 112.803 156.034 113.127 155.185C114.053 152.821 112.927 150.085 114.184 147.82C115.139 146.07 115.913 144.233 116.652 142.383C119.01 145.462 124.017 147.393 127.12 144.186C129.51 142.399 128.237 138.912 129.937 136.706C130.867 135.839 132.274 135.851 133.431 135.499Z" fill="#00CCBC"/>
<path d="M120.626 138.331C121.368 137.233 122.731 136.984 123.864 136.535C124.659 137.617 125.601 138.581 126.631 139.448C126.278 140.643 126.425 142.471 125.012 143.029C123.48 143.94 121.643 143.238 120.27 142.377C119.132 141.326 119.584 139.298 120.626 138.331Z" fill="#E2B65F"/>
<path d="M141.678 137.243C143.269 136.341 144.255 138.088 145.337 138.852C146.129 139.579 147.04 141.179 145.755 141.891C143.831 142.586 141.17 143.201 139.576 141.497C138.356 139.857 140.09 137.798 141.678 137.243Z" fill="#E2B65F"/>
<path d="M70.8943 158.645C73.343 158.208 75.5203 156.735 78.0813 156.86C78.4743 157.974 78.2435 159.923 79.7875 160.117C81.369 160.416 81.5468 158.214 82.1083 157.244C84.9625 156.963 87.5859 158.08 90.0127 159.412C87.327 161.889 83.5183 162.266 80.0371 162.435C75.9227 161.948 71.6648 162.684 67.6938 161.218C68.4363 160.033 69.475 158.966 70.8943 158.645Z" fill="#A88540"/>
<path d="M78.4554 164.565C82.1268 165.239 85.6299 163.729 89.1142 162.84C89.3731 164.84 90.0219 166.951 89.1485 168.892C88.1971 171.269 88.4217 174.014 87.0741 176.231C85.842 177.623 84.3541 178.764 82.9441 179.972C81.896 178.636 81.0756 177.12 79.9152 175.882C78.2589 174.722 75.3142 174.297 74.1788 176.4C73.1962 177.601 72.8967 179.139 72.4382 180.577C69.977 178.764 67.5502 176.456 66.8577 173.362C66.4615 170.068 66.3867 166.739 66.6144 163.433C70.4917 164.425 74.4845 164.384 78.4554 164.565Z" fill="#E2B65F"/>
<path d="M91.1513 168.801C92.7421 168.573 94.3018 168.202 95.8646 167.847C96.4074 170.723 95.6369 173.583 94.5482 176.235C93.5095 178.764 93.1383 181.513 92.006 184.002C90.1094 186.397 87.7169 188.409 84.8658 189.57C82.0553 188.512 78.8049 189.613 76.0973 188.116C75.1615 187.165 74.7498 185.817 74.4129 184.557C73.6674 182.046 75.0118 179.685 75.7137 177.354C76.7212 177.654 78.1998 177.432 78.9016 178.446C80.3365 180.34 81.5999 182.698 84.1671 183.206C85.212 181.809 86.1291 180.252 87.5609 179.201C88.1598 178.677 88.9521 178.331 89.3982 177.657C90.0813 174.722 90.0813 171.646 91.1513 168.801Z" fill="#FFF2EB"/>
<path d="M177.226 170.957C178.359 170.741 179.906 170.473 180.842 171.372C183.356 173.929 182.436 177.669 182.897 180.857C179.921 179.267 176.45 181.244 173.371 180.068C172.369 179.607 171.402 178.736 171.256 177.591C171.658 174.438 174.107 171.665 177.226 170.957Z" fill="#6AB985"/>
<path d="M188.309 171.97C190.958 171.278 193.737 170.866 196.444 171.521C196.962 173.645 198.104 176.796 195.808 178.24C192.452 178.54 188.986 178.215 185.689 179.164C186.31 176.681 187.224 174.285 188.309 171.97Z" fill="#6AB985"/>
<path d="M63.0928 177.158C64.6432 177.604 66.337 178.034 67.3819 179.372C68.7139 180.938 70.5325 182.008 71.8364 183.59C72.5569 185.068 73.0529 186.644 73.5957 188.194C70.8756 187.489 67.8374 187.399 65.5914 185.518C63.907 183.768 62.2381 181.662 62.1602 179.12C62.313 178.402 62.7466 177.791 63.0928 177.158Z" fill="#FFF2EB"/>
<path d="M54.8921 183C56.4548 182.464 58.1798 182.716 59.7333 183.175C62.0977 183.456 62.7466 186.113 64.1721 187.651C60.8438 187.998 57.5747 187.121 54.3649 186.36C54.3555 185.249 54.0374 183.886 54.8921 183Z" fill="#FFF2EB"/>
<path d="M153.959 211.567C155.591 210.267 157.652 209.82 159.624 209.312C159.926 210.856 160.522 212.328 160.875 213.863C161.021 215.766 160.192 217.731 161.102 219.553C161.483 220.882 162.503 222.039 162.578 223.443C161.979 225.364 160.41 227.021 158.336 227.264C155.903 227.492 153.716 228.63 151.37 229.21C149.343 229.198 147.315 228.873 145.3 228.658C144.196 228.571 144.426 226.93 144.364 226.278C144.258 224.285 146.173 222.972 147.898 222.454C149.177 221.933 151.423 222.023 151.663 220.22C152.506 216.805 150.294 213.95 148.457 211.33C150.285 210.99 152.206 210.794 153.959 211.567Z" fill="#300045"/>
<path d="M117.082 211.439C120.779 210.6 124.569 211.221 128.299 211.383C128.215 214.222 128.602 217.086 128.193 219.909C127.407 221.774 128.923 223.309 129.516 224.921C129.99 225.732 129.042 226.568 128.814 227.258C128.243 227.981 127.916 229.391 126.758 229.419C123.23 229.126 119.653 229.856 116.374 231.154C113.71 231.559 111.071 230.892 108.448 230.555C107.759 229.092 106.314 227.323 107.185 225.645C108.139 223.561 110.6 222.869 112.696 222.629C115.763 222.055 119.104 219.787 118.742 216.284C119.26 214.378 117.89 212.959 117.082 211.439Z" fill="#300045"/>
<path d="M70.448 216.037C73.0964 213.985 77.2888 214.334 79.4318 216.92C79.9808 218.289 80.327 220.336 78.8484 221.312C77.9469 222.145 76.7522 222.65 75.5201 222.663C72.8437 222.918 70.1579 222.903 67.4878 222.6C68.2645 220.326 68.7917 217.881 70.448 216.037Z" fill="#6AB985"/>
<path d="M50.8648 216.733C53.301 214.493 56.7916 215.095 59.73 215.694C60.803 218.333 62.2722 220.797 63.2392 223.486C62.6029 223.361 61.9634 223.234 61.324 223.109C60.7874 223.776 60.2509 224.444 59.7175 225.121C58.0175 224.69 55.7029 225.667 54.3616 224.235C53.2199 223.181 52.1656 222.033 51.0083 220.994C49.8666 219.93 49.3925 217.703 50.8648 216.733Z" fill="#6AB985"/>
</svg>
