<svg width="232" height="290" viewBox="0 0 232 290" fill="none" xmlns="http://www.w3.org/2000/svg">
<path d="M54.1758 279.485C54.2852 279.485 54.3763 279.266 54.4492 278.829C54.5221 278.355 54.5586 278.081 54.5586 278.008C54.7773 276.586 55.0326 275.201 55.3242 273.852C55.6159 272.503 55.8164 271.099 55.9258 269.641C56.0716 268.073 56.2721 266.506 56.5273 264.938C56.819 263.37 57.0195 261.803 57.1289 260.235C57.1289 260.016 57.1289 259.287 57.1289 258.047C57.1289 256.771 57.1654 255.404 57.2383 253.946C57.3477 252.451 57.4935 251.066 57.6758 249.79C57.8581 248.514 58.1315 247.748 58.4961 247.493C58.6784 247.383 58.9518 247.31 59.3164 247.274C59.7174 247.201 60.1185 247.165 60.5195 247.165C60.957 247.128 61.3763 247.11 61.7773 247.11C62.1784 247.11 62.4883 247.11 62.707 247.11C62.9987 247.11 63.3997 247.11 63.9102 247.11C64.4206 247.073 64.9128 247.092 65.3867 247.165C65.8971 247.201 66.3346 247.329 66.6992 247.547C67.1003 247.73 67.3008 248.058 67.3008 248.532C67.3008 251.777 66.9544 255.094 66.2617 258.485C65.6055 261.875 64.9492 265.102 64.293 268.165C63.8919 269.987 63.4909 271.701 63.0898 273.305C62.6888 274.873 62.4336 276.586 62.3242 278.446C62.2878 279.029 62.2513 279.612 62.2148 280.196C62.2148 280.779 62.1784 281.344 62.1055 281.891C62.1055 281.964 62.069 282.383 61.9961 283.149C61.9232 283.915 61.8138 284.735 61.668 285.61C61.5221 286.485 61.3034 287.287 61.0117 288.016C60.7565 288.745 60.4102 289.11 59.9727 289.11C59.6081 289.11 58.8242 289.073 57.6211 289C56.4544 288.928 55.2148 288.855 53.9023 288.782C52.6263 288.672 51.4596 288.581 50.4023 288.508C49.3815 288.399 48.8529 288.326 48.8164 288.29C48.6341 288.144 48.3607 287.542 47.9961 286.485C47.668 285.428 47.3216 284.279 46.957 283.04C46.6289 281.764 46.3008 280.524 45.9727 279.321C45.681 278.118 45.4805 277.316 45.3711 276.915C45.1159 275.821 44.9336 274.709 44.8242 273.579C44.7148 272.448 44.5872 271.318 44.4414 270.188C44.2956 269.021 44.1133 267.873 43.8945 266.743C43.7122 265.612 43.4023 264.519 42.9648 263.461C42.4544 264.555 41.9987 265.831 41.5977 267.29C41.2331 268.711 40.9232 270.006 40.668 271.172C40.5951 271.683 40.5039 272.43 40.3945 273.415C40.2852 274.399 40.1576 275.511 40.0117 276.75C39.8659 277.954 39.7018 279.193 39.5195 280.469C39.3372 281.745 39.1185 282.967 38.8633 284.133C38.6081 285.264 38.3346 286.248 38.043 287.086C37.7513 287.889 37.4232 288.417 37.0586 288.672C36.8763 288.818 36.4935 288.928 35.9102 289C35.3268 289.11 34.6888 289.201 33.9961 289.274C33.3034 289.347 32.6289 289.402 31.9727 289.438C31.3529 289.474 30.8971 289.493 30.6055 289.493C30.3503 289.493 29.931 289.474 29.3477 289.438C28.7643 289.402 28.1445 289.347 27.4883 289.274C26.8685 289.201 26.2852 289.11 25.7383 289C25.2279 288.891 24.8997 288.764 24.7539 288.618C24.6081 288.508 24.4987 288.362 24.4258 288.18C24.3893 287.998 24.3529 287.797 24.3164 287.579C24.1341 286.74 24.0247 285.902 23.9883 285.063C23.9518 284.188 23.8789 283.313 23.7695 282.438C23.5872 281.235 23.332 280.05 23.0039 278.883C22.6758 277.717 22.3477 276.532 22.0195 275.329C21.7643 274.198 21.5638 273.05 21.418 271.883C21.2721 270.717 21.1445 269.55 21.0352 268.383C20.9258 267.18 20.7799 265.995 20.5977 264.829C20.4518 263.662 20.2148 262.514 19.8867 261.383C19.668 260.545 19.4128 259.579 19.1211 258.485C18.8294 257.355 18.556 256.224 18.3008 255.094C18.0456 253.964 17.8086 252.852 17.5898 251.758C17.4076 250.665 17.3164 249.68 17.3164 248.805C17.3164 248.222 17.6445 247.894 18.3008 247.821C18.9935 247.748 19.668 247.73 20.3242 247.766C21.0169 247.803 21.7279 247.784 22.457 247.711C23.1862 247.639 23.9336 247.511 24.6992 247.329C25.5013 247.146 26.2852 247.055 27.0508 247.055C27.4154 247.055 27.6888 247.365 27.8711 247.985C28.0898 248.605 28.2357 249.297 28.3086 250.063C28.418 250.792 28.4727 251.485 28.4727 252.141C28.5091 252.761 28.5273 253.107 28.5273 253.18C28.6003 254.347 28.6549 255.55 28.6914 256.79C28.7279 257.993 28.8372 259.196 29.0195 260.399C29.2018 261.639 29.4935 262.842 29.8945 264.008C30.2956 265.175 30.569 266.396 30.7148 267.672C30.8971 269.386 30.9883 271.136 30.9883 272.922C31.0247 274.672 31.3164 276.386 31.8633 278.063C32.5924 276.204 33.1029 274.326 33.3945 272.43C33.7227 270.498 34.1055 268.547 34.543 266.579C34.8346 265.303 35.2357 263.972 35.7461 262.586C36.2565 261.201 36.5482 259.834 36.6211 258.485C36.7305 256.698 36.931 254.985 37.2227 253.344C37.5508 251.704 38.1341 250.081 38.9727 248.477C39.1914 248.003 39.4466 247.693 39.7383 247.547C40.0664 247.402 40.4674 247.329 40.9414 247.329C41.2695 247.329 41.6888 247.329 42.1992 247.329C42.7461 247.329 43.3112 247.347 43.8945 247.383C44.4779 247.42 45.0247 247.493 45.5352 247.602C46.0456 247.675 46.4102 247.803 46.6289 247.985C46.8477 248.204 47.0299 248.568 47.1758 249.079C47.3581 249.553 47.5039 250.099 47.6133 250.719C47.7591 251.303 47.8867 251.886 47.9961 252.469C48.1055 253.053 48.2148 253.508 48.3242 253.836C48.6523 254.93 49.0352 256.006 49.4727 257.063C49.9102 258.084 50.293 259.141 50.6211 260.235C50.8034 260.928 50.931 261.639 51.0039 262.368C51.0768 263.097 51.1497 263.844 51.2227 264.61C51.4049 266.032 51.7148 267.454 52.1523 268.875C52.6263 270.261 53.0091 271.665 53.3008 273.086C53.4831 274.144 53.5924 275.201 53.6289 276.258C53.7018 277.316 53.8294 278.391 54.0117 279.485H54.1758Z" fill="#300045"/>
<path d="M71.2383 272.649C71.2383 272.066 71.3112 271.482 71.457 270.899C71.6029 270.279 71.7487 269.678 71.8945 269.094C72.6602 265.777 73.9362 263.079 75.7227 261C77.5456 258.886 80.1888 257.519 83.6523 256.899C84.1992 256.826 84.7096 256.735 85.1836 256.625C85.694 256.516 86.2227 256.461 86.7695 256.461C91.0352 256.461 94.6992 258.029 97.7617 261.165C97.9805 261.347 98.2357 261.73 98.5273 262.313C98.819 262.86 99.0924 263.443 99.3477 264.063C99.6393 264.683 99.8945 265.248 100.113 265.758C100.368 266.269 100.514 266.579 100.551 266.688C100.66 267.053 100.824 267.545 101.043 268.165C101.298 268.748 101.535 269.404 101.754 270.133C102.009 270.826 102.228 271.519 102.41 272.211C102.629 272.868 102.738 273.433 102.738 273.907C102.738 274.125 102.684 274.527 102.574 275.11C102.465 275.657 102.337 276.277 102.191 276.969C102.046 277.625 101.9 278.264 101.754 278.883C101.608 279.467 101.499 279.868 101.426 280.086C101.171 280.816 100.66 281.636 99.8945 282.547C99.1654 283.459 98.3268 284.352 97.3789 285.227C96.4674 286.066 95.5195 286.831 94.5352 287.524C93.5872 288.217 92.7669 288.709 92.0742 289C91.819 289.11 91.4544 289.201 90.9805 289.274C90.543 289.347 90.0872 289.402 89.6133 289.438C89.1393 289.511 88.6654 289.566 88.1914 289.602C87.7174 289.639 87.3346 289.657 87.043 289.657C84.2357 289.657 81.793 289.11 79.7148 288.016C77.6367 286.922 75.8138 285.209 74.2461 282.875C73.9544 282.474 73.6628 282.073 73.3711 281.672C73.1159 281.271 72.8971 280.834 72.7148 280.36C72.4961 279.74 72.3138 279.12 72.168 278.5C72.0586 277.844 71.9492 277.206 71.8398 276.586C71.694 275.894 71.5482 275.237 71.4023 274.618C71.293 273.961 71.2383 273.305 71.2383 272.649ZM92.293 273.579C92.293 273.287 92.2565 272.831 92.1836 272.211C92.1107 271.592 92.0013 270.954 91.8555 270.297C91.7461 269.641 91.6003 269.021 91.418 268.438C91.2721 267.855 91.1081 267.454 90.9258 267.235C90.6706 266.834 90.3424 266.542 89.9414 266.36C89.5768 266.141 89.194 265.941 88.793 265.758C88.4648 265.612 88.0638 265.448 87.5898 265.266C87.1159 265.047 86.7148 264.938 86.3867 264.938C85.9857 264.938 85.6029 265.011 85.2383 265.157C84.9102 265.303 84.6003 265.467 84.3086 265.649C83.9076 265.831 83.5247 265.995 83.1602 266.141C82.832 266.287 82.5586 266.56 82.3398 266.961C82.194 267.18 82.0299 267.563 81.8477 268.11C81.7018 268.62 81.556 269.185 81.4102 269.805C81.2643 270.425 81.1367 271.027 81.0273 271.61C80.9544 272.193 80.918 272.612 80.918 272.868C80.918 273.05 80.9909 273.433 81.1367 274.016C81.2826 274.599 81.4648 275.219 81.6836 275.875C81.9388 276.532 82.1576 277.152 82.3398 277.735C82.5586 278.318 82.7227 278.701 82.832 278.883C83.0508 279.248 83.3424 279.54 83.707 279.758C84.0716 279.941 84.418 280.141 84.7461 280.36C85.0378 280.542 85.3294 280.761 85.6211 281.016C85.9492 281.271 86.332 281.399 86.7695 281.399C87.0612 281.399 87.444 281.253 87.918 280.961C88.3919 280.67 88.7747 280.451 89.0664 280.305C90.4154 279.576 91.2904 278.665 91.6914 277.571C92.0924 276.441 92.293 275.11 92.293 273.579Z" fill="#300045"/>
<path d="M117.559 262.532C118.178 261.803 118.689 261.165 119.09 260.618C119.527 260.034 119.965 259.542 120.402 259.141C120.84 258.704 121.332 258.339 121.879 258.047C122.462 257.719 123.191 257.409 124.066 257.118C124.65 256.935 125.197 256.771 125.707 256.625C126.254 256.48 126.837 256.407 127.457 256.407C128.077 256.407 128.678 256.461 129.262 256.571C129.882 256.644 130.191 257.063 130.191 257.829C130.191 258.375 130.137 258.941 130.027 259.524C129.918 260.071 129.827 260.618 129.754 261.165C129.499 262.951 129.262 264.136 129.043 264.719C128.824 265.303 128.551 265.631 128.223 265.704C127.895 265.777 127.457 265.777 126.91 265.704C126.363 265.594 125.634 265.758 124.723 266.196C124.322 266.378 123.829 266.724 123.246 267.235C122.699 267.709 122.243 268.092 121.879 268.383C121.514 268.675 121.022 269.076 120.402 269.586C119.819 270.097 119.436 270.553 119.254 270.954C119.108 271.245 118.999 271.683 118.926 272.266C118.889 272.813 118.871 273.396 118.871 274.016C118.871 274.636 118.871 275.219 118.871 275.766C118.908 276.313 118.926 276.696 118.926 276.915C118.853 278.482 118.743 280.068 118.598 281.672C118.452 283.24 118.288 284.808 118.105 286.375C118.069 286.813 118.033 287.232 117.996 287.633C117.96 288.034 117.868 288.381 117.723 288.672C117.613 288.964 117.413 289.183 117.121 289.329C116.829 289.511 116.41 289.602 115.863 289.602C115.499 289.602 114.897 289.584 114.059 289.547C113.257 289.547 112.418 289.474 111.543 289.329C110.668 289.219 109.902 289.037 109.246 288.782C108.626 288.49 108.316 288.089 108.316 287.579C108.316 286.521 108.353 285.464 108.426 284.407C108.535 283.349 108.59 282.292 108.59 281.235C108.59 279.303 108.499 277.407 108.316 275.547C108.134 273.652 108.043 271.756 108.043 269.86C108.043 268.766 108.116 267.691 108.262 266.633C108.444 265.576 108.572 264.5 108.645 263.407C108.717 262.678 108.736 261.912 108.699 261.11C108.699 260.308 108.754 259.524 108.863 258.758C108.936 258.394 109.064 258.12 109.246 257.938C109.428 257.756 109.793 257.61 110.34 257.5C110.923 257.355 111.543 257.245 112.199 257.172C112.855 257.099 113.475 257.045 114.059 257.008C114.642 256.972 115.079 256.954 115.371 256.954C115.882 256.954 116.264 257.209 116.52 257.719C116.775 258.23 116.957 258.813 117.066 259.469C117.176 260.089 117.23 260.727 117.23 261.383C117.23 262.003 117.249 262.441 117.285 262.696L117.559 262.532Z" fill="#300045"/>
<path d="M164.535 257.665C164.535 257.847 164.335 258.12 163.934 258.485C163.533 258.849 163.259 259.105 163.113 259.25C162.056 260.271 161.108 261.31 160.27 262.368C159.467 263.389 158.611 264.464 157.699 265.594C157.663 265.667 157.444 265.904 157.043 266.305C156.642 266.706 156.223 267.144 155.785 267.618C155.384 268.092 155.001 268.584 154.637 269.094C154.272 269.568 154.09 269.933 154.09 270.188C154.09 270.662 154.363 271.428 154.91 272.485C155.457 273.506 156.132 274.636 156.934 275.875C157.772 277.115 158.665 278.428 159.613 279.813C160.561 281.162 161.436 282.42 162.238 283.586C163.077 284.753 163.77 285.774 164.316 286.649C164.863 287.524 165.137 288.089 165.137 288.344C165.137 288.599 164.717 288.8 163.879 288.946C163.04 289.092 162.092 289.201 161.035 289.274C159.978 289.383 158.993 289.438 158.082 289.438C157.171 289.474 156.642 289.493 156.496 289.493C156.204 289.493 155.895 289.474 155.566 289.438C155.275 289.438 154.983 289.347 154.691 289.165C154.546 289.055 154.327 288.691 154.035 288.071C153.743 287.451 153.397 286.722 152.996 285.883C152.632 285.008 152.23 284.097 151.793 283.149C151.392 282.165 150.973 281.271 150.535 280.469C150.098 279.631 149.697 278.938 149.332 278.391C148.967 277.844 148.639 277.571 148.348 277.571C148.02 277.571 147.655 277.771 147.254 278.172C146.853 278.573 146.561 278.865 146.379 279.047C146.014 279.412 145.65 279.777 145.285 280.141C144.921 280.506 144.647 280.943 144.465 281.454C144.246 281.964 144.118 282.675 144.082 283.586C144.046 284.498 143.973 285.391 143.863 286.266C143.754 287.141 143.553 287.907 143.262 288.563C142.97 289.219 142.46 289.547 141.73 289.547C141.402 289.547 140.837 289.529 140.035 289.493C139.233 289.493 138.395 289.438 137.52 289.329C136.681 289.219 135.952 289.055 135.332 288.836C134.712 288.581 134.402 288.217 134.402 287.743C134.402 286.941 134.493 286.139 134.676 285.336C134.858 284.534 134.949 283.696 134.949 282.821C134.949 281.654 134.858 280.487 134.676 279.321C134.493 278.154 134.402 276.969 134.402 275.766C134.402 274.818 134.493 273.889 134.676 272.977C134.858 272.066 134.949 271.118 134.949 270.133C134.949 269.003 134.84 267.891 134.621 266.797C134.402 265.704 134.311 264.573 134.348 263.407L134.402 262.532C134.439 261.584 134.457 260.654 134.457 259.743C134.493 258.831 134.548 257.902 134.621 256.954C134.694 255.896 134.785 254.803 134.895 253.672C135.004 252.542 135.059 251.43 135.059 250.336C135.059 249.68 135.04 248.987 135.004 248.258C135.004 247.529 135.04 246.836 135.113 246.18C135.15 245.816 135.332 245.542 135.66 245.36C135.879 245.214 136.298 245.105 136.918 245.032C137.574 244.922 138.267 244.849 138.996 244.813C139.762 244.74 140.491 244.704 141.184 244.704C141.876 244.667 142.368 244.649 142.66 244.649C143.061 244.649 143.462 244.722 143.863 244.868C144.264 244.977 144.465 245.287 144.465 245.797C144.465 246.636 144.374 247.474 144.191 248.313C144.046 249.115 143.936 249.935 143.863 250.774C143.717 252.67 143.645 254.584 143.645 256.516C143.681 258.412 143.699 260.326 143.699 262.258C143.699 263.352 143.736 264.519 143.809 265.758C143.918 266.961 144.064 268.11 144.246 269.204L144.465 269.04C144.611 268.857 144.921 268.456 145.395 267.836C145.868 267.217 146.434 266.487 147.09 265.649C147.746 264.81 148.421 263.935 149.113 263.024C149.842 262.076 150.517 261.219 151.137 260.454C151.793 259.652 152.358 258.977 152.832 258.43C153.306 257.883 153.598 257.555 153.707 257.446C153.999 257.227 154.382 257.118 154.855 257.118C155.366 257.081 155.803 257.063 156.168 257.063H159.504C160.27 257.063 161.108 257.099 162.02 257.172C162.931 257.209 163.77 257.355 164.535 257.61V257.665Z" fill="#300045"/>
<path d="M191.988 276.313C192.134 276.714 192.335 277.224 192.59 277.844C192.882 278.464 193.027 278.974 193.027 279.375C193.027 280.214 192.809 281.125 192.371 282.11C191.934 283.094 191.387 284.024 190.73 284.899C190.074 285.774 189.345 286.558 188.543 287.25C187.741 287.943 186.957 288.454 186.191 288.782C185.681 289 185.152 289.128 184.605 289.165C184.059 289.237 183.493 289.292 182.91 289.329C182.327 289.365 181.762 289.402 181.215 289.438C180.668 289.511 180.158 289.639 179.684 289.821L179.793 289.93C178.007 289.93 176.257 289.675 174.543 289.165C172.866 288.654 171.262 287.925 169.73 286.977C169.621 286.904 169.421 286.795 169.129 286.649C168.874 286.467 168.618 286.284 168.363 286.102C168.108 285.92 167.889 285.719 167.707 285.5C167.525 285.282 167.434 285.099 167.434 284.954C167.434 284.625 167.579 284.152 167.871 283.532C168.163 282.912 168.527 282.292 168.965 281.672C169.402 281.016 169.858 280.469 170.332 280.032C170.806 279.558 171.207 279.321 171.535 279.321C172.082 279.321 172.72 279.448 173.449 279.704C174.178 279.959 174.926 280.25 175.691 280.579C176.457 280.907 177.186 281.198 177.879 281.454C178.572 281.709 179.137 281.836 179.574 281.836C179.757 281.836 180.012 281.764 180.34 281.618C180.704 281.472 181.087 281.29 181.488 281.071C181.889 280.852 182.217 280.633 182.473 280.415C182.764 280.196 182.91 280.014 182.91 279.868C182.91 279.612 182.655 279.284 182.145 278.883C181.634 278.482 180.978 278.063 180.176 277.625C179.374 277.152 178.48 276.659 177.496 276.149C176.548 275.639 175.637 275.165 174.762 274.727C173.887 274.253 173.103 273.816 172.41 273.415C171.754 272.977 171.335 272.631 171.152 272.375C171.007 272.193 170.824 271.829 170.605 271.282C170.387 270.735 170.168 270.152 169.949 269.532C169.73 268.875 169.53 268.256 169.348 267.672C169.202 267.089 169.129 266.688 169.129 266.469C169.129 265.704 169.293 264.883 169.621 264.008C169.986 263.097 170.423 262.222 170.934 261.383C171.48 260.545 172.1 259.779 172.793 259.086C173.486 258.357 174.178 257.792 174.871 257.391C175.126 257.245 175.546 257.099 176.129 256.954C176.749 256.771 177.405 256.625 178.098 256.516C178.79 256.37 179.428 256.261 180.012 256.188C180.632 256.115 181.124 256.079 181.488 256.079C181.999 256.079 182.801 256.206 183.895 256.461C185.025 256.717 186.155 257.081 187.285 257.555C188.452 257.993 189.473 258.503 190.348 259.086C191.223 259.67 191.66 260.271 191.66 260.891C191.66 261.146 191.496 261.547 191.168 262.094C190.876 262.641 190.512 263.206 190.074 263.79C189.673 264.336 189.254 264.829 188.816 265.266C188.379 265.667 187.996 265.868 187.668 265.868C187.23 265.868 186.738 265.777 186.191 265.594C185.681 265.375 185.171 265.157 184.66 264.938C184.186 264.683 183.694 264.446 183.184 264.227C182.673 264.008 182.199 263.899 181.762 263.899C181.543 263.899 181.288 263.99 180.996 264.172C180.704 264.355 180.413 264.592 180.121 264.883C179.866 265.139 179.647 265.412 179.465 265.704C179.283 265.959 179.191 266.178 179.191 266.36C179.374 266.724 179.702 267.089 180.176 267.454C180.65 267.782 181.051 268.073 181.379 268.329C181.78 268.657 182.199 269.021 182.637 269.422C183.111 269.787 183.603 270.097 184.113 270.352C184.441 270.534 184.915 270.753 185.535 271.008C186.155 271.227 186.793 271.482 187.449 271.774C188.105 272.066 188.707 272.339 189.254 272.594C189.801 272.849 190.184 273.086 190.402 273.305C190.73 273.56 191.04 274.034 191.332 274.727C191.624 275.383 191.842 275.912 191.988 276.313Z" fill="#300045"/>
<path d="M86.0996 0.000488281H86.6655C88.6253 0.84241 90.7458 1.12887 92.8489 1.37341C94.2638 1.50267 95.2734 2.62756 96.5555 3.09219C98.8751 3.32625 101.275 2.2852 103.553 3.0363C105.579 3.75944 107.598 4.53499 109.548 5.44678C111.637 6.47734 113.024 9.1114 112.349 11.3891C110.987 13.5062 108.957 15.1201 107.626 17.2721C108.562 17.6913 109.513 18.0896 110.445 18.5123C111.459 16.0878 112.653 13.2686 115.396 12.4092C118.054 12.0948 120.597 13.1428 123.245 13.1394C126.914 13.4957 130.655 12.542 134.278 13.4083C137.09 14.2468 139.797 15.4031 142.627 16.2031C145.258 17.1883 148.161 18.8896 148.887 21.7961C149.237 25.2372 148.95 28.7027 148.444 32.1088C149.918 31.7629 151.396 31.4345 152.877 31.0922C155.001 33.8415 155.413 37.3839 156.985 40.4162C157.74 42.5682 158.376 44.8948 158.197 47.1935C156.831 53.0171 152.814 57.6739 149.348 62.383C146.215 66.5158 141.443 68.7376 137.237 71.5463C136.08 72.3359 134.638 72.6014 133.53 73.4642C132.21 74.8861 131.242 76.6084 130.442 78.3656C129.687 80.6328 129.9 83.0817 129.331 85.3874C128.685 87.2564 127.001 88.542 126.173 90.3097C125.998 92.3778 126.676 94.8337 125.237 96.6188C123.141 99.3961 119.878 96.5559 117.181 97.2162C115.127 99.7979 114.197 103.176 111.714 105.426C109.247 107.613 106.159 105.566 103.623 104.675C102.557 107.756 102.012 111.515 98.7039 113.087C96.1397 113.635 94.0507 111.55 91.5389 111.745C88.9852 111.836 86.4384 112.102 83.9127 112.483C84.0454 114.97 85.062 117.234 85.9424 119.518C86.7354 121.363 85.8865 123.41 86.4349 125.297C87.1371 127.623 88.0349 129.894 88.5031 132.287C88.821 134.649 87.6961 136.814 87.1511 139.04C86.421 141.911 87.7135 145.297 85.4498 147.644C83.5144 150.166 82.5607 153.265 80.7092 155.84C78.1694 158.491 74.9729 160.329 72.0769 162.54C69.7607 164.123 66.4769 163.571 64.3703 165.534C62.6096 167.197 60.4821 168.437 58.8821 170.275C58.0786 171.295 57.4533 172.437 56.7581 173.531C59.8672 171.068 62.8262 167.085 67.3537 168.252C69.0201 168.353 70.8122 169.44 72.4052 168.476C74.4838 166.991 76.1817 165.052 77.9703 163.242C78.9065 163.899 79.7275 165.024 80.9327 165.101C83.2594 164.706 83.2769 161.838 84.2096 160.2C85.9493 157.52 89.3694 156.608 92.3039 155.973C94.5362 155.515 96.7301 154.683 99.0463 154.771C100.597 152.776 103.249 153.363 105.425 153.548C107.032 149.849 106.812 145.3 104.133 142.135C101.841 139.836 101.991 136.57 102.452 133.632C101.258 132.221 99.2943 130.872 99.7135 128.724C100.898 126.697 102.564 125.014 104.077 123.232C102.519 122.107 100.245 121.059 100.161 118.827C101.506 118.125 103.043 117.876 104.388 117.185C105.656 116.172 106.208 114.449 107.633 113.6C109.341 112.776 111.34 113 113.083 112.301C115.462 110.313 116.597 106.453 120.028 105.957C122.466 105.765 121.834 102.173 123.836 101.234C124.402 100.989 125.027 100.954 125.628 100.867C127.301 99.176 129.254 97.7123 130.48 95.6407C131.399 94.1944 132.15 92.6293 133.209 91.2773C134.564 89.8136 136.824 90.1734 138.407 89.1184C139.493 87.7979 139.874 86.0267 140.398 84.4372C145.879 82.6939 149.544 78.0302 152.632 73.4607C154.358 73.7158 156.129 73.4573 157.834 73.845C158.148 74.3586 158.264 75.0014 158.026 75.5708C157.293 77.4363 156.168 79.1201 155.291 80.9193C154.215 82.7184 156.384 84.245 156.817 85.9428C157.579 89.1149 155.553 92.1472 156.112 95.3577C157.338 94.0127 158.372 92.514 159.413 91.0223C161.167 90.5228 163.224 90.1944 164.381 88.6014C165.572 86.7603 165.988 84.5664 166.882 82.5996C168.541 80.4022 170.421 78.3795 172.164 76.252C172.901 76.9053 173.719 77.5411 174.162 78.4459C174.725 80.9507 173.107 83.1132 172.5 85.4223C171.41 88.4302 172.524 91.6721 171.804 94.7463C171.092 97.1813 172.119 99.5638 172.622 101.918C173.216 105.576 178.756 105.782 178.948 109.681C179.214 111.997 180.398 114.516 179.41 116.797C178.61 118.942 178.037 121.181 176.978 123.221C175.389 125.143 173.146 126.345 171.371 128.067C170.582 128.748 170.498 129.828 170.501 130.823C175.06 133.677 178.662 137.992 181.069 142.771C182.323 146.544 182.61 150.718 181.597 154.586C180.562 158.973 179.364 163.686 176.017 166.928C172.192 170.037 167.843 172.437 163.427 174.589C161.541 175.7 159.291 175.134 157.261 175.588C155.535 176.528 154.141 178.069 152.196 178.593C148.454 179.564 144.636 180.242 140.8 180.689C139.497 180.849 138.169 180.752 136.905 180.416C133.548 179.55 130.093 178.523 127.347 176.325C124.164 174.387 121.167 171.959 119.27 168.696C117.879 171.438 115.102 173.283 114.243 176.311C113.677 178.823 113.359 181.391 112.611 183.857C114.686 182.411 116.681 180.797 119.057 179.861C121.174 179.138 123.043 180.58 124.653 181.726C126.379 183.138 127.326 185.552 129.562 186.282C132.866 187.249 135.35 183.878 138.603 184.259C141.418 184.598 143.406 187.69 146.369 187.274C152.325 185.712 157.939 182.725 162.484 178.558C164.157 176.951 166.246 175.822 168.468 175.187C169.722 175.085 170.868 175.745 171.986 176.217C173.279 174.348 174.592 172.493 175.871 170.614C178.659 166.579 179.986 161.779 182.337 157.506C184.887 153.311 185.778 148.413 187.602 143.91C189.541 139.18 190.03 134.027 191.755 129.227C192.643 126.813 192.521 124.189 192.797 121.67C193.013 119.001 192.65 116.235 191.472 113.814C189.279 109.995 186.445 106.439 185.272 102.124C184.252 99.3682 182.969 96.5455 180.66 94.6311C179.748 93.7961 178.84 92.8529 178.515 91.6267C177.701 88.2869 175.99 84.9752 176.762 81.4398C177.041 77.8415 179.951 75.2599 182.707 73.335C184.217 72.1507 186.239 72.797 187.962 72.797C190.424 73.0415 192.636 74.383 194.564 75.8433C197.031 77.9778 197.576 81.2756 198.33 84.2625C199.029 87.7769 198.096 91.459 199.252 94.907C200.143 97.9883 201.726 100.86 202.047 104.109C202.341 106.994 203.633 109.621 204.182 112.451C205.775 116.863 207.721 121.153 209.128 125.632C209.813 128.511 211.301 131.106 213.017 133.492C216.175 139.766 218.655 146.352 220.971 152.972C222.033 157.793 226.162 161.23 227.067 166.104C227.7 168.832 228.573 171.494 229.359 174.18C230.424 177.695 230.505 181.426 231.616 184.933V185.122C230.557 188.846 230.791 192.734 230.683 196.556C229.935 202.575 228.098 208.825 223.78 213.29C221.31 215.711 218.739 218.03 216.374 220.556C215.748 221.206 215.141 221.901 214.355 222.366C210.267 224.549 205.642 225.178 201.24 226.432C199.123 226.931 196.936 227.162 194.763 227.057C190.55 226.739 186.257 227.407 182.138 226.229C180.293 225.632 178.578 224.717 176.793 223.976C172.898 222.414 169.548 219.763 165.576 218.366C163.682 217.461 161.481 217.6 159.623 216.612C158.508 216.042 157.296 215.683 156.052 215.536C154.04 219.256 151.179 222.442 148.129 225.345C144.279 229.426 139.532 232.462 134.732 235.284C130.089 237.674 124.936 238.683 119.93 240H118.285C115.151 239.393 111.867 239.085 109.017 237.538C107.452 236.724 105.715 236.081 104.496 234.757C101.597 231.365 99.5354 227.305 98.3057 223.029C97.9249 221.695 98.6131 220.336 98.8821 219.057C100.786 212.807 103.155 206.278 108.157 201.807C110.976 199.672 114.065 197.908 117.076 196.056C120.391 194.523 124.15 194.746 127.665 194.013C131.927 192.968 136.409 193.562 140.545 194.855C143.525 195.854 146.33 197.331 149.355 198.219C150.306 198.439 151.403 198.68 152.255 198.065C155.651 195.91 157.848 192.434 160.59 189.583C163.86 186.037 167.958 183.134 169.946 178.575C168.762 178.945 167.256 178.893 166.459 179.997C163.99 183.298 160.08 185 156.604 187.008C153.069 189.104 149.198 190.582 145.247 191.658C142.358 192.137 140.5 188.958 137.673 188.884C134.676 189.23 131.902 191.18 128.838 190.858C124.884 189.936 122.851 185.869 119.403 184.084C116.122 184.067 113.569 186.746 111.389 188.881C109.031 194.24 105.82 199.232 101.988 203.665C100.349 205.632 98.2218 207.228 97.0655 209.566C95.752 213.373 96.3633 217.475 95.5109 221.37C94.3336 223.428 92.2375 224.65 90.4035 226.044C92.241 226.114 94.131 225.772 95.9371 226.194C98.4943 227.707 100.671 229.967 102.044 232.622C103.347 235.449 100.971 239.302 97.8341 239.207C95.0393 239.2 92.2585 238.82 89.4847 238.547C86.0541 238.264 83.1651 236.189 80.3458 234.404C78.2952 233.569 78.1939 231.235 77.6943 229.415C73.3974 232.007 68.2376 232.116 63.4026 232.633C61.1459 233.157 59.6856 230.69 57.5127 230.855C56.1572 230.911 54.7004 230.97 53.5511 230.09C51.2664 228.664 48.5555 228.364 46.1065 227.347C43.0358 225.101 40.6009 222.114 38.4489 219.001C37.4428 217.415 35.6402 216.835 34.138 215.889C32.814 214.788 31.9266 213.276 30.6865 212.098C29.3589 211.11 27.6332 210.816 26.3162 209.814C24.5205 208.091 23.4061 205.737 21.3834 204.245C20.4472 203.627 20.0524 202.561 19.6786 201.559C18.0157 200.839 15.9336 200.598 14.7633 199.089C14.3162 197.408 14.2672 195.651 14.0437 193.932C12.3214 193.527 10.4978 193.391 8.87336 192.643C7.21747 191.316 6.27424 189.366 5.20175 187.585C6.17642 186.453 8.08384 184.993 7.01485 183.403C5.53013 181.845 2.96594 182.072 1.39039 180.636C0.48559 179.218 0.380786 177.464 0 175.864V174.816C0.359825 172.566 0.031441 169.978 1.41135 168.049C3.0952 166.617 5.37642 166.163 7.32926 165.195C10.6515 163.424 14.5991 163.973 18.0576 164.993C19.9755 165.59 21.5546 167.288 21.7607 169.325C22.3546 172.483 18.7493 174.635 19.8044 177.852C21.8061 178.872 24.1572 178.82 26.3336 179.162C25.3974 178.596 24.4402 178.065 23.483 177.534C25.4183 175.145 27.5004 172.797 30.1485 171.18C30.145 169.583 29.5406 167.878 30.0996 166.324C30.9764 165.049 32.517 164.493 33.8201 163.763C31.483 160.717 30.5572 156.947 28.4786 153.74C25.5721 154.065 22.5258 155.064 19.6961 153.824C17.2891 152.748 14.3022 153.283 12.3808 151.141C9.87948 148.469 8.9048 144.877 8.78952 141.286C7.4655 140.577 5.41834 140.154 5.2821 138.341C4.98515 133.335 5.23319 128.304 4.76157 123.302C4.19563 117.157 4.45415 110.98 4.70917 104.821C4.49607 102.666 5.95983 100.972 7.16507 99.3891C7.69258 98.6835 8.51703 98.2153 9.40786 98.2223C11.8533 98.1699 14.3406 98.128 16.7231 98.7778C19.0847 95.1306 22.0332 91.9166 25.3485 89.1149C26.7563 90.0966 28.4576 90.4075 30.159 90.0686C32.5415 89.7647 34.0297 92.0564 35.6122 93.4363C37.1528 93.2546 38.7249 92.5175 40.283 92.8599C41.9913 93.9289 43.1406 95.6546 44.3913 97.2022C46.0541 96.9297 47.71 96.4896 49.4114 96.6084C51.8009 97.9428 53.1249 100.661 55.5249 101.999C57.4568 102.428 59.4865 101.506 61.4044 102.107C63.4585 103.036 64.7301 105.286 67.1301 105.534C69.7118 106.418 72.262 104.916 74.5083 103.815C73.9214 102.876 73.3974 101.88 72.6777 101.038C71.2908 100.5 69.6314 100.881 68.3563 100.046C67.476 99.0398 66.945 97.7786 66.2742 96.6328C64.5694 96.514 62.6865 96.7062 61.2332 95.6441C58.7354 94.1001 56.1886 92.6258 53.5371 91.3542C52.1293 90.6311 51.462 89.0869 50.5362 87.8922C48.9048 87.7804 47.1057 87.9725 45.6279 87.1132C44.2515 85.9813 43.5843 84.1996 42.7389 82.68C41.4079 82.3271 39.8114 82.121 39.1581 80.6887C37.6908 78.9559 37.2332 76.6503 35.9197 74.8267C35.0917 73.6808 34.407 72.4407 33.7118 71.2145C32.3074 71.8957 30.9729 73.1359 29.2681 72.6398C26.4803 72.2276 23.3362 72.0878 21.055 70.2573C18.2707 65.9254 18.5118 59.8782 21.4987 55.6861C22.648 54.2573 21.7118 52.3987 20.6393 51.2424C19.2734 49.6913 16.7546 50.135 15.476 48.4616C14.1624 47.2564 13.1214 45.8101 12.0419 44.4022C13.7537 39.7874 13.6978 34.2747 17.2751 30.5507C18.3755 29.3909 20.0873 29.9568 21.4218 29.3804C23.71 28.0354 25.1004 25.6389 27.0952 23.9586C28.7301 22.687 30.8576 22.2747 32.3913 20.8529C34.9694 18.7638 37.7118 16.783 40.7965 15.5149C43.8288 14.9525 46.2253 12.7062 49.2332 12.1297C51.731 12.6293 53.8376 14.3236 55.8882 15.7455C56.5555 14.4145 57.069 12.9926 57.9424 11.7769C58.7493 10.6625 60.2585 10.6136 61.3799 9.9673C63.5668 8.72713 65.0515 6.65202 66.7109 4.83193C67.9546 3.37167 69.9843 4.37429 71.6262 4.10529C72.814 3.8363 73.862 3.10617 75.0882 2.99088C76.7127 3.12014 78.2707 3.6721 79.731 4.3673C81.6838 2.67298 83.9651 1.4363 86.0996 0.000488281ZM83.8323 4.528C82.1974 5.53761 80.8524 6.95245 79.2314 7.97953C77.3834 7.81534 75.8253 6.29568 73.862 6.83717C71.972 7.30878 70.3196 8.42669 68.5415 9.18127C67.1057 9.92538 65.3764 9.92538 64.0769 10.9699C60.8524 13.5132 57.1493 16.2695 56.0245 20.4407C56.9712 20.266 57.9389 20.1961 58.8646 19.9271C60.9258 18.7987 62.4489 16.9158 64.4437 15.707C66.648 15.2599 68.6568 16.8459 70.8611 16.6049C72.3668 15.8573 73.6769 14.7394 75.0603 13.7821C76.8699 14.2642 78.7354 13.8939 80.5555 13.7123C81.7502 14.3446 82.7878 15.438 84.1642 15.6791C85.9703 14.7987 87.4341 13.3175 89.0865 12.1821C93.4672 12.769 97.7991 14.5088 102.253 13.8345C103.892 13.6284 105.485 14.5158 107.13 13.9149C108.112 12.4337 108.444 10.6276 109.114 8.99612C106.491 8.05638 103.797 7.31577 101.209 6.2887C98.8961 6.42844 96.6009 7.28084 94.2603 6.77079C91.9686 6.95245 91.2419 4.05289 88.9153 4.29743C87.2419 4.03542 85.3555 3.53586 83.8323 4.528ZM115.497 15.6057C113.652 16.1542 113.499 18.659 114.41 20.0494C116.576 21.1743 119.064 21.3769 121.457 21.569C122.851 21.6948 123.983 22.68 125.348 22.8721C128.555 22.3027 130.393 19.3577 132.3 16.9996C129.771 16.259 127.081 16.4477 124.479 16.5035C121.457 16.776 118.494 15.8258 115.497 15.6057ZM82.3895 18.8581C80.0035 17.9114 77.5476 16.8599 74.917 17.2826C72.9293 17.321 72.007 19.459 70.7738 20.6573C68.4821 20.1263 66.2148 19.5079 63.9371 18.9315C60.9083 21.2721 57.5546 23.169 54.6236 25.6389C52.6707 27.1132 52.4786 29.7158 51.1371 31.6197C49.8096 33.2861 47.986 34.4983 46.7458 36.2415C46.0961 37.4957 46.0367 38.9664 45.4044 40.2311C44.6288 41.4957 43.6926 42.652 42.8576 43.8747C41.5441 45.349 42.4419 47.6546 41.041 49.0695C39.6192 50.673 38.6376 52.6049 38.641 54.8022C41.9144 54.4948 43.221 51.1481 45.1389 49.0276C46.3546 48.9647 47.6402 49.2057 48.807 48.804C50.421 47.4415 50.5223 44.8878 52.2655 43.6302C54.2498 42.6625 56.3319 41.8415 57.9843 40.3114C59.71 39.1376 60.4192 37.059 61.7293 35.5149C64.9537 32.2031 67.6821 28.0075 72.2306 26.39C75.2 24.8249 78.8192 26.0476 81.8026 24.5559C85.1144 23.197 88.9677 24.769 91.7834 26.6415C92.7895 27.3717 93.8306 28.2171 94.124 29.4922C94.5817 31.6511 95.9721 33.3804 97.317 35.0538C98.3231 32.7725 98.9694 30.2503 100.678 28.3498C102.76 25.7053 105.45 23.6267 108.279 21.8485C106.763 20.0494 104.416 19.1516 102.659 17.5935C100.866 17.6494 99.0672 17.6564 97.2786 17.5551C94.3651 17.3315 91.6262 16.1193 88.7266 15.8433C86.3441 16.3009 85.1424 19.9132 82.3895 18.8581ZM45.8865 16.1542C45.055 16.9263 44.2061 17.6773 43.3572 18.4319C40.2585 17.4293 38.2952 20.1926 36.0803 21.6773C34.8332 22.5228 33.7782 23.6092 32.5974 24.5385C31.3258 25.597 29.5441 25.5376 28.1956 26.4459C25.6524 28.3394 23.9371 31.0677 22.3127 33.7367C21.09 33.4083 19.8812 33.038 18.7039 32.5804C16.8769 35.9166 15.738 39.7874 15.738 43.6092C16.9537 45.6284 18.9834 47.2494 21.4253 47.3263C22.2114 45.8171 22.7039 44.0424 24.1118 42.9734C25.2437 41.9498 26.8122 41.8695 28.2271 41.6354C28.6044 39.3472 29.3065 36.8808 31.4236 35.5952C32.3668 34.6974 33.6664 35.3472 34.7493 35.5463C35.3852 33.3699 36.1886 31.0747 37.9004 29.5062C39.441 28.5525 41.3031 30.0826 42.8437 29.2337C44.2306 28.1018 44.7546 26.2747 45.9563 24.9787C47.9895 22.8407 51.2314 22.1839 53.0306 19.7909C53.6908 17.7682 51.7799 16.8808 50.393 16.1577C49.8026 16.7062 49.2122 17.2546 48.6218 17.8031C47.7205 17.2337 46.8087 16.6852 45.8865 16.1542ZM135.511 18.2468C133.981 19.9306 132.632 21.7752 131.081 23.4415C131.479 25.6424 132.175 27.7769 132.552 29.9813C134.393 30.9525 136.388 29.5935 137.796 28.4546C139.371 27.2704 140.409 25.0241 142.515 24.7166C143.305 28.2101 139.825 31.0642 139.78 34.5856C139.41 36.0948 140.538 37.1778 141.17 38.369C142.613 36.7586 144.335 35.4031 145.708 33.7367C146.131 32.2939 145.768 30.7638 145.708 29.3001C145.474 26.928 146.295 24.507 145.523 22.1874C143.134 19.0503 138.994 19.1481 135.511 18.2468ZM120.95 24.9961C123.962 28.8669 127.689 32.4127 129.436 37.087C129.46 40.3533 128.437 43.5463 128.73 46.8267C129.3 46.7254 130.438 46.5228 131.008 46.4214C131.347 42.369 131.357 38.114 129.921 34.2538C128.597 31.7944 127.431 29.2407 127.224 26.397C125.128 25.9568 123.039 25.4677 120.95 24.9961ZM50.7563 25.1883C50.7284 25.3245 50.6725 25.597 50.6445 25.7332C49.9179 25.852 49.1389 26.0092 48.6463 26.6241C46.641 28.6049 45.3694 31.2284 43.2175 33.066C41.9249 33.8939 40.3179 33.3594 38.8646 33.349C37.9738 35.3367 37.4114 37.7018 35.5179 39.0223C34.5118 40.004 33.1319 39.0188 32.0314 38.673C30.924 40.8284 30.1345 43.3996 27.8568 44.6223C26.8646 45.2826 25.5755 45.1603 24.5729 45.7891C24.8349 47.9935 24.9502 50.2642 25.6524 52.3883C28.5555 51.4031 31.5703 52.6852 34.0611 54.1874C35.6052 51.9166 36.814 49.4293 38.1555 47.0433C38.8821 43.9376 41.0026 41.5062 42.6201 38.8546C43.7205 36.4546 45.0026 34.1105 46.959 32.2904C48.9747 30.4494 49.9913 27.8712 51.3153 25.5481C51.1755 25.4573 50.8961 25.2791 50.7563 25.1883ZM108.982 26.39C108.196 26.2573 107.518 25.7961 106.805 25.4642C104.161 28.1018 101.904 31.1236 100.066 34.369C98.7703 36.7306 98.8681 39.5149 98.6271 42.1175C98.4279 44.4267 99.1825 46.7044 98.8227 49.0171C97.7258 52.5664 101.282 54.7987 103.591 56.7446C107.21 58.5542 111.462 57.7402 115.34 57.6948C117.39 57.2162 119.259 56.1297 120.992 54.9629C122.225 54.1664 122.169 52.5594 122.606 51.3158C123.179 48.9996 125.443 47.5603 125.925 45.2022C126.473 42.5437 126.945 39.5289 125.852 36.9542C123.734 33.4992 121.293 30.114 118.04 27.6442C116.297 26.2503 113.876 26.6066 112.01 25.4328C111.032 25.8345 110.051 26.3166 108.982 26.39ZM81.9284 27.8887C79.7904 28.3883 77.6314 28.8145 75.4201 28.8005C74.3231 28.8145 73.1563 28.9088 72.2934 29.6669C71.0044 30.7638 69.2157 31.1201 68.1607 32.521C65.6769 35.1865 62.641 37.4188 60.8699 40.6712C59.4376 43.1062 60.517 46.0581 60.7721 48.6503C61.8026 51.7664 62.4454 55.2284 65.1703 57.3769C65.9039 59.6686 67.4795 61.6389 69.6454 62.7289C75.1057 64.8214 81.4742 64.4511 86.6899 61.8415C90.414 59.197 94.2113 56.0214 95.4655 51.4311C96.3458 49.1498 96.1048 46.6765 95.8114 44.3114C94.8751 39.5149 93.0061 34.907 90.4105 30.7743C88.283 28.5594 85.0061 27.1481 81.9284 27.8887ZM133.705 33.4992C133.803 37.838 134.645 42.1385 134.155 46.4948C135.878 47.4415 137.638 48.3114 139.361 49.2546C139.647 47.5638 139.969 45.88 140.129 44.1682C139.106 43.2424 138.009 42.2992 137.509 40.9647C135.969 38.121 137.132 34.8721 137.418 31.8642C136.217 32.4931 134.973 33.0345 133.705 33.4992ZM147.983 35.2249C145.649 36.2695 143.228 37.8974 142.617 40.5559C142.491 42.4913 144.245 43.6302 145.67 44.542C147.438 43.4939 149.079 42.2573 150.533 40.8075C151.13 41.4957 152.136 42.1874 151.92 43.2249C150.445 45.4538 148.597 47.4241 146.508 49.0904C143.703 51.8014 143.874 56.1996 141.107 58.9909C140.528 58.7568 139.916 58.5682 139.406 58.1944C139.424 56.7586 139.825 55.3612 140.325 54.0302C137.921 53.59 136.321 51.5673 134.082 50.7987C132.049 50.4773 129.97 50.5752 127.927 50.4284C126.337 55.1725 121.914 58.9524 122.093 64.2345C122.948 64.2136 123.808 64.2066 124.664 64.2101C126.313 61.7158 128.091 59.0887 131.039 58.0232C132.405 57.2791 134.012 57.7891 135.127 58.7743C135.888 59.7979 134.99 60.9402 134.512 61.8695C133.499 63.4276 133.223 65.3175 132.797 67.0957C133.722 67.5952 134.536 68.3918 135.567 68.6887C137.659 68.3254 139.532 67.2179 141.474 66.4075C144.44 65.2092 146.955 62.9594 148.538 60.1856C149.586 58.2817 151.266 56.8529 152.535 55.1097C154.756 51.7035 156.419 47.3752 154.61 43.3961C153.376 40.9682 152.541 38.3725 151.776 35.7699C150.69 35.0293 149.233 34.8442 147.983 35.2249ZM52.6847 47.4136C51.4236 49.0415 50.2603 50.8162 48.5834 52.0599C47.5354 52.5734 46.2952 52.4651 45.1528 52.6118C43.1127 55.197 40.779 58.3516 37.1738 58.5682C36.8384 57.9079 36.5031 57.2511 36.1712 56.5909C35.4271 57.1568 34.7389 57.8311 33.869 58.2083C32.4297 57.8415 31.3607 56.7132 30.0611 56.0599C28.1572 55.8468 25.9179 56.2276 24.8314 58.0057C22.8786 60.6293 21.9983 64.3813 23.3886 67.4485C25.1074 69.0939 27.7031 69.4468 29.9808 69.6773C32.3773 68.9612 34.0996 66.907 36.283 65.7367C37.1354 67.2878 37.7118 68.9856 37.7118 70.7778C37.7432 72.28 39.1476 73.1219 39.8707 74.2887C40.4262 75.6476 40.1747 77.2581 40.9467 78.5332C42.4454 79.5848 44.51 79.4101 46.0367 80.4057C46.7144 81.6739 46.6096 83.19 46.8681 84.5839C48.2585 84.6747 49.6699 84.6014 51.0428 84.8878C52.9432 85.4258 53.4568 87.5359 54.8926 88.6258C57.4882 89.9883 60.1886 91.1865 62.6131 92.8564C64.2096 94.3306 66.5013 93.4083 68.3493 94.0721C69.1284 95.0992 69.324 96.4616 70.1415 97.4608C71.5004 97.8031 72.9817 97.4293 74.2987 97.9324C75.7345 98.9455 76.3214 100.87 77.9843 101.607C79.1196 102.163 80.6603 103.291 81.6838 101.953C83.9057 99.2948 87.2594 98.2328 90.5572 97.6773C92.0664 97.6354 93.4812 98.2922 94.9764 98.3865C97.2926 97.2826 99.2175 95.3961 101.785 94.8197C103.35 94.3201 105.24 94.7848 106.54 93.6249C107.962 92.3393 108.828 90.5612 110.173 89.2057C111.438 88.7935 112.971 89.5376 114.075 88.5839C115.654 86.8546 116.405 84.5 118.086 82.8442C119.102 82.0896 120.349 81.6634 121.181 80.6538C123.116 78.2747 123.025 74.942 124.814 72.4721C125.872 71.0014 125.156 68.9053 124.07 67.6511C122.69 67.3507 121.052 67.976 119.857 67.0293C119.064 64.6747 119.064 62.1769 118.945 59.7245C117.838 60.238 116.716 60.8145 115.479 60.9228C110.91 61.1533 106.107 61.2546 101.775 59.5568C99.8987 58.2293 98.379 56.4756 96.8035 54.8197C93.338 59.8992 88.6812 64.9053 82.4769 66.3586C79.2105 66.6555 75.9266 67.5428 72.6498 66.8267C72.8803 66.5612 73.1109 66.2992 73.345 66.0337C71.8533 66.0791 70.3127 66.4843 68.8629 65.9987C66.6096 65.2442 65.7083 62.6415 63.3502 62.0092C62.7703 60.2136 61.8376 58.5717 60.6079 57.1394C59.0044 55.6092 59.6227 53.2372 58.641 51.4241C57.4358 49.1498 57.2681 46.5123 57.1389 43.9935C55.5563 44.9961 53.9493 46.0162 52.6847 47.4136ZM129.935 69.3909C128.143 73.9289 125.394 78.0057 123.27 82.3865C122.403 84.2765 120.36 85.0555 118.976 86.4669C118.019 87.6441 117.369 89.0485 116.374 90.1944C114.812 91.8642 112.479 92.1961 110.501 93.1009C109.17 94.1944 108.454 95.9306 106.893 96.7621C104.803 98.0197 102.194 97.7717 100.087 98.9979C97.8236 100.046 95.6367 102.205 92.9432 101.234C90.8332 100.745 88.5624 100.996 86.6376 101.981C84.8245 102.816 83.8498 104.675 82.641 106.17C83.8603 107.159 84.9362 108.455 86.3336 109.122C90.3581 108.64 94.4454 108.664 98.4559 109.345C99.0253 107.134 99.3188 104.825 100.311 102.75C101.331 101.426 103.193 100.968 104.793 101.255C106.746 101 107.696 102.897 109.324 103.442C110.676 102.732 111.095 101.129 111.783 99.8852C112.821 97.8345 113.687 95.6372 115.127 93.8276C117.544 92.5035 120.112 94.5787 122.571 94.8127C122.417 92.7132 122.274 90.6101 122.396 88.507C123.05 87.1341 124.741 86.6485 125.488 85.3525C126.051 83.5149 125.712 81.5166 126.201 79.6616C127.176 76.9367 129.055 74.68 130.456 72.1821C130.596 71.2389 130.121 70.3131 129.935 69.3909ZM183.476 76.5979C182.55 77.4503 182.075 78.666 181.275 79.6232C179.441 81.7053 178.928 84.9367 180.14 87.4485C181.785 91.4206 185.076 94.4878 186.477 98.5787C187.085 100.406 188.8 101.527 189.555 103.277C190.847 105.513 190.865 108.29 192.618 110.296C194.725 113.129 195.469 116.678 196.031 120.084C196.154 123.539 194.728 126.813 193.953 130.125C192.479 134.369 191.958 138.869 190.557 143.134C188.231 149.342 186.7 155.878 183.361 161.667C180.863 167.393 178.424 173.311 174.145 177.974C171.19 181.153 169.583 185.426 166.225 188.245C162.533 191.882 158.592 195.288 155.287 199.295C153.558 200.968 150.928 201.925 148.559 201.09C146.187 200.224 143.801 199.382 141.453 198.46C139.256 197.443 136.758 197.698 134.456 197.087C131.375 196.255 128.279 197.492 125.188 197.674C123.287 197.974 121.272 197.618 119.462 198.4C117.719 199.197 116.224 200.427 114.788 201.677C112.021 201.426 110.054 203.644 108.374 205.496C106.606 207.274 105.921 209.744 104.58 211.808C102.638 214.732 102.229 218.299 101.188 221.583C101.352 226.285 104.311 230.243 107.644 233.311C109.576 234.914 112.101 235.277 114.421 235.99C117.509 236.685 120.671 236.011 123.794 236.207C128.252 235.382 132.552 233.569 136.286 230.987C140.713 228.469 144.796 225.37 148.314 221.688C150.652 218.806 152.608 215.483 155.741 213.366C156.576 212.842 157.572 212.249 158.592 212.86C164.115 214.18 169.142 216.909 174.183 219.442C178.396 221.394 182.809 222.879 187.273 224.112C192.835 224.35 198.309 222.663 203.871 222.477C207.165 222.4 210.236 221.167 213.268 219.997C214.232 217.681 216.604 216.525 218.215 214.743C220.007 212.814 222.309 211.312 223.577 208.944C225.09 205.967 226.99 203.117 227.675 199.801C228.824 194.991 227.626 190.034 228.328 185.178C228.905 180.769 227.644 176.385 226.379 172.2C225.705 170.149 224.566 168.28 224.035 166.177C222.798 161.855 219.801 158.352 218.246 154.166C216.685 149.995 215.217 145.779 213.331 141.74C212.521 136.465 208.797 132.381 206.641 127.658C205.282 124.881 205.072 121.737 203.874 118.907C202.512 115.571 201.803 112.007 200.454 108.668C199.804 107.103 198.69 105.8 197.967 104.28C197.642 102.928 198.554 101.531 198.194 100.165C197.46 97.328 196.293 94.5297 196.482 91.5394C196.534 88.6049 196.206 85.6634 195.266 82.8721C194.672 80.8669 193.991 78.3376 191.874 77.4363C189.331 76.0913 186.197 75.473 183.476 76.5979ZM149.156 81.7297C147.427 83.6476 145.355 85.2057 143.266 86.7079C141.593 87.9306 141.352 90.2572 139.839 91.6232C138.575 93.0869 136.524 92.9193 134.931 93.7297C133.485 95.2703 132.81 97.3804 131.486 99.0188C129.279 101.01 126.407 102.191 124.433 104.455C123.703 105.772 123.305 107.249 122.547 108.556C121.914 108.755 121.24 108.727 120.587 108.79C117.583 108.717 116.541 112.301 114.809 114.145C113.691 116.748 110.414 114.781 108.566 116.252C107.598 117.083 107.053 118.292 106.421 119.375C105.82 121.01 106.585 122.802 106.278 124.483C105.467 126.194 103.553 127.176 102.795 128.923C103.172 130.533 105.107 131.483 105.338 133.209C105.478 134.767 104.88 136.308 105.038 137.862C105.687 139.298 106.823 140.458 107.542 141.866C109.034 144.392 109.499 147.312 110.079 150.145C110.376 151.407 109.359 152.455 108.859 153.517C107.804 155.312 106.194 157.136 103.913 157.09C101.68 157.506 99.3258 157.499 97.1598 156.766C94.2079 159.249 89.7013 159.141 86.9764 162.048C86.124 163.372 85.6349 164.891 84.7686 166.208C82.91 168.063 80.1852 168.088 77.9458 169.185C76.1677 169.835 74.7284 171.173 72.9362 171.77C70.0541 171.945 67.1616 170.813 64.3039 171.543C62.0262 172.413 60.6079 174.638 58.5327 175.843C55.8428 176.982 52.9013 177.667 50.4524 179.295C48.793 181.803 46.6061 183.875 44.7057 186.187C43.1022 188.332 41.5511 190.523 40.0978 192.769C39.3118 194.121 39.8428 195.787 39.2803 197.216C38.3616 199.697 37.3659 202.163 36.7651 204.745C36.8 208.021 36.6148 211.756 38.7878 214.488C40.5205 216.923 41.6769 219.85 44.1467 221.677C45.6873 222.879 46.8751 224.455 47.9895 226.048C49.331 225.828 50.641 225.335 52.007 225.265C53.062 225.667 53.6838 226.711 54.5677 227.372C56.0594 228.905 58.2672 227.033 59.9895 227.061C60.7825 228.074 61.5755 229.08 62.3651 230.1C63.8358 229.73 65.1459 228.951 66.5537 228.42C68.1083 228.14 69.6734 228.993 71.2349 228.675C73.1319 228.238 74.9485 227.525 76.772 226.858C77.3135 227.277 77.8515 227.707 78.393 228.133C78.4734 223.945 78.3546 219.745 78.7458 215.564C79.448 210.886 76.7546 206.456 77.7397 201.775C77.8655 198.718 80.4681 196.793 81.7397 194.226C84.1397 190.4 82.1659 185.478 84.5135 181.639C85.5895 179.274 87.6856 177.6 89.9983 176.538C90.2463 177.017 90.4978 177.506 90.7493 177.992C86.6899 180.364 85.5441 185.335 85.5336 189.698C85.6699 193.003 84.0769 195.931 82.0926 198.428C79.6891 200.919 80.1362 204.738 80.8349 207.829C81.7048 210.904 81.7886 214.131 82.5991 217.22C82.6236 215.983 82.4035 214.683 82.9275 213.51C84.0105 210.837 85.3275 208.2 87.3118 206.072C88.4786 204.807 87.8009 202.722 88.9886 201.489C90.9939 199.847 93.2192 198.502 95.2559 196.905C99.6472 193.394 101.736 187.854 106.03 184.256C106.348 184.79 106.659 185.335 106.969 185.88C104.272 189.691 101.67 193.59 98.5956 197.115C96.6603 199.326 94.0297 200.717 91.731 202.474C90.7878 204.021 91.2769 206.079 90.2323 207.599C88.4297 210.387 86.5747 213.251 85.9668 216.58C85.4498 219.295 84.1956 221.876 84.3354 224.696C87.6437 223.889 90.6306 222.261 93.2716 220.126C93.4498 217.272 93.5895 214.418 93.4672 211.564C93.572 210.334 93.2017 208.94 93.862 207.805C94.8926 205.304 97.614 204.28 99.0009 202.044C101.967 197.705 106.285 194.296 108.36 189.37C109.415 187.131 107.969 184.455 109.761 182.432C111.406 179.504 110.603 175.798 112.559 172.996C113.565 171.469 115.525 170.771 116.269 169.056C116.538 168.018 117.425 167.141 117.478 166.041C117.286 164.828 116.66 163.745 116.15 162.652C114.812 160.056 114.589 157.083 113.75 154.324C113.219 149.782 113.642 145.209 113.977 140.671C114.1 136.787 113.46 132.703 115.109 129.052C115.479 128.207 116.262 127.333 117.282 127.543C117.876 128.032 118.512 128.846 118.082 129.639C116.95 132.235 116.468 135.057 116.625 137.89C117.733 138.652 118.847 139.414 119.951 140.182C120.031 142.778 119.025 145.115 118.218 147.497C117.237 150.201 120.3 151.284 121.761 152.849C124.412 154.799 124.576 158.425 124.674 161.405C126.428 161.062 128.192 160.79 129.967 160.587C132.028 162.69 131.162 165.758 131.738 168.346C133.859 169.325 136.377 168.531 138.634 168.8C139.776 170.076 140.521 171.955 142.218 172.563C145.045 172.944 146.844 170.289 149.439 169.719C150.232 170.621 151.127 171.501 152.472 171.469C153.827 171.721 155.322 172.378 156.629 171.665C159.431 170.264 162.7 170.837 165.6 169.8C168.737 168.821 171.567 167.047 174.183 165.087C177.055 162.509 177.75 158.533 178.812 155.012C179.766 152.346 179.549 149.436 179.259 146.676C179.001 143.239 176.475 140.696 174.659 137.985C172.636 135.333 168.706 134.558 167.521 131.274C166.424 131.162 165.348 131.001 164.356 130.519C163.092 129.8 161.67 130.918 160.377 130.327C157.425 129.213 154.596 127.784 151.85 126.236C151.392 126.023 150.879 125.663 150.369 125.939C148.601 126.729 147.266 128.294 145.404 128.891C140.94 129.883 136.353 129.475 131.843 129.143C129.907 126.579 127.123 124.944 124.562 123.103C122.976 121.566 123.095 119.05 122.589 117.035C121.59 112.944 123.71 109.108 125.607 105.663C126.99 103.515 129.579 102.69 131.839 101.796C133.46 101.202 134.634 99.7804 136.255 99.211C139.518 98.6066 142.204 101.143 145.341 101.541C149.237 101.401 150.26 105.733 152.81 107.749C155.046 105.08 157.509 102.152 161.013 101.248C164.063 100.259 167.127 101.223 169.981 102.341C169.474 99.9551 168.217 97.7961 167.759 95.4101C168.255 94.3097 168.901 93.2861 169.499 92.238C168.507 89.8939 169.079 87.3961 169.279 84.9682C167.86 86.9385 167.12 89.321 165.635 91.2424C164.318 93.0765 161.785 93.0835 160.133 94.4564C158.903 96.1193 158.176 98.0721 157.149 99.8538C153.907 99.8118 154.033 96.2555 153.327 93.9778C152.51 91.5533 154.907 89.4992 154.599 87.1027C154.023 85.5935 152.72 84.5175 152.007 83.0887C152.391 81.321 153.502 79.7979 154.169 78.1245C151.696 77.9778 150.634 80.266 149.156 81.7297ZM25.6908 94.5717C23.6996 95.4276 22.6341 97.4642 21.4253 99.1376C25.2646 98.8546 29.1179 98.7289 32.9502 98.369C35.745 98.1594 38.4734 98.8966 41.2437 99.0677C41.09 98.5402 40.9328 98.0127 40.7721 97.4852C38.7284 96.8145 36.5624 96.7446 34.4489 96.4651C32.1886 96.6817 31.5039 93.9987 29.6105 93.4433C28.2341 93.4503 26.9624 94.135 25.6908 94.5717ZM23.3677 100.961C23.1616 102.848 23.1127 104.769 22.7144 106.628C21.9039 108.276 20.3808 109.475 19.5843 111.134C19.1336 112.266 20.1327 113.3 20.4402 114.331C21.345 115.896 21.2227 117.831 22.1135 119.379C23.4445 120.64 25.0271 121.621 26.5852 122.575C28.6288 124.091 31.448 123.903 33.4393 125.51C34.1555 125.89 34.7668 126.656 35.6192 126.711C38.931 126.397 41.6769 124.392 44.3633 122.617C45.1319 122.191 46.1834 121.286 47.0533 122.016C48.6009 123.092 48.1293 125.188 48.1712 126.827C48.2376 131.033 45.7502 135.173 41.9004 136.933C39.752 137.604 37.4218 137.055 35.2175 137.104C35.3293 138.177 35.4201 139.246 35.5179 140.329C37.7537 139.211 40.269 139.801 42.6515 139.525C44.4262 139.382 46.2288 139.773 47.979 139.49C49.8026 138.31 49.5022 135.655 49.6314 133.81C49.5162 128.402 49.2821 123.008 49.5301 117.6C48.8734 117.042 48.1712 116.511 47.6611 115.808C47.2244 114.533 48.3354 113.856 49.0166 113.073C48.5624 109.915 48.9397 106.704 48.4052 103.557C47.2594 101.625 44.6183 102.156 42.7668 101.918C39.2175 101.883 35.6996 100.965 32.1467 101.321C29.2227 101.611 26.2358 101.684 23.3677 100.961ZM10.6131 101.373C10.1904 102.956 8.5345 103.27 7.58428 104.357C6.79476 105.618 7.09869 107.239 7.01834 108.636C7.15109 112.738 6.53974 116.825 6.73886 120.93C6.60961 123.298 7.67511 125.527 7.57729 127.885C7.44454 131.029 8.66026 134.18 7.71703 137.279C8.25153 137.618 8.77555 137.974 9.28559 138.348C11.1755 133.621 14.5782 129.733 16.9712 125.286C18.4349 122.652 17.3031 119.599 16.8 116.863C16.3109 114.841 14.2882 113.23 14.9345 111.001C15.9441 108.867 17.8865 107.358 19.1336 105.373C19.5843 103.672 18.2044 101.992 16.5764 101.723C14.6131 101.359 12.6009 101.45 10.6131 101.373ZM132.454 104.231C129.411 106.013 125.963 108.147 125.031 111.784C123.689 114.757 125.534 117.873 125.921 120.825C128.444 122.61 131.672 123.634 133.314 126.446C134.966 126.586 136.559 127.207 138.222 127.228C140.922 126.904 143.686 126.785 146.309 126.02C147.626 125.338 148.87 124.427 149.883 123.34C151.7 119.522 152.608 115.166 152.119 110.938C150.676 108.643 148.419 106.966 146.735 104.853C144.37 104.158 142.037 103.323 139.766 102.348C137.114 101.318 134.812 103.403 132.454 104.231ZM163.357 103.721C159.899 103.948 156.943 106.131 155.015 108.898C154.494 110.013 154.679 111.305 154.526 112.486C154.365 115.934 153.527 119.309 153.31 122.75C153.24 123.718 153.726 124.937 154.781 125.125C156.894 125.656 158.795 126.771 160.877 127.4C163.053 128.186 165.362 127.159 167.539 126.973C168.873 126.83 169.722 125.716 170.508 124.755C171.811 123.008 174.302 122.54 175.291 120.5C176.122 118.799 176.797 117.014 177.251 115.176C177.684 112.409 175.85 110.027 174.369 107.903C172.817 105.747 169.96 105.639 167.843 104.318C166.505 103.497 164.894 103.124 163.357 103.721ZM51.724 104.472C51.3956 106.834 50.9555 109.202 51.1441 111.599C53.8131 110.938 56.6603 111.173 59.2629 110.257C60.2969 109.408 61.9948 108.521 61.8271 106.945C61.4009 105.583 59.8079 105.185 58.5467 105.475C56.2201 105.974 53.9389 105.118 51.724 104.472ZM74.91 107.375C72.5275 107.386 72.4437 110.481 70.6655 111.466C67.993 111.91 65.2122 111.641 62.5642 112.318C59.2349 114.055 55.3362 114.104 52.0489 115.938C51.4795 122.666 52.2026 129.415 52.3563 136.144C52.1782 138.61 50.5642 140.598 49.2576 142.568C46.2882 143.043 43.2873 142.76 40.3004 142.736C40.7686 143.511 41.6838 144.262 41.4812 145.255C39.7974 149.192 36.4786 153.768 31.6716 153.202C33.048 155.522 35.1755 157.269 37.5825 158.449C39.193 159.12 39.5948 161.066 40.8838 162.062C42.5467 162.366 44.269 162.124 45.9493 162.219C47.0358 163.085 48.2096 164.231 49.7817 163.553C52.4926 163.228 55.214 163.511 57.9109 163.857C60.5205 164.584 62.0157 161.904 64.0175 160.814C65.6175 160.144 67.4655 160.476 69.0865 159.875C70.1624 159.263 70.917 158.177 72.1153 157.765C74.3196 157.024 76.2341 155.644 77.9249 154.083C79.4166 152.657 79.8672 150.558 80.7022 148.755C81.4917 147.396 82.6585 146.317 83.6996 145.157C83.4306 142.98 82.8961 140.661 83.8044 138.554C84.4926 136.559 85.4428 134.505 85.0236 132.353C84.8943 130.159 83.9336 128.186 83.179 126.17C82.8821 123.931 83.2664 121.635 82.7843 119.41C82.1135 117.541 80.8629 115.871 80.5345 113.883C80.3703 112.448 80.9852 110.662 79.8987 109.443C78.6096 108.144 76.9188 106.652 74.91 107.375ZM21.0061 123.466C19.6926 125.918 19.0672 128.727 17.586 131.075C14.0576 132.545 12.2306 136.413 11.7869 140.004C12.0419 142.498 11.6716 145.304 13.1948 147.476C13.9284 149.331 15.8952 149.988 17.4568 150.966C16.4786 147.987 15.5459 144.619 16.8803 141.597C17.2926 140.668 18.3546 140.566 19.2384 140.476C18.959 142.582 18.2777 144.696 18.7633 146.834C19.1616 148.72 20.2306 150.411 21.4114 151.903C23.3153 152.193 25.1528 151.291 26.9415 150.767C24.5764 147.036 22.9939 142.442 25.0026 138.159C25.4987 138.32 25.9983 138.491 26.4943 138.669C26.3092 140.734 26.1555 142.855 26.6655 144.895C27.2803 146.893 28.5869 148.556 29.9843 150.065C31.4935 149.999 32.9712 150.4 34.4734 150.376C35.5424 149.957 36.4996 149.195 37.2576 148.339C38.1031 147.361 37.1249 146.125 36.9537 145.08C36.3493 145.29 35.7764 145.747 35.1231 145.744C33.6629 145.377 33.0201 143.693 33.0061 142.32C33.0795 139.508 33.1983 136.668 33.8166 133.918C34.3371 134.359 34.8472 134.809 35.3642 135.256C37.6 134.366 40.1782 135.141 42.2742 133.817C45.4079 132.304 46.5991 128.413 45.5511 125.237C42.4245 126.774 39.6297 129.223 36.0803 129.73C35.1581 129.894 34.3441 129.171 33.5266 128.933C31.3852 127.777 28.8349 127.599 26.8087 126.215C25.0306 125 23.1162 123.966 21.0061 123.466ZM116.566 152.926C116.87 154.47 117.195 156.018 117.188 157.6C118.39 157.199 119.605 156.818 120.81 156.416C119.651 154.97 118.061 153.985 116.566 152.926ZM118.397 159.962C119.064 161.849 119.574 163.784 119.979 165.744C120.699 163.459 121.272 161.104 121.341 158.701C120.335 159.068 119.357 159.497 118.397 159.962ZM123.221 164.518C122.341 165.953 122.393 167.735 121.991 169.342C124.248 169.101 126.428 168.423 128.65 167.987C128.734 166.603 128.615 165.22 128.594 163.84C126.812 164.098 124.978 164.109 123.221 164.518ZM38.7284 164.874C37.1214 165.793 35.3362 166.338 33.6384 167.05C33.9284 169.073 33.6524 171.078 33.0131 173.003C35.5563 172.835 38.0961 172.573 40.6428 172.448C43.7974 172.406 46.8611 173.276 49.8795 174.093C50.4943 172.8 50.9974 171.428 51.8672 170.285C52.9188 168.972 54.6585 169.052 56.1013 168.577C56.4472 167.962 56.6148 167.267 56.8349 166.603C54.2952 166.236 51.6926 166.376 49.2052 167.005C47.2419 167.574 45.579 165.925 43.6646 165.8C41.9808 165.733 40.3284 165.387 38.7284 164.874ZM7.47598 167.148C6.31616 168.028 4.5869 167.704 3.57729 168.794C2.44541 172.123 2.48734 175.738 3.10917 179.173C5.37642 179.955 8.67074 179.913 9.66288 182.47C9.79563 184.612 9.45677 186.771 9.17729 188.898C9.60699 189.394 10.4699 190.39 10.8996 190.886C12.6707 191.284 14.8646 190.931 16.3389 192.221C17.4847 193.814 16.8524 196.021 17.4847 197.782C18.8821 198.813 21.1214 198.31 22.2533 199.896C24.5485 202.428 26.3231 205.373 28.5065 207.997C30.138 208.94 32.1188 208.633 33.9039 209.031C33.9843 207.574 34.0716 206.131 34.1869 204.689C32.5031 203.679 30.5083 203.2 28.9852 201.943C28.0245 200.409 28.1537 198.449 27.441 196.818C26.414 195.808 24.9991 195.298 23.7694 194.572C23.8183 193.95 23.8672 193.335 23.9127 192.717C23.1581 191.826 21.9144 190.928 22.5747 189.534C23.2384 188.098 24.531 187.075 25.317 185.716C25.5965 184.196 25.062 182.631 25.0306 181.115C22.8961 180.752 20.7441 180.479 18.6376 179.969C17.7956 179.295 16.9153 178.299 17.0934 177.143C16.9118 174.6 18.931 172.783 19.5144 170.474C19.3852 169.377 18.7459 168.318 18.0052 167.501C14.9485 165.401 10.6271 165.028 7.47598 167.148ZM125.401 171.431C125.408 171.707 125.422 172.266 125.425 172.542C126.634 172.979 127.843 173.387 129.02 173.918C129.998 174.558 130.679 175.546 131.563 176.304C131.962 174.837 132.328 173.366 132.734 171.906C130.341 171.316 127.836 170.802 125.401 171.431ZM134.826 171.889C134.316 173.838 134.267 175.861 135.221 177.684C136.451 176.598 137.631 175.456 138.816 174.324C138.438 173.709 137.68 172.476 137.303 171.861C136.681 171.868 135.445 171.882 134.826 171.889ZM143.462 175.641C141.478 175.637 139.724 176.538 138.393 177.932C141.764 177.999 145.286 178.121 148.482 176.87C150.41 176.252 152.405 175.854 154.313 175.173C152.286 174.338 150.072 173.688 147.867 173.901C146.421 174.54 145.097 175.55 143.462 175.641ZM32.1537 175.794C30.9624 175.686 29.9703 176.294 29.0445 176.916C33.7118 178.055 38.4105 179.162 42.8961 180.888C44.524 179.291 46.0646 177.59 47.9721 176.304C43.0079 173.985 37.3555 175.026 32.1537 175.794ZM27.5808 179.574C27.738 181.283 28.1362 182.987 28.1153 184.713C28.1467 186.879 26.4629 188.322 25.2786 189.918C26.4873 191.718 27.6681 193.559 29.31 195.005C30.9555 196.336 30.7179 198.659 31.5703 200.42C32.524 201.227 33.7817 201.534 34.9135 202.013C35.5319 200.28 36.1293 198.533 36.5659 196.745C37.0061 195.001 36.517 192.951 37.7642 191.466C39.2279 189.188 40.6707 186.893 42.2777 184.713C41.1354 183.515 40.1153 181.915 38.2358 181.897C34.669 181.185 31.2035 180.014 27.5808 179.574ZM89.9179 229.667C87.8218 230.184 86.5432 232.074 85.2716 233.667C89.5092 236.706 94.8786 235.756 99.7415 235.469C99.5249 232.472 97.0341 230.257 94.5537 228.954C92.9921 228.657 91.4306 229.366 89.9179 229.667Z" fill="black"/>
<path d="M107.12 47.3856C108.241 46.0756 110.281 47.2808 110.627 48.6887C111.011 50.5961 109.457 51.9516 108.622 53.4398C107.507 53.1324 105.872 53.1673 105.251 51.9411C105.16 50.2642 106.037 48.6153 107.12 47.3856Z" fill="black"/>
<path d="M90.6862 49.0903C91.5107 50.058 92.8906 50.7672 93.1142 52.1157C92.9675 53.5654 91.8321 54.6624 91.1718 55.8956C89.7395 55.7593 86.8225 55.127 87.8251 52.8982C88.5692 51.4868 89.6592 50.2991 90.6862 49.0903Z" fill="black"/>
<path d="M145.45 114.041C147.214 113.932 147.94 116.242 148.133 117.691C147.238 119.015 146.061 120.137 144.81 121.122C143.231 121.583 141.072 120.947 140.677 119.18C140.126 117.807 141.593 116.713 142.208 115.665C142.976 114.67 144.255 114.25 145.45 114.041Z" fill="black"/>
<path d="M162.672 115.833C163.986 115.337 165.135 116.032 166.201 116.657C165.932 117.814 166.232 119.899 164.66 120.318C162.889 121.22 161.387 119.896 159.94 119.145C160.377 117.807 160.985 115.962 162.672 115.833Z" fill="black"/>
<path d="M196.178 152.273C198.271 146.967 199.986 141.29 204.018 137.052C204.531 138.17 205.418 139.197 205.555 140.469C206.065 144.368 208.451 147.644 209.583 151.347C210.362 153.744 212.248 155.997 211.658 158.656C214.236 160.822 215.972 163.854 216.971 167.044C218.362 171.078 220.646 174.82 221.363 179.071C222.079 182.439 223.434 185.957 222.348 189.391C221.261 193.056 221.761 197.154 219.714 200.518C217.824 203.823 216.835 207.777 213.841 210.331C210.547 213.241 206.634 215.718 202.229 216.413C197.618 216.748 192.996 215.952 188.384 216.333C185.191 216.64 182.302 215.25 179.294 214.519C176.234 214.079 173.279 213.164 170.397 212.074C169.048 211.463 168.07 210.264 166.742 209.622C164.451 208.605 162.065 207.823 159.791 206.771C160.405 205.416 160.905 203.934 161.949 202.848C166.135 199.557 168.853 194.858 172.598 191.127C177.286 186.209 180.982 180.427 184.039 174.39C184.779 170.149 188.493 167.4 190.114 163.554C191.843 159.637 193.813 155.844 196.178 152.273ZM202.306 143.445C202.533 144.259 202.774 145.073 203.015 145.887C202.557 145.828 202.103 145.772 201.649 145.723C199.371 150.719 197.848 156.057 195.008 160.794C193.097 164.294 189.862 167.606 190.124 171.871C193.715 171.501 197.37 171.466 200.929 172.165C203.766 172.993 206.201 174.984 207.64 177.569C208.611 177.692 209.66 177.51 210.575 177.926C212.36 179.414 213.782 181.346 214.826 183.421C215.937 185.276 215.263 187.547 214.945 189.524C213.803 194.202 210.096 197.726 206.135 200.189C202.795 202.376 198.659 203.197 194.725 202.467C192.231 202.079 189.894 204.168 187.441 203.229C185.639 202.558 183.501 202.237 182.156 200.727C180.594 198.341 180.098 195.239 180.985 192.514C182.351 190.296 184.839 189.143 186.694 187.41C187.616 186.156 187.979 184.591 188.465 183.141C186.753 182.624 185.048 182.1 183.396 181.43C180.332 187.033 175.846 191.672 171.497 196.28C169.181 199.721 165.977 202.404 163.364 205.601C164.846 205.971 166.327 206.331 167.808 206.722C169.457 207.078 169.876 209.178 171.595 209.464C173.653 210.411 175.878 210.855 178.044 211.466C182.302 212.804 186.875 212.361 191.144 213.643C193.387 214.719 195.584 213.356 197.768 212.919C199.074 213.031 200.189 214.191 201.569 213.856C206.358 213.038 210.729 210.118 213.541 206.191C218.096 200.284 220.196 192.671 219.63 185.255C219.822 182.009 217.848 179.187 217.96 175.955C216.007 170.544 213.618 165.101 209.939 160.616C210.11 159.969 210.292 159.326 210.473 158.684C207.525 155.368 205.537 151.173 205.272 146.719C205.279 145.003 203.417 144.364 202.306 143.445ZM188.342 174.397C187.378 175.934 186.407 177.471 185.443 179.012C187.508 179.644 190.299 180.015 191.099 182.376C192.053 184.472 190.379 186.558 189.097 188.046C187.263 190.292 184.025 191.323 183.095 194.282C183.193 196.06 183.567 198.065 184.901 199.361C186.222 200.168 187.818 200.497 189.349 200.647C191.787 200.336 193.977 199.047 196.311 198.345C198.316 197.615 198.774 195.246 199.368 193.464C199.511 191.278 198.777 189.08 199.34 186.914C200.381 187.288 201.754 187.728 201.887 189.035C202.163 192.794 201.156 196.63 199.06 199.76C199.993 199.543 200.933 199.344 201.876 199.131C202.079 198.289 202.225 197.419 202.613 196.637C203.735 195.414 206.568 196.703 206.994 194.736C207.532 192.759 206.931 190.642 206.376 188.741C205.803 187.169 204.067 186.572 202.844 185.618C203.805 184.678 205.16 184.109 206.428 184.853C209.115 186.663 209.474 190.184 210.211 193.052C211.389 191.169 212.521 189.161 212.737 186.904C212.72 183.33 209.785 179.683 206.019 179.833C204.58 178.865 203.979 176.818 202.25 176.109C198.072 173.496 192.989 174.596 188.342 174.397Z" fill="black"/>
<path d="M163.28 140.919C166.673 140.056 169.565 142.526 171.85 144.661C173.446 146.069 173.988 148.214 174.802 150.1C176.314 153.321 174.183 156.5 172.273 158.973C170.222 161.656 166.798 162.474 163.668 163.117C160.528 163.497 157.642 161.698 155.41 159.689C152.402 155.672 152.084 149.387 155.902 145.775C158.068 143.819 160.143 141.195 163.28 140.919Z" fill="black"/>
<path d="M122.365 203.724C125.369 203.277 128.423 203.127 131.445 202.83C135.944 203.179 140.615 203.892 144.58 206.191C145.838 206.631 145.74 208.252 145.932 209.272C146.096 210.61 146.407 211.927 146.442 213.282C145.24 216.207 143.214 218.862 140.44 220.455C137.492 222.435 134.617 224.58 131.308 225.939C128.238 227.176 125.251 228.79 121.932 229.23C120.3 229.307 118.585 230.271 116.971 229.583C115.032 228.748 112.884 228.947 110.833 229.076C109.516 227.71 108.147 226.397 106.819 225.052C105.806 224.067 105.841 222.558 105.673 221.248C105.233 218.638 106.781 216.329 107.927 214.124C109.258 211.372 111.853 209.681 114.061 207.71C116.087 205.227 119.466 204.598 122.365 203.724ZM122.994 207.826C122.652 207.49 122.309 207.162 121.967 206.834C119.008 208.559 115.487 209.433 112.943 211.812C111.322 214.226 109.436 216.524 108.154 219.148C108.052 220.647 108.262 222.278 108.989 223.609C111.829 226.924 116.636 226.463 120.573 226.624C124.859 226.729 128.252 224.049 132.004 222.463C134.592 221.244 136.496 218.841 139.277 218.009C141.345 217.384 142.232 215.172 143.319 213.51C143.679 212.689 144.597 211.606 143.874 210.725C143.008 209.478 141.659 208.657 140.328 207.983C134.896 205.712 128.402 205.262 122.994 207.826Z" fill="black"/>
<path d="M83.8323 4.52777C85.3554 3.53563 87.2419 4.03519 88.9152 4.2972C91.2419 4.05266 91.9685 6.95222 94.2602 6.77056C96.6008 7.28061 98.896 6.42821 101.209 6.28847C103.797 7.31554 106.491 8.05615 109.114 8.99589C108.444 10.6273 108.112 12.4334 107.13 13.9147C105.485 14.5155 103.892 13.6282 102.253 13.8343C97.7991 14.5086 93.4672 12.7688 89.0864 12.1819C87.434 13.3173 85.9703 14.7985 84.1642 15.6789C82.7877 15.4378 81.7502 14.3444 80.5554 13.712C78.7353 13.8937 76.8698 14.264 75.0602 13.7819C73.6768 14.7391 72.3668 15.857 70.8611 16.6046C68.6567 16.8457 66.648 15.2596 64.4436 15.7068C62.4489 16.9155 60.9257 18.7985 58.8646 19.9269C57.9388 20.1959 56.9711 20.2658 56.0244 20.4404C57.1493 16.2693 60.8524 13.5129 64.0768 10.9697C65.3764 9.92515 67.1056 9.92515 68.5414 9.18105C70.3196 8.42646 71.972 7.30856 73.862 6.83694C75.8253 6.29545 77.3834 7.81511 79.2314 7.9793C80.8524 6.95222 82.1973 5.53738 83.8323 4.52777Z" fill="#6392D9"/>
<path d="M115.497 15.6055C118.494 15.8256 121.457 16.7758 124.478 16.5033C127.081 16.4474 129.771 16.2587 132.3 16.9994C130.393 19.3574 128.555 22.3024 125.348 22.8718C123.982 22.6797 122.851 21.6946 121.457 21.5688C119.064 21.3766 116.576 21.174 114.41 20.0491C113.499 18.6587 113.652 16.1539 115.497 15.6055Z" fill="#F8EFD9"/>
<path d="M82.3896 18.8581C85.1424 19.9131 86.3442 16.3009 88.7267 15.8433C91.6263 16.1192 94.3651 17.3315 97.2787 17.5551C99.0673 17.6564 100.866 17.6494 102.659 17.5935C104.416 19.1516 106.763 20.0494 108.28 21.8485C105.45 23.6267 102.76 25.7053 100.678 28.3498C98.9695 30.2502 98.3232 32.7725 97.3171 35.0537C95.9721 33.3804 94.5817 31.6511 94.1241 29.4922C93.8306 28.2171 92.7896 27.3716 91.7835 26.6415C88.9678 24.769 85.1145 23.197 81.8027 24.5559C78.8193 26.0476 75.2001 24.8249 72.2306 26.39C67.6822 28.0075 64.9538 32.2031 61.7293 35.5149C60.4193 37.059 59.7101 39.1376 57.9844 40.3114C56.3319 41.8415 54.2499 42.6625 52.2656 43.6302C50.5223 44.8878 50.421 47.4415 48.8071 48.804C47.6403 49.2057 46.3547 48.9647 45.1389 49.0275C43.221 51.1481 41.9145 54.4948 38.6411 54.8022C38.6376 52.6048 39.6193 50.673 41.0411 49.0695C42.442 47.6546 41.5442 45.3489 42.8577 43.8747C43.6927 42.652 44.6289 41.4957 45.4044 40.231C46.0368 38.9664 46.0961 37.4957 46.7459 36.2415C47.9861 34.4983 49.8097 33.2861 51.1372 31.6197C52.4787 29.7158 52.6708 27.1131 54.6237 25.6389C57.5547 23.169 60.9084 21.2721 63.9372 18.9315C66.2149 19.5079 68.4822 20.1262 70.7739 20.6572C72.0071 19.459 72.9293 17.321 74.9171 17.2826C77.5477 16.8599 80.0036 17.9114 82.3896 18.8581Z" fill="#F8EFD9"/>
<path d="M45.8868 16.1543C46.809 16.6853 47.7208 17.2338 48.6221 17.8032C49.2125 17.2547 49.8029 16.7063 50.3933 16.1578C51.7802 16.8809 53.6911 17.7683 53.0309 19.791C51.2317 22.184 47.9898 22.8408 45.9566 24.9788C44.7549 26.2748 44.2309 28.1019 42.844 29.2338C41.3033 30.0827 39.4413 28.5525 37.9007 29.5063C36.1889 31.0748 35.3854 33.37 34.7496 35.5464C33.6667 35.3473 32.3671 34.6975 31.4239 35.5953C29.3068 36.8809 28.6047 39.3473 28.2274 41.6355C26.8125 41.8696 25.244 41.9499 24.1121 42.9735C22.7042 44.0425 22.2116 45.8172 21.4256 47.3263C18.9837 47.2495 16.954 45.6285 15.7383 43.6093C15.7383 39.7875 16.8771 35.9167 18.7042 32.5805C19.8815 33.0381 21.0902 33.4084 22.313 33.7368C23.9374 31.0678 25.6527 28.3394 28.1959 26.446C29.5444 25.5377 31.3261 25.5971 32.5977 24.5386C33.7785 23.6093 34.8335 22.5229 36.0806 21.6774C38.2955 20.1927 40.2588 17.4294 43.3575 18.432C44.2064 17.6774 45.0553 16.9263 45.8868 16.1543Z" fill="#6392D9"/>
<path d="M135.511 18.2466C138.994 19.1479 143.133 19.0501 145.523 22.1872C146.295 24.5068 145.474 26.9278 145.708 29.2999C145.768 30.7636 146.131 32.2937 145.708 33.7365C144.335 35.4029 142.613 36.7584 141.17 38.3689C140.538 37.1776 139.409 36.0946 139.78 34.5854C139.825 31.0641 143.305 28.2099 142.515 24.7165C140.409 25.0239 139.371 27.2702 137.795 28.4544C136.388 29.5933 134.393 30.9523 132.552 29.9811C132.175 27.7767 131.479 25.6422 131.081 23.4413C132.632 21.775 133.981 19.9304 135.511 18.2466Z" fill="#F8EFD9"/>
<path d="M50.7562 25.188C50.8959 25.2788 51.1754 25.457 51.3151 25.5478C49.9911 27.871 48.9745 30.4491 46.9588 32.2902C45.0024 34.1103 43.7204 36.4544 42.6199 38.8544C41.0024 41.5059 38.8819 43.9373 38.1553 47.043C36.8138 49.429 35.6051 51.9164 34.061 54.1871C31.5701 52.6849 28.5553 51.4028 25.6522 52.388C24.95 50.264 24.8348 47.9932 24.5728 45.7889C25.5754 45.16 26.8645 45.2823 27.8566 44.6221C30.1343 43.3993 30.9238 40.8282 32.0313 38.6727C33.1317 39.0186 34.5116 40.0037 35.5177 39.022C37.4112 37.7015 37.9736 35.3365 38.8645 33.3487C40.3177 33.3592 41.9247 33.8937 43.2173 33.0657C45.3693 31.2282 46.6409 28.6046 48.6461 26.6238C49.1387 26.0089 49.9177 25.8517 50.6444 25.733C50.6723 25.5967 50.7282 25.3242 50.7562 25.188Z" fill="#6392D9"/>
<path d="M108.981 26.3898C110.05 26.3165 111.032 25.8344 112.01 25.4326C113.876 26.6064 116.297 26.2501 118.04 27.644C121.292 30.1138 123.734 33.499 125.851 36.954C126.945 39.5287 126.473 42.5435 125.925 45.202C125.443 47.5601 123.179 48.9994 122.606 51.3156C122.169 52.5593 122.225 54.1662 120.992 54.9627C119.259 56.1296 117.39 57.216 115.339 57.6946C111.462 57.74 107.21 58.554 103.591 56.7444C101.282 54.7986 97.7255 52.5662 98.8225 49.0169C99.1823 46.7042 98.4277 44.4265 98.6268 42.1173C98.8679 39.5147 98.7701 36.7304 100.066 34.3689C101.904 31.1234 104.16 28.1016 106.805 25.4641C107.518 25.7959 108.195 26.2571 108.981 26.3898ZM107.119 47.3855C106.036 48.6152 105.16 50.2641 105.25 51.9409C105.872 53.1671 107.507 53.1322 108.622 53.4396C109.457 51.9514 111.011 50.5959 110.627 48.6885C110.281 47.2807 108.241 46.0754 107.119 47.3855Z" fill="white"/>
<path d="M81.9284 27.8886C85.0061 27.148 88.283 28.5593 90.4105 30.7742C93.0061 34.9069 94.8751 39.5148 95.8114 44.3113C96.1048 46.6764 96.3459 49.1497 95.4655 51.431C94.2114 56.0214 90.414 59.1969 86.69 61.8414C81.4743 64.451 75.1057 64.8214 69.6454 62.7288C67.4795 61.6388 65.904 59.6685 65.1703 57.3768C62.4454 55.2283 61.8027 51.7663 60.7721 48.6502C60.5171 46.058 59.4376 43.1061 60.8699 40.6711C62.6411 37.4187 65.6769 35.1864 68.1607 32.5209C69.2158 31.12 71.0044 30.7637 72.2935 29.6668C73.1564 28.9087 74.3232 28.8144 75.4201 28.8004C77.6315 28.8144 79.7904 28.3882 81.9284 27.8886ZM90.6865 49.0904C89.6594 50.2991 88.5695 51.4869 87.8254 52.8982C86.8227 55.127 89.7398 55.7593 91.1721 55.8956C91.8324 54.6624 92.9677 53.5655 93.1144 52.1157C92.8909 50.7672 91.511 50.058 90.6865 49.0904Z" fill="white"/>
<path d="M133.705 33.4992C134.973 33.0346 136.217 32.4931 137.419 31.8643C137.132 34.8721 135.969 38.121 137.509 40.9647C138.009 42.2992 139.106 43.2424 140.13 44.1682C139.969 45.88 139.647 47.5638 139.361 49.2547C137.639 48.3114 135.878 47.4416 134.156 46.4948C134.645 42.1385 133.803 37.8381 133.705 33.4992Z" fill="#F8EFD9"/>
<path d="M147.983 35.2248C149.233 34.844 150.69 35.0291 151.776 35.7698C152.542 38.3724 153.376 40.968 154.61 43.396C156.419 47.375 154.756 51.7034 152.535 55.1095C151.266 56.8527 149.586 58.2816 148.538 60.1855C146.956 62.9593 144.44 65.2091 141.474 66.4073C139.532 67.2178 137.659 68.3252 135.567 68.6885C134.536 68.3916 133.722 67.5951 132.797 67.0955C133.223 65.3174 133.499 63.4274 134.512 61.8693C134.99 60.9401 135.888 59.7977 135.127 58.7741C134.012 57.789 132.405 57.2789 131.039 58.023C128.091 59.0885 126.313 61.7156 124.664 64.2099C123.808 64.2064 122.949 64.2134 122.093 64.2344C121.914 58.9523 126.337 55.1724 127.927 50.4283C129.97 50.575 132.049 50.4772 134.082 50.7986C136.321 51.5671 137.921 53.5898 140.325 54.03C139.825 55.361 139.424 56.7584 139.406 58.1942C139.916 58.568 140.528 58.7567 141.107 58.9907C143.874 56.1995 143.703 51.8012 146.508 49.0903C148.597 47.4239 150.445 45.4536 151.92 43.2248C152.136 42.1872 151.13 41.4955 150.533 40.8073C149.08 42.2571 147.438 43.4938 145.67 44.5418C144.245 43.63 142.491 42.4912 142.617 40.5558C143.228 37.8973 145.649 36.2693 147.983 35.2248Z" fill="#F8EFD9"/>
<path d="M52.6849 47.4137C53.9495 46.0164 55.5565 44.9963 57.139 43.9937C57.2683 46.5124 57.436 49.15 58.6412 51.4242C59.6229 53.2373 59.0046 55.6094 60.608 57.1395C61.8377 58.5718 62.7705 60.2137 63.3504 62.0094C65.7085 62.6417 66.6098 65.2443 68.8631 65.9989C70.3128 66.4845 71.8535 66.0792 73.3452 66.0338C73.1111 66.2993 72.8805 66.5613 72.65 66.8268C75.9268 67.543 79.2107 66.6557 82.477 66.3587C88.6814 64.9054 93.3382 59.8993 96.8037 54.8199C98.3792 56.4757 99.8989 58.2295 101.775 59.557C106.107 61.2548 110.91 61.1535 115.48 60.9229C116.716 60.8146 117.838 60.2382 118.945 59.7247C119.064 62.1771 119.064 64.6749 119.857 67.0295C121.052 67.9762 122.69 67.3509 124.07 67.6513C125.157 68.9054 125.873 71.0015 124.814 72.4723C123.026 74.9421 123.116 78.2749 121.181 80.6539C120.35 81.6635 119.102 82.0897 118.086 82.8443C116.405 84.5002 115.654 86.8548 114.075 88.584C112.971 89.5378 111.438 88.7937 110.173 89.2059C108.828 90.5613 107.962 92.3395 106.54 93.6251C105.24 94.7849 103.35 94.3203 101.785 94.8199C99.2177 95.3963 97.2928 97.2827 94.9766 98.3867C93.4814 98.2923 92.0666 97.6356 90.5574 97.6775C87.2596 98.233 83.9059 99.295 81.684 101.953C80.6604 103.291 79.1198 102.163 77.9845 101.608C76.3216 100.871 75.7347 98.9456 74.2989 97.9325C72.9818 97.4295 71.5006 97.8033 70.1417 97.4609C69.3242 96.4618 69.1286 95.0993 68.3495 94.0723C66.5015 93.4085 64.2098 94.3308 62.6133 92.8565C60.1888 91.1867 57.4884 89.9884 54.8928 88.626C53.457 87.536 52.9434 85.426 51.043 84.888C49.6701 84.6015 48.2587 84.6749 46.8683 84.584C46.6098 83.1902 46.7146 81.674 46.0369 80.4059C44.5102 79.4102 42.4456 79.5849 40.9469 78.5334C40.1749 77.2583 40.4264 75.6478 39.8709 74.2888C39.1478 73.122 37.7434 72.2801 37.712 70.7779C37.712 68.9858 37.1356 67.288 36.2832 65.7369C34.0998 66.9072 32.3775 68.9613 29.981 69.6775C27.7032 69.4469 25.1076 69.0941 23.3888 67.4487C21.9984 64.3814 22.8788 60.6295 24.8316 58.0059C25.9181 56.2277 28.1574 55.8469 30.0613 56.06C31.3609 56.7133 32.4299 57.8417 33.8692 58.2085C34.7391 57.8312 35.4273 57.157 36.1714 56.591C36.5032 57.2513 36.8386 57.9081 37.174 58.5683C40.7792 58.3517 43.1129 55.1971 45.153 52.612C46.2954 52.4653 47.5356 52.5736 48.5836 52.06C50.2605 50.8164 51.4238 49.0417 52.6849 47.4137Z" fill="#F8EFD9"/>
<path d="M183.476 76.5977C186.198 75.4728 189.331 76.0912 191.874 77.4362C193.991 78.3375 194.673 80.8667 195.267 82.872C196.206 85.6632 196.535 88.6047 196.482 91.5392C196.294 94.5296 197.46 97.3279 198.194 100.165C198.554 101.53 197.642 102.928 197.967 104.28C198.69 105.799 199.805 107.103 200.454 108.668C201.803 112.007 202.512 115.571 203.874 118.907C205.073 121.737 205.282 124.881 206.641 127.658C208.797 132.381 212.521 136.465 213.331 141.74C215.218 145.779 216.685 149.995 218.246 154.166C219.801 158.351 222.798 161.855 224.035 166.177C224.566 168.28 225.705 170.149 226.379 172.199C227.644 176.385 228.905 180.769 228.329 185.178C227.626 190.034 228.825 194.991 227.675 199.801C226.991 203.117 225.09 205.967 223.578 208.944C222.309 211.312 220.007 212.814 218.215 214.743C216.605 216.524 214.233 217.681 213.268 219.997C210.236 221.167 207.165 222.4 203.871 222.477C198.309 222.662 192.835 224.35 187.274 224.112C182.809 222.879 178.397 221.394 174.184 219.441C169.143 216.909 164.116 214.18 158.592 212.86C157.572 212.248 156.577 212.842 155.742 213.366C152.608 215.483 150.652 218.806 148.315 221.688C144.797 225.37 140.713 228.468 136.287 230.987C132.552 233.569 128.252 235.382 123.794 236.206C120.671 236.011 117.509 236.685 114.421 235.99C112.102 235.277 109.576 234.914 107.644 233.31C104.311 230.243 101.352 226.285 101.188 221.583C102.229 218.299 102.638 214.732 104.58 211.808C105.922 209.744 106.606 207.274 108.374 205.496C110.054 203.644 112.021 201.426 114.788 201.677C116.224 200.427 117.719 199.197 119.462 198.4C121.272 197.618 123.288 197.974 125.188 197.674C128.28 197.492 131.375 196.255 134.456 197.087C136.758 197.698 139.256 197.443 141.453 198.46C143.801 199.382 146.187 200.224 148.559 201.09C150.928 201.925 153.558 200.968 155.288 199.295C158.592 195.288 162.533 191.882 166.226 188.245C169.583 185.426 171.19 181.153 174.145 177.974C178.425 173.31 180.863 167.392 183.361 161.667C186.701 155.878 188.231 149.342 190.557 143.134C191.958 138.868 192.479 134.369 193.953 130.124C194.729 126.813 196.154 123.539 196.032 120.084C195.469 116.678 194.725 113.129 192.619 110.296C190.865 108.29 190.847 105.513 189.555 103.277C188.8 101.527 187.085 100.406 186.477 98.5785C185.076 94.4877 181.785 91.4204 180.14 87.4484C178.928 84.9366 179.441 81.7052 181.275 79.6231C182.075 78.6659 182.55 77.4501 183.476 76.5977ZM196.178 152.273C193.813 155.843 191.843 159.637 190.114 163.553C188.493 167.399 184.779 170.149 184.039 174.39C180.982 180.427 177.286 186.208 172.598 191.127C168.853 194.858 166.135 199.557 161.95 202.848C160.905 203.934 160.405 205.415 159.791 206.771C162.065 207.822 164.451 208.605 166.743 209.621C168.07 210.264 169.048 211.462 170.397 212.074C173.279 213.164 176.234 214.079 179.295 214.519C182.302 215.249 185.191 216.64 188.384 216.332C192.996 215.951 197.618 216.748 202.229 216.413C206.634 215.717 210.547 213.241 213.841 210.33C216.835 207.777 217.824 203.822 219.714 200.517C221.761 197.153 221.261 193.055 222.348 189.391C223.434 185.957 222.079 182.439 221.363 179.071C220.647 174.82 218.362 171.078 216.971 167.043C215.972 163.854 214.236 160.821 211.658 158.655C212.248 155.997 210.362 153.744 209.583 151.347C208.451 147.644 206.065 144.367 205.555 140.468C205.419 139.197 204.531 138.17 204.018 137.052C199.986 141.289 198.271 146.966 196.178 152.273ZM122.365 203.724C119.466 204.598 116.088 205.227 114.061 207.71C111.853 209.681 109.258 211.372 107.927 214.124C106.781 216.329 105.233 218.638 105.674 221.248C105.841 222.558 105.806 224.067 106.819 225.052C108.147 226.397 109.516 227.71 110.833 229.076C112.884 228.947 115.033 228.748 116.971 229.583C118.585 230.271 120.301 229.307 121.932 229.23C125.251 228.79 128.238 227.176 131.309 225.939C134.617 224.58 137.492 222.435 140.44 220.454C143.214 218.861 145.24 216.206 146.442 213.282C146.407 211.927 146.096 210.61 145.932 209.272C145.74 208.252 145.838 206.631 144.58 206.191C140.615 203.892 135.944 203.179 131.445 202.83C128.423 203.127 125.37 203.277 122.365 203.724Z" fill="#FF5268"/>
<path d="M149.156 81.7296C150.634 80.2659 151.696 77.9777 154.17 78.1244C153.502 79.7978 152.391 81.3209 152.007 83.0886C152.72 84.5174 154.023 85.5934 154.599 87.1026C154.907 89.4991 152.51 91.5532 153.328 93.9777C154.033 96.2554 153.907 99.8117 157.149 99.8537C158.176 98.072 158.903 96.1192 160.133 94.4563C161.785 93.0834 164.318 93.0764 165.635 91.2423C167.12 89.3209 167.86 86.9384 169.279 84.9681C169.08 87.396 168.507 89.8938 169.499 92.2379C168.901 93.286 168.255 94.3095 167.759 95.41C168.217 97.796 169.474 99.955 169.981 102.341C167.127 101.223 164.063 100.259 161.013 101.248C157.509 102.152 155.046 105.08 152.811 107.749C150.26 105.733 149.237 101.401 145.342 101.541C142.204 101.143 139.518 98.6065 136.255 99.2109C134.634 99.7803 133.46 101.202 131.839 101.796C129.579 102.69 126.99 103.515 125.607 105.663C123.71 109.108 121.59 112.944 122.589 117.034C123.095 119.05 122.976 121.565 124.563 123.103C127.123 124.944 129.907 126.579 131.843 129.143C136.353 129.475 140.94 129.883 145.404 128.891C147.266 128.294 148.601 126.729 150.369 125.939C150.879 125.663 151.392 126.023 151.85 126.236C154.596 127.784 157.425 129.213 160.377 130.327C161.67 130.917 163.092 129.8 164.356 130.519C165.349 131.001 166.425 131.162 167.521 131.274C168.706 134.558 172.636 135.333 174.659 137.985C176.475 140.696 179.001 143.239 179.259 146.676C179.549 149.436 179.766 152.346 178.812 155.012C177.75 158.533 177.055 162.509 174.183 165.087C171.567 167.047 168.737 168.821 165.6 169.8C162.701 170.837 159.431 170.264 156.629 171.665C155.322 172.378 153.827 171.721 152.472 171.469C151.127 171.501 150.232 170.62 149.439 169.719C146.844 170.289 145.045 172.944 142.218 172.563C140.521 171.955 139.776 170.076 138.634 168.8C136.377 168.531 133.859 169.324 131.738 168.346C131.162 165.758 132.028 162.69 129.967 160.587C128.192 160.79 126.428 161.062 124.674 161.405C124.576 158.425 124.412 154.799 121.761 152.849C120.301 151.284 117.237 150.201 118.218 147.497C119.025 145.115 120.032 142.778 119.951 140.182C118.847 139.413 117.733 138.652 116.625 137.89C116.468 135.057 116.95 132.234 118.082 129.639C118.512 128.846 117.876 128.032 117.282 127.543C116.262 127.333 115.48 128.206 115.109 129.052C113.46 132.703 114.1 136.786 113.977 140.671C113.642 145.209 113.219 149.782 113.75 154.324C114.589 157.083 114.812 160.056 116.15 162.652C116.66 163.745 117.286 164.828 117.478 166.041C117.425 167.141 116.538 168.018 116.269 169.055C115.525 170.771 113.565 171.469 112.559 172.996C110.603 175.798 111.406 179.504 109.761 182.432C107.969 184.455 109.415 187.131 108.36 189.37C106.285 194.296 101.967 197.705 99.0009 202.044C97.6141 204.28 94.8926 205.303 93.8621 207.805C93.2018 208.94 93.5721 210.334 93.4673 211.564C93.5896 214.418 93.4499 217.272 93.2717 220.126C90.6306 222.261 87.6437 223.889 84.3354 224.696C84.1957 221.876 85.4499 219.295 85.9669 216.58C86.5747 213.251 88.4298 210.386 90.2324 207.599C91.2769 206.079 90.7878 204.021 91.7311 202.474C94.0298 200.717 96.6603 199.326 98.5957 197.115C101.67 193.59 104.273 189.691 106.97 185.88C106.659 185.335 106.348 184.79 106.03 184.255C101.736 187.854 99.6472 193.394 95.256 196.905C93.2193 198.502 90.994 199.847 88.9887 201.489C87.8009 202.722 88.4787 204.807 87.3119 206.072C85.3276 208.2 84.0106 210.837 82.9276 213.51C82.4036 214.683 82.6237 215.983 82.5992 217.22C81.7887 214.131 81.7049 210.903 80.835 207.829C80.1363 204.738 79.6892 200.919 82.0926 198.428C84.0769 195.931 85.6699 193.003 85.5337 189.698C85.5442 185.335 86.69 180.364 90.7494 177.992C90.4979 177.506 90.2464 177.017 89.9983 176.538C87.6857 177.6 85.5896 179.274 84.5136 181.639C82.166 185.478 84.1398 190.4 81.7398 194.226C80.4682 196.793 77.8656 198.718 77.7398 201.775C76.7547 206.456 79.4481 210.886 78.7459 215.564C78.3547 219.745 78.4734 223.945 78.3931 228.133C77.8516 227.707 77.3136 227.277 76.7721 226.858C74.9485 227.525 73.132 228.238 71.235 228.675C69.6734 228.993 68.1084 228.14 66.5538 228.42C65.1459 228.951 63.8359 229.73 62.3651 230.1C61.5756 229.08 60.7826 228.074 59.9896 227.061C58.2673 227.033 56.0595 228.905 54.5678 227.372C53.6839 226.711 53.0621 225.667 52.0071 225.265C50.6411 225.335 49.3311 225.827 47.9896 226.048C46.8752 224.455 45.6874 222.879 44.1468 221.677C41.6769 219.85 40.5206 216.923 38.7878 214.488C36.6149 211.756 36.8001 208.021 36.7651 204.744C37.366 202.163 38.3616 199.696 39.2804 197.216C39.8429 195.787 39.3119 194.121 40.0979 192.769C41.5512 190.523 43.1023 188.332 44.7057 186.187C46.6062 183.875 48.7931 181.803 50.4525 179.295C52.9014 177.667 55.8429 176.982 58.5328 175.843C60.6079 174.638 62.0263 172.413 64.304 171.543C67.1616 170.813 70.0542 171.944 72.9363 171.77C74.7285 171.172 76.1678 169.834 77.9459 169.185C80.1852 168.088 82.9101 168.063 84.7686 166.208C85.635 164.891 86.1241 163.372 86.9765 162.048C89.7014 159.141 94.2079 159.249 97.1599 156.765C99.3258 157.499 101.68 157.506 103.913 157.09C106.194 157.136 107.804 155.312 108.859 153.517C109.359 152.455 110.376 151.407 110.079 150.145C109.499 147.312 109.034 144.392 107.542 141.866C106.823 140.458 105.687 139.298 105.038 137.862C104.88 136.308 105.478 134.767 105.338 133.209C105.107 131.483 103.172 130.533 102.795 128.923C103.553 127.176 105.467 126.194 106.278 124.482C106.585 122.802 105.82 121.01 106.421 119.375C107.053 118.292 107.598 117.083 108.566 116.252C110.414 114.781 113.691 116.748 114.809 114.145C116.542 112.301 117.583 108.717 120.587 108.79C121.24 108.727 121.914 108.755 122.547 108.556C123.305 107.249 123.703 105.772 124.433 104.455C126.407 102.191 129.279 101.01 131.487 99.0187C132.811 97.3803 133.485 95.2702 134.931 93.7296C136.524 92.9192 138.575 93.0868 139.839 91.6231C141.352 90.2571 141.593 87.9305 143.266 86.7078C145.356 85.2056 147.427 83.6475 149.156 81.7296ZM163.28 140.919C160.143 141.195 158.068 143.819 155.902 145.775C152.084 149.387 152.402 155.672 155.41 159.689C157.642 161.698 160.528 163.497 163.668 163.117C166.798 162.474 170.222 161.656 172.273 158.973C174.183 156.5 176.314 153.321 174.802 150.1C173.988 148.213 173.446 146.069 171.85 144.661C169.565 142.526 166.673 140.056 163.28 140.919Z" fill="#8FB6B9"/>
<path d="M23.3676 100.961C26.2357 101.684 29.2226 101.611 32.1466 101.321C35.6994 100.964 39.2174 101.883 42.7667 101.918C44.6182 102.156 47.2593 101.625 48.4051 103.557C48.9396 106.704 48.5623 109.915 49.0165 113.073C48.3353 113.855 47.2243 114.533 47.661 115.808C48.1711 116.51 48.8732 117.041 49.53 117.6C49.282 123.008 49.516 128.402 49.6313 133.81C49.5021 135.654 49.8025 138.309 47.9789 139.49C46.2287 139.773 44.4261 139.382 42.6514 139.525C40.2689 139.801 37.7536 139.211 35.5178 140.329C35.42 139.246 35.3291 138.177 35.2174 137.104C37.4217 137.055 39.7519 137.604 41.9003 136.933C45.7501 135.172 48.2374 131.033 48.1711 126.826C48.1291 125.188 48.6008 123.092 47.0532 122.016C46.1833 121.286 45.1318 122.191 44.3632 122.617C41.6767 124.392 38.9309 126.397 35.6191 126.711C34.7667 126.655 34.1553 125.89 33.4392 125.509C31.4479 123.902 28.6287 124.091 26.585 122.575C25.027 121.621 23.4444 120.64 22.1134 119.378C21.2226 117.831 21.3449 115.895 20.4401 114.33C20.1326 113.3 19.1335 112.266 19.5842 111.134C20.3807 109.474 21.9038 108.276 22.7143 106.627C23.1125 104.769 23.1615 102.847 23.3676 100.961Z" fill="#00CCBC"/>
<path d="M10.6132 101.374C12.601 101.45 14.6132 101.36 16.5765 101.723C18.2045 101.992 19.5844 103.672 19.1337 105.374C17.8866 107.358 15.9442 108.867 14.9346 111.001C14.2883 113.23 16.311 114.841 16.8001 116.863C17.3032 119.599 18.4351 122.652 16.9713 125.286C14.5783 129.733 11.1757 133.622 9.28571 138.348C8.77566 137.974 8.25165 137.618 7.71715 137.279C8.66038 134.181 7.44466 131.029 7.57741 127.885C7.67523 125.527 6.60972 123.298 6.73898 120.93C6.53986 116.825 7.15121 112.738 7.01846 108.636C7.09881 107.239 6.79488 105.618 7.5844 104.357C8.53461 103.27 10.1905 102.956 10.6132 101.374Z" fill="#00CCBC"/>
<path d="M132.454 104.231C134.812 103.403 137.115 101.317 139.766 102.348C142.037 103.322 144.37 104.157 146.735 104.853C148.419 106.966 150.676 108.643 152.119 110.938C152.608 115.165 151.7 119.522 149.883 123.34C148.87 124.426 147.626 125.338 146.309 126.019C143.686 126.785 140.922 126.903 138.222 127.228C136.559 127.207 134.966 126.585 133.314 126.446C131.672 123.633 128.444 122.61 125.921 120.825C125.534 117.873 123.689 114.757 125.031 111.784C125.963 108.147 129.411 106.012 132.454 104.231ZM145.45 114.04C144.255 114.25 142.977 114.669 142.208 115.665C141.593 116.713 140.126 117.806 140.678 119.179C141.073 120.947 143.232 121.583 144.811 121.122C146.061 120.136 147.239 119.015 148.133 117.691C147.941 116.241 147.214 113.932 145.45 114.04Z" fill="white"/>
<path d="M163.357 103.721C164.895 103.123 166.505 103.497 167.843 104.318C169.96 105.639 172.818 105.747 174.369 107.903C175.85 110.027 177.684 112.409 177.251 115.176C176.797 117.013 176.123 118.799 175.291 120.5C174.302 122.54 171.812 123.008 170.509 124.755C169.723 125.716 168.874 126.83 167.539 126.973C165.363 127.158 163.054 128.185 160.877 127.399C158.795 126.771 156.895 125.656 154.781 125.125C153.726 124.937 153.24 123.717 153.31 122.75C153.527 119.309 154.365 115.934 154.526 112.486C154.68 111.305 154.495 110.013 155.015 108.898C156.943 106.131 159.899 103.948 163.357 103.721ZM162.673 115.833C160.985 115.962 160.378 117.806 159.941 119.144C161.387 119.896 162.889 121.22 164.661 120.318C166.233 119.899 165.932 117.813 166.201 116.657C165.136 116.032 163.986 115.337 162.673 115.833Z" fill="white"/>
<path d="M74.9103 107.375C76.919 106.652 78.6099 108.144 79.8989 109.443C80.9854 110.663 80.3706 112.448 80.5348 113.884C80.8631 115.871 82.1138 117.541 82.7845 119.41C83.2666 121.636 82.8824 123.931 83.1793 126.17C83.9339 128.186 84.8946 130.16 85.0238 132.353C85.4431 134.505 84.4928 136.56 83.8046 138.554C82.8963 140.661 83.4308 142.981 83.6998 145.157C82.6588 146.317 81.492 147.396 80.7024 148.755C79.8675 150.558 79.4169 152.657 77.9251 154.083C76.2343 155.644 74.3199 157.024 72.1155 157.765C70.9173 158.177 70.1627 159.264 69.0867 159.875C67.4658 160.476 65.6177 160.144 64.0177 160.815C62.016 161.905 60.5208 164.584 57.9112 163.857C55.2142 163.512 52.4928 163.229 49.7819 163.553C48.2099 164.231 47.0361 163.085 45.9496 162.219C44.2693 162.125 42.547 162.366 40.8841 162.062C39.595 161.066 39.1933 159.12 37.5828 158.45C35.1758 157.269 33.0483 155.522 31.6719 153.202C36.4789 153.768 39.7976 149.192 41.4815 145.255C41.6841 144.263 40.7688 143.512 40.3007 142.736C43.2876 142.76 46.2885 143.043 49.2579 142.568C50.5644 140.598 52.1784 138.61 52.3566 136.144C52.2029 129.415 51.4797 122.666 52.0492 115.938C55.3365 114.104 59.2352 114.055 62.5644 112.319C65.2125 111.641 67.9933 111.91 70.6658 111.466C72.4439 110.481 72.5278 107.386 74.9103 107.375Z" fill="#F8C881"/>
<path d="M21.0063 123.466C23.1164 123.965 25.0308 124.999 26.8089 126.215C28.8351 127.599 31.3854 127.777 33.5268 128.933C34.3443 129.171 35.1583 129.894 36.0806 129.73C39.6299 129.223 42.4247 126.774 45.5513 125.237C46.5993 128.413 45.4081 132.304 42.2744 133.817C40.1784 135.141 37.6002 134.365 35.3644 135.256C34.8474 134.809 34.3373 134.358 33.8168 133.918C33.1985 136.668 33.0797 139.508 33.0063 142.32C33.0203 143.693 33.6631 145.377 35.1234 145.744C35.7766 145.747 36.3496 145.289 36.9539 145.08C37.1251 146.124 38.1033 147.361 37.2579 148.339C36.4998 149.195 35.5426 149.957 34.4736 150.376C32.9714 150.4 31.4937 149.999 29.9845 150.065C28.5871 148.556 27.2806 146.893 26.6657 144.895C26.1557 142.854 26.3094 140.734 26.4945 138.669C25.9985 138.491 25.4989 138.32 25.0028 138.159C22.9941 142.442 24.5766 147.036 26.9417 150.767C25.153 151.291 23.3155 152.192 21.4116 151.903C20.2308 150.411 19.1618 148.72 18.7635 146.834C18.2779 144.696 18.9592 142.582 19.2386 140.475C18.3548 140.566 17.2928 140.668 16.8806 141.597C15.5461 144.619 16.4788 147.986 17.457 150.966C15.8954 149.988 13.9286 149.331 13.195 147.476C11.6718 145.303 12.0421 142.498 11.7871 140.004C12.2308 136.413 14.0579 132.545 17.5862 131.075C19.0675 128.727 19.6928 125.918 21.0063 123.466Z" fill="#F8EFD9"/>
<path d="M116.566 152.926C118.061 153.985 119.651 154.97 120.81 156.416C119.605 156.818 118.389 157.199 117.188 157.601C117.195 156.018 116.87 154.47 116.566 152.926Z" fill="white"/>
<path d="M118.396 159.962C119.357 159.497 120.335 159.067 121.341 158.701C121.272 161.104 120.699 163.459 119.979 165.743C119.574 163.784 119.064 161.848 118.396 159.962Z" fill="white"/>
<path d="M123.221 164.518C124.978 164.109 126.812 164.098 128.594 163.84C128.615 165.22 128.734 166.603 128.65 167.987C126.428 168.423 124.248 169.101 121.991 169.342C122.393 167.735 122.341 165.953 123.221 164.518Z" fill="white"/>
<path d="M7.47602 167.148C10.6271 165.028 14.9485 165.402 18.0053 167.501C18.7459 168.319 19.3852 169.377 19.5145 170.474C18.931 172.783 16.9118 174.6 17.0935 177.143C16.9153 178.299 17.7957 179.295 18.6376 179.969C20.7441 180.479 22.8961 180.752 25.0306 181.115C25.062 182.631 25.5965 184.196 25.3171 185.716C24.531 187.075 23.2385 188.098 22.5747 189.534C21.9145 190.928 23.1581 191.826 23.9127 192.717C23.8673 193.335 23.8184 193.95 23.7695 194.572C24.9992 195.298 26.414 195.809 27.4411 196.818C28.1538 198.45 28.0245 200.409 28.9852 201.943C30.5083 203.201 32.5031 203.679 34.1869 204.689C34.0717 206.132 33.9843 207.574 33.904 209.031C32.1188 208.633 30.138 208.94 28.5066 207.997C26.3232 205.374 24.5485 202.429 22.2533 199.896C21.1214 198.31 18.8821 198.813 17.4848 197.782C16.8524 196.022 17.4848 193.814 16.3389 192.221C14.8647 190.932 12.6708 191.284 10.8996 190.886C10.4699 190.39 9.60703 189.395 9.17733 188.898C9.45681 186.771 9.79567 184.612 9.66292 182.471C8.67078 179.913 5.37646 179.955 3.10921 179.173C2.48738 175.739 2.44545 172.123 3.57733 168.794C4.58694 167.704 6.3162 168.029 7.47602 167.148Z" fill="#8FB6B9"/>
<path d="M125.401 171.431C127.836 170.802 130.341 171.316 132.734 171.906C132.328 173.367 131.962 174.837 131.563 176.305C130.679 175.547 129.998 174.558 129.02 173.919C127.843 173.388 126.634 172.979 125.425 172.542C125.422 172.266 125.408 171.707 125.401 171.431Z" fill="white"/>
<path d="M134.826 171.889C135.444 171.882 136.681 171.868 137.303 171.861C137.68 172.476 138.438 173.709 138.816 174.324C137.631 175.456 136.451 176.598 135.221 177.684C134.267 175.861 134.316 173.838 134.826 171.889Z" fill="white"/>
<path d="M143.462 175.64C145.097 175.55 146.421 174.54 147.867 173.901C150.072 173.688 152.287 174.337 154.313 175.172C152.405 175.854 150.411 176.252 148.482 176.87C145.286 178.121 141.764 177.999 138.393 177.932C139.724 176.538 141.478 175.637 143.462 175.64Z" fill="white"/>
<path d="M188.342 174.397C192.989 174.596 198.072 173.496 202.25 176.109C203.979 176.818 204.58 178.865 206.019 179.833C209.785 179.683 212.72 183.33 212.737 186.904C212.521 189.16 211.389 191.169 210.211 193.052C209.474 190.184 209.114 186.663 206.428 184.853C205.16 184.109 203.804 184.678 202.844 185.618C204.066 186.572 205.803 187.169 206.376 188.741C206.931 190.642 207.532 192.759 206.994 194.736C206.568 196.703 203.735 195.414 202.613 196.636C202.225 197.419 202.079 198.289 201.876 199.131C200.933 199.344 199.993 199.543 199.06 199.759C201.156 196.629 202.162 192.794 201.886 189.035C201.754 187.728 200.381 187.288 199.34 186.914C198.777 189.08 199.511 191.277 199.368 193.464C198.774 195.246 198.316 197.614 196.311 198.345C193.977 199.047 191.787 200.336 189.348 200.647C187.818 200.497 186.222 200.168 184.901 199.361C183.567 198.065 183.193 196.06 183.095 194.282C184.024 191.323 187.263 190.292 189.097 188.046C190.379 186.558 192.052 184.472 191.099 182.376C190.299 180.014 187.507 179.644 185.443 179.012C186.407 177.471 187.378 175.934 188.342 174.397Z" fill="#8FB6B9"/>
<path d="M32.1536 175.794C37.3554 175.026 43.0078 173.985 47.9719 176.304C46.0645 177.59 44.5239 179.291 42.896 180.888C38.4104 179.162 33.7117 178.054 29.0444 176.916C29.9702 176.294 30.9623 175.686 32.1536 175.794Z" fill="#300045"/>
<path d="M89.9178 229.667C91.4304 229.366 92.992 228.657 94.5536 228.954C97.0339 230.257 99.5248 232.472 99.7414 235.469C94.8785 235.756 89.509 236.706 85.2715 233.667C86.5431 232.074 87.8217 230.184 89.9178 229.667Z" fill="#8FB6B9"/>
</svg>
