<svg width="56" height="59" viewBox="0 0 56 59" fill="none" xmlns="http://www.w3.org/2000/svg">
<rect x="3" y="2" width="50" height="54" fill="#00CCBB"/>
<path d="M44.0763 15.8856C44.0763 15.3333 43.6286 14.8856 43.0763 14.8856H12.943C12.3908 14.8856 11.943 15.3333 11.943 15.8856V20.2285C11.943 20.7808 12.3908 21.2285 12.943 21.2285H43.0763C43.6286 21.2285 44.0763 20.7808 44.0763 20.2285V15.8856Z" fill="white" stroke="#00CCBB" stroke-width="2" stroke-linejoin="round"/>
<path d="M44.0763 25.9072C44.0763 25.3549 43.6286 24.9072 43.0763 24.9072H12.943C12.3908 24.9072 11.943 25.3549 11.943 25.9072V30.2501C11.943 30.8024 12.3908 31.2501 12.943 31.2501H43.0763C43.6286 31.2501 44.0763 30.8024 44.0763 30.2501V25.9072Z" fill="white" stroke="#00CCBB" stroke-width="2" stroke-linejoin="round"/>
<path d="M33.1509 35.9292C33.1509 35.3769 32.7031 34.9292 32.1509 34.9292H12.943C12.3908 34.9292 11.943 35.3769 11.943 35.9292V40.2721C11.943 40.8244 12.3908 41.2721 12.943 41.2721H32.1509C32.7031 41.2721 33.1509 40.8244 33.1509 40.2721V35.9292Z" fill="white" stroke="#00CCBB" stroke-width="2" stroke-linejoin="round"/>
<path d="M2.66212 1.93848C2.10984 1.93848 1.66212 2.38619 1.66212 2.93848V56.4308C1.66212 56.9831 2.10984 57.4308 2.66212 57.4308H37.2392C37.5234 57.4308 37.7942 57.3098 37.9839 57.0981L38.3331 56.7084L50.4215 45.302L50.4218 45.3018L54.0435 41.8818C54.2436 41.6929 54.3569 41.4299 54.3569 41.1548V2.93848C54.3569 2.38619 53.9092 1.93848 53.3569 1.93848H2.66212ZM48.7352 40.1548H40.5802C38.1951 40.1548 36.239 42.1107 36.239 44.4958V51.4233H7.28372V7.95479H48.7352V40.1548Z" fill="white" stroke="#00CCBB" stroke-width="2" stroke-linejoin="round"/>
</svg>
