<svg width="88" height="15" viewBox="0 0 88 15" fill="none" xmlns="http://www.w3.org/2000/svg">
<path d="M0.0440063 14.0003V3.59627C0.0440063 3.08027 0.128006 2.63627 0.296006 2.26427C0.464006 1.88027 0.686006 1.58627 0.962006 1.38227C1.25001 1.17827 1.55001 1.03427 1.86201 0.950266C2.18601 0.854266 2.53401 0.812266 2.90601 0.824266C6.00201 0.908266 7.93401 1.00427 8.70201 1.11227V3.20027H3.50001C3.27201 3.20027 3.09201 3.22427 2.96001 3.27227C2.82801 3.32027 2.73201 3.40427 2.67201 3.52427C2.62401 3.64427 2.59401 3.74627 2.58201 3.83027C2.57001 3.91427 2.56401 4.04027 2.56401 4.20827V6.26027L7.89201 6.44027V8.52827L2.56401 8.69027V14.0003H0.0440063Z" fill="#300045"/>
<path d="M12.2569 11.4083V3.56027C12.2569 3.11627 12.3169 2.72627 12.4369 2.39027C12.5569 2.05427 12.7129 1.79027 12.9049 1.59827C13.0969 1.40627 13.3189 1.25027 13.5709 1.13027C13.8349 0.998266 14.0869 0.914266 14.3269 0.878266C14.5789 0.842266 14.8429 0.824266 15.1189 0.824266C18.2149 0.908266 20.1469 1.00427 20.9149 1.11227V3.20027H15.7129C15.4849 3.20027 15.3049 3.22427 15.1729 3.27227C15.0409 3.32027 14.9449 3.40427 14.8849 3.52427C14.8369 3.64427 14.8069 3.74627 14.7949 3.83027C14.7829 3.91427 14.7769 4.04027 14.7769 4.20827V6.26027L20.1049 6.44027V8.52827L14.7769 8.69027V10.7423C14.7769 10.9703 14.8069 11.1563 14.8669 11.3003C14.9269 11.4323 15.0229 11.5283 15.1549 11.5883C15.2869 11.6363 15.3949 11.6663 15.4789 11.6783C15.5749 11.6783 15.7129 11.6783 15.8929 11.6783H20.9149V13.7483C20.6149 13.7843 19.9969 13.8323 19.0609 13.8923C18.1249 13.9403 17.2609 13.9763 16.4689 14.0003L15.2989 14.0543C15.0229 14.0663 14.7649 14.0603 14.5249 14.0363C14.2849 14.0123 14.0209 13.9463 13.7329 13.8383C13.4449 13.7303 13.1929 13.5863 12.9769 13.4063C12.7729 13.2263 12.5989 12.9683 12.4549 12.6323C12.3229 12.2843 12.2569 11.8763 12.2569 11.4083Z" fill="#300045"/>
<path d="M24.0378 14.0003L28.4838 0.824266H31.3458L35.6298 14.0003H32.9478L32.0118 11.0843H27.6918L26.7378 14.0003H24.0378ZM28.3578 8.85227H31.4178L29.9418 4.13627L28.3578 8.85227Z" fill="#300045"/>
<path d="M38.4467 3.14627V0.824266H48.1847V3.14627H44.5307V14.0003H42.0107V3.14627H38.4467Z" fill="#300045"/>
<path d="M51.6386 8.24027V0.824266H54.1586V8.24027C54.1586 8.99627 54.2006 9.60227 54.2846 10.0583C54.3686 10.5143 54.5186 10.8743 54.7346 11.1383C54.9506 11.3903 55.2086 11.5583 55.5086 11.6423C55.8086 11.7263 56.2106 11.7683 56.7146 11.7683C57.1586 11.7683 57.5246 11.7203 57.8126 11.6243C58.1006 11.5283 58.3466 11.3543 58.5506 11.1023C58.7666 10.8383 58.9226 10.4783 59.0186 10.0223C59.1146 9.55427 59.1626 8.96027 59.1626 8.24027V0.824266H61.7006V8.24027C61.7006 8.87627 61.6646 9.45827 61.5926 9.98627C61.5206 10.5023 61.4306 10.9523 61.3226 11.3363C61.2146 11.7083 61.0646 12.0443 60.8726 12.3443C60.6926 12.6443 60.5126 12.8903 60.3326 13.0823C60.1646 13.2623 59.9426 13.4243 59.6666 13.5683C59.4026 13.7003 59.1746 13.8023 58.9826 13.8743C58.7906 13.9343 58.5326 13.9823 58.2086 14.0183C57.8966 14.0543 57.6446 14.0723 57.4526 14.0723C57.2726 14.0843 57.0266 14.0903 56.7146 14.0903C56.6786 14.0903 56.6186 14.0903 56.5346 14.0903C56.0786 14.0903 55.7306 14.0843 55.4906 14.0723C55.2626 14.0603 54.9446 14.0183 54.5366 13.9463C54.1286 13.8743 53.8106 13.7723 53.5826 13.6403C53.3666 13.4963 53.1146 13.2863 52.8266 13.0103C52.5386 12.7223 52.3226 12.3743 52.1786 11.9663C52.0346 11.5583 51.9086 11.0423 51.8006 10.4183C51.6926 9.78227 51.6386 9.05627 51.6386 8.24027Z" fill="#300045"/>
<path d="M65.4297 14.0003V0.824266H71.1897C71.7297 0.824266 72.2097 0.896266 72.6297 1.04027C73.0497 1.17227 73.4217 1.39427 73.7457 1.70627C74.0817 2.00627 74.3397 2.43227 74.5197 2.98427C74.6997 3.52427 74.7897 4.17227 74.7897 4.92827C74.7897 5.55227 74.7357 6.09827 74.6277 6.56627C74.5197 7.03427 74.3997 7.39427 74.2677 7.64627C74.1357 7.88627 73.9557 8.10227 73.7277 8.29427C73.4997 8.47427 73.3257 8.58827 73.2057 8.63627C73.0857 8.68427 72.9117 8.74427 72.6837 8.81627L75.1857 14.0003H72.3417L70.1637 9.01427L67.9497 8.76227V14.0003H65.4297ZM67.9677 6.78227H70.9557C71.1957 6.78227 71.3877 6.76427 71.5317 6.72827C71.6757 6.68027 71.8017 6.59027 71.9097 6.45827C72.0297 6.32627 72.1137 6.14027 72.1617 5.90027C72.2217 5.64827 72.2517 5.32427 72.2517 4.92827C72.2517 4.22027 72.1437 3.73427 71.9277 3.47027C71.7117 3.19427 71.3877 3.05627 70.9557 3.05627H67.9677V6.78227Z" fill="#300045"/>
<path d="M78.4893 11.4083V3.56027C78.4893 3.11627 78.5493 2.72627 78.6693 2.39027C78.7893 2.05427 78.9453 1.79027 79.1373 1.59827C79.3293 1.40627 79.5513 1.25027 79.8033 1.13027C80.0673 0.998266 80.3193 0.914266 80.5593 0.878266C80.8113 0.842266 81.0753 0.824266 81.3513 0.824266C84.4473 0.908266 86.3793 1.00427 87.1473 1.11227V3.20027H81.9453C81.7173 3.20027 81.5373 3.22427 81.4053 3.27227C81.2733 3.32027 81.1773 3.40427 81.1173 3.52427C81.0693 3.64427 81.0393 3.74627 81.0273 3.83027C81.0153 3.91427 81.0093 4.04027 81.0093 4.20827V6.26027L86.3373 6.44027V8.52827L81.0093 8.69027V10.7423C81.0093 10.9703 81.0393 11.1563 81.0993 11.3003C81.1593 11.4323 81.2553 11.5283 81.3873 11.5883C81.5193 11.6363 81.6273 11.6663 81.7113 11.6783C81.8073 11.6783 81.9453 11.6783 82.1253 11.6783H87.1473V13.7483C86.8473 13.7843 86.2293 13.8323 85.2933 13.8923C84.3573 13.9403 83.4933 13.9763 82.7013 14.0003L81.5313 14.0543C81.2553 14.0663 80.9973 14.0603 80.7573 14.0363C80.5173 14.0123 80.2533 13.9463 79.9653 13.8383C79.6773 13.7303 79.4253 13.5863 79.2093 13.4063C79.0053 13.2263 78.8313 12.9683 78.6873 12.6323C78.5553 12.2843 78.4893 11.8763 78.4893 11.4083Z" fill="#300045"/>
</svg>
