<svg width="333" height="316" viewBox="0 0 333 316" fill="none" xmlns="http://www.w3.org/2000/svg">
<g opacity="0.7">
<path opacity="0.2" d="M265.273 131.118L341.199 243.683L257.606 350.678L130.016 304.239L134.754 168.544L265.273 131.118Z" fill="#FF5268"/>
<path d="M259.296 118.301L335.223 230.867L251.629 337.861L124.039 291.422L128.778 155.727L259.296 118.301Z" stroke="#FF5268" stroke-width="4" stroke-linecap="round" stroke-dasharray="3 12"/>
<path d="M233.216 263.929L305.575 285.646L307.281 361.174L235.977 386.136L190.203 326.035L233.216 263.929Z" stroke="#FF5268" stroke-width="2"/>
<path d="M40.6802 217.513C43.7849 215.805 45.9775 216.603 47.2581 219.907C48.5386 223.211 50.7312 224.009 53.8359 222.301C56.9406 220.594 59.1332 221.392 60.4138 224.696C61.6943 227.999 63.8869 228.798 66.9916 227.09C70.0963 225.382 72.2889 226.18 73.5695 229.484C74.85 232.788 77.0426 233.586 80.1473 231.878C83.252 230.17 85.4446 230.968 86.7252 234.272C88.0057 237.576 90.1983 238.374 93.303 236.666C96.4077 234.959 98.6003 235.757 99.8809 239.06C101.161 242.364 103.354 243.162 106.459 241.455" stroke="#FF5268" stroke-width="2"/>
<path d="M35.8921 230.669C38.9968 228.961 41.1894 229.759 42.47 233.063C43.7505 236.367 45.9432 237.165 49.0478 235.457C52.1525 233.749 54.3451 234.547 55.6257 237.851C56.9062 241.155 59.0989 241.953 62.2035 240.245C65.3082 238.538 67.5008 239.336 68.7814 242.64C70.0619 245.944 72.2546 246.742 75.3592 245.034C78.4639 243.326 80.6565 244.124 81.9371 247.428C83.2176 250.732 85.4102 251.53 88.5149 249.822C91.6196 248.114 93.8122 248.912 95.0928 252.216C96.3733 255.52 98.5659 256.318 101.671 254.61" stroke="#FF5268" stroke-width="2"/>
<path d="M31.104 243.825C34.2087 242.117 36.4013 242.915 37.6819 246.219C38.9625 249.523 41.1551 250.321 44.2597 248.613C47.3644 246.905 49.557 247.703 50.8376 251.007C52.1182 254.311 54.3108 255.109 57.4154 253.401C60.5201 251.693 62.7127 252.492 63.9933 255.795C65.2738 259.099 67.4665 259.897 70.5711 258.19C73.6758 256.482 75.8684 257.28 77.149 260.584C78.4295 263.888 80.6222 264.686 83.7268 262.978C86.8315 261.27 89.0241 262.068 90.3047 265.372C91.5852 268.676 93.7779 269.474 96.8825 267.766" stroke="#FF5268" stroke-width="2"/>
<path d="M26.315 256.98C29.4197 255.273 31.6123 256.071 32.8928 259.375C34.1734 262.678 36.366 263.477 39.4707 261.769C42.5753 260.061 44.768 260.859 46.0485 264.163C47.3291 267.467 49.5217 268.265 52.6264 266.557C55.731 264.849 57.9237 265.647 59.2042 268.951C60.4848 272.255 62.6774 273.053 65.7821 271.345C68.8867 269.638 71.0794 270.436 72.3599 273.739C73.6405 277.043 75.8331 277.841 78.9378 276.134C82.0424 274.426 84.2351 275.224 85.5156 278.528C86.7962 281.832 88.9888 282.63 92.0935 280.922" stroke="#FF5268" stroke-width="2"/>
<path d="M21.5269 270.136C24.6316 268.428 26.8242 269.226 28.1047 272.53C29.3853 275.834 31.5779 276.632 34.6826 274.924C37.7873 273.216 39.9799 274.014 41.2604 277.318C42.541 280.622 44.7336 281.42 47.8383 279.712C50.943 278.004 53.1356 278.803 54.4161 282.106C55.6967 285.41 57.8893 286.208 60.994 284.501C64.0987 282.793 66.2913 283.591 67.5718 286.895C68.8524 290.199 71.045 290.997 74.1497 289.289C77.2544 287.581 79.447 288.379 80.7275 291.683C82.0081 294.987 84.2007 295.785 87.3054 294.077" stroke="#FF5268" stroke-width="2"/>
<circle cx="293.974" cy="83.2934" r="1.81395" transform="rotate(0.775599 293.974 83.2934)" fill="#FF5268"/>
<circle cx="303.648" cy="83.4243" r="1.81395" transform="rotate(0.775599 303.648 83.4243)" fill="#FF5268"/>
<circle cx="313.32" cy="83.5551" r="1.81395" transform="rotate(0.775599 313.32 83.5551)" fill="#FF5268"/>
<circle cx="322.994" cy="83.6865" r="1.81395" transform="rotate(0.775599 322.994 83.6865)" fill="#FF5268"/>
<circle cx="332.668" cy="83.8173" r="1.81395" transform="rotate(0.775599 332.668 83.8173)" fill="#FF5268"/>
<circle cx="293.843" cy="92.9668" r="1.81395" transform="rotate(0.775599 293.843 92.9668)" fill="#FF5268"/>
<circle cx="303.517" cy="93.0976" r="1.81395" transform="rotate(0.775599 303.517 93.0976)" fill="#FF5268"/>
<circle cx="313.19" cy="93.2285" r="1.81395" transform="rotate(0.775599 313.19 93.2285)" fill="#FF5268"/>
<circle cx="322.863" cy="93.3598" r="1.81395" transform="rotate(0.775599 322.863 93.3598)" fill="#FF5268"/>
<circle cx="332.537" cy="93.4907" r="1.81395" transform="rotate(0.775599 332.537 93.4907)" fill="#FF5268"/>
<circle cx="293.712" cy="102.641" r="1.81395" transform="rotate(0.775599 293.712 102.641)" fill="#FF5268"/>
<circle cx="303.386" cy="102.771" r="1.81395" transform="rotate(0.775599 303.386 102.771)" fill="#FF5268"/>
<circle cx="313.059" cy="102.902" r="1.81395" transform="rotate(0.775599 313.059 102.902)" fill="#FF5268"/>
<circle cx="322.733" cy="103.034" r="1.81395" transform="rotate(0.775599 322.733 103.034)" fill="#FF5268"/>
<circle cx="332.406" cy="103.165" r="1.81395" transform="rotate(0.775599 332.406 103.165)" fill="#FF5268"/>
<circle cx="293.581" cy="112.314" r="1.81395" transform="rotate(0.775599 293.581 112.314)" fill="#FF5268"/>
<circle cx="303.255" cy="112.445" r="1.81395" transform="rotate(0.775599 303.255 112.445)" fill="#FF5268"/>
<circle cx="312.928" cy="112.576" r="1.81395" transform="rotate(0.775599 312.928 112.576)" fill="#FF5268"/>
<circle cx="322.602" cy="112.707" r="1.81395" transform="rotate(0.775599 322.602 112.707)" fill="#FF5268"/>
<circle cx="332.276" cy="112.838" r="1.81395" transform="rotate(0.775599 332.276 112.838)" fill="#FF5268"/>
<circle cx="293.45" cy="121.988" r="1.81395" transform="rotate(0.775599 293.45 121.988)" fill="#FF5268"/>
<circle cx="303.124" cy="122.119" r="1.81395" transform="rotate(0.775599 303.124 122.119)" fill="#FF5268"/>
<circle cx="312.797" cy="122.249" r="1.81395" transform="rotate(0.775599 312.797 122.249)" fill="#FF5268"/>
<circle cx="322.471" cy="122.381" r="1.81395" transform="rotate(0.775599 322.471 122.381)" fill="#FF5268"/>
<circle cx="332.145" cy="122.512" r="1.81395" transform="rotate(0.775599 332.145 122.512)" fill="#FF5268"/>
<circle cx="293.32" cy="131.661" r="1.81395" transform="rotate(0.775599 293.32 131.661)" fill="#FF5268"/>
<circle cx="302.993" cy="131.792" r="1.81395" transform="rotate(0.775599 302.993 131.792)" fill="#FF5268"/>
<circle cx="312.666" cy="131.923" r="1.81395" transform="rotate(0.775599 312.666 131.923)" fill="#FF5268"/>
<circle cx="322.34" cy="132.054" r="1.81395" transform="rotate(0.775599 322.34 132.054)" fill="#FF5268"/>
<circle cx="332.014" cy="132.185" r="1.81395" transform="rotate(0.775599 332.014 132.185)" fill="#FF5268"/>
</g>
</svg>
