<svg width="375" height="75" viewBox="0 0 375 75" fill="none" xmlns="http://www.w3.org/2000/svg">
<path d="M0.0729605 28.3403C0.0729605 29.9549 -0.522635 32.9716 1.68958 33.2691C3.22111 33.4815 4.7101 33.6939 6.24163 33.6939C6.53943 33.6939 6.87977 33.6515 7.13503 33.4815C8.32622 32.6742 8.02842 24.0064 8.79419 23.1141C9.55996 22.2219 18.7066 24.1764 22.11 18.4828C22.6631 17.548 23.2587 16.7408 23.5139 15.6785C23.8117 14.4888 24.2371 13.1292 24.2371 11.897C24.2371 11.0897 23.9393 10.2399 23.7266 9.4751C21.9398 3.22918 17.8132 1.35966 11.602 1.35966C9.68758 1.35966 7.77317 1.82704 5.85875 1.82704C4.45485 1.82704 3.09348 1.61459 1.73212 1.61459C1.47687 1.61459 1.09398 1.65708 0.88127 1.82704C0.285673 2.33691 0.0729605 6.50085 0.0729605 7.4781C0.0729605 8.6678 0.243131 9.89999 0.370758 11.0897C0.668556 14.1064 0.626014 17.4631 0.626014 20.4373C0.626014 23.0716 0.0729605 25.706 0.0729605 28.3403ZM11.0064 16.9107C7.43283 16.9107 7.81571 16.5283 7.81571 13.2566C7.81571 12.0244 8.15605 9.13518 8.62402 8.07295C8.92182 7.81802 9.55995 7.81802 9.94284 7.81802C10.9639 7.81802 14.9203 8.03046 15.601 8.45536C16.1966 8.83776 16.7922 11.1747 16.7922 11.897C16.7922 12.4493 16.4093 13.2991 16.1966 13.809C15.9839 14.3614 15.7286 15.2111 15.3032 15.5935C14.4949 16.3159 12.1125 16.9107 11.0064 16.9107Z" fill="#F7F5F8"/>
<path d="M39.8725 33.9489L40.2554 33.7789C41.1063 33.7789 43.4036 33.6515 44.1693 33.3965C45.0627 33.0991 48.3811 31.4845 48.3811 30.5497C48.3811 29.7 47.0197 26.8957 46.0838 26.8957C44.5097 26.8957 42.9781 28.0004 41.3615 28.0004C40.6808 28.0004 37.5327 27.533 37.1073 27.1506C36.6393 26.6832 36.384 26.0034 36.1713 25.4086C36.0437 25.1111 35.7034 24.4313 35.7034 24.1339C35.7034 24.0064 35.7034 23.9214 35.7459 23.794C36.5542 23.2416 38.8515 23.2416 39.83 23.2416C42.1698 23.2416 44.5097 23.3691 46.8495 23.3691C47.2324 23.3691 48.5087 23.3691 48.8065 23.1566C49.2744 22.8167 49.5297 20.4798 49.5297 19.885C49.5297 18.8652 48.9767 14.7013 48.5938 13.894C48.2109 13.0442 47.4877 12.3644 46.8921 11.6845C46.339 11.0472 45.7009 10.2399 44.8926 9.8575C43.9141 9.39012 40.6383 8.88025 39.5322 8.88025C32.8956 8.88025 29.3645 11.9395 28.2584 18.4403C28.1308 19.2901 27.9181 20.1399 27.9181 21.0322C27.9181 23.3691 29.4496 28.4678 31.0237 30.2098C32.6828 32.0369 37.32 33.9489 39.7449 33.9489H39.8725ZM35.7034 17.9304C35.7034 16.9107 37.0647 14.3189 38.2985 14.3189C39.0642 14.3189 43.7439 14.9137 43.7439 15.806C43.7439 18.0579 42.9781 18.6103 40.851 18.6103C40.0427 18.6103 36.384 18.7377 35.8735 18.3129L35.7034 17.9304Z" fill="#F7F5F8"/>
<path d="M62.0246 27.7879C62.1948 26.0459 62.3649 24.3038 62.45 22.5618C62.6202 19.1626 61.3439 17.8455 64.1943 16.2734C64.5771 16.0609 65.2153 15.636 65.6833 15.636C66.7043 15.636 69.2568 19.2051 69.2568 20.3098C69.2568 21.5845 69.0016 22.9017 69.0016 24.2189C69.0016 25.6635 69.0867 27.1081 69.0867 28.5527C69.0867 29.615 68.8739 30.6347 68.8739 31.697C68.8739 32.9291 69.1717 33.1416 70.4055 33.1416C76.2338 33.1416 76.7869 34.0339 76.7869 27.9154C76.7869 26.2583 76.6167 24.6013 76.6167 22.9442C76.6167 18.2704 77.2548 12.7893 72.8729 9.73003C72.3624 9.34763 71.5967 9.22016 71.0011 9.00771C70.3629 8.79527 69.6823 8.58282 69.0016 8.58282C66.917 8.58282 64.7473 9.43261 63.0882 10.6223C62.7904 10.8348 61.429 11.727 61.3014 11.9395L61.1312 11.8545C60.7058 10.4099 61.0036 9.09269 59.1317 9.09269C58.1107 9.09269 54.2818 8.83776 54.2818 10.2824C54.2818 11.5146 54.7924 12.8317 54.7924 14.0639C54.8349 17.1656 54.8349 20.2249 54.8349 23.3266C54.8349 26.1309 54.2818 28.9352 54.2818 31.697C54.2818 32.1218 54.2393 32.6317 54.6222 32.9291C55.2603 33.439 59.1317 33.6939 60.0251 33.6939C61.7693 33.6939 61.5992 32.1643 61.7268 30.8472L62.0246 27.7879Z" fill="#F7F5F8"/>
<path d="M91.9407 33.7789C93.0468 33.7789 96.8756 33.9064 96.8756 32.4618C96.8756 27.8729 96.1949 27.3206 92.6213 24.8987C92.3235 24.7287 92.0257 24.4738 91.8556 24.1764C91.6854 23.8789 90.9622 17.0382 90.9622 16.3159C90.9622 14.0639 96.9607 16.7408 96.9607 13.8515C96.9607 12.6618 97.2585 8.92274 95.5142 8.92274L93.8125 8.92274C93.1744 8.92274 91.8981 9.09269 91.4301 8.62531C90.5793 7.77553 91.1749 4.03648 90.324 3.10171C89.8135 2.54935 87.3461 2.54935 86.5803 2.54935C83.0067 2.54935 85.3891 6.54334 83.9852 8.2854C83.0918 9.39012 80.1989 8.03046 80.1989 10.3674C80.1989 11.0897 80.0287 15.1262 81.0072 15.1262C81.8155 15.1262 82.5387 14.8712 83.262 15.2536C83.3471 15.4661 83.3471 15.6785 83.3471 15.891C83.3471 17.1232 83.0493 18.3553 83.0493 19.5875C83.0493 21.9669 83.5172 26.8957 84.4532 29.0626C84.751 29.7849 86.5803 31.7819 87.261 32.2493C87.8566 32.6742 88.7074 32.8017 89.3881 33.0141L91.9407 33.7789Z" fill="#F7F5F8"/>
<path d="M107.227 33.9914C108.546 33.7364 110.545 33.5665 111.694 32.8017C112.374 32.3768 113.651 31.2721 114.374 31.1021C114.969 31.3146 114.927 32.7592 115.693 33.1416C116.373 33.439 119.181 33.609 119.99 33.609C120.245 33.609 120.5 33.5665 120.713 33.439C121.308 33.0566 121.606 29.2751 121.606 28.4253C121.606 26.7682 121.351 25.1536 121.351 23.4965C121.351 22.1369 121.521 20.7347 121.351 19.3751C120.585 13.639 118.16 8.24291 111.524 8.24291C108.588 8.24291 106.206 8.96522 103.738 10.4523C103.1 10.8348 101.739 11.4721 101.739 12.3219C101.739 13.1292 103.483 16.1034 104.376 16.1034C105.993 16.1034 107.61 14.7438 109.396 14.7438C110.077 14.7438 113.013 16.8257 113.013 17.3781C113.013 17.9304 108.46 18.6103 107.737 18.7377C106.206 19.0352 102.972 20.7347 102.037 21.9244C101.569 22.4768 101.228 23.3691 100.93 24.0489C100.59 24.7712 100.207 25.536 100.207 26.3433C100.207 27.2356 100.633 28.0854 100.93 28.8927C101.271 29.7 101.569 30.6772 102.122 31.357C102.632 31.9944 106.376 33.7789 107.227 33.9914ZM113.778 24.3463C113.778 26.1734 113.566 26.3433 112.077 27.2781C111.736 27.4905 110.8 28.0004 110.46 28.0854C109.949 27.9579 108.163 26.5558 107.95 26.1309C107.865 23.624 111.183 22.3918 113.268 22.3918C113.353 22.3918 113.48 22.4343 113.566 22.4768C113.693 22.6468 113.778 22.8167 113.778 23.0292V24.3463Z" fill="#F7F5F8"/>
<path d="M145.789 14.8287C146.725 14.4038 149.065 14.9562 149.065 13.5965C149.065 12.7893 148.937 9.89999 148.469 9.39012C148.087 8.96522 147.278 9.0502 146.725 9.0502C144.641 9.0502 142.471 9.09269 140.386 8.92274C139.068 8.79527 137.834 8.37038 136.515 8.37038C133.282 8.37038 129.538 9.60256 127.666 12.4069C127.198 13.0867 127.028 14.0639 126.773 14.8712C126.56 15.5086 126.305 16.1884 126.305 16.8682C126.305 18.9077 130.091 22.9442 130.091 23.709H129.963L129.751 23.7515C129.198 24.3038 127.666 27.1081 127.666 27.8729C127.666 29.1901 129.198 31.3995 129.198 32.3343C129.198 32.9716 126.432 36.6682 126.432 37.9429C126.432 41.7669 132.133 43.4665 135.281 43.4665C136.94 43.4665 139.535 43.509 141.152 43.0841C143.152 42.5317 147.831 39.9823 148.852 38.1978C149.193 37.5605 149.703 35.7759 149.703 35.0536C149.703 34.3313 148.81 33.1841 148.384 32.5892C147.959 31.9519 147.236 31.0171 146.64 30.5922C143.875 28.6377 136.77 29.1901 133.324 26.8532C136.047 24.8562 139.578 25.8334 143.194 23.1991C145.023 21.8819 145.109 21.712 145.577 19.5026C145.747 18.8227 146.002 18.0154 146.002 17.2931C146.002 16.5283 145.832 15.9335 145.662 15.2111L145.789 14.8287ZM136.472 21.1596C136.387 21.1171 136.345 21.0322 136.302 20.9472C134.473 19.885 132.941 19.1626 132.941 16.6983C132.941 15.9335 135.707 13.4266 136.515 13.4266C138.047 13.4266 139.706 15.2961 139.706 16.7832C139.706 18.1854 136.898 20.0549 136.472 21.1596ZM136.387 39.1326C135.792 39.1326 135.069 39.1751 134.515 38.8351C134.09 38.5802 132.091 36.2433 132.091 35.8609C132.091 34.6712 138.259 33.524 139.365 33.524C140.131 33.524 142.173 35.0536 142.173 35.7759C142.173 36.4557 137.238 39.1326 136.387 39.1326Z" fill="#F7F5F8"/>
<path d="M152.18 20.8197C152.18 21.8395 152.435 22.7742 152.648 23.794C152.818 24.7712 152.945 25.7485 153.286 26.6832C153.541 27.3631 154.051 28.0004 154.477 28.5952C156.817 32.0794 159.922 33.7364 164.177 33.7364C165.07 33.7364 167.197 33.524 168.005 33.2266C170.175 32.3768 174.259 28.6377 175.11 26.4708C175.365 25.8334 176.089 22.3918 176.089 21.7545C176.089 20.4373 174.812 17.2931 174.429 16.3159C174.302 16.0184 172.898 12.6618 172.345 12.1094C170.048 9.77252 167.24 8.54033 163.964 8.54033C163.156 8.54033 162.39 8.75278 161.624 8.88025C156.349 9.77252 153.839 13.1292 152.69 18.1429C152.477 18.9927 152.18 19.9274 152.18 20.8197ZM168.176 21.542C168.176 23.8364 167.75 25.4935 165.708 26.6407C165.325 26.8532 164.389 27.448 163.964 27.448C163.368 27.448 162.9 26.9807 162.432 26.6832C161.922 26.3433 161.326 26.0884 160.986 25.536C160.646 24.9837 159.539 21.5845 159.539 20.9897C159.539 20.1824 160.178 17.1232 160.603 16.4858C160.943 15.9335 161.539 15.7635 162.092 15.5086C162.56 15.2536 163.113 14.9562 163.666 14.9562C164.177 14.9562 165.027 15.3811 165.495 15.5935C166.091 15.8485 166.772 16.1459 167.155 16.6983C167.623 17.3781 168.176 20.6498 168.176 21.542Z" fill="#F7F5F8"/>
<path d="M188.074 27.7879C188.244 26.0459 188.414 24.3038 188.499 22.5618C188.669 19.1626 187.393 17.8455 190.243 16.2734C190.626 16.0609 191.264 15.636 191.732 15.636C192.753 15.636 195.306 19.2051 195.306 20.3098C195.306 21.5845 195.051 22.9017 195.051 24.2189C195.051 25.6635 195.136 27.1081 195.136 28.5527C195.136 29.615 194.923 30.6347 194.923 31.697C194.923 32.9291 195.221 33.1416 196.454 33.1416C202.283 33.1416 202.836 34.0339 202.836 27.9154C202.836 26.2583 202.666 24.6013 202.666 22.9442C202.666 18.2704 203.304 12.7893 198.922 9.73003C198.411 9.34763 197.646 9.22016 197.05 9.00771C196.412 8.79527 195.731 8.58282 195.051 8.58282C192.966 8.58282 190.796 9.43261 189.137 10.6223C188.839 10.8348 187.478 11.727 187.35 11.9395L187.18 11.8545C186.755 10.4099 187.053 9.09269 185.181 9.09269C184.16 9.09269 180.331 8.83776 180.331 10.2824C180.331 11.5146 180.841 12.8317 180.841 14.0639C180.884 17.1656 180.884 20.2249 180.884 23.3266C180.884 26.1309 180.331 28.9352 180.331 31.697C180.331 32.1218 180.288 32.6317 180.671 32.9291C181.309 33.439 185.181 33.6939 186.074 33.6939C187.818 33.6939 187.648 32.1643 187.776 30.8472L188.074 27.7879Z" fill="#F7F5F8"/>
<path d="M208.971 13.5965C208.971 14.0639 209.949 16.1034 210.417 16.2309C211.055 16.1459 211.693 15.721 212.246 15.4236C215.224 13.724 217.99 9.4751 217.99 5.99098C217.99 5.18369 217.266 2.03948 216.756 1.48712C216.33 1.01974 215.437 0.764806 214.842 0.509872C214.416 0.339915 213.65 0 213.182 0C212.331 0 209.864 2.88927 209.864 3.69656C209.864 4.84377 212.799 6.03347 212.799 7.56308C212.799 12.3644 208.971 12.1519 208.971 13.5965Z" fill="#F7F5F8"/>
<path d="M238.312 23.5815C238.099 23.0292 237.546 21.712 237.121 21.3296C236.397 20.6498 233.377 19.63 232.313 19.0777C231.59 18.6953 230.867 18.0579 230.229 17.548C229.761 17.1656 228.825 16.5708 228.57 16.0609C228.57 15.4661 229.888 14.1914 230.527 14.1914C231.888 14.1914 233.632 15.6785 235.036 15.6785C235.887 15.6785 238.057 12.6618 238.057 11.897C238.057 9.98497 231.845 8.24291 230.314 8.24291C229.335 8.24291 226.102 8.79527 225.294 9.26265C223.209 10.4523 220.955 13.724 220.955 16.1459C220.955 16.8682 222.061 20.0549 222.486 20.6073C223.422 21.797 231.42 25.1961 231.42 26.3008C231.42 26.7682 229.378 27.7879 228.867 27.7879C227.549 27.7879 224.358 25.8759 222.784 25.8759C221.72 25.8759 219.636 29.1901 219.636 30.1673C219.636 30.6772 220.997 31.442 221.38 31.697C223.677 33.0991 226.357 33.9489 229.038 33.9489L228.953 33.8639C230.399 33.2691 232.398 33.6939 233.887 33.0566C236.227 32.0794 239.078 28.5528 239.078 25.9184C239.078 25.3236 238.525 24.1764 238.312 23.5815ZM229.123 33.9489C229.08 33.9489 229.08 33.9489 229.038 33.9489H229.123Z" fill="#F7F5F8"/>
<path d="M215.764 52.6507L215.891 52.7356L215.934 53.0331C215.934 54.6902 215.551 56.3897 215.423 58.0468C215.296 59.7889 215.296 61.5734 215.168 63.3155C215.041 65.5249 214.615 67.7768 214.615 69.9863C214.615 74.9575 214.785 74.6601 220.103 74.6601C220.911 74.6601 221.422 74.4476 221.677 73.6403C222.698 70.2837 222.273 66.5446 222.273 63.1455C222.273 61.9558 222.4 60.7661 222.4 59.5764C222.4 56.0498 221.847 52.5657 221.847 49.0391C221.847 47.467 222.273 45.8524 222.273 44.2803C222.273 43.9829 222.273 43.6854 222.103 43.4305C221.72 42.7932 218.572 42.5807 217.763 42.5807C216.955 42.5807 214.7 42.7932 214.147 43.303C213.594 43.8129 212.063 46.9146 211.85 47.5095C211.552 48.2743 211.339 49.0391 211.084 49.8039C210.403 52.0133 209.935 54.3927 209.127 56.5597C208.617 57.9618 207.936 59.364 207.383 60.7661C207.213 61.191 206.915 61.7434 206.915 62.1683C206.022 60.6811 204.575 54.7326 203.98 52.7356C203.426 50.7811 202.448 48.8691 201.64 46.9996C201.129 45.8524 200.704 42.5807 199.3 42.5807C197.981 42.5807 196.62 42.8782 195.301 42.8782C194.578 42.8782 193.812 42.8357 193.089 42.9206C191.812 43.0481 191.812 47.9344 191.812 49.0391C191.812 52.0983 192.195 55.2 192.195 58.3017C192.195 63.188 191.642 68.0743 191.642 72.9605C191.642 73.4279 191.685 73.8953 192.025 74.1927C192.621 74.7451 196.109 74.8725 197.003 74.8725C199.045 74.8725 198.704 69.9863 198.789 69.0515C198.959 67.3094 199.215 65.4824 199.215 63.7404C199.215 61.7009 199.087 59.279 198.577 57.282C198.406 56.5597 197.556 53.9253 197.556 53.373C197.556 53.1605 197.598 52.9056 197.853 52.9056C197.896 52.9056 197.981 52.9056 198.024 52.9481C199.087 55.8374 203.256 69.9863 204.915 71.2185C205.469 71.6009 206.362 71.5584 207 71.5584C207.596 71.5584 208.532 71.6433 209 71.176C209.255 70.921 209.425 70.6236 209.553 70.2837C210.276 68.4142 210.744 66.4172 211.552 64.5901C212.445 62.5507 213.424 60.6811 214.02 58.4717C214.147 57.9618 215.126 53.458 215.594 52.6932L215.764 52.6507Z" fill="#F7F5F8"/>
<path d="M242.436 74.4901C243.67 74.4901 249.966 75.2124 249.966 73.3854C249.966 72.1957 249.753 71.091 249.541 69.9438C249.243 68.1592 247.243 68.4142 245.797 68.2867C244.308 68.1592 242.691 67.9893 241.202 67.9893C236.523 67.9893 236.65 68.4567 236.65 63.188C236.65 59.9163 244.861 62.0408 246.988 60.6811C247.711 60.2137 247.584 59.194 247.584 58.4292C247.584 57.5794 247.754 54.8176 246.563 54.8176C244.946 54.8176 243.329 55.285 241.713 55.285C237.118 55.285 236.48 55.0726 236.48 50.3138C236.48 48.8691 238.097 49.1241 239.118 49.1241C241.5 49.1241 243.84 49.1241 246.222 49.0816C249.796 48.9966 249.456 48.4867 249.456 45.0026C249.456 42.8357 249.541 42.5807 247.243 42.5807C242.861 42.5807 238.352 42.7507 233.97 43.0481C232.821 43.1331 231.715 43.0481 230.567 43.1331C230.311 43.1756 230.099 43.2606 229.928 43.4305C229.546 43.8129 229.631 45.3 229.631 45.8524C229.588 46.7872 229.546 47.6794 229.546 48.6142C229.546 50.1438 229.673 51.6309 229.673 53.1605C229.673 56.6871 229.12 60.2562 229.12 63.7828C229.12 65.6949 229.631 67.5644 229.631 69.4764C229.631 70.8361 229.12 72.2382 229.12 73.5978C229.12 74.915 232.949 74.8725 234.013 74.8725C235.842 74.8725 237.671 74.4901 239.501 74.4901H242.436Z" fill="#F7F5F8"/>
<path d="M279.868 52.6507L279.996 52.7356L280.039 53.0331C280.039 54.6902 279.656 56.3897 279.528 58.0468C279.401 59.7889 279.401 61.5734 279.273 63.3155C279.145 65.5249 278.72 67.7768 278.72 69.9863C278.72 74.9575 278.89 74.6601 284.208 74.6601C285.016 74.6601 285.527 74.4476 285.782 73.6403C286.803 70.2837 286.378 66.5446 286.378 63.1455C286.378 61.9558 286.505 60.7661 286.505 59.5764C286.505 56.0498 285.952 52.5657 285.952 49.0391C285.952 47.467 286.378 45.8524 286.378 44.2803C286.378 43.9829 286.378 43.6854 286.207 43.4305C285.824 42.7932 282.676 42.5807 281.868 42.5807C281.06 42.5807 278.805 42.7932 278.252 43.303C277.699 43.8129 276.167 46.9146 275.955 47.5095C275.657 48.2743 275.444 49.0391 275.189 49.8039C274.508 52.0133 274.04 54.3927 273.232 56.5597C272.721 57.9618 272.041 59.364 271.488 60.7661C271.317 61.191 271.02 61.7434 271.02 62.1683C270.126 60.6811 268.68 54.7326 268.084 52.7356C267.531 50.7811 266.553 48.8691 265.744 46.9996C265.234 45.8524 264.808 42.5807 263.405 42.5807C262.086 42.5807 260.724 42.8782 259.406 42.8782C258.682 42.8782 257.917 42.8357 257.193 42.9206C255.917 43.0481 255.917 47.9344 255.917 49.0391C255.917 52.0983 256.3 55.2 256.3 58.3017C256.3 63.188 255.747 68.0743 255.747 72.9605C255.747 73.4279 255.789 73.8953 256.13 74.1927C256.725 74.7451 260.214 74.8725 261.107 74.8725C263.149 74.8725 262.809 69.9863 262.894 69.0515C263.064 67.3094 263.319 65.4824 263.319 63.7404C263.319 61.7009 263.192 59.279 262.681 57.282C262.511 56.5597 261.66 53.9253 261.66 53.373C261.66 53.1605 261.703 52.9056 261.958 52.9056C262.001 52.9056 262.086 52.9056 262.128 52.9481C263.192 55.8374 267.361 69.9863 269.02 71.2185C269.573 71.6009 270.467 71.5584 271.105 71.5584C271.7 71.5584 272.636 71.6433 273.104 71.176C273.359 70.921 273.53 70.6236 273.657 70.2837C274.38 68.4142 274.848 66.4172 275.657 64.5901C276.55 62.5507 277.529 60.6811 278.124 58.4717C278.252 57.9618 279.23 53.458 279.698 52.6932L279.868 52.6507Z" fill="#F7F5F8"/>
<path d="M292.927 64.2927C292.927 66.7996 293.012 69.264 293.012 71.7708C293.012 72.3232 292.927 73.7678 293.353 74.1502C293.991 74.7451 297.905 74.915 298.926 74.915C302.201 74.915 305.52 74.4052 308.753 74.0227C311.561 73.6828 311.986 73.7678 314.326 72.0682C314.922 71.6433 315.858 71.0485 316.283 70.4537C316.793 69.6888 317.219 66.6296 317.219 65.6524C317.219 64.6751 316.708 61.3185 316.198 60.5537C315.56 59.5764 312.539 58.1743 312.539 57.367C312.539 57.112 316.028 54.1378 316.028 50.5262C316.028 49.7614 315.73 48.8266 315.517 48.1043C315.347 47.4245 315.092 46.3198 314.624 45.8099C313.901 45.0026 311.348 43.643 310.284 43.3455C308.54 42.8782 306.498 43.303 304.669 43.1756C302.754 43.0481 300.797 42.7507 298.926 42.7507C297.734 42.7507 292.97 42.2408 292.97 43.9404C292.97 44.9601 293.14 46.0224 293.225 47.0421C293.523 50.1013 293.48 53.4155 293.48 56.4322C293.48 59.0665 292.927 61.7009 292.927 64.2927ZM301.521 55.455C301.053 55.455 300.968 54.8601 300.968 54.4777C300.968 53.6704 301.35 49.0816 302.116 48.9541C302.372 48.9116 302.669 48.9116 302.925 48.9116C304.158 48.9116 308.668 50.6112 308.668 51.546C308.668 52.2258 305.094 54.7751 304.328 55.115C303.775 55.37 303.137 55.455 302.542 55.455H301.521ZM309.561 65.2275C309.561 65.7374 309.008 67.3094 308.625 67.6494C307.86 68.3292 302.882 68.924 301.733 68.924C301.223 68.924 300.968 68.7541 300.968 68.2017C300.968 67.1395 301.265 66.0348 301.265 64.9725C301.265 63.8253 300.968 62.7206 300.968 61.5734C300.968 61.021 301.18 60.8086 301.733 60.8086C302.414 60.8086 304.499 61.0635 305.137 61.361C306.073 61.8283 309.561 64.2077 309.561 65.2275Z" fill="#F7F5F8"/>
<path d="M336.121 74.4901C337.355 74.4901 343.651 75.2124 343.651 73.3854C343.651 72.1957 343.438 71.091 343.226 69.9438C342.928 68.1592 340.928 68.4142 339.482 68.2867C337.993 68.1592 336.376 67.9893 334.887 67.9893C330.208 67.9893 330.335 68.4567 330.335 63.188C330.335 59.9163 338.546 62.0408 340.673 60.6811C341.396 60.2137 341.269 59.194 341.269 58.4292C341.269 57.5794 341.439 54.8176 340.248 54.8176C338.631 54.8176 337.014 55.285 335.398 55.285C330.803 55.285 330.165 55.0726 330.165 50.3138C330.165 48.8691 331.782 49.1241 332.803 49.1241C335.185 49.1241 337.525 49.1241 339.907 49.0816C343.481 48.9966 343.141 48.4867 343.141 45.0026C343.141 42.8357 343.226 42.5807 340.928 42.5807C336.546 42.5807 332.037 42.7507 327.655 43.0481C326.506 43.1331 325.4 43.0481 324.252 43.1331C323.996 43.1756 323.784 43.2606 323.614 43.4305C323.231 43.8129 323.316 45.3 323.316 45.8524C323.273 46.7872 323.231 47.6794 323.231 48.6142C323.231 50.1438 323.358 51.6309 323.358 53.1605C323.358 56.6871 322.805 60.2562 322.805 63.7828C322.805 65.6949 323.316 67.5644 323.316 69.4764C323.316 70.8361 322.805 72.2382 322.805 73.5978C322.805 74.915 326.634 74.8725 327.698 74.8725C329.527 74.8725 331.356 74.4901 333.186 74.4901H336.121Z" fill="#F7F5F8"/>
<path d="M368.193 74.6601C369.384 74.6601 374.702 74.5326 375 74.2352C375 73.7253 368.874 63.7404 368.874 62.0408C368.874 60.7661 371.341 59.279 372.107 58.1318C372.618 57.4095 372.788 56.5172 373.086 55.6674C373.383 54.7751 373.809 53.7554 373.809 52.7781C373.809 52.0983 373.554 51.2485 373.383 50.5687C373.171 49.7614 373.086 48.8691 372.703 48.1043C372.362 47.4245 371.809 46.9571 371.256 46.4472C368.236 43.6005 365.513 43.0481 361.386 42.7932C359.514 42.6657 357.558 42.5382 355.686 42.5382C355.388 42.5382 350.453 42.3683 349.645 43.0056C349.219 43.3455 349.304 44.2378 349.304 44.7477C349.304 47.5095 349.134 51.0786 349.432 53.6279C349.645 55.37 349.985 57.1545 350.07 58.8966C350.198 60.7661 350.028 62.5507 350.028 64.4202C350.028 65.6099 350.155 66.7996 350.155 67.9893C350.155 69.7738 349.942 71.5159 349.942 73.3004C349.942 75 354.537 75 355.771 75C356.069 75 356.409 74.9575 356.664 74.7876C357.387 74.2352 357.77 70.1987 357.77 69.179C357.77 67.3944 357.302 65.6524 357.302 63.9103C357.302 63.4004 357.472 63.0605 358.026 63.0605C358.749 63.0605 360.706 63.3155 361.216 63.8253C362.365 64.9301 364.747 73.0455 366.747 74.3627C367.172 74.6601 367.725 74.6601 368.193 74.6601ZM360.238 57.7069C357.643 57.7069 357.6 57.6644 357.472 55.2425C357.387 53.4155 357.132 51.5459 357.132 49.7189C357.132 49.5065 357.175 49.294 357.26 49.1241C357.387 48.9966 357.6 48.9116 357.77 48.9116C358.749 48.9116 364.067 49.5065 364.705 49.8889C365.258 50.2288 366.364 52.2683 366.364 52.9056C366.364 53.5429 365.556 55.8798 365.003 56.1773C364.662 56.5597 360.833 57.7069 360.238 57.7069Z" fill="#F7F5F8"/>
</svg>
