<svg width="576" height="162" viewBox="0 0 576 162" fill="none" xmlns="http://www.w3.org/2000/svg">
<path d="M65.1606 157.872C71.1926 157.872 100.313 161.408 100.313 152.464C100.313 147.056 99.6886 133.952 94.2807 131.248C79.9286 124.176 57.2566 130.832 43.1126 124.384C39.3686 122.72 39.5766 118.976 39.5766 115.44C39.5766 102.128 38.3286 89.024 38.3286 75.712C38.3286 59.696 40.4086 43.888 40.4086 27.872C40.4086 21.008 42.4886 2.49601 33.3366 2.49601C28.5526 2.49601 9.20864 3.95201 5.67264 6.448C4.42464 7.28001 3.59264 8.73601 3.38464 10.192C2.13664 17.888 0.0566406 49.504 0.0566406 57.616C0.0566406 63.44 0.88864 69.472 1.51264 75.296C2.96864 90.064 2.76064 106.288 2.76064 121.056C2.76064 131.872 1.30464 142.48 1.30464 153.088C1.30464 159.952 19.4006 159.744 24.6006 159.744C33.3366 159.744 41.8646 157.872 50.3926 157.872H65.1606Z" fill="#F7F5F8" style="mix-blend-mode:multiply"/>
<path d="M117.302 79.456C117.302 84.448 118.55 88.608 119.59 93.392C126.454 125.216 142.262 152.464 176.79 158.496C180.95 159.12 186.566 160.576 190.518 160.576C196.55 160.576 206.326 160.368 211.942 158.496C223.798 154.752 242.726 139.984 249.798 130.208C252.918 125.84 258.118 111.696 258.95 106.08C259.99 97.968 259.574 88.816 259.574 80.704C259.574 72.384 259.782 63.44 258.742 55.12C258.118 50.128 256.038 45.552 253.958 41.184C242.102 15.808 218.806 0 190.102 0C175.542 0 159.11 3.536 147.254 12.48C144.134 14.768 142.262 18.304 139.974 21.424C129.158 36.192 117.302 60.736 117.302 79.456ZM189.478 127.712C189.894 127.712 189.478 128.544 189.062 128.336C185.11 127.296 177.622 125.008 174.294 122.72C172.838 121.888 169.302 116.896 168.262 115.44C166.39 112.736 163.894 109.824 162.854 106.704C161.19 101.296 159.942 81.952 159.942 75.712C159.942 56.992 162.23 42.432 181.782 36.192C184.07 35.36 189.27 33.488 191.558 33.488C203.83 33.488 207.366 35.984 214.23 45.344C216.31 48.048 219.222 52.208 220.262 55.328C222.134 61.568 221.51 71.76 221.51 77.792C221.51 89.648 220.262 104.416 213.814 114.608C212.566 116.688 210.278 120.64 208.406 121.888C202.79 125.216 194.886 124.384 189.478 127.712Z" fill="#F7F5F8" style="mix-blend-mode:multiply"/>
<path d="M413.106 99.216C413.106 94.64 411.234 75.504 408.322 73.008C406.45 71.344 367.554 69.056 362.354 69.056C354.658 69.056 353.618 70.72 353.618 78.208C353.618 82.16 353.202 95.056 355.49 97.968C361.938 106.288 376.706 89.44 377.33 111.904V118.976C377.746 126.048 369.01 127.088 363.186 127.088C359.234 127.088 355.49 125.632 351.746 124.592C333.026 119.392 326.994 112.112 323.666 93.392C322.626 87.984 321.586 82.576 321.586 76.96C321.586 73.216 323.042 57.408 324.29 54.496C329.698 42.64 348.002 32.656 360.898 32.656C369.426 32.656 378.578 40.352 387.106 40.352C391.682 40.352 403.33 24.752 403.33 20.592C403.33 17.264 398.754 14.352 396.258 12.48C385.858 4.784 370.466 1.872 357.57 1.872C345.922 1.872 336.562 5.408 326.37 10.4C300.162 23.504 289.554 39.936 284.354 68.432C283.314 73.424 282.274 78.624 282.274 83.824C282.274 87.36 284.562 94.016 285.602 97.552C287.89 106.08 292.258 122.928 297.25 129.792C299.746 133.12 303.282 136.24 306.194 139.152C320.754 153.712 337.602 161.408 358.61 161.408C358.818 161.408 359.442 161.408 359.442 160.992C366.098 159.328 374.21 159.12 381.282 158.288C388.146 157.456 406.034 146.848 409.778 141.232C412.482 137.28 413.106 120.848 413.106 117.936V99.216Z" fill="#F7F5F8" style="mix-blend-mode:multiply"/>
<path d="M433.365 79.456C433.365 84.448 434.612 88.608 435.652 93.392C442.517 125.216 458.324 152.464 492.853 158.496C497.013 159.12 502.628 160.576 506.58 160.576C512.612 160.576 522.388 160.368 528.005 158.496C539.861 154.752 558.789 139.984 565.861 130.208C568.981 125.84 574.18 111.696 575.013 106.08C576.052 97.968 575.637 88.816 575.637 80.704C575.637 72.384 575.845 63.44 574.805 55.12C574.181 50.128 572.101 45.552 570.021 41.184C558.165 15.808 534.869 0 506.165 0C491.605 0 475.172 3.536 463.316 12.48C460.197 14.768 458.324 18.304 456.036 21.424C445.22 36.192 433.365 60.736 433.365 79.456ZM505.54 127.712C505.957 127.712 505.54 128.544 505.124 128.336C501.172 127.296 493.685 125.008 490.357 122.72C488.901 121.888 485.365 116.896 484.324 115.44C482.452 112.736 479.957 109.824 478.917 106.704C477.253 101.296 476.005 81.952 476.005 75.712C476.005 56.992 478.293 42.432 497.845 36.192C500.133 35.36 505.333 33.488 507.621 33.488C519.893 33.488 523.429 35.984 530.293 45.344C532.373 48.048 535.285 52.208 536.325 55.328C538.197 61.568 537.573 71.76 537.573 77.792C537.573 89.648 536.325 104.416 529.877 114.608C528.629 116.688 526.341 120.64 524.469 121.888C518.853 125.216 510.948 124.384 505.54 127.712Z" fill="#F7F5F8" style="mix-blend-mode:multiply"/>
</svg>
