<svg width="298" height="327" viewBox="0 0 298 327" fill="none" xmlns="http://www.w3.org/2000/svg">
<g opacity="0.7">
<path opacity="0.2" d="M105.014 22.7307L227.051 82.2521L208.154 216.709L74.4383 240.287L10.6942 120.402L105.014 22.7307Z" fill="#FF5268"/>
<path d="M93.4289 14.6194L215.466 74.1407L196.569 208.598L62.8534 232.175L-0.890712 112.29L93.4289 14.6194Z" stroke="#FF5268" stroke-width="4" stroke-linecap="round" stroke-dasharray="3 12"/>
<path d="M143.658 153.777L217.18 136.405L256.421 200.96L207.151 258.23L137.46 229.069L143.658 153.777Z" stroke="#FF5268" stroke-width="2"/>
<path d="M-46.2924 209.848C-44.4575 206.816 -42.1596 206.411 -39.3987 208.632C-36.6378 210.853 -34.3399 210.448 -32.505 207.416C-30.6702 204.385 -28.3723 203.98 -25.6114 206.201C-22.8504 208.422 -20.5526 208.017 -18.7177 204.985C-16.8829 201.954 -14.585 201.549 -11.8241 203.77C-9.06314 205.991 -6.76525 205.586 -4.93043 202.554C-3.09561 199.523 -0.797721 199.118 1.96323 201.339C4.72417 203.56 7.02206 203.155 8.85688 200.123C10.6917 197.092 12.9896 196.687 15.7505 198.908C18.5115 201.129 20.8094 200.724 22.6442 197.692" stroke="#FF5268" stroke-width="2"/>
<path d="M-43.8617 223.635C-42.0269 220.603 -39.729 220.198 -36.968 222.419C-34.2071 224.64 -31.9092 224.235 -30.0744 221.204C-28.2396 218.172 -25.9417 217.767 -23.1807 219.988C-20.4198 222.209 -18.1219 221.804 -16.2871 218.773C-14.4522 215.741 -12.1544 215.336 -9.39342 217.557C-6.63247 219.778 -4.33459 219.373 -2.49976 216.341C-0.664941 213.31 1.63294 212.905 4.39389 215.126C7.15484 217.347 9.45272 216.942 11.2875 213.91C13.1224 210.879 15.4203 210.474 18.1812 212.695C20.9421 214.916 23.24 214.511 25.0749 211.479" stroke="#FF5268" stroke-width="2"/>
<path d="M-41.43 237.422C-39.5952 234.39 -37.2973 233.985 -34.5364 236.206C-31.7754 238.427 -29.4776 238.022 -27.6427 234.991C-25.8079 231.959 -23.51 231.554 -20.7491 233.775C-17.9881 235.996 -15.6903 235.591 -13.8554 232.56C-12.0206 229.528 -9.72272 229.123 -6.96178 231.344C-4.20083 233.565 -1.90295 233.16 -0.0681234 230.129C1.7667 227.097 4.06458 226.692 6.82553 228.913C9.58648 231.134 11.8844 230.729 13.7192 227.697C15.554 224.666 17.8519 224.261 20.6128 226.482C23.3738 228.703 25.6717 228.298 27.5065 225.266" stroke="#FF5268" stroke-width="2"/>
<path d="M-38.9994 251.21C-37.1646 248.179 -34.8667 247.773 -32.1057 249.994C-29.3448 252.215 -27.0469 251.81 -25.2121 248.779C-23.3773 245.747 -21.0794 245.342 -18.3184 247.563C-15.5575 249.784 -13.2596 249.379 -11.4248 246.348C-9.58994 243.316 -7.29206 242.911 -4.53111 245.132C-1.77017 247.353 0.527718 246.948 2.36254 243.917C4.19736 240.885 6.49525 240.48 9.25619 242.701C12.0171 244.922 14.315 244.517 16.1498 241.486C17.9847 238.454 20.2826 238.049 23.0435 240.27C25.8044 242.491 28.1023 242.086 29.9372 239.054" stroke="#FF5268" stroke-width="2"/>
<path d="M-36.5677 264.997C-34.7329 261.966 -32.435 261.56 -29.6741 263.781C-26.9131 266.002 -24.6153 265.597 -22.7804 262.566C-20.9456 259.535 -18.6477 259.129 -15.8868 261.35C-13.1258 263.571 -10.8279 263.166 -8.99313 260.135C-7.1583 257.103 -4.86042 256.698 -2.09947 258.919C0.661474 261.14 2.95936 260.735 4.79418 257.704C6.629 254.672 8.92689 254.267 11.6878 256.488C14.4488 258.709 16.7467 258.304 18.5815 255.273C20.4163 252.241 22.7142 251.836 25.4751 254.057C28.2361 256.278 30.534 255.873 32.3688 252.842" stroke="#FF5268" stroke-width="2"/>
<circle cx="174.257" cy="5.26384" r="1.81395" transform="rotate(-29.2244 174.257 5.26384)" fill="#FF5268"/>
<circle cx="182.7" cy="0.540208" r="1.81395" transform="rotate(-29.2244 182.7 0.540208)" fill="#FF5268"/>
<circle cx="178.98" cy="13.7072" r="1.81395" transform="rotate(-29.2244 178.98 13.7072)" fill="#FF5268"/>
<circle cx="187.424" cy="8.98357" r="1.81395" transform="rotate(-29.2244 187.424 8.98357)" fill="#FF5268"/>
<circle cx="195.866" cy="4.26091" r="1.81395" transform="rotate(-29.2244 195.866 4.26091)" fill="#FF5268"/>
<circle cx="204.31" cy="-0.462722" r="1.81395" transform="rotate(-29.2244 204.31 -0.462722)" fill="#FF5268"/>
<circle cx="183.703" cy="22.1496" r="1.81395" transform="rotate(-29.2244 183.703 22.1496)" fill="#FF5268"/>
<circle cx="192.146" cy="17.4259" r="1.81395" transform="rotate(-29.2244 192.146 17.4259)" fill="#FF5268"/>
<circle cx="200.589" cy="12.7033" r="1.81395" transform="rotate(-29.2244 200.589 12.7033)" fill="#FF5268"/>
<circle cx="209.032" cy="7.97966" r="1.81395" transform="rotate(-29.2244 209.032 7.97966)" fill="#FF5268"/>
<circle cx="217.476" cy="3.25603" r="1.81395" transform="rotate(-29.2244 217.476 3.25603)" fill="#FF5268"/>
<circle cx="225.918" cy="-1.4676" r="1.81395" transform="rotate(-29.2244 225.918 -1.4676)" fill="#FF5268"/>
<circle cx="188.427" cy="30.5929" r="1.81395" transform="rotate(-29.2244 188.427 30.5929)" fill="#FF5268"/>
<circle cx="196.87" cy="25.8693" r="1.81395" transform="rotate(-29.2244 196.87 25.8693)" fill="#FF5268"/>
<circle cx="205.312" cy="21.1467" r="1.81395" transform="rotate(-29.2244 205.312 21.1467)" fill="#FF5268"/>
<circle cx="213.756" cy="16.423" r="1.81395" transform="rotate(-29.2244 213.756 16.423)" fill="#FF5268"/>
<circle cx="222.199" cy="11.6994" r="1.81395" transform="rotate(-29.2244 222.199 11.6994)" fill="#FF5268"/>
<circle cx="230.642" cy="6.97575" r="1.81395" transform="rotate(-29.2244 230.642 6.97575)" fill="#FF5268"/>
<circle cx="193.15" cy="39.0363" r="1.81395" transform="rotate(-29.2244 193.15 39.0363)" fill="#FF5268"/>
<circle cx="201.594" cy="34.3127" r="1.81395" transform="rotate(-29.2244 201.594 34.3127)" fill="#FF5268"/>
<circle cx="210.036" cy="29.59" r="1.81395" transform="rotate(-29.2244 210.036 29.59)" fill="#FF5268"/>
<circle cx="218.479" cy="24.8664" r="1.81395" transform="rotate(-29.2244 218.479 24.8664)" fill="#FF5268"/>
<circle cx="226.923" cy="20.1427" r="1.81395" transform="rotate(-29.2244 226.923 20.1427)" fill="#FF5268"/>
<circle cx="235.365" cy="15.4191" r="1.81395" transform="rotate(-29.2244 235.365 15.4191)" fill="#FF5268"/>
<circle cx="197.874" cy="47.4787" r="1.81395" transform="rotate(-29.2244 197.874 47.4787)" fill="#FF5268"/>
<circle cx="206.317" cy="42.7551" r="1.81395" transform="rotate(-29.2244 206.317 42.7551)" fill="#FF5268"/>
<circle cx="214.76" cy="38.0324" r="1.81395" transform="rotate(-29.2244 214.76 38.0324)" fill="#FF5268"/>
<circle cx="223.203" cy="33.3088" r="1.81395" transform="rotate(-29.2244 223.203 33.3088)" fill="#FF5268"/>
<circle cx="231.646" cy="28.5851" r="1.81395" transform="rotate(-29.2244 231.646 28.5851)" fill="#FF5268"/>
<circle cx="240.089" cy="23.8615" r="1.81395" transform="rotate(-29.2244 240.089 23.8615)" fill="#FF5268"/>
</g>
</svg>
