<svg width="538" height="703" viewBox="0 0 538 703" fill="none" xmlns="http://www.w3.org/2000/svg">
<path fill-rule="evenodd" clip-rule="evenodd" d="M344.67 1.39892C352.194 -1.1901 358.286 0.0887874 364.156 2.99713C366.869 4.34084 369.428 6.07556 372.051 8.20257C380.454 15.0169 390.869 27.1672 401.091 42.1879C426.989 80.2444 447.426 129.078 455.977 182.482L456.364 184.966L457.663 187.782C489.027 256.037 512.382 318.431 525.693 374.192L526.529 377.742C543.233 449.681 542.337 507.777 518.96 549.86C498.56 586.583 461.231 603.021 409.464 604.49L406.586 604.559C373.504 605.216 340.731 600.955 280.1 589.694L266.729 587.186C206.391 641.423 143.864 682.153 96.5002 696.884C31.4044 717.131 -9.73575 686.42 2.07446 614.966C11.0598 560.603 46.2238 531.767 101.345 525.264L103.074 525.068C140.582 520.99 177.843 525.264 253.001 539.314C320.196 475.621 373.335 404.076 396.335 343.23L397.205 340.895L399.249 335.121C414.863 289.241 419.049 243.769 413.497 199.635L413.247 197.726L409.265 189.242C395.293 159.659 380.852 131.078 363.74 98.549L342.411 58.2742L339.284 52.2868C335.496 44.9752 333.183 40.2379 331.732 36.7236L331.521 36.2055C329.979 32.3754 329.027 28.7862 328.898 24.7801C328.586 15.1395 333.353 5.29373 344.67 1.39892ZM210.481 576.885L203.827 575.775C159.411 568.479 132.68 566.599 107.884 569.295L104.799 569.66C69.3213 574.232 51.3762 589.488 45.9658 622.222C42.5742 642.741 44.948 653.089 49.2973 656.336C53.8627 659.744 65.4512 659.956 83.2898 654.407C116.193 644.174 160.606 617.261 206.318 580.282L210.481 576.885ZM454.527 299.219L455.019 296.492L456.072 299.313L457.214 302.412C494.613 404.449 504.934 483.494 480.067 528.259C468.583 548.931 445.816 558.957 408.198 560.024L406.912 560.058L405.458 560.089C381.204 560.538 355.783 557.819 314.76 550.733L306.332 549.253L309.445 546.069C369.787 483.893 416.845 416.498 439.051 355.975L441.27 349.706L442.679 345.486C447.74 330.019 451.673 314.587 454.527 299.219Z" fill="#FF5268"/>
</svg>
