<svg width="164" height="883" viewBox="0 0 164 883" fill="none" xmlns="http://www.w3.org/2000/svg">
<path d="M112.275 117.936L111.859 118.56L110.403 118.768C102.291 118.768 93.9714 116.896 85.8594 116.272C77.3314 115.648 68.5954 115.648 60.0674 115.024C49.2514 114.4 38.2274 112.32 27.4114 112.32C3.07537 112.32 4.53137 113.152 4.53137 139.152C4.53137 143.104 5.57137 145.6 9.52337 146.848C25.9554 151.84 44.2594 149.76 60.8994 149.76C66.7234 149.76 72.5474 150.384 78.3714 150.384C95.6354 150.384 112.691 147.68 129.955 147.68C137.651 147.68 145.555 149.76 153.251 149.76C154.707 149.76 156.163 149.76 157.411 148.928C160.531 147.056 161.571 131.664 161.571 127.712C161.571 123.76 160.531 112.736 158.035 110.032C155.539 107.328 140.355 99.84 137.443 98.8C133.699 97.344 129.955 96.304 126.211 95.056C115.395 91.728 103.747 89.44 93.1394 85.488C86.2754 82.992 79.4114 79.664 72.5474 76.96C70.4674 76.128 67.7634 74.672 65.6834 74.672C72.9634 70.304 102.083 63.232 111.859 60.32C121.427 57.616 130.787 52.832 139.939 48.88C145.555 46.384 161.571 44.304 161.571 37.44C161.571 30.992 160.115 24.336 160.115 17.888C160.115 14.352 160.323 10.608 159.907 7.072C159.283 0.832 135.363 0.831998 129.955 0.831997C114.979 0.831997 99.7954 2.704 84.6114 2.704C60.6914 2.704 36.7714 -5.55519e-06 12.8514 -6.60077e-06C10.5634 -6.70078e-06 8.27536 0.207993 6.81937 1.87199C4.11537 4.78399 3.49138 21.84 3.49138 26.208C3.49138 36.192 27.4114 34.528 31.9874 34.944C40.5154 35.776 49.4594 37.024 57.9874 37.024C67.9714 37.024 79.8274 36.4 89.6034 33.904C93.1394 33.072 106.035 28.912 108.739 28.912C109.779 28.912 111.027 29.12 111.027 30.368C111.027 30.576 111.027 30.992 110.819 31.2C96.6754 36.4 27.4114 56.784 21.3794 64.896C19.5074 67.6 19.7154 71.968 19.7154 75.088C19.7154 78 19.2994 82.576 21.5874 84.864C22.8354 86.112 24.2914 86.944 25.9554 87.568C35.1074 91.104 44.8834 93.392 53.8274 97.344C63.8114 101.712 72.9634 106.496 83.7794 109.408C86.2754 110.032 108.323 114.816 112.067 117.104L112.275 117.936Z" fill="#F7F5F8" style="mix-blend-mode:multiply"/>
<path d="M77.7474 223.174C87.3154 223.174 96.6754 220.054 106.243 220.054C115.187 220.054 124.339 222.55 133.283 222.55C138.067 222.55 156.163 222.758 159.075 218.806C160.739 216.518 160.739 211.734 160.739 208.822C160.739 183.238 160.739 182.822 134.323 182.822C117.683 182.822 100.835 184.902 84.1954 184.902C75.6674 184.902 67.1394 183.862 58.6114 183.862C49.0434 183.862 39.4754 184.486 29.9074 184.486C23.4594 184.486 17.0114 183.03 10.5634 183.03C3.07536 183.03 3.07537 205.91 3.07537 211.526C3.07537 213.19 3.07537 214.854 4.11536 216.31C6.81936 220.262 30.5314 221.302 31.3634 221.302C39.4754 221.926 48.6274 223.174 56.7394 223.174L77.7474 223.174Z" fill="#F7F5F8" style="mix-blend-mode:multiply"/>
<path d="M0.995363 303.797C4.73937 307.541 3.90736 326.677 7.44336 333.749C13.8914 346.853 35.5234 364.949 50.9154 364.949C56.1154 364.949 72.1313 359.957 75.8754 356.629C83.1553 349.973 109.779 292.981 119.347 292.981C122.467 292.981 129.747 306.501 129.747 309.829C129.747 318.149 121.219 328.341 121.219 336.245C121.219 341.445 138.275 356.629 143.059 356.629C145.971 356.629 149.923 350.389 151.587 348.101C159.907 337.077 163.859 324.597 163.859 310.661C163.859 296.725 150.131 270.309 139.731 260.949C136.819 258.245 132.035 256.789 128.499 255.333C125.379 254.085 120.803 251.797 117.475 251.797C112.899 251.797 106.867 254.501 102.707 256.165C87.1074 262.613 79.6194 272.805 72.9634 288.197C70.6754 293.397 69.4274 299.637 66.0994 304.213C63.6034 307.541 60.6914 310.869 57.9874 313.989C55.9074 316.485 52.5794 320.437 49.2514 321.061C45.2994 320.229 35.7314 305.669 35.7314 301.301C35.7314 284.661 47.3794 273.429 47.3794 270.725C47.3794 267.189 26.5793 250.965 23.0434 250.965C18.2594 250.965 0.995364 295.269 0.995363 302.549L0.995363 303.797Z" fill="#F7F5F8" style="mix-blend-mode:multiply"/>
<path d="M0.995358 436.641C4.73936 440.385 3.90736 459.521 7.44335 466.593C13.8914 479.697 35.5234 497.793 50.9154 497.793C56.1154 497.793 72.1313 492.801 75.8753 489.473C83.1553 482.817 109.779 425.825 119.347 425.825C122.467 425.825 129.747 439.345 129.747 442.673C129.747 450.993 121.219 461.185 121.219 469.089C121.219 474.289 138.275 489.473 143.059 489.473C145.971 489.473 149.923 483.233 151.587 480.945C159.907 469.921 163.859 457.441 163.859 443.505C163.859 429.569 150.131 403.153 139.731 393.793C136.819 391.089 132.035 389.633 128.499 388.177C125.379 386.929 120.803 384.641 117.475 384.641C112.899 384.641 106.867 387.345 102.707 389.009C87.1074 395.457 79.6194 405.649 72.9634 421.041C70.6754 426.241 69.4274 432.481 66.0994 437.057C63.6034 440.385 60.6914 443.713 57.9874 446.833C55.9074 449.329 52.5794 453.281 49.2514 453.905C45.2994 453.073 35.7313 438.513 35.7314 434.145C35.7314 417.505 47.3794 406.273 47.3794 403.569C47.3794 400.033 26.5793 383.809 23.0433 383.809C18.2594 383.809 0.995358 428.113 0.995358 435.393L0.995358 436.641Z" fill="#F7F5F8" style="mix-blend-mode:multiply"/>
<path d="M77.7474 561.581C87.3154 561.581 96.6753 558.461 106.243 558.461C115.187 558.461 124.339 560.956 133.283 560.956C138.067 560.956 156.163 561.165 159.075 557.213C160.739 554.924 160.739 550.141 160.739 547.229C160.739 521.645 160.739 521.229 134.323 521.229C117.683 521.229 100.835 523.308 84.1954 523.308C75.6674 523.308 67.1394 522.268 58.6114 522.268C49.0434 522.268 39.4754 522.893 29.9074 522.893C23.4594 522.893 17.0113 521.437 10.5633 521.437C3.07534 521.437 3.07535 544.316 3.07535 549.932C3.07535 551.596 3.07535 553.26 4.11535 554.716C6.81934 558.669 30.5313 559.708 31.3633 559.708C39.4753 560.333 48.6274 561.581 56.7394 561.581L77.7474 561.581Z" fill="#F7F5F8" style="mix-blend-mode:multiply"/>
<path d="M83.7793 586.043C78.7874 586.043 74.6273 587.291 69.8433 588.331C38.0193 595.195 10.7714 611.003 4.73935 645.531C4.11536 649.691 2.65935 655.307 2.65935 659.259C2.65935 665.291 2.86736 675.067 4.73935 680.683C8.48335 692.539 23.2513 711.467 33.0273 718.539C37.3953 721.659 51.5394 726.859 57.1553 727.691C65.2673 728.731 74.4193 728.315 82.5313 728.315C90.8513 728.315 99.7953 728.523 108.115 727.483C113.107 726.859 117.683 724.779 122.051 722.699C147.427 710.843 163.235 687.547 163.235 658.843C163.235 644.283 159.699 627.851 150.755 615.995C148.467 612.875 144.931 611.003 141.811 608.715C127.043 597.899 102.499 586.043 83.7793 586.043ZM35.5233 658.219C35.5233 658.635 34.6913 658.219 34.8993 657.803C35.9393 653.851 38.2274 646.363 40.5154 643.035C41.3474 641.579 46.3394 638.043 47.7954 637.003C50.4994 635.131 53.4113 632.635 56.5313 631.595C61.9393 629.931 81.2834 628.683 87.5233 628.683C106.243 628.683 120.803 630.971 127.043 650.523C127.875 652.811 129.747 658.011 129.747 660.299C129.747 672.571 127.251 676.107 117.891 682.971C115.187 685.051 111.027 687.963 107.907 689.003C101.667 690.875 91.4753 690.251 85.4433 690.251C73.5873 690.251 58.8194 689.003 48.6274 682.555C46.5473 681.307 42.5954 679.019 41.3474 677.147C38.0193 671.531 38.8514 663.627 35.5233 658.219Z" fill="#F7F5F8" style="mix-blend-mode:multiply"/>
<path d="M111.443 788.039L112.691 788.871L113.107 789.703C107.907 796.567 17.0113 831.719 7.65133 843.991C5.77934 846.279 6.40333 850.855 6.40333 853.559C6.40333 881.847 0.78733 882.263 29.6993 882.263C38.8513 882.263 48.0033 882.263 57.1553 881.639C65.6833 881.223 74.4193 879.351 82.9473 879.351C91.4753 879.351 100.003 880.807 108.531 881.223C121.843 881.847 135.779 882.055 149.091 882.055C164.275 882.055 161.363 875.399 161.363 862.711C161.363 855.847 163.651 843.575 153.875 843.575C147.635 843.575 141.187 844.407 134.947 844.407C126.003 844.407 116.851 843.991 107.907 844.615C103.123 845.031 97.9233 846.487 93.1393 847.319C79.6193 850.023 65.2673 852.311 51.3313 852.311L50.0833 852.103C52.1633 848.983 66.7233 843.575 69.0113 842.535C76.0833 839.207 82.5313 835.255 89.6033 832.135C96.2593 829.223 103.123 827.351 109.571 824.023C119.139 819.239 128.083 813.623 137.443 808.631C142.227 806.135 154.707 801.767 157.619 798.023C160.115 794.695 159.907 778.263 159.907 776.183C159.907 771.191 162.195 758.503 154.291 758.503C148.259 758.503 142.227 759.751 135.987 759.751C127.251 759.751 118.723 757.879 109.987 757.879C101.043 757.879 92.3073 760.167 83.3633 760.167C74.2113 760.167 65.2673 758.295 56.1153 758.295C48.2113 758.295 40.3073 759.127 32.4033 759.127C25.3313 759.127 18.2594 757.671 11.1873 757.671C2.86734 757.671 3.28334 778.679 3.28334 784.919C3.28334 794.903 25.7473 793.655 31.1553 794.071C39.4753 794.903 48.4193 795.943 56.7393 795.943C66.0993 795.943 75.8753 795.319 85.2353 794.071C93.3473 793.031 102.499 787.415 110.403 788.039L111.443 788.039Z" fill="#F7F5F8" style="mix-blend-mode:multiply"/>
</svg>
