<svg width="1440" height="368" viewBox="0 0 1440 368" fill="none" xmlns="http://www.w3.org/2000/svg">
<path d="M-196.643 138.736C-196.643 146.64 -199.555 161.408 -188.739 162.864C-181.251 163.904 -173.971 164.944 -166.483 164.944C-165.027 164.944 -163.363 164.736 -162.115 163.904C-156.291 159.952 -157.747 117.52 -154.003 113.152C-150.259 108.784 -105.539 118.352 -88.8993 90.48C-86.1953 85.904 -83.2833 81.952 -82.0353 76.752C-80.5793 70.928 -78.4993 64.272 -78.4993 58.24C-78.4993 54.288 -79.9553 50.128 -80.9953 46.384C-89.7313 15.808 -109.907 6.656 -140.275 6.656C-149.635 6.656 -158.995 8.94401 -168.355 8.94401C-175.219 8.94401 -181.875 7.90401 -188.531 7.90401C-189.779 7.90401 -191.651 8.11201 -192.691 8.94401C-195.603 11.44 -196.643 31.824 -196.643 36.608C-196.643 42.432 -195.811 48.464 -195.187 54.288C-193.731 69.056 -193.939 85.488 -193.939 100.048C-193.939 112.944 -196.643 125.84 -196.643 138.736ZM-143.187 82.784C-160.659 82.784 -158.787 80.912 -158.787 64.896C-158.787 58.864 -157.123 44.72 -154.835 39.52C-153.379 38.272 -150.259 38.272 -148.387 38.272C-143.395 38.272 -124.051 39.312 -120.723 41.392C-117.811 43.264 -114.899 54.704 -114.899 58.24C-114.899 60.944 -116.771 65.104 -117.811 67.6C-118.851 70.304 -120.099 74.464 -122.179 76.336C-126.131 79.872 -137.779 82.784 -143.187 82.784Z" fill="#F7F5F8"/>
<path d="M-2.0544 166.192L-0.182404 165.36C3.97759 165.36 15.2096 164.736 18.9536 163.488C23.3216 162.032 39.5456 154.128 39.5456 149.552C39.5456 145.392 32.8896 131.664 28.3136 131.664C20.6176 131.664 13.1296 137.072 5.2256 137.072C1.8976 137.072 -13.4944 134.784 -15.5744 132.912C-17.8624 130.624 -19.1104 127.296 -20.1504 124.384C-20.7744 122.928 -22.4384 119.6 -22.4384 118.144C-22.4384 117.52 -22.4384 117.104 -22.2304 116.48C-18.2784 113.776 -7.0464 113.776 -2.26241 113.776C9.1776 113.776 20.6176 114.4 32.0576 114.4C33.9296 114.4 40.1696 114.4 41.6256 113.36C43.9136 111.696 45.1616 100.256 45.1616 97.344C45.1616 92.352 42.4576 71.968 40.5856 68.016C38.7136 63.856 35.1776 60.528 32.2656 57.2C29.5616 54.08 26.4416 50.128 22.4896 48.256C17.7056 45.968 1.68961 43.472 -3.7184 43.472C-36.1664 43.472 -53.4304 58.448 -58.8384 90.272C-59.4624 94.432 -60.5024 98.592 -60.5024 102.96C-60.5024 114.4 -53.0144 139.36 -45.3184 147.888C-37.2064 156.832 -14.5344 166.192 -2.67839 166.192H-2.0544ZM-22.4384 87.776C-22.4384 82.784 -15.7824 70.096 -9.7504 70.096C-6.0064 70.096 16.8736 73.008 16.8736 77.376C16.8736 88.4 13.1296 91.104 2.7296 91.104C-1.2224 91.104 -19.1104 91.728 -21.6064 89.648L-22.4384 87.776Z" fill="#F7F5F8"/>
<path d="M106.252 136.032C107.084 127.504 107.916 118.976 108.332 110.448C109.164 93.808 102.924 87.36 116.86 79.664C118.732 78.624 121.852 76.544 124.14 76.544C129.132 76.544 141.612 94.016 141.612 99.424C141.612 105.664 140.364 112.112 140.364 118.56C140.364 125.632 140.78 132.704 140.78 139.776C140.78 144.976 139.74 149.968 139.74 155.168C139.74 161.2 141.196 162.24 147.228 162.24C175.724 162.24 178.428 166.608 178.428 136.656C178.428 128.544 177.596 120.432 177.596 112.32C177.596 89.44 180.716 62.608 159.292 47.632C156.796 45.76 153.052 45.136 150.14 44.096C147.02 43.056 143.692 42.016 140.364 42.016C130.172 42.016 119.564 46.176 111.452 52C109.996 53.04 103.34 57.408 102.716 58.448L101.884 58.032C99.8038 50.96 101.26 44.512 92.1078 44.512C87.1158 44.512 68.3958 43.264 68.3958 50.336C68.3958 56.368 70.8918 62.816 70.8918 68.848C71.0998 84.032 71.0998 99.008 71.0998 114.192C71.0998 127.92 68.3958 141.648 68.3958 155.168C68.3958 157.248 68.1878 159.744 70.0598 161.2C73.1798 163.696 92.1078 164.944 96.4758 164.944C105.004 164.944 104.172 157.456 104.796 151.008L106.252 136.032Z" fill="#F7F5F8"/>
<path d="M252.518 165.36C257.926 165.36 276.646 165.984 276.646 158.912C276.646 136.448 273.318 133.744 255.846 121.888C254.39 121.056 252.934 119.808 252.102 118.352C251.27 116.896 247.734 83.408 247.734 79.872C247.734 68.848 277.062 81.952 277.062 67.808C277.062 61.984 278.518 43.68 269.99 43.68L261.67 43.68C258.55 43.68 252.31 44.512 250.022 42.224C245.862 38.064 248.774 19.76 244.614 15.184C242.118 12.48 230.054 12.48 226.31 12.48C208.838 12.48 220.486 32.032 213.622 40.56C209.254 45.968 195.11 39.312 195.11 50.752C195.11 54.288 194.278 74.048 199.062 74.048C203.014 74.048 206.55 72.8 210.086 74.672C210.502 75.712 210.502 76.752 210.502 77.792C210.502 83.824 209.046 89.856 209.046 95.888C209.046 107.536 211.334 131.664 215.91 142.272C217.366 145.808 226.31 155.584 229.638 157.872C232.55 159.952 236.71 160.576 240.038 161.616L252.518 165.36Z" fill="#F7F5F8"/>
<path d="M327.255 166.4C333.703 165.152 343.479 164.32 349.095 160.576C352.423 158.496 358.663 153.088 362.199 152.256C365.111 153.296 364.903 160.368 368.647 162.24C371.975 163.696 385.703 164.528 389.655 164.528C390.903 164.528 392.151 164.32 393.191 163.696C396.103 161.824 397.559 143.312 397.559 139.152C397.559 131.04 396.311 123.136 396.311 115.024C396.311 108.368 397.143 101.504 396.311 94.848C392.567 66.768 380.711 40.352 348.263 40.352C333.911 40.352 322.263 43.888 310.199 51.168C307.079 53.04 300.423 56.16 300.423 60.32C300.423 64.272 308.951 78.832 313.319 78.832C321.223 78.832 329.127 72.176 337.863 72.176C341.191 72.176 355.543 82.368 355.543 85.072C355.543 87.776 333.287 91.104 329.751 91.728C322.263 93.184 306.455 101.504 301.879 107.328C299.591 110.032 297.927 114.4 296.471 117.728C294.807 121.264 292.935 125.008 292.935 128.96C292.935 133.328 295.015 137.488 296.471 141.44C298.135 145.392 299.591 150.176 302.295 153.504C304.791 156.624 323.095 165.36 327.255 166.4ZM359.287 119.184C359.287 128.128 358.247 128.96 350.967 133.536C349.303 134.576 344.727 137.072 343.063 137.488C340.567 136.864 331.831 130 330.791 127.92C330.375 115.648 346.599 109.616 356.791 109.616C357.207 109.616 357.831 109.824 358.247 110.032C358.871 110.864 359.287 111.696 359.287 112.736V119.184Z" fill="#F7F5F8"/>
<path d="M515.796 72.592C520.372 70.512 531.812 73.216 531.812 66.56C531.812 62.608 531.188 48.464 528.9 45.968C527.028 43.888 523.076 44.304 520.372 44.304C510.18 44.304 499.572 44.512 489.38 43.68C482.932 43.056 476.9 40.976 470.452 40.976C454.644 40.976 436.34 47.008 427.188 60.736C424.9 64.064 424.068 68.848 422.82 72.8C421.78 75.92 420.532 79.248 420.532 82.576C420.532 92.56 439.044 112.32 439.044 116.064H438.42L437.38 116.272C434.676 118.976 427.188 132.704 427.188 136.448C427.188 142.896 434.676 153.712 434.676 158.288C434.676 161.408 421.156 179.504 421.156 185.744C421.156 204.464 449.028 212.784 464.42 212.784C472.532 212.784 485.22 212.992 493.124 210.912C502.9 208.208 525.78 195.728 530.772 186.992C532.436 183.872 534.932 175.136 534.932 171.6C534.932 168.064 530.564 162.448 528.484 159.536C526.404 156.416 522.868 151.84 519.956 149.76C506.436 140.192 471.7 142.896 454.852 131.456C468.164 121.68 485.428 126.464 503.108 113.568C512.052 107.12 512.468 106.288 514.756 95.472C515.588 92.144 516.836 88.192 516.836 84.656C516.836 80.912 516.004 78 515.172 74.464L515.796 72.592ZM470.244 103.584C469.828 103.376 469.62 102.96 469.412 102.544C460.468 97.344 452.98 93.808 452.98 81.744C452.98 78 466.5 65.728 470.452 65.728C477.94 65.728 486.052 74.88 486.052 82.16C486.052 89.024 472.324 98.176 470.244 103.584ZM469.828 191.568C466.916 191.568 463.38 191.776 460.676 190.112C458.596 188.864 448.82 177.424 448.82 175.552C448.82 169.728 478.98 164.112 484.388 164.112C488.132 164.112 498.116 171.6 498.116 175.136C498.116 178.464 473.988 191.568 469.828 191.568Z" fill="#F7F5F8"/>
<path d="M547.04 101.92C547.04 106.912 548.288 111.488 549.328 116.48C550.16 121.264 550.784 126.048 552.448 130.624C553.696 133.952 556.192 137.072 558.272 139.984C569.712 157.04 584.896 165.152 605.696 165.152C610.064 165.152 620.464 164.112 624.416 162.656C635.024 158.496 654.992 140.192 659.152 129.584C660.4 126.464 663.936 109.616 663.936 106.496C663.936 100.048 657.696 84.656 655.824 79.872C655.2 78.416 648.336 61.984 645.632 59.28C634.4 47.84 620.672 41.808 604.656 41.808C600.704 41.808 596.96 42.848 593.216 43.472C567.424 47.84 555.152 64.272 549.536 88.816C548.496 92.976 547.04 97.552 547.04 101.92ZM625.248 105.456C625.248 116.688 623.168 124.8 613.184 130.416C611.312 131.456 606.736 134.368 604.656 134.368C601.744 134.368 599.456 132.08 597.168 130.624C594.672 128.96 591.76 127.712 590.096 125.008C588.432 122.304 583.024 105.664 583.024 102.752C583.024 98.8 586.144 83.824 588.224 80.704C589.888 78 592.8 77.168 595.504 75.92C597.792 74.672 600.496 73.216 603.2 73.216C605.696 73.216 609.856 75.296 612.144 76.336C615.056 77.584 618.384 79.04 620.256 81.744C622.544 85.072 625.248 101.088 625.248 105.456Z" fill="#F7F5F8"/>
<path d="M722.533 136.032C723.365 127.504 724.197 118.976 724.613 110.448C725.445 93.808 719.205 87.36 733.141 79.664C735.013 78.624 738.133 76.544 740.421 76.544C745.413 76.544 757.893 94.016 757.893 99.424C757.893 105.664 756.645 112.112 756.645 118.56C756.645 125.632 757.061 132.704 757.061 139.776C757.061 144.976 756.021 149.968 756.021 155.168C756.021 161.2 757.477 162.24 763.509 162.24C792.005 162.24 794.709 166.608 794.709 136.656C794.709 128.544 793.877 120.432 793.877 112.32C793.877 89.44 796.997 62.608 775.573 47.632C773.077 45.76 769.333 45.136 766.421 44.096C763.301 43.056 759.973 42.016 756.645 42.016C746.453 42.016 735.845 46.176 727.733 52C726.277 53.04 719.621 57.408 718.997 58.448L718.165 58.032C716.085 50.96 717.541 44.512 708.389 44.512C703.397 44.512 684.677 43.264 684.677 50.336C684.677 56.368 687.173 62.816 687.173 68.848C687.381 84.032 687.381 99.008 687.381 114.192C687.381 127.92 684.677 141.648 684.677 155.168C684.677 157.248 684.469 159.744 686.341 161.2C689.461 163.696 708.389 164.944 712.757 164.944C721.285 164.944 720.453 157.456 721.077 151.008L722.533 136.032Z" fill="#F7F5F8"/>
<path d="M824.703 66.56C824.703 68.848 829.487 78.832 831.775 79.456C834.895 79.04 838.015 76.96 840.719 75.504C855.279 67.184 868.799 46.384 868.799 29.328C868.799 25.376 865.263 9.98401 862.767 7.28001C860.687 4.99201 856.319 3.744 853.407 2.49601C851.327 1.664 847.583 0 845.295 0C841.135 0 829.071 14.144 829.071 18.096C829.071 23.712 843.423 29.536 843.423 37.024C843.423 60.528 824.703 59.488 824.703 66.56Z" fill="#F7F5F8"/>
<path d="M968.159 115.44C967.119 112.736 964.415 106.288 962.335 104.416C958.799 101.088 944.031 96.096 938.831 93.392C935.295 91.52 931.759 88.4 928.639 85.904C926.351 84.032 921.775 81.12 920.527 78.624C920.527 75.712 926.975 69.472 930.095 69.472C936.751 69.472 945.279 76.752 952.143 76.752C956.303 76.752 966.911 61.984 966.911 58.24C966.911 48.88 936.543 40.352 929.055 40.352C924.271 40.352 908.463 43.056 904.511 45.344C894.319 51.168 883.295 67.184 883.295 79.04C883.295 82.576 888.703 98.176 890.783 100.88C895.359 106.704 934.463 123.344 934.463 128.752C934.463 131.04 924.479 136.032 921.983 136.032C915.535 136.032 899.935 126.672 892.239 126.672C887.039 126.672 876.847 142.896 876.847 147.68C876.847 150.176 883.503 153.92 885.375 155.168C896.607 162.032 909.711 166.192 922.815 166.192L922.399 165.776C929.471 162.864 939.247 164.944 946.527 161.824C957.967 157.04 971.903 139.776 971.903 126.88C971.903 123.968 969.199 118.352 968.159 115.44ZM923.231 166.192C923.023 166.192 923.023 166.192 922.815 166.192H923.231Z" fill="#F7F5F8"/>
<path d="M857.917 257.744L858.541 258.16L858.749 259.616C858.749 267.728 856.877 276.048 856.253 284.16C855.629 292.688 855.629 301.424 855.005 309.952C854.381 320.768 852.301 331.792 852.301 342.608C852.301 366.944 853.133 365.488 879.133 365.488C883.085 365.488 885.581 364.448 886.829 360.496C891.821 344.064 889.741 325.76 889.741 309.12C889.741 303.296 890.365 297.472 890.365 291.648C890.365 274.384 887.661 257.328 887.661 240.064C887.661 232.368 889.741 224.464 889.741 216.768C889.741 215.312 889.741 213.856 888.909 212.608C887.037 209.488 871.645 208.448 867.693 208.448C863.741 208.448 852.717 209.488 850.013 211.984C847.309 214.48 839.821 229.664 838.781 232.576C837.325 236.32 836.285 240.064 835.037 243.808C831.709 254.624 829.421 266.272 825.469 276.88C822.973 283.744 819.645 290.608 816.941 297.472C816.109 299.552 814.653 302.256 814.653 304.336C810.285 297.056 803.213 267.936 800.301 258.16C797.597 248.592 792.813 239.232 788.861 230.08C786.365 224.464 784.285 208.448 777.421 208.448C770.973 208.448 764.317 209.904 757.869 209.904C754.333 209.904 750.589 209.696 747.053 210.112C740.813 210.736 740.813 234.656 740.813 240.064C740.813 255.04 742.685 270.224 742.685 285.408C742.685 309.328 739.981 333.248 739.981 357.168C739.981 359.456 740.189 361.744 741.853 363.2C744.765 365.904 761.821 366.528 766.189 366.528C776.173 366.528 774.509 342.608 774.925 338.032C775.757 329.504 777.005 320.56 777.005 312.032C777.005 302.048 776.381 290.192 773.885 280.416C773.053 276.88 768.893 263.984 768.893 261.28C768.893 260.24 769.101 258.992 770.349 258.992C770.557 258.992 770.973 258.992 771.181 259.2C776.381 273.344 796.765 342.608 804.877 348.64C807.581 350.512 811.949 350.304 815.069 350.304C817.981 350.304 822.557 350.72 824.845 348.432C826.093 347.184 826.925 345.728 827.549 344.064C831.085 334.912 833.373 325.136 837.325 316.192C841.693 306.208 846.477 297.056 849.389 286.24C850.013 283.744 854.797 261.696 857.085 257.952L857.917 257.744Z" fill="#F7F5F8"/>
<path d="M988.323 364.656C994.355 364.656 1025.14 368.192 1025.14 359.248C1025.14 353.424 1024.1 348.016 1023.06 342.4C1021.6 333.664 1011.83 334.912 1004.76 334.288C997.475 333.664 989.571 332.832 982.291 332.832C959.411 332.832 960.035 335.12 960.035 309.328C960.035 293.312 1000.18 303.712 1010.58 297.056C1014.11 294.768 1013.49 289.776 1013.49 286.032C1013.49 281.872 1014.32 268.352 1008.5 268.352C1000.59 268.352 992.691 270.64 984.787 270.64C962.323 270.64 959.203 269.6 959.203 246.304C959.203 239.232 967.107 240.48 972.099 240.48C983.747 240.48 995.187 240.48 1006.83 240.272C1024.31 239.856 1022.64 237.36 1022.64 220.304C1022.64 209.696 1023.06 208.448 1011.83 208.448C990.403 208.448 968.355 209.28 946.931 210.736C941.315 211.152 935.907 210.736 930.291 211.152C929.043 211.36 928.003 211.776 927.171 212.608C925.299 214.48 925.715 221.76 925.715 224.464C925.507 229.04 925.299 233.408 925.299 237.984C925.299 245.472 925.923 252.752 925.923 260.24C925.923 277.504 923.219 294.976 923.219 312.24C923.219 321.6 925.715 330.752 925.715 340.112C925.715 346.768 923.219 353.632 923.219 360.288C923.219 366.736 941.939 366.528 947.139 366.528C956.083 366.528 965.027 364.656 973.971 364.656H988.323Z" fill="#F7F5F8"/>
<path d="M1171.34 257.744L1171.96 258.16L1172.17 259.616C1172.17 267.728 1170.3 276.048 1169.67 284.16C1169.05 292.688 1169.05 301.424 1168.43 309.952C1167.8 320.768 1165.72 331.792 1165.72 342.608C1165.72 366.944 1166.55 365.488 1192.55 365.488C1196.51 365.488 1199 364.448 1200.25 360.496C1205.24 344.064 1203.16 325.76 1203.16 309.12C1203.16 303.296 1203.79 297.472 1203.79 291.648C1203.79 274.384 1201.08 257.328 1201.08 240.064C1201.08 232.368 1203.16 224.464 1203.16 216.768C1203.16 215.312 1203.16 213.856 1202.33 212.608C1200.46 209.488 1185.07 208.448 1181.11 208.448C1177.16 208.448 1166.14 209.488 1163.43 211.984C1160.73 214.48 1153.24 229.664 1152.2 232.576C1150.75 236.32 1149.71 240.064 1148.46 243.808C1145.13 254.624 1142.84 266.272 1138.89 276.88C1136.39 283.744 1133.07 290.608 1130.36 297.472C1129.53 299.552 1128.07 302.256 1128.07 304.336C1123.71 297.056 1116.63 267.936 1113.72 258.16C1111.02 248.592 1106.23 239.232 1102.28 230.08C1099.79 224.464 1097.71 208.448 1090.84 208.448C1084.39 208.448 1077.74 209.904 1071.29 209.904C1067.75 209.904 1064.01 209.696 1060.47 210.112C1054.23 210.736 1054.23 234.656 1054.23 240.064C1054.23 255.04 1056.11 270.224 1056.11 285.408C1056.11 309.328 1053.4 333.248 1053.4 357.168C1053.4 359.456 1053.61 361.744 1055.27 363.2C1058.19 365.904 1075.24 366.528 1079.61 366.528C1089.59 366.528 1087.93 342.608 1088.35 338.032C1089.18 329.504 1090.43 320.56 1090.43 312.032C1090.43 302.048 1089.8 290.192 1087.31 280.416C1086.47 276.88 1082.31 263.984 1082.31 261.28C1082.31 260.24 1082.52 258.992 1083.77 258.992C1083.98 258.992 1084.39 258.992 1084.6 259.2C1089.8 273.344 1110.19 342.608 1118.3 348.64C1121 350.512 1125.37 350.304 1128.49 350.304C1131.4 350.304 1135.98 350.72 1138.27 348.432C1139.51 347.184 1140.35 345.728 1140.97 344.064C1144.51 334.912 1146.79 325.136 1150.75 316.192C1155.11 306.208 1159.9 297.056 1162.81 286.24C1163.43 283.744 1168.22 261.696 1170.51 257.952L1171.34 257.744Z" fill="#F7F5F8"/>
<path d="M1235.18 314.736C1235.18 327.008 1235.6 339.072 1235.6 351.344C1235.6 354.048 1235.18 361.12 1237.26 362.992C1240.38 365.904 1259.52 366.736 1264.51 366.736C1280.53 366.736 1296.75 364.24 1312.56 362.368C1326.29 360.704 1328.37 361.12 1339.81 352.8C1342.72 350.72 1347.3 347.808 1349.38 344.896C1351.87 341.152 1353.95 326.176 1353.95 321.392C1353.95 316.608 1351.46 300.176 1348.96 296.432C1345.84 291.648 1331.07 284.784 1331.07 280.832C1331.07 279.584 1348.13 265.024 1348.13 247.344C1348.13 243.6 1346.67 239.024 1345.63 235.488C1344.8 232.16 1343.55 226.752 1341.26 224.256C1337.73 220.304 1325.25 213.648 1320.05 212.192C1311.52 209.904 1301.54 211.984 1292.59 211.36C1283.23 210.736 1273.66 209.28 1264.51 209.28C1258.69 209.28 1235.39 206.784 1235.39 215.104C1235.39 220.096 1236.22 225.296 1236.64 230.288C1238.1 245.264 1237.89 261.488 1237.89 276.256C1237.89 289.152 1235.18 302.048 1235.18 314.736ZM1277.2 271.472C1274.91 271.472 1274.5 268.56 1274.5 266.688C1274.5 262.736 1276.37 240.272 1280.11 239.648C1281.36 239.44 1282.82 239.44 1284.06 239.44C1290.1 239.44 1312.14 247.76 1312.14 252.336C1312.14 255.664 1294.67 268.144 1290.93 269.808C1288.22 271.056 1285.1 271.472 1282.19 271.472H1277.2ZM1316.51 319.312C1316.51 321.808 1313.81 329.504 1311.94 331.168C1308.19 334.496 1283.86 337.408 1278.24 337.408C1275.74 337.408 1274.5 336.576 1274.5 333.872C1274.5 328.672 1275.95 323.264 1275.95 318.064C1275.95 312.448 1274.5 307.04 1274.5 301.424C1274.5 298.72 1275.54 297.68 1278.24 297.68C1281.57 297.68 1291.76 298.928 1294.88 300.384C1299.46 302.672 1316.51 314.32 1316.51 319.312Z" fill="#F7F5F8"/>
<path d="M1446.37 364.656C1452.4 364.656 1483.19 368.192 1483.19 359.248C1483.19 353.424 1482.15 348.016 1481.11 342.4C1479.65 333.664 1469.87 334.912 1462.8 334.288C1455.52 333.664 1447.62 332.832 1440.34 332.832C1417.46 332.832 1418.08 335.12 1418.08 309.328C1418.08 293.312 1458.23 303.712 1468.63 297.056C1472.16 294.768 1471.54 289.776 1471.54 286.032C1471.54 281.872 1472.37 268.352 1466.55 268.352C1458.64 268.352 1450.74 270.64 1442.83 270.64C1420.37 270.64 1417.25 269.6 1417.25 246.304C1417.25 239.232 1425.15 240.48 1430.15 240.48C1441.79 240.48 1453.23 240.48 1464.88 240.272C1482.35 239.856 1480.69 237.36 1480.69 220.304C1480.69 209.696 1481.11 208.448 1469.87 208.448C1448.45 208.448 1426.4 209.28 1404.98 210.736C1399.36 211.152 1393.95 210.736 1388.34 211.152C1387.09 211.36 1386.05 211.776 1385.22 212.608C1383.35 214.48 1383.76 221.76 1383.76 224.464C1383.55 229.04 1383.35 233.408 1383.35 237.984C1383.35 245.472 1383.97 252.752 1383.97 260.24C1383.97 277.504 1381.27 294.976 1381.27 312.24C1381.27 321.6 1383.76 330.752 1383.76 340.112C1383.76 346.768 1381.27 353.632 1381.27 360.288C1381.27 366.736 1399.99 366.528 1405.19 366.528C1414.13 366.528 1423.07 364.656 1432.02 364.656H1446.37Z" fill="#F7F5F8"/>
<path d="M1603.18 365.488C1609 365.488 1635 364.864 1636.46 363.408C1636.46 360.912 1606.51 312.032 1606.51 303.712C1606.51 297.472 1618.57 290.192 1622.31 284.576C1624.81 281.04 1625.64 276.672 1627.1 272.512C1628.55 268.144 1630.63 263.152 1630.63 258.368C1630.63 255.04 1629.39 250.88 1628.55 247.552C1627.51 243.6 1627.1 239.232 1625.23 235.488C1623.56 232.16 1620.86 229.872 1618.15 227.376C1603.39 213.44 1590.07 210.736 1569.9 209.488C1560.75 208.864 1551.18 208.24 1542.03 208.24C1540.57 208.24 1516.44 207.408 1512.49 210.528C1510.41 212.192 1510.83 216.56 1510.83 219.056C1510.83 232.576 1509.99 250.048 1511.45 262.528C1512.49 271.056 1514.15 279.792 1514.57 288.32C1515.19 297.472 1514.36 306.208 1514.36 315.36C1514.36 321.184 1514.99 327.008 1514.99 332.832C1514.99 341.568 1513.95 350.096 1513.95 358.832C1513.95 367.152 1536.41 367.152 1542.44 367.152C1543.9 367.152 1545.56 366.944 1546.81 366.112C1550.35 363.408 1552.22 343.648 1552.22 338.656C1552.22 329.92 1549.93 321.392 1549.93 312.864C1549.93 310.368 1550.76 308.704 1553.47 308.704C1557 308.704 1566.57 309.952 1569.07 312.448C1574.68 317.856 1586.33 357.584 1596.11 364.032C1598.19 365.488 1600.89 365.488 1603.18 365.488ZM1564.28 282.496C1551.59 282.496 1551.39 282.288 1550.76 270.432C1550.35 261.488 1549.1 252.336 1549.1 243.392C1549.1 242.352 1549.31 241.312 1549.72 240.48C1550.35 239.856 1551.39 239.44 1552.22 239.44C1557 239.44 1583 242.352 1586.12 244.224C1588.83 245.888 1594.23 255.872 1594.23 258.992C1594.23 262.112 1590.28 273.552 1587.58 275.008C1585.91 276.88 1567.19 282.496 1564.28 282.496Z" fill="#F7F5F8"/>
</svg>
