<svg width="1440" height="369" viewBox="0 0 1440 369" fill="none" xmlns="http://www.w3.org/2000/svg">
<path d="M-105.496 160.16L-105.912 160.368C-105.912 160.576 -105.496 160.368 -105.288 160.368C-89.272 160.368 -80.536 157.248 -68.264 147.472C-65.144 144.976 -58.488 141.024 -58.488 136.448C-58.488 132.288 -69.928 117.104 -74.296 117.104C-80.536 117.104 -96.344 128.752 -104.456 128.752C-108.2 128.752 -121.304 125.84 -124.632 123.968C-133.16 119.184 -140.232 87.36 -140.232 78C-140.232 67.6 -132.952 44.304 -123.592 38.48C-119.016 35.568 -109.448 32.448 -104.04 32.448C-98.008 32.448 -85.32 40.352 -78.664 40.352C-74.088 40.352 -60.568 23.504 -60.568 19.136C-60.568 12.48 -98.216 0.416008 -104.664 0.416008C-125.88 0.416008 -141.688 6.656 -156.248 22.048C-158.744 24.544 -162.072 27.456 -163.944 30.576C-170.6 42.016 -174.552 53.248 -177.88 65.936C-179.128 70.304 -181 75.712 -181 80.288C-181 94.64 -174.76 121.056 -166.024 132.496C-162.488 137.28 -148.552 147.68 -143.144 150.8C-138.36 153.504 -133.16 157.248 -127.752 158.496C-120.888 160.16 -111.944 159.328 -105.08 159.536L-105.496 160.16Z" fill="#F7F5F8"/>
<path d="M-42.2656 79.456C-42.2656 84.448 -41.0176 88.608 -39.9776 93.392C-33.1136 125.216 -17.3056 152.464 17.2224 158.496C21.3824 159.12 26.9984 160.576 30.9504 160.576C36.9824 160.576 46.7584 160.368 52.3744 158.496C64.2304 154.752 83.1584 139.984 90.2304 130.208C93.3504 125.84 98.5504 111.696 99.3824 106.08C100.422 97.968 100.006 88.816 100.006 80.704C100.006 72.384 100.214 63.44 99.1744 55.12C98.5504 50.128 96.4704 45.552 94.3904 41.184C82.5344 15.808 59.2384 0 30.5344 0C15.9744 0 -0.457626 3.536 -12.3136 12.48C-15.4336 14.768 -17.3056 18.304 -19.5936 21.424C-30.4096 36.192 -42.2656 60.736 -42.2656 79.456ZM29.9104 127.712C30.3264 127.712 29.9104 128.544 29.4944 128.336C25.5424 127.296 18.0544 125.008 14.7264 122.72C13.2704 121.888 9.73438 116.896 8.69438 115.44C6.82239 112.736 4.32637 109.824 3.28638 106.704C1.62238 101.296 0.374374 81.952 0.374374 75.712C0.374374 56.992 2.66237 42.432 22.2144 36.192C24.5024 35.36 29.7024 33.488 31.9904 33.488C44.2624 33.488 47.7984 35.984 54.6624 45.344C56.7424 48.048 59.6544 52.208 60.6944 55.328C62.5664 61.568 61.9424 71.76 61.9424 77.792C61.9424 89.648 60.6944 104.416 54.2464 114.608C52.9984 116.688 50.7104 120.64 48.8384 121.888C43.2224 125.216 35.3184 124.384 29.9104 127.712Z" fill="#F7F5F8"/>
<path d="M246.674 50.96L247.298 51.376L247.506 52.832C247.506 60.944 245.634 69.264 245.01 77.376C244.386 85.904 244.386 94.64 243.762 103.168C243.138 113.984 241.058 125.008 241.058 135.824C241.058 160.16 241.89 158.704 267.89 158.704C271.842 158.704 274.338 157.664 275.586 153.712C280.578 137.28 278.498 118.976 278.498 102.336C278.498 96.512 279.122 90.688 279.122 84.864C279.122 67.6 276.418 50.544 276.418 33.28C276.418 25.584 278.498 17.68 278.498 9.98401C278.498 8.528 278.498 7.07201 277.666 5.82401C275.794 2.704 260.402 1.664 256.45 1.664C252.498 1.664 241.474 2.704 238.77 5.20001C236.066 7.696 228.578 22.88 227.538 25.792C226.082 29.536 225.042 33.28 223.794 37.024C220.466 47.84 218.178 59.488 214.226 70.096C211.73 76.96 208.402 83.824 205.698 90.688C204.866 92.768 203.41 95.472 203.41 97.552C199.042 90.272 191.97 61.152 189.058 51.376C186.354 41.808 181.57 32.448 177.618 23.296C175.122 17.68 173.042 1.664 166.178 1.664C159.73 1.664 153.074 3.12001 146.626 3.12001C143.09 3.12001 139.346 2.912 135.81 3.32801C129.57 3.95201 129.57 27.872 129.57 33.28C129.57 48.256 131.442 63.44 131.442 78.624C131.442 102.544 128.738 126.464 128.738 150.384C128.738 152.672 128.946 154.96 130.61 156.416C133.522 159.12 150.578 159.744 154.946 159.744C164.93 159.744 163.266 135.824 163.682 131.248C164.514 122.72 165.762 113.776 165.762 105.248C165.762 95.264 165.138 83.408 162.642 73.632C161.81 70.096 157.65 57.2 157.65 54.496C157.65 53.456 157.858 52.208 159.106 52.208C159.314 52.208 159.73 52.208 159.938 52.416C165.138 66.56 185.522 135.824 193.634 141.856C196.338 143.728 200.706 143.52 203.826 143.52C206.738 143.52 211.314 143.936 213.602 141.648C214.85 140.4 215.682 138.944 216.306 137.28C219.842 128.128 222.13 118.352 226.082 109.408C230.45 99.424 235.234 90.272 238.146 79.456C238.77 76.96 243.554 54.912 245.842 51.168L246.674 50.96Z" fill="#F7F5F8"/>
<path d="M310.52 133.952C310.52 141.856 307.608 156.624 318.424 158.08C325.912 159.12 333.192 160.16 340.68 160.16C342.136 160.16 343.8 159.952 345.048 159.12C350.872 155.168 349.416 112.736 353.16 108.368C356.904 104 401.624 113.568 418.264 85.696C420.968 81.12 423.88 77.168 425.128 71.968C426.584 66.144 428.664 59.488 428.664 53.456C428.664 49.504 427.208 45.344 426.168 41.6C417.432 11.024 397.256 1.872 366.888 1.872C357.528 1.872 348.168 4.16001 338.808 4.16001C331.944 4.16001 325.288 3.12001 318.632 3.12001C317.384 3.12001 315.512 3.32801 314.472 4.16001C311.56 6.656 310.52 27.04 310.52 31.824C310.52 37.648 311.352 43.68 311.976 49.504C313.432 64.272 313.224 80.704 313.224 95.264C313.224 108.16 310.52 121.056 310.52 133.952ZM363.976 78C346.504 78 348.376 76.128 348.376 60.112C348.376 54.08 350.04 39.936 352.328 34.736C353.784 33.488 356.904 33.488 358.776 33.488C363.768 33.488 383.112 34.528 386.44 36.608C389.352 38.48 392.264 49.92 392.264 53.456C392.264 56.16 390.392 60.32 389.352 62.816C388.312 65.52 387.064 69.68 384.984 71.552C381.032 75.088 369.384 78 363.976 78Z" fill="#F7F5F8"/>
<path d="M505.109 120.64C510.309 120.64 525.701 121.68 529.237 125.216C533.813 129.792 534.853 151.216 538.597 155.792C540.677 158.288 544.005 157.872 546.917 157.872C548.373 157.872 575.205 160.368 575.205 153.712C575.205 137.904 557.733 99.424 552.949 81.536C550.453 72.384 547.957 63.232 544.629 54.288C541.301 45.552 536.933 37.232 534.021 28.496C532.565 23.92 529.861 7.07201 527.157 4.576C524.453 2.28801 494.917 2.08001 489.093 2.08001C483.269 2.08001 480.773 10.4 479.109 14.768C470.789 36.4 463.925 59.072 458.309 81.536C455.813 91.728 455.605 102.544 452.485 112.736C449.365 122.928 439.797 145.184 439.797 152.464C439.797 157.872 461.845 158.496 466.005 158.496C481.397 158.496 478.485 128.336 489.925 123.552C492.629 122.512 502.197 120.64 505.109 120.64ZM494.501 93.392C493.045 93.392 488.677 93.392 488.677 91.312C488.677 90.272 504.485 39.52 505.941 36.608C508.645 43.264 508.853 50.96 510.725 58.032C513.013 66.768 517.381 75.088 519.877 83.824C520.501 86.112 520.917 88.608 520.917 90.896C519.877 93.392 516.341 93.392 514.053 93.392H494.501Z" fill="#F7F5F8"/>
<path d="M622.246 51.792L623.078 50.544L623.91 50.128C630.774 55.328 665.926 146.224 678.198 155.584C680.486 157.456 685.062 156.832 687.766 156.832C716.054 156.832 716.47 162.448 716.47 133.536C716.47 124.384 716.47 115.232 715.846 106.08C715.43 97.552 713.558 88.816 713.558 80.288C713.558 71.76 715.014 63.232 715.43 54.704C716.054 41.392 716.262 27.456 716.262 14.144C716.262 -1.04 709.606 1.872 696.918 1.872C690.054 1.872 677.782 -0.415994 677.782 9.36C677.782 15.6 678.614 22.048 678.614 28.288C678.614 37.232 678.198 46.384 678.822 55.328C679.238 60.112 680.694 65.312 681.526 70.096C684.23 83.616 686.518 97.968 686.518 111.904L686.31 113.152C683.19 111.072 677.782 96.512 676.742 94.224C673.414 87.152 669.462 80.704 666.342 73.632C663.43 66.976 661.558 60.112 658.23 53.664C653.446 44.096 647.83 35.152 642.838 25.792C640.342 21.008 635.974 8.528 632.23 5.616C628.902 3.12001 612.47 3.32801 610.39 3.32801C605.398 3.32801 592.71 1.04001 592.71 8.94401C592.71 14.976 593.958 21.008 593.958 27.248C593.958 35.984 592.086 44.512 592.086 53.248C592.086 62.192 594.374 70.928 594.374 79.872C594.374 89.024 592.502 97.968 592.502 107.12C592.502 115.024 593.334 122.928 593.334 130.832C593.334 137.904 591.878 144.976 591.878 152.048C591.878 160.368 612.886 159.952 619.126 159.952C629.11 159.952 627.862 137.488 628.278 132.08C629.11 123.76 630.15 114.816 630.15 106.496C630.15 97.136 629.526 87.36 628.278 78C627.238 69.888 621.622 60.736 622.246 52.832V51.792Z" fill="#F7F5F8"/>
<path d="M797.105 71.136C792.321 66.352 779.841 13.936 771.313 4.784C769.441 2.704 767.153 2.49601 764.657 2.49601C756.753 2.49601 742.193 2.08001 735.537 3.32801C734.497 3.536 733.665 4.16001 733.665 5.20001C733.665 6.24001 734.081 7.28 734.497 8.32C740.113 23.088 748.641 37.232 755.713 51.584C759.665 59.696 760.497 69.056 764.657 76.96C768.609 84.656 774.849 95.888 775.889 104.416C776.513 108.992 776.513 113.776 776.513 118.352C776.513 126.048 775.681 148.512 778.801 154.336C781.713 159.744 800.433 160.16 806.257 160.16C807.713 160.16 809.377 159.952 810.625 159.12C815.825 155.584 815.617 115.232 818.529 103.584C820.609 95.472 825.601 86.736 829.137 79.04C832.465 71.552 834.129 63.232 837.665 55.536C843.281 43.264 860.545 17.68 860.545 4.784C860.545 2.08001 856.385 2.49601 854.721 2.49601C845.569 2.49601 835.585 2.49601 826.433 3.32801C819.361 3.95201 811.041 34.528 810.417 36.192C808.545 41.6 806.881 47.216 805.009 52.832C803.345 57.824 801.057 66.768 798.145 70.72L797.105 71.136Z" fill="#F7F5F8"/>
<path d="M179.256 293.488C179.256 283.92 176.136 274.56 176.136 264.992C176.136 256.048 178.632 246.896 178.632 237.952C178.632 233.168 178.84 215.072 174.888 212.16C172.6 210.496 167.816 210.496 164.904 210.496C139.32 210.496 138.904 210.496 138.904 236.912C138.904 253.552 140.984 270.4 140.984 287.04C140.984 295.568 139.944 304.096 139.944 312.624C139.944 322.192 140.568 331.76 140.568 341.328C140.568 347.776 139.112 354.224 139.112 360.672C139.112 368.16 161.992 368.16 167.608 368.16C169.272 368.16 170.936 368.16 172.392 367.12C176.344 364.416 177.384 340.704 177.384 339.872C178.008 331.76 179.256 322.608 179.256 314.496V293.488Z" fill="#F7F5F8"/>
<path d="M242.199 259.792L243.031 258.544L243.863 258.128C250.727 263.328 285.879 354.224 298.151 363.584C300.439 365.456 305.015 364.832 307.719 364.832C336.007 364.832 336.423 370.448 336.423 341.536C336.423 332.384 336.423 323.232 335.799 314.08C335.383 305.552 333.511 296.816 333.511 288.288C333.511 279.76 334.967 271.232 335.383 262.704C336.007 249.392 336.215 235.456 336.215 222.144C336.215 206.96 329.559 209.872 316.871 209.872C310.007 209.872 297.735 207.584 297.735 217.36C297.735 223.6 298.567 230.048 298.567 236.288C298.567 245.232 298.151 254.384 298.775 263.328C299.191 268.112 300.647 273.312 301.479 278.096C304.183 291.616 306.471 305.968 306.471 319.904L306.263 321.152C303.143 319.072 297.735 304.512 296.695 302.224C293.367 295.152 289.415 288.704 286.295 281.632C283.383 274.976 281.511 268.112 278.183 261.664C273.399 252.096 267.783 243.152 262.791 233.792C260.295 229.008 255.927 216.528 252.183 213.616C248.855 211.12 232.423 211.328 230.343 211.328C225.351 211.328 212.663 209.04 212.663 216.944C212.663 222.976 213.911 229.008 213.911 235.248C213.911 243.984 212.039 252.512 212.039 261.248C212.039 270.192 214.327 278.928 214.327 287.872C214.327 297.024 212.455 305.968 212.455 315.12C212.455 323.024 213.287 330.928 213.287 338.832C213.287 345.904 211.831 352.976 211.831 360.048C211.831 368.368 232.839 367.952 239.079 367.952C249.063 367.952 247.815 345.488 248.231 340.08C249.063 331.76 250.103 322.816 250.103 314.496C250.103 305.136 249.479 295.36 248.231 286C247.191 277.888 241.575 268.736 242.199 260.832V259.792Z" fill="#F7F5F8"/>
<path d="M437.234 307.424C443.058 307.424 449.091 308.672 455.123 308.672C462.195 308.672 462.61 288.08 462.61 282.88C462.61 281.632 462.611 280.176 461.779 279.136C459.699 276.016 439.939 274.976 435.363 274.976C409.779 274.976 407.698 281.008 407.698 251.056C407.698 234.416 455.539 244.608 467.811 237.952C471.139 236.08 471.347 233.584 471.347 230.048C471.347 225.056 472.386 209.872 465.314 209.872C458.45 209.872 451.587 212.16 444.723 212.16C436.819 212.16 428.914 210.704 421.219 210.704C414.146 210.704 374.627 210.288 372.755 212.576C371.091 214.448 371.506 218.608 371.506 220.896C371.506 235.872 373.17 251.68 371.714 266.656C370.883 274.352 369.427 282.464 369.427 290.16C369.427 306.592 369.843 323.232 369.843 339.664C369.843 366.496 371.091 368.16 399.171 368.16C400.835 368.16 402.706 367.952 403.954 366.912C409.778 362.544 407.907 314.912 412.899 309.296C414.979 307.008 419.97 307.424 422.882 307.424H437.234Z" fill="#F7F5F8"/>
<path d="M488.094 287.456C488.094 292.448 489.342 296.608 490.382 301.392C497.246 333.216 513.054 360.464 547.582 366.496C551.742 367.12 557.358 368.576 561.31 368.576C567.342 368.576 577.118 368.368 582.734 366.496C594.59 362.752 613.518 347.984 620.59 338.208C623.71 333.84 628.91 319.696 629.742 314.08C630.782 305.968 630.366 296.816 630.366 288.704C630.366 280.384 630.574 271.44 629.534 263.12C628.91 258.128 626.83 253.552 624.75 249.184C612.894 223.808 589.598 208 560.894 208C546.334 208 529.902 211.536 518.046 220.48C514.926 222.768 513.054 226.304 510.766 229.424C499.95 244.192 488.094 268.736 488.094 287.456ZM560.27 335.712C560.686 335.712 560.27 336.544 559.854 336.336C555.902 335.296 548.414 333.008 545.086 330.72C543.63 329.888 540.094 324.896 539.054 323.44C537.182 320.736 534.686 317.824 533.646 314.704C531.982 309.296 530.734 289.952 530.734 283.712C530.734 264.992 533.022 250.432 552.574 244.192C554.862 243.36 560.062 241.488 562.35 241.488C574.622 241.488 578.158 243.984 585.022 253.344C587.102 256.048 590.014 260.208 591.054 263.328C592.926 269.568 592.302 279.76 592.302 285.792C592.302 297.648 591.054 312.416 584.606 322.608C583.358 324.688 581.07 328.64 579.198 329.888C573.582 333.216 565.678 332.384 560.27 335.712Z" fill="#F7F5F8"/>
<path d="M750.825 366.704C756.649 366.704 782.649 366.08 784.105 364.624C784.105 362.128 754.153 313.248 754.153 304.928C754.153 298.688 766.217 291.408 769.961 285.792C772.457 282.256 773.289 277.888 774.745 273.728C776.201 269.36 778.281 264.368 778.281 259.584C778.281 256.256 777.033 252.096 776.201 248.768C775.161 244.816 774.745 240.448 772.873 236.704C771.209 233.376 768.505 231.088 765.801 228.592C751.033 214.656 737.721 211.952 717.545 210.704C708.393 210.08 698.825 209.456 689.673 209.456C688.217 209.456 664.089 208.624 660.137 211.744C658.057 213.408 658.473 217.776 658.473 220.272C658.473 233.792 657.641 251.264 659.097 263.744C660.137 272.272 661.801 281.008 662.217 289.536C662.841 298.688 662.009 307.424 662.009 316.576C662.009 322.4 662.633 328.224 662.633 334.048C662.633 342.784 661.593 351.312 661.593 360.048C661.593 368.368 684.057 368.368 690.089 368.368C691.545 368.368 693.209 368.16 694.457 367.328C697.993 364.624 699.865 344.864 699.865 339.872C699.865 331.136 697.577 322.608 697.577 314.08C697.577 311.584 698.409 309.92 701.113 309.92C704.649 309.92 714.217 311.168 716.713 313.664C722.329 319.072 733.977 358.8 743.753 365.248C745.833 366.704 748.537 366.704 750.825 366.704ZM711.929 283.712C699.241 283.712 699.033 283.504 698.409 271.648C697.993 262.704 696.745 253.552 696.745 244.608C696.745 243.568 696.953 242.528 697.369 241.696C697.993 241.072 699.033 240.656 699.865 240.656C704.649 240.656 730.649 243.568 733.769 245.44C736.473 247.104 741.881 257.088 741.881 260.208C741.881 263.328 737.929 274.768 735.225 276.224C733.561 278.096 714.841 283.712 711.929 283.712Z" fill="#F7F5F8"/>
<path d="M924.299 258.96L924.923 259.376L925.131 260.832C925.131 268.944 923.259 277.264 922.635 285.376C922.011 293.904 922.011 302.64 921.387 311.168C920.763 321.984 918.683 333.008 918.683 343.824C918.683 368.16 919.515 366.704 945.515 366.704C949.467 366.704 951.963 365.664 953.211 361.712C958.203 345.28 956.123 326.976 956.123 310.336C956.123 304.512 956.747 298.688 956.747 292.864C956.747 275.6 954.043 258.544 954.043 241.28C954.043 233.584 956.123 225.68 956.123 217.984C956.123 216.528 956.123 215.072 955.291 213.824C953.419 210.704 938.027 209.664 934.075 209.664C930.123 209.664 919.099 210.704 916.395 213.2C913.691 215.696 906.203 230.88 905.163 233.792C903.707 237.536 902.667 241.28 901.419 245.024C898.091 255.84 895.803 267.488 891.851 278.096C889.355 284.96 886.027 291.824 883.323 298.688C882.491 300.768 881.035 303.472 881.035 305.552C876.667 298.272 869.595 269.152 866.683 259.376C863.979 249.808 859.195 240.448 855.243 231.296C852.747 225.68 850.667 209.664 843.803 209.664C837.355 209.664 830.699 211.12 824.251 211.12C820.715 211.12 816.971 210.912 813.435 211.328C807.195 211.952 807.195 235.872 807.195 241.28C807.195 256.256 809.067 271.44 809.067 286.624C809.067 310.544 806.363 334.464 806.363 358.384C806.363 360.672 806.571 362.96 808.235 364.416C811.147 367.12 828.203 367.744 832.571 367.744C842.555 367.744 840.891 343.824 841.307 339.248C842.139 330.72 843.387 321.776 843.387 313.248C843.387 303.264 842.763 291.408 840.267 281.632C839.435 278.096 835.275 265.2 835.275 262.496C835.275 261.456 835.483 260.208 836.731 260.208C836.939 260.208 837.355 260.208 837.563 260.416C842.763 274.56 863.147 343.824 871.259 349.856C873.963 351.728 878.331 351.52 881.451 351.52C884.363 351.52 888.939 351.936 891.227 349.648C892.475 348.4 893.307 346.944 893.931 345.28C897.467 336.128 899.755 326.352 903.707 317.408C908.075 307.424 912.859 298.272 915.771 287.456C916.395 284.96 921.179 262.912 923.467 259.168L924.299 258.96Z" fill="#F7F5F8"/>
<path d="M1039.94 328.64C1045.14 328.64 1060.53 329.68 1064.07 333.216C1068.64 337.792 1069.68 359.216 1073.43 363.792C1075.51 366.288 1078.83 365.872 1081.75 365.872C1083.2 365.872 1110.03 368.368 1110.03 361.712C1110.03 345.904 1092.56 307.424 1087.78 289.536C1085.28 280.384 1082.79 271.232 1079.46 262.288C1076.13 253.552 1071.76 245.232 1068.85 236.496C1067.39 231.92 1064.69 215.072 1061.99 212.576C1059.28 210.288 1029.75 210.08 1023.92 210.08C1018.1 210.08 1015.6 218.4 1013.94 222.768C1005.62 244.4 998.753 267.072 993.137 289.536C990.641 299.728 990.433 310.544 987.313 320.736C984.193 330.928 974.625 353.184 974.625 360.464C974.625 365.872 996.673 366.496 1000.83 366.496C1016.23 366.496 1013.31 336.336 1024.75 331.552C1027.46 330.512 1037.03 328.64 1039.94 328.64ZM1029.33 301.392C1027.87 301.392 1023.51 301.392 1023.51 299.312C1023.51 298.272 1039.31 247.52 1040.77 244.608C1043.47 251.264 1043.68 258.96 1045.55 266.032C1047.84 274.768 1052.21 283.088 1054.71 291.824C1055.33 294.112 1055.75 296.608 1055.75 298.896C1054.71 301.392 1051.17 301.392 1048.88 301.392H1029.33Z" fill="#F7F5F8"/>
<path d="M1196.8 296.192C1196.8 286.832 1193.68 277.888 1193.68 268.736C1193.68 264.576 1194.51 260 1194.93 255.84C1195.14 252.72 1195.55 247.104 1197.43 244.608C1199.92 241.072 1219.89 241.488 1224.05 241.488C1230.08 241.488 1236.53 243.984 1236.53 235.456C1236.53 230.88 1236.11 216.736 1233.62 213.2C1231.95 210.704 1226.55 210.704 1223.84 210.704C1212.4 210.288 1200.96 209.456 1189.52 209.456H1168.1C1158.53 209.456 1148.75 212.16 1138.98 212.16C1133.15 212.16 1127.12 211.328 1121.3 211.328C1114.02 211.328 1113.6 229.632 1113.6 235.04C1113.6 245.232 1129.41 241.904 1136.48 241.904C1159.36 241.904 1158.11 237.744 1158.11 260.416C1158.11 272.272 1155.41 283.92 1155.41 295.776C1155.41 310.752 1155.83 325.728 1155.83 340.704C1155.83 348.608 1153.33 363.584 1163.52 365.872C1170.59 367.328 1178.08 368.16 1185.36 368.16C1186.82 368.16 1188.48 367.952 1189.94 367.12C1193.89 364.832 1194.93 341.328 1194.93 340.912C1195.55 333.008 1196.8 324.48 1196.8 316.576V296.192Z" fill="#F7F5F8"/>
<path d="M1299.9 293.488C1299.9 283.92 1296.78 274.56 1296.78 264.992C1296.78 256.048 1299.27 246.896 1299.27 237.952C1299.27 233.168 1299.48 215.072 1295.53 212.16C1293.24 210.496 1288.46 210.496 1285.54 210.496C1259.96 210.496 1259.54 210.496 1259.54 236.912C1259.54 253.552 1261.62 270.4 1261.62 287.04C1261.62 295.568 1260.58 304.096 1260.58 312.624C1260.58 322.192 1261.21 331.76 1261.21 341.328C1261.21 347.776 1259.75 354.224 1259.75 360.672C1259.75 368.16 1282.63 368.16 1288.25 368.16C1289.91 368.16 1291.58 368.16 1293.03 367.12C1296.98 364.416 1298.02 340.704 1298.02 339.872C1298.65 331.76 1299.9 322.608 1299.9 314.496V293.488Z" fill="#F7F5F8"/>
<path d="M1324.36 287.456C1324.36 292.448 1325.61 296.608 1326.65 301.392C1333.51 333.216 1349.32 360.464 1383.85 366.496C1388.01 367.12 1393.62 368.576 1397.58 368.576C1403.61 368.576 1413.38 368.368 1419 366.496C1430.86 362.752 1449.78 347.984 1456.86 338.208C1459.98 333.84 1465.18 319.696 1466.01 314.08C1467.05 305.968 1466.63 296.816 1466.63 288.704C1466.63 280.384 1466.84 271.44 1465.8 263.12C1465.18 258.128 1463.1 253.552 1461.02 249.184C1449.16 223.808 1425.86 208 1397.16 208C1382.6 208 1366.17 211.536 1354.31 220.48C1351.19 222.768 1349.32 226.304 1347.03 229.424C1336.22 244.192 1324.36 268.736 1324.36 287.456ZM1396.54 335.712C1396.95 335.712 1396.54 336.544 1396.12 336.336C1392.17 335.296 1384.68 333.008 1381.35 330.72C1379.9 329.888 1376.36 324.896 1375.32 323.44C1373.45 320.736 1370.95 317.824 1369.91 314.704C1368.25 309.296 1367 289.952 1367 283.712C1367 264.992 1369.29 250.432 1388.84 244.192C1391.13 243.36 1396.33 241.488 1398.62 241.488C1410.89 241.488 1414.42 243.984 1421.29 253.344C1423.37 256.048 1426.28 260.208 1427.32 263.328C1429.19 269.568 1428.57 279.76 1428.57 285.792C1428.57 297.648 1427.32 312.416 1420.87 322.608C1419.62 324.688 1417.34 328.64 1415.46 329.888C1409.85 333.216 1401.94 332.384 1396.54 335.712Z" fill="#F7F5F8"/>
<path d="M1526.35 259.792L1527.19 258.544L1528.02 258.128C1534.88 263.328 1570.04 354.224 1582.31 363.584C1584.59 365.456 1589.17 364.832 1591.88 364.832C1620.16 364.832 1620.58 370.448 1620.58 341.536C1620.58 332.384 1620.58 323.232 1619.96 314.08C1619.54 305.552 1617.67 296.816 1617.67 288.288C1617.67 279.76 1619.12 271.232 1619.54 262.704C1620.16 249.392 1620.37 235.456 1620.37 222.144C1620.37 206.96 1613.71 209.872 1601.03 209.872C1594.16 209.872 1581.89 207.584 1581.89 217.36C1581.89 223.6 1582.72 230.048 1582.72 236.288C1582.72 245.232 1582.31 254.384 1582.93 263.328C1583.35 268.112 1584.8 273.312 1585.64 278.096C1588.34 291.616 1590.63 305.968 1590.63 319.904L1590.42 321.152C1587.3 319.072 1581.89 304.512 1580.85 302.224C1577.52 295.152 1573.57 288.704 1570.45 281.632C1567.54 274.976 1565.67 268.112 1562.34 261.664C1557.55 252.096 1551.94 243.152 1546.95 233.792C1544.45 229.008 1540.08 216.528 1536.34 213.616C1533.01 211.12 1516.58 211.328 1514.5 211.328C1509.51 211.328 1496.82 209.04 1496.82 216.944C1496.82 222.976 1498.07 229.008 1498.07 235.248C1498.07 243.984 1496.2 252.512 1496.2 261.248C1496.2 270.192 1498.48 278.928 1498.48 287.872C1498.48 297.024 1496.61 305.968 1496.61 315.12C1496.61 323.024 1497.44 330.928 1497.44 338.832C1497.44 345.904 1495.99 352.976 1495.99 360.048C1495.99 368.368 1516.99 367.952 1523.23 367.952C1533.22 367.952 1531.97 345.488 1532.39 340.08C1533.22 331.76 1534.26 322.816 1534.26 314.496C1534.26 305.136 1533.64 295.36 1532.39 286C1531.35 277.888 1525.73 268.736 1526.35 260.832V259.792Z" fill="#F7F5F8"/>
</svg>
