<svg width="163" height="718" viewBox="0 0 163 718" fill="none" xmlns="http://www.w3.org/2000/svg">
<path d="M155.375 0.832031C152.671 0.832031 148.927 2.70403 146.431 3.74403C133.535 8.94403 121.471 10.816 107.743 13.936L93.5993 17.056C88.8153 18.096 84.0313 19.136 79.4553 20.592C70.9273 23.296 63.2313 28.704 54.7033 31.2C42.8473 34.528 30.5753 36.192 18.7193 39.312C15.8073 40.144 8.11127 41.6 6.23927 43.472C3.32727 46.384 2.49528 60.736 2.49528 65.104C2.49528 69.888 3.32728 84.864 6.03128 88.192C9.15127 91.936 27.4553 98.384 29.7433 99.216C39.9353 102.752 49.9193 105.04 60.3193 107.536C66.5593 108.992 73.2153 109.2 79.2473 111.28C86.5273 113.776 93.5993 116.688 100.671 119.6C109.407 123.136 119.599 124.8 128.751 126.672C135.407 128.128 151.423 134.576 156.207 134.576L157.663 134.368C159.951 131.664 159.535 112.32 159.535 106.704C159.535 104 160.159 100.672 158.287 98.592C156.415 96.512 141.023 94.016 137.279 93.184C131.247 91.936 124.175 89.648 118.351 87.568C110.447 84.656 100.879 83.824 92.5593 82.16C82.5753 80.08 51.3753 71.76 44.0953 66.768C55.9513 61.36 72.1753 59.904 84.8633 56.992C94.6393 54.912 103.375 50.128 112.943 47.424C124.175 44.096 135.823 41.808 147.055 38.896C149.343 38.272 154.751 36.608 156.623 35.152C159.327 32.864 158.495 21.632 158.495 19.344C158.495 18.72 158.911 2.28803 155.999 0.832031L155.375 0.832031Z" fill="#F7F5F8" style="mix-blend-mode:multiply"/>
<path d="M76.7513 190.856C86.3193 190.856 95.6793 187.736 105.247 187.736C114.191 187.736 123.343 190.232 132.287 190.232C137.071 190.232 155.167 190.44 158.079 186.488C159.743 184.2 159.743 179.416 159.743 176.504C159.743 150.92 159.743 150.504 133.327 150.504C116.687 150.504 99.8393 152.584 83.1993 152.584C74.6713 152.584 66.1433 151.544 57.6153 151.544C48.0473 151.544 38.4793 152.168 28.9113 152.168C22.4633 152.168 16.0153 150.712 9.56727 150.712C2.07926 150.712 2.07928 173.592 2.07928 179.208C2.07928 180.872 2.07928 182.536 3.11927 183.992C5.82326 187.944 29.5353 188.984 30.3673 188.984C38.4793 189.608 47.6313 190.856 55.7433 190.856L76.7513 190.856Z" fill="#F7F5F8" style="mix-blend-mode:multiply"/>
<path d="M-0.000728993 271.479C3.74327 275.223 2.91127 294.359 6.44727 301.431C12.8953 314.535 34.5273 332.631 49.9193 332.631C55.1193 332.631 71.1353 327.639 74.8793 324.311C82.1593 317.655 108.783 260.663 118.351 260.663C121.471 260.663 128.751 274.183 128.751 277.511C128.751 285.831 120.223 296.023 120.223 303.927C120.223 309.127 137.279 324.311 142.063 324.311C144.975 324.311 148.927 318.071 150.591 315.783C158.911 304.759 162.863 292.279 162.863 278.343C162.863 264.407 149.135 237.991 138.735 228.631C135.823 225.927 131.039 224.471 127.503 223.015C124.383 221.767 119.807 219.479 116.479 219.479C111.903 219.479 105.871 222.183 101.711 223.847C86.1113 230.295 78.6233 240.487 71.9673 255.879C69.6793 261.079 68.4313 267.319 65.1033 271.895C62.6073 275.223 59.6953 278.551 56.9913 281.671C54.9113 284.167 51.5833 288.119 48.2553 288.743C44.3033 287.911 34.7353 273.351 34.7353 268.983C34.7353 252.343 46.3833 241.111 46.3833 238.407C46.3833 234.871 25.5833 218.647 22.0473 218.647C17.2633 218.647 -0.000728621 262.951 -0.000728939 270.231L-0.000728993 271.479Z" fill="#F7F5F8" style="mix-blend-mode:multiply"/>
<path d="M76.7513 396.419C86.3193 396.419 95.6793 393.299 105.247 393.299C114.191 393.299 123.343 395.795 132.287 395.795C137.071 395.795 155.167 396.003 158.079 392.051C159.743 389.763 159.743 384.979 159.743 382.067C159.743 356.483 159.743 356.067 133.327 356.067C116.687 356.067 99.8393 358.147 83.1993 358.147C74.6713 358.147 66.1433 357.107 57.6153 357.107C48.0473 357.107 38.4793 357.731 28.9113 357.731C22.4633 357.731 16.0153 356.275 9.56726 356.275C2.07925 356.275 2.07927 379.155 2.07927 384.771C2.07927 386.435 2.07927 388.099 3.11926 389.555C5.82326 393.507 29.5353 394.547 30.3673 394.547C38.4793 395.171 47.6313 396.419 55.7433 396.419L76.7513 396.419Z" fill="#F7F5F8" style="mix-blend-mode:multiply"/>
<path d="M82.7833 420.882C77.7913 420.882 73.6313 422.13 68.8473 423.17C37.0233 430.034 9.77526 445.842 3.74327 480.37C3.11927 484.53 1.66326 490.146 1.66326 494.098C1.66326 500.13 1.87127 509.906 3.74326 515.522C7.48727 527.378 22.2553 546.306 32.0313 553.378C36.3993 556.498 50.5433 561.698 56.1593 562.53C64.2713 563.57 73.4233 563.154 81.5353 563.154C89.8553 563.154 98.7993 563.362 107.119 562.322C112.111 561.698 116.687 559.618 121.055 557.538C146.431 545.682 162.239 522.385 162.239 493.682C162.239 479.122 158.703 462.69 149.759 450.834C147.471 447.714 143.935 445.842 140.815 443.554C126.047 432.738 101.503 420.882 82.7833 420.882ZM34.5273 493.058C34.5273 493.474 33.6952 493.058 33.9033 492.642C34.9433 488.69 37.2313 481.202 39.5193 477.874C40.3513 476.418 45.3433 472.882 46.7993 471.842C49.5033 469.97 52.4153 467.474 55.5353 466.434C60.9433 464.77 80.2873 463.522 86.5273 463.522C105.247 463.522 119.807 465.81 126.047 485.362C126.879 487.65 128.751 492.85 128.751 495.138C128.751 507.41 126.255 510.946 116.895 517.81C114.191 519.89 110.031 522.802 106.911 523.842C100.671 525.714 90.4793 525.09 84.4473 525.09C72.5913 525.09 57.8233 523.842 47.6313 517.394C45.5513 516.146 41.5993 513.858 40.3513 511.986C37.0233 506.37 37.8553 498.466 34.5273 493.058Z" fill="#F7F5F8" style="mix-blend-mode:multiply"/>
<path d="M110.447 622.877L111.695 623.709L112.111 624.541C106.911 631.405 16.0152 666.557 6.65524 678.829C4.78325 681.117 5.40724 685.693 5.40724 688.397C5.40724 716.685 -0.208756 717.101 28.7032 717.101C37.8552 717.101 47.0073 717.101 56.1593 716.477C64.6873 716.061 73.4232 714.189 81.9512 714.189C90.4792 714.189 99.0072 715.645 107.535 716.061C120.847 716.685 134.783 716.893 148.095 716.893C163.279 716.893 160.367 710.237 160.367 697.549C160.367 690.685 162.655 678.413 152.879 678.413C146.639 678.413 140.191 679.245 133.951 679.245C125.007 679.245 115.855 678.829 106.911 679.453C102.127 679.869 96.9272 681.325 92.1433 682.157C78.6233 684.861 64.2713 687.149 50.3353 687.149L49.0873 686.941C51.1673 683.821 65.7272 678.413 68.0152 677.373C75.0872 674.045 81.5353 670.093 88.6073 666.973C95.2633 664.061 102.127 662.189 108.575 658.861C118.143 654.077 127.087 648.461 136.447 643.469C141.231 640.973 153.711 636.605 156.623 632.861C159.119 629.533 158.911 613.101 158.911 611.021C158.911 606.029 161.199 593.341 153.295 593.341C147.263 593.341 141.231 594.589 134.991 594.589C126.255 594.589 117.727 592.717 108.991 592.717C100.047 592.717 91.3113 595.005 82.3673 595.005C73.2153 595.005 64.2713 593.133 55.1193 593.133C47.2153 593.133 39.3113 593.965 31.4073 593.965C24.3353 593.965 17.2633 592.509 10.1913 592.509C1.87125 592.509 2.28725 613.517 2.28725 619.757C2.28725 629.741 24.7513 628.493 30.1593 628.909C38.4793 629.741 47.4233 630.781 55.7433 630.781C65.1033 630.781 74.8792 630.157 84.2392 628.909C92.3512 627.869 101.503 622.253 109.407 622.877L110.447 622.877Z" fill="#F7F5F8" style="mix-blend-mode:multiply"/>
</svg>
