<svg width="161" height="754" viewBox="0 0 161 754" fill="none" xmlns="http://www.w3.org/2000/svg">
<path d="M26.9191 0.807886C19.0151 0.807886 4.24709 -2.10411 2.79109 8.71189C1.7511 16.1999 0.711089 23.4799 0.711089 30.9679C0.711089 32.4239 0.919081 34.0879 1.75108 35.3359C5.70308 41.1599 48.1351 39.7039 52.5031 43.4479C56.8711 47.1919 47.3031 91.9119 75.1751 108.552C79.7511 111.256 83.7031 114.168 88.9031 115.416C94.7271 116.872 101.383 118.952 107.415 118.952C111.367 118.952 115.527 117.496 119.271 116.456C149.847 107.72 158.999 87.5439 158.999 57.1759C158.999 47.8159 156.711 38.4559 156.711 29.0959C156.711 22.2319 157.751 15.5759 157.751 8.91989C157.751 7.67189 157.543 5.79989 156.711 4.75989C154.215 1.84789 133.831 0.807891 129.047 0.80789C123.223 0.80789 117.191 1.63989 111.367 2.26389C96.5991 3.71989 80.1671 3.51189 65.6071 3.51189C52.7111 3.51189 39.8151 0.807886 26.9191 0.807886ZM82.8711 54.2639C82.8711 36.7919 84.7431 38.6639 100.759 38.6639C106.791 38.6639 120.935 40.3279 126.135 42.6159C127.383 44.0719 127.383 47.1919 127.383 49.0639C127.383 54.0559 126.343 73.3999 124.263 76.7279C122.391 79.6399 110.951 82.5519 107.415 82.5519C104.711 82.5519 100.551 80.6799 98.0551 79.6399C95.3511 78.5999 91.1911 77.3519 89.3191 75.2719C85.7831 71.3199 82.8711 59.6719 82.8711 54.2639Z" fill="#F7F5F8" style="mix-blend-mode:multiply"/>
<path d="M81.4151 136.741C76.4231 136.741 72.2631 137.989 67.4791 139.029C35.6551 145.893 8.40708 161.701 2.37508 196.229C1.75109 200.389 0.295081 206.005 0.295081 209.957C0.29508 215.989 0.503088 225.765 2.37508 231.381C6.11908 243.237 20.8871 262.165 30.6631 269.237C35.0311 272.357 49.1751 277.557 54.7911 278.389C62.9031 279.429 72.0551 279.013 80.1671 279.013C88.4871 279.013 97.4311 279.221 105.751 278.181C110.743 277.557 115.319 275.477 119.687 273.397C145.063 261.541 160.871 238.245 160.871 209.541C160.871 194.981 157.335 178.549 148.391 166.693C146.103 163.573 142.567 161.701 139.447 159.413C124.679 148.597 100.135 136.741 81.4151 136.741ZM33.1591 208.917C33.1591 209.333 32.3271 208.917 32.5351 208.501C33.5751 204.549 35.8631 197.061 38.1511 193.733C38.9831 192.277 43.9751 188.741 45.4311 187.701C48.1351 185.829 51.0471 183.333 54.1671 182.293C59.5751 180.629 78.9191 179.381 85.1591 179.381C103.879 179.381 118.439 181.669 124.679 201.221C125.511 203.509 127.383 208.709 127.383 210.997C127.383 223.269 124.887 226.805 115.527 233.669C112.823 235.749 108.663 238.661 105.543 239.701C99.3031 241.573 89.1111 240.949 83.0791 240.949C71.2231 240.949 56.4551 239.701 46.2631 233.253C44.1831 232.005 40.2311 229.717 38.9831 227.845C35.6551 222.229 36.4871 214.325 33.1591 208.917Z" fill="#F7F5F8" style="mix-blend-mode:multiply"/>
<path d="M2.99907 372.224C2.99907 378.256 -0.536929 407.376 8.40707 407.376C13.8151 407.376 26.9191 406.752 29.6231 401.344C36.6951 386.992 30.0391 364.32 36.4871 350.176C38.1511 346.432 41.8951 346.64 45.4311 346.64C58.7431 346.64 71.8471 345.392 85.1591 345.392C101.175 345.392 116.983 347.472 132.999 347.472C139.863 347.472 158.375 349.552 158.375 340.4C158.375 335.616 156.919 316.272 154.423 312.736C153.591 311.488 152.135 310.656 150.679 310.448C142.983 309.2 111.367 307.12 103.255 307.12C97.4311 307.12 91.3991 307.952 85.5751 308.576C70.8071 310.032 54.5831 309.824 39.8151 309.824C28.9991 309.824 18.3911 308.368 7.78307 308.368C0.919069 308.368 1.12708 326.464 1.12708 331.664C1.12708 340.4 2.99907 348.928 2.99907 357.456L2.99907 372.224Z" fill="#F7F5F8" style="mix-blend-mode:multiply"/>
<path d="M75.3831 472.622C84.9511 472.622 94.3111 469.502 103.879 469.502C112.823 469.502 121.975 471.998 130.919 471.998C135.703 471.998 153.799 472.206 156.711 468.254C158.375 465.966 158.375 461.182 158.375 458.27C158.375 432.686 158.375 432.27 131.959 432.27C115.319 432.27 98.4711 434.35 81.8311 434.35C73.3031 434.35 64.7751 433.31 56.2471 433.31C46.6791 433.31 37.1111 433.934 27.5431 433.934C21.0951 433.934 14.6471 432.478 8.19906 432.478C0.711056 432.478 0.71107 455.358 0.71107 460.974C0.71107 462.638 0.71107 464.302 1.75106 465.758C4.45506 469.71 28.1671 470.75 28.9991 470.75C37.1111 471.374 46.2631 472.622 54.3751 472.622L75.3831 472.622Z" fill="#F7F5F8" style="mix-blend-mode:multiply"/>
<path d="M0.711065 572.588L0.503057 572.172C0.295065 572.172 0.503057 572.588 0.503057 572.797C0.503057 588.812 3.62305 597.548 13.3991 609.82C15.8951 612.94 19.847 619.596 24.4231 619.596C28.5831 619.596 43.7671 608.156 43.7671 603.789C43.7671 597.549 32.1191 581.74 32.1191 573.628C32.1191 569.884 35.0311 556.781 36.9031 553.453C41.6871 544.924 73.5111 537.852 82.8711 537.852C93.2711 537.852 116.567 545.133 122.391 554.492C125.303 559.068 128.423 568.636 128.423 574.044C128.423 580.076 120.519 592.765 120.519 599.421C120.519 603.997 137.367 617.517 141.735 617.517C148.391 617.517 160.455 579.869 160.455 573.421C160.455 552.205 154.215 536.396 138.823 521.836C136.327 519.341 133.415 516.013 130.295 514.141C118.855 507.484 107.623 503.533 94.9351 500.205C90.5671 498.957 85.1591 497.085 80.5831 497.085C66.2311 497.085 39.8151 503.324 28.3751 512.06C23.5911 515.596 13.1911 529.532 10.0711 534.94C7.36707 539.724 3.62307 544.924 2.37507 550.333C0.711066 557.197 1.54305 566.14 1.33506 573.005L0.711065 572.588Z" fill="#F7F5F8" style="mix-blend-mode:multiply"/>
<path d="M89.7351 690.315C94.5191 685.531 146.935 673.051 156.087 664.523C158.167 662.651 158.375 660.363 158.375 657.867C158.375 649.963 158.791 635.403 157.543 628.747C157.335 627.707 156.711 626.875 155.671 626.875C154.631 626.875 153.591 627.291 152.551 627.707C137.783 633.323 123.639 641.851 109.287 648.923C101.175 652.875 91.8151 653.707 83.9111 657.867C76.2151 661.819 64.983 668.059 56.455 669.099C51.8791 669.723 47.0951 669.723 42.5191 669.723C34.8231 669.723 12.3591 668.891 6.53505 672.011C1.12705 674.923 0.71106 693.643 0.71106 699.467C0.711059 700.923 0.919052 702.587 1.75105 703.835C5.28705 709.035 45.6391 708.827 57.287 711.739C65.399 713.819 74.1351 718.811 81.8311 722.347C89.3191 725.675 97.6391 727.339 105.335 730.875C117.607 736.491 143.191 753.755 156.087 753.755C158.791 753.755 158.375 749.595 158.375 747.931C158.375 738.779 158.375 728.795 157.543 719.643C156.919 712.571 126.343 704.251 124.679 703.627C119.271 701.755 113.655 700.091 108.039 698.219C103.047 696.555 94.1031 694.267 90.1511 691.355L89.7351 690.315Z" fill="#F7F5F8" style="mix-blend-mode:multiply"/>
</svg>
