<svg width="365" height="75" viewBox="0 0 365 75" fill="none" xmlns="http://www.w3.org/2000/svg">
<path d="M15.7552 32.5903L15.6712 32.6326C15.6712 32.6749 15.7552 32.6326 15.7972 32.6326C19.0332 32.6326 20.7982 31.9977 23.2777 30.0085C23.9081 29.5006 25.2529 28.6964 25.2529 27.7652C25.2529 26.9187 22.9415 23.829 22.059 23.829C20.7982 23.829 17.6043 26.1992 15.9653 26.1992C15.2089 26.1992 12.5613 25.6067 11.8889 25.2257C10.1658 24.2523 8.73697 17.7765 8.73697 15.8719C8.73697 13.7556 10.2079 9.01524 12.099 7.83014C13.0236 7.23759 14.9567 6.60271 16.0494 6.60271C17.2681 6.60271 19.8317 8.21106 21.1765 8.21106C22.101 8.21106 24.8327 4.78273 24.8327 3.89391C24.8327 2.5395 17.2261 0.0846517 15.9233 0.0846517C11.6367 0.0846517 8.44279 1.3544 5.50102 4.48646C4.99671 4.99436 4.32431 5.58691 3.94608 6.22178C2.60127 8.54966 1.80279 10.8352 1.13038 13.417C0.878228 14.3059 0.5 15.4063 0.5 16.3375C0.5 19.2579 1.76076 24.6332 3.52583 26.9611C4.24026 27.9345 7.05596 30.0508 8.14862 30.6857C9.1152 31.2359 10.1658 31.9977 11.2585 32.2517C12.6453 32.5903 14.4524 32.421 15.8393 32.4633L15.7552 32.5903Z" fill="#F7F5F8"/>
<path d="M28.5306 16.1682C28.5306 17.184 28.7827 18.0305 28.9929 19.004C30.3797 25.4797 33.5736 31.0243 40.5498 32.2517C41.3903 32.3787 42.525 32.6749 43.3235 32.6749C44.5422 32.6749 46.5174 32.6326 47.6521 32.2517C50.0476 31.4898 53.8719 28.4848 55.3007 26.4955C55.9311 25.6067 56.9818 22.7286 57.1499 21.5858C57.36 19.9351 57.2759 18.0728 57.2759 16.4221C57.2759 14.7291 57.318 12.9091 57.1078 11.2161C56.9818 10.2003 56.5615 9.26919 56.1412 8.38036C53.7458 3.21671 49.039 0 43.2395 0C40.2977 0 36.9777 0.719527 34.5822 2.5395C33.9519 3.00508 33.5736 3.72461 33.1113 4.35948C30.926 7.36456 28.5306 12.3589 28.5306 16.1682ZM43.1134 25.9876C43.1974 25.9876 43.1134 26.1569 43.0293 26.1146C42.2309 25.9029 40.7179 25.4374 40.0455 24.9718C39.7514 24.8025 39.0369 23.7867 38.8268 23.4904C38.4486 22.9402 37.9443 22.3476 37.7341 21.7128C37.3979 20.6123 37.1458 16.6761 37.1458 15.4063C37.1458 11.5971 37.6081 8.63431 41.5584 7.36456C42.0207 7.19526 43.0714 6.81433 43.5336 6.81433C46.0131 6.81433 46.7276 7.32224 48.1144 9.22686C48.5347 9.77709 49.123 10.6236 49.3331 11.2585C49.7114 12.5282 49.5853 14.6021 49.5853 15.8296C49.5853 18.2421 49.3331 21.2472 48.0303 23.3211C47.7782 23.7444 47.3159 24.5485 46.9377 24.8025C45.803 25.4797 44.206 25.3104 43.1134 25.9876Z" fill="#F7F5F8"/>
<path d="M86.9094 10.3696L87.0355 10.4543L87.0775 10.7506C87.0775 12.4012 86.6993 14.0942 86.5732 15.7449C86.4471 17.4802 86.4471 19.2579 86.321 20.9932C86.195 23.1941 85.7747 25.4374 85.7747 27.6383C85.7747 32.5903 85.9428 32.294 91.196 32.294C91.9945 32.294 92.4988 32.0824 92.7509 31.2782C93.7595 27.9345 93.3393 24.2099 93.3393 20.8239C93.3393 19.6388 93.4653 18.4537 93.4653 17.2686C93.4653 13.7556 92.919 10.285 92.919 6.77201C92.919 5.20598 93.3393 3.59763 93.3393 2.0316C93.3393 1.73533 93.3393 1.43905 93.1712 1.1851C92.7929 0.550226 89.6831 0.338601 88.8846 0.338601C88.0861 0.338601 85.8588 0.550226 85.3124 1.05813C84.7661 1.56603 83.2532 4.65576 83.0431 5.24831C82.7489 6.01016 82.5387 6.77201 82.2866 7.53386C81.6142 9.73476 81.1519 12.105 80.3534 14.2635C79.8491 15.6603 79.1767 17.057 78.6304 18.4537C78.4623 18.877 78.1681 19.4272 78.1681 19.8505C77.2856 18.3691 75.8567 12.4436 75.2684 10.4543C74.722 8.50734 73.7554 6.60271 72.957 4.74041C72.4527 3.59763 72.0324 0.338601 70.6456 0.338601C69.3428 0.338601 67.998 0.634878 66.6952 0.634878C65.9808 0.634878 65.2243 0.592551 64.5099 0.677202C63.2491 0.804178 63.2491 5.67156 63.2491 6.77201C63.2491 9.81942 63.6273 12.9091 63.6273 15.9989C63.6273 20.8663 63.081 25.7336 63.081 30.601C63.081 31.0666 63.123 31.5322 63.4592 31.8284C64.0476 32.3787 67.4937 32.5056 68.3762 32.5056C70.3934 32.5056 70.0572 27.6383 70.1413 26.7071C70.3094 24.9718 70.5615 23.1518 70.5615 21.4165C70.5615 19.3849 70.4354 16.9723 69.9311 14.9831C69.763 14.2635 68.9225 11.6394 68.9225 11.0892C68.9225 10.8775 68.9646 10.6236 69.2167 10.6236C69.2587 10.6236 69.3428 10.6236 69.3848 10.6659C70.4354 13.544 74.5539 27.6383 76.1929 28.8657C76.7393 29.2466 77.6218 29.2043 78.2522 29.2043C78.8405 29.2043 79.7651 29.2889 80.2273 28.8234C80.4795 28.5694 80.6476 28.2731 80.7737 27.9345C81.4881 26.0722 81.9504 24.083 82.7489 22.263C83.6314 20.2314 84.598 18.3691 85.1863 16.1682C85.3124 15.6603 86.279 11.1738 86.7413 10.412L86.9094 10.3696Z" fill="#F7F5F8"/>
<path d="M99.8092 27.2573C99.8092 28.8657 99.2208 31.8708 101.406 32.167C102.919 32.3787 104.39 32.5903 105.903 32.5903C106.197 32.5903 106.533 32.548 106.785 32.3787C107.962 31.5745 107.668 22.9402 108.424 22.0514C109.181 21.1625 118.216 23.1095 121.578 17.4379C122.125 16.5068 122.713 15.7026 122.965 14.6445C123.259 13.4594 123.68 12.105 123.68 10.8775C123.68 10.0734 123.385 9.22686 123.175 8.46501C121.41 2.24323 117.334 0.380926 111.198 0.380926C109.307 0.380926 107.416 0.846503 105.525 0.846503C104.138 0.846503 102.793 0.634878 101.448 0.634878C101.196 0.634878 100.818 0.677202 100.608 0.846503C100.019 1.3544 99.8092 5.50226 99.8092 6.47574C99.8092 7.66084 99.9773 8.88826 100.103 10.0734C100.398 13.0784 100.356 16.4221 100.356 19.3849C100.356 22.009 99.8092 24.6332 99.8092 27.2573ZM110.61 15.8719C107.08 15.8719 107.458 15.491 107.458 12.2319C107.458 11.0045 107.794 8.12641 108.256 7.06829C108.55 6.81433 109.181 6.81433 109.559 6.81433C110.568 6.81433 114.476 7.02596 115.148 7.44921C115.737 7.83014 116.325 10.158 116.325 10.8775C116.325 11.4278 115.947 12.2743 115.737 12.7822C115.527 13.3324 115.275 14.1789 114.854 14.5598C114.056 15.2793 111.702 15.8719 110.61 15.8719Z" fill="#F7F5F8"/>
<path d="M139.125 24.5485C140.176 24.5485 143.285 24.7602 144 25.4797C144.924 26.4108 145.135 30.7703 145.891 31.7015C146.311 32.2094 146.984 32.1247 147.572 32.1247C147.866 32.1247 153.287 32.6326 153.287 31.2782C153.287 28.0615 149.757 20.2314 148.791 16.5914C148.286 14.7291 147.782 12.8668 147.11 11.0468C146.437 9.26919 145.555 7.57619 144.966 5.79853C144.672 4.86738 144.126 1.43905 143.58 0.931152C143.033 0.465577 137.066 0.423252 135.889 0.423252C134.712 0.423252 134.208 2.11625 133.872 3.00508C132.191 7.40689 130.804 12.0203 129.669 16.5914C129.165 18.6653 129.123 20.8663 128.492 22.9402C127.862 25.0141 125.929 29.5429 125.929 31.0243C125.929 32.1247 130.384 32.2517 131.224 32.2517C134.334 32.2517 133.746 26.1146 136.057 25.1411C136.603 24.9295 138.537 24.5485 139.125 24.5485ZM136.982 19.004C136.687 19.004 135.805 19.004 135.805 18.5807C135.805 18.3691 138.999 8.04176 139.293 7.44921C139.839 8.80361 139.881 10.3696 140.26 11.8087C140.722 13.5863 141.604 15.2793 142.109 17.057C142.235 17.5226 142.319 18.0305 142.319 18.496C142.109 19.004 141.394 19.004 140.932 19.004H136.982Z" fill="#F7F5F8"/>
<path d="M162.792 10.5389L162.96 10.285L163.128 10.2003C164.515 11.2585 171.617 29.7545 174.097 31.6591C174.559 32.0401 175.483 31.9131 176.03 31.9131C181.745 31.9131 181.829 33.0559 181.829 27.1727C181.829 25.3104 181.829 23.4481 181.703 21.5858C181.619 19.8505 181.241 18.0728 181.241 16.3375C181.241 14.6021 181.535 12.8668 181.619 11.1315C181.745 8.42269 181.787 5.58691 181.787 2.8781C181.787 -0.211625 180.442 0.380926 177.879 0.380926C176.492 0.380926 174.013 -0.0846488 174.013 1.90463C174.013 3.17438 174.181 4.48646 174.181 5.75621C174.181 7.57618 174.097 9.43849 174.223 11.2585C174.307 12.2319 174.601 13.2901 174.769 14.2635C175.315 17.0147 175.778 19.9351 175.778 22.7709L175.736 23.0248C175.105 22.6016 174.013 19.6388 173.802 19.1733C173.13 17.7342 172.332 16.4221 171.701 14.9831C171.113 13.6287 170.735 12.2319 170.062 10.9199C169.096 8.97291 167.961 7.15294 166.952 5.24831C166.448 4.27483 165.565 1.73533 164.809 1.14278C164.137 0.634878 160.817 0.677202 160.396 0.677202C159.388 0.677202 156.824 0.211627 156.824 1.81998C156.824 3.0474 157.076 4.27483 157.076 5.54458C157.076 7.32224 156.698 9.05756 156.698 10.8352C156.698 12.6552 157.16 14.4328 157.16 16.2528C157.16 18.1151 156.782 19.9351 156.782 21.7974C156.782 23.4058 156.95 25.0141 156.95 26.6225C156.95 28.0615 156.656 29.5006 156.656 30.9396C156.656 32.6326 160.901 32.548 162.161 32.548C164.179 32.548 163.926 27.9769 164.01 26.8764C164.179 25.1834 164.389 23.3634 164.389 21.6704C164.389 19.7658 164.263 17.7765 164.01 15.8719C163.8 14.2212 162.666 12.3589 162.792 10.7506V10.5389Z" fill="#F7F5F8"/>
<path d="M198.121 14.4752C197.155 13.5017 194.633 2.83578 192.91 0.973476C192.532 0.550226 192.07 0.507902 191.565 0.507902C189.968 0.507902 187.027 0.423253 185.682 0.677202C185.472 0.719527 185.304 0.846503 185.304 1.05813C185.304 1.26975 185.388 1.48138 185.472 1.693C186.606 4.69808 188.329 7.57618 189.758 10.4966C190.557 12.1473 190.725 14.0519 191.565 15.6603C192.364 17.2263 193.625 19.5119 193.835 21.2472C193.961 22.1783 193.961 23.1518 193.961 24.083C193.961 25.649 193.793 30.2201 194.423 31.4052C195.011 32.5056 198.794 32.5903 199.97 32.5903C200.265 32.5903 200.601 32.548 200.853 32.3787C201.904 31.6591 201.862 23.4481 202.45 21.0779C202.87 19.4272 203.879 17.6495 204.593 16.0835C205.266 14.5598 205.602 12.8668 206.316 11.3008C207.451 8.80361 210.939 3.59763 210.939 0.973476C210.939 0.423253 210.099 0.507902 209.762 0.507902C207.913 0.507902 205.896 0.507902 204.047 0.677202C202.618 0.804178 200.937 7.02596 200.811 7.36456C200.433 8.46501 200.096 9.60779 199.718 10.7506C199.382 11.7664 198.92 13.5863 198.331 14.3905L198.121 14.4752Z" fill="#F7F5F8"/>
<path d="M73.2879 59.7206C73.2879 57.7737 72.6575 55.8691 72.6575 53.9221C72.6575 52.1021 73.1618 50.2398 73.1618 48.4199C73.1618 47.4464 73.2039 43.7641 72.4054 43.1716C71.9431 42.833 70.9765 42.833 70.3882 42.833C65.219 42.833 65.135 42.833 65.135 48.2082C65.135 51.5942 65.5553 55.0226 65.5553 58.4086C65.5553 60.1439 65.3451 61.8792 65.3451 63.6146C65.3451 65.5615 65.4712 67.5085 65.4712 69.4554C65.4712 70.7675 65.177 72.0796 65.177 73.3916C65.177 74.9153 69.7998 74.9153 70.9345 74.9153C71.2707 74.9153 71.6069 74.9153 71.9011 74.7037C72.6996 74.1535 72.9097 69.3284 72.9097 69.1591C73.0358 67.5085 73.2879 65.6462 73.2879 63.9955V59.7206Z" fill="#F7F5F8"/>
<path d="M86.0052 52.864L86.1733 52.61L86.3414 52.5254C87.7282 53.5835 94.8305 72.0796 97.31 73.9842C97.7723 74.3651 98.6968 74.2381 99.2432 74.2381C104.959 74.2381 105.043 75.3809 105.043 69.4977C105.043 67.6354 105.043 65.7731 104.917 63.9108C104.833 62.1755 104.454 60.3979 104.454 58.6625C104.454 56.9272 104.749 55.1919 104.833 53.4565C104.959 50.7477 105.001 47.912 105.001 45.2032C105.001 42.1134 103.656 42.706 101.092 42.706C99.7055 42.706 97.226 42.2404 97.226 44.2297C97.226 45.4994 97.3941 46.8115 97.3941 48.0813C97.3941 49.9012 97.31 51.7635 97.4361 53.5835C97.5201 54.557 97.8143 55.6151 97.9824 56.5886C98.5287 59.3397 98.991 62.2602 98.991 65.0959L98.949 65.3499C98.3186 64.9266 97.226 61.9639 97.0158 61.4983C96.3434 60.0592 95.5449 58.7472 94.9146 57.3081C94.3262 55.9537 93.948 54.557 93.2756 53.2449C92.309 51.298 91.1743 49.478 90.1657 47.5734C89.6614 46.5999 88.7789 44.0604 88.0224 43.4678C87.35 42.9599 84.03 43.0023 83.6097 43.0023C82.6011 43.0023 80.0376 42.5367 80.0376 44.145C80.0376 45.3725 80.2897 46.5999 80.2897 47.8696C80.2897 49.6473 79.9115 51.3826 79.9115 53.1603C79.9115 54.9802 80.3738 56.7579 80.3738 58.5779C80.3738 60.4402 79.9956 62.2602 79.9956 64.1225C79.9956 65.7308 80.1637 67.3392 80.1637 68.9475C80.1637 70.3866 79.8695 71.8256 79.8695 73.2647C79.8695 74.9577 84.114 74.873 85.3748 74.873C87.392 74.873 87.1399 70.3019 87.2239 69.2015C87.392 67.5085 87.6021 65.6885 87.6021 63.9955C87.6021 62.0909 87.4761 60.1016 87.2239 58.1969C87.0138 56.5463 85.8791 54.684 86.0052 53.0756V52.864Z" fill="#F7F5F8"/>
<path d="M125.411 62.5564C126.588 62.5564 127.807 62.8104 129.025 62.8104C130.454 62.8104 130.538 58.6202 130.538 57.5621C130.538 57.3081 130.538 57.0118 130.37 56.8002C129.95 56.1653 125.958 55.9537 125.033 55.9537C119.864 55.9537 119.444 57.1811 119.444 51.0863C119.444 47.7003 129.109 49.7743 131.589 48.4199C132.261 48.0389 132.303 47.531 132.303 46.8115C132.303 45.7957 132.513 42.706 131.085 42.706C129.698 42.706 128.311 43.1716 126.924 43.1716C125.327 43.1716 123.73 42.8753 122.175 42.8753C120.746 42.8753 112.762 42.7906 112.383 43.2562C112.047 43.6371 112.131 44.4836 112.131 44.9492C112.131 47.9966 112.467 51.2133 112.173 54.2607C112.005 55.8267 111.711 57.4774 111.711 59.0434C111.711 62.3871 111.795 65.7731 111.795 69.1168C111.795 74.5767 112.047 74.9153 117.721 74.9153C118.057 74.9153 118.435 74.873 118.687 74.6614C119.864 73.7726 119.486 64.0801 120.494 62.9374C120.914 62.4718 121.923 62.5564 122.511 62.5564H125.411Z" fill="#F7F5F8"/>
<path d="M135.687 58.4932C135.687 59.509 135.939 60.3555 136.149 61.329C137.536 67.8047 140.73 73.3493 147.706 74.5767C148.547 74.7037 149.681 75 150.48 75C151.699 75 153.674 74.9577 154.809 74.5767C157.204 73.8149 161.028 70.8098 162.457 68.8205C163.088 67.9317 164.138 65.0536 164.306 63.9108C164.516 62.2602 164.432 60.3979 164.432 58.7472C164.432 57.0542 164.474 55.2342 164.264 53.5412C164.138 52.5254 163.718 51.5942 163.298 50.7054C160.902 45.5418 156.195 42.3251 150.396 42.3251C147.454 42.3251 144.134 43.0446 141.739 44.8646C141.108 45.3301 140.73 46.0497 140.268 46.6845C138.082 49.6896 135.687 54.684 135.687 58.4932ZM150.27 68.3126C150.354 68.3126 150.27 68.4819 150.186 68.4396C149.387 68.228 147.874 67.7624 147.202 67.2968C146.908 67.1275 146.193 66.1117 145.983 65.8155C145.605 65.2652 145.101 64.6727 144.891 64.0378C144.554 62.9374 144.302 59.0011 144.302 57.7314C144.302 53.9221 144.765 50.9594 148.715 49.6896C149.177 49.5203 150.228 49.1394 150.69 49.1394C153.17 49.1394 153.884 49.6473 155.271 51.5519C155.691 52.1021 156.279 52.9486 156.49 53.5835C156.868 54.8533 156.742 56.9272 156.742 58.1546C156.742 60.5672 156.49 63.5722 155.187 65.6462C154.935 66.0694 154.472 66.8736 154.094 67.1275C152.959 67.8047 151.362 67.6354 150.27 68.3126Z" fill="#F7F5F8"/>
<path d="M188.771 74.6191C189.947 74.6191 195.201 74.4921 195.495 74.1958C195.495 73.6879 189.443 63.7415 189.443 62.0485C189.443 60.7788 191.881 59.2974 192.637 58.1546C193.141 57.4351 193.309 56.5463 193.604 55.6998C193.898 54.8109 194.318 53.7951 194.318 52.8217C194.318 52.1445 194.066 51.298 193.898 50.6208C193.688 49.8166 193.604 48.9278 193.225 48.1659C192.889 47.4887 192.343 47.0231 191.796 46.5152C188.813 43.6795 186.123 43.1292 182.047 42.8753C180.197 42.7483 178.264 42.6213 176.415 42.6213C176.121 42.6213 171.246 42.452 170.448 43.0869C170.027 43.4255 170.111 44.3143 170.111 44.8222C170.111 47.5734 169.943 51.1287 170.237 53.6682C170.448 55.4035 170.784 57.1811 170.868 58.9165C170.994 60.7788 170.826 62.5564 170.826 64.4187C170.826 65.6038 170.952 66.7889 170.952 67.974C170.952 69.7517 170.742 71.487 170.742 73.2647C170.742 74.9577 175.281 74.9577 176.499 74.9577C176.793 74.9577 177.13 74.9153 177.382 74.746C178.096 74.1958 178.474 70.1749 178.474 69.1591C178.474 67.3815 178.012 65.6462 178.012 63.9108C178.012 63.4029 178.18 63.0643 178.727 63.0643C179.441 63.0643 181.374 63.3183 181.878 63.8262C183.013 64.9266 185.367 73.0107 187.342 74.3228C187.762 74.6191 188.308 74.6191 188.771 74.6191ZM180.912 57.7314C178.348 57.7314 178.306 57.689 178.18 55.2765C178.096 53.4565 177.844 51.5942 177.844 49.7743C177.844 49.5626 177.886 49.351 177.97 49.1817C178.096 49.0547 178.306 48.9701 178.474 48.9701C179.441 48.9701 184.694 49.5626 185.325 49.9436C185.871 50.2822 186.964 52.3138 186.964 52.9486C186.964 53.5835 186.165 55.9114 185.619 56.2077C185.283 56.5886 181.5 57.7314 180.912 57.7314Z" fill="#F7F5F8"/>
<path d="M223.82 52.6947L223.946 52.7793L223.988 53.0756C223.988 54.7263 223.61 56.4193 223.484 58.07C223.358 59.8053 223.358 61.583 223.232 63.3183C223.106 65.5192 222.685 67.7624 222.685 69.9633C222.685 74.9153 222.854 74.6191 228.107 74.6191C228.905 74.6191 229.41 74.4074 229.662 73.6033C230.67 70.2596 230.25 66.535 230.25 63.149C230.25 61.9639 230.376 60.7788 230.376 59.5937C230.376 56.0807 229.83 52.61 229.83 49.0971C229.83 47.531 230.25 45.9227 230.25 44.3567C230.25 44.0604 230.25 43.7641 230.082 43.5102C229.704 42.8753 226.594 42.6637 225.795 42.6637C224.997 42.6637 222.769 42.8753 222.223 43.3832C221.677 43.8911 220.164 46.9808 219.954 47.5734C219.66 48.3352 219.449 49.0971 219.197 49.8589C218.525 52.0598 218.063 54.43 217.264 56.5886C216.76 57.9853 216.087 59.3821 215.541 60.7788C215.373 61.202 215.079 61.7523 215.079 62.1755C214.196 60.6941 212.767 54.7686 212.179 52.7793C211.633 50.8324 210.666 48.9278 209.868 47.0655C209.363 45.9227 208.943 42.6637 207.556 42.6637C206.254 42.6637 204.909 42.9599 203.606 42.9599C202.891 42.9599 202.135 42.9176 201.421 43.0023C200.16 43.1292 200.16 47.9966 200.16 49.0971C200.16 52.1445 200.538 55.2342 200.538 58.3239C200.538 63.1913 199.992 68.0587 199.992 72.9261C199.992 73.3916 200.034 73.8572 200.37 74.1535C200.958 74.7037 204.404 74.8307 205.287 74.8307C207.304 74.8307 206.968 69.9633 207.052 69.0322C207.22 67.2968 207.472 65.4769 207.472 63.7415C207.472 61.7099 207.346 59.2974 206.842 57.3081C206.674 56.5886 205.833 53.9644 205.833 53.4142C205.833 53.2026 205.875 52.9486 206.127 52.9486C206.169 52.9486 206.254 52.9486 206.296 52.991C207.346 55.8691 211.465 69.9633 213.104 71.1907C213.65 71.5717 214.533 71.5293 215.163 71.5293C215.751 71.5293 216.676 71.614 217.138 71.1484C217.39 70.8945 217.558 70.5982 217.684 70.2596C218.399 68.3973 218.861 66.408 219.66 64.588C220.542 62.5564 221.509 60.6941 222.097 58.4932C222.223 57.9853 223.19 53.4989 223.652 52.737L223.82 52.6947Z" fill="#F7F5F8"/>
<path d="M247.184 66.8736C248.235 66.8736 251.345 67.0852 252.059 67.8047C252.984 68.7359 253.194 73.0954 253.95 74.0265C254.371 74.5344 255.043 74.4498 255.631 74.4498C255.926 74.4498 261.347 74.9577 261.347 73.6033C261.347 70.3866 257.817 62.5564 256.85 58.9165C256.346 57.0542 255.841 55.1919 255.169 53.3719C254.497 51.5942 253.614 49.9012 253.026 48.1236C252.732 47.1924 252.185 43.7641 251.639 43.2562C251.093 42.7906 245.125 42.7483 243.948 42.7483C242.772 42.7483 242.267 44.4413 241.931 45.3301C240.25 49.7319 238.863 54.3454 237.729 58.9165C237.224 60.9904 237.182 63.1913 236.552 65.2652C235.921 67.3392 233.988 71.8679 233.988 73.3493C233.988 74.4498 238.443 74.5767 239.283 74.5767C242.393 74.5767 241.805 68.4396 244.116 67.4661C244.663 67.2545 246.596 66.8736 247.184 66.8736ZM245.041 61.329C244.747 61.329 243.864 61.329 243.864 60.9058C243.864 60.6941 247.058 50.3668 247.352 49.7743C247.899 51.1287 247.941 52.6947 248.319 54.1337C248.781 55.9114 249.664 57.6044 250.168 59.382C250.294 59.8476 250.378 60.3555 250.378 60.8211C250.168 61.329 249.454 61.329 248.991 61.329H245.041Z" fill="#F7F5F8"/>
<path d="M278.878 60.2709C278.878 58.3662 278.248 56.5463 278.248 54.684C278.248 53.8375 278.416 52.9063 278.5 52.0598C278.542 51.4249 278.626 50.2822 279.004 49.7743C279.508 49.0547 283.543 49.1394 284.383 49.1394C285.602 49.1394 286.905 49.6473 286.905 47.912C286.905 46.9808 286.821 44.1027 286.316 43.3832C285.98 42.8753 284.888 42.8753 284.341 42.8753C282.03 42.7906 279.718 42.6213 277.407 42.6213H273.078C271.145 42.6213 269.17 43.1716 267.195 43.1716C266.018 43.1716 264.799 43.0023 263.623 43.0023C262.152 43.0023 262.068 46.7269 262.068 47.8273C262.068 49.9012 265.262 49.224 266.691 49.224C271.313 49.224 271.061 48.3775 271.061 52.991C271.061 55.4035 270.515 57.7737 270.515 60.1862C270.515 63.2336 270.599 66.281 270.599 69.3284C270.599 70.9368 270.095 73.9842 272.154 74.4498C273.583 74.746 275.096 74.9153 276.567 74.9153C276.861 74.9153 277.197 74.873 277.491 74.7037C278.29 74.2381 278.5 69.4554 278.5 69.3708C278.626 67.7624 278.878 66.0271 278.878 64.4187V60.2709Z" fill="#F7F5F8"/>
<path d="M299.708 59.7206C299.708 57.7737 299.077 55.8691 299.077 53.9221C299.077 52.1021 299.582 50.2398 299.582 48.4199C299.582 47.4464 299.624 43.7641 298.825 43.1716C298.363 42.833 297.396 42.833 296.808 42.833C291.639 42.833 291.555 42.833 291.555 48.2082C291.555 51.5942 291.975 55.0226 291.975 58.4086C291.975 60.1439 291.765 61.8792 291.765 63.6146C291.765 65.5615 291.891 67.5085 291.891 69.4554C291.891 70.7675 291.597 72.0796 291.597 73.3916C291.597 74.9153 296.22 74.9153 297.354 74.9153C297.691 74.9153 298.027 74.9153 298.321 74.7037C299.119 74.1535 299.329 69.3284 299.329 69.1591C299.456 67.5085 299.708 65.6462 299.708 63.9955V59.7206Z" fill="#F7F5F8"/>
<path d="M304.65 58.4932C304.65 59.509 304.902 60.3555 305.113 61.329C306.499 67.8047 309.693 73.3493 316.67 74.5767C317.51 74.7037 318.645 75 319.443 75C320.662 75 322.637 74.9577 323.772 74.5767C326.167 73.8149 329.992 70.8098 331.42 68.8205C332.051 67.9317 333.101 65.0536 333.27 63.9108C333.48 62.2602 333.396 60.3979 333.396 58.7472C333.396 57.0542 333.438 55.2342 333.228 53.5412C333.101 52.5254 332.681 51.5942 332.261 50.7054C329.866 45.5418 325.159 42.3251 319.359 42.3251C316.417 42.3251 313.097 43.0446 310.702 44.8646C310.072 45.3301 309.693 46.0497 309.231 46.6845C307.046 49.6896 304.65 54.684 304.65 58.4932ZM319.233 68.3126C319.317 68.3126 319.233 68.4819 319.149 68.4396C318.351 68.228 316.838 67.7624 316.165 67.2968C315.871 67.1275 315.157 66.1117 314.947 65.8155C314.568 65.2652 314.064 64.6727 313.854 64.0378C313.518 62.9374 313.266 59.0011 313.266 57.7314C313.266 53.9221 313.728 50.9594 317.678 49.6896C318.14 49.5203 319.191 49.1394 319.653 49.1394C322.133 49.1394 322.847 49.6473 324.234 51.5519C324.654 52.1021 325.243 52.9486 325.453 53.5835C325.831 54.8533 325.705 56.9272 325.705 58.1546C325.705 60.5672 325.453 63.5722 324.15 65.6462C323.898 66.0694 323.436 66.8736 323.057 67.1275C321.923 67.8047 320.326 67.6354 319.233 68.3126Z" fill="#F7F5F8"/>
<path d="M345.462 52.864L345.631 52.61L345.799 52.5254C347.186 53.5835 354.288 72.0796 356.767 73.9842C357.23 74.3651 358.154 74.2381 358.701 74.2381C364.416 74.2381 364.5 75.3809 364.5 69.4977C364.5 67.6354 364.5 65.7731 364.374 63.9108C364.29 62.1755 363.912 60.3979 363.912 58.6625C363.912 56.9272 364.206 55.1919 364.29 53.4565C364.416 50.7477 364.458 47.912 364.458 45.2032C364.458 42.1134 363.113 42.706 360.55 42.706C359.163 42.706 356.683 42.2404 356.683 44.2297C356.683 45.4994 356.851 46.8115 356.851 48.0813C356.851 49.9012 356.767 51.7635 356.893 53.5835C356.977 54.557 357.272 55.6151 357.44 56.5886C357.986 59.3397 358.448 62.2602 358.448 65.0959L358.406 65.3499C357.776 64.9266 356.683 61.9639 356.473 61.4983C355.801 60.0592 355.002 58.7472 354.372 57.3081C353.784 55.9537 353.405 54.557 352.733 53.2449C351.766 51.298 350.632 49.478 349.623 47.5734C349.119 46.5999 348.236 44.0604 347.48 43.4678C346.807 42.9599 343.487 43.0023 343.067 43.0023C342.058 43.0023 339.495 42.5367 339.495 44.145C339.495 45.3725 339.747 46.5999 339.747 47.8696C339.747 49.6473 339.369 51.3826 339.369 53.1603C339.369 54.9802 339.831 56.7579 339.831 58.5779C339.831 60.4402 339.453 62.2602 339.453 64.1225C339.453 65.7308 339.621 67.3392 339.621 68.9475C339.621 70.3866 339.327 71.8256 339.327 73.2647C339.327 74.9577 343.571 74.873 344.832 74.873C346.849 74.873 346.597 70.3019 346.681 69.2015C346.849 67.5085 347.059 65.6885 347.059 63.9955C347.059 62.0909 346.933 60.1016 346.681 58.1969C346.471 56.5463 345.336 54.684 345.462 53.0756V52.864Z" fill="#F7F5F8"/>
</svg>
