<svg width="162" height="1023" viewBox="0 0 162 1023" fill="none" xmlns="http://www.w3.org/2000/svg">
<path d="M39.488 136.36C47.392 135.112 55.504 135.112 63.2 133.656C73.808 131.576 84 127.416 94.816 125.96C100.224 125.336 105.84 125.128 111.04 123.672C119.152 121.384 126.64 117.64 134.752 115.144C139.744 113.688 153.68 112.232 156.384 108.904C159.088 105.576 158.88 92.2641 158.88 87.8961C158.88 84.3601 158.048 82.0721 154.72 80.4081C142.864 74.3761 130.592 72.5041 117.488 71.6721C107.504 71.0481 97.104 66.0561 87.328 63.9761C72.976 60.8561 58.416 59.4001 44.688 53.9921C57.168 50.2481 70.688 51.2881 83.376 49.8321C92.736 48.7921 101.264 44.8401 110.416 43.5921C119.152 42.3441 128.512 42.3441 137.248 41.7201C138.08 41.7201 159.92 41.5121 159.92 36.1041C159.92 30.4881 157.84 24.6641 157.424 19.0481C157.008 13.8481 157.424 8.85612 157.008 3.65612C156.8 1.36812 155.76 0.120117 153.472 0.120117C140.368 0.120116 119.568 6.15212 106.672 9.68812C90.032 14.2641 71.52 13.6401 54.88 17.5921C46.144 19.6721 37.2 22.7921 28.464 24.0401C22.224 24.8721 15.568 24.8721 9.32799 26.1201C8.07999 26.3281 6.41598 26.7441 5.58398 27.5761C3.29599 29.8641 2.25599 45.6721 2.25599 49.4161C2.25599 53.5761 3.29599 70.6321 5.37599 73.3361C11.2 81.4481 59.248 84.9841 70.272 86.8561C79.216 88.5201 91.072 91.4321 98.976 95.3841C83.168 101.624 65.28 100.584 49.056 104.328C42.816 105.784 8.91198 114.312 6.83198 117.016C6.41598 117.64 3.71198 153.416 3.71198 158.408C3.71198 165.064 29.296 166.104 30.544 166.312C34.704 166.728 39.072 166.936 43.232 167.144C56.96 167.976 67.984 171.72 81.504 174.632C104.176 179.416 130.592 185.656 154.512 185.656C161.168 185.656 159.712 172.968 159.712 168.6C159.712 165.064 160.128 155.912 158.256 153C154.512 147.384 114.16 148.216 111.04 148.008C99.392 147.176 87.744 144.472 76.096 143.432C65.28 142.6 55.504 140.104 44.896 138.44C44.272 138.44 39.488 137.816 39.488 136.984L39.488 136.36Z" fill="white" fill-opacity="0.15"/>
<path d="M82.544 200.335C77.552 200.335 73.392 201.583 68.608 202.623C36.784 209.487 9.53599 225.295 3.50399 259.823C2.87999 263.983 1.42398 269.599 1.42398 273.551C1.42398 279.583 1.63199 289.359 3.50398 294.975C7.24799 306.831 22.016 325.759 31.792 332.831C36.16 335.951 50.304 341.151 55.92 341.983C64.032 343.023 73.184 342.607 81.296 342.607C89.616 342.607 98.56 342.815 106.88 341.775C111.872 341.151 116.448 339.071 120.816 336.991C146.192 325.135 162 301.839 162 273.135C162 258.575 158.464 242.143 149.52 230.287C147.232 227.167 143.696 225.295 140.576 223.007C125.808 212.191 101.264 200.335 82.544 200.335ZM34.288 272.511C34.288 272.927 33.456 272.511 33.664 272.095C34.704 268.143 36.992 260.655 39.28 257.327C40.112 255.871 45.104 252.335 46.56 251.295C49.264 249.423 52.176 246.927 55.296 245.887C60.704 244.223 80.048 242.975 86.288 242.975C105.008 242.975 119.568 245.263 125.808 264.815C126.64 267.103 128.512 272.303 128.512 274.591C128.512 286.863 126.016 290.399 116.656 297.263C113.952 299.343 109.792 302.255 106.672 303.295C100.432 305.167 90.24 304.543 84.208 304.543C72.352 304.543 57.584 303.295 47.392 296.847C45.312 295.599 41.36 293.311 40.112 291.439C36.784 285.823 37.616 277.919 34.288 272.511Z" fill="white" fill-opacity="0.15"/>
<path d="M3.29597 463.066C3.29597 468.89 3.91998 494.89 5.37597 496.346C7.87197 496.346 56.752 466.394 65.072 466.394C71.312 466.394 78.592 478.458 84.208 482.202C87.744 484.698 92.112 485.53 96.272 486.986C100.64 488.442 105.632 490.522 110.416 490.522C113.744 490.522 117.904 489.274 121.232 488.442C125.184 487.402 129.552 486.986 133.296 485.114C136.624 483.45 138.912 480.746 141.408 478.042C155.344 463.274 158.048 449.962 159.296 429.786C159.92 420.634 160.544 411.066 160.544 401.914C160.544 400.458 161.376 376.33 158.256 372.378C156.592 370.298 152.224 370.714 149.728 370.714C136.208 370.714 118.736 369.882 106.256 371.338C97.728 372.378 88.992 374.042 80.464 374.458C71.312 375.082 62.576 374.25 53.424 374.25C47.6 374.25 41.776 374.874 35.952 374.874C27.216 374.874 18.688 373.834 9.95198 373.834C1.63197 373.834 1.63197 396.298 1.63197 402.33C1.63197 403.786 1.83998 405.45 2.67198 406.698C5.37597 410.234 25.136 412.106 30.128 412.106C38.864 412.106 47.392 409.818 55.92 409.818C58.416 409.818 60.08 410.65 60.08 413.354C60.08 416.89 58.832 426.458 56.336 428.954C50.928 434.57 11.2 446.218 4.75196 455.994C3.29597 458.074 3.29597 460.778 3.29597 463.066ZM86.288 424.17C86.288 411.482 86.496 411.274 98.352 410.65C107.296 410.234 116.448 408.986 125.392 408.986C126.432 408.986 127.472 409.194 128.304 409.61C128.928 410.234 129.344 411.274 129.344 412.106C129.344 416.89 126.432 442.89 124.56 446.01C122.896 448.714 112.912 454.122 109.792 454.122C106.672 454.122 95.232 450.17 93.776 447.466C91.904 445.802 86.288 427.082 86.288 424.17Z" fill="white" fill-opacity="0.15"/>
<path d="M6.20796 648.396C13.904 648.396 76.928 608.668 86.496 602.636C89.408 600.764 92.736 599.1 96.064 599.1C100.016 599.1 103.552 602.22 106.672 604.3L117.904 611.788C124.56 616.156 132.048 620.108 138.496 624.892C144.112 629.052 148.688 634.46 154.512 638.412C155.552 639.036 156.592 639.66 157.632 640.076C158.672 639.868 158.672 638.828 158.88 637.996C160.336 629.052 159.92 615.74 159.92 606.38C159.92 595.98 104.592 562.284 101.056 558.332C102.72 558.124 104.384 558.124 105.84 558.124C119.568 558.124 133.088 559.788 146.816 559.788C156.592 559.788 160.336 560.412 160.336 549.18C160.336 522.348 162.624 519.228 134.336 519.228C124.768 519.228 115.616 521.932 106.256 521.932C98.56 521.932 91.072 519.644 83.376 519.644C73.808 519.644 64.448 521.932 54.88 521.932C44.688 521.932 34.704 518.396 24.512 518.396C16.608 518.396 5.37597 515.692 3.91998 525.884C2.87998 533.372 1.83997 540.652 1.83997 548.14C1.83997 558.124 17.648 556.668 24.304 557.292C29.504 557.916 35.12 558.124 40.32 558.956C45.728 559.788 51.552 564.572 55.712 567.9C58.208 569.772 62.992 573.1 64.032 576.012C62.784 579.34 51.968 581.628 48.64 583.084C36.368 588.076 26.8 599.308 14.736 605.34C12.032 606.588 7.45595 608.668 5.99996 611.164C3.71196 615.116 4.12796 638.62 4.12796 640.908C4.12796 643.404 3.71196 646.524 5.58396 648.396L6.20796 648.396Z" fill="white" fill-opacity="0.15"/>
<path d="M76.512 706.638C86.08 706.638 95.44 703.518 105.008 703.518C113.952 703.518 123.104 706.014 132.048 706.014C136.832 706.014 154.928 706.222 157.84 702.27C159.504 699.982 159.504 695.198 159.504 692.286C159.504 666.702 159.504 666.286 133.088 666.286C116.448 666.286 99.6 668.366 82.96 668.366C74.432 668.366 65.904 667.326 57.376 667.326C47.808 667.326 38.24 667.95 28.672 667.95C22.224 667.95 15.776 666.494 9.32796 666.494C1.83995 666.494 1.83997 689.374 1.83997 694.99C1.83997 696.654 1.83997 698.318 2.87996 699.774C5.58395 703.726 29.296 704.766 30.128 704.766C38.24 705.39 47.392 706.638 55.504 706.638L76.512 706.638Z" fill="white" fill-opacity="0.15"/>
<path d="M110.208 769.58L111.456 770.412L111.872 771.244C106.672 778.108 15.776 813.26 6.41595 825.532C4.54395 827.82 5.16795 832.396 5.16795 835.1C5.16795 863.388 -0.448051 863.804 28.464 863.804C37.616 863.804 46.768 863.804 55.92 863.18C64.448 862.764 73.184 860.892 81.712 860.892C90.24 860.892 98.768 862.348 107.296 862.764C120.608 863.388 134.544 863.596 147.856 863.596C163.04 863.596 160.128 856.94 160.128 844.252C160.128 837.388 162.416 825.116 152.64 825.116C146.4 825.116 139.952 825.948 133.712 825.948C124.768 825.948 115.616 825.532 106.672 826.156C101.888 826.572 96.688 828.028 91.904 828.86C78.384 831.564 64.032 833.852 50.096 833.852L48.848 833.644C50.928 830.524 65.4879 825.116 67.7759 824.076C74.8479 820.748 81.296 816.796 88.368 813.676C95.024 810.764 101.888 808.892 108.336 805.564C117.904 800.78 126.848 795.164 136.208 790.172C140.992 787.676 153.472 783.308 156.384 779.564C158.88 776.236 158.672 759.804 158.672 757.724C158.672 752.732 160.96 740.044 153.056 740.044C147.024 740.044 140.992 741.292 134.752 741.292C126.016 741.292 117.488 739.42 108.752 739.42C99.808 739.42 91.072 741.708 82.128 741.708C72.976 741.708 64.032 739.836 54.88 739.836C46.976 739.836 39.072 740.668 31.168 740.668C24.096 740.668 17.024 739.212 9.95196 739.212C1.63196 739.212 2.04796 760.22 2.04796 766.46C2.04795 776.444 24.512 775.196 29.92 775.612C38.24 776.444 47.184 777.484 55.504 777.484C64.864 777.484 74.64 776.86 84 775.612C92.112 774.572 101.264 768.956 109.168 769.58L110.208 769.58Z" fill="white" fill-opacity="0.15"/>
<path d="M62.7839 1022.23C67.3599 1022.23 86.4959 1020.36 88.9919 1017.45C90.6559 1015.58 92.9439 976.68 92.9439 971.48C92.9439 963.784 91.28 962.744 83.792 962.744C79.84 962.744 66.944 962.328 64.032 964.616C55.712 971.064 72.56 985.832 50.0959 986.456L43.0239 986.456C35.9519 986.872 34.9119 978.136 34.9119 972.312C34.9119 968.36 36.3679 964.616 37.4079 960.872C42.6079 942.152 49.8879 936.12 68.6079 932.792C74.016 931.752 79.4239 930.712 85.04 930.712C88.7839 930.712 104.592 932.168 107.504 933.416C119.36 938.824 129.344 957.128 129.344 970.024C129.344 978.552 121.648 987.704 121.648 996.232C121.648 1000.81 137.248 1012.46 141.408 1012.46C144.736 1012.46 147.648 1007.88 149.52 1005.38C157.216 994.984 160.128 979.592 160.128 966.696C160.128 955.048 156.592 945.688 151.6 935.496C138.496 909.288 122.064 898.68 93.568 893.48C88.576 892.44 83.376 891.4 78.176 891.4C74.64 891.4 67.984 893.688 64.448 894.728C55.92 897.016 39.072 901.384 32.208 906.376C28.8799 908.872 25.76 912.408 22.848 915.32C8.28795 929.88 0.591954 946.728 0.591953 967.736C0.591953 967.944 0.591953 968.568 1.00795 968.568C2.67195 975.224 2.87995 983.336 3.71195 990.408C4.54395 997.272 15.1519 1015.16 20.7679 1018.9C24.7199 1021.61 41.1519 1022.23 44.064 1022.23L62.7839 1022.23Z" fill="white" fill-opacity="0.15"/>
</svg>
