<svg width="17" height="18" viewBox="0 0 17 18" fill="none" xmlns="http://www.w3.org/2000/svg">
<path d="M1.88892 9L11.6667 9" stroke="#FF5268" stroke-width="2" stroke-linecap="round"/>
<path fill-rule="evenodd" clip-rule="evenodd" d="M6 2.11133H12C13.6569 2.11133 15 3.45447 15 5.11133V12.8891C15 14.546 13.6569 15.8891 12 15.8891H6C4.34315 15.8891 3 14.546 3 12.8891V12.5558H1V12.8891C1 15.6505 3.23858 17.8891 6 17.8891H12C14.7614 17.8891 17 15.6505 17 12.8891V5.11133C17 2.3499 14.7614 0.111328 12 0.111328H6C3.23858 0.111328 1 2.34991 1 5.11133V5.44466H3V5.11133C3 3.45448 4.34315 2.11133 6 2.11133Z" fill="#FF5268"/>
<path d="M8.41382 5.14258L11.5649 8.29371C11.9555 8.68423 11.9555 9.3174 11.5649 9.70792L8.41382 12.8591" stroke="#FF5268" stroke-width="1.7" stroke-linecap="round"/>
</svg>
