<svg width="194" height="201" viewBox="0 0 194 201" fill="none" xmlns="http://www.w3.org/2000/svg">
<path d="M72.1269 0H72.6007C74.2416 0.704895 76.017 0.944735 77.7777 1.14948C78.9623 1.2577 79.8076 2.19951 80.881 2.58851C82.8231 2.78448 84.8325 1.91287 86.7395 2.54172C88.436 3.14717 90.1265 3.79649 91.7586 4.55988C93.5077 5.42272 94.6689 7.62807 94.1044 9.53509C92.9637 11.3076 91.2643 12.6589 90.1499 14.4606C90.9338 14.8116 91.7294 15.145 92.5103 15.4989C93.3585 13.469 94.3588 11.1087 96.6549 10.3892C98.8807 10.1259 101.01 11.0034 103.227 11.0005C106.298 11.2988 109.431 10.5003 112.464 11.2257C114.818 11.9276 117.085 12.8958 119.454 13.5656C121.657 14.3904 124.087 15.8148 124.696 18.2483C124.988 21.1293 124.748 24.0308 124.324 26.8825C125.558 26.593 126.796 26.318 128.036 26.0314C129.814 28.3333 130.159 31.2991 131.475 33.8379C132.107 35.6396 132.64 37.5876 132.49 39.5121C131.347 44.3879 127.983 48.2868 125.082 52.2295C122.458 55.6896 118.463 57.5498 114.941 59.9014C113.973 60.5625 112.765 60.7847 111.838 61.5072C110.732 62.6976 109.922 64.1396 109.252 65.6108C108.621 67.509 108.799 69.5594 108.322 71.4898C107.781 73.0546 106.371 74.131 105.678 75.6109C105.532 77.3425 106.099 79.3987 104.894 80.8933C103.139 83.2185 100.407 80.8406 98.1495 81.3934C96.4296 83.5549 95.6516 86.3832 93.5721 88.2669C91.5071 90.0978 88.9215 88.3839 86.798 87.638C85.906 90.2178 85.4497 93.3649 82.6798 94.6811C80.533 95.1403 78.7839 93.3942 76.6809 93.558C74.5428 93.634 72.4106 93.8563 70.2959 94.1751C70.407 96.2576 71.2582 98.1529 71.9952 100.066C72.6592 101.61 71.9484 103.324 72.4077 104.904C72.9956 106.852 73.7472 108.753 74.1392 110.756C74.4053 112.733 73.4635 114.547 73.0073 116.41C72.396 118.814 73.4782 121.648 71.5828 123.614C69.9625 125.726 69.164 128.32 67.6138 130.476C65.4874 132.696 62.8111 134.234 60.3864 136.086C58.4472 137.411 55.6978 136.948 53.9341 138.592C52.46 139.984 50.6788 141.023 49.3392 142.561C48.6664 143.415 48.1429 144.372 47.5608 145.287C50.164 143.225 52.6414 139.891 56.432 140.868C57.8272 140.953 59.3276 141.862 60.6614 141.055C62.4017 139.812 63.8232 138.189 65.3207 136.674C66.1046 137.223 66.7919 138.165 67.801 138.23C69.7489 137.899 69.7636 135.498 70.5445 134.126C72.0011 131.883 74.8645 131.119 77.3214 130.587C79.1904 130.204 81.0273 129.508 82.9665 129.581C84.2651 127.911 86.4851 128.402 88.3073 128.557C89.6527 125.46 89.4684 121.651 87.2251 119.001C85.3064 117.077 85.4321 114.342 85.8182 111.882C84.8179 110.701 83.1741 109.572 83.5251 107.773C84.5166 106.076 85.9118 104.667 87.1783 103.175C85.8738 102.233 83.9697 101.356 83.8995 99.4867C85.0256 98.8988 86.3125 98.6911 87.4386 98.112C88.5003 97.2638 88.9624 95.8218 90.1558 95.1111C91.5861 94.4208 93.2591 94.608 94.7186 94.023C96.7104 92.3588 97.661 89.1268 100.533 88.7114C102.575 88.5506 102.045 85.5438 103.721 84.757C104.195 84.5523 104.719 84.523 105.222 84.4499C106.623 83.0343 108.258 81.8087 109.284 80.0743C110.054 78.8634 110.683 77.5531 111.569 76.4211C112.704 75.1956 114.596 75.4969 115.921 74.6136C116.831 73.5079 117.149 72.025 117.588 70.6942C122.177 69.2347 125.246 65.33 127.831 61.5043C129.276 61.7178 130.759 61.5013 132.186 61.826C132.449 62.256 132.546 62.7941 132.347 63.2709C131.733 64.8328 130.791 66.2426 130.057 67.7489C129.156 69.2552 130.972 70.5334 131.335 71.9548C131.973 74.6106 130.276 77.1494 130.744 79.8374C131.771 78.7113 132.637 77.4565 133.508 76.2076C134.977 75.7894 136.699 75.5144 137.667 74.1807C138.665 72.6393 139.013 70.8024 139.762 69.1557C141.151 67.316 142.725 65.6225 144.184 63.8412C144.801 64.3882 145.486 64.9205 145.857 65.6781C146.328 67.7752 144.974 69.5857 144.465 71.519C143.552 74.0374 144.485 76.7516 143.883 79.3255C143.286 81.3642 144.146 83.3589 144.567 85.3303C145.064 88.3926 149.703 88.5652 149.864 91.8294C150.086 93.7686 151.078 95.8774 150.25 97.7873C149.58 99.5832 149.101 101.458 148.215 103.166C146.884 104.775 145.006 105.781 143.52 107.223C142.859 107.793 142.789 108.697 142.792 109.531C146.609 111.92 149.624 115.533 151.64 119.534C152.69 122.693 152.929 126.188 152.081 129.426C151.215 133.099 150.212 137.045 147.41 139.759C144.207 142.362 140.566 144.372 136.869 146.174C135.29 147.104 133.406 146.63 131.707 147.01C130.262 147.797 129.095 149.087 127.465 149.525C124.333 150.339 121.136 150.906 117.925 151.28C116.834 151.415 115.722 151.333 114.663 151.052C111.853 150.327 108.96 149.467 106.661 147.627C103.996 146.004 101.487 143.971 99.8986 141.239C98.7345 143.535 96.4092 145.08 95.6897 147.616C95.2158 149.718 94.9497 151.868 94.3237 153.933C96.0611 152.722 97.7312 151.371 99.7201 150.587C101.493 149.982 103.057 151.19 104.406 152.149C105.851 153.331 106.643 155.352 108.515 155.963C111.282 156.773 113.362 153.951 116.085 154.27C118.442 154.553 120.107 157.142 122.587 156.794C127.574 155.486 132.274 152.986 136.079 149.496C137.48 148.151 139.229 147.206 141.09 146.674C142.14 146.589 143.099 147.142 144.035 147.537C145.117 145.972 146.217 144.419 147.287 142.845C149.621 139.467 150.733 135.448 152.701 131.871C154.836 128.358 155.582 124.257 157.109 120.487C158.732 116.527 159.142 112.213 160.587 108.194C161.33 106.173 161.227 103.976 161.458 101.868C161.64 99.6329 161.336 97.3164 160.35 95.2895C158.513 92.0926 156.141 89.1151 155.158 85.5029C154.304 83.1951 153.231 80.8318 151.297 79.229C150.534 78.53 149.774 77.7402 149.502 76.7136C148.82 73.9174 147.387 71.1447 148.033 68.1847C148.267 65.1721 150.704 63.0106 153.011 61.399C154.275 60.4074 155.968 60.9485 157.41 60.9485C159.472 61.1533 161.324 62.2764 162.938 63.499C165.003 65.2861 165.46 68.0472 166.091 70.548C166.676 73.4904 165.895 76.5732 166.864 79.4601C167.609 82.0398 168.934 84.4441 169.203 87.1642C169.449 89.5801 170.531 91.7796 170.991 94.1488C172.324 97.8429 173.953 101.435 175.132 105.184C175.705 107.594 176.951 109.768 178.388 111.765C181.032 117.018 183.108 122.532 185.048 128.074C185.937 132.111 189.394 134.989 190.151 139.069C190.681 141.353 191.412 143.582 192.07 145.831C192.962 148.774 193.029 151.898 193.96 154.834V154.992C193.073 158.11 193.269 161.365 193.179 164.565C192.553 169.605 191.014 174.837 187.399 178.575C185.331 180.602 183.179 182.544 181.198 184.659C180.675 185.203 180.166 185.785 179.508 186.174C176.086 188.002 172.213 188.529 168.528 189.579C166.755 189.997 164.924 190.19 163.105 190.102C159.578 189.836 155.983 190.395 152.535 189.409C150.99 188.909 149.554 188.143 148.06 187.522C144.798 186.215 141.993 183.995 138.668 182.825C137.082 182.068 135.24 182.185 133.684 181.357C132.751 180.88 131.736 180.579 130.695 180.456C129.01 183.571 126.614 186.238 124.061 188.669C120.838 192.085 116.863 194.627 112.844 196.99C108.957 198.991 104.643 199.836 100.451 200.939H99.0737C96.4501 200.43 93.7007 200.173 91.314 198.877C90.0037 198.195 88.55 197.657 87.5293 196.549C85.1016 193.709 83.3759 190.31 82.3464 186.73C82.0276 185.613 82.6038 184.475 82.829 183.404C84.423 178.172 86.4061 172.705 90.5945 168.961C92.9549 167.174 95.5405 165.697 98.0617 164.147C100.837 162.863 103.985 163.05 106.927 162.436C110.495 161.561 114.248 162.059 117.711 163.141C120.206 163.977 122.555 165.214 125.088 165.957C125.883 166.142 126.802 166.343 127.515 165.829C130.358 164.024 132.198 161.114 134.494 158.727C137.232 155.758 140.663 153.328 142.327 149.511C141.335 149.821 140.075 149.777 139.408 150.701C137.34 153.465 134.067 154.89 131.157 156.571C128.197 158.326 124.956 159.564 121.648 160.464C119.229 160.865 117.673 158.204 115.307 158.142C112.797 158.432 110.475 160.064 107.91 159.795C104.599 159.023 102.897 155.618 100.01 154.123C97.2632 154.109 95.1252 156.352 93.3 158.139C91.3257 162.626 88.6378 166.806 85.4292 170.517C84.0574 172.164 82.2762 173.501 81.3081 175.457C80.2083 178.645 80.7201 182.079 80.0065 185.341C79.0208 187.063 77.2659 188.087 75.7303 189.254C77.2688 189.313 78.8512 189.026 80.3633 189.38C82.5043 190.646 84.3265 192.539 85.476 194.762C86.567 197.128 84.5781 200.354 81.9515 200.275C79.6116 200.269 77.2834 199.95 74.9611 199.722C72.0888 199.485 69.67 197.748 67.3096 196.253C65.5927 195.554 65.5079 193.6 65.0896 192.077C61.492 194.247 57.172 194.337 53.124 194.77C51.2345 195.209 50.0119 193.144 48.1926 193.282C47.0578 193.328 45.8381 193.378 44.8758 192.641C42.9629 191.448 40.6932 191.196 38.6429 190.345C36.0719 188.464 34.0333 185.964 32.2316 183.357C31.3892 182.03 29.88 181.544 28.6223 180.751C27.5138 179.83 26.7708 178.564 25.7325 177.578C24.6211 176.75 23.1762 176.505 22.0735 175.665C20.5701 174.223 19.6371 172.252 17.9436 171.003C17.1597 170.485 16.8292 169.593 16.5162 168.754C15.124 168.151 13.3808 167.949 12.4009 166.686C12.0265 165.279 11.9856 163.808 11.7984 162.369C10.3564 162.029 8.82965 161.915 7.46959 161.289C6.0832 160.178 5.29348 158.546 4.39554 157.054C5.21158 156.106 6.80857 154.884 5.91355 153.553C4.67048 152.249 2.52362 152.439 1.20451 151.236C0.446963 150.049 0.359217 148.581 0.0404053 147.241V146.364C0.341667 144.48 0.0667291 142.313 1.22205 140.698C2.63184 139.499 4.54179 139.119 6.17679 138.309C8.95835 136.826 12.2635 137.285 15.1591 138.139C16.7648 138.639 18.0869 140.061 18.2595 141.766C18.7567 144.41 15.7382 146.212 16.6215 148.905C18.2975 149.759 20.2659 149.716 22.0881 150.002C21.3042 149.528 20.5028 149.084 19.7014 148.639C21.3218 146.639 23.065 144.673 25.2821 143.319C25.2792 141.982 24.7731 140.555 25.2411 139.253C25.9753 138.186 27.2651 137.721 28.3561 137.109C26.3994 134.559 25.6243 131.403 23.884 128.718C21.4505 128.99 18.9 129.826 16.5308 128.788C14.5156 127.887 12.0148 128.335 10.4062 126.542C8.31195 124.304 7.49591 121.297 7.39939 118.291C6.29086 117.697 4.57689 117.343 4.46282 115.825C4.2142 111.634 4.42187 107.422 4.02701 103.233C3.55318 98.0886 3.76962 92.9174 3.98314 87.7609C3.80472 85.9562 5.03024 84.5377 6.03932 83.2127C6.48098 82.6219 7.17125 82.2299 7.91709 82.2358C9.96451 82.1919 12.047 82.1568 14.0418 82.7008C16.019 79.6473 18.4876 76.9564 21.2633 74.6106C22.442 75.4325 23.8664 75.6928 25.2908 75.4091C27.2856 75.1547 28.5316 77.0734 29.8566 78.2287C31.1464 78.0766 32.4626 77.4595 33.7671 77.7461C35.1974 78.6411 36.1597 80.086 37.2068 81.3817C38.599 81.1536 39.9854 80.785 41.4098 80.8845C43.4104 82.0018 44.519 84.2773 46.5284 85.3976C48.1458 85.7573 49.8452 84.9852 51.4509 85.4882C53.1708 86.2663 54.2354 88.1499 56.2448 88.3575C58.4063 89.0975 60.5414 87.8398 62.4221 86.9185C61.9308 86.1317 61.492 85.2981 60.8895 84.5932C59.7283 84.1428 58.339 84.4616 57.2714 83.7626C56.5344 82.9202 56.0898 81.8643 55.5282 80.905C54.1009 80.8055 52.5244 80.9664 51.3076 80.0772C49.2163 78.7844 47.0841 77.5501 44.8641 76.4855C43.6854 75.88 43.1267 74.5872 42.3516 73.5869C40.9857 73.4933 39.4794 73.6542 38.2422 72.9347C37.0898 71.987 36.5311 70.4953 35.8233 69.223C34.7089 68.9276 33.3723 68.755 32.8253 67.5558C31.5969 66.1051 31.2137 64.1747 30.114 62.6479C29.4208 61.6885 28.8475 60.6502 28.2654 59.6236C27.0896 60.1939 25.9723 61.2323 24.545 60.8169C22.211 60.4718 19.5786 60.3548 17.6686 58.8222C15.3375 55.1953 15.5393 50.1324 18.0401 46.6225C19.0024 45.4262 18.2185 43.8702 17.3206 42.9021C16.1769 41.6034 14.0681 41.9749 12.9976 40.5739C11.8978 39.5648 11.0262 38.3539 10.1224 37.1752C11.5556 33.3114 11.5088 28.6959 14.5039 25.578C15.4252 24.607 16.8584 25.0808 17.9757 24.5982C19.8915 23.4721 21.0556 21.4657 22.7257 20.0588C24.0946 18.9941 25.8758 18.649 27.1598 17.4586C29.3184 15.7095 31.6144 14.0511 34.1971 12.9894C36.7359 12.5185 38.7423 10.6378 41.2607 10.1552C43.3519 10.5734 45.1157 11.992 46.8326 13.1824C47.3912 12.068 47.8212 10.8776 48.5524 9.85975C49.228 8.92672 50.4916 8.88577 51.4305 8.34467C53.2614 7.30634 54.5045 5.56896 55.8938 4.0451C56.9351 2.8225 58.6344 3.66194 60.0091 3.43673C61.0036 3.21151 61.881 2.60021 62.9077 2.50369C64.2677 2.61191 65.5722 3.07404 66.7948 3.65609C68.4298 2.23753 70.3398 1.20212 72.1269 0ZM70.2286 3.79064C68.8598 4.63593 67.7337 5.8205 66.3766 6.68041C64.8293 6.54294 63.5248 5.27062 61.881 5.72398C60.2987 6.11884 58.9152 7.0548 57.4264 7.68657C56.2243 8.30957 54.7765 8.30957 53.6885 9.18411C50.9888 11.3134 47.8884 13.6211 46.9466 17.1134C47.7393 16.9672 48.5495 16.9087 49.3245 16.6835C51.0502 15.7388 52.3255 14.1622 53.9956 13.1502C55.8412 12.7759 57.523 14.1037 59.3686 13.9019C60.6292 13.276 61.726 12.34 62.8843 11.5386C64.3993 11.9423 65.9612 11.6322 67.4851 11.4801C68.4854 12.0095 69.3541 12.925 70.5065 13.1268C72.0186 12.3898 73.2442 11.1496 74.6276 10.199C78.2954 10.6904 81.9223 12.147 85.6515 11.5825C87.0233 11.4099 88.357 12.1529 89.7346 11.6498C90.5565 10.4096 90.8344 8.89747 91.3959 7.53155C89.1994 6.74476 86.9443 6.12469 84.7769 5.26477C82.8407 5.38177 80.919 6.09544 78.9594 5.66841C77.0407 5.8205 76.4323 3.39285 74.4843 3.5976C73.0833 3.37823 71.5039 2.95997 70.2286 3.79064ZM96.7397 13.0654C95.1954 13.5246 95.0667 15.6218 95.8301 16.7859C97.6435 17.7277 99.726 17.8973 101.73 18.0582C102.897 18.1635 103.844 18.9883 104.988 19.1492C107.673 18.6724 109.211 16.2067 110.808 14.2324C108.691 13.6124 106.439 13.7703 104.26 13.8171C101.73 14.0452 99.2492 13.2497 96.7397 13.0654ZM69.0207 15.7885C67.023 14.9958 64.9668 14.1154 62.7643 14.4694C61.1001 14.5015 60.3279 16.2916 59.2954 17.2948C57.3767 16.8502 55.4785 16.3325 53.5715 15.8499C51.0356 17.8096 48.2277 19.3978 45.7737 21.4657C44.1387 22.7 43.9779 24.879 42.8547 26.473C41.7433 27.8682 40.2165 28.8831 39.1782 30.3426C38.6341 31.3927 38.5844 32.6241 38.055 33.6829C37.4057 34.7417 36.6218 35.7098 35.9228 36.7335C34.823 37.9678 35.5747 39.8982 34.4018 41.0828C33.2114 42.4253 32.3895 44.0428 32.3924 45.8825C35.1331 45.6251 36.227 42.8231 37.8327 41.0477C38.8506 40.995 39.9269 41.1969 40.9038 40.8605C42.2551 39.7198 42.3399 37.5817 43.7995 36.5288C45.4608 35.7186 47.204 35.0312 48.5875 33.7501C50.0324 32.7674 50.6261 31.0271 51.7229 29.7343C54.4226 26.9615 56.7069 23.4487 60.5151 22.0945C63.0013 20.7842 66.0314 21.8079 68.5293 20.5589C71.3021 19.4212 74.5282 20.7374 76.8856 22.3051C77.728 22.9164 78.5996 23.6242 78.8453 24.6918C79.2285 26.4994 80.3926 27.9472 81.5186 29.3482C82.361 27.4382 82.9021 25.3265 84.3324 23.7354C86.0756 21.5212 88.3278 19.7809 90.6969 18.2922C89.4275 16.7859 87.462 16.0342 85.9908 14.7297C84.4903 14.7765 82.984 14.7823 81.4865 14.6975C79.0471 14.5103 76.754 13.4954 74.3264 13.2643C72.3316 13.6475 71.3255 16.6718 69.0207 15.7885ZM38.4586 13.5246C37.7625 14.171 37.0518 14.7999 36.341 15.4316C33.7467 14.5922 32.1029 16.9058 30.2485 18.1488C29.2043 18.8567 28.321 19.7663 27.3324 20.5443C26.2678 21.4306 24.7761 21.3808 23.6471 22.1413C21.5178 23.7266 20.0816 26.0109 18.7216 28.2455C17.6979 27.9706 16.6859 27.6605 15.7002 27.2774C14.1705 30.0706 13.217 33.3114 13.217 36.5112C14.2348 38.2018 15.9342 39.5589 17.9787 39.6233C18.6368 38.3597 19.0492 36.8739 20.2279 35.9789C21.1755 35.1219 22.4888 35.0546 23.6734 34.8587C23.9893 32.9429 24.5772 30.8779 26.3497 29.8015C27.1394 29.0499 28.2274 29.5939 29.1341 29.7606C29.6665 27.9384 30.3392 26.0168 31.7724 24.7035C33.0622 23.905 34.6212 25.1861 35.9111 24.4754C37.0722 23.5277 37.511 21.998 38.5171 20.9129C40.2194 19.1228 42.9337 18.573 44.44 16.5694C44.9928 14.8759 43.3929 14.133 42.2317 13.5275C41.7374 13.9868 41.2431 14.446 40.7488 14.9052C39.9942 14.4284 39.2308 13.9692 38.4586 13.5246ZM113.496 15.2766C112.215 16.6864 111.086 18.2307 109.788 19.6259C110.121 21.4686 110.703 23.2557 111.019 25.1013C112.56 25.9144 114.23 24.7766 115.409 23.8231C116.728 22.8316 117.597 20.9509 119.361 20.6935C120.022 23.6184 117.109 26.008 117.07 28.9563C116.76 30.2198 117.705 31.1265 118.235 32.1239C119.443 30.7755 120.885 29.6407 122.034 28.2455C122.388 27.0375 122.084 25.7564 122.034 24.5309C121.838 22.5449 122.525 20.518 121.879 18.5759C119.878 15.9493 116.412 16.0312 113.496 15.2766ZM101.305 20.9275C103.827 24.1682 106.948 27.137 108.41 31.0505C108.43 33.7852 107.573 36.4586 107.819 39.205C108.296 39.1202 109.249 38.9506 109.726 38.8657C110.01 35.4729 110.019 31.9104 108.816 28.6784C107.708 26.6193 106.731 24.4812 106.558 22.1004C104.804 21.7318 103.054 21.3223 101.305 20.9275ZM42.5359 21.0883C42.5125 21.2024 42.4657 21.4306 42.4423 21.5446C41.8339 21.6441 41.1817 21.7757 40.7693 22.2905C39.0904 23.9489 38.0258 26.1455 36.224 27.6839C35.1418 28.3771 33.7964 27.9296 32.5796 27.9209C31.8338 29.5851 31.3629 31.5652 29.7776 32.6708C28.9352 33.4927 27.7799 32.6679 26.8586 32.3784C25.9314 34.183 25.2704 36.3357 23.3634 37.3594C22.5327 37.9122 21.4534 37.8099 20.614 38.3363C20.8333 40.1819 20.9299 42.0831 21.5178 43.8614C23.9483 43.0366 26.4725 44.11 28.5579 45.3677C29.8507 43.4666 30.8627 41.3841 31.9859 39.3864C32.5943 36.7862 34.3697 34.7504 35.7239 32.5305C36.6452 30.5211 37.7186 28.5585 39.3566 27.0346C41.0442 25.4932 41.8954 23.3347 43.0039 21.3896C42.8869 21.3136 42.6529 21.1644 42.5359 21.0883ZM91.2848 22.0945C90.6267 21.9834 90.0593 21.5973 89.4626 21.3194C87.2485 23.5277 85.359 26.0577 83.8205 28.7749C82.7354 30.7521 82.8173 33.0833 82.6155 35.2623C82.4488 37.1956 83.0805 39.1026 82.7793 41.0389C81.8609 44.0106 84.8384 45.8796 86.7717 47.5087C89.8019 49.0238 93.3615 48.3423 96.6081 48.3043C98.325 47.9036 99.8898 46.994 101.341 46.0171C102.373 45.3502 102.326 44.0047 102.692 42.9635C103.171 41.0243 105.067 39.8192 105.47 37.845C105.93 35.6191 106.325 33.095 105.409 30.9393C103.637 28.0466 101.592 25.2124 98.869 23.1445C97.4095 21.9775 95.3825 22.2758 93.8207 21.2931C93.0017 21.6294 92.1798 22.0331 91.2848 22.0945ZM68.6346 23.3493C66.8445 23.7675 65.037 24.1244 63.1855 24.1127C62.2671 24.1244 61.2902 24.2033 60.5678 24.838C59.4885 25.7564 57.9909 26.0548 57.1076 27.2277C55.028 29.4593 52.4863 31.3283 51.0034 34.0514C49.8042 36.09 50.708 38.5615 50.9215 40.7318C51.7844 43.3408 52.3225 46.2393 54.6039 48.0381C55.2182 49.9569 56.5373 51.6065 58.3507 52.5191C62.9223 54.271 68.2543 53.961 72.6212 51.7761C75.7391 49.562 78.9184 46.9033 79.9685 43.06C80.7055 41.1501 80.5037 39.0793 80.258 37.0991C79.4742 33.0833 77.9093 29.2253 75.7362 25.7652C73.9549 23.9109 71.2114 22.7292 68.6346 23.3493ZM111.984 28.0466C112.066 31.6793 112.771 35.2798 112.361 38.9272C113.803 39.7198 115.278 40.4481 116.72 41.2378C116.959 39.8222 117.228 38.4124 117.363 36.9792C116.506 36.2041 115.588 35.4144 115.169 34.2971C113.879 31.9162 114.853 29.1961 115.093 26.6778C114.087 27.2043 113.046 27.6576 111.984 28.0466ZM123.938 29.4915C121.984 30.3661 119.957 31.729 119.445 33.9549C119.34 35.5752 120.808 36.5288 122.002 37.2922C123.482 36.4147 124.857 35.3793 126.073 34.1655C126.573 34.7417 127.416 35.3208 127.234 36.1895C126 38.0555 124.453 39.7052 122.704 41.1003C120.355 43.37 120.498 47.0525 118.182 49.3894C117.696 49.1935 117.185 49.0355 116.758 48.7226C116.772 47.5204 117.109 46.3505 117.527 45.2361C115.514 44.8676 114.175 43.1741 112.3 42.5306C110.598 42.2615 108.857 42.3434 107.146 42.2206C105.816 46.1925 102.113 49.3573 102.262 53.7797C102.978 53.7621 103.698 53.7563 104.415 53.7592C105.795 51.6708 107.284 49.4713 109.752 48.5792C110.896 47.9562 112.242 48.3833 113.175 49.2081C113.812 50.0651 113.06 51.0215 112.66 51.7995C111.812 53.104 111.581 54.6864 111.224 56.1751C111.999 56.5934 112.68 57.2603 113.543 57.5089C115.295 57.2047 116.863 56.2775 118.489 55.5989C120.972 54.5957 123.078 52.7121 124.403 50.3897C125.281 48.7957 126.687 47.5994 127.749 46.1399C129.609 43.2881 131.002 39.6642 129.487 36.3328C128.454 34.3 127.755 32.1268 127.115 29.9478C126.205 29.3277 124.985 29.1727 123.938 29.4915ZM44.1504 39.6964C43.0946 41.0594 42.1206 42.5452 40.7166 43.5865C39.8392 44.0164 38.8008 43.9258 37.8444 44.0486C36.1363 46.213 34.1825 48.8542 31.164 49.0355C30.8832 48.4827 30.6024 47.9328 30.3246 47.38C29.7016 47.8539 29.1254 48.4184 28.3971 48.7343C27.192 48.4272 26.297 47.4824 25.209 46.9355C23.6149 46.757 21.7401 47.0759 20.8304 48.5646C19.1954 50.7612 18.4583 53.9025 19.6224 56.4706C21.0615 57.8482 23.2347 58.1436 25.1417 58.3366C27.1481 57.737 28.5901 56.0172 30.4182 55.0374C31.1318 56.336 31.6144 57.7575 31.6144 59.258C31.6408 60.5157 32.8166 61.2206 33.422 62.1975C33.8871 63.3352 33.6765 64.6836 34.3229 65.7512C35.5776 66.6316 37.3062 66.4853 38.5844 67.3189C39.1518 68.3806 39.0641 69.65 39.2805 70.8171C40.4446 70.8931 41.6263 70.8317 42.7757 71.0715C44.3669 71.522 44.7968 73.2886 45.999 74.2011C48.1721 75.3419 50.4331 76.3451 52.4629 77.7432C53.7996 78.9775 55.7183 78.2053 57.2656 78.761C57.9178 79.6209 58.0816 80.7616 58.766 81.5982C59.9038 81.8848 61.144 81.5718 62.2466 81.993C63.4488 82.8412 63.9401 84.4528 65.3324 85.07C66.283 85.535 67.5728 86.4798 68.4298 85.3595C70.29 83.1337 73.0979 82.2446 75.859 81.7795C77.1226 81.7444 78.3071 82.2943 79.559 82.3732C81.4982 81.449 83.1098 79.8696 85.2596 79.387C86.5699 78.9687 88.1523 79.3577 89.2403 78.3866C90.4307 77.3103 91.1561 75.8215 92.2822 74.6867C93.341 74.3415 94.625 74.9645 95.5493 74.1661C96.8713 72.7182 97.5002 70.7469 98.907 69.3605C99.7582 68.7287 100.802 68.3719 101.498 67.5266C103.119 65.5347 103.043 62.7444 104.54 60.6765C105.427 59.4452 104.827 57.6902 103.917 56.6402C102.762 56.3887 101.39 56.9122 100.39 56.1196C99.726 54.1482 99.726 52.0569 99.6265 50.0037C98.6994 50.4336 97.7605 50.9162 96.7251 51.0069C92.8993 51.1999 88.8776 51.2848 85.2508 49.8633C83.6801 48.7518 82.4078 47.2835 81.0887 45.8971C78.1872 50.1499 74.2883 54.3412 69.0938 55.558C66.359 55.8066 63.6096 56.5495 60.8661 55.9499C61.0591 55.7276 61.2522 55.5083 61.4482 55.286C60.1992 55.324 58.9094 55.6633 57.6955 55.2567C55.809 54.625 55.0544 52.4459 53.0801 51.9165C52.5946 50.4131 51.8136 49.0384 50.7841 47.8392C49.4415 46.5582 49.9592 44.5722 49.1374 43.0542C48.1283 41.1501 47.9879 38.9418 47.8797 36.8329C46.5547 37.6724 45.2092 38.5265 44.1504 39.6964ZM108.828 58.0968C107.328 61.8962 105.026 65.3095 103.248 68.9773C102.522 70.5597 100.811 71.2119 99.6529 72.3936C98.8514 73.3793 98.3074 74.5551 97.4738 75.5144C96.1664 76.9125 94.2126 77.1904 92.5571 77.9479C91.4427 78.8634 90.8431 80.3171 89.5357 81.0132C87.7867 82.0661 85.6018 81.8585 83.8381 82.8851C81.9427 83.7626 80.1118 85.5701 77.8567 84.757C76.0901 84.3475 74.1889 84.5581 72.5773 85.3829C71.0593 86.082 70.2432 87.638 69.2312 88.8899C70.252 89.7176 71.1529 90.8027 72.3228 91.3614C75.6923 90.9577 79.1144 90.9782 82.4721 91.5486C82.9489 89.6971 83.1946 87.7638 84.0253 86.0264C84.8793 84.9179 86.4383 84.5347 87.7779 84.7746C89.4129 84.5611 90.2084 86.1493 91.5714 86.6055C92.7034 86.0118 93.0544 84.6693 93.6305 83.628C94.4992 81.9111 95.2246 80.0714 96.4296 78.5563C98.4537 77.4478 100.603 79.1851 102.663 79.3811C102.534 77.6232 102.414 75.8625 102.516 74.1017C103.063 72.9522 104.479 72.5457 105.105 71.4605C105.576 69.9221 105.292 68.249 105.702 66.6959C106.518 64.4145 108.091 62.525 109.264 60.4338C109.381 59.644 108.983 58.869 108.828 58.0968ZM153.655 64.1308C152.88 64.8445 152.482 65.8623 151.812 66.6637C150.277 68.407 149.847 71.1125 150.862 73.2155C152.239 76.541 154.994 79.1091 156.167 82.5341C156.676 84.0638 158.112 85.0027 158.744 86.4681C159.826 88.34 159.841 90.6653 161.309 92.3441C163.073 94.7162 163.696 97.6879 164.167 100.54C164.269 103.432 163.076 106.173 162.427 108.946C161.192 112.499 160.756 116.267 159.584 119.838C157.636 125.035 156.354 130.508 153.558 135.354C151.467 140.148 149.425 145.103 145.842 149.008C143.368 151.669 142.023 155.246 139.212 157.607C136.12 160.652 132.821 163.503 130.054 166.858C128.606 168.259 126.404 169.061 124.421 168.362C122.435 167.636 120.437 166.931 118.472 166.159C116.632 165.308 114.54 165.522 112.613 165.01C110.033 164.314 107.442 165.349 104.853 165.501C103.262 165.753 101.575 165.454 100.059 166.109C98.5999 166.776 97.3481 167.806 96.1459 168.853C93.8294 168.642 92.1827 170.5 90.7759 172.05C89.2959 173.539 88.7226 175.607 87.5994 177.335C85.9732 179.783 85.631 182.77 84.7594 185.519C84.8969 189.456 87.3742 192.77 90.1646 195.338C91.782 196.68 93.8967 196.984 95.8388 197.581C98.4244 198.163 101.071 197.599 103.686 197.762C107.418 197.072 111.019 195.554 114.146 193.393C117.851 191.284 121.271 188.69 124.216 185.607C126.173 183.194 127.811 180.412 130.434 178.64C131.133 178.201 131.967 177.704 132.821 178.216C137.445 179.321 141.654 181.605 145.875 183.726C149.402 185.361 153.096 186.604 156.834 187.637C161.491 187.835 166.074 186.423 170.73 186.268C173.488 186.203 176.059 185.171 178.598 184.191C179.405 182.252 181.391 181.284 182.74 179.792C184.24 178.178 186.168 176.92 187.229 174.937C188.496 172.445 190.087 170.058 190.66 167.282C191.623 163.255 190.619 159.104 191.207 155.039C191.69 151.348 190.634 147.677 189.575 144.173C189.011 142.456 188.057 140.891 187.613 139.13C186.577 135.512 184.068 132.579 182.766 129.075C181.459 125.582 180.23 122.052 178.651 118.671C177.972 114.254 174.854 110.835 173.05 106.881C171.912 104.556 171.736 101.923 170.733 99.554C169.592 96.7607 168.999 93.7773 167.87 90.9812C167.326 89.6708 166.393 88.5798 165.787 87.3075C165.515 86.1756 166.279 85.0056 165.977 83.862C165.363 81.487 164.386 79.1442 164.544 76.6405C164.588 74.1836 164.313 71.7209 163.526 69.3839C163.029 67.705 162.459 65.5874 160.686 64.8328C158.557 63.7067 155.933 63.189 153.655 64.1308ZM124.921 68.4274C123.473 70.0332 121.739 71.3377 119.99 72.5954C118.589 73.6191 118.387 75.5671 117.12 76.7107C116.061 77.9362 114.345 77.7958 113.011 78.4744C111.8 79.7643 111.235 81.5309 110.127 82.9026C108.278 84.5698 105.874 85.5584 104.222 87.4538C103.61 88.5564 103.277 89.7936 102.642 90.8876C102.113 91.0543 101.548 91.0309 101.001 91.0835C98.4858 91.0221 97.6142 94.023 96.1635 95.5674C95.2275 97.7464 92.484 96.0997 90.9367 97.3311C90.1265 98.0272 89.6703 99.0392 89.1409 99.9459C88.6378 101.315 89.2783 102.815 89.0209 104.222C88.3424 105.655 86.7395 106.477 86.1048 107.94C86.4207 109.288 88.0411 110.084 88.2342 111.528C88.3512 112.833 87.851 114.123 87.9826 115.424C88.5266 116.626 89.4772 117.598 90.0798 118.776C91.3287 120.891 91.7177 123.336 92.2032 125.708C92.4518 126.764 91.6007 127.642 91.1824 128.531C90.2991 130.034 88.9508 131.561 87.0408 131.523C85.1718 131.871 83.2004 131.865 81.387 131.251C78.9155 133.33 75.1424 133.24 72.861 135.673C72.1473 136.782 71.7379 138.054 71.0125 139.157C69.4565 140.71 67.1751 140.73 65.3002 141.649C63.8114 142.193 62.6064 143.313 61.1059 143.813C58.6929 143.959 56.2711 143.012 53.8786 143.623C51.9716 144.351 50.7841 146.214 49.0467 147.224C46.7945 148.177 44.3318 148.75 42.2814 150.113C40.8921 152.213 39.0612 153.948 37.47 155.884C36.1275 157.68 34.8289 159.514 33.6121 161.395C32.954 162.527 33.3986 163.922 32.9277 165.118C32.1585 167.195 31.3249 169.26 30.8218 171.421C30.851 174.165 30.696 177.291 32.5153 179.579C33.966 181.617 34.9342 184.068 37.002 185.598C38.2919 186.604 39.2864 187.923 40.2194 189.257C41.3426 189.073 42.4394 188.66 43.583 188.602C44.4663 188.938 44.987 189.813 45.7269 190.365C46.9759 191.649 48.8244 190.082 50.2664 190.105C50.9303 190.953 51.5942 191.796 52.2553 192.65C53.4866 192.34 54.5835 191.688 55.7622 191.243C57.0638 191.009 58.3741 191.723 59.6815 191.456C61.2697 191.091 62.7907 190.494 64.3175 189.936C64.7708 190.286 65.2212 190.646 65.6746 191.003C65.7419 187.496 65.6424 183.98 65.97 180.479C66.5579 176.563 64.3028 172.854 65.1276 168.935C65.2329 166.376 67.412 164.764 68.4766 162.614C70.486 159.412 68.8335 155.29 70.799 152.076C71.6998 150.096 73.4548 148.695 75.391 147.806C75.5987 148.206 75.8093 148.616 76.0199 149.022C72.6212 151.008 71.6618 155.17 71.653 158.824C71.7671 161.591 70.4334 164.042 68.772 166.133C66.7597 168.218 67.1341 171.415 67.7191 174.004C68.4474 176.578 68.5176 179.28 69.1961 181.866C69.2166 180.83 69.0323 179.742 69.4711 178.76C70.3778 176.522 71.4805 174.314 73.1418 172.533C74.1187 171.474 73.5513 169.728 74.5457 168.695C76.2246 167.32 78.0878 166.194 79.793 164.858C83.4695 161.918 85.2186 157.279 88.8133 154.267C89.0794 154.714 89.3398 155.17 89.6001 155.627C87.3421 158.818 85.163 162.082 82.5891 165.033C80.9688 166.885 78.7663 168.049 76.8418 169.52C76.052 170.816 76.4615 172.538 75.587 173.811C74.0778 176.145 72.5247 178.543 72.0157 181.331C71.5828 183.603 70.5328 185.765 70.6498 188.125C73.4197 187.449 75.9204 186.086 78.1316 184.299C78.2808 181.91 78.3978 179.52 78.2954 177.13C78.3832 176.101 78.0731 174.934 78.6259 173.983C79.4888 171.889 81.7673 171.032 82.9284 169.16C85.4117 165.527 89.0268 162.673 90.7642 158.549C91.6475 156.674 90.4366 154.433 91.937 152.74C93.3147 150.289 92.6419 147.186 94.2799 144.84C95.1222 143.562 96.7631 142.977 97.3861 141.541C97.6113 140.672 98.3542 139.938 98.3981 139.016C98.2372 138.001 97.7137 137.095 97.2866 136.179C96.1664 134.006 95.9792 131.517 95.2772 129.206C94.8327 125.404 95.1866 121.575 95.4674 117.776C95.5697 114.523 95.0345 111.104 96.415 108.048C96.7251 107.34 97.3802 106.609 98.2343 106.784C98.7315 107.194 99.2639 107.875 98.9041 108.539C97.9564 110.712 97.5528 113.076 97.6844 115.448C98.6116 116.085 99.5446 116.723 100.469 117.366C100.536 119.54 99.6938 121.496 99.0182 123.491C98.1963 125.755 100.761 126.662 101.984 127.972C104.204 129.604 104.341 132.64 104.423 135.135C105.892 134.848 107.369 134.62 108.855 134.451C110.58 136.211 109.855 138.779 110.337 140.947C112.113 141.766 114.222 141.102 116.111 141.327C117.068 142.395 117.691 143.968 119.112 144.477C121.478 144.796 122.985 142.573 125.158 142.096C125.822 142.851 126.57 143.588 127.697 143.562C128.831 143.772 130.083 144.322 131.177 143.725C133.523 142.553 136.261 143.032 138.688 142.164C141.315 141.345 143.684 139.859 145.875 138.218C148.279 136.059 148.861 132.731 149.75 129.783C150.549 127.551 150.367 125.114 150.124 122.804C149.908 119.926 147.793 117.796 146.272 115.527C144.579 113.307 141.288 112.657 140.297 109.908C139.379 109.814 138.478 109.68 137.647 109.276C136.588 108.674 135.398 109.61 134.316 109.115C131.844 108.182 129.475 106.986 127.176 105.69C126.793 105.512 126.363 105.211 125.936 105.442C124.456 106.103 123.339 107.413 121.78 107.913C118.042 108.744 114.201 108.402 110.425 108.124C108.805 105.977 106.474 104.608 104.33 103.067C103.002 101.78 103.101 99.6739 102.677 97.9862C101.841 94.5612 103.616 91.3497 105.204 88.4658C106.363 86.667 108.53 85.9767 110.422 85.2279C111.779 84.7307 112.762 83.5403 114.119 83.0635C116.851 82.5575 119.1 84.681 121.727 85.0144C124.988 84.8974 125.845 88.5243 127.98 90.2119C129.852 87.9773 131.914 85.5263 134.848 84.7687C137.401 83.941 139.966 84.7482 142.356 85.6842C141.932 83.6865 140.879 81.8789 140.496 79.8812C140.911 78.9599 141.452 78.1029 141.952 77.2255C141.122 75.2629 141.601 73.1716 141.768 71.1388C140.581 72.7884 139.961 74.7832 138.717 76.3919C137.615 77.9274 135.494 77.9333 134.111 79.0828C133.081 80.475 132.473 82.11 131.613 83.6017C128.899 83.5666 129.004 80.5891 128.413 78.6821C127.729 76.6522 129.735 74.9324 129.478 72.9259C128.995 71.6624 127.904 70.7615 127.308 69.5652C127.629 68.0852 128.559 66.81 129.118 65.409C127.047 65.2861 126.158 67.2019 124.921 68.4274ZM21.5499 79.1793C19.8828 79.8959 18.9907 81.6011 17.9787 83.0021C21.1931 82.7652 24.4192 82.6599 27.6278 82.3586C29.9677 82.1831 32.252 82.8003 34.5715 82.9436C34.4428 82.5019 34.3112 82.0603 34.1766 81.6186C32.4656 81.0571 30.6521 80.9986 28.8826 80.7646C26.9902 80.9459 26.4169 78.6996 24.8316 78.2346C23.6792 78.2404 22.6146 78.8137 21.5499 79.1793ZM19.6049 84.5289C19.4323 86.1083 19.3914 87.717 19.0579 89.273C18.3794 90.6536 17.1041 91.6568 16.4373 93.0461C16.0599 93.9938 16.8965 94.8595 17.1538 95.7224C17.9114 97.0327 17.809 98.6531 18.5549 99.9488C19.6692 101.005 20.9942 101.827 22.2987 102.625C24.0098 103.894 26.3701 103.737 28.0373 105.082C28.6369 105.401 29.1488 106.041 29.8624 106.088C32.6352 105.825 34.9342 104.146 37.1834 102.66C37.8269 102.303 38.7072 101.546 39.4355 102.157C40.7313 103.058 40.3364 104.813 40.3715 106.185C40.4271 109.706 38.3446 113.172 35.1214 114.646C33.3226 115.208 31.3717 114.749 29.5261 114.79C29.6197 115.688 29.6957 116.583 29.7776 117.489C31.6495 116.553 33.7554 117.048 35.7502 116.817C37.236 116.697 38.7453 117.024 40.2106 116.787C41.7374 115.799 41.4859 113.576 41.5941 112.031C41.4976 107.504 41.3016 102.988 41.5093 98.4601C40.9594 97.9921 40.3715 97.5475 39.9445 96.9596C39.5789 95.892 40.509 95.3246 41.0793 94.6694C40.6991 92.0253 41.015 89.3374 40.5675 86.7021C39.6081 85.0846 37.3969 85.5292 35.8467 85.3303C32.875 85.301 29.9297 84.5318 26.9551 84.8301C24.507 85.0729 22.0062 85.1343 19.6049 84.5289ZM8.92617 84.874C8.57226 86.199 7.18587 86.4622 6.39031 87.3719C5.72929 88.4277 5.98375 89.7849 5.91648 90.9548C6.02762 94.3886 5.51577 97.8107 5.68249 101.247C5.57427 103.231 6.46636 105.097 6.38446 107.071C6.27331 109.703 7.29117 112.342 6.50145 114.936C6.94896 115.22 7.38769 115.518 7.81472 115.831C9.39708 111.874 12.2459 108.618 14.2494 104.895C15.475 102.689 14.5273 100.133 14.1061 97.8429C13.6966 96.1494 12.0031 94.801 12.5442 92.935C13.3895 91.1479 15.0158 89.8843 16.0599 88.223C16.4373 86.7986 15.2819 85.3917 13.9189 85.1665C12.2752 84.8623 10.5904 84.9384 8.92617 84.874ZM110.937 87.2666C108.389 88.7582 105.503 90.5453 104.722 93.5901C103.599 96.0792 105.143 98.6882 105.468 101.16C107.579 102.654 110.282 103.511 111.657 105.866C113.04 105.983 114.374 106.503 115.766 106.521C118.027 106.249 120.34 106.15 122.537 105.509C123.64 104.939 124.681 104.175 125.529 103.266C127.05 100.069 127.811 96.4214 127.401 92.8823C126.193 90.9607 124.304 89.5567 122.894 87.7872C120.914 87.2051 118.96 86.5061 117.059 85.6901C114.839 84.8272 112.911 86.5734 110.937 87.2666ZM136.81 86.8395C133.915 87.0296 131.44 88.8577 129.826 91.1742C129.39 92.1072 129.545 93.1894 129.416 94.178C129.282 97.0649 128.58 99.8903 128.399 102.771C128.34 103.582 128.747 104.602 129.63 104.76C131.399 105.205 132.991 106.138 134.734 106.664C136.556 107.322 138.489 106.463 140.312 106.307C141.429 106.188 142.14 105.255 142.798 104.45C143.889 102.988 145.974 102.596 146.802 100.888C147.498 99.4633 148.062 97.9687 148.443 96.4302C148.805 94.1137 147.27 92.1189 146.03 90.3406C144.731 88.536 142.338 88.4453 140.566 87.3397C139.446 86.6523 138.097 86.3394 136.81 86.8395ZM43.3461 87.4684C43.0712 89.4456 42.7026 91.4287 42.8606 93.4351C45.0952 92.8823 47.4789 93.0783 49.658 92.312C50.5237 91.6012 51.9452 90.8583 51.8048 89.5392C51.448 88.3985 50.1143 88.0651 49.0584 88.3078C47.1104 88.7261 45.2005 88.0095 43.3461 87.4684ZM62.7585 89.8989C60.7637 89.9077 60.6935 92.4992 59.2048 93.324C56.9672 93.6954 54.639 93.4702 52.422 94.0377C49.6346 95.4913 46.3704 95.5323 43.6181 97.0678C43.1414 102.701 43.7468 108.352 43.8755 113.985C43.7263 116.05 42.375 117.715 41.2811 119.364C38.795 119.762 36.2825 119.525 33.7818 119.505C34.1737 120.154 34.94 120.783 34.7704 121.613C33.3606 124.91 30.5819 128.741 26.5573 128.267C27.7097 130.21 29.491 131.672 31.5062 132.661C32.8546 133.222 33.1909 134.851 34.2702 135.685C35.6625 135.939 37.1044 135.738 38.5113 135.817C39.4209 136.542 40.4037 137.501 41.7199 136.934C43.9896 136.662 46.2681 136.899 48.5261 137.188C50.7109 137.797 51.9628 135.553 53.6387 134.641C54.9783 134.079 56.5256 134.357 57.8827 133.854C58.7836 133.342 59.4154 132.432 60.4186 132.087C62.2642 131.467 63.867 130.312 65.2827 129.005C66.5316 127.811 66.9089 126.053 67.6079 124.544C68.269 123.406 69.2459 122.503 70.1175 121.531C69.8923 119.709 69.4448 117.767 70.2052 116.003C70.7814 114.333 71.577 112.614 71.226 110.812C71.1178 108.975 70.3134 107.322 69.6817 105.635C69.4331 103.76 69.7548 101.838 69.3512 99.9751C68.7896 98.4103 67.7425 97.0122 67.4675 95.348C67.3301 94.1459 67.8449 92.6513 66.9352 91.6305C65.8559 90.5424 64.4403 89.2935 62.7585 89.8989ZM17.6277 103.371C16.5279 105.424 16.0044 107.776 14.7642 109.741C11.8101 110.973 10.2804 114.211 9.90893 117.217C10.1224 119.306 9.81241 121.654 11.0877 123.474C11.7019 125.027 13.3486 125.577 14.656 126.396C13.837 123.901 13.0561 121.081 14.1734 118.551C14.5185 117.773 15.4077 117.688 16.1477 117.612C15.9137 119.376 15.3433 121.145 15.7499 122.935C16.0833 124.515 16.9784 125.93 17.967 127.179C19.561 127.422 21.0995 126.668 22.597 126.229C20.6169 123.105 19.2919 119.259 20.9737 115.673C21.3891 115.807 21.8073 115.951 22.2227 116.1C22.0676 117.829 21.9389 119.604 22.366 121.312C22.8808 122.985 23.9747 124.377 25.1446 125.641C26.4082 125.585 27.6454 125.922 28.9031 125.901C29.7981 125.55 30.5995 124.913 31.2342 124.196C31.942 123.377 31.123 122.342 30.9797 121.467C30.4737 121.643 29.994 122.026 29.4471 122.023C28.2245 121.716 27.6863 120.306 27.6746 119.156C27.736 116.802 27.8355 114.424 28.3532 112.122C28.789 112.491 29.216 112.868 29.6489 113.242C31.5208 112.497 33.6794 113.146 35.4343 112.037C38.0579 110.771 39.0553 107.513 38.1778 104.854C35.5601 106.141 33.2202 108.191 30.2485 108.615C29.4763 108.753 28.7948 108.147 28.1104 107.948C26.3175 106.98 24.1823 106.831 22.4859 105.673C20.9971 104.655 19.3943 103.789 17.6277 103.371ZM97.6347 128.036C97.8892 129.329 98.1612 130.625 98.1553 131.95C99.1615 131.614 100.179 131.295 101.188 130.958C100.217 129.747 98.8866 128.923 97.6347 128.036ZM99.1673 133.927C99.726 135.507 100.153 137.127 100.492 138.768C101.095 136.855 101.575 134.884 101.633 132.871C100.791 133.178 99.9717 133.538 99.1673 133.927ZM103.207 137.741C102.47 138.943 102.513 140.435 102.177 141.78C104.067 141.579 105.892 141.011 107.752 140.646C107.822 139.487 107.723 138.329 107.705 137.174C106.213 137.39 104.678 137.399 103.207 137.741ZM32.4656 138.039C31.1201 138.809 29.6255 139.265 28.204 139.862C28.4468 141.555 28.2157 143.234 27.6805 144.846C29.8098 144.705 31.9362 144.486 34.0684 144.381C36.7096 144.345 39.2747 145.074 41.8018 145.758C42.3165 144.676 42.7377 143.527 43.466 142.57C44.3464 141.47 45.803 141.538 47.011 141.14C47.3005 140.625 47.4409 140.043 47.6252 139.487C45.4988 139.18 43.3198 139.297 41.2373 139.824C39.5935 140.3 38.2012 138.92 36.5984 138.815C35.1886 138.759 33.8052 138.469 32.4656 138.039ZM6.29964 139.944C5.32858 140.681 3.88077 140.409 3.03548 141.321C2.08782 144.109 2.12292 147.136 2.64354 150.011C4.54179 150.666 7.29994 150.631 8.13061 152.772C8.24175 154.565 7.95804 156.373 7.72405 158.154C8.08381 158.569 8.80626 159.403 9.16601 159.818C10.6489 160.152 12.4857 159.856 13.72 160.935C14.6794 162.269 14.15 164.118 14.6794 165.592C15.8494 166.455 17.7242 166.033 18.6719 167.361C20.5935 169.482 22.0793 171.948 23.9074 174.144C25.2733 174.934 26.9317 174.676 28.4263 175.01C28.4936 173.79 28.5667 172.582 28.6632 171.374C27.2534 170.529 25.5833 170.128 24.3081 169.075C23.5037 167.791 23.612 166.15 23.0153 164.785C22.1554 163.939 20.9708 163.512 19.9413 162.904C19.9822 162.383 20.0231 161.868 20.0612 161.351C19.4294 160.605 18.3881 159.853 18.9409 158.686C19.4967 157.484 20.5789 156.627 21.237 155.489C21.471 154.217 21.0235 152.907 20.9971 151.637C19.21 151.333 17.4083 151.105 15.6446 150.678C14.9397 150.113 14.2026 149.28 14.3518 148.312C14.1997 146.182 15.8903 144.661 16.3788 142.728C16.2705 141.81 15.7353 140.923 15.1152 140.239C12.5559 138.481 8.93787 138.168 6.29964 139.944ZM105.032 143.529C105.038 143.761 105.049 144.229 105.052 144.46C106.064 144.825 107.076 145.167 108.062 145.612C108.881 146.147 109.451 146.975 110.191 147.61C110.525 146.381 110.832 145.15 111.171 143.927C109.167 143.433 107.07 143.003 105.032 143.529ZM112.923 143.913C112.496 145.545 112.455 147.238 113.254 148.765C114.283 147.855 115.272 146.899 116.263 145.951C115.947 145.436 115.313 144.404 114.997 143.889C114.476 143.895 113.441 143.907 112.923 143.913ZM120.153 147.054C118.492 147.051 117.024 147.806 115.909 148.973C118.732 149.028 121.68 149.131 124.356 148.083C125.971 147.566 127.641 147.232 129.238 146.662C127.542 145.963 125.687 145.419 123.842 145.597C122.631 146.133 121.522 146.978 120.153 147.054ZM26.961 147.183C25.9636 147.092 25.1329 147.601 24.3578 148.122C28.2654 149.075 32.1994 150.002 35.9549 151.447C37.3179 150.11 38.6078 148.686 40.2048 147.61C36.0485 145.668 31.3161 146.539 26.961 147.183ZM23.1323 150.347C23.2639 151.778 23.5973 153.205 23.5798 154.65C23.6061 156.463 22.1963 157.671 21.2048 159.008C22.2168 160.514 23.2054 162.056 24.5801 163.267C25.9577 164.381 25.7588 166.326 26.4725 167.8C27.271 168.476 28.3239 168.733 29.2716 169.134C29.7893 167.683 30.2895 166.221 30.6551 164.723C31.0236 163.264 30.6141 161.547 31.6583 160.304C32.8838 158.397 34.0918 156.475 35.4372 154.65C34.4808 153.647 33.6267 152.307 32.0532 152.292C29.0669 151.696 26.1654 150.716 23.1323 150.347ZM75.3238 192.287C73.5688 192.72 72.4983 194.302 71.4337 195.636C74.9815 198.181 79.4771 197.385 83.5485 197.145C83.3672 194.636 81.2817 192.781 79.2051 191.69C77.8976 191.442 76.5902 192.036 75.3238 192.287Z" fill="black"/>
<path d="M89.7257 39.6729C90.6646 38.5761 92.3728 39.5851 92.6623 40.7639C92.9841 42.3608 91.6825 43.4957 90.9834 44.7417C90.0504 44.4843 88.6816 44.5135 88.1609 43.4869C88.0849 42.083 88.819 40.7024 89.7257 39.6729Z" fill="black"/>
<path d="M75.9672 41.1002C76.6574 41.9104 77.8128 42.5042 78 43.6332C77.8771 44.847 76.9265 45.7654 76.3737 46.7979C75.1745 46.6838 72.7323 46.1544 73.5717 44.2883C74.1947 43.1067 75.1073 42.1122 75.9672 41.1002Z" fill="black"/>
<path d="M121.818 95.4796C123.295 95.389 123.903 97.3223 124.064 98.5361C123.315 99.6447 122.329 100.584 121.282 101.408C119.96 101.794 118.153 101.262 117.822 99.7821C117.36 98.6327 118.589 97.7172 119.103 96.8397C119.747 96.0061 120.817 95.6551 121.818 95.4796Z" fill="black"/>
<path d="M136.237 96.98C137.337 96.5647 138.299 97.1468 139.191 97.6703C138.966 98.6384 139.218 100.385 137.901 100.736C136.419 101.49 135.161 100.382 133.95 99.7528C134.316 98.6326 134.824 97.0883 136.237 96.98Z" fill="black"/>
<path d="M164.29 127.49C166.042 123.047 167.478 118.294 170.853 114.746C171.283 115.682 172.026 116.542 172.14 117.606C172.567 120.871 174.565 123.614 175.512 126.715C176.165 128.721 177.744 130.608 177.25 132.833C179.408 134.647 180.862 137.186 181.699 139.856C182.863 143.234 184.776 146.367 185.375 149.926C185.975 152.746 187.11 155.691 186.2 158.566C185.29 161.635 185.709 165.066 183.995 167.882C182.412 170.649 181.584 173.96 179.078 176.098C176.32 178.535 173.044 180.608 169.356 181.19C165.495 181.471 161.625 180.804 157.764 181.123C155.091 181.38 152.672 180.216 150.154 179.605C147.592 179.237 145.117 178.47 142.704 177.558C141.575 177.046 140.756 176.043 139.645 175.504C137.726 174.653 135.728 173.998 133.824 173.118C134.339 171.983 134.757 170.743 135.632 169.833C139.136 167.078 141.411 163.144 144.547 160.02C148.472 155.902 151.567 151.061 154.126 146.007C154.746 142.456 157.855 140.154 159.212 136.934C160.66 133.655 162.31 130.479 164.29 127.49ZM169.42 120.098C169.61 120.78 169.812 121.461 170.014 122.143C169.631 122.093 169.25 122.046 168.87 122.006C166.963 126.188 165.688 130.657 163.31 134.623C161.71 137.554 159.002 140.327 159.221 143.898C162.228 143.588 165.287 143.559 168.268 144.144C170.643 144.837 172.681 146.504 173.886 148.669C174.699 148.771 175.577 148.619 176.343 148.967C177.838 150.213 179.028 151.83 179.903 153.568C180.833 155.121 180.268 157.022 180.002 158.678C179.046 162.594 175.942 165.545 172.626 167.607C169.829 169.438 166.366 170.126 163.073 169.514C160.985 169.19 159.028 170.939 156.975 170.152C155.465 169.59 153.675 169.321 152.549 168.058C151.242 166.06 150.827 163.463 151.569 161.181C152.713 159.324 154.796 158.359 156.349 156.908C157.121 155.858 157.425 154.548 157.832 153.334C156.398 152.901 154.971 152.462 153.588 151.901C151.022 156.592 147.267 160.476 143.625 164.334C141.686 167.215 139.004 169.462 136.816 172.138C138.057 172.448 139.297 172.749 140.537 173.077C141.917 173.375 142.268 175.133 143.707 175.373C145.43 176.165 147.293 176.537 149.107 177.049C152.672 178.169 156.501 177.797 160.075 178.871C161.953 179.772 163.792 178.631 165.621 178.265C166.714 178.359 167.647 179.33 168.803 179.049C172.813 178.365 176.472 175.92 178.826 172.632C182.64 167.686 184.398 161.313 183.924 155.103C184.085 152.386 182.433 150.023 182.526 147.317C180.891 142.787 178.891 138.23 175.811 134.474C175.954 133.933 176.106 133.395 176.258 132.857C173.79 130.081 172.125 126.568 171.903 122.839C171.909 121.403 170.35 120.868 169.42 120.098ZM157.729 146.013C156.922 147.3 156.109 148.587 155.302 149.877C157.03 150.406 159.367 150.716 160.037 152.693C160.835 154.448 159.434 156.194 158.361 157.44C156.825 159.321 154.114 160.184 153.336 162.661C153.418 164.15 153.731 165.829 154.848 166.914C155.954 167.59 157.29 167.865 158.572 167.99C160.613 167.73 162.447 166.651 164.401 166.063C166.08 165.452 166.463 163.469 166.96 161.977C167.08 160.146 166.466 158.306 166.937 156.493C167.808 156.806 168.958 157.174 169.069 158.268C169.3 161.415 168.458 164.627 166.703 167.247C167.484 167.066 168.27 166.899 169.06 166.721C169.23 166.016 169.353 165.288 169.677 164.633C170.616 163.609 172.988 164.688 173.345 163.041C173.796 161.386 173.292 159.614 172.827 158.022C172.348 156.706 170.894 156.206 169.87 155.408C170.675 154.621 171.81 154.144 172.871 154.767C175.121 156.282 175.422 159.23 176.039 161.632C177.025 160.055 177.972 158.373 178.154 156.484C178.139 153.492 175.682 150.438 172.529 150.564C171.324 149.754 170.821 148.04 169.373 147.446C165.875 145.258 161.619 146.18 157.729 146.013Z" fill="black"/>
<path d="M136.746 117.983C139.586 117.261 142.008 119.329 143.921 121.116C145.258 122.295 145.711 124.091 146.392 125.67C147.659 128.367 145.875 131.028 144.275 133.099C142.558 135.346 139.692 136.03 137.071 136.568C134.441 136.887 132.025 135.381 130.156 133.699C127.638 130.335 127.372 125.073 130.569 122.049C132.382 120.411 134.12 118.215 136.746 117.983Z" fill="black"/>
<path d="M102.49 170.567C105.005 170.192 107.562 170.067 110.092 169.818C113.859 170.111 117.77 170.707 121.089 172.632C122.142 173 122.06 174.358 122.221 175.212C122.359 176.332 122.619 177.435 122.648 178.569C121.642 181.017 119.946 183.24 117.623 184.574C115.155 186.233 112.748 188.028 109.978 189.166C107.407 190.202 104.906 191.553 102.127 191.921C100.761 191.986 99.3253 192.793 97.974 192.217C96.3507 191.518 94.5519 191.684 92.835 191.793C91.7323 190.649 90.5857 189.549 89.4743 188.423C88.6261 187.598 88.6553 186.335 88.5149 185.238C88.1464 183.053 89.4421 181.12 90.4015 179.274C91.5158 176.969 93.689 175.554 95.5375 173.904C97.234 171.825 100.062 171.298 102.49 170.567ZM103.016 174.001C102.73 173.72 102.443 173.445 102.157 173.17C99.6792 174.615 96.7309 175.346 94.6016 177.338C93.2444 179.359 91.665 181.284 90.5916 183.48C90.5068 184.735 90.6823 186.101 91.2906 187.215C93.6686 189.991 97.6932 189.605 100.99 189.739C104.578 189.827 107.418 187.584 110.56 186.256C112.727 185.235 114.321 183.223 116.649 182.527C118.381 182.003 119.124 180.152 120.033 178.759C120.335 178.072 121.104 177.165 120.498 176.428C119.773 175.384 118.644 174.697 117.53 174.132C112.982 172.231 107.544 171.854 103.016 174.001Z" fill="black"/>
<path d="M70.2285 3.79039C71.5038 2.95972 73.0832 3.37798 74.4842 3.59734C76.4322 3.3926 77.0406 5.82025 78.9593 5.66815C80.919 6.09519 82.8406 5.38152 84.7769 5.26452C86.9442 6.12444 89.1993 6.74451 91.3959 7.5313C90.8343 8.89722 90.5564 10.4094 89.7345 11.6495C88.3569 12.1526 87.0232 11.4097 85.6514 11.5823C81.9222 12.1468 78.2953 10.6902 74.6275 10.1988C73.2441 11.1494 72.0186 12.3895 70.5064 13.1266C69.354 12.9248 68.4853 12.0093 67.485 11.4799C65.9611 11.632 64.3993 11.942 62.8842 11.5384C61.7259 12.3398 60.6291 13.2758 59.3685 13.9017C57.5229 14.1035 55.8411 12.7756 53.9955 13.15C52.3254 14.162 51.0501 15.7385 49.3245 16.6832C48.5494 16.9085 47.7392 16.9669 46.9465 17.1132C47.8883 13.6209 50.9887 11.3132 53.6884 9.18385C54.7764 8.30932 56.2242 8.30932 57.4264 7.68632C58.9151 7.05455 60.2986 6.11859 61.8809 5.72373C63.5247 5.27037 64.8292 6.54269 66.3765 6.68016C67.7336 5.82025 68.8597 4.63567 70.2285 3.79039Z" fill="#6392D9"/>
<path d="M96.7397 13.0651C99.2492 13.2493 101.73 14.0449 104.26 13.8168C106.439 13.77 108.691 13.612 110.808 14.2321C109.211 16.2064 107.673 18.672 104.988 19.1488C103.844 18.9879 102.897 18.1631 101.73 18.0578C99.726 17.897 97.6435 17.7273 95.83 16.7855C95.0666 15.6214 95.1953 13.5243 96.7397 13.0651Z" fill="#F8EFD9"/>
<path d="M69.0205 15.7883C71.3253 16.6716 72.3315 13.6473 74.3263 13.2642C76.7539 13.4952 79.047 14.5102 81.4864 14.6973C82.9839 14.7822 84.4902 14.7763 85.9907 14.7295C87.4619 16.034 89.4274 16.7857 90.6968 18.292C88.3277 19.7808 86.0755 21.5211 84.3323 23.7352C82.902 25.3263 82.3609 27.4381 81.5185 29.348C80.3925 27.947 79.2284 26.4992 78.8452 24.6916C78.5995 23.6241 77.7279 22.9162 76.8855 22.3049C74.5281 20.7372 71.3019 19.421 68.5292 20.5588C66.0313 21.8077 63.0012 20.784 60.515 22.0944C56.7068 23.4486 54.4225 26.9613 51.7228 29.7341C50.626 31.0269 50.0323 32.7672 48.5874 33.75C47.2039 35.0311 45.4607 35.7184 43.7994 36.5286C42.3398 37.5816 42.255 39.7196 40.9037 40.8603C39.9268 41.1967 38.8505 40.9949 37.8326 41.0475C36.2269 42.8229 35.1329 45.625 32.3923 45.8824C32.3894 44.0426 33.2113 42.4252 34.4017 41.0826C35.5746 39.8981 34.8229 37.9676 35.9227 36.7334C36.6217 35.7096 37.4056 34.7415 38.0549 33.6827C38.5843 32.6239 38.634 31.3925 39.1781 30.3425C40.2164 28.883 41.7432 27.8681 42.8546 26.4729C43.9778 24.8788 44.1386 22.6998 45.7736 21.4655C48.2276 19.3976 51.0355 17.8094 53.5714 15.8497C55.4784 16.3324 57.3766 16.8501 59.2953 17.2946C60.3278 16.2914 61.1 14.5014 62.7642 14.4692C64.9667 14.1153 67.0229 14.9957 69.0205 15.7883Z" fill="#F8EFD9"/>
<path d="M38.4585 13.5247C39.2306 13.9692 39.994 14.4284 40.7486 14.9052C41.2429 14.446 41.7372 13.9868 42.2316 13.5276C43.3927 14.133 44.9926 14.876 44.4398 16.5695C42.9335 18.573 40.2192 19.1229 38.517 20.9129C37.5108 21.998 37.0721 23.5277 35.9109 24.4754C34.621 25.1861 33.0621 23.905 31.7722 24.7035C30.339 26.0168 29.6663 27.9384 29.134 29.7606C28.2273 29.5939 27.1392 29.0499 26.3495 29.8016C24.577 30.8779 23.9891 32.9429 23.6732 34.8587C22.4887 35.0547 21.1754 35.1219 20.2277 35.9789C19.049 36.8739 18.6366 38.3598 17.9785 39.6233C15.934 39.559 14.2347 38.2018 13.2168 36.5112C13.2168 33.3114 14.1703 30.0707 15.7 27.2774C16.6857 27.6606 17.6977 27.9706 18.7214 28.2456C20.0815 26.0109 21.5176 23.7266 23.6469 22.1413C24.7759 21.3809 26.2676 21.4306 27.3322 20.5444C28.3208 19.7663 29.2042 18.8567 30.2483 18.1489C32.1027 16.9058 33.7465 14.5922 36.3409 15.4317C37.0516 14.7999 37.7623 14.1711 38.4585 13.5247Z" fill="#6392D9"/>
<path d="M113.496 15.2764C116.412 16.031 119.878 15.9491 121.879 18.5756C122.525 20.5177 121.838 22.5447 122.034 24.5307C122.084 25.7562 122.388 27.0373 122.034 28.2453C120.885 29.6404 119.443 30.7753 118.235 32.1236C117.705 31.1263 116.76 30.2196 117.071 28.956C117.109 26.0077 120.022 23.6181 119.361 20.6932C117.597 20.9506 116.728 22.8313 115.409 23.8229C114.23 24.7764 112.56 25.9141 111.019 25.101C110.703 23.2554 110.121 21.4683 109.788 19.6257C111.086 18.2305 112.215 16.6862 113.496 15.2764Z" fill="#F8EFD9"/>
<path d="M42.5359 21.088C42.6529 21.1641 42.8869 21.3132 43.0039 21.3893C41.8954 23.3343 41.0443 25.4929 39.3566 27.0343C37.7187 28.5581 36.6453 30.5207 35.7239 32.5301C34.3697 34.7501 32.5943 36.7858 31.9859 39.386C30.8628 41.3837 29.8508 43.4662 28.558 45.3674C26.4725 44.1097 23.9484 43.0363 21.5178 43.8611C20.9299 42.0828 20.8334 40.1816 20.614 38.336C21.4535 37.8095 22.5327 37.9119 23.3634 37.3591C25.2704 36.3354 25.9314 34.1827 26.8586 32.378C27.78 32.6676 28.9353 33.4924 29.7776 32.6705C31.3629 31.5649 31.8338 29.5848 32.5797 27.9205C33.7964 27.9293 35.1419 28.3768 36.2241 27.6836C38.0258 26.1451 39.0904 23.9485 40.7693 22.2901C41.1817 21.7754 41.834 21.6437 42.4424 21.5443C42.4658 21.4302 42.5126 21.2021 42.5359 21.088Z" fill="#6392D9"/>
<path d="M91.2846 22.0943C92.1796 22.0328 93.0015 21.6292 93.8205 21.2928C95.3824 22.2756 97.4093 21.9773 98.8688 23.1443C101.592 25.2122 103.636 28.0464 105.409 30.9391C106.324 33.0947 105.929 35.6189 105.47 37.8447C105.067 39.819 103.171 41.0241 102.692 42.9632C102.326 44.0045 102.373 45.3499 101.34 46.0168C99.8896 46.9937 98.3248 47.9034 96.6079 48.3041C93.3613 48.3421 89.8017 49.0236 86.7716 47.5085C84.8382 45.8793 81.8607 44.0103 82.7791 41.0387C83.0804 39.1024 82.4486 37.1954 82.6153 35.262C82.8171 33.083 82.7352 30.7519 83.8204 28.7747C85.3588 26.0575 87.2483 23.5275 89.4624 21.3192C90.0591 21.597 90.6265 21.9831 91.2846 22.0943ZM89.7257 39.6728C88.819 40.7023 88.0848 42.0829 88.1609 43.4868C88.6815 44.5134 90.0503 44.4842 90.9834 44.7416C91.6824 43.4956 92.984 42.3607 92.6623 40.7637C92.3727 39.585 90.6646 38.5759 89.7257 39.6728Z" fill="white"/>
<path d="M68.6344 23.3491C71.2112 22.729 73.9548 23.9106 75.736 25.765C77.9092 29.2251 79.474 33.083 80.2579 37.0989C80.5036 39.079 80.7054 41.1499 79.9683 43.0598C78.9183 46.9031 75.7389 49.5618 72.621 51.7759C68.2542 53.9608 62.9221 54.2708 58.3506 52.5188C56.5371 51.6063 55.218 49.9567 54.6038 48.0379C52.3224 46.2391 51.7842 43.3406 50.9214 40.7316C50.7079 38.5613 49.8041 36.0898 51.0033 34.0512C52.4862 31.3281 55.0279 29.4591 57.1075 27.2274C57.9908 26.0546 59.4883 25.7562 60.5676 24.8378C61.2901 24.2031 62.267 24.1242 63.1854 24.1125C65.0368 24.1242 66.8444 23.7673 68.6344 23.3491ZM75.9671 41.1001C75.1072 42.1121 74.1946 43.1066 73.5716 44.2882C72.7322 46.1543 75.1744 46.6837 76.3736 46.7978C76.9264 45.7653 77.877 44.8469 77.9999 43.6331C77.8127 42.5041 76.6574 41.9103 75.9671 41.1001Z" fill="white"/>
<path d="M111.984 28.0466C113.046 27.6576 114.087 27.2042 115.093 26.6777C114.853 29.1961 113.879 31.9162 115.169 34.297C115.587 35.4143 116.506 36.2041 117.363 36.9791C117.228 38.4123 116.959 39.8221 116.719 41.2378C115.277 40.448 113.803 39.7198 112.361 38.9271C112.771 35.2798 112.066 31.6793 111.984 28.0466Z" fill="#F8EFD9"/>
<path d="M123.938 29.4914C124.985 29.1726 126.205 29.3276 127.114 29.9477C127.755 32.1267 128.454 34.2999 129.486 36.3327C131.002 39.6641 129.609 43.2881 127.749 46.1398C126.687 47.5993 125.28 48.7956 124.403 50.3896C123.078 52.712 120.972 54.5956 118.489 55.5988C116.863 56.2774 115.295 57.2046 113.543 57.5088C112.68 57.2602 111.999 56.5933 111.224 56.175C111.58 54.6863 111.811 53.1039 112.66 51.7994C113.06 51.0214 113.812 50.065 113.174 49.208C112.241 48.3832 110.896 47.9562 109.752 48.5791C107.284 49.4712 105.795 51.6707 104.414 53.7591C103.698 53.7562 102.978 53.762 102.262 53.7796C102.113 49.3572 105.815 46.1925 107.146 42.2205C108.857 42.3433 110.598 42.2614 112.3 42.5305C114.175 43.174 115.514 44.8675 117.527 45.236C117.108 46.3504 116.772 47.5203 116.757 48.7225C117.184 49.0354 117.696 49.1934 118.182 49.3893C120.498 47.0524 120.355 43.3699 122.704 41.1002C124.453 39.7051 126 38.0555 127.234 36.1894C127.416 35.3207 126.573 34.7416 126.073 34.1654C124.856 35.3792 123.482 36.4146 122.002 37.2921C120.808 36.5287 119.34 35.5752 119.445 33.9548C119.957 31.7289 121.984 30.366 123.938 29.4914Z" fill="#F8EFD9"/>
<path d="M44.1503 39.6965C45.2091 38.5265 46.5545 37.6724 47.8795 36.833C47.9877 38.9418 48.1281 41.1501 49.1372 43.0542C49.9591 44.5722 49.4414 46.5582 50.7839 47.8393C51.8134 49.0385 52.5944 50.4132 53.0799 51.9166C55.0542 52.446 55.8088 54.625 57.6953 55.2568C58.9092 55.6634 60.199 55.3241 61.448 55.286C61.252 55.5083 61.059 55.7277 60.8659 55.95C63.6094 56.5496 66.3588 55.8067 69.0936 55.5581C74.2882 54.3413 78.187 50.15 81.0885 45.8972C82.4076 47.2836 83.6799 48.7519 85.2506 49.8633C88.8774 51.2848 92.8991 51.2 96.7249 51.007C97.7603 50.9163 98.6992 50.4337 99.6264 50.0037C99.7258 52.057 99.7258 54.1483 100.39 56.1196C101.39 56.9123 102.762 56.3887 103.917 56.6403C104.827 57.6903 105.426 59.4452 104.54 60.6766C103.043 62.7445 103.119 65.5348 101.498 67.5266C100.802 68.3719 99.758 68.7288 98.9068 69.3605C97.5 70.7469 96.8711 72.7183 95.5491 74.1661C94.6248 74.9646 93.3408 74.3416 92.282 74.6867C91.1559 75.8216 90.4305 77.3104 89.2401 78.3867C88.1521 79.3578 86.5697 78.9688 85.2594 79.387C83.1096 79.8696 81.498 81.4491 79.5588 82.3733C78.3069 82.2943 77.1224 81.7445 75.8588 81.7796C73.0977 82.2446 70.2899 83.1338 68.4296 85.3596C67.5727 86.4798 66.2828 85.5351 65.3322 85.07C63.94 84.4529 63.4486 82.8413 62.2464 81.9931C61.1438 81.5719 59.9036 81.8849 58.7659 81.5982C58.0814 80.7617 57.9176 79.621 57.2654 78.7611C55.7181 78.2054 53.7994 78.9775 52.4627 77.7432C50.4329 76.3451 48.172 75.3419 45.9988 74.2012C44.7967 73.2886 44.3667 71.522 42.7756 71.0716C41.6261 70.8318 40.4444 70.8932 39.2803 70.8171C39.0639 69.6501 39.1516 68.3807 38.5842 67.319C37.306 66.4854 35.5774 66.6316 34.3227 65.7512C33.6763 64.6837 33.8869 63.3353 33.4218 62.1975C32.8164 61.2206 31.6406 60.5157 31.6142 59.258C31.6142 57.7576 31.1316 56.3361 30.418 55.0374C28.5899 56.0173 27.148 57.7371 25.1415 58.3367C23.2345 58.1436 21.0613 57.8482 19.6223 56.4706C18.4582 53.9026 19.1952 50.7613 20.8302 48.5647C21.7399 47.0759 23.6147 46.7571 25.2088 46.9355C26.2968 47.4825 27.1918 48.4272 28.3969 48.7343C29.1252 48.4184 29.7014 47.8539 30.3244 47.3801C30.6022 47.9329 30.883 48.4828 31.1638 49.0356C34.1823 48.8542 36.1361 46.2131 37.8442 44.0487C38.8007 43.9258 39.839 44.0165 40.7165 43.5865C42.1204 42.5453 43.0944 41.0595 44.1503 39.6965Z" fill="#F8EFD9"/>
<path d="M153.655 64.1306C155.933 63.1888 158.557 63.7065 160.686 64.8326C162.458 65.5872 163.029 67.7048 163.526 69.3837C164.313 71.7207 164.588 74.1834 164.544 76.6403C164.386 79.144 165.363 81.4869 165.977 83.8618C166.278 85.0055 165.515 86.1754 165.787 87.3074C166.392 88.5797 167.325 89.6706 167.869 90.981C168.998 93.7772 169.592 96.7605 170.733 99.5538C171.736 101.923 171.912 104.555 173.049 106.881C174.854 110.835 177.972 114.254 178.651 118.671C180.23 122.052 181.458 125.582 182.766 129.075C184.067 132.579 186.577 135.512 187.612 139.13C188.057 140.891 189.01 142.456 189.575 144.173C190.634 147.677 191.69 151.347 191.207 155.039C190.619 159.104 191.622 163.255 190.66 167.282C190.087 170.058 188.496 172.445 187.229 174.937C186.167 176.92 184.24 178.177 182.74 179.792C181.391 181.284 179.405 182.252 178.598 184.191C176.059 185.171 173.488 186.203 170.73 186.268C166.074 186.423 161.49 187.835 156.834 187.636C153.096 186.604 149.402 185.361 145.874 183.726C141.654 181.605 137.445 179.321 132.821 178.215C131.967 177.704 131.133 178.201 130.434 178.639C127.81 180.412 126.172 183.194 124.216 185.607C121.27 188.689 117.851 191.284 114.145 193.393C111.019 195.554 107.418 197.072 103.686 197.762C101.071 197.599 98.4242 198.163 95.8386 197.581C93.8965 196.984 91.7818 196.68 90.1643 195.338C87.374 192.77 84.8966 189.456 84.7592 185.519C85.6308 182.769 85.973 179.783 87.5992 177.335C88.7224 175.606 89.2956 173.539 90.7756 172.05C92.1825 170.5 93.8292 168.642 96.1457 168.853C97.3478 167.806 98.5997 166.776 100.059 166.109C101.574 165.454 103.262 165.753 104.853 165.501C107.442 165.349 110.033 164.313 112.613 165.01C114.54 165.521 116.632 165.308 118.471 166.159C120.437 166.931 122.434 167.636 124.42 168.361C126.404 169.061 128.606 168.259 130.054 166.858C132.821 163.503 136.12 160.652 139.212 157.607C142.022 155.246 143.368 151.669 145.842 149.008C149.425 145.103 151.467 140.148 153.558 135.354C156.354 130.508 157.635 125.035 159.583 119.838C160.756 116.267 161.192 112.499 162.426 108.946C163.076 106.173 164.269 103.432 164.167 100.539C163.696 97.6877 163.073 94.7161 161.309 92.344C159.841 90.6651 159.826 88.3398 158.744 86.4679C158.112 85.0026 156.676 84.0637 156.167 82.534C154.994 79.1089 152.239 76.5409 150.861 73.2153C149.846 71.1123 150.276 68.4068 151.812 66.6636C152.482 65.8622 152.879 64.8443 153.655 64.1306ZM164.289 127.489C162.309 130.479 160.66 133.655 159.212 136.934C157.855 140.154 154.746 142.456 154.125 146.007C151.566 151.061 148.472 155.902 144.547 160.02C141.411 163.144 139.135 167.077 135.632 169.833C134.757 170.742 134.339 171.982 133.824 173.117C135.728 173.998 137.726 174.653 139.644 175.504C140.756 176.042 141.575 177.045 142.704 177.557C145.117 178.47 147.591 179.236 150.154 179.605C152.672 180.216 155.091 181.38 157.764 181.123C161.625 180.804 165.494 181.471 169.355 181.19C173.044 180.608 176.319 178.534 179.078 176.098C181.584 173.96 182.412 170.649 183.994 167.882C185.708 165.065 185.29 161.634 186.2 158.566C187.109 155.691 185.974 152.746 185.375 149.926C184.775 146.366 182.862 143.234 181.698 139.856C180.862 137.185 179.408 134.646 177.25 132.833C177.744 130.607 176.164 128.721 175.512 126.714C174.565 123.614 172.567 120.87 172.14 117.606C172.026 116.541 171.283 115.682 170.853 114.746C167.478 118.293 166.041 123.046 164.289 127.489ZM102.49 170.567C100.062 171.298 97.2337 171.825 95.5373 173.904C93.6888 175.554 91.5156 176.969 90.4012 179.274C89.4419 181.12 88.1462 183.053 88.5147 185.238C88.6551 186.335 88.6258 187.598 89.4741 188.423C90.5855 189.549 91.7321 190.649 92.8347 191.793C94.5516 191.684 96.3504 191.518 97.9737 192.217C99.325 192.793 100.761 191.986 102.127 191.921C104.906 191.553 107.406 190.202 109.977 189.166C112.747 188.028 115.154 186.232 117.623 184.574C119.945 183.24 121.642 181.017 122.648 178.569C122.619 177.434 122.358 176.332 122.221 175.212C122.06 174.357 122.142 173 121.089 172.632C117.769 170.707 113.859 170.111 110.091 169.818C107.561 170.067 105.005 170.192 102.49 170.567Z" fill="#FF5268"/>
<path d="M124.921 68.4273C126.158 67.2018 127.047 65.286 129.118 65.4088C128.559 66.8098 127.629 68.0851 127.308 69.5651C127.904 70.7613 128.995 71.6622 129.478 72.9258C129.735 74.9322 127.729 76.652 128.413 78.6819C129.004 80.5889 128.899 83.5664 131.613 83.6015C132.473 82.1099 133.081 80.4749 134.111 79.0826C135.494 77.9331 137.615 77.9273 138.717 76.3917C139.961 74.783 140.581 72.7883 141.768 71.1387C141.601 73.1714 141.122 75.2627 141.952 77.2253C141.452 78.1028 140.911 78.9598 140.496 79.8811C140.879 81.8788 141.932 83.6864 142.356 85.6841C139.966 84.7481 137.401 83.9408 134.848 84.7686C131.914 85.5261 129.852 87.9772 127.98 90.2118C125.845 88.5241 124.988 84.8973 121.727 85.0143C119.1 84.6808 116.851 82.5574 114.119 83.0634C112.762 83.5401 111.779 84.7306 110.422 85.2278C108.53 85.9765 106.363 86.6668 105.204 88.4656C103.616 91.3495 101.841 94.5611 102.677 97.9861C103.101 99.6737 103.002 101.78 104.33 103.067C106.474 104.608 108.805 105.977 110.425 108.124C114.201 108.402 118.042 108.744 121.78 107.913C123.338 107.413 124.456 106.103 125.936 105.442C126.363 105.211 126.793 105.512 127.176 105.69C129.475 106.986 131.844 108.182 134.316 109.115C135.398 109.61 136.588 108.674 137.647 109.276C138.478 109.68 139.379 109.814 140.297 109.908C141.288 112.657 144.579 113.307 146.272 115.527C147.793 117.796 149.908 119.926 150.124 122.804C150.367 125.114 150.549 127.551 149.75 129.782C148.861 132.731 148.279 136.059 145.875 138.218C143.684 139.859 141.315 141.344 138.688 142.163C136.261 143.032 133.523 142.552 131.177 143.725C130.083 144.322 128.831 143.772 127.697 143.561C126.57 143.588 125.822 142.851 125.158 142.096C122.985 142.573 121.478 144.796 119.112 144.477C117.691 143.968 117.068 142.394 116.111 141.327C114.222 141.102 112.113 141.766 110.337 140.947C109.855 138.779 110.58 136.211 108.855 134.451C107.369 134.62 105.892 134.848 104.423 135.135C104.341 132.64 104.204 129.604 101.984 127.972C100.761 126.662 98.1963 125.755 99.0182 123.491C99.6938 121.496 100.536 119.539 100.469 117.366C99.5446 116.723 98.6116 116.085 97.6844 115.448C97.5528 113.076 97.9564 110.712 98.9041 108.539C99.2639 107.875 98.7315 107.194 98.2343 106.784C97.3802 106.609 96.7251 107.34 96.415 108.048C95.0345 111.104 95.5697 114.523 95.4674 117.776C95.1866 121.575 94.8327 125.404 95.2772 129.206C95.9792 131.517 96.1664 134.006 97.2866 136.179C97.7137 137.095 98.2372 138.001 98.3981 139.016C98.3542 139.938 97.6113 140.672 97.3861 141.54C96.7631 142.977 95.1222 143.561 94.2799 144.84C92.6419 147.185 93.3147 150.289 91.937 152.74C90.4366 154.433 91.6475 156.674 90.7642 158.549C89.0268 162.673 85.4116 165.527 82.9284 169.16C81.7673 171.032 79.4888 171.889 78.6259 173.983C78.0731 174.934 78.3832 176.101 78.2954 177.13C78.3978 179.52 78.2808 181.91 78.1316 184.299C75.9204 186.086 73.4197 187.449 70.6498 188.125C70.5328 185.765 71.5828 183.603 72.0157 181.33C72.5246 178.543 74.0778 176.145 75.587 173.811C76.4615 172.538 76.052 170.815 76.8418 169.52C78.7663 168.049 80.9688 166.884 82.5891 165.033C85.163 162.082 87.3421 158.818 89.6001 155.627C89.3398 155.17 89.0794 154.714 88.8133 154.267C85.2186 157.279 83.4695 161.918 79.793 164.858C78.0878 166.194 76.2246 167.32 74.5457 168.695C73.5513 169.727 74.1187 171.474 73.1418 172.532C71.4805 174.314 70.3778 176.522 69.4711 178.759C69.0323 179.742 69.2166 180.83 69.1961 181.866C68.5176 179.28 68.4474 176.577 67.7191 174.004C67.1341 171.415 66.7597 168.218 68.772 166.133C70.4334 164.041 71.7671 161.59 71.653 158.823C71.6618 155.17 72.6212 151.008 76.0199 149.022C75.8093 148.616 75.5987 148.206 75.391 147.805C73.4548 148.695 71.6998 150.096 70.799 152.076C68.8334 155.29 70.486 159.411 68.4766 162.614C67.412 164.764 65.2329 166.376 65.1276 168.935C64.3028 172.854 66.5579 176.563 65.97 180.479C65.6424 183.98 65.7419 187.496 65.6746 191.003C65.2212 190.646 64.7708 190.286 64.3174 189.935C62.7907 190.494 61.2697 191.091 59.6815 191.456C58.3741 191.722 57.0638 191.009 55.7622 191.243C54.5835 191.687 53.4866 192.34 52.2553 192.65C51.5942 191.796 50.9303 190.953 50.2663 190.105C48.8244 190.082 46.9759 191.649 45.7269 190.365C44.9869 189.813 44.4663 188.938 43.583 188.602C42.4394 188.66 41.3426 189.073 40.2194 189.257C39.2864 187.923 38.2919 186.604 37.002 185.598C34.9342 184.068 33.966 181.617 32.5153 179.578C30.696 177.291 30.851 174.164 30.8218 171.421C31.3249 169.259 32.1584 167.194 32.9277 165.118C33.3986 163.922 32.954 162.526 33.6121 161.394C34.8289 159.514 36.1275 157.68 37.47 155.884C39.0612 153.948 40.8921 152.213 42.2814 150.113C44.3318 148.75 46.7945 148.177 49.0467 147.223C50.784 146.214 51.9715 144.351 53.8786 143.623C56.2711 143.012 58.6929 143.959 61.1059 143.813C62.6064 143.313 63.8114 142.193 65.3002 141.649C67.175 140.73 69.4564 140.71 71.0125 139.157C71.7379 138.054 72.1473 136.782 72.861 135.673C75.1424 133.24 78.9155 133.33 81.387 131.251C83.2004 131.865 85.1718 131.871 87.0408 131.523C88.9507 131.561 90.2991 130.034 91.1824 128.531C91.6007 127.641 92.4518 126.764 92.2032 125.708C91.7177 123.336 91.3287 120.891 90.0797 118.776C89.4772 117.597 88.5266 116.626 87.9826 115.424C87.851 114.123 88.3511 112.833 88.2341 111.528C88.0411 110.083 86.4207 109.288 86.1048 107.939C86.7395 106.477 88.3424 105.655 89.0209 104.222C89.2783 102.815 88.6378 101.315 89.1409 99.9457C89.6703 99.039 90.1265 98.027 90.9367 97.3309C92.484 96.0995 95.2275 97.7462 96.1635 95.5672C97.6142 94.0229 98.4858 91.022 101.001 91.0834C101.548 91.0307 102.113 91.0541 102.642 90.8874C103.277 89.7935 103.61 88.5563 104.222 87.4536C105.874 85.5583 108.278 84.5697 110.127 82.9025C111.235 81.5307 111.8 79.7641 113.011 78.4742C114.344 77.7957 116.061 77.9361 117.12 76.7105C118.387 75.5669 118.589 73.6189 119.99 72.5952C121.739 71.3375 123.473 70.0331 124.921 68.4273ZM136.746 117.983C134.12 118.215 132.382 120.411 130.569 122.049C127.372 125.073 127.638 130.335 130.156 133.699C132.025 135.381 134.441 136.887 137.071 136.568C139.691 136.03 142.558 135.346 144.275 133.099C145.875 131.028 147.659 128.367 146.392 125.67C145.711 124.091 145.258 122.295 143.921 121.116C142.008 119.329 139.586 117.261 136.746 117.983Z" fill="#8FB6B9"/>
<path d="M19.6048 84.5287C22.0061 85.1341 24.5069 85.0727 26.955 84.8299C29.9296 84.5316 32.875 85.3009 35.8466 85.3301C37.3968 85.529 39.608 85.0844 40.5674 86.7019C41.0149 89.3372 40.699 92.0251 41.0792 94.6692C40.5089 95.3244 39.5788 95.8918 39.9444 96.9594C40.3714 97.5473 40.9593 97.9919 41.5092 98.4599C41.3015 102.988 41.4975 107.504 41.594 112.031C41.4858 113.576 41.7373 115.799 40.2105 116.787C38.7452 117.024 37.2359 116.696 35.7501 116.816C33.7553 117.047 31.6494 116.553 29.7775 117.489C29.6956 116.582 29.6196 115.687 29.526 114.789C31.3716 114.748 33.3225 115.208 35.1213 114.646C38.3445 113.172 40.427 109.706 40.3714 106.184C40.3363 104.813 40.7312 103.058 39.4355 102.157C38.7072 101.546 37.8268 102.303 37.1833 102.66C34.9341 104.146 32.6351 105.825 29.8623 106.088C29.1487 106.041 28.6368 105.401 28.0372 105.082C26.37 103.736 24.0097 103.894 22.2986 102.625C20.9941 101.826 19.6692 101.005 18.5548 99.9486C17.8089 98.6529 17.9113 97.0325 17.1538 95.7222C16.8964 94.8593 16.0599 93.9936 16.4372 93.0459C17.104 91.6566 18.3793 90.6534 19.0579 89.2728C19.3913 87.7168 19.4322 86.1081 19.6048 84.5287Z" fill="#00CCBC"/>
<path d="M8.92619 84.874C10.5904 84.9384 12.2752 84.8623 13.919 85.1665C15.2819 85.3917 16.4373 86.7986 16.06 88.223C15.0158 89.8843 13.3895 91.1479 12.5443 92.935C12.0032 94.801 13.6967 96.1494 14.1061 97.8429C14.5273 100.133 15.475 102.689 14.2495 104.895C12.2459 108.618 9.39709 111.874 7.81474 115.831C7.38771 115.518 6.94897 115.22 6.50147 114.936C7.29119 112.342 6.27333 109.703 6.38447 107.071C6.46637 105.097 5.57428 103.231 5.6825 101.247C5.51579 97.8107 6.02764 94.3886 5.91649 90.9548C5.98377 89.7849 5.7293 88.4277 6.39032 87.3719C7.18589 86.4622 8.57228 86.199 8.92619 84.874Z" fill="#00CCBC"/>
<path d="M110.937 87.2663C112.911 86.5731 114.839 84.827 117.059 85.6898C118.96 86.5059 120.914 87.2049 122.894 87.787C124.304 89.5565 126.193 90.9605 127.401 92.8821C127.811 96.4212 127.05 100.069 125.529 103.265C124.681 104.175 123.64 104.938 122.537 105.509C120.34 106.149 118.027 106.249 115.766 106.521C114.374 106.503 113.04 105.983 111.657 105.866C110.282 103.511 107.579 102.654 105.467 101.159C105.143 98.688 103.598 96.079 104.722 93.5899C105.503 90.5451 108.389 88.758 110.937 87.2663ZM121.818 95.4794C120.817 95.6549 119.747 96.0059 119.103 96.8395C118.588 97.7169 117.36 98.6324 117.822 99.7819C118.153 101.262 119.96 101.794 121.282 101.408C122.329 100.583 123.315 99.6444 124.064 98.5359C123.903 97.3221 123.295 95.3887 121.818 95.4794Z" fill="white"/>
<path d="M136.81 86.8394C138.097 86.3393 139.446 86.6522 140.566 87.3396C142.338 88.4452 144.731 88.5358 146.03 90.3405C147.27 92.1188 148.805 94.1136 148.443 96.4301C148.062 97.9686 147.498 99.4632 146.802 100.888C145.974 102.596 143.889 102.988 142.798 104.45C142.14 105.254 141.429 106.187 140.311 106.307C138.489 106.462 136.556 107.322 134.734 106.664C132.991 106.138 131.399 105.205 129.63 104.76C128.747 104.602 128.34 103.581 128.398 102.771C128.58 99.8902 129.282 97.0648 129.416 94.1779C129.545 93.1893 129.39 92.1071 129.826 91.1741C131.44 88.8576 133.915 87.0295 136.81 86.8394ZM136.237 96.98C134.824 97.0882 134.315 98.6325 133.95 99.7527C135.161 100.382 136.418 101.49 137.901 100.735C139.218 100.385 138.966 98.6384 139.191 97.6702C138.299 97.1467 137.337 96.5646 136.237 96.98Z" fill="white"/>
<path d="M62.7583 89.8991C64.4401 89.2936 65.8557 90.5425 66.935 91.6306C67.8447 92.6514 67.3299 94.146 67.4673 95.3481C67.7423 97.0124 68.7894 98.4104 69.351 99.9753C69.7546 101.838 69.4329 103.76 69.6815 105.635C70.3133 107.323 71.1176 108.975 71.2258 110.812C71.5768 112.614 70.7812 114.333 70.205 116.004C69.4446 117.767 69.8921 119.709 70.1173 121.532C69.2457 122.503 68.2688 123.406 67.6077 124.544C66.9087 126.053 66.5314 127.811 65.2825 129.005C63.8668 130.312 62.264 131.467 60.4184 132.087C59.4152 132.433 58.7834 133.342 57.8825 133.854C56.5254 134.357 54.9781 134.079 53.6385 134.641C51.9626 135.553 50.7107 137.797 48.5259 137.188C46.2679 136.899 43.9894 136.662 41.7197 136.934C40.4035 137.501 39.4207 136.542 38.5111 135.817C37.1042 135.738 35.6623 135.94 34.27 135.685C33.1907 134.851 32.8544 133.222 31.506 132.661C29.4908 131.672 27.7095 130.21 26.5571 128.268C30.5818 128.741 33.3604 124.91 34.7702 121.613C34.9398 120.783 34.1735 120.154 33.7816 119.505C36.2823 119.525 38.7948 119.762 41.2809 119.364C42.3748 117.715 43.7261 116.05 43.8753 113.985C43.7466 108.352 43.1412 102.701 43.6179 97.0679C46.3702 95.5324 49.6344 95.4914 52.4218 94.0378C54.6388 93.4703 56.967 93.6955 59.2046 93.3241C60.6933 92.4993 60.7635 89.9078 62.7583 89.8991Z" fill="#F8C881"/>
<path d="M17.6274 103.371C19.3941 103.789 20.9969 104.655 22.4857 105.673C24.1821 106.831 26.3172 106.98 28.1102 107.948C28.7946 108.147 29.4761 108.752 30.2483 108.615C33.2199 108.191 35.5598 106.141 38.1776 104.854C39.0551 107.512 38.0577 110.771 35.4341 112.037C33.6791 113.146 31.5206 112.496 29.6487 113.242C29.2158 112.868 28.7888 112.49 28.353 112.122C27.8352 114.424 27.7358 116.802 27.6744 119.156C27.6861 120.306 28.2243 121.716 29.4469 122.023C29.9938 122.026 30.4735 121.642 30.9795 121.467C31.1228 122.341 31.9418 123.377 31.234 124.196C30.5993 124.912 29.7978 125.55 28.9028 125.901C27.6451 125.922 26.4079 125.585 25.1444 125.641C23.9744 124.377 22.8805 122.985 22.3657 121.312C21.9387 119.604 22.0674 117.828 22.2224 116.1C21.8071 115.951 21.3888 115.807 20.9735 115.673C19.2917 119.259 20.6167 123.105 22.5968 126.229C21.0993 126.667 19.5608 127.422 17.9667 127.179C16.9781 125.93 16.0831 124.515 15.7497 122.935C15.3431 121.145 15.9135 119.376 16.1474 117.612C15.4075 117.688 14.5183 117.773 14.1732 118.551C13.0559 121.081 13.8368 123.9 14.6558 126.395C13.3483 125.576 11.7016 125.026 11.0874 123.473C9.81217 121.654 10.1222 119.305 9.90869 117.217C10.2802 114.21 11.8099 110.972 14.764 109.741C16.0041 107.776 16.5277 105.424 17.6274 103.371Z" fill="#F8EFD9"/>
<path d="M97.6346 128.036C98.8865 128.923 100.217 129.747 101.188 130.958C100.179 131.295 99.1614 131.614 98.1553 131.95C98.1611 130.625 97.8891 129.329 97.6346 128.036Z" fill="white"/>
<path d="M99.1672 133.927C99.9716 133.538 100.791 133.178 101.633 132.871C101.574 134.883 101.095 136.855 100.492 138.768C100.153 137.127 99.7259 135.506 99.1672 133.927Z" fill="white"/>
<path d="M103.206 137.741C104.678 137.399 106.213 137.39 107.705 137.174C107.722 138.329 107.822 139.487 107.752 140.646C105.891 141.011 104.066 141.579 102.177 141.78C102.513 140.435 102.469 138.943 103.206 137.741Z" fill="white"/>
<path d="M6.29962 139.944C8.93786 138.168 12.5559 138.481 15.1152 140.239C15.7353 140.923 16.2705 141.81 16.3787 142.728C15.8903 144.661 14.1997 146.182 14.3518 148.312C14.2026 149.28 14.9397 150.113 15.6446 150.678C17.4083 151.105 19.21 151.333 20.9971 151.637C21.0234 152.907 21.4709 154.217 21.237 155.489C20.5789 156.627 19.4967 157.484 18.9409 158.686C18.3881 159.853 19.4294 160.605 20.0612 161.351C20.0231 161.868 19.9822 162.383 19.9412 162.904C20.9708 163.512 22.1554 163.939 23.0153 164.785C23.612 166.151 23.5037 167.791 24.3081 169.075C25.5833 170.128 27.2534 170.529 28.6632 171.374C28.5667 172.582 28.4936 173.79 28.4263 175.01C26.9317 174.677 25.2733 174.934 23.9074 174.144C22.0793 171.948 20.5935 169.482 18.6718 167.361C17.7242 166.034 15.8493 166.455 14.6794 165.592C14.15 164.118 14.6794 162.269 13.72 160.935C12.4857 159.856 10.6489 160.152 9.166 159.818C8.80624 159.403 8.08379 158.569 7.72403 158.154C7.95802 156.373 8.24174 154.565 8.13059 152.772C7.29993 150.631 4.54177 150.666 2.64353 150.011C2.1229 147.136 2.0878 144.109 3.03546 141.321C3.88075 140.409 5.32856 140.681 6.29962 139.944Z" fill="#8FB6B9"/>
<path d="M105.032 143.53C107.07 143.003 109.167 143.433 111.171 143.927C110.832 145.15 110.525 146.381 110.191 147.61C109.451 146.975 108.881 146.147 108.062 145.612C107.076 145.167 106.064 144.825 105.052 144.46C105.049 144.229 105.037 143.761 105.032 143.53Z" fill="white"/>
<path d="M112.923 143.913C113.441 143.907 114.476 143.895 114.997 143.889C115.313 144.404 115.947 145.436 116.263 145.951C115.272 146.899 114.283 147.855 113.253 148.765C112.455 147.238 112.496 145.545 112.923 143.913Z" fill="white"/>
<path d="M120.153 147.054C121.522 146.978 122.631 146.132 123.841 145.597C125.687 145.419 127.541 145.963 129.238 146.662C127.641 147.232 125.971 147.566 124.356 148.083C121.68 149.13 118.732 149.028 115.909 148.972C117.024 147.805 118.492 147.051 120.153 147.054Z" fill="white"/>
<path d="M157.729 146.013C161.619 146.179 165.875 145.258 169.373 147.446C170.821 148.04 171.324 149.754 172.529 150.564C175.682 150.438 178.139 153.491 178.154 156.484C177.972 158.373 177.024 160.055 176.039 161.631C175.422 159.23 175.12 156.282 172.871 154.767C171.809 154.144 170.675 154.621 169.87 155.407C170.894 156.206 172.348 156.706 172.827 158.022C173.292 159.613 173.795 161.386 173.345 163.041C172.988 164.688 170.616 163.609 169.677 164.632C169.353 165.288 169.23 166.016 169.06 166.721C168.27 166.899 167.484 167.066 166.703 167.247C168.458 164.626 169.3 161.415 169.069 158.268C168.958 157.174 167.808 156.805 166.937 156.492C166.466 158.306 167.08 160.146 166.96 161.977C166.463 163.468 166.08 165.451 164.401 166.063C162.447 166.651 160.613 167.73 158.571 167.99C157.29 167.864 155.954 167.589 154.848 166.914C153.731 165.829 153.418 164.15 153.336 162.661C154.114 160.184 156.825 159.321 158.361 157.44C159.434 156.194 160.835 154.448 160.037 152.693C159.367 150.716 157.03 150.406 155.301 149.876C156.109 148.586 156.922 147.3 157.729 146.013Z" fill="#8FB6B9"/>
<path d="M26.961 147.182C31.3162 146.539 36.0486 145.667 40.2049 147.609C38.6079 148.686 37.318 150.11 35.955 151.447C32.1995 150.002 28.2655 149.075 24.3579 148.121C25.133 147.601 25.9637 147.092 26.961 147.182Z" fill="#300045"/>
<path d="M75.3237 192.287C76.5902 192.035 77.8976 191.442 79.205 191.69C81.2816 192.781 83.3671 194.636 83.5484 197.145C79.477 197.385 74.9815 198.181 71.4336 195.636C72.4982 194.302 73.5688 192.72 75.3237 192.287Z" fill="#8FB6B9"/>
</svg>
