<svg width="14" height="15" viewBox="0 0 14 15" fill="none" xmlns="http://www.w3.org/2000/svg">
<path d="M9.70133 8.06405C9.66837 8.09788 9.54392 8.24255 9.42799 8.36155C8.74834 9.10996 6.97532 10.335 6.04733 10.7089C5.9064 10.769 5.55009 10.8961 5.35972 10.9043C5.1773 10.9043 5.00341 10.8623 4.83747 10.7771C4.63062 10.6581 4.46469 10.4709 4.37376 10.2498C4.31523 10.0964 4.22431 9.6373 4.22431 9.62913C4.13338 9.12688 4.08337 8.3108 4.08337 7.40896C4.08337 6.54971 4.13338 5.76688 4.20783 5.25705C4.21635 5.24888 4.30727 4.67838 4.40672 4.48296C4.58914 4.12596 4.94545 3.9043 5.32676 3.9043H5.35972C5.60805 3.91305 6.1303 4.13471 6.1303 4.14288C7.00828 4.51738 8.74038 5.6823 9.43652 6.45638C9.43652 6.45638 9.63257 6.6553 9.71781 6.77955C9.85079 6.95805 9.91671 7.17913 9.91671 7.40021C9.91671 7.64696 9.84226 7.8768 9.70133 8.06405Z" fill="#300045"/>
</svg>
