<svg width="64" height="64" viewBox="0 0 64 64" fill="none" xmlns="http://www.w3.org/2000/svg">
<path fill-rule="evenodd" clip-rule="evenodd" d="M53.3335 31.9997C53.3335 43.7597 43.7602 53.333 32.0002 53.333C20.2402 53.333 10.6668 43.7597 10.6668 31.9997C10.6668 20.2397 20.2402 10.6663 32.0002 10.6663C43.7602 10.6663 53.3335 20.2397 53.3335 31.9997ZM24.0001 31.9993L34.6668 42.666L34.6668 21.3327L24.0001 31.9993Z" fill="#D0D0D0"/>
<path fill-rule="evenodd" clip-rule="evenodd" d="M58.6665 31.9994C58.6665 46.7193 46.7198 58.666 31.9998 58.666C17.2798 58.666 5.33318 46.7193 5.33317 31.9993C5.33317 17.2793 17.2798 5.33268 31.9998 5.33268C46.7198 5.33269 58.6665 17.2794 58.6665 31.9994ZM10.6665 31.9997C10.6665 43.7597 20.2399 53.333 31.9999 53.333C43.7599 53.333 53.3332 43.7597 53.3332 31.9997C53.3332 20.2397 43.7599 10.6663 31.9999 10.6663C20.2399 10.6663 10.6665 20.2397 10.6665 31.9997ZM23.9998 32.0003L34.6665 21.3337L34.6665 42.667L23.9998 32.0003Z" fill="#1D1D1D"/>
</svg>
