<svg width="25" height="25" viewBox="0 0 25 25" fill="none" xmlns="http://www.w3.org/2000/svg">
<path fill-rule="evenodd" clip-rule="evenodd" d="M20.8334 12.4046C20.8334 17.0046 17.0917 20.738 12.5001 20.738L12.2669 20.7348C7.7746 20.6112 4.16675 16.9267 4.16675 12.4046C4.16675 7.81296 7.90008 4.07129 12.5001 4.07129C17.0917 4.07129 20.8334 7.81296 20.8334 12.4046ZM10.8501 9.07128C10.6084 9.32128 10.6084 9.71295 10.8584 9.95462L13.3168 12.4046L10.8584 14.8546C10.6084 15.0963 10.6084 15.4963 10.8501 15.738C11.1001 15.988 11.4918 15.988 11.7334 15.738L14.6418 12.8463C14.7584 12.7296 14.8251 12.5713 14.8251 12.4046C14.8251 12.238 14.7584 12.0796 14.6418 11.963L11.7334 9.07128C11.6168 8.94628 11.4584 8.88795 11.3001 8.88795C11.1334 8.88795 10.9751 8.94628 10.8501 9.07128Z" fill="#00CCBC"/>
</svg>
