<svg width="21" height="21" viewBox="0 0 21 21" fill="none" xmlns="http://www.w3.org/2000/svg">
<path fill-rule="evenodd" clip-rule="evenodd" d="M12.9709 12.4483H13.6292L17.7875 16.6149L16.5459 17.8566L12.3792 13.6983V13.0399L12.1542 12.8066C11.2042 13.6233 9.97086 14.1149 8.62919 14.1149C5.63752 14.1149 3.21252 11.6899 3.21252 8.69828C3.21252 5.70662 5.63752 3.28162 8.62919 3.28162C11.6209 3.28162 14.0459 5.70662 14.0459 8.69828C14.0459 10.0399 13.5542 11.2733 12.7375 12.2233L12.9709 12.4483ZM4.87919 8.69828C4.87919 10.7733 6.55419 12.4483 8.62919 12.4483C10.7042 12.4483 12.3792 10.7733 12.3792 8.69828C12.3792 6.62328 10.7042 4.94828 8.62919 4.94828C6.55419 4.94828 4.87919 6.62328 4.87919 8.69828Z" fill="#00CCBC"/>
</svg>
