<svg width="28" height="28" viewBox="0 0 28 28" fill="none" xmlns="http://www.w3.org/2000/svg">
<path fill-rule="evenodd" clip-rule="evenodd" d="M0.666504 14.02C0.666504 6.99615 6.27984 0.666656 14.0265 0.666656C21.5998 0.666656 27.3332 6.87597 27.3332 13.98C27.3332 22.219 20.6132 27.3333 13.9998 27.3333C11.8132 27.3333 9.3865 26.7458 7.43984 25.5974C6.75984 25.1834 6.1865 24.8763 5.45317 25.1167L2.75984 25.9179C2.07984 26.1315 1.4665 25.5974 1.6665 24.8763L2.55984 21.8852C2.7065 21.4712 2.67984 21.0305 2.4665 20.6833C1.31984 18.5735 0.666504 16.2634 0.666504 14.02ZM12.2666 14.02C12.2666 14.9681 13.0266 15.7292 13.9732 15.7426C14.9199 15.7426 15.6799 14.9681 15.6799 14.0334C15.6799 13.0853 14.9199 12.3241 13.9732 12.3241C13.0399 12.3108 12.2666 13.0853 12.2666 14.02ZM18.4132 14.0334C18.4132 14.9681 19.1732 15.7426 20.1199 15.7426C21.0665 15.7426 21.8265 14.9681 21.8265 14.0334C21.8265 13.0853 21.0665 12.3241 20.1199 12.3241C19.1732 12.3241 18.4132 13.0853 18.4132 14.0334ZM7.82645 15.7426C6.89312 15.7426 6.11979 14.9681 6.11979 14.0334C6.11979 13.0853 6.87979 12.3241 7.82645 12.3241C8.77312 12.3241 9.53312 13.0853 9.53312 14.0334C9.53312 14.9681 8.77312 15.7292 7.82645 15.7426Z" fill="white"/>
</svg>
