<svg width="181" height="48" viewBox="0 0 181 48" fill="none" xmlns="http://www.w3.org/2000/svg">
<path fill-rule="evenodd" clip-rule="evenodd" d="M23.8193 0.0955168C24.3393 -0.0812588 24.7604 0.0060623 25.1661 0.20464C25.3536 0.296387 25.5305 0.414832 25.7118 0.560062C26.2926 1.02534 27.0125 1.85494 27.719 2.88054C29.5091 5.47899 30.9216 8.81332 31.5127 12.4597L31.5394 12.6293L31.6292 12.8215C33.7971 17.4819 35.4114 21.7421 36.3313 25.5494L36.3891 25.7918C37.5437 30.7037 37.4818 34.6704 35.866 37.5438C34.456 40.0512 31.8758 41.1736 28.2978 41.2739L28.0988 41.2786C25.8122 41.3234 23.547 41.0325 19.3563 40.2636L18.4321 40.0924C14.2616 43.7956 9.9398 46.5766 6.66607 47.5824C2.16672 48.9648 -0.676839 46.8679 0.139469 41.9891C0.760527 38.2773 3.19102 36.3084 7.00092 35.8644L7.12043 35.851C9.71294 35.5726 12.2884 35.8644 17.4832 36.8237C22.1276 32.4748 25.8005 27.5899 27.3903 23.4353L27.4504 23.2759L27.5917 22.8817C28.6709 19.749 28.9603 16.6443 28.5765 13.6309L28.5592 13.5005L28.284 12.9212C27.3183 10.9013 26.3201 8.94985 25.1374 6.72881L23.6632 3.97889L23.447 3.57008C23.1852 3.07085 23.0253 2.74739 22.925 2.50744L22.9104 2.47206C22.8038 2.21056 22.738 1.96549 22.7291 1.69196C22.7076 1.03371 23.037 0.361449 23.8193 0.0955168ZM14.5441 39.3889L14.0842 39.3131C11.0142 38.8149 9.16664 38.6866 7.45273 38.8706L7.23957 38.8956C4.78735 39.2078 3.54701 40.2494 3.17305 42.4845C2.93863 43.8855 3.1027 44.592 3.40332 44.8137C3.71887 45.0464 4.51986 45.0609 5.75284 44.6821C8.02707 43.9833 11.0969 42.1457 14.2564 39.6208L14.5441 39.3889ZM31.4127 20.4302L31.4467 20.244L31.5195 20.4366L31.5984 20.6482C34.1834 27.6152 34.8968 33.0123 33.178 36.0688C32.3843 37.4803 30.8106 38.1648 28.2105 38.2377L28.1216 38.24L28.0211 38.2421C26.3447 38.2727 24.5876 38.0871 21.7522 37.6033L21.1696 37.5022L21.3848 37.2848C25.5556 33.0395 28.8081 28.4379 30.343 24.3055L30.4964 23.8774L30.5938 23.5893C30.9436 22.5332 31.2155 21.4795 31.4127 20.4302Z" fill="#FF5268"/>
<path fill-rule="evenodd" clip-rule="evenodd" d="M53.6682 40.7495V31.7649H57.2501C58.8186 31.7649 60.153 31.5221 61.2533 31.0364C62.3536 30.5508 63.2433 29.9206 63.9222 29.1459C64.6011 28.3711 65.0927 27.4923 65.3971 26.5095C65.7014 25.5266 65.8536 24.5379 65.8536 23.5435C65.8536 22.2716 65.6312 21.1441 65.1864 20.1613C64.7415 19.1784 64.1153 18.3459 63.3076 17.6636C62.5 16.9814 61.5401 16.4668 60.4281 16.12C59.3161 15.7731 58.0929 15.5996 56.7584 15.5996H49.8054V40.7495H53.6682ZM57.1443 28.193H53.6678V19.139H57.1794C58.0924 19.139 58.8591 19.2893 59.4795 19.59C60.0999 19.8906 60.5974 20.2664 60.972 20.7174C61.3465 21.1683 61.6099 21.654 61.7621 22.1743C61.9143 22.6947 61.9903 23.1745 61.9903 23.6139C61.9903 24.0302 61.9143 24.5043 61.7621 25.0362C61.6099 25.5681 61.3524 26.0653 60.9895 26.5279C60.6267 26.9904 60.1292 27.3835 59.4971 27.7073C58.865 28.0311 58.0807 28.193 57.1443 28.193ZM77.0201 40.5423C76.0134 40.9123 74.9833 41.0973 73.9299 41.0973C72.853 41.0973 71.8404 40.895 70.8923 40.4903C69.9442 40.0855 69.1189 39.5421 68.4166 38.8598C67.7143 38.1776 67.1583 37.374 66.7486 36.4489C66.3389 35.5239 66.134 34.541 66.134 33.5003C66.134 32.4596 66.3389 31.4768 66.7486 30.5517C67.1583 29.6267 67.7143 28.8172 68.4166 28.1234C69.1189 27.4297 69.9325 26.8804 70.8572 26.4757C71.7819 26.071 72.771 25.8686 73.8245 25.8686C75.4867 25.8686 76.9323 26.3601 78.1614 27.3429C79.3904 28.3258 80.2742 29.6151 80.8126 31.2108C80.0869 31.4652 79.2558 31.7774 78.3194 32.1474C77.383 32.5175 76.4114 32.9048 75.4047 33.3095C74.3981 33.7142 73.3914 34.1132 72.3847 34.5063C71.3781 34.8995 70.4416 35.2579 69.5754 35.5817C69.9734 36.368 70.5528 36.9982 71.3137 37.4723C72.0745 37.9464 72.9232 38.1834 73.8596 38.1834C74.4917 38.1834 75.1297 38.0678 75.7735 37.8365C76.4173 37.6052 76.9382 37.293 77.3361 36.8999L79.5836 39.0506C78.8813 39.6751 78.0268 40.1723 77.0201 40.5423ZM69.1546 33.7055C69.1546 33.6824 69.1487 33.6477 69.137 33.6014C69.1253 33.5552 69.1194 33.4742 69.1194 33.3586C69.1194 32.7804 69.2424 32.2138 69.4882 31.6588C69.734 31.1038 70.0676 30.6123 70.489 30.1845C70.9104 29.7567 71.4079 29.4155 71.9814 29.1612C72.555 28.9068 73.1812 28.7796 73.8601 28.7796C74.4922 28.7796 75.1126 28.9241 75.7213 29.2132C76.33 29.5023 76.7748 29.9359 77.0557 30.514C76.5407 30.7222 75.9554 30.9592 75.2999 31.2252C74.6444 31.4911 73.9655 31.7686 73.2632 32.0577C72.5608 32.3468 71.8527 32.6359 71.1386 32.925C70.4246 33.214 69.7632 33.4742 69.1546 33.7055ZM86.3963 33.5697V40.7504H83.4114V26.2502H86.0451C86.092 26.9671 86.1329 27.6204 86.168 28.2102C86.2032 28.7999 86.2441 29.3838 86.2909 29.962C86.8294 28.7132 87.5961 27.7187 88.5911 26.9787C89.586 26.2386 90.8092 25.8686 92.2607 25.8686C93.7356 25.8686 94.9178 26.2733 95.8075 27.0828C96.6971 27.8922 97.1653 28.9329 97.2121 30.2048V40.7504H94.1921V31.5577C94.1453 30.8177 93.8878 30.1875 93.4196 29.6671C92.9513 29.1468 92.2139 28.8635 91.2072 28.8172C90.5049 28.8172 89.8611 28.9386 89.2758 29.1815C88.6906 29.4243 88.1872 29.7539 87.7658 30.1701C87.3444 30.5864 87.0108 31.0836 86.765 31.6618C86.5192 32.2399 86.3963 32.8759 86.3963 33.5697ZM105.535 40.7509V28.9218H109.468V26.2854H105.535V19.8678H102.55V26.2854H99.9167V28.9218H102.55V40.7509H105.535ZM120.284 40.8545C119.722 41.0164 119.078 41.0973 118.352 41.0973C117.229 41.0973 116.193 40.895 115.245 40.4903C114.297 40.0855 113.483 39.5421 112.804 38.8598C112.125 38.1776 111.593 37.3855 111.206 36.4836C110.82 35.5817 110.627 34.6335 110.627 33.6391C110.627 32.5753 110.832 31.5751 111.241 30.6384C111.651 29.7018 112.207 28.8808 112.909 28.1755C113.612 27.4701 114.425 26.9093 115.35 26.493C116.275 26.0768 117.264 25.8686 118.317 25.8686C119.02 25.8686 119.663 25.9554 120.249 26.1288C120.834 26.3022 121.337 26.5162 121.759 26.7706C122.18 27.0249 122.52 27.2909 122.777 27.5684C123.035 27.8459 123.21 28.0888 123.304 28.2969L123.444 26.2502H126.324V40.7504H123.304V38.9119C123.187 39.0969 123 39.3166 122.742 39.571C122.484 39.8254 122.151 40.0624 121.741 40.2821C121.331 40.5018 120.846 40.6926 120.284 40.8545ZM118.457 38.1804C117.755 38.1804 117.111 38.059 116.526 37.8162C115.941 37.5734 115.437 37.2438 115.016 36.8275C114.595 36.4113 114.261 35.914 114.015 35.3359C113.769 34.7577 113.647 34.1333 113.647 33.4626C113.647 32.792 113.769 32.1734 114.015 31.6068C114.261 31.0402 114.595 30.5487 115.016 30.1325C115.437 29.7162 115.941 29.3866 116.526 29.1438C117.111 28.901 117.755 28.7796 118.457 28.7796C119.16 28.7796 119.809 28.901 120.406 29.1438C121.003 29.3866 121.518 29.7162 121.952 30.1325C122.385 30.5487 122.718 31.0402 122.952 31.6068C123.186 32.1734 123.304 32.792 123.304 33.4626C123.304 34.1333 123.186 34.7519 122.952 35.3185C122.718 35.8851 122.385 36.3823 121.952 36.8102C121.518 37.238 121.003 37.5734 120.406 37.8162C119.809 38.059 119.16 38.1804 118.457 38.1804ZM143.109 45.711C141.681 47.0524 139.75 47.723 137.315 47.723C136.472 47.723 135.717 47.6363 135.05 47.4628C134.383 47.2894 133.774 47.0639 133.224 46.7864C132.674 46.5089 132.171 46.1851 131.714 45.8151C131.257 45.4451 130.807 45.0635 130.362 44.6703L132.293 42.6583C133.019 43.329 133.762 43.8609 134.523 44.2541C135.284 44.6472 136.191 44.8438 137.245 44.8438C138.813 44.8438 140.031 44.4738 140.897 43.7337C141.763 42.9937 142.208 41.9646 142.231 40.6464V39.6404C142.231 39.4554 142.255 39.253 142.302 39.0333C142.348 38.8136 142.372 38.6459 142.372 38.5303C142.161 38.8078 141.898 39.1027 141.582 39.4149C141.266 39.7271 140.897 40.0046 140.476 40.2474C140.054 40.4903 139.562 40.6926 139.001 40.8545C138.439 41.0164 137.807 41.0973 137.104 41.0973C136.004 41.0973 134.997 40.9007 134.084 40.5076C133.171 40.1145 132.375 39.5768 131.696 38.8945C131.018 38.2123 130.491 37.4145 130.116 36.501C129.742 35.5875 129.554 34.5988 129.554 33.535C129.554 32.4481 129.753 31.4363 130.151 30.4997C130.549 29.5631 131.088 28.7536 131.767 28.0714C132.446 27.3892 133.242 26.8515 134.155 26.4583C135.068 26.0652 136.039 25.8686 137.069 25.8686C137.865 25.8686 138.573 25.9727 139.194 26.1808C139.814 26.389 140.335 26.6318 140.756 26.9093C141.178 27.1868 141.511 27.4586 141.757 27.7245C142.003 27.9905 142.161 28.1813 142.231 28.2969C142.231 27.9731 142.255 27.632 142.302 27.2736C142.348 26.9151 142.372 26.574 142.372 26.2502H145.251V40.0913C145.251 42.4965 144.537 44.3697 143.109 45.711ZM137.385 38.1804C136.683 38.1804 136.039 38.059 135.454 37.8162C134.868 37.5734 134.365 37.2438 133.944 36.8275C133.522 36.4113 133.189 35.914 132.943 35.3359C132.697 34.7577 132.574 34.1333 132.574 33.4626C132.574 32.792 132.697 32.1734 132.943 31.6068C133.189 31.0402 133.522 30.5487 133.944 30.1325C134.365 29.7162 134.868 29.3866 135.454 29.1438C136.039 28.901 136.683 28.7796 137.385 28.7796C138.087 28.7796 138.737 28.901 139.334 29.1438C139.931 29.3866 140.446 29.7162 140.879 30.1325C141.312 30.5487 141.646 31.0402 141.88 31.6068C142.114 32.1734 142.231 32.792 142.231 33.4626C142.231 34.1333 142.114 34.7519 141.88 35.3185C141.646 35.8851 141.312 36.3823 140.879 36.8102C140.446 37.238 139.931 37.5734 139.334 37.8162C138.737 38.059 138.087 38.1804 137.385 38.1804ZM159.351 40.4903C158.403 40.895 157.367 41.0973 156.243 41.0973C155.166 41.0973 154.154 40.9123 153.206 40.5423C152.258 40.1723 151.432 39.6519 150.73 38.9813C150.028 38.3106 149.472 37.507 149.062 36.5703C148.652 35.6337 148.448 34.5988 148.448 33.4656C148.448 32.4249 148.652 31.4421 149.062 30.517C149.472 29.592 150.028 28.7883 150.73 28.1061C151.432 27.4239 152.258 26.8804 153.206 26.4757C154.154 26.071 155.178 25.8686 156.278 25.8686C157.379 25.8686 158.403 26.071 159.351 26.4757C160.299 26.8804 161.119 27.4239 161.809 28.1061C162.5 28.7883 163.038 29.592 163.425 30.517C163.811 31.4421 164.004 32.4249 164.004 33.4656C164.004 34.5063 163.811 35.4892 163.425 36.4142C163.038 37.3393 162.5 38.1487 161.809 38.8425C161.119 39.5363 160.299 40.0855 159.351 40.4903ZM156.173 38.1804C155.517 38.1804 154.903 38.059 154.329 37.8162C153.755 37.5734 153.252 37.238 152.819 36.8102C152.386 36.3823 152.046 35.8851 151.801 35.3185C151.555 34.7519 151.432 34.1449 151.432 33.4973C151.432 32.8498 151.555 32.237 151.801 31.6588C152.046 31.0806 152.386 30.5776 152.819 30.1498C153.252 29.722 153.755 29.3866 154.329 29.1438C154.903 28.901 155.517 28.7796 156.173 28.7796C156.828 28.7796 157.448 28.901 158.034 29.1438C158.619 29.3866 159.128 29.722 159.561 30.1498C159.994 30.5776 160.34 31.0806 160.597 31.6588C160.855 32.237 160.983 32.8498 160.983 33.4973C160.983 34.1449 160.855 34.7519 160.597 35.3185C160.34 35.8851 159.994 36.3823 159.561 36.8102C159.128 37.238 158.619 37.5734 158.034 37.8162C157.448 38.059 156.828 38.1804 156.173 38.1804ZM170.184 33.5697V40.7504H167.199V26.2502H169.833C169.88 26.9671 169.921 27.6204 169.956 28.2102C169.991 28.7999 170.032 29.3838 170.079 29.962C170.617 28.7132 171.384 27.7187 172.379 26.9787C173.374 26.2386 174.597 25.8686 176.049 25.8686C177.524 25.8686 178.706 26.2733 179.595 27.0828C180.485 27.8922 180.953 28.9329 181 30.2048V40.7504H177.98V31.5577C177.933 30.8177 177.676 30.1875 177.208 29.6671C176.739 29.1468 176.002 28.8635 174.995 28.8172C174.293 28.8172 173.649 28.9386 173.064 29.1815C172.479 29.4243 171.975 29.7539 171.554 30.1701C171.132 30.5864 170.799 31.0836 170.553 31.6618C170.307 32.2399 170.184 32.8759 170.184 33.5697Z" fill="#300045"/>
<path d="M60.6387 2.09772C60.5313 2.21498 60.3702 2.41042 60.2763 2.55375C59.7393 3.43974 58.464 5.12052 56.9337 6.14984L56.0342 5.45928C57.2827 4.76873 58.5446 3.36156 58.9741 2.55375C58.0344 2.55375 51.9667 2.55375 51.3224 2.55375C50.8257 2.55375 50.329 2.5798 49.8054 2.61889V1.44625C50.2753 1.5114 50.8257 1.56352 51.3224 1.56352C51.9667 1.56352 58.2358 1.56352 59.0413 1.56352C59.2963 1.56352 59.7796 1.52443 59.9675 1.47231L60.6387 2.09772ZM55.2691 3.80456C55.2691 7.3355 54.9469 9.71987 51.5237 11.3876L50.5437 10.6059C50.9062 10.4886 51.376 10.2671 51.7519 10.0195C53.8192 8.78176 54.1146 6.9316 54.1146 4.7557C54.1146 4.443 54.1146 4.15635 54.0609 3.80456H55.2691Z" fill="#300045"/>
<path d="M72.3715 1.53746C72.3715 2.01954 72.7608 2.39739 73.2575 2.39739C73.7407 2.39739 74.1434 2.01954 74.1434 1.53746C74.1434 1.0684 73.7407 0.677524 73.2575 0.677524C72.7608 0.677524 72.3715 1.0684 72.3715 1.53746ZM71.7539 1.53746C71.7539 0.729641 72.4252 0.0781757 73.2575 0.0781757C74.0898 0.0781757 74.761 0.729641 74.761 1.53746C74.761 2.34528 74.0898 2.99674 73.2575 2.99674C72.4252 2.99674 71.7539 2.34528 71.7539 1.53746ZM72.9218 2.41042C72.8279 2.59283 72.7742 2.81433 72.7205 3.06189C72.4252 4.42997 71.7808 6.54072 70.7069 7.86971C69.4853 9.40717 67.8878 10.6059 65.4312 11.3616L64.5183 10.3844C67.1226 9.74593 68.6261 8.63844 69.7537 7.2443C70.7069 6.07166 71.3244 4.24756 71.5123 2.99674C70.7337 2.99674 65.4177 2.99674 64.6391 2.99674C64.1022 2.99674 63.6457 3.0228 63.3101 3.04886V1.88925C63.6726 1.92834 64.2096 1.98046 64.6526 1.98046C65.4177 1.98046 70.774 1.98046 71.3781 1.98046C71.5929 1.98046 71.8479 1.96743 72.103 1.90228L72.9218 2.41042Z" fill="#300045"/>
<path d="M85.3929 1.01629C85.3661 1.32899 85.3526 1.70684 85.3526 2.14984C85.3526 2.65798 85.3526 3.76547 85.3526 4.24756C85.3526 7.38762 84.9231 8.41694 83.9431 9.52443C83.084 10.5407 81.7415 11.114 80.7616 11.4397L79.8756 10.5407C81.1106 10.228 82.2516 9.71987 83.084 8.79479C84.0371 7.72638 84.2116 6.65798 84.2116 4.20847C84.2116 3.70033 84.2116 2.60586 84.2116 2.14984C84.2116 1.70684 84.1713 1.32899 84.131 1.01629H85.3929ZM79.1641 1.12052C79.1372 1.36808 79.1238 1.74593 79.1238 2.0456C79.1238 2.43648 79.1238 5.85016 79.1238 6.39739C79.1238 6.73616 79.1372 7.16612 79.1641 7.40065H77.9425C77.9693 7.19218 77.9962 6.77524 77.9962 6.39739C77.9962 5.83713 77.9962 2.43648 77.9962 2.0456C77.9962 1.8241 77.9828 1.36808 77.9425 1.12052H79.1641Z" fill="#300045"/>
<path d="M91.7828 5.71987H98.4412V6.52769H91.7828V5.71987ZM91.5278 7.94788H98.7231V8.78176H91.5278V7.94788ZM95.998 5.98046H96.9108V11.7003H95.998V5.98046ZM93.246 6.01954H94.1186V8.39088C94.1186 9.18567 93.7964 10.8925 92.2795 11.8827C92.1453 11.7003 91.8365 11.4267 91.6083 11.2964C92.9641 10.4886 93.246 9.10749 93.246 8.39088V6.01954ZM90.1182 2.31922H93.8904V3.0228H90.1182V2.31922ZM96.3068 2.31922H100.106V3.0228H96.3068V2.31922ZM99.7165 0.508143H100.71V10.671C100.71 11.2573 100.576 11.57 100.173 11.7394C99.7702 11.9088 99.099 11.9218 98.0788 11.9218C98.0385 11.6612 97.9042 11.2052 97.7566 10.9316C98.4949 10.9577 99.2198 10.9577 99.4346 10.9446C99.6494 10.9446 99.7165 10.8664 99.7165 10.671V0.508143ZM90.1988 0.508143H94.5079V4.89902H90.1988V4.15635H93.5548V1.26384H90.1988V0.508143ZM100.2 0.508143V1.26384H96.6558V4.16938H100.2V4.91205H95.6892V0.508143H100.2ZM89.5947 0.508143H90.5881V11.9479H89.5947V0.508143Z" fill="#300045"/>
<path d="M104.858 4.58632H112.241V5.5114H104.858V4.58632ZM103.516 0.508143H107.516V1.38111H103.516V0.508143ZM103.167 7.4658H113.879V8.36482H103.167V7.4658ZM107.167 0.508143H107.355L107.543 0.469056L108.214 0.781759C107.234 3.36156 105.032 5.21173 102.844 6.16287C102.71 5.94137 102.415 5.60261 102.213 5.4202C104.227 4.62541 106.348 2.82736 107.167 0.703582V0.508143ZM106.294 5.02932H107.288V7.25733C107.288 9.0684 106.858 10.8795 103.542 12C103.408 11.7785 103.099 11.4137 102.885 11.2313C105.932 10.241 106.294 8.71661 106.294 7.2443V5.02932ZM109.61 0C110.55 2.35831 112.483 4.41694 114.872 5.31596C114.644 5.52443 114.335 5.90228 114.174 6.14984C111.731 5.09446 109.785 2.89251 108.724 0.247557L109.61 0ZM103.328 2.35831L103.972 1.8241C104.603 2.25407 105.395 2.87948 105.784 3.28339L105.113 3.86971C104.737 3.4658 103.959 2.81433 103.328 2.35831ZM112.107 0.0912048L112.886 0.612378C112.201 1.27687 111.302 2.00651 110.617 2.46254L109.999 1.99349C110.671 1.5114 111.597 0.690553 112.107 0.0912048ZM113.704 1.58958L114.456 2.11075C113.718 2.78827 112.751 3.53094 112 4.02606L111.382 3.557C112.12 3.06189 113.127 2.20195 113.704 1.58958ZM109.637 5.05537H110.671V10.4625C110.671 10.8795 110.751 10.9577 111.221 10.9577C111.422 10.9577 112.483 10.9577 112.751 10.9577C113.181 10.9577 113.248 10.6971 113.302 9.30293C113.53 9.47231 113.933 9.64169 114.215 9.69381C114.121 11.3746 113.839 11.8436 112.845 11.8436C112.59 11.8436 111.315 11.8436 111.073 11.8436C109.932 11.8436 109.637 11.544 109.637 10.4625V5.05537Z" fill="#300045"/>
<path d="M125.759 1.81107C125.759 2.29316 126.162 2.67101 126.645 2.67101C127.129 2.67101 127.531 2.29316 127.531 1.81107C127.531 1.34202 127.129 0.95114 126.645 0.95114C126.162 0.95114 125.759 1.34202 125.759 1.81107ZM125.142 1.81107C125.142 1.00326 125.813 0.351792 126.645 0.351792C127.478 0.351792 128.149 1.00326 128.149 1.81107C128.149 2.61889 127.478 3.27036 126.645 3.27036C125.813 3.27036 125.142 2.61889 125.142 1.81107ZM118.175 6.98371C118.765 5.62866 119.316 3.64821 119.504 2.14984L120.698 2.38436C120.605 2.67101 120.511 3.06189 120.443 3.3355C120.269 4.14332 119.799 6.07166 119.235 7.41368C118.739 8.59935 118 9.94137 117.248 10.9967L116.107 10.5277C116.953 9.43322 117.718 8.06515 118.175 6.98371ZM124.793 6.4886C124.256 5.14658 123.424 3.3355 122.846 2.35831L123.934 2.00651C124.457 2.95765 125.316 4.7557 125.894 6.12378C126.431 7.41368 127.142 9.40717 127.505 10.5928L126.31 10.9577C125.974 9.64169 125.343 7.86971 124.793 6.4886Z" fill="#300045"/>
<path d="M130.042 5.25081C130.458 5.2899 131.156 5.32899 131.921 5.32899C132.901 5.32899 138.284 5.32899 139.278 5.32899C139.949 5.32899 140.419 5.27687 140.727 5.25081V6.52769C140.445 6.51466 139.882 6.47557 139.291 6.47557C138.271 6.47557 132.914 6.47557 131.921 6.47557C131.183 6.47557 130.471 6.50163 130.042 6.52769V5.25081Z" fill="#300045"/>
<path d="M146.621 9.74593C146.621 9.01629 146.621 3.25733 146.621 2.1759C146.621 1.79805 146.594 1.22476 146.527 0.807817H147.842C147.788 1.21173 147.748 1.77199 147.748 2.1759C147.748 4.19544 147.762 9.13355 147.762 9.74593C147.762 10.1629 147.788 10.8664 147.842 11.2964H146.54C146.607 10.8795 146.621 10.228 146.621 9.74593ZM147.507 4.23453C149.279 4.72964 151.99 5.7329 153.48 6.43648L153.01 7.54397C151.48 6.74919 148.97 5.8241 147.507 5.38111V4.23453Z" fill="#300045"/>
<path d="M162.045 2.11075C162.045 1.70684 161.991 1.08143 161.911 0.807817H163.253C163.213 1.08143 163.159 1.7329 163.159 2.11075C163.159 2.85342 163.159 4.06515 163.159 4.85993C163.159 7.73941 162.179 9.86319 159.441 11.3876L158.394 10.645C160.944 9.47231 162.045 7.54397 162.045 4.85993C162.045 4.07818 162.045 2.85342 162.045 2.11075ZM156.836 3.79153C157.105 3.83062 157.602 3.85668 158.085 3.85668C158.743 3.85668 166.086 3.85668 166.73 3.85668C167.186 3.85668 167.697 3.83062 167.898 3.80456V4.91205C167.697 4.89902 167.133 4.88599 166.717 4.88599C166.086 4.88599 158.743 4.88599 158.112 4.88599C157.602 4.88599 157.118 4.89902 156.836 4.92508V3.79153Z" fill="#300045"/>
<path d="M170.314 5.25081C170.73 5.2899 171.428 5.32899 172.194 5.32899C173.174 5.32899 178.557 5.32899 179.55 5.32899C180.221 5.32899 180.691 5.27687 181 5.25081V6.52769C180.718 6.51466 180.154 6.47557 179.563 6.47557C178.543 6.47557 173.187 6.47557 172.194 6.47557C171.455 6.47557 170.744 6.50163 170.314 6.52769V5.25081Z" fill="#300045"/>
</svg>
