<svg width="197" height="51" viewBox="0 0 197 51" fill="none" xmlns="http://www.w3.org/2000/svg">
<path fill-rule="evenodd" clip-rule="evenodd" d="M24.3454 0.671093C24.8769 0.48819 25.3073 0.578538 25.722 0.784C25.9137 0.878927 26.0944 1.00148 26.2797 1.15174C26.8734 1.63314 27.6092 2.49151 28.3313 3.55266C30.1609 6.24118 31.6047 9.69108 32.2088 13.4638L32.2361 13.6393L32.3279 13.8382C34.5436 18.6601 36.1936 23.068 37.1339 27.0073L37.1929 27.2581C38.373 32.3403 38.3097 36.4445 36.6582 39.4175C35.2171 42.0118 32.5799 43.1731 28.9228 43.2768L28.7195 43.2817C26.3824 43.3281 24.0671 43.0271 19.7839 42.2316L18.8393 42.0544C14.5766 45.886 10.1594 48.7634 6.81332 49.8041C2.21458 51.2344 -0.69179 49.0648 0.14255 44.0169C0.777326 40.1764 3.2615 38.1393 7.15557 37.6799L7.27771 37.666C9.92749 37.378 12.5598 37.6798 17.8694 38.6724C22.6164 34.1728 26.3705 29.1185 27.9953 24.82L28.0568 24.655L28.2012 24.2471C29.3043 21.0059 29.6 17.7935 29.2078 14.6756L29.1901 14.5407L28.9088 13.9414C27.9217 11.8514 26.9015 9.83236 25.6926 7.53432L24.1859 4.68908L23.9649 4.2661C23.6973 3.74957 23.5339 3.41489 23.4314 3.16663L23.4165 3.13002C23.3075 2.85945 23.2403 2.60588 23.2312 2.32287C23.2092 1.64181 23.5459 0.946244 24.3454 0.671093ZM14.8654 41.3266L14.3953 41.2482C11.2575 40.7328 9.36911 40.5999 7.61734 40.7904L7.39947 40.8162C4.89309 41.1392 3.62535 42.217 3.24312 44.5295C3.00353 45.9791 3.17122 46.7101 3.47849 46.9395C3.80101 47.1803 4.61969 47.1952 5.87991 46.8033C8.20437 46.0803 11.342 44.179 14.5713 41.5666L14.8654 41.3266ZM32.1066 21.7105L32.1414 21.5179L32.2158 21.7172L32.2964 21.9362C34.9385 29.1446 35.6677 34.7288 33.9109 37.8912C33.0996 39.3516 31.4912 40.0599 28.8337 40.1353L28.7428 40.1377L28.6401 40.1399C26.9266 40.1716 25.1308 39.9795 22.2327 39.4789L21.6373 39.3744L21.8572 39.1494C26.1201 34.757 29.4445 29.9958 31.0133 25.7201L31.1701 25.2772L31.2696 24.9792C31.6271 23.8864 31.905 22.7963 32.1066 21.7105Z" fill="#FF5268"/>
<path fill-rule="evenodd" clip-rule="evenodd" d="M57.2154 42.1787V32.1941H61.1476C62.8695 32.1941 64.3344 31.9242 65.5424 31.3845C66.7503 30.8448 67.7269 30.1445 68.4722 29.2835C69.2175 28.4226 69.7572 27.4459 70.0913 26.3537C70.4254 25.2614 70.5925 24.1627 70.5925 23.0576C70.5925 21.6441 70.3483 20.3912 69.86 19.2989C69.3717 18.2066 68.6842 17.2814 67.7976 16.5233C66.9109 15.7651 65.8572 15.1933 64.6364 14.8078C63.4157 14.4222 62.0728 14.2295 60.6079 14.2295H52.9749V42.1787H57.2154ZM61.0319 28.2232H57.2153V18.1615H61.0704C62.0727 18.1615 62.9144 18.3286 63.5955 18.6627C64.2765 18.9968 64.8227 19.4144 65.2339 19.9156C65.6451 20.4167 65.9342 20.9564 66.1013 21.5347C66.2683 22.113 66.3518 22.6462 66.3518 23.1345C66.3518 23.5972 66.2683 24.124 66.1013 24.7151C65.9342 25.3062 65.6515 25.8588 65.2532 26.3728C64.8548 26.8868 64.3087 27.3237 63.6147 27.6835C62.9208 28.0433 62.0599 28.2232 61.0319 28.2232ZM82.8516 41.9473C81.7464 42.3585 80.6156 42.5641 79.4591 42.5641C78.2769 42.5641 77.1653 42.3392 76.1245 41.8895C75.0836 41.4397 74.1777 40.8358 73.4067 40.0776C72.6356 39.3194 72.0253 38.4263 71.5755 37.3983C71.1257 36.3703 70.9009 35.278 70.9009 34.1215C70.9009 32.965 71.1257 31.8727 71.5755 30.8447C72.0253 29.8167 72.6356 28.9172 73.4067 28.1462C74.1777 27.3752 75.0708 26.7648 76.0859 26.315C77.1011 25.8653 78.1869 25.6404 79.3435 25.6404C81.1682 25.6404 82.7552 26.1865 84.1045 27.2788C85.4537 28.371 86.4239 29.8038 87.015 31.5772C86.2183 31.8599 85.306 32.2068 84.2779 32.618C83.2499 33.0292 82.1834 33.4597 81.0782 33.9095C79.9731 34.3592 78.868 34.8026 77.7629 35.2395C76.6578 35.6764 75.6297 36.0747 74.6788 36.4346C75.1157 37.3084 75.7518 38.0087 76.5871 38.5356C77.4223 39.0624 78.354 39.3259 79.382 39.3259C80.0759 39.3259 80.7763 39.1974 81.483 38.9403C82.1898 38.6833 82.7616 38.3364 83.1985 37.8995L85.6658 40.2896C84.8948 40.9835 83.9567 41.5361 82.8516 41.9473ZM74.2162 34.3528C74.2162 34.3271 74.2098 34.2886 74.197 34.2372C74.1841 34.1858 74.1777 34.0958 74.1777 33.9673C74.1777 33.3248 74.3126 32.6952 74.5825 32.0783C74.8523 31.4615 75.2186 30.9154 75.6812 30.4399C76.1438 29.9645 76.6899 29.5854 77.3196 29.3027C77.9492 29.02 78.6367 28.8786 79.382 28.8786C80.0759 28.8786 80.757 29.0393 81.4252 29.3605C82.0934 29.6818 82.5817 30.1637 82.8901 30.8062C82.3247 31.0375 81.6822 31.3009 80.9626 31.5965C80.243 31.892 79.4977 32.2004 78.7267 32.5217C77.9557 32.8429 77.1782 33.1642 76.3944 33.4854C75.6105 33.8067 74.8845 34.0958 74.2162 34.3528ZM93.1446 34.1986V42.1786H89.8678V26.0644H92.7591C92.8105 26.8611 92.8555 27.5872 92.8941 28.2425C92.9326 28.8979 92.9776 29.5468 93.029 30.1894C93.6201 28.8015 94.4618 27.6964 95.554 26.874C96.6463 26.0516 97.9892 25.6404 99.5826 25.6404C101.202 25.6404 102.5 26.0901 103.476 26.9896C104.453 27.8892 104.967 29.0457 105.018 30.4592V42.1786H101.703V31.9627C101.651 31.1403 101.369 30.4399 100.855 29.8617C100.341 29.2834 99.5312 28.9686 98.4261 28.9172C97.6551 28.9172 96.9483 29.0521 96.3058 29.322C95.6633 29.5918 95.1107 29.958 94.6481 30.4207C94.1855 30.8833 93.8193 31.4358 93.5494 32.0783C93.2796 32.7208 93.1446 33.4276 93.1446 34.1986ZM114.155 42.1785V29.0327H118.472V26.1028H114.155V18.971H110.878V26.1028H107.987V29.0327H110.878V42.1785H114.155ZM130.346 42.2943C129.729 42.4742 129.022 42.5641 128.226 42.5641C126.992 42.5641 125.855 42.3392 124.814 41.8895C123.773 41.4397 122.88 40.8358 122.135 40.0776C121.389 39.3194 120.805 38.4392 120.381 37.4369C119.957 36.4346 119.745 35.3808 119.745 34.2757C119.745 33.0935 119.969 31.982 120.419 30.9411C120.869 29.9002 121.479 28.9879 122.25 28.204C123.021 27.4201 123.914 26.7969 124.93 26.3343C125.945 25.8717 127.031 25.6404 128.187 25.6404C128.958 25.6404 129.665 25.7367 130.307 25.9295C130.95 26.1223 131.502 26.36 131.965 26.6427C132.428 26.9254 132.8 27.221 133.083 27.5294C133.366 27.8378 133.559 28.1076 133.661 28.3389L133.816 26.0644H136.977V42.1786H133.661V40.1354C133.533 40.341 133.327 40.5852 133.045 40.8679C132.762 41.1506 132.396 41.414 131.946 41.6582C131.496 41.9023 130.963 42.1143 130.346 42.2943ZM128.341 39.3259C127.57 39.3259 126.864 39.1909 126.221 38.9211C125.579 38.6512 125.026 38.285 124.563 37.8224C124.101 37.3598 123.735 36.8072 123.465 36.1647C123.195 35.5222 123.06 34.8283 123.06 34.083C123.06 33.3377 123.195 32.6502 123.465 32.0205C123.735 31.3909 124.101 30.8447 124.563 30.3821C125.026 29.9195 125.579 29.5533 126.221 29.2834C126.864 29.0136 127.57 28.8786 128.341 28.8786C129.112 28.8786 129.826 29.0136 130.481 29.2834C131.136 29.5533 131.702 29.9195 132.177 30.3821C132.653 30.8447 133.019 31.3909 133.276 32.0205C133.533 32.6502 133.661 33.3377 133.661 34.083C133.661 34.8283 133.533 35.5158 133.276 36.1454C133.019 36.7751 132.653 37.3277 132.177 37.8031C131.702 38.2786 131.136 38.6512 130.481 38.9211C129.826 39.1909 129.112 39.3259 128.341 39.3259ZM155.404 47.6913C153.836 49.182 151.716 49.9273 149.043 49.9273C148.118 49.9273 147.289 49.8309 146.557 49.6381C145.824 49.4454 145.156 49.1948 144.552 48.8864C143.948 48.578 143.395 48.2182 142.894 47.807C142.393 47.3958 141.898 46.9717 141.41 46.5348L143.53 44.2989C144.327 45.0442 145.143 45.6353 145.978 46.0722C146.814 46.5091 147.809 46.7276 148.966 46.7276C150.688 46.7276 152.024 46.3164 152.975 45.494C153.926 44.6715 154.414 43.5279 154.44 42.0629V40.945C154.44 40.7394 154.466 40.5145 154.517 40.2703C154.569 40.0262 154.594 39.8399 154.594 39.7114C154.363 40.0198 154.074 40.3474 153.727 40.6944C153.38 41.0414 152.975 41.3498 152.513 41.6196C152.05 41.8895 151.51 42.1143 150.893 42.2943C150.277 42.4742 149.583 42.5641 148.812 42.5641C147.604 42.5641 146.499 42.3457 145.496 41.9087C144.494 41.4718 143.62 40.8743 142.875 40.1161C142.13 39.358 141.551 38.4713 141.14 37.4561C140.729 36.441 140.523 35.3423 140.523 34.1601C140.523 32.9521 140.742 31.8278 141.179 30.7869C141.616 29.746 142.207 28.8465 142.952 28.0883C143.697 27.3302 144.571 26.7326 145.573 26.2957C146.576 25.8588 147.642 25.6404 148.773 25.6404C149.647 25.6404 150.424 25.756 151.106 25.9873C151.787 26.2186 152.358 26.4885 152.821 26.7969C153.284 27.1053 153.65 27.4073 153.92 27.7028C154.19 27.9984 154.363 28.2104 154.44 28.3389C154.44 27.9791 154.466 27.6 154.517 27.2017C154.569 26.8033 154.594 26.4242 154.594 26.0644H157.756V41.4461C157.756 44.119 156.972 46.2007 155.404 47.6913ZM149.12 39.3259C148.349 39.3259 147.642 39.1909 147 38.9211C146.357 38.6512 145.805 38.285 145.342 37.8224C144.88 37.3598 144.513 36.8072 144.243 36.1647C143.974 35.5222 143.839 34.8283 143.839 34.083C143.839 33.3377 143.974 32.6502 144.243 32.0205C144.513 31.3909 144.88 30.8447 145.342 30.3821C145.805 29.9195 146.357 29.5533 147 29.2834C147.642 29.0136 148.349 28.8786 149.12 28.8786C149.891 28.8786 150.604 29.0136 151.26 29.2834C151.915 29.5533 152.48 29.9195 152.956 30.3821C153.431 30.8447 153.798 31.3909 154.055 32.0205C154.312 32.6502 154.44 33.3377 154.44 34.083C154.44 34.8283 154.312 35.5158 154.055 36.1454C153.798 36.7751 153.431 37.3277 152.956 37.8031C152.48 38.2786 151.915 38.6512 151.26 38.9211C150.604 39.1909 149.891 39.3259 149.12 39.3259ZM173.234 41.8895C172.193 42.3392 171.055 42.5641 169.822 42.5641C168.64 42.5641 167.528 42.3585 166.487 41.9473C165.446 41.5361 164.54 40.9578 163.769 40.2125C162.998 39.4672 162.388 38.5741 161.938 37.5332C161.489 36.4924 161.264 35.3423 161.264 34.083C161.264 32.9264 161.489 31.8342 161.938 30.8062C162.388 29.7781 162.998 28.8851 163.769 28.1269C164.54 27.3687 165.446 26.7648 166.487 26.315C167.528 25.8653 168.653 25.6404 169.86 25.6404C171.068 25.6404 172.193 25.8653 173.234 26.315C174.274 26.7648 175.174 27.3687 175.932 28.1269C176.69 28.8851 177.281 29.7781 177.705 30.8062C178.13 31.8342 178.342 32.9264 178.342 34.083C178.342 35.2395 178.13 36.3318 177.705 37.3598C177.281 38.3878 176.69 39.2873 175.932 40.0583C175.174 40.8293 174.274 41.4397 173.234 41.8895ZM169.745 39.3259C169.025 39.3259 168.35 39.1909 167.721 38.9211C167.091 38.6512 166.539 38.2786 166.063 37.8031C165.588 37.3277 165.215 36.7751 164.945 36.1454C164.675 35.5158 164.54 34.8411 164.54 34.1215C164.54 33.4019 164.675 32.7209 164.945 32.0783C165.215 31.4358 165.588 30.8768 166.063 30.4014C166.539 29.9259 167.091 29.5533 167.721 29.2834C168.35 29.0136 169.025 28.8786 169.745 28.8786C170.464 28.8786 171.145 29.0136 171.788 29.2834C172.43 29.5533 172.989 29.9259 173.465 30.4014C173.94 30.8768 174.319 31.4358 174.602 32.0783C174.885 32.7209 175.026 33.4019 175.026 34.1215C175.026 34.8411 174.885 35.5158 174.602 36.1454C174.319 36.7751 173.94 37.3277 173.465 37.8031C172.989 38.2786 172.43 38.6512 171.788 38.9211C171.145 39.1909 170.464 39.3259 169.745 39.3259ZM185.126 34.1986V42.1786H181.85V26.0644H184.741C184.792 26.8611 184.837 27.5872 184.876 28.2425C184.914 28.8979 184.959 29.5468 185.011 30.1894C185.602 28.8015 186.444 27.6964 187.536 26.874C188.628 26.0516 189.971 25.6404 191.564 25.6404C193.184 25.6404 194.481 26.0901 195.458 26.9896C196.435 27.8892 196.949 29.0457 197 30.4592V42.1786H193.685V31.9627C193.633 31.1403 193.351 30.4399 192.837 29.8617C192.323 29.2834 191.513 28.9686 190.408 28.9172C189.637 28.9172 188.93 29.0521 188.288 29.322C187.645 29.5918 187.093 29.958 186.63 30.4207C186.167 30.8833 185.801 31.4358 185.531 32.0783C185.261 32.7208 185.126 33.4276 185.126 34.1986Z" fill="#300045"/>
</svg>
