<svg width="52" height="68" viewBox="0 0 52 68" fill="none" xmlns="http://www.w3.org/2000/svg">
<path fill-rule="evenodd" clip-rule="evenodd" d="M33.3835 0.692537C34.0993 0.446226 34.6788 0.567895 35.2374 0.844585C35.4954 0.972421 35.7389 1.13746 35.9884 1.33981C36.7878 1.9881 37.7787 3.14404 38.7512 4.57306C41.2151 8.19363 43.1593 12.8395 43.9729 17.9202L44.0097 18.1565L44.1333 18.4244C47.1172 24.9179 49.3391 30.8539 50.6054 36.1588L50.6849 36.4965C52.2741 43.3406 52.1889 48.8676 49.9648 52.8712C48.0241 56.3649 44.4727 57.9288 39.5478 58.0686L39.274 58.0752C36.1266 58.1376 33.0087 57.7323 27.2405 56.661L25.9685 56.4223C20.2281 61.5822 14.2795 65.4571 9.77346 66.8586C3.58046 68.7848 -0.33347 65.8631 0.790113 59.0652C1.64495 53.8933 4.99033 51.15 10.2344 50.5313L10.3989 50.5127C13.9672 50.1247 17.5121 50.5312 24.6624 51.8679C31.0551 45.8084 36.1106 39.0019 38.2987 33.2132L38.3815 32.991L38.5759 32.4417C40.0614 28.0769 40.4597 23.7508 39.9315 19.5521L39.9076 19.3704L39.5289 18.5633C38.1996 15.7488 36.8257 13.0298 35.1978 9.93507L33.1686 6.10346L32.8711 5.53383C32.5107 4.83824 32.2907 4.38754 32.1526 4.05321L32.1325 4.00391C31.9858 3.63954 31.8952 3.29807 31.8829 2.91694C31.8534 1.99977 32.3068 1.06308 33.3835 0.692537ZM20.6169 55.4423L19.9839 55.3367C15.7583 54.6426 13.2153 54.4637 10.8562 54.7202L10.5628 54.755C7.18751 55.1899 5.48027 56.6413 4.96555 59.7555C4.64289 61.7076 4.86872 62.6921 5.2825 63.001C5.71683 63.3252 6.81933 63.3454 8.51643 62.8175C11.6467 61.8439 15.8721 59.2835 20.2209 55.7655L20.6169 55.4423ZM43.8356 29.0261L43.8823 28.7667L43.9825 29.0351L44.0911 29.3299C47.6492 39.0374 48.6311 46.5574 46.2653 50.8162C45.1728 52.7829 43.0068 53.7367 39.4279 53.8383L39.3056 53.8414L39.1673 53.8444C36.8598 53.8871 34.4413 53.6285 30.5386 52.9543L29.7368 52.8135L30.0329 52.5106C35.7737 46.5954 40.2506 40.1837 42.3632 34.4257L42.5743 33.8293L42.7083 33.4278C43.1898 31.9563 43.564 30.4882 43.8356 29.0261Z" fill="white"/>
</svg>
