<svg width="209" height="56" viewBox="0 0 209 56" fill="none" xmlns="http://www.w3.org/2000/svg">
<path fill-rule="evenodd" clip-rule="evenodd" d="M27.504 0.111436C28.1045 -0.0948019 28.5907 0.00707269 29.0592 0.238747C29.2757 0.345785 29.48 0.48397 29.6893 0.653406C30.36 1.19622 31.1912 2.1641 32.007 3.36063C34.074 6.39216 35.7051 10.2822 36.3876 14.5363L36.4185 14.7341L36.5222 14.9584C39.0254 20.3955 40.8894 25.3657 41.9517 29.8076L42.0184 30.0904C43.3516 35.821 43.2801 40.4488 41.4143 43.8011C39.7862 46.7264 36.8069 48.0358 32.6753 48.1528L32.4456 48.1584C29.8053 48.2107 27.1896 47.8712 22.3506 46.9742L21.2835 46.7744C16.4678 51.0948 11.4774 54.3393 7.69728 55.5128C2.5019 57.1256 -0.781543 54.6792 0.161045 48.9873C0.878177 44.6569 3.68466 42.3598 8.08394 41.8418L8.22193 41.8262C11.2155 41.5014 14.1893 41.8418 20.1878 42.961C25.5507 37.8873 29.7918 32.1882 31.6275 27.3412L31.6969 27.1552L31.86 26.6953C33.1062 23.0405 33.4403 19.4183 32.9972 15.9027L32.9772 15.7506L32.6595 15.0748C31.5443 12.7182 30.3918 10.4415 29.026 7.85028L27.3238 4.64204L27.0742 4.16509C26.7718 3.58266 26.5872 3.20529 26.4714 2.92535L26.4545 2.88408C26.3315 2.57898 26.2555 2.29307 26.2452 1.97395C26.2204 1.20599 26.6008 0.421691 27.504 0.111436ZM16.7941 45.9537L16.263 45.8653C12.7181 45.2841 10.5847 45.1343 8.60564 45.3491L8.3595 45.3782C5.52794 45.7424 4.09572 46.9577 3.66391 49.5652C3.39322 51.1997 3.58268 52.0241 3.9298 52.2827C4.29417 52.5542 5.21907 52.571 6.64279 52.1291C9.26883 51.3139 12.8135 49.17 16.4618 46.2243L16.7941 45.9537ZM36.2722 23.8352L36.3114 23.618L36.3955 23.8428L36.4866 24.0896C39.4714 32.2177 40.2952 38.5143 38.3105 42.0803C37.394 43.727 35.5769 44.5256 32.5745 44.6106L32.4719 44.6133L32.3559 44.6158C30.4201 44.6515 28.3912 44.435 25.1172 43.8705L24.4445 43.7526L24.693 43.4989C29.509 38.5461 33.2647 33.1775 35.037 28.3564L35.2141 27.8569L35.3265 27.5208C35.7304 26.2887 36.0444 25.0595 36.2722 23.8352Z" fill="#FF5268"/>
<path fill-rule="evenodd" clip-rule="evenodd" d="M61.9701 47.5408V37.0587H66.1061C67.9172 37.0587 69.4581 36.7754 70.7286 36.2089C71.9991 35.6423 73.0264 34.907 73.8103 34.0032C74.5943 33.0993 75.1619 32.0741 75.5134 30.9274C75.8648 29.7807 76.0405 28.6273 76.0405 27.4671C76.0405 25.9832 75.7837 24.6678 75.2701 23.5212C74.7565 22.3745 74.0333 21.4032 73.1007 20.6072C72.1681 19.8113 71.0598 19.211 69.7757 18.8063C68.4917 18.4016 67.0792 18.1992 65.5384 18.1992H57.5098V47.5408H61.9701ZM65.9839 32.8915H61.9696V22.3285H66.0245C67.0788 22.3285 67.9641 22.5039 68.6804 22.8546C69.3968 23.2054 69.9712 23.6438 70.4037 24.1699C70.8363 24.6961 71.1404 25.2627 71.3161 25.8697C71.4918 26.4768 71.5797 27.0366 71.5797 27.5493C71.5797 28.0349 71.4918 28.588 71.3161 29.2086C71.1404 29.8291 70.843 30.4092 70.424 30.9488C70.005 31.4885 69.4306 31.9471 68.7007 32.3249C67.9708 32.7026 67.0652 32.8915 65.9839 32.8915ZM88.9344 47.299C87.772 47.7307 86.5826 47.9466 85.3662 47.9466C84.1227 47.9466 82.9535 47.7105 81.8587 47.2383C80.7639 46.7661 79.811 46.1321 79 45.3362C78.1891 44.5402 77.547 43.6027 77.074 42.5234C76.6009 41.4442 76.3644 40.2975 76.3644 39.0834C76.3644 37.8692 76.6009 36.7226 77.074 35.6433C77.547 34.5641 78.1891 33.6198 79 32.8104C79.811 32.0009 80.7504 31.3601 81.8182 30.888C82.8859 30.4158 84.0281 30.1797 85.2445 30.1797C87.1638 30.1797 88.8331 30.7531 90.2523 31.8998C91.6715 33.0464 92.6919 34.5506 93.3137 36.4123C92.4757 36.7091 91.516 37.0733 90.4347 37.505C89.3534 37.9367 88.2316 38.3886 87.0692 38.8608C85.9068 39.333 84.7444 39.7984 83.582 40.257C82.4196 40.7157 81.3383 41.1339 80.3381 41.5116C80.7977 42.429 81.4667 43.1642 82.3453 43.7173C83.2238 44.2704 84.2038 44.547 85.2851 44.547C86.0149 44.547 86.7516 44.4121 87.495 44.1423C88.2384 43.8725 88.8398 43.5082 89.2994 43.0495L91.8945 45.5588C91.0835 46.2872 90.0968 46.8673 88.9344 47.299ZM79.8521 39.3227C79.8521 39.2957 79.8454 39.2553 79.8319 39.2013C79.8184 39.1474 79.8116 39.0529 79.8116 38.918C79.8116 38.2435 79.9535 37.5825 80.2374 36.9349C80.5212 36.2874 80.9064 35.7141 81.393 35.2149C81.8796 34.7158 82.454 34.3178 83.1163 34.021C83.7786 33.7242 84.5017 33.5758 85.2857 33.5758C86.0155 33.5758 86.7319 33.7445 87.4347 34.0817C88.1376 34.419 88.6512 34.9249 88.9756 35.5994C88.3809 35.8422 87.7051 36.1188 86.9482 36.429C86.1912 36.7393 85.4073 37.0631 84.5963 37.4004C83.7854 37.7376 82.9676 38.0749 82.1431 38.4121C81.3187 38.7494 80.555 39.0529 79.8521 39.3227ZM99.7611 39.1643V47.5418H96.3145V30.6249H99.3556C99.4097 31.4613 99.457 32.2235 99.4975 32.9115C99.5381 33.5995 99.5854 34.2808 99.6395 34.9553C100.261 33.4984 101.147 32.3382 102.295 31.4748C103.444 30.6114 104.857 30.1797 106.533 30.1797C108.236 30.1797 109.601 30.6519 110.628 31.5962C111.655 32.5406 112.196 33.7547 112.25 35.2386V47.5418H108.763V36.817C108.709 35.9536 108.411 35.2184 107.871 34.6113C107.33 34.0043 106.479 33.6737 105.316 33.6198C104.505 33.6198 103.762 33.7614 103.086 34.0447C102.41 34.328 101.829 34.7125 101.343 35.1982C100.856 35.6838 100.471 36.2639 100.187 36.9384C99.903 37.6129 99.7611 38.3549 99.7611 39.1643ZM121.861 47.5424V33.7418H126.402V30.6659H121.861V23.1788H118.414V30.6659H115.373V33.7418H118.414V47.5424H121.861ZM138.891 47.6633C138.242 47.8521 137.499 47.9466 136.661 47.9466C135.363 47.9466 134.167 47.7105 133.072 47.2383C131.977 46.7661 131.038 46.1321 130.254 45.3362C129.47 44.5402 128.855 43.6161 128.409 42.5639C127.963 41.5116 127.74 40.4054 127.74 39.2453C127.74 38.0042 127.977 36.8372 128.45 35.7445C128.923 34.6518 129.565 33.694 130.376 32.8711C131.187 32.0482 132.126 31.3939 133.194 30.9082C134.262 30.4226 135.404 30.1797 136.62 30.1797C137.431 30.1797 138.175 30.2809 138.85 30.4833C139.526 30.6856 140.107 30.9352 140.594 31.232C141.081 31.5288 141.473 31.8391 141.77 32.1628C142.067 32.4866 142.27 32.7699 142.378 33.0127L142.54 30.6249H145.865V47.5418H142.378V45.3969C142.243 45.6127 142.027 45.869 141.729 46.1658C141.432 46.4626 141.047 46.7392 140.574 46.9955C140.101 47.2518 139.54 47.4744 138.891 47.6633ZM136.782 44.5435C135.971 44.5435 135.228 44.4018 134.552 44.1186C133.876 43.8353 133.295 43.4508 132.808 42.9651C132.322 42.4795 131.936 41.8994 131.653 41.2249C131.369 40.5504 131.227 39.8219 131.227 39.0394C131.227 38.257 131.369 37.5353 131.653 36.8742C131.936 36.2132 132.322 35.6399 132.808 35.1542C133.295 34.6686 133.876 34.2841 134.552 34.0008C135.228 33.7175 135.971 33.5758 136.782 33.5758C137.593 33.5758 138.343 33.7175 139.032 34.0008C139.722 34.2841 140.316 34.6686 140.817 35.1542C141.317 35.6399 141.702 36.2132 141.972 36.8742C142.243 37.5353 142.378 38.257 142.378 39.0394C142.378 39.8219 142.243 40.5436 141.972 41.2046C141.702 41.8657 141.317 42.4457 140.817 42.9449C140.316 43.444 139.722 43.8353 139.032 44.1186C138.343 44.4018 137.593 44.5435 136.782 44.5435ZM165.247 53.3292C163.598 54.8941 161.368 55.6765 158.557 55.6765C157.584 55.6765 156.712 55.5753 155.941 55.373C155.171 55.1706 154.468 54.9076 153.833 54.5838C153.198 54.26 152.616 53.8823 152.089 53.4506C151.562 53.0189 151.042 52.5737 150.528 52.1151L152.758 49.7677C153.596 50.5502 154.455 51.1707 155.333 51.6294C156.212 52.0881 157.259 52.3174 158.476 52.3174C160.287 52.3174 161.693 51.8857 162.693 51.0224C163.693 50.159 164.207 48.9583 164.234 47.4204V46.2468C164.234 46.0309 164.261 45.7948 164.315 45.5385C164.369 45.2822 164.396 45.0866 164.396 44.9517C164.152 45.2755 163.848 45.6195 163.483 45.9837C163.119 46.3479 162.693 46.6717 162.206 46.955C161.72 47.2383 161.152 47.4744 160.503 47.6632C159.854 47.8521 159.124 47.9465 158.313 47.9465C157.043 47.9465 155.881 47.7172 154.826 47.2585C153.772 46.7999 152.853 46.1726 152.069 45.3766C151.285 44.5807 150.677 43.6499 150.244 42.5841C149.812 41.5184 149.596 40.365 149.596 39.1239C149.596 37.8558 149.825 36.6754 150.285 35.5826C150.744 34.4899 151.366 33.5456 152.15 32.7497C152.934 31.9537 153.853 31.3264 154.907 30.8677C155.962 30.4091 157.084 30.1797 158.273 30.1797C159.192 30.1797 160.01 30.3012 160.726 30.544C161.442 30.7868 162.044 31.0701 162.531 31.3939C163.017 31.7176 163.402 32.0347 163.686 32.3449C163.97 32.6552 164.152 32.8778 164.234 33.0127C164.234 32.635 164.261 32.237 164.315 31.8188C164.369 31.4006 164.396 31.0027 164.396 30.6249H167.721V46.7729C167.721 49.5789 166.896 51.7643 165.247 53.3292ZM158.637 44.5435C157.826 44.5435 157.083 44.4018 156.407 44.1186C155.731 43.8353 155.15 43.4508 154.664 42.9651C154.177 42.4795 153.792 41.8994 153.508 41.2249C153.224 40.5504 153.082 39.8219 153.082 39.0394C153.082 38.257 153.224 37.5353 153.508 36.8742C153.792 36.2132 154.177 35.6399 154.664 35.1542C155.15 34.6686 155.731 34.2841 156.407 34.0008C157.083 33.7175 157.826 33.5758 158.637 33.5758C159.448 33.5758 160.199 33.7175 160.888 34.0008C161.577 34.2841 162.172 34.6686 162.672 35.1542C163.172 35.6399 163.557 36.2132 163.828 36.8742C164.098 37.5353 164.233 38.257 164.233 39.0394C164.233 39.8219 164.098 40.5436 163.828 41.2046C163.557 41.8657 163.172 42.4457 162.672 42.9449C162.172 43.444 161.577 43.8353 160.888 44.1186C160.199 44.4018 159.448 44.5435 158.637 44.5435ZM184.002 47.2383C182.907 47.7105 181.711 47.9466 180.413 47.9466C179.17 47.9466 178.001 47.7307 176.906 47.299C175.811 46.8673 174.858 46.2603 174.047 45.4778C173.236 44.6954 172.594 43.7578 172.121 42.6651C171.648 41.5724 171.411 40.365 171.411 39.0429C171.411 37.8288 171.648 36.6821 172.121 35.6029C172.594 34.5236 173.236 33.5861 174.047 32.7901C174.858 31.9942 175.811 31.3601 176.906 30.888C178.001 30.4158 179.183 30.1797 180.454 30.1797C181.724 30.1797 182.907 30.4158 184.002 30.888C185.097 31.3601 186.043 31.9942 186.84 32.7901C187.638 33.5861 188.259 34.5236 188.705 35.6029C189.151 36.6821 189.375 37.8288 189.375 39.0429C189.375 40.257 189.151 41.4037 188.705 42.483C188.259 43.5622 187.638 44.5065 186.84 45.3159C186.043 46.1254 185.097 46.7661 184.002 47.2383ZM180.331 44.5435C179.575 44.5435 178.865 44.4018 178.203 44.1186C177.54 43.8353 176.959 43.444 176.459 42.9449C175.959 42.4457 175.567 41.8657 175.283 41.2046C174.999 40.5436 174.857 39.8354 174.857 39.0799C174.857 38.3244 174.999 37.6095 175.283 36.9349C175.567 36.2604 175.959 35.6736 176.459 35.1744C176.959 34.6753 177.54 34.2841 178.203 34.0008C178.865 33.7175 179.575 33.5758 180.331 33.5758C181.088 33.5758 181.805 33.7175 182.481 34.0008C183.156 34.2841 183.744 34.6753 184.244 35.1744C184.745 35.6736 185.143 36.2604 185.441 36.9349C185.738 37.6095 185.887 38.3244 185.887 39.0799C185.887 39.8354 185.738 40.5436 185.441 41.2046C185.143 41.8657 184.745 42.4457 184.244 42.9449C183.744 43.444 183.156 43.8353 182.481 44.1186C181.805 44.4018 181.088 44.5435 180.331 44.5435ZM196.511 39.1643V47.5418H193.064V30.6249H196.105C196.159 31.4613 196.207 32.2235 196.247 32.9115C196.288 33.5995 196.335 34.2808 196.389 34.9553C197.011 33.4984 197.896 32.3382 199.045 31.4748C200.194 30.6114 201.606 30.1797 203.282 30.1797C204.985 30.1797 206.351 30.6519 207.378 31.5962C208.405 32.5406 208.946 33.7547 209 35.2386V47.5418H205.513V36.817C205.459 35.9536 205.161 35.2184 204.621 34.6113C204.08 34.0043 203.228 33.6737 202.066 33.6198C201.255 33.6198 200.512 33.7614 199.836 34.0447C199.16 34.328 198.579 34.7125 198.092 35.1982C197.606 35.6838 197.22 36.2639 196.937 36.9384C196.653 37.6129 196.511 38.3549 196.511 39.1643Z" fill="#300045"/>
<path d="M70.0189 2.44734C69.8949 2.58415 69.7089 2.81216 69.6004 2.97937C68.9804 4.01303 67.5078 5.97394 65.7407 7.17481L64.7022 6.36916C66.1437 5.56352 67.6008 3.92182 68.0968 2.97937C67.0118 2.97937 60.0054 2.97937 59.2614 2.97937C58.6878 2.97937 58.1143 3.00977 57.5098 3.05537V1.6873C58.0523 1.7633 58.6878 1.8241 59.2614 1.8241C60.0054 1.8241 67.2443 1.8241 68.1743 1.8241C68.4689 1.8241 69.0269 1.7785 69.2439 1.7177L70.0189 2.44734ZM63.8186 4.43865C63.8186 8.55809 63.4466 11.3398 59.4939 13.2856L58.3623 12.3735C58.7808 12.2367 59.3234 11.9783 59.7574 11.6895C62.1445 10.2454 62.4855 8.08686 62.4855 5.54832C62.4855 5.1835 62.4855 4.84908 62.4235 4.43865H63.8186Z" fill="#300045"/>
<path d="M83.5667 1.7937C83.5667 2.35613 84.0162 2.79696 84.5897 2.79696C85.1478 2.79696 85.6128 2.35613 85.6128 1.7937C85.6128 1.24647 85.1478 0.790445 84.5897 0.790445C84.0162 0.790445 83.5667 1.24647 83.5667 1.7937ZM82.8536 1.7937C82.8536 0.851248 83.6287 0.0912049 84.5897 0.0912049C85.5508 0.0912049 86.3258 0.851248 86.3258 1.7937C86.3258 2.73616 85.5508 3.4962 84.5897 3.4962C83.6287 3.4962 82.8536 2.73616 82.8536 1.7937ZM84.2022 2.81216C84.0937 3.02497 84.0317 3.28339 83.9697 3.5722C83.6287 5.16829 82.8846 7.63084 81.6446 9.18132C80.234 10.975 78.3894 12.3735 75.5527 13.2552L74.4987 12.1151C77.5059 11.3702 79.2419 10.0782 80.544 8.45168C81.6446 7.0836 82.3576 4.95548 82.5746 3.4962C81.6756 3.4962 75.5372 3.4962 74.6382 3.4962C74.0182 3.4962 73.4911 3.5266 73.1036 3.557V2.20413C73.5221 2.24973 74.1422 2.31053 74.6537 2.31053C75.5372 2.31053 81.7221 2.31053 82.4196 2.31053C82.6676 2.31053 82.9621 2.29533 83.2567 2.21933L84.2022 2.81216Z" fill="#300045"/>
<path d="M98.6025 1.18567C98.5715 1.55049 98.556 1.99131 98.556 2.50814C98.556 3.10098 98.556 4.39305 98.556 4.95548C98.556 8.61889 98.06 9.81976 96.9284 11.1118C95.9364 12.2975 94.3863 12.9663 93.2547 13.3464L92.2317 12.2975C93.6577 11.9327 94.9753 11.3398 95.9364 10.2606C97.0369 9.01412 97.2384 7.76764 97.2384 4.90988C97.2384 4.31705 97.2384 3.04017 97.2384 2.50814C97.2384 1.99131 97.1919 1.55049 97.1454 1.18567H98.6025ZM91.4101 1.30727C91.3791 1.59609 91.3636 2.03692 91.3636 2.38654C91.3636 2.84256 91.3636 6.82519 91.3636 7.46363C91.3636 7.85885 91.3791 8.36048 91.4101 8.63409H89.9995C90.0305 8.39088 90.0615 7.90445 90.0615 7.46363C90.0615 6.80999 90.0615 2.84256 90.0615 2.38654C90.0615 2.12812 90.046 1.59609 89.9995 1.30727H91.4101Z" fill="#300045"/>
<path d="M105.981 6.67318H113.669V7.61563H105.981V6.67318ZM105.686 9.27253H113.995V10.2454H105.686V9.27253ZM110.848 6.9772H111.902V13.6504H110.848V6.9772ZM107.67 7.0228H108.678V9.78936C108.678 10.7166 108.306 12.7079 106.554 13.8632C106.399 13.6504 106.043 13.3312 105.779 13.1792C107.345 12.2367 107.67 10.6254 107.67 9.78936V7.0228ZM104.059 2.70575H108.415V3.5266H104.059V2.70575ZM111.205 2.70575H115.591V3.5266H111.205V2.70575ZM115.142 0.592833H116.289V12.4495C116.289 13.1335 116.134 13.4984 115.669 13.696C115.204 13.8936 114.429 13.9088 113.251 13.9088C113.204 13.6048 113.049 13.0727 112.879 12.7535C113.731 12.7839 114.568 12.7839 114.816 12.7687C115.064 12.7687 115.142 12.6775 115.142 12.4495V0.592833ZM104.152 0.592833H109.128V5.71553H104.152V4.84908H108.027V1.47448H104.152V0.592833ZM115.7 0.592833V1.47448H111.608V4.86428H115.7V5.73073H110.492V0.592833H115.7ZM103.454 0.592833H104.601V13.9392H103.454V0.592833Z" fill="#300045"/>
<path d="M121.079 5.35071H129.604V6.42997H121.079V5.35071ZM119.529 0.592833H124.148V1.61129H119.529V0.592833ZM119.126 8.7101H131.495V9.75896H119.126V8.7101ZM123.745 0.592833H123.962L124.179 0.547231L124.954 0.912052C123.822 3.92182 121.28 6.08035 118.754 7.19001C118.599 6.9316 118.258 6.53637 118.025 6.32356C120.35 5.39631 122.799 3.29859 123.745 0.820846V0.592833ZM122.737 5.86754H123.884V8.46688C123.884 10.5798 123.388 12.6927 119.56 14C119.405 13.7416 119.048 13.316 118.8 13.1031C122.319 11.9479 122.737 10.1694 122.737 8.45168V5.86754ZM126.566 0C127.651 2.75136 129.883 5.15309 132.642 6.20195C132.379 6.44517 132.022 6.88599 131.836 7.17481C129.015 5.94354 126.768 3.37459 125.543 0.288816L126.566 0ZM119.312 2.75136L120.056 2.12812C120.784 2.62975 121.699 3.35939 122.148 3.83062L121.373 4.51466C120.939 4.04343 120.04 3.28339 119.312 2.75136ZM129.449 0.106406L130.348 0.714441C129.558 1.48968 128.519 2.34093 127.729 2.87296L127.016 2.32573C127.791 1.7633 128.86 0.805646 129.449 0.106406ZM131.294 1.85451L132.162 2.46254C131.309 3.25299 130.193 4.11944 129.325 4.69707L128.612 4.14984C129.465 3.5722 130.627 2.56895 131.294 1.85451ZM126.597 5.89794H127.791V12.2063C127.791 12.6927 127.884 12.7839 128.426 12.7839C128.659 12.7839 129.883 12.7839 130.193 12.7839C130.689 12.7839 130.767 12.4799 130.829 10.8534C131.092 11.051 131.557 11.2486 131.883 11.3094C131.774 13.2704 131.449 13.8176 130.302 13.8176C130.007 13.8176 128.535 13.8176 128.256 13.8176C126.938 13.8176 126.597 13.468 126.597 12.2063V5.89794Z" fill="#300045"/>
<path d="M145.214 2.11292C145.214 2.67535 145.679 3.11618 146.237 3.11618C146.795 3.11618 147.26 2.67535 147.26 2.11292C147.26 1.56569 146.795 1.10966 146.237 1.10966C145.679 1.10966 145.214 1.56569 145.214 2.11292ZM144.5 2.11292C144.5 1.17047 145.276 0.410424 146.237 0.410424C147.198 0.410424 147.973 1.17047 147.973 2.11292C147.973 3.05537 147.198 3.81542 146.237 3.81542C145.276 3.81542 144.5 3.05537 144.5 2.11292ZM136.456 8.14767C137.138 6.56677 137.773 4.25624 137.99 2.50814L139.37 2.78176C139.261 3.11618 139.153 3.5722 139.075 3.89142C138.874 4.83388 138.331 7.0836 137.68 8.64929C137.107 10.0326 136.254 11.5983 135.386 12.8295L134.068 12.2823C135.045 11.0054 135.929 9.40934 136.456 8.14767ZM144.097 7.57003C143.477 6.00434 142.516 3.89142 141.85 2.75136L143.105 2.34093C143.71 3.4506 144.702 5.54832 145.369 7.14441C145.989 8.64929 146.81 10.975 147.229 12.3583L145.849 12.7839C145.462 11.2486 144.733 9.18132 144.097 7.57003Z" fill="#300045"/>
<path d="M150.158 6.12595C150.639 6.17155 151.445 6.21715 152.328 6.21715C153.46 6.21715 159.676 6.21715 160.823 6.21715C161.598 6.21715 162.14 6.15635 162.497 6.12595V7.61563C162.171 7.60043 161.52 7.55483 160.838 7.55483C159.66 7.55483 153.475 7.55483 152.328 7.55483C151.476 7.55483 150.654 7.58523 150.158 7.61563V6.12595Z" fill="#300045"/>
<path d="M169.302 11.3702C169.302 10.519 169.302 3.80022 169.302 2.53854C169.302 2.09772 169.271 1.42888 169.193 0.942453H170.712C170.65 1.41368 170.604 2.06732 170.604 2.53854C170.604 4.89468 170.619 10.6558 170.619 11.3702C170.619 11.8567 170.65 12.6775 170.712 13.1792H169.209C169.286 12.6927 169.302 11.9327 169.302 11.3702ZM170.325 4.94028C172.371 5.51792 175.502 6.68838 177.223 7.50923L176.68 8.8013C174.913 7.87405 172.014 6.79479 170.325 6.27796V4.94028Z" fill="#300045"/>
<path d="M187.112 2.46254C187.112 1.99131 187.05 1.26167 186.957 0.942453H188.507C188.461 1.26167 188.399 2.02172 188.399 2.46254C188.399 3.32899 188.399 4.74267 188.399 5.66992C188.399 9.02932 187.267 11.5071 184.105 13.2856L182.896 12.4191C185.841 11.051 187.112 8.8013 187.112 5.66992C187.112 4.75787 187.112 3.32899 187.112 2.46254ZM181.098 4.42345C181.408 4.46905 181.982 4.49946 182.54 4.49946C183.299 4.49946 191.778 4.49946 192.522 4.49946C193.049 4.49946 193.638 4.46905 193.871 4.43865V5.73073C193.638 5.71553 192.987 5.70033 192.507 5.70033C191.778 5.70033 183.299 5.70033 182.571 5.70033C181.982 5.70033 181.424 5.71553 181.098 5.74593V4.42345Z" fill="#300045"/>
<path d="M196.661 6.12595C197.141 6.17155 197.947 6.21715 198.831 6.21715C199.963 6.21715 206.178 6.21715 207.325 6.21715C208.1 6.21715 208.643 6.15635 208.999 6.12595V7.61563C208.674 7.60043 208.023 7.55483 207.341 7.55483C206.163 7.55483 199.978 7.55483 198.831 7.55483C197.978 7.55483 197.157 7.58523 196.661 7.61563V6.12595Z" fill="#300045"/>
</svg>
