<svg width="168" height="216" viewBox="0 0 168 216" fill="none" xmlns="http://www.w3.org/2000/svg">
<g clip-path="url(#clip0_4246_34809)">
<path d="M146.763 35.5308L16.1535 27.9754C13.1451 27.8289 10.4375 31.1111 10.4375 33.8672V202.05C10.4375 205.872 14.342 206.642 17.3504 206.335L146.763 193.118C149.126 192.877 151.035 190.714 151.035 188.286V40.1356C151.035 37.7074 149.126 35.6458 146.763 35.5308Z" fill="url(#paint0_linear_4246_34809)"/>
<path d="M148.911 34.195L18.0435 27.7573C15.0351 27.6093 12.5854 29.741 12.5854 32.5186V202.016C12.5854 204.793 15.0351 206.793 18.0435 206.484L148.911 193.015C151.274 192.771 153.183 190.591 153.183 188.144V38.8363C153.183 36.3895 151.274 34.3115 148.911 34.1957V34.195Z" fill="#D8DEE8"/>
<path style="mix-blend-mode:multiply" opacity="0.3" d="M18.0442 204.185C16.4213 204.349 15.0986 203.265 15.0986 201.768V32.6318C15.0986 31.1347 16.4221 29.9792 18.0442 30.0564L148.911 36.2383C150.189 36.2983 151.227 37.4245 151.227 38.7487V188.337C151.227 189.661 150.189 190.843 148.911 190.972L18.0442 204.185Z" fill="url(#paint1_linear_4246_34809)"/>
<path d="M140.476 186.959L28.5449 197.744V41.7012L140.476 45.9165V186.959Z" fill="white"/>
<g style="mix-blend-mode:multiply" opacity="0.3">
<path d="M95.7072 46.68L50.9731 47.2395L51.9764 37.1509C52.0522 35.8404 52.9997 34.7642 54.2474 34.572L61.8235 33.4079C62.7153 33.2707 63.4835 32.6812 63.8736 31.8351L64.6954 30.0508L84.511 31.2742L95.7072 46.6793V46.68Z" fill="#97A6B7"/>
</g>
<path d="M119.595 40.1354C119.383 38.9942 118.468 38.1931 117.316 38.141L110.168 37.8208C106.924 37.6758 104.546 35.0396 104.665 31.7011L104.94 23.9649C104.991 22.5343 103.97 21.3881 102.565 21.3038L100.217 21.1637C98.4261 21.0566 97.2335 19.478 97.485 17.653C97.9238 14.463 95.7386 11.7097 92.5701 11.4939C89.3773 11.2767 86.3975 13.7156 85.9223 16.9462C85.8515 17.4264 85.6893 17.9009 85.4256 18.324C84.6882 19.5073 83.3955 20.159 82.1292 20.0833L79.7068 19.9389C78.239 19.851 76.8441 20.8815 76.4725 22.3314L74.4581 30.184C73.587 33.5805 70.3006 36.0344 66.8113 35.8779L58.9701 35.5263C57.686 35.4684 56.4254 36.2173 55.8345 37.3906L51.1096 46.7661C50.7223 47.5342 51.1989 48.3632 52.0421 48.3918L120.04 50.6506C120.785 50.6756 121.416 49.9331 121.279 49.1957L119.594 40.1354H119.595ZM91.6068 18.1896C90.67 18.1317 90.0204 17.3171 90.1562 16.371C90.2927 15.4249 91.1631 14.7074 92.0992 14.7682C93.0338 14.8289 93.6798 15.6428 93.5441 16.5861C93.4083 17.5293 92.5415 18.2475 91.6061 18.1896H91.6068Z" fill="url(#paint2_linear_4246_34809)"/>
<path d="M119.998 40.3463C119.786 39.2051 118.871 38.4041 117.719 38.3519L110.571 38.0318C107.327 37.8867 104.949 35.2506 105.068 31.912L105.343 24.1759C105.394 22.7453 104.373 21.5991 102.968 21.5147L100.62 21.3747C98.8292 21.2675 97.6366 19.689 97.8881 17.8639C98.3268 14.674 96.1416 11.9207 92.9731 11.7049C89.7803 11.4876 86.8005 13.9265 86.3253 17.1572C86.2546 17.6374 86.0924 18.1119 85.8287 18.5349C85.0912 19.7183 83.7985 20.37 82.5323 20.2942L80.1098 20.1492C78.6421 20.0613 77.2472 21.0917 76.8749 22.5416L74.8604 30.3942C73.9894 33.7907 70.703 36.2446 67.2136 36.0881L59.3724 35.7365C58.0883 35.6786 56.8278 36.4275 56.2368 37.6009L51.5119 46.9763C51.1246 47.7445 51.6013 48.5734 52.4445 48.602L120.443 50.8608C121.187 50.8858 121.818 50.1434 121.681 49.4059L119.997 40.3456L119.998 40.3463ZM92.0092 18.3999C91.0723 18.342 90.4228 17.5273 90.5585 16.5812C90.695 15.6351 91.5654 14.9177 92.5015 14.9784C93.4362 15.0391 94.0822 15.8531 93.9464 16.7963C93.8106 17.7396 92.9438 18.4577 92.0084 18.3999H92.0092Z" fill="#97A6B7"/>
<g style="mix-blend-mode:soft-light" opacity="0.5">
<path d="M108.361 44.6533C102.295 40.9089 97.6413 43.5636 93.8611 39.3403C89.8144 34.8191 92.5434 28.8673 88.3567 26.059C85.6762 24.2611 83.2845 25.8467 80.1668 25.3601C79.0256 25.1822 77.8072 24.7284 76.5409 23.8438L74.8609 30.393C73.9898 33.7894 70.7034 36.2433 67.2141 36.0868L59.3729 35.7352C58.0888 35.6774 56.8283 36.4262 56.2373 37.5996L51.5124 46.975C51.1251 47.7425 51.6018 48.5721 52.445 48.6L114.241 50.6523C112.685 48.1805 110.751 46.1275 108.36 44.6519L108.361 44.6533Z" fill="white"/>
</g>
<path d="M108.898 66.2064L67.0171 65.7469V60.7227L108.898 61.3672V66.2064Z" fill="#97A6B7"/>
<path d="M66.6857 120.423L61.5557 120.613V75.3828L66.6857 75.395V120.423Z" fill="#D8DEE8"/>
<path d="M76.4738 120.059L71.4316 120.246V89.4309L76.4738 89.3809V120.059Z" fill="#D8DEE8"/>
<path d="M86.0951 119.701L81.1387 119.886V81.2851L86.0951 81.2715V119.701Z" fill="#D8DEE8"/>
<path d="M95.5537 119.351L90.6816 119.532V89.0589L95.5537 89.0117V119.351Z" fill="#D8DEE8"/>
<path d="M104.853 119.005L100.062 119.183V97.2411L104.853 97.1582V119.005Z" fill="#D8DEE8"/>
<path d="M113.998 118.665L109.287 118.84V75.5L113.998 75.5121V118.665Z" fill="#D8DEE8"/>
<path d="M122.992 118.331L118.358 118.504V105.592L122.992 105.475V118.331Z" fill="#D8DEE8"/>
<path d="M131.838 118.003L127.281 118.172V83.9657L131.838 83.9414V118.003Z" fill="#D8DEE8"/>
<path d="M131.838 136.396L42.2974 141.257V136.534L131.838 132.037V136.396Z" fill="#D8DEE8"/>
<path d="M131.838 128.057L42.2974 132.222V127.498L131.838 123.697V128.057Z" fill="#D8DEE8"/>
<path d="M131.838 170.132L42.2974 177.813V173.089L131.838 165.773V170.132Z" fill="#D8DEE8"/>
<path opacity="0.5" d="M76.6334 145.838V163.774L41.1841 166.466V147.965L76.6334 145.838Z" fill="#D8DEE8"/>
<path d="M41.1841 158.764V166.465L76.6334 163.773V149.874C74.6076 149.23 72.1708 148.957 70.3115 150.29C66.4134 153.086 66.9107 154.527 62.8454 154.061C59.6626 153.695 56.1204 153.396 53.3886 155.708C51.6957 157.141 50.8246 158.616 48.3836 158.571C46.0862 158.528 43.4093 157.097 41.1841 158.764V158.764Z" fill="#D8DEE8"/>
<path d="M131.838 145.747L84.9541 148.702V145.339L131.838 142.525V145.747Z" fill="#D8DEE8"/>
<path d="M131.838 152.57L84.9541 155.823V152.658L131.838 149.537V152.57Z" fill="#D8DEE8"/>
<path d="M131.838 159.583L84.9541 163.143V159.78L131.838 156.361V159.583Z" fill="#D8DEE8"/>
<path d="M53.2053 79.4257L42.0698 79.4357V75.1367L53.2053 75.1682V79.4257Z" fill="#D8DEE8"/>
<path d="M53.2053 89.9431L42.0698 90.0553V85.7563L53.2053 85.6855V89.9431Z" fill="#D8DEE8"/>
<path d="M53.2053 100.213L42.0698 100.425V96.1259L53.2053 95.9551V100.213Z" fill="#D8DEE8"/>
<path d="M53.2053 110.732L42.0698 111.045V106.747L53.2053 106.475V110.732Z" fill="#D8DEE8"/>
<path d="M53.2053 121L42.0698 121.413V117.114L53.2053 116.742V121Z" fill="#D8DEE8"/>
<path d="M128.64 106.754C128.954 106.395 129.412 106.801 129.369 107.298C129.327 107.794 128.798 108.267 128.34 108.126C127.882 107.985 128.216 107.235 128.639 106.753L128.64 106.754Z" fill="url(#paint3_linear_4246_34809)"/>
<path d="M102.698 211.332C102.698 211.332 96.5108 214.144 96.41 214.593C96.3093 215.041 100.389 214.442 102.055 214.507C103.72 214.572 105.09 214.079 104.939 213.374C104.789 212.669 104.205 210.895 104.205 210.895L102.698 211.333L102.698 211.332Z" fill="url(#paint4_linear_4246_34809)"/>
<path d="M102.471 209.05L102.848 211.835C102.848 211.835 103.827 212.184 104.485 211.772L104.766 208.717L102.471 209.05Z" fill="url(#paint5_linear_4246_34809)"/>
<path d="M131.607 209.117L132.327 210.273C132.528 210.596 132.588 210.984 132.492 211.353C132.24 212.314 131.738 214.186 131.518 214.675C131.22 215.34 127.216 215.734 127.216 215.734C127.216 215.734 126.859 215.232 127.69 214.625C128.521 214.019 129.056 213.923 129.35 213.027C129.643 212.132 129.838 209.599 129.838 209.599L131.607 209.118V209.117Z" fill="url(#paint6_linear_4246_34809)"/>
<path d="M128.612 206.181C128.875 206.391 130.161 210.294 130.161 210.294C130.161 210.294 130.577 210.826 131.368 210.041C132.158 209.255 131.726 209.688 131.726 209.688L131.578 205.85L128.612 206.181Z" fill="url(#paint7_linear_4246_34809)"/>
<path d="M99.0668 153.087C98.7402 161.396 98.7274 170.423 99.2054 180.068C99.7435 190.929 100.825 200.966 102.189 210.065C102.695 210.082 103.228 210.084 103.785 210.069C104.16 210.058 104.524 210.04 104.876 210.016C105.583 208.129 106.419 205.648 107.168 202.684C107.956 199.568 108.43 196.772 108.769 194.1C109.96 184.689 108.564 183.868 109.531 176.893C110.387 170.715 111.605 170.474 113.034 161.704C114.586 152.188 113.431 150.76 112.869 150.245C110.479 148.049 104.864 149.544 99.0668 153.088V153.087Z" fill="url(#paint8_linear_4246_34809)"/>
<path style="mix-blend-mode:multiply" opacity="0.3" d="M112.87 150.244C110.59 148.149 105.376 149.417 99.8687 152.613C106.204 159.458 106.895 163.898 106.135 166.779C105.277 170.036 102.667 170.973 102.677 174.534C102.689 178.909 106.638 180.068 106.554 184.699C106.499 187.761 104.764 187.729 104.353 191.51C103.868 195.984 106.136 197.526 105.401 200.837C105.085 202.261 104.183 204.122 101.616 206.039C101.801 207.399 101.991 208.745 102.189 210.065C102.696 210.08 103.228 210.083 103.785 210.068C104.16 210.058 104.524 210.039 104.876 210.015C105.583 208.128 106.419 205.647 107.168 202.683C107.956 199.567 108.43 196.771 108.769 194.099C109.96 184.687 108.564 183.866 109.531 176.891C110.387 170.714 111.605 170.473 113.034 161.703C114.586 152.186 113.431 150.759 112.869 150.244H112.87Z" fill="url(#paint9_linear_4246_34809)"/>
<path d="M102.991 152.947C108.446 160.929 114.33 170.862 119.592 182.753C123.569 191.738 126.453 200.176 128.57 207.695C128.856 207.827 129.532 208.092 130.396 207.978C131.574 207.822 132.28 207.07 132.464 206.86C133.326 201.47 133.231 196.905 132.939 193.611C132.752 191.501 132.42 187.988 131.076 183.652C129.57 178.794 128.535 178.521 126.57 173.383C124.53 168.048 125.024 166.717 123.072 160.042C122.269 157.3 120.927 153.219 118.711 148.338C113.471 149.875 108.231 151.412 102.992 152.948L102.991 152.947Z" fill="url(#paint10_linear_4246_34809)"/>
<path d="M77.1898 96.1299C77.1898 96.1299 76.1315 94.863 75.4569 93.919C74.7823 92.975 71.6717 90.3496 71.6717 90.3496C71.6717 90.3496 71.4488 90.7819 72.1205 91.4508C72.7922 92.1197 74.2006 93.2616 73.8934 93.7639C73.5861 94.2663 72.7007 94.7229 73.3674 95.6447C74.0334 96.5665 75.1425 95.9027 75.7334 96.6409C76.3237 97.379 76.9297 98.1851 76.9297 98.1851L77.1905 96.1299H77.1898Z" fill="url(#paint11_linear_4246_34809)"/>
<path d="M77.3385 94.7988C76.6325 95.6849 75.9257 96.571 75.2197 97.4571C76.123 101.364 78.0481 107.252 82.5235 112.971C87.2677 119.033 97.387 128.111 103.686 125.135C107.526 123.322 112.709 117.096 110.846 114.095C109.056 111.209 101.307 112.574 95.9843 111.372C90.7678 110.193 83.997 106.397 77.3378 94.7988H77.3385Z" fill="url(#paint12_linear_4246_34809)"/>
<path d="M125.977 117.842C125.977 117.842 130.104 131.891 127.548 137.296C124.99 142.702 116.836 136.766 116.836 136.766L125.977 117.842Z" fill="url(#paint13_linear_4246_34809)"/>
<path style="mix-blend-mode:multiply" opacity="0.3" d="M125.213 117.859C125.213 117.859 129.34 131.908 126.783 137.314C124.227 142.72 116.072 136.783 116.072 136.783L125.213 117.859Z" fill="url(#paint14_linear_4246_34809)"/>
<path d="M113.142 112.647C107.839 112.55 103.756 112.723 101.498 115.08C99.1136 117.569 101.637 120.266 101.247 126.649C100.649 136.422 94.4845 138.941 94.2329 148.848C94.1479 152.186 94.7717 154.899 95.2455 156.531C96.6468 158.2 98.9321 160.549 102.271 162.482C107.131 165.296 109.9 164.726 116.828 166.46C128.161 169.298 129.243 172.947 134.809 171.891C140.433 170.822 145.283 165.963 144.628 163.368C144.236 161.813 141.97 162.305 139.297 159.979C135.854 156.981 137.092 154.021 134.452 150.777C130.661 146.117 125.586 149.127 122.354 145.087C119.085 141 120.167 132.783 122.749 128.261C124.436 125.306 125.111 121.874 126.534 118.784C126.652 118.527 126.787 118.108 126.712 117.588C126.427 115.602 123.085 114.595 120.553 113.857C116.693 112.733 113.578 112.655 113.142 112.647Z" fill="url(#paint15_linear_4246_34809)"/>
<path d="M107.98 112.542L109.018 112.197C109.018 112.197 109.322 113.606 112.685 113.709C114.549 113.669 115.732 112.597 115.732 112.597L116.457 113.102C116.457 113.102 114.934 115.093 112.442 115.097C109.226 115.103 107.98 112.541 107.98 112.541V112.542Z" fill="url(#paint16_linear_4246_34809)"/>
<path d="M108.831 107.992C108.547 106.451 109.412 105.127 109.601 104.842C110.396 103.65 110.586 103.494 110.931 103.306L111.407 103.069C111.407 103.069 111.435 103.061 111.463 103.054C111.762 102.977 112.752 103.037 112.948 103.098C113.574 103.293 114.017 105.957 113.487 109.618C113.512 109.905 113.538 110.192 113.563 110.48C114.988 110.283 115.401 110.419 115.474 110.61C115.633 111.023 114.639 113.439 113.282 113.915C111.579 114.511 109.206 112.956 109.064 112.393C109.006 112.165 109.017 112.361 110.176 111.689C110.283 111.353 110.615 110.441 110.721 110.104C110.476 109.947 109.041 109.127 108.832 107.991L108.831 107.992Z" fill="url(#paint17_linear_4246_34809)"/>
<path d="M161.249 90.4999C154.332 86.5868 142.896 91.9513 137.718 98.5476C135.312 101.613 134.524 104.573 130.957 105.948C128.246 106.993 123.519 107.369 120.243 105.122C119.83 104.839 118.155 103.633 115.764 102.203C114.709 101.573 113.676 100.996 112.426 101.192C112.109 101.242 111.051 101.402 110.595 102.266C110.225 102.965 110.388 103.922 110.759 104.53C110.982 104.894 111.118 104.896 111.184 105.16C111.368 105.901 110.148 106.642 110.34 106.983C110.476 107.228 111.133 106.91 111.357 107.2C111.602 107.517 110.946 108.069 110.912 109.076C110.436 109.679 110.377 110.815 110.681 112.212C111.127 114.266 111.847 115.82 112.616 116.917C116.322 122.2 118.972 125.978 122.871 127.31C128.033 129.073 130.861 125.001 141.307 121.139C155.61 115.851 160.808 119.604 164.939 114.563C170.096 108.269 168.428 94.5631 161.247 90.5006L161.249 90.4999Z" fill="#26264F"/>
<g style="mix-blend-mode:multiply" opacity="0.3">
<path d="M130.826 163.503C125.494 159.96 120.667 164.013 116.898 160.891C113.794 158.321 116.339 154.97 112.98 150.445C109.297 145.484 104.187 146.753 102.97 143.045C101.711 139.214 106.761 136.613 106.887 131.293C106.951 128.578 105.732 125.042 100.863 120.801C101.126 122.349 101.395 124.234 101.248 126.649C100.65 136.422 94.4855 138.941 94.2339 148.848C94.1489 152.186 94.7727 154.899 95.2465 156.531C96.6478 158.2 98.9331 160.549 102.272 162.482C107.132 165.295 109.901 164.726 116.829 166.46C128.162 169.298 129.244 172.947 134.809 171.89C136.43 171.582 137.985 170.959 139.365 170.166C137.744 169.914 136.535 169.363 135.614 168.725C133.179 167.039 133.607 165.349 130.827 163.502L130.826 163.503Z" fill="url(#paint18_linear_4246_34809)"/>
</g>
<path d="M37.5838 67.8205C37.5838 77.9892 29.6326 85.9876 19.4704 85.676C8.8945 85.3516 0 76.2177 0 65.2873C0 54.357 8.8945 46.4222 19.4704 47.5241C29.6326 48.5824 37.5838 57.6534 37.5838 67.8213V67.8205Z" fill="url(#paint19_linear_4246_34809)"/>
<path d="M40.3299 66.9442C40.3299 77.1128 32.3787 85.1112 22.2165 84.7996C11.6406 84.4752 2.74609 75.3413 2.74609 64.411C2.74609 53.4806 11.6406 45.5458 22.2165 46.647C32.3787 47.7053 40.3299 56.7763 40.3299 66.9442Z" fill="url(#paint20_linear_4246_34809)"/>
<path d="M39.5317 66.8909C39.5317 76.6114 31.9242 84.2454 22.2157 83.931C12.1307 83.6044 3.66357 74.8878 3.66357 64.4727C3.66357 54.0575 12.1307 46.4829 22.2157 47.5162C31.9234 48.5109 39.5317 57.1703 39.5317 66.8909Z" fill="url(#paint21_linear_4246_34809)"/>
<path d="M38.9607 66.851C38.9607 76.2507 31.5997 83.6238 22.2165 83.3087C12.4816 82.9821 4.31885 74.5628 4.31885 64.5157C4.31885 54.4686 12.4823 47.1498 22.2165 48.1359C31.5997 49.0863 38.9607 57.4513 38.9607 66.851Z" fill="url(#paint22_linear_4246_34809)"/>
<path style="mix-blend-mode:multiply" opacity="0.3" d="M19.1861 69.1533C19.7521 63.5659 24.8871 61.2007 24.2168 56.0606C23.8038 52.8928 21.4028 50.2231 18.7245 48.1387C10.6003 48.9905 4.31836 55.7176 4.31836 64.5156C4.31836 74.5628 12.4818 82.9821 22.216 83.3086C23.1614 83.3401 24.0839 83.2915 24.9821 83.1736C21.1162 79.3269 18.7002 73.9532 19.1861 69.1526V69.1533Z" fill="url(#paint23_linear_4246_34809)"/>
<path d="M65.205 25.7851C65.205 37.9939 55.6588 47.5973 43.4572 47.2228C30.7596 46.8327 20.0801 35.8666 20.0801 22.7431C20.0801 9.61969 30.7596 0.0934967 43.4572 1.41549C55.6588 2.68603 65.205 13.5771 65.205 25.7851Z" fill="url(#paint24_linear_4246_34809)"/>
<path d="M68.5023 24.7324C68.5023 36.9412 58.9561 46.5445 46.7545 46.1701C34.0563 45.7799 23.3774 34.8138 23.3774 21.6904C23.3774 8.56695 34.057 -0.959238 46.7545 0.362753C58.9554 1.63329 68.5023 12.5244 68.5023 24.7324Z" fill="url(#paint25_linear_4246_34809)"/>
<path d="M67.5445 24.6682C67.5445 36.3389 58.4106 45.5042 46.7549 45.1269C34.6469 44.7346 24.4805 34.2687 24.4805 21.7648C24.4805 9.26095 34.6462 0.165654 46.7549 1.40618C58.4106 2.60026 67.5445 12.9975 67.5445 24.6682Z" fill="url(#paint26_linear_4246_34809)"/>
<path d="M66.8585 24.6221C66.8585 35.9076 58.0205 44.7599 46.7543 44.3819C35.0664 43.9896 25.2651 33.881 25.2651 21.818C25.2651 9.75505 35.0664 0.967746 46.7543 2.15182C58.0198 3.29231 66.8585 13.3366 66.8585 24.6221Z" fill="url(#paint27_linear_4246_34809)"/>
<path style="mix-blend-mode:multiply" opacity="0.3" d="M43.1166 27.385C43.7961 20.6765 49.9616 17.8367 49.157 11.6655C48.6611 7.86244 45.7784 4.65679 42.5628 2.1543C32.8086 3.17759 25.2661 11.2539 25.2661 21.8177C25.2661 33.8806 35.0674 43.9892 46.7552 44.3815C47.89 44.4194 48.9983 44.3608 50.0759 44.2193C45.434 39.6002 42.5335 33.1489 43.1173 27.385H43.1166Z" fill="url(#paint28_linear_4246_34809)"/>
<path d="M70.5227 127.133L70.3126 198.13C70.3026 201.611 67.4871 204.778 63.9599 205.139L12.0564 210.452C8.05827 210.861 4.7876 208.097 4.7876 204.351V127.933C4.78688 124.386 7.68955 121.46 11.3725 121.104C11.6076 121.082 11.8463 121.074 12.0871 121.073L64.1843 120.824C67.7244 120.807 70.5334 123.628 70.5227 127.133Z" fill="url(#paint29_linear_4246_34809)"/>
<path d="M74.2023 127.081L73.9844 197.857C73.9737 201.327 71.3225 204.469 67.8175 204.828L16.2684 210.105C12.2982 210.511 8.886 207.772 8.88672 204.039L8.89744 127.876C8.89744 124.34 11.8616 121.423 15.5195 121.07C15.7532 121.047 16.0719 121.039 16.3106 121.038L68.0533 120.791C71.5698 120.775 74.2131 123.587 74.2023 127.081Z" fill="url(#paint30_linear_4246_34809)"/>
<g style="mix-blend-mode:multiply" opacity="0.3">
<path d="M74.2023 126.981L74.1473 144.769L8.89453 146.913L8.89739 127.768C8.89739 124.317 11.7265 121.509 15.2608 121.047C15.5767 121.005 15.9825 121.04 16.3105 121.038L68.0533 120.791C71.5697 120.775 74.2137 123.486 74.203 126.981H74.2023Z" fill="url(#paint31_linear_4246_34809)"/>
<path d="M74.1644 139.301L74.1416 146.693C67.811 148.695 56.1596 150.315 42.7911 150.83C36.8864 151.057 31.1783 151.05 26.0197 150.836C19.1503 150.551 13.3493 149.903 8.89453 148.984L8.89596 141.029C10.5724 140.616 12.113 140.233 13.941 139.873C17.9141 139.088 22.6975 138.427 27.9248 137.94C32.5946 137.504 37.6632 137.21 42.8904 137.089C49.6176 136.934 55.8631 137.086 61.2318 137.479C61.6491 137.509 62.0657 137.542 62.4723 137.575C63.7564 137.68 64.9891 137.8 66.1617 137.933C66.5762 137.98 66.9849 138.028 67.3851 138.079C68.3041 138.195 69.0944 138.32 69.9305 138.453C71.534 138.706 72.9561 138.989 74.1651 139.3L74.1644 139.301Z" fill="url(#paint32_linear_4246_34809)"/>
</g>
<path d="M71.008 141.013C71.0051 142.071 70.1441 142.954 69.0822 142.987L15.5287 144.625C14.3275 144.662 13.3521 143.777 13.3521 142.649L13.3563 129.858C13.3563 128.728 14.3339 127.8 15.5358 127.786L69.1272 127.135C70.1898 127.122 71.0466 127.97 71.043 129.029L71.008 141.014V141.013Z" fill="white"/>
<path d="M69.7897 140.78C69.7876 141.448 69.2424 142.007 68.5707 142.027L15.2794 143.597C14.5205 143.619 13.9053 143.06 13.9053 142.347L13.9096 129.616C13.9096 128.903 14.5263 128.317 15.2859 128.307L68.6114 127.629C69.2831 127.62 69.8262 128.156 69.824 128.826L69.7897 140.78V140.78Z" fill="url(#paint33_linear_4246_34809)"/>
<path opacity="0.3" d="M62.4241 133.686C62.4233 134.018 62.1511 134.236 61.8152 134.241H61.7874C61.4515 134.247 61.18 134.043 61.1807 133.711L61.1871 131.243C61.1878 130.911 61.4608 130.66 61.7966 130.654H61.8245C62.1604 130.648 62.4312 130.891 62.4305 131.223L62.4241 133.686Z" fill="url(#paint34_linear_4246_34809)"/>
<path opacity="0.3" d="M67.3619 133.599C67.3612 133.929 67.0918 134.155 66.7602 134.161H66.7324C66.4001 134.166 66.1321 133.953 66.1328 133.623L66.1392 131.163C66.14 130.833 66.4101 130.575 66.7424 130.57H66.7702C67.1018 130.564 67.3698 130.813 67.3691 131.142L67.3619 133.599Z" fill="url(#paint35_linear_4246_34809)"/>
<g opacity="0.3">
<path d="M62.4099 139.206C62.4092 139.537 62.1369 139.873 61.8011 139.878H61.7732C61.4373 139.883 61.1658 139.57 61.1665 139.238L61.1729 136.7C61.1737 136.368 61.4466 136.04 61.7825 136.035H61.8104C62.1455 136.03 62.417 136.34 62.4163 136.672L62.4099 139.207V139.206Z" fill="url(#paint36_linear_4246_34809)"/>
<path d="M67.3477 139.107C67.347 139.436 67.0776 139.542 66.7461 139.804H66.7182C66.3866 139.809 66.1179 139.469 66.1187 139.139L66.1251 136.489C66.1258 136.159 66.3959 135.706 66.7282 135.701H66.7561C67.0876 135.696 67.3556 136.131 67.3549 136.461L67.3477 139.108V139.107Z" fill="url(#paint37_linear_4246_34809)"/>
</g>
<g opacity="0.3">
<path d="M66.0329 129.751C66.0329 130.081 65.8171 130.355 65.4841 130.36L63.1652 130.4C62.8301 130.405 62.7422 130.14 62.7422 129.808V129.78C62.7422 129.449 62.8608 129.176 63.196 129.172L65.5648 129.135C65.8978 129.13 66.0329 129.393 66.0329 129.723V129.751Z" fill="url(#paint38_linear_4246_34809)"/>
<path d="M66.0329 140.274C66.0329 140.604 65.8028 140.882 65.4705 140.891L63.0323 140.96C62.6979 140.97 62.4893 140.708 62.4893 140.377V140.349C62.4893 140.017 62.7208 139.743 63.0552 139.734L65.4934 139.666C65.8257 139.658 66.0322 139.916 66.0322 140.246V140.274H66.0329Z" fill="url(#paint39_linear_4246_34809)"/>
</g>
<g style="mix-blend-mode:soft-light" opacity="0.3">
<path d="M46.785 202.389C46.5735 203.573 46.224 204.771 45.7002 205.904C45.5137 206.307 45.3029 206.727 45.0721 207.156L16.2684 210.105C12.2982 210.511 8.886 207.772 8.88672 204.039L8.89744 127.767C8.89744 124.316 11.7265 121.449 15.2616 120.988C15.3473 121.013 15.4752 121.039 15.5617 121.065C19.2797 122.19 23.3293 124.288 25.7475 128.211C27.2581 130.66 28.1556 133.829 27.9548 137.94C27.9041 139.004 27.784 140.131 27.5782 141.327C27.4582 142.022 27.3389 142.732 27.2167 143.455C27.0644 144.359 26.9144 145.283 26.7686 146.223C26.5364 147.728 26.3227 149.272 26.1505 150.832C25.9861 152.327 25.8611 153.838 25.7982 155.344C25.7868 155.635 25.7768 155.927 25.7696 156.218C25.7453 157.159 25.7482 158.097 25.7825 159.027C25.8053 159.663 25.8439 160.295 25.8982 160.921C26.2055 164.445 27.0344 167.798 28.6959 170.707C29.9514 172.903 31.8408 174.574 33.8238 176.117C34.3468 176.524 34.8756 176.922 35.4023 177.319C37.2059 178.678 38.9245 180.09 40.4537 181.676C40.4916 181.715 40.5295 181.755 40.5659 181.794C41.3055 182.571 41.9994 183.391 42.6368 184.267C43.3442 185.239 43.9373 186.27 44.434 187.344C44.6255 187.757 44.8027 188.178 44.9663 188.605C45.2493 189.337 45.4923 190.088 45.7038 190.855C45.7988 191.2 45.8925 191.548 45.9811 191.903C45.9854 191.916 45.9896 191.93 45.9918 191.944C46.3505 193.347 46.6592 194.813 46.85 196.305C47.1065 198.319 47.1444 200.38 46.7857 202.391L46.785 202.389Z" fill="white"/>
</g>
<g style="mix-blend-mode:multiply">
<path d="M25.9103 159.828C25.9103 160.577 25.2686 161.216 24.4769 161.255L14.8128 161.731C14.0031 161.771 13.3457 161.188 13.3457 160.429L13.3471 156.96C13.3471 156.201 14.0053 155.556 14.8156 155.522L24.4826 155.111C25.2743 155.077 25.9146 155.657 25.9139 156.407L25.911 159.828L25.9103 159.828Z" fill="url(#paint40_linear_4246_34809)"/>
<path d="M41.5296 159.081C41.5281 159.817 40.9086 160.444 40.1447 160.482L30.8143 160.942C30.0325 160.981 29.3987 160.407 29.3994 159.661L29.403 156.253C29.4037 155.507 30.0397 154.875 30.8214 154.841L40.1547 154.445C40.9193 154.412 41.5367 154.983 41.536 155.719L41.5303 159.082L41.5296 159.081Z" fill="url(#paint41_linear_4246_34809)"/>
<path d="M56.1152 158.384C56.1137 159.108 55.5135 159.725 54.7746 159.761L45.7501 160.206C44.994 160.243 44.3816 159.678 44.3823 158.944L44.388 155.593C44.3895 154.859 45.004 154.237 45.7608 154.205L54.7875 153.822C55.5271 153.79 56.1245 154.352 56.1223 155.076L56.1152 158.384V158.384Z" fill="url(#paint42_linear_4246_34809)"/>
<path d="M70.7155 157.687C70.7134 158.399 70.1332 159.005 69.4186 159.04L60.6956 159.47C59.9653 159.506 59.3729 158.951 59.375 158.229L59.3829 154.934C59.3843 154.212 59.9796 153.602 60.7099 153.571L69.435 153.2C70.1503 153.17 70.727 153.723 70.7248 154.435L70.7155 157.687Z" fill="url(#paint43_linear_4246_34809)"/>
<path d="M25.9007 170.812C25.9007 171.561 25.259 172.207 24.468 172.255L14.8081 172.849C13.9985 172.899 13.3418 172.324 13.3418 171.566L13.3432 168.101C13.3432 167.342 14.0014 166.69 14.811 166.646L24.473 166.118C25.264 166.074 25.9043 166.646 25.9036 167.395L25.9007 170.813V170.812Z" fill="url(#paint44_linear_4246_34809)"/>
<path d="M41.5126 169.876C41.5112 170.612 40.8924 171.246 40.1285 171.293L30.8024 171.866C30.0213 171.914 29.3875 171.348 29.3882 170.603L29.3918 167.198C29.3925 166.452 30.0277 165.813 30.8095 165.77L40.1385 165.26C40.9024 165.219 41.5205 165.781 41.5191 166.517L41.5133 169.875L41.5126 169.876Z" fill="url(#paint45_linear_4246_34809)"/>
<path d="M56.0909 169.002C56.0895 169.725 55.4899 170.348 54.751 170.394L45.7308 170.948C44.9755 170.995 44.3623 170.438 44.3638 169.705L44.3695 166.357C44.3709 165.624 44.9855 164.996 45.7415 164.954L54.7639 164.461C55.5028 164.42 56.1002 164.975 56.0988 165.699L56.0916 169.002L56.0909 169.002Z" fill="url(#paint46_linear_4246_34809)"/>
<path d="M70.6851 168.128C70.683 168.839 70.1028 169.451 69.3889 169.495L60.6695 170.031C59.9392 170.076 59.3475 169.528 59.3496 168.808L59.3575 165.517C59.3589 164.795 59.9534 164.179 60.6845 164.139L69.406 163.662C70.1206 163.623 70.6973 164.168 70.6952 164.88L70.6859 168.128L70.6851 168.128Z" fill="url(#paint47_linear_4246_34809)"/>
<path d="M25.8909 181.53C25.8909 182.278 25.2499 182.931 24.4588 182.989L14.804 183.697C13.9951 183.756 13.3384 183.19 13.3384 182.432L13.3398 178.97C13.3398 178.212 13.9972 177.553 14.8069 177.499L24.4645 176.857C25.2556 176.804 25.8951 177.368 25.8944 178.116L25.8916 181.53H25.8909Z" fill="url(#paint48_linear_4246_34809)"/>
<path d="M41.4952 180.411C41.4938 181.145 40.8749 181.786 40.1117 181.843L30.7899 182.526C30.0089 182.583 29.375 182.026 29.3765 181.281L29.38 177.879C29.3808 177.134 30.016 176.488 30.7971 176.436L40.1218 175.816C40.8856 175.765 41.5031 176.32 41.5016 177.055L41.4959 180.411H41.4952Z" fill="url(#paint49_linear_4246_34809)"/>
<path d="M56.0673 179.362C56.0659 180.085 55.4664 180.715 54.7275 180.769L45.7115 181.429C44.9562 181.485 44.3438 180.936 44.3452 180.204L44.3509 176.859C44.3524 176.127 44.9669 175.491 45.7222 175.441L54.7411 174.841C55.4799 174.792 56.0766 175.338 56.0752 176.061L56.0681 179.362H56.0673Z" fill="url(#paint50_linear_4246_34809)"/>
<path d="M70.6548 178.316C70.6526 179.027 70.0731 179.645 69.3585 179.697L60.6434 180.336C59.913 180.39 59.3221 179.849 59.3242 179.129L59.3321 175.84C59.3335 175.12 59.9281 174.497 60.6584 174.448L69.3756 173.868C70.0902 173.82 70.6662 174.358 70.6648 175.069L70.6555 178.315L70.6548 178.316Z" fill="url(#paint51_linear_4246_34809)"/>
<path d="M25.8817 191.984C25.8817 192.73 25.2407 193.391 24.4504 193.458L14.7999 194.277C13.991 194.345 13.335 193.787 13.335 193.03L13.3364 189.571C13.3364 188.814 13.9938 188.148 14.8027 188.085L24.4561 187.331C25.2465 187.269 25.886 187.825 25.8853 188.572L25.8824 191.984H25.8817Z" fill="url(#paint52_linear_4246_34809)"/>
<path d="M41.4792 190.683C41.4778 191.417 40.8589 192.064 40.0957 192.129L30.7782 192.92C29.9979 192.987 29.364 192.437 29.3647 191.693L29.3683 188.295C29.369 187.55 30.0036 186.897 30.7846 186.836L40.105 186.108C40.8682 186.049 41.4856 186.595 41.4842 187.33L41.4785 190.683H41.4792Z" fill="url(#paint53_linear_4246_34809)"/>
<path d="M56.0443 189.468C56.0428 190.191 55.4433 190.827 54.7051 190.889L45.6927 191.654C44.9381 191.719 44.3257 191.177 44.3272 190.445L44.3329 187.103C44.3343 186.371 44.9481 185.73 45.7035 185.671L54.718 184.967C55.4569 184.909 56.0529 185.448 56.0514 186.171L56.0443 189.468Z" fill="url(#paint54_linear_4246_34809)"/>
<path d="M25.8709 203.19C25.8709 203.936 25.2306 204.603 24.4403 204.679L14.7948 205.618C13.9866 205.696 13.3306 205.147 13.3306 204.39L13.332 200.935C13.332 200.178 13.9887 199.505 14.7976 199.432L24.446 198.559C25.2363 198.488 25.8752 199.035 25.8745 199.781L25.8716 203.189L25.8709 203.19Z" fill="url(#paint55_linear_4246_34809)"/>
<path d="M41.4613 201.697C41.4598 202.43 40.8417 203.085 40.0785 203.159L30.7653 204.065C29.985 204.141 29.3518 203.6 29.3525 202.857L29.3561 199.462C29.3568 198.718 29.9914 198.058 30.7717 197.988L40.0871 197.145C40.8503 197.075 41.467 197.614 41.4655 198.348L41.4598 201.697H41.4613Z" fill="url(#paint56_linear_4246_34809)"/>
<path d="M56.02 200.302C56.0186 201.024 55.4197 201.666 54.6816 201.738L45.6735 202.615C44.9189 202.689 44.3072 202.156 44.3086 201.425L44.3143 198.086C44.3157 197.355 44.9296 196.706 45.6842 196.638L54.6944 195.822C55.4326 195.755 56.0286 196.287 56.0271 197.008L56.02 200.302Z" fill="url(#paint57_linear_4246_34809)"/>
<path d="M69.3034 183.827L60.5883 184.508C59.8587 184.565 59.3085 185.389 59.307 186.11L59.3027 187.96L59.2992 189.505L59.282 196.482L59.277 198.534L59.2734 199.875C59.272 200.594 59.8172 201.239 60.5468 201.167L69.2555 200.32C69.9694 200.251 70.5925 199.501 70.5947 198.791L70.5983 197.468L70.604 195.442L70.624 188.556L70.6283 187.031L70.6333 185.205C70.6354 184.495 70.0159 183.772 69.302 183.827H69.3034Z" fill="url(#paint58_linear_4246_34809)"/>
</g>
<path d="M26.4488 159.803C26.4488 160.552 25.8078 161.19 25.0175 161.229L15.3648 161.705C14.5559 161.745 13.8992 161.162 13.8999 160.403L13.9013 156.936C13.9013 156.177 14.5588 155.534 15.3677 155.499L25.0232 155.089C25.8143 155.056 26.4531 155.636 26.4524 156.385L26.4495 159.804L26.4488 159.803Z" fill="url(#paint59_linear_4246_34809)"/>
<path d="M41.5296 159.081C41.5281 159.817 40.9086 160.444 40.1447 160.482L30.8143 160.942C30.0325 160.981 29.3987 160.407 29.3994 159.661L29.403 156.253C29.4037 155.507 30.0397 154.875 30.8214 154.841L40.1547 154.445C40.9193 154.412 41.5367 154.983 41.536 155.719L41.5303 159.082L41.5296 159.081Z" fill="url(#paint60_linear_4246_34809)"/>
<path d="M56.618 158.361C56.6165 159.085 56.017 159.701 55.2788 159.737L46.265 160.182C45.5097 160.219 44.898 159.655 44.8994 158.921L44.9051 155.572C44.9066 154.838 45.5204 154.217 46.2757 154.185L55.2917 153.802C56.0306 153.771 56.6273 154.332 56.6251 155.056L56.6173 158.361H56.618Z" fill="url(#paint61_linear_4246_34809)"/>
<path d="M71.2017 157.663C71.1996 158.375 70.62 158.98 69.9061 159.015L61.1932 159.444C60.4636 159.48 59.8726 158.925 59.874 158.204L59.8819 154.911C59.8833 154.19 60.4779 153.58 61.2074 153.549L69.9226 153.179C70.6365 153.149 71.2131 153.701 71.211 154.413L71.2017 157.663Z" fill="url(#paint62_linear_4246_34809)"/>
<path d="M26.4392 170.779C26.4392 171.528 25.7982 172.173 25.0086 172.222L15.3602 172.815C14.552 172.865 13.8953 172.29 13.896 171.532L13.8974 168.069C13.8974 167.31 14.5548 166.659 15.363 166.616L25.0136 166.088C25.8039 166.045 26.4428 166.617 26.442 167.365L26.4392 170.781V170.779Z" fill="url(#paint63_linear_4246_34809)"/>
<path d="M41.5126 169.876C41.5112 170.612 40.8924 171.246 40.1285 171.293L30.8024 171.866C30.0213 171.914 29.3875 171.348 29.3882 170.603L29.3918 167.198C29.3925 166.452 30.0277 165.813 30.8095 165.77L40.1385 165.26C40.9024 165.219 41.5205 165.781 41.5191 166.517L41.5133 169.875L41.5126 169.876Z" fill="url(#paint64_linear_4246_34809)"/>
<path d="M56.5937 168.972C56.5923 169.695 55.9934 170.318 55.2553 170.363L46.2457 170.917C45.4911 170.964 44.8794 170.407 44.8809 169.674L44.8866 166.328C44.888 165.595 45.5018 164.967 46.2572 164.926L55.2696 164.434C56.0077 164.394 56.6044 164.947 56.6023 165.671L56.5944 168.973L56.5937 168.972Z" fill="url(#paint65_linear_4246_34809)"/>
<path d="M71.1708 168.098C71.1687 168.809 70.5891 169.42 69.876 169.464L61.1666 169.999C60.437 170.044 59.846 169.497 59.8482 168.776L59.856 165.486C59.8574 164.765 60.4513 164.149 61.1809 164.109L69.8924 163.633C70.6063 163.594 71.1823 164.139 71.1801 164.85L71.1708 168.097V168.098Z" fill="url(#paint66_linear_4246_34809)"/>
<path d="M26.4288 181.491C26.4288 182.239 25.7886 182.891 24.999 182.949L15.3556 183.656C14.5474 183.715 13.8914 183.149 13.8921 182.391L13.8935 178.931C13.8935 178.173 14.5502 177.515 15.3584 177.462L25.0047 176.82C25.795 176.767 26.4331 177.331 26.4331 178.078L26.4303 181.491H26.4288Z" fill="url(#paint67_linear_4246_34809)"/>
<path d="M41.4952 180.411C41.4938 181.145 40.8749 181.786 40.1117 181.843L30.7899 182.526C30.0089 182.583 29.375 182.026 29.3765 181.281L29.38 177.879C29.3808 177.134 30.016 176.488 30.7971 176.436L40.1218 175.816C40.8856 175.765 41.5031 176.32 41.5016 177.055L41.4959 180.411H41.4952Z" fill="url(#paint68_linear_4246_34809)"/>
<path d="M56.5704 179.327C56.5689 180.049 55.9701 180.679 55.2327 180.732L46.2267 181.393C45.4721 181.448 44.8611 180.9 44.8618 180.167L44.8675 176.824C44.869 176.092 45.4828 175.457 46.2374 175.407L55.2455 174.808C55.9837 174.758 56.5797 175.304 56.5782 176.028L56.5704 179.326V179.327Z" fill="url(#paint69_linear_4246_34809)"/>
<path d="M71.1407 178.28C71.1385 178.99 70.5597 179.608 69.8458 179.66L61.14 180.298C60.4111 180.352 59.8201 179.812 59.8223 179.092L59.8301 175.806C59.8316 175.086 60.4254 174.463 61.155 174.414L69.863 173.835C70.5768 173.788 71.1521 174.325 71.1499 175.035L71.1407 178.28Z" fill="url(#paint70_linear_4246_34809)"/>
<path d="M26.419 191.938C26.419 192.685 25.7787 193.344 24.9891 193.411L15.35 194.229C14.5425 194.298 13.8865 193.74 13.8872 192.983L13.8886 189.527C13.8886 188.769 14.5453 188.105 15.3528 188.041L24.9941 187.288C25.7837 187.226 26.4225 187.782 26.4218 188.528L26.419 191.938V191.938Z" fill="url(#paint71_linear_4246_34809)"/>
<path d="M41.4787 190.683C41.4773 191.417 40.8584 192.064 40.0952 192.129L30.7777 192.92C29.9974 192.987 29.3635 192.437 29.3643 191.693L29.3678 188.295C29.3685 187.55 30.0031 186.897 30.7841 186.836L40.1045 186.108C40.8677 186.049 41.4851 186.595 41.4837 187.33L41.478 190.683H41.4787Z" fill="url(#paint72_linear_4246_34809)"/>
<path d="M56.5468 189.427C56.5454 190.149 55.9466 190.785 55.2091 190.847L46.2074 191.611C45.4535 191.675 44.8418 191.134 44.8433 190.403L44.849 187.063C44.8504 186.331 45.4635 185.69 46.2181 185.631L55.2227 184.928C55.9601 184.87 56.5561 185.409 56.5547 186.131L56.5468 189.426V189.427Z" fill="url(#paint73_linear_4246_34809)"/>
<path d="M26.4091 203.14C26.4091 203.886 25.7696 204.553 24.9799 204.629L15.3458 205.567C14.5384 205.645 13.8831 205.096 13.8838 204.34L13.8852 200.887C13.8852 200.131 14.5412 199.458 15.3487 199.385L24.9857 198.512C25.7746 198.441 26.4134 198.988 26.4127 199.734L26.4098 203.14H26.4091Z" fill="url(#paint74_linear_4246_34809)"/>
<path d="M41.4613 201.697C41.4598 202.43 40.8417 203.085 40.0785 203.159L30.7653 204.065C29.985 204.141 29.3518 203.6 29.3525 202.857L29.3561 199.462C29.3568 198.718 29.9914 198.058 30.7717 197.988L40.0871 197.145C40.8503 197.075 41.467 197.614 41.4655 198.348L41.4598 201.697H41.4613Z" fill="url(#paint75_linear_4246_34809)"/>
<path d="M56.5225 200.255C56.5211 200.976 55.923 201.618 55.1855 201.69L46.1881 202.565C45.4343 202.639 44.8233 202.106 44.8247 201.375L44.8304 198.039C44.8319 197.308 45.445 196.66 46.1989 196.592L55.1991 195.777C55.9366 195.711 56.5318 196.241 56.5304 196.963L56.5225 200.255V200.255Z" fill="url(#paint76_linear_4246_34809)"/>
<path d="M69.8086 183.788L61.1042 184.468C60.3754 184.526 59.808 185.351 59.8065 186.07L59.8023 187.919L59.7987 189.463L59.7815 196.436L59.7765 198.487L59.773 199.826C59.7715 200.545 60.3339 201.188 61.0628 201.117L69.7615 200.271C70.4739 200.202 71.0792 199.454 71.0813 198.745L71.0849 197.423L71.0906 195.398L71.1106 188.516L71.1149 186.992L71.1206 185.166C71.1228 184.456 70.5218 183.732 69.8079 183.788H69.8086Z" fill="url(#paint77_linear_4246_34809)"/>
</g>
<defs>
<linearGradient id="paint0_linear_4246_34809" x1="10.4382" y1="117.183" x2="151.035" y2="117.183" gradientUnits="userSpaceOnUse">
<stop stop-color="#444B8C"/>
<stop offset="1" stop-color="#26264F"/>
</linearGradient>
<linearGradient id="paint1_linear_4246_34809" x1="15.0979" y1="117.127" x2="151.226" y2="117.127" gradientUnits="userSpaceOnUse">
<stop stop-color="#E38DDD"/>
<stop offset="1" stop-color="#9571F6"/>
</linearGradient>
<linearGradient id="paint2_linear_4246_34809" x1="50.9738" y1="31.0658" x2="121.298" y2="31.0658" gradientUnits="userSpaceOnUse">
<stop stop-color="#444B8C"/>
<stop offset="1" stop-color="#26264F"/>
</linearGradient>
<linearGradient id="paint3_linear_4246_34809" x1="128.772" y1="104.977" x2="128.736" y2="114.283" gradientUnits="userSpaceOnUse">
<stop stop-color="#AB316D"/>
<stop offset="1" stop-color="#792D3D"/>
</linearGradient>
<linearGradient id="paint4_linear_4246_34809" x1="99.7" y1="201.576" x2="101.237" y2="221.138" gradientUnits="userSpaceOnUse">
<stop stop-color="#26264F"/>
<stop offset="1" stop-color="#444B8C"/>
</linearGradient>
<linearGradient id="paint5_linear_4246_34809" x1="103.668" y1="212.466" x2="103.389" y2="192.207" gradientUnits="userSpaceOnUse">
<stop stop-color="#AB316D"/>
<stop offset="1" stop-color="#792D3D"/>
</linearGradient>
<linearGradient id="paint6_linear_4246_34809" x1="128.745" y1="199.295" x2="130.282" y2="218.856" gradientUnits="userSpaceOnUse">
<stop stop-color="#26264F"/>
<stop offset="1" stop-color="#444B8C"/>
</linearGradient>
<linearGradient id="paint7_linear_4246_34809" x1="130.287" y1="212.1" x2="130.007" y2="191.84" gradientUnits="userSpaceOnUse">
<stop stop-color="#AB316D"/>
<stop offset="1" stop-color="#792D3D"/>
</linearGradient>
<linearGradient id="paint8_linear_4246_34809" x1="98.8324" y1="179.647" x2="113.812" y2="179.647" gradientUnits="userSpaceOnUse">
<stop stop-color="#311944"/>
<stop offset="1" stop-color="#6B3976"/>
</linearGradient>
<linearGradient id="paint9_linear_4246_34809" x1="99.8687" y1="179.647" x2="113.812" y2="179.647" gradientUnits="userSpaceOnUse">
<stop stop-color="#26264F"/>
<stop offset="1" stop-color="#444B8C"/>
</linearGradient>
<linearGradient id="paint10_linear_4246_34809" x1="102.991" y1="178.171" x2="133.147" y2="178.171" gradientUnits="userSpaceOnUse">
<stop stop-color="#311944"/>
<stop offset="1" stop-color="#6B3976"/>
</linearGradient>
<linearGradient id="paint11_linear_4246_34809" x1="72.7616" y1="88.9534" x2="81.5709" y2="113.577" gradientUnits="userSpaceOnUse">
<stop stop-color="#AB316D"/>
<stop offset="1" stop-color="#792D3D"/>
</linearGradient>
<linearGradient id="paint12_linear_4246_34809" x1="94.1076" y1="109.676" x2="109.529" y2="168.002" gradientUnits="userSpaceOnUse">
<stop stop-color="#AA80F9"/>
<stop offset="1" stop-color="#6165D7"/>
</linearGradient>
<linearGradient id="paint13_linear_4246_34809" x1="116.661" y1="128.879" x2="128.305" y2="128.625" gradientUnits="userSpaceOnUse">
<stop stop-color="#AA80F9"/>
<stop offset="1" stop-color="#6165D7"/>
</linearGradient>
<linearGradient id="paint14_linear_4246_34809" x1="115.897" y1="128.897" x2="127.541" y2="128.643" gradientUnits="userSpaceOnUse">
<stop stop-color="#AA80F9"/>
<stop offset="1" stop-color="#6165D7"/>
</linearGradient>
<linearGradient id="paint15_linear_4246_34809" x1="105.82" y1="106.579" x2="121.241" y2="164.905" gradientUnits="userSpaceOnUse">
<stop stop-color="#AA80F9"/>
<stop offset="1" stop-color="#6165D7"/>
</linearGradient>
<linearGradient id="paint16_linear_4246_34809" x1="109.156" y1="108.194" x2="113.915" y2="115.403" gradientUnits="userSpaceOnUse">
<stop stop-color="#FF9085"/>
<stop offset="1" stop-color="#FB6FBB"/>
</linearGradient>
<linearGradient id="paint17_linear_4246_34809" x1="112.948" y1="105.62" x2="110.49" y2="115.561" gradientUnits="userSpaceOnUse">
<stop stop-color="#AB316D"/>
<stop offset="1" stop-color="#792D3D"/>
</linearGradient>
<linearGradient id="paint18_linear_4246_34809" x1="102.52" y1="107.452" x2="117.941" y2="165.779" gradientUnits="userSpaceOnUse">
<stop stop-color="#AA80F9"/>
<stop offset="1" stop-color="#6165D7"/>
</linearGradient>
<linearGradient id="paint19_linear_4246_34809" x1="12.351" y1="68.6159" x2="-9.56764" y2="75.6496" gradientUnits="userSpaceOnUse">
<stop stop-color="#FCB148"/>
<stop offset="0.05" stop-color="#FDB946"/>
<stop offset="0.14" stop-color="#FEC144"/>
<stop offset="0.32" stop-color="#FFC444"/>
<stop offset="0.48" stop-color="#FDB946"/>
<stop offset="0.78" stop-color="#F99C4C"/>
<stop offset="0.87" stop-color="#F8924F"/>
<stop offset="1" stop-color="#F8924F"/>
</linearGradient>
<linearGradient id="paint20_linear_4246_34809" x1="30.0813" y1="46.7985" x2="10.5137" y2="89.9683" gradientUnits="userSpaceOnUse">
<stop stop-color="#FFDB44"/>
<stop offset="1" stop-color="#FEEF06"/>
</linearGradient>
<linearGradient id="paint21_linear_4246_34809" x1="26.4818" y1="92.3817" x2="22.7067" y2="71.7558" gradientUnits="userSpaceOnUse">
<stop stop-color="#FCB148"/>
<stop offset="0.05" stop-color="#FDB946"/>
<stop offset="0.14" stop-color="#FEC144"/>
<stop offset="0.32" stop-color="#FFC444"/>
<stop offset="0.48" stop-color="#FDB946"/>
<stop offset="0.78" stop-color="#F99C4C"/>
<stop offset="0.87" stop-color="#F8924F"/>
<stop offset="1" stop-color="#F8924F"/>
</linearGradient>
<linearGradient id="paint22_linear_4246_34809" x1="18.477" y1="58.9948" x2="34.0365" y2="92.0253" gradientUnits="userSpaceOnUse">
<stop stop-color="#FCB148"/>
<stop offset="0.05" stop-color="#FDB946"/>
<stop offset="0.14" stop-color="#FEC144"/>
<stop offset="0.32" stop-color="#FFC444"/>
<stop offset="0.48" stop-color="#FDB946"/>
<stop offset="0.78" stop-color="#F99C4C"/>
<stop offset="0.87" stop-color="#F8924F"/>
<stop offset="1" stop-color="#F8924F"/>
</linearGradient>
<linearGradient id="paint23_linear_4246_34809" x1="13.8996" y1="61.1328" x2="29.4276" y2="94.0961" gradientUnits="userSpaceOnUse">
<stop stop-color="#FCB148"/>
<stop offset="0.05" stop-color="#FDB946"/>
<stop offset="0.14" stop-color="#FEC144"/>
<stop offset="0.32" stop-color="#FFC444"/>
<stop offset="0.48" stop-color="#FDB946"/>
<stop offset="0.78" stop-color="#F99C4C"/>
<stop offset="0.87" stop-color="#F8924F"/>
<stop offset="1" stop-color="#F8924F"/>
</linearGradient>
<linearGradient id="paint24_linear_4246_34809" x1="34.9092" y1="26.7398" x2="8.59305" y2="35.1856" gradientUnits="userSpaceOnUse">
<stop stop-color="#FCB148"/>
<stop offset="0.05" stop-color="#FDB946"/>
<stop offset="0.14" stop-color="#FEC144"/>
<stop offset="0.32" stop-color="#FFC444"/>
<stop offset="0.48" stop-color="#FDB946"/>
<stop offset="0.78" stop-color="#F99C4C"/>
<stop offset="0.87" stop-color="#F8924F"/>
<stop offset="1" stop-color="#F8924F"/>
</linearGradient>
<linearGradient id="paint25_linear_4246_34809" x1="56.1978" y1="0.54426" x2="32.7043" y2="52.3763" gradientUnits="userSpaceOnUse">
<stop stop-color="#FFDB44"/>
<stop offset="1" stop-color="#FEEF06"/>
</linearGradient>
<linearGradient id="paint26_linear_4246_34809" x1="51.8757" y1="55.2727" x2="47.343" y2="30.5086" gradientUnits="userSpaceOnUse">
<stop stop-color="#FCB148"/>
<stop offset="0.05" stop-color="#FDB946"/>
<stop offset="0.14" stop-color="#FEC144"/>
<stop offset="0.32" stop-color="#FFC444"/>
<stop offset="0.48" stop-color="#FDB946"/>
<stop offset="0.78" stop-color="#F99C4C"/>
<stop offset="0.87" stop-color="#F8924F"/>
<stop offset="1" stop-color="#F8924F"/>
</linearGradient>
<linearGradient id="paint27_linear_4246_34809" x1="42.2645" y1="15.1895" x2="60.9467" y2="54.8471" gradientUnits="userSpaceOnUse">
<stop stop-color="#FCB148"/>
<stop offset="0.05" stop-color="#FDB946"/>
<stop offset="0.14" stop-color="#FEC144"/>
<stop offset="0.32" stop-color="#FFC444"/>
<stop offset="0.48" stop-color="#FDB946"/>
<stop offset="0.78" stop-color="#F99C4C"/>
<stop offset="0.87" stop-color="#F8924F"/>
<stop offset="1" stop-color="#F8924F"/>
</linearGradient>
<linearGradient id="paint28_linear_4246_34809" x1="36.7689" y1="17.7552" x2="55.4132" y2="57.3328" gradientUnits="userSpaceOnUse">
<stop stop-color="#FCB148"/>
<stop offset="0.05" stop-color="#FDB946"/>
<stop offset="0.14" stop-color="#FEC144"/>
<stop offset="0.32" stop-color="#FFC444"/>
<stop offset="0.48" stop-color="#FDB946"/>
<stop offset="0.78" stop-color="#F99C4C"/>
<stop offset="0.87" stop-color="#F8924F"/>
<stop offset="1" stop-color="#F8924F"/>
</linearGradient>
<linearGradient id="paint29_linear_4246_34809" x1="35.5278" y1="313.455" x2="37.1449" y2="193.146" gradientUnits="userSpaceOnUse">
<stop stop-color="#444B8C"/>
<stop offset="1" stop-color="#26264F"/>
</linearGradient>
<linearGradient id="paint30_linear_4246_34809" x1="39.4268" y1="312.743" x2="41.0382" y2="192.857" gradientUnits="userSpaceOnUse">
<stop stop-color="#AA80F9"/>
<stop offset="1" stop-color="#6165D7"/>
</linearGradient>
<linearGradient id="paint31_linear_4246_34809" x1="8.89525" y1="133.852" x2="74.203" y2="133.852" gradientUnits="userSpaceOnUse">
<stop stop-color="#AA80F9"/>
<stop offset="1" stop-color="#6165D7"/>
</linearGradient>
<linearGradient id="paint32_linear_4246_34809" x1="8.89453" y1="144.014" x2="74.1644" y2="144.014" gradientUnits="userSpaceOnUse">
<stop stop-color="#AA80F9"/>
<stop offset="1" stop-color="#6165D7"/>
</linearGradient>
<linearGradient id="paint33_linear_4246_34809" x1="42.6146" y1="117.773" x2="38.1956" y2="218.519" gradientUnits="userSpaceOnUse">
<stop stop-color="#E38DDD"/>
<stop offset="1" stop-color="#9571F6"/>
</linearGradient>
<linearGradient id="paint34_linear_4246_34809" x1="61.9596" y1="128.95" x2="61.0928" y2="148.709" gradientUnits="userSpaceOnUse">
<stop stop-color="#311944"/>
<stop offset="1" stop-color="#A03976"/>
</linearGradient>
<linearGradient id="paint35_linear_4246_34809" x1="66.9053" y1="128.863" x2="66.0378" y2="148.642" gradientUnits="userSpaceOnUse">
<stop stop-color="#311944"/>
<stop offset="1" stop-color="#A03976"/>
</linearGradient>
<linearGradient id="paint36_linear_4246_34809" x1="61.9554" y1="134.209" x2="61.0279" y2="155.373" gradientUnits="userSpaceOnUse">
<stop stop-color="#311944"/>
<stop offset="1" stop-color="#A03976"/>
</linearGradient>
<linearGradient id="paint37_linear_4246_34809" x1="66.914" y1="133.752" x2="65.9229" y2="156.346" gradientUnits="userSpaceOnUse">
<stop stop-color="#311944"/>
<stop offset="1" stop-color="#A03976"/>
</linearGradient>
<linearGradient id="paint38_linear_4246_34809" x1="67.5928" y1="129.909" x2="49.4887" y2="129.115" gradientUnits="userSpaceOnUse">
<stop stop-color="#311944"/>
<stop offset="1" stop-color="#A03976"/>
</linearGradient>
<linearGradient id="paint39_linear_4246_34809" x1="67.7108" y1="140.464" x2="48.2289" y2="139.61" gradientUnits="userSpaceOnUse">
<stop stop-color="#311944"/>
<stop offset="1" stop-color="#A03976"/>
</linearGradient>
<linearGradient id="paint40_linear_4246_34809" x1="75.6022" y1="127.255" x2="-27.5352" y2="184.629" gradientUnits="userSpaceOnUse">
<stop stop-color="#444B8C"/>
<stop offset="1" stop-color="#3E4177"/>
</linearGradient>
<linearGradient id="paint41_linear_4246_34809" x1="77.81" y1="134.11" x2="-22.0925" y2="189.685" gradientUnits="userSpaceOnUse">
<stop stop-color="#444B8C"/>
<stop offset="1" stop-color="#3E4177"/>
</linearGradient>
<linearGradient id="paint42_linear_4246_34809" x1="79.8153" y1="140.542" x2="-17.1153" y2="194.463" gradientUnits="userSpaceOnUse">
<stop stop-color="#444B8C"/>
<stop offset="1" stop-color="#3E4177"/>
</linearGradient>
<linearGradient id="paint43_linear_4246_34809" x1="82.5463" y1="146.576" x2="-11.4551" y2="198.868" gradientUnits="userSpaceOnUse">
<stop stop-color="#444B8C"/>
<stop offset="1" stop-color="#3E4177"/>
</linearGradient>
<linearGradient id="paint44_linear_4246_34809" x1="80.8255" y1="135.407" x2="-22.815" y2="193.062" gradientUnits="userSpaceOnUse">
<stop stop-color="#444B8C"/>
<stop offset="1" stop-color="#3E4177"/>
</linearGradient>
<linearGradient id="paint45_linear_4246_34809" x1="82.8045" y1="142.194" x2="-17.5861" y2="198.041" gradientUnits="userSpaceOnUse">
<stop stop-color="#444B8C"/>
<stop offset="1" stop-color="#3E4177"/>
</linearGradient>
<linearGradient id="paint46_linear_4246_34809" x1="84.5966" y1="148.56" x2="-12.8062" y2="202.745" gradientUnits="userSpaceOnUse">
<stop stop-color="#444B8C"/>
<stop offset="1" stop-color="#3E4177"/>
</linearGradient>
<linearGradient id="paint47_linear_4246_34809" x1="87.1221" y1="154.526" x2="-7.3366" y2="207.073" gradientUnits="userSpaceOnUse">
<stop stop-color="#444B8C"/>
<stop offset="1" stop-color="#3E4177"/>
</linearGradient>
<linearGradient id="paint48_linear_4246_34809" x1="86.09" y1="143.27" x2="-18.0421" y2="201.197" gradientUnits="userSpaceOnUse">
<stop stop-color="#444B8C"/>
<stop offset="1" stop-color="#3E4177"/>
</linearGradient>
<linearGradient id="paint49_linear_4246_34809" x1="87.8385" y1="149.993" x2="-13.0273" y2="206.104" gradientUnits="userSpaceOnUse">
<stop stop-color="#444B8C"/>
<stop offset="1" stop-color="#3E4177"/>
</linearGradient>
<linearGradient id="paint50_linear_4246_34809" x1="89.4194" y1="156.297" x2="-8.44366" y2="210.738" gradientUnits="userSpaceOnUse">
<stop stop-color="#444B8C"/>
<stop offset="1" stop-color="#3E4177"/>
</linearGradient>
<linearGradient id="paint51_linear_4246_34809" x1="91.738" y1="162.2" x2="-3.16664" y2="214.994" gradientUnits="userSpaceOnUse">
<stop stop-color="#444B8C"/>
<stop offset="1" stop-color="#3E4177"/>
</linearGradient>
<linearGradient id="paint52_linear_4246_34809" x1="91.3931" y1="150.843" x2="-13.2185" y2="209.037" gradientUnits="userSpaceOnUse">
<stop stop-color="#444B8C"/>
<stop offset="1" stop-color="#3E4177"/>
</linearGradient>
<linearGradient id="paint53_linear_4246_34809" x1="92.9125" y1="157.507" x2="-8.41633" y2="213.875" gradientUnits="userSpaceOnUse">
<stop stop-color="#444B8C"/>
<stop offset="1" stop-color="#3E4177"/>
</linearGradient>
<linearGradient id="paint54_linear_4246_34809" x1="94.2805" y1="163.757" x2="-4.03125" y2="218.447" gradientUnits="userSpaceOnUse">
<stop stop-color="#444B8C"/>
<stop offset="1" stop-color="#3E4177"/>
</linearGradient>
<linearGradient id="paint55_linear_4246_34809" x1="96.766" y1="159.136" x2="-8.35789" y2="217.615" gradientUnits="userSpaceOnUse">
<stop stop-color="#444B8C"/>
<stop offset="1" stop-color="#3E4177"/>
</linearGradient>
<linearGradient id="paint56_linear_4246_34809" x1="98.0496" y1="165.733" x2="-3.7751" y2="222.377" gradientUnits="userSpaceOnUse">
<stop stop-color="#444B8C"/>
<stop offset="1" stop-color="#3E4177"/>
</linearGradient>
<linearGradient id="paint57_linear_4246_34809" x1="99.1998" y1="171.916" x2="0.407047" y2="226.873" gradientUnits="userSpaceOnUse">
<stop stop-color="#444B8C"/>
<stop offset="1" stop-color="#3E4177"/>
</linearGradient>
<linearGradient id="paint58_linear_4246_34809" x1="98.4823" y1="173.747" x2="3.494" y2="226.588" gradientUnits="userSpaceOnUse">
<stop stop-color="#444B8C"/>
<stop offset="1" stop-color="#3E4177"/>
</linearGradient>
<linearGradient id="paint59_linear_4246_34809" x1="20.4748" y1="151.527" x2="18.7727" y2="190.326" gradientUnits="userSpaceOnUse">
<stop stop-color="#444B8C"/>
<stop offset="1" stop-color="#26264F"/>
</linearGradient>
<linearGradient id="paint60_linear_4246_34809" x1="35.7607" y1="150.954" x2="34.0907" y2="189.021" gradientUnits="userSpaceOnUse">
<stop stop-color="#444B8C"/>
<stop offset="1" stop-color="#26264F"/>
</linearGradient>
<linearGradient id="paint61_linear_4246_34809" x1="51.0499" y1="150.382" x2="49.4128" y2="187.719" gradientUnits="userSpaceOnUse">
<stop stop-color="#444B8C"/>
<stop offset="1" stop-color="#26264F"/>
</linearGradient>
<linearGradient id="paint62_linear_4246_34809" x1="65.8251" y1="149.826" x2="64.2187" y2="186.461" gradientUnits="userSpaceOnUse">
<stop stop-color="#444B8C"/>
<stop offset="1" stop-color="#26264F"/>
</linearGradient>
<linearGradient id="paint63_linear_4246_34809" x1="20.4731" y1="162.47" x2="18.7438" y2="201.898" gradientUnits="userSpaceOnUse">
<stop stop-color="#444B8C"/>
<stop offset="1" stop-color="#26264F"/>
</linearGradient>
<linearGradient id="paint64_linear_4246_34809" x1="35.7509" y1="161.716" x2="34.0545" y2="200.392" gradientUnits="userSpaceOnUse">
<stop stop-color="#444B8C"/>
<stop offset="1" stop-color="#26264F"/>
</linearGradient>
<linearGradient id="paint65_linear_4246_34809" x1="51.0335" y1="160.961" x2="49.3699" y2="198.886" gradientUnits="userSpaceOnUse">
<stop stop-color="#444B8C"/>
<stop offset="1" stop-color="#26264F"/>
</linearGradient>
<linearGradient id="paint66_linear_4246_34809" x1="65.8014" y1="160.231" x2="64.17" y2="197.433" gradientUnits="userSpaceOnUse">
<stop stop-color="#444B8C"/>
<stop offset="1" stop-color="#26264F"/>
</linearGradient>
<linearGradient id="paint67_linear_4246_34809" x1="20.4706" y1="173.149" x2="18.7141" y2="213.193" gradientUnits="userSpaceOnUse">
<stop stop-color="#444B8C"/>
<stop offset="1" stop-color="#26264F"/>
</linearGradient>
<linearGradient id="paint68_linear_4246_34809" x1="35.7413" y1="172.218" x2="34.0192" y2="211.489" gradientUnits="userSpaceOnUse">
<stop stop-color="#444B8C"/>
<stop offset="1" stop-color="#26264F"/>
</linearGradient>
<linearGradient id="paint69_linear_4246_34809" x1="51.0166" y1="171.285" x2="49.328" y2="209.785" gradientUnits="userSpaceOnUse">
<stop stop-color="#444B8C"/>
<stop offset="1" stop-color="#26264F"/>
</linearGradient>
<linearGradient id="paint70_linear_4246_34809" x1="65.7784" y1="170.383" x2="64.122" y2="208.141" gradientUnits="userSpaceOnUse">
<stop stop-color="#444B8C"/>
<stop offset="1" stop-color="#26264F"/>
</linearGradient>
<linearGradient id="paint71_linear_4246_34809" x1="20.4686" y1="183.563" x2="18.6857" y2="224.211" gradientUnits="userSpaceOnUse">
<stop stop-color="#444B8C"/>
<stop offset="1" stop-color="#26264F"/>
</linearGradient>
<linearGradient id="paint72_linear_4246_34809" x1="35.732" y1="182.459" x2="33.9841" y2="222.312" gradientUnits="userSpaceOnUse">
<stop stop-color="#444B8C"/>
<stop offset="1" stop-color="#26264F"/>
</linearGradient>
<linearGradient id="paint73_linear_4246_34809" x1="51.0009" y1="181.354" x2="49.2873" y2="220.416" gradientUnits="userSpaceOnUse">
<stop stop-color="#444B8C"/>
<stop offset="1" stop-color="#26264F"/>
</linearGradient>
<linearGradient id="paint74_linear_4246_34809" x1="20.4666" y1="194.729" x2="18.6551" y2="236.024" gradientUnits="userSpaceOnUse">
<stop stop-color="#444B8C"/>
<stop offset="1" stop-color="#26264F"/>
</linearGradient>
<linearGradient id="paint75_linear_4246_34809" x1="35.7224" y1="193.44" x2="33.9474" y2="233.918" gradientUnits="userSpaceOnUse">
<stop stop-color="#444B8C"/>
<stop offset="1" stop-color="#26264F"/>
</linearGradient>
<linearGradient id="paint76_linear_4246_34809" x1="50.983" y1="192.149" x2="49.2437" y2="231.815" gradientUnits="userSpaceOnUse">
<stop stop-color="#444B8C"/>
<stop offset="1" stop-color="#26264F"/>
</linearGradient>
<linearGradient id="paint77_linear_4246_34809" x1="66.1985" y1="175.187" x2="61.9203" y2="272.734" gradientUnits="userSpaceOnUse">
<stop stop-color="#444B8C"/>
<stop offset="1" stop-color="#26264F"/>
</linearGradient>
<clipPath id="clip0_4246_34809">
<rect width="168" height="216" fill="white"/>
</clipPath>
</defs>
</svg>
