<svg width="168" height="208" viewBox="0 0 168 208" fill="none" xmlns="http://www.w3.org/2000/svg">
<g clip-path="url(#clip0_4246_33550)">
<path d="M29.0478 183.992C40.6719 183.992 50.095 180.146 50.095 175.402C50.095 170.658 40.6719 166.812 29.0478 166.812C17.4237 166.812 8.00049 170.658 8.00049 175.402C8.00049 180.146 17.4237 183.992 29.0478 183.992Z" fill="#B7C0CE"/>
<path d="M8.00146 174.395C8.00146 178.874 17.4245 182.504 29.0487 182.504C40.673 182.504 50.096 178.874 50.096 174.395C50.096 169.917 40.673 162.59 29.0487 162.59C17.4245 162.59 8.00146 169.917 8.00146 174.395Z" fill="white"/>
<path style="mix-blend-mode:multiply" opacity="0.3" d="M8.00146 174.395C8.00146 169.917 17.4245 162.59 29.0487 162.59C34.4158 162.59 39.3107 164.153 43.0291 166.276C43.2893 166.821 43.4109 167.363 43.3611 167.878C43.1201 170.398 39.0107 171.947 36.6518 172.457C30.7117 173.744 27.811 170.191 22.9132 170.327C19.8852 170.411 15.6891 171.932 10.7124 178.375C8.9897 177.199 8.00217 175.842 8.00217 174.395H8.00146Z" fill="url(#paint0_linear_4246_33550)"/>
<path d="M27.8953 166.656C28.7364 166.865 29.5206 166.858 30.2593 166.67C30.929 166.5 31.3883 165.88 31.3883 165.19V141.457H26.708V165.161C26.708 165.874 27.2043 166.484 27.8953 166.656Z" fill="white"/>
<path style="mix-blend-mode:multiply" opacity="0.65" d="M27.8953 166.656C28.7364 166.865 29.5206 166.858 30.2593 166.67C30.929 166.5 31.3883 165.88 31.3883 165.19V141.457H26.708V165.161C26.708 165.874 27.2043 166.484 27.8953 166.656Z" fill="url(#paint1_linear_4246_33550)"/>
<path d="M53.7773 131.469L46.6279 126.949C46.3307 125.26 42.96 107.598 29.2783 102.052C23.7143 99.7966 17.7266 100.064 14.4405 100.211C7.8805 100.504 3.20167 100.713 0.951482 103.842C-1.93857 107.86 2.90876 111.503 1.90488 122.997C1.49537 127.683 0.455232 129.765 1.75131 132.87C3.30405 136.589 6.90507 138.651 9.70554 139.811C13.0527 141.755 18.8805 144.525 26.5781 145.199C39.5438 146.335 49.2229 140.773 52.5516 138.645C54.0318 138.178 55.1437 136.947 55.4587 135.428C55.7779 133.887 55.1082 132.31 53.778 131.469H53.7773Z" fill="url(#paint2_linear_4246_33550)"/>
<path d="M12.9989 101.156C8.1473 101.3 5.13211 101.243 3.46491 103.41C1.71453 105.683 3.48339 107.622 3.81186 115.717C4.11117 123.098 2.80941 126.016 5.19468 130.106C5.19468 130.106 6.40687 132.184 8.32006 133.746C15.0813 139.263 32.5261 139.196 39.8682 127.678C45.7258 118.489 43.2837 104.944 36.4016 100.462C33.0295 98.2667 32.256 100.585 12.9996 101.155L12.9989 101.156Z" fill="url(#paint3_linear_4246_33550)"/>
<path d="M54.2977 127.41L47.1483 122.89C47.1483 122.89 27.9979 116.594 10.2786 125.472C8.29429 126.467 7.06006 128.519 7.06006 130.738C7.06006 132.441 8.08313 133.977 9.65364 134.634C12.7449 136.744 18.7795 140.229 27.0978 141.141C40.3231 142.59 50.1628 136.535 53.0713 134.587C54.5515 134.12 55.6635 132.889 55.9784 131.37C56.2976 129.829 55.6279 128.252 54.2977 127.411V127.41Z" fill="url(#paint4_linear_4246_33550)"/>
<path d="M56.6334 183.92H53.8784C53.1966 185.02 52.4402 186.583 53.0466 187.588C53.4668 188.284 54.1742 188.103 56.1635 188.734C58.9448 189.616 59.6159 190.622 61.9962 190.79C62.8693 190.852 63.5063 190.897 63.6769 190.586C64.1661 189.694 60.3894 186.661 56.6341 183.921L56.6334 183.92Z" fill="url(#paint5_linear_4246_33550)"/>
<path d="M56.208 184.841C55.9755 184.937 55.7437 185.039 55.5184 185.121C54.7548 185.396 53.9592 184.809 53.955 183.997C53.955 183.971 53.955 183.945 53.955 183.918C53.9422 182.718 53.6976 181.753 53.5063 181.149C54.5195 181.102 55.5333 181.055 56.5464 181.008C56.3139 182.354 56.3943 183.313 56.6097 184.012C56.7135 184.349 56.5357 184.708 56.2087 184.841H56.208Z" fill="url(#paint6_linear_4246_33550)"/>
<path d="M77.8961 176.525H75.1411C74.4593 177.625 73.7029 179.189 74.3093 180.193C74.7295 180.889 75.4369 180.708 77.4262 181.339C80.2075 182.222 80.8786 183.228 83.2589 183.395C84.132 183.457 84.769 183.502 84.9396 183.191C85.4287 182.3 81.6521 179.267 77.8968 176.525H77.8961Z" fill="url(#paint7_linear_4246_33550)"/>
<path d="M77.4709 177.448C77.2384 177.543 77.0067 177.646 76.7806 177.727C76.017 178.003 75.2214 177.415 75.2172 176.604C75.2172 176.579 75.2172 176.552 75.2172 176.526C75.2044 175.326 74.9598 174.36 74.7686 173.756C75.7817 173.709 76.7955 173.662 77.8086 173.615C77.5761 174.961 77.6565 175.921 77.8719 176.62C77.9757 176.957 77.798 177.316 77.4709 177.449V177.448Z" fill="url(#paint8_linear_4246_33550)"/>
<path d="M77.8668 175.107C79.9399 164.578 79.7068 155.88 79.1451 150.079C78.0587 138.862 77.4836 132.919 72.9804 127.419C68.7473 122.248 64.8086 122.069 55.3876 113.313C52.2822 110.427 49.9374 107.869 48.4728 106.201C34.3453 102.057 21.3141 103.736 15.5646 111.313C14.8999 112.188 13.2369 114.087 12.9149 116.887C12.189 123.205 18.3964 130.811 25.3623 132.4C34.2152 134.418 39.3512 125.328 47.1952 128.353C49.3893 129.199 51.2491 131.296 54.9696 135.488C59.7025 140.822 62.3629 145.744 63.3689 147.714C66.3663 153.578 68.6392 157.907 68.9705 163.518C69.0473 164.825 69.0935 167.466 70.6249 170.314C71.8002 172.501 73.3927 173.958 74.5779 174.859C75.6742 174.941 76.7705 175.025 77.8668 175.107Z" fill="url(#paint9_linear_4246_33550)"/>
<path d="M58.582 180.622C57.7288 182.214 56.051 183.154 52.4052 182.539C47.2557 176.69 45.5536 171.498 44.95 167.842C43.6475 159.945 46.9201 155.884 43.885 149.524C41.91 145.385 38.5827 143.034 35.7985 141.068C29.0885 136.327 26.2702 138.175 20.5363 133.81C18.3843 132.172 13.2312 128.25 12.5395 121.786C11.938 116.169 15.062 111.967 15.5639 111.313C19.6007 106.053 27.176 103.918 34.7257 105.859C35.7857 108.535 37.716 112.723 41.1158 117.148C45.4193 122.749 48.2183 123.708 52.6177 129.289C54.6731 131.896 58.1824 136.347 60.0338 142.642C61.1102 146.3 61.2495 149.302 60.0729 164.008C59.7046 168.612 59.2183 174.22 58.582 180.622Z" fill="url(#paint10_linear_4246_33550)"/>
<path d="M81.8504 88.3773C83.2951 79.6737 62.6801 62.7635 42.2428 65.987C18.0381 69.8041 10.5411 99.2678 10.0334 101.398C7.85648 110.533 8.28732 121.627 11.5812 122.682C13.9949 123.455 15.4758 118.046 21.2709 116.322C27.4754 114.476 30.694 119.213 43.5147 121.975C49.3496 123.232 55.953 124.655 58.2885 121.666C60.6446 118.649 56.0127 114.523 56.7926 108.907C58.3944 97.3667 80.4512 96.805 81.8504 88.3773Z" fill="url(#paint11_linear_4246_33550)"/>
<path style="mix-blend-mode:multiply" opacity="0.3" d="M12.6355 108.329C14.9661 105.793 19.2702 103.204 24.0415 103.242C30.2538 103.29 31.9203 107.748 36.6468 107.023C42.4518 106.133 42.0167 99.0882 48.089 97.2077C53.2691 95.603 56.9113 99.696 62.776 100.898C59.662 102.906 57.2789 105.397 56.7919 108.907C56.0127 114.522 60.6446 118.649 58.2877 121.665C55.9522 124.655 49.3488 123.232 43.514 121.975C30.6932 119.213 27.4747 114.475 21.2701 116.321C15.4751 118.045 13.9942 123.454 11.5805 122.681C10.192 122.237 9.31463 120.006 8.92432 116.893C9.33312 113.535 10.5908 110.552 12.6355 108.329Z" fill="url(#paint12_linear_4246_33550)"/>
<path d="M71.4396 72.1526L70.5238 72.3496C68.7457 72.732 66.8922 72.533 65.2364 71.7815L63.0204 70.7755C62.5334 70.5544 62.0108 71.0165 62.1807 71.5234C62.982 73.9108 65.3999 78.6337 71.704 76.8798L71.4396 72.1519V72.1526Z" fill="url(#paint13_linear_4246_33550)"/>
<path d="M77.187 73.6251C80.2946 73.293 82.9287 66.7821 81.7001 65.6943C80.9949 65.0694 79.7613 66.9015 76.5663 66.9342C74.0779 66.9598 72.7669 65.8699 71.4808 66.7949C70.8765 67.2293 70.3809 68.0341 70.1975 68.8083C70.1029 69.2072 70.071 69.761 70.0837 70.8687C70.0944 71.8512 70.0788 71.8078 70.0894 72.0979C70.115 72.7961 70.2416 74.0289 70.8324 75.7579C71.1303 75.4629 71.5234 75.1124 72.014 74.7726C72.2024 74.6417 72.9489 74.1355 73.7822 73.8483C75.3001 73.3257 76.2968 73.7203 77.1877 73.6251H77.187Z" fill="url(#paint14_linear_4246_33550)"/>
<path d="M69.8947 73.8153C69.8947 73.8153 69.8819 76.5304 72.3738 77.8514C74.6048 79.0337 77.8831 74.4168 77.1422 72.5519C76.8948 71.9298 76.0666 71.2246 75.1935 70.9743C74.6781 70.8264 74.4164 70.9174 73.5789 70.66C72.8061 70.4226 72.6632 70.2328 72.3582 70.2783C71.9764 70.3351 71.4723 70.7404 71.0259 72.4055C70.8723 71.7386 70.4784 71.2772 70.0298 71.2267C69.958 71.2189 69.749 71.2281 69.5726 71.3291C68.9342 71.6938 69.0039 72.7048 69.8961 73.816L69.8947 73.8153Z" fill="url(#paint15_linear_4246_33550)"/>
<path d="M103.302 171.696C103.452 171.696 103.582 171.59 103.61 171.44L115.863 105.568C115.894 105.397 115.782 105.234 115.611 105.202C115.442 105.172 115.277 105.283 115.245 105.453L103.616 167.975V101.154C103.616 100.981 103.475 100.84 103.302 100.84C103.128 100.84 102.987 100.981 102.987 101.154V171.382C102.987 171.544 103.111 171.68 103.272 171.695C103.282 171.696 103.292 171.696 103.302 171.696Z" fill="#C47EB7"/>
<path d="M167.253 173.668C167.262 173.668 167.271 173.668 167.279 173.667C167.442 173.654 167.568 173.517 167.568 173.354V108.853C167.568 108.679 167.427 108.538 167.254 108.538C167.08 108.538 166.939 108.679 166.939 108.853V169.543L156.816 108.568C156.788 108.396 156.63 108.279 156.455 108.31C156.284 108.338 156.168 108.5 156.197 108.671L166.944 173.406C166.969 173.559 167.102 173.668 167.254 173.668H167.253Z" fill="#C47EB7"/>
<path d="M9.76444 195.014C9.9109 195.014 10.0403 194.911 10.0716 194.765L25.0664 123.751C25.1027 123.581 24.9939 123.414 24.824 123.378C24.6512 123.342 24.4877 123.451 24.4515 123.621L10.0787 191.691V123.609C10.0787 123.436 9.93791 123.295 9.76444 123.295C9.59096 123.295 9.4502 123.436 9.4502 123.609V194.7C9.4502 194.86 9.57177 194.995 9.73174 195.012C9.74311 195.013 9.75377 195.014 9.76444 195.014Z" fill="#C47EB7"/>
<path d="M84.3552 207.429C84.3658 207.429 84.3765 207.429 84.3872 207.428C84.5478 207.412 84.6694 207.277 84.6694 207.115V135.745C84.6694 135.572 84.5286 135.431 84.3552 135.431C84.1817 135.431 84.0409 135.572 84.0409 135.745V203.992L68.2242 126.187C68.1901 126.017 68.0223 125.907 67.8538 125.942C67.6838 125.976 67.5736 126.142 67.6085 126.312L84.0473 207.178C84.0772 207.326 84.2073 207.429 84.3545 207.429H84.3552Z" fill="#C47EB7"/>
<path d="M9.09788 122.74V123.965L84.5265 136.269L167.934 109.125V107.9C154.871 104.048 9.09717 122.74 9.09717 122.74L9.09788 122.74Z" fill="#B7C0CE"/>
<path d="M98.6638 101.553L9.09766 122.739L84.527 135.043L167.934 107.898L98.6638 101.553Z" fill="#D8DEE8"/>
<path d="M76.0444 77.2773C81.9212 80.3345 95.3939 97.8184 90.6404 105.154C85.8869 112.489 65.7554 96.8409 65.7554 96.8409L76.0444 77.2781V77.2773Z" fill="url(#paint16_linear_4246_33550)"/>
<path style="mix-blend-mode:multiply" opacity="0.3" d="M76.0446 77.2773C81.9214 80.3345 95.3941 97.8184 90.6406 105.154C88.5056 108.449 83.2665 107.106 78.144 104.627C71.8627 101.588 70.7507 98.3708 72.3618 97.111C73.6372 96.1135 73.9294 94.5373 74.0482 93.8982C74.5615 91.1354 73.1687 89.3964 72.676 87.3595C72.1727 85.2771 72.4123 82.0614 76.0446 77.2773Z" fill="url(#paint17_linear_4246_33550)"/>
<path d="M76.7996 77.2772C76.7996 77.2772 80.284 73.8333 78.2478 71.6314C76.2116 69.4296 78.0033 71.6314 76.7996 74.4547C75.5959 77.2779 74.8715 75.8986 76.7996 77.2779V77.2772Z" fill="url(#paint18_linear_4246_33550)"/>
<path d="M75.5073 76.6641C75.5073 76.6641 75.8216 92.8114 80.0162 99.1027C84.2102 105.394 89.9498 107.092 90.5015 102.353C91.0532 97.6146 87.9029 85.02 77.2492 77.2769L75.5073 76.6641Z" fill="url(#paint19_linear_4246_33550)"/>
<path d="M72.6425 114.471C72.6425 114.471 74.9041 111.631 78.5193 114.471C81.3148 116.666 76.958 115.237 76.1326 115.741C73.2902 117.475 70.4805 115.612 72.6425 114.471Z" fill="url(#paint20_linear_4246_33550)"/>
<path d="M29.8959 83.8989C29.8959 83.8989 25.0194 125.825 72.1249 116.448V114.848C72.1249 114.848 43.3565 104.66 50.9382 87.1495C50.9382 87.1495 56.7333 71.6846 45.3046 69.8489C33.8759 68.0125 29.8952 83.8989 29.8952 83.8989H29.8959Z" fill="url(#paint21_linear_4246_33550)"/>
<path d="M89.2236 117.626L92.2047 78.2914C92.2516 77.6694 92.7848 77.0885 93.4908 76.8901L144.511 62.5479C144.968 62.4192 145.843 62.5451 146.191 62.7612C146.538 62.9766 146.933 62.9304 146.916 63.3314L144.784 99.6814C144.748 100.286 144.251 100.859 143.57 101.081L90.3199 118.379L89.2236 117.626Z" fill="url(#paint22_linear_4246_33550)"/>
<path d="M90.3198 118.38L93.4089 78.7162C93.4573 78.0941 93.9898 77.5154 94.6951 77.317L145.718 62.9741C146.175 62.8454 146.641 62.8966 146.989 63.112C147.337 63.3274 147.529 63.6858 147.512 64.0867L145.975 100.076C145.949 100.695 145.436 101.285 144.736 101.502L90.3198 118.379V118.38Z" fill="url(#paint23_linear_4246_33550)"/>
<path style="mix-blend-mode:multiply" opacity="0.3" d="M90.3198 118.379L144.736 101.502C145.436 101.286 145.949 100.695 145.975 100.077L146.439 89.2227C130.285 99.5302 109.945 103.51 91.0144 109.463L90.3198 118.379Z" fill="url(#paint24_linear_4246_33550)"/>
<path d="M117.398 119.587L115.467 120.785C115.467 120.785 106.303 116.722 105.754 116.478C105.667 116.439 105.291 115.97 105.754 115.777C108.21 114.754 117.58 112.332 117.58 112.332L122.458 114.648L117.398 119.586V119.587Z" fill="white"/>
<path d="M117.397 118.886L115.467 120.084C115.467 120.084 106.303 116.02 105.754 115.776C105.205 115.533 117.58 111.631 117.58 111.631L122.457 113.947L117.397 118.885V118.886Z" fill="url(#paint25_linear_4246_33550)"/>
<path d="M126.928 88.5183C126.928 88.5183 131.561 113.309 132.048 114.69C132.498 115.966 119.377 120.103 116.239 120.888C115.978 120.953 115.589 120.839 115.467 120.786C114.573 120.867 118.739 90.8545 118.739 90.8545L119.044 90.7934L126.928 88.5176V88.5183Z" fill="white"/>
<path d="M126.928 88.5176C126.928 88.5176 132.374 113.389 132.862 114.771C133.35 116.153 117.662 120.623 116.281 120.867C115.387 120.948 119.044 90.7934 119.044 90.7934L126.928 88.5176Z" fill="url(#paint26_linear_4246_33550)"/>
<path d="M78.8294 61.8202C75.6144 60.8661 64.7722 57.2253 60.2192 47.296C53.6813 33.037 64.8384 16.1189 75.335 8.21946C94.4115 -6.13697 118.369 3.97787 120.408 4.87794C130.253 9.22547 149.587 21.8251 147.197 38.5704C145.01 53.8973 125.724 64.984 111.829 63.0182C99.8631 61.3254 92.6049 50.0545 85.0204 53.3697C81.4144 54.9459 79.6953 58.9621 78.8294 61.8209V61.8202Z" fill="url(#paint27_linear_4246_33550)"/>
<path d="M126.571 27.7261C127.99 25.5193 127.352 22.4934 126.255 20.2994C124.81 17.4086 122.286 15.1598 119.824 13.1443C119.562 12.9303 119.297 12.7255 119.031 12.5272C118.181 10.8728 116.946 9.5589 115.017 9.11241C113.914 8.85718 112.74 8.86358 111.573 9.03208C111.367 8.98089 111.158 8.93254 110.948 8.88704C107.149 8.05593 103.198 7.53693 99.3138 7.35208C95.2422 7.15869 91.1456 7.49142 87.2396 8.70432C84.7626 9.47358 82.2671 10.6502 80.8431 12.9239C79.4588 15.1343 79.1659 18.035 80.0909 20.4714C77.2598 22.8539 74.8134 25.724 73.4263 29.0008C72.436 31.3392 72.0528 34.0728 73.137 36.4503C73.693 37.6696 74.5774 38.613 75.6204 39.4335C77.0985 40.5966 78.8496 41.9254 77.2286 43.8933C75.6154 45.8527 72.3997 46.6113 72.126 49.5625C71.9056 51.9421 74.2141 53.5986 76.0206 54.6487C76.1493 54.7241 76.2652 54.5257 76.1372 54.449C74.6385 53.5517 72.8419 52.3068 72.4729 50.4654C72.0236 48.2209 74.1899 46.6803 75.791 45.6025C77.5613 44.4109 79.4155 42.4551 77.562 40.4466C76.4422 39.2337 74.9613 38.532 74.0456 37.0987C73.1569 35.708 72.8626 34.0529 73.0339 32.4248C73.4121 28.8217 75.7476 25.7297 78.172 23.193C78.868 22.4643 79.6032 21.7725 80.3667 21.1113C80.3831 21.1454 80.398 21.1803 80.4151 21.2144C79.5562 21.9104 78.7721 22.6761 78.103 23.5307C76.7835 25.2171 75.9958 27.5128 76.9819 29.5568C77.8798 31.4181 79.7688 32.5627 81.6358 33.433C81.0649 35.7969 80.8744 38.3109 81.5334 40.6677C82.2359 43.1767 83.9336 45.2022 86.0608 46.6568C90.4425 49.6535 96.2709 50.0275 101.344 48.9994C103.678 48.5267 105.942 47.6991 107.965 46.4883C109.038 47.6657 110.323 48.7527 111.695 49.03C112.341 49.1608 113.324 49.1274 113.461 48.329C113.598 47.532 112.774 46.4051 112.332 45.6323C113.761 46.5175 115.341 47.1197 117.073 47.2512C121.295 47.5711 124.202 44.8396 125.24 40.9322C126.229 37.2124 126.946 32.486 125.907 28.5316C126.153 28.2906 126.378 28.0254 126.572 27.7239L126.571 27.7261ZM117.149 11.2595C117.16 11.2709 117.17 11.2837 117.18 11.2951C116.172 10.7007 115.125 10.2016 114.029 9.79067C115.195 9.92078 116.287 10.3466 117.149 11.2595ZM124.488 27.1395C124.654 27.5206 124.795 27.9131 124.914 28.3162C124.643 28.5273 124.349 28.7108 124.039 28.8693C123.945 28.4399 123.833 28.0225 123.719 27.6273C123.977 27.4694 124.233 27.3073 124.487 27.1402L124.488 27.1395ZM123.362 29.1665C122.001 29.6869 120.424 29.8383 118.971 29.8725C120.403 29.3983 121.767 28.7641 123.08 28.0076C123.191 28.3937 123.287 28.7804 123.361 29.1672L123.362 29.1665ZM123.361 32.2044C122.599 35.1641 118.241 35.1421 115.832 35.6952C115.014 35.8829 114.171 36.1467 113.389 36.5135C112.25 35.3277 110.219 35.012 108.709 34.8008C107.877 34.685 107.046 34.584 106.224 34.4681C107.67 33.9043 109.057 33.1777 110.234 32.235C110.959 31.8731 111.675 31.4664 112.354 31.0114C113.566 30.9282 114.771 30.8003 115.961 30.6026C117.585 30.7562 119.234 30.7057 120.835 30.513C121.704 30.4085 122.618 30.2393 123.481 29.9471C123.566 30.7206 123.548 31.4821 123.361 32.2044ZM113.393 38.4118C113.547 40.0129 112.377 41.6083 111.165 42.8582C110.848 41.7732 110.751 40.6521 111.209 39.6048C111.612 38.6827 112.306 38.0208 113.127 37.5352C113.267 37.7933 113.361 38.0826 113.393 38.4111V38.4118ZM82.5856 21.1511C82.789 20.8568 83.0051 20.5653 83.2276 20.2759C85.0257 19.2066 86.9517 18.3407 88.9061 17.6134C90.8762 16.8804 93.1967 15.9703 95.3232 16.0336C96.0683 16.0557 96.6157 16.2227 97.0146 16.4929C96.9791 16.4794 96.9456 16.463 96.9101 16.4495C94.3904 15.5103 92.0087 16.6337 90.173 18.3905C88.3338 20.1508 86.8201 22.3747 85.4977 24.5367C85.3492 24.7799 85.2041 25.0266 85.0605 25.2733C83.8981 24.44 82.7705 23.4539 81.8889 22.3071C82.1228 21.8635 82.3695 21.4654 82.5864 21.1518L82.5856 21.1511ZM115.908 24.8232C115.836 23.8919 115.725 22.9598 115.674 22.032C115.674 22.0235 115.674 22.0156 115.673 22.0071C115.726 22.192 115.777 22.3782 115.817 22.5681C115.989 23.3658 116.011 24.1172 115.908 24.8232ZM114.452 27.9941C114.082 27.8334 113.74 27.6251 113.401 27.404C114.223 23.8776 112.676 19.9539 109.532 18.1224C109.235 16.6401 108.701 15.2295 107.843 13.9974C108.178 14.1489 108.512 14.3081 108.841 14.483C111.212 15.7414 113.527 17.6418 114.858 20.0477C114.783 20.6321 114.742 21.2229 114.769 21.8301C114.846 23.5869 115.198 25.3771 115.057 27.1346C114.877 27.4325 114.675 27.719 114.452 27.9955L114.452 27.9941ZM105.708 35.2573C107.363 35.4805 111.04 35.4372 112.638 36.9138C111.477 37.6148 110.547 38.6102 110.208 40.0399C109.986 40.9755 110.099 41.946 110.351 42.8731C110.13 42.6641 109.916 42.4508 109.707 42.2346C107.912 40.3734 106.129 37.9945 105.264 35.4137C105.319 35.349 105.373 35.2829 105.428 35.2168C105.521 35.2303 105.614 35.2452 105.708 35.258V35.2573ZM91.4158 28.5202C91.4392 28.0055 91.5032 27.4922 91.6028 26.9831C91.7322 26.9653 91.8601 26.9426 91.9902 26.9284C93.1327 26.8004 94.1871 27.0955 95.1441 27.6223C95.0083 28.2444 94.9151 28.8679 94.886 29.4843C93.71 29.229 92.5512 28.9112 91.4165 28.5202H91.4158ZM85.3641 26.3489C85.6193 26.5196 85.8753 26.6852 86.1326 26.8459C86.3779 26.9988 86.626 27.1452 86.8749 27.2881C86.154 27.4687 85.3925 27.6315 84.651 27.6955C84.7541 27.4907 84.8579 27.2874 84.9631 27.0869C85.0932 26.8402 85.2283 26.5942 85.3634 26.3482L85.3641 26.3489ZM85.7146 25.7254C86.9623 23.5399 88.4219 21.4156 90.1176 19.5849C91.243 18.3698 92.6209 17.201 94.3087 16.9387C95.5465 16.746 96.7103 17.1257 97.7497 17.747C97.5549 18.0158 97.3672 18.2895 97.1881 18.5682C96.8056 18.7694 96.4352 18.9848 96.0797 19.2145C93.4825 20.893 91.7258 23.4525 91.0155 26.2693C90.1837 26.4279 89.3632 26.6625 88.6146 26.8402C88.3921 26.8928 88.1553 26.954 87.9086 27.0194C87.1614 26.6305 86.4298 26.2004 85.7153 25.7247L85.7146 25.7254ZM107.616 15.1001C108.076 15.912 108.412 16.7801 108.648 17.6823C105.828 16.4794 102.494 16.5939 99.5243 17.5771C99.9658 16.5398 100.677 15.6241 101.616 14.9515C102.747 14.141 104.191 13.5844 105.681 13.1912C105.904 13.2573 106.126 13.3277 106.347 13.4031C106.82 13.8872 107.248 14.4482 107.616 15.1001H107.616ZM112.649 26.9106C112.475 26.7997 112.297 26.6923 112.113 26.5928C111.278 26.1442 110.338 25.9515 109.397 25.9835C109.459 25.6508 109.516 25.3195 109.565 24.9917C109.842 23.1304 109.951 21.1156 109.705 19.1761C110.355 19.6268 110.933 20.1792 111.399 20.8482C112.583 22.551 113.03 24.851 112.649 26.9099V26.9106ZM104.398 29.4203C104.258 29.7466 104.147 30.0772 104.059 30.41C102.386 30.3922 100.712 30.3118 99.0543 30.1391C98.2218 29.0883 97.2258 28.056 96.0804 27.286C96.502 25.5861 97.2293 23.9089 97.8208 22.3626C97.9424 22.0441 98.0732 21.6957 98.1969 21.3289C98.4074 22.7408 99.0643 25.1396 100.414 25.8342C101.689 26.4897 103.016 25.2235 101.709 24.1954C101.252 23.8357 100.601 24.4777 101.063 24.841C101.527 25.1638 101.354 25.1396 100.545 24.7692C100.37 24.5573 100.22 24.3305 100.093 24.0881C99.8641 23.68 99.6743 23.23 99.5115 22.7927C99.1617 21.8521 98.9747 20.8546 99.0138 19.8501C99.028 19.4846 99.0728 19.1235 99.1475 18.7701C101.413 20.7018 103.091 23.2428 105.221 25.3166C105.722 25.8043 106.241 26.2743 106.78 26.7179C105.731 27.3215 104.896 28.2614 104.399 29.4203H104.398ZM97.8813 19.0744C97.7227 20.5482 97.0103 22.2339 96.5653 23.3409C96.2738 24.0668 95.9723 24.8382 95.705 25.6309C95.651 24.5986 95.7917 23.5328 96.1451 22.4628C96.524 21.3153 97.0565 20.2112 97.7078 19.164C97.7654 19.1341 97.823 19.1035 97.8805 19.0744H97.8813ZM95.0147 26.6753C94.6812 26.516 94.3378 26.3788 93.9838 26.2743C93.2913 26.0695 92.549 26.0617 91.7997 26.1492C91.9682 25.5512 92.19 24.964 92.4673 24.3931C93.356 22.5652 94.7338 21.0694 96.384 19.951C95.2742 22.091 94.6869 24.4151 95.0147 26.6753ZM97.9637 30.0132C97.7085 29.9798 97.4533 29.9436 97.1987 29.9059C96.8774 29.4452 96.6022 28.9646 96.3818 28.4648C96.9577 28.9326 97.486 29.4658 97.9644 30.0132H97.9637ZM98.6782 30.8856C99.0472 31.3662 99.3892 31.8632 99.7141 32.3701C99.3409 32.1198 98.9776 31.839 98.6263 31.5219C98.3676 31.288 98.1301 31.0427 97.9033 30.791C98.1614 30.8244 98.4195 30.8557 98.6782 30.8849V30.8856ZM101.041 33.1159C100.623 32.3878 100.178 31.6755 99.6885 30.988C101.086 31.1145 102.492 31.1806 103.895 31.2041C103.782 31.967 103.789 32.7384 103.892 33.5069C103.508 33.5922 103.092 33.6704 102.658 33.7351C102.106 33.5659 101.566 33.3626 101.041 33.1159H101.041ZM104.783 33.2915C104.741 32.9282 104.72 32.562 104.724 32.1952C104.728 31.8639 104.759 31.5354 104.812 31.2126C105.395 31.2148 105.976 31.2112 106.555 31.202C106.67 31.1998 106.787 31.1984 106.902 31.1963C106.631 31.7914 106.328 32.3807 105.993 32.9495C105.578 33.0768 105.173 33.1905 104.783 33.2915ZM105.294 30.4128C105.196 30.4128 105.096 30.4128 104.997 30.4128C105.405 29.0741 106.266 27.9251 107.54 27.3159C107.739 27.4659 107.943 27.6109 108.148 27.7531C108.089 27.9628 108.028 28.1711 107.965 28.3766C107.764 29.0342 107.525 29.7139 107.248 30.3943C106.594 30.4021 105.942 30.4078 105.294 30.4121V30.4128ZM108.879 28.238C109.731 28.7705 110.626 29.2319 111.57 29.5987C111.416 29.8348 111.249 30.0609 111.072 30.2777C110.106 30.3303 109.139 30.3623 108.175 30.3801C108.445 29.6755 108.68 28.9589 108.88 28.238H108.879ZM109.449 27.6763C109.326 27.6017 109.205 27.5242 109.085 27.4467C109.132 27.2547 109.174 27.0635 109.217 26.8715C110.365 26.7919 111.417 27.163 112.405 27.8185C112.409 27.8213 112.414 27.8242 112.418 27.827C112.298 28.2003 112.15 28.5543 111.979 28.8913C111.107 28.5714 110.26 28.1697 109.449 27.6756L109.449 27.6763ZM108.566 26.0702C108.219 26.1321 107.884 26.2252 107.563 26.3475C105.865 24.9882 104.384 23.3594 102.984 21.7007C102.015 20.5546 100.998 19.3126 99.8307 18.2817C101.672 17.6909 103.639 17.479 105.543 17.6916C106.695 17.8203 107.842 18.1381 108.867 18.6706C109.299 21.0807 109.085 23.6722 108.566 26.0702ZM90.8349 27.1054C90.7681 27.4872 90.7212 27.8718 90.6927 28.2593C90.0977 28.0353 89.5097 27.7901 88.9303 27.5213C89.563 27.3678 90.1965 27.2234 90.8349 27.1054ZM95.7676 29.1267C95.8643 29.3264 95.9681 29.5255 96.0832 29.7225C95.9681 29.7018 95.8536 29.6791 95.7391 29.657C95.7434 29.4807 95.7534 29.3037 95.7683 29.1267H95.7676ZM96.6762 30.6126C96.8219 30.8074 96.9748 31.0008 97.1411 31.192C98.1408 32.3395 99.3025 33.1827 100.574 33.8062C100.591 33.8361 100.607 33.8659 100.623 33.8951C98.2673 33.8951 96.0029 33.1486 95.7619 30.4512C96.0662 30.5081 96.3705 30.5628 96.6762 30.6126ZM102.643 34.6117C102.714 34.6331 102.785 34.6537 102.857 34.6743C102.566 34.7461 102.279 34.8136 101.993 34.8762C101.963 34.8172 101.933 34.7582 101.902 34.6992C102.149 34.675 102.397 34.6466 102.643 34.6124V34.6117ZM107.195 32.5507C107.431 32.1049 107.646 31.6463 107.848 31.1806C108.657 31.1664 109.468 31.1494 110.281 31.1202C110.203 31.1934 110.124 31.2652 110.043 31.3356C109.11 31.8091 108.143 32.2129 107.195 32.5507ZM112.772 29.1587C112.826 29.0492 112.88 28.939 112.929 28.8259C113.006 28.6517 113.074 28.4754 113.138 28.2977C113.364 28.4399 113.593 28.5714 113.829 28.6894C113.628 28.8928 113.417 29.0904 113.195 29.2809C113.054 29.2418 112.912 29.202 112.772 29.1594L112.772 29.1587ZM115.497 16.3742C115.392 17.1434 115.234 17.8928 115.091 18.6407C113.227 15.9995 110.167 13.9875 107.193 12.8464C108.059 12.6779 108.91 12.5542 109.695 12.461C111.023 12.3032 112.491 12.2101 113.777 12.6487C115.502 13.2381 115.723 14.7226 115.497 16.3735L115.497 16.3742ZM104.027 11.957C98.9193 11.0704 93.4086 12.7483 88.6914 15.0205C90.4418 13.7557 92.323 12.7092 94.207 12.001C97.3999 10.8017 101.218 10.4163 104.191 11.856C104.136 11.8894 104.081 11.9236 104.026 11.9577L104.027 11.957ZM86.2329 17.0183C89.7109 15.0752 93.5081 13.6782 97.358 12.8883C99.2634 12.4973 101.153 12.412 103.002 12.6359C101.656 13.5801 100.409 14.6657 99.2961 15.863C98.9868 16.1957 98.6875 16.5427 98.3981 16.8996C98.1983 16.5149 97.9054 16.1694 97.4909 15.8829C95.6069 14.5825 92.7815 15.5779 90.8157 16.1858C88.8321 16.8 86.7114 17.5565 84.7036 18.5362C85.1885 18.0151 85.6982 17.5067 86.2329 17.0176V17.0183ZM84.705 25.8946C84.3695 26.4933 84.0488 27.1004 83.7474 27.7183C83.1736 27.6905 82.6312 27.5761 82.1548 27.3258C80.5409 26.4776 80.8609 24.5843 81.5562 22.9961C82.442 24.1087 83.5419 25.0621 84.7057 25.8954L84.705 25.8946ZM84.3168 28.3816C84.5849 28.3681 84.8493 28.3453 85.1032 28.3148C86.0139 28.2053 86.909 28.009 87.8005 27.795C88.7319 28.2771 89.6867 28.6951 90.66 29.057C90.6529 30.8436 91.0639 32.6509 91.9426 34.338C92.1623 34.7596 92.4118 35.1741 92.6891 35.5708C89.2303 35.3127 85.829 34.4653 82.5849 33.0149C83.0101 31.416 83.6215 29.8462 84.3168 28.3816ZM92.4758 33.6398C91.8104 32.2705 91.457 30.801 91.4115 29.3243C92.5491 29.7104 93.7093 30.0232 94.8853 30.2756C94.8874 30.3253 94.8874 30.3751 94.891 30.4242C95.1298 34.0117 98.0007 34.8954 101.089 34.7582C101.137 34.8499 101.185 34.9423 101.232 35.0348C101.169 35.0468 101.106 35.0596 101.044 35.0717C98.61 35.5402 96.1636 35.7265 93.7392 35.6291C93.2458 35.0276 92.8221 34.3522 92.4758 33.6406V33.6398ZM101.61 35.7806C101.814 36.1936 102.016 36.6081 102.215 37.0247C101.332 37.5622 100.348 37.9333 99.2541 38.0698C97.3722 38.3037 95.7683 37.6127 94.507 36.446C96.8703 36.483 99.2484 36.2569 101.61 35.7806ZM102.369 35.6192C102.984 35.4812 103.612 35.322 104.243 35.1378C104.258 35.1883 104.274 35.2388 104.291 35.2886C103.848 35.7742 103.368 36.2157 102.849 36.5989C102.691 36.2711 102.531 35.9448 102.369 35.6192ZM103.454 37.1356C103.854 36.8285 104.229 36.4915 104.586 36.1375C105.271 37.9156 106.328 39.5892 107.407 40.9841C108.202 42.01 109.09 43.0132 110.07 43.9068C110.015 43.9559 109.96 44.0064 109.906 44.0533C109.337 44.5595 108.739 45.0117 108.119 45.4247C107.65 44.9157 107.206 44.3832 106.807 43.8265C105.354 41.8059 104.278 39.5636 103.199 37.3226C103.285 37.2615 103.371 37.1996 103.454 37.1356ZM115.835 29.7751C115.293 29.7175 114.756 29.635 114.226 29.5269C114.394 29.3663 114.554 29.2006 114.71 29.0321C114.845 29.0684 114.983 29.0989 115.126 29.121C115.362 29.158 115.603 29.0634 115.672 28.8103C115.799 28.3453 115.876 27.8768 115.922 27.4076C116.518 26.371 116.872 25.2114 116.872 23.9224C116.873 22.4444 116.479 21.0651 115.81 19.8046C116.016 18.4424 116.375 17.1086 116.468 15.7094C116.671 12.6452 114.359 11.4735 111.613 11.4458C109.813 11.428 107.961 11.7181 106.172 12.1873C106.035 12.075 105.895 11.9683 105.753 11.8667C106.992 11.2183 108.273 10.6993 109.553 10.3338C110.206 10.1476 110.906 9.97979 111.618 9.87101C113.739 10.4163 115.783 11.1955 117.618 12.4618C117.856 12.6253 118.092 12.7952 118.33 12.9672C119.089 14.4482 119.475 16.1715 119.832 17.7371C120.307 19.8159 120.755 21.8436 121.526 23.8364C121.914 24.841 122.407 25.9743 122.807 27.1459C120.647 28.4178 118.358 29.3414 115.835 29.7744V29.7751ZM80.1755 18.0947C79.9259 14.6984 81.7588 11.7572 84.7747 10.309C91.9454 6.86578 100.765 7.89667 108.316 9.18493C108.773 9.26314 109.229 9.34632 109.684 9.4359C108.761 9.69327 107.87 10.021 107.051 10.3715C106.35 10.6716 105.664 11.0107 104.996 11.3839C101.456 9.37476 96.8127 10.0743 93.1804 11.615C90.4546 12.771 87.7266 14.5875 85.4202 16.7503C83.7872 17.6987 82.1505 18.8007 80.6113 20.0434C80.3817 19.4277 80.2267 18.7801 80.1762 18.094L80.1755 18.0947ZM80.8793 20.6783C81.7503 19.9546 82.6582 19.272 83.5995 18.6357C83.34 18.9322 83.0869 19.2315 82.8459 19.5365C82.1825 19.9283 81.5434 20.3506 80.9369 20.8056C80.9163 20.7636 80.8992 20.7203 80.8786 20.6783H80.8793ZM77.3629 26.7897C77.7141 24.7791 79.2036 23.1667 80.8026 21.9154C80.8779 22.0398 80.9554 22.1628 81.0365 22.2837C80.3362 23.6914 79.921 25.3387 80.6163 26.7698C81.1687 27.906 82.2728 28.2991 83.431 28.3766C82.8053 29.7296 82.2714 31.1245 81.8654 32.5542C81.8548 32.5919 81.8448 32.6303 81.8342 32.6687C79.4724 31.5255 76.8461 29.7495 77.3629 26.7897ZM103.083 47.7311C97.353 49.4033 90.1083 49.212 85.3868 45.129C81.8761 42.0939 81.4709 37.8807 82.398 33.7764C82.5821 33.8567 82.7655 33.9356 82.9461 34.0124C86.2954 35.4357 89.7969 36.2199 93.3432 36.4062C94.4516 37.6817 95.8884 38.6535 97.6011 38.8761C99.3266 39.1007 101.074 38.6251 102.557 37.7414C103.679 40.1011 104.798 42.4607 106.373 44.5431C106.682 44.9512 107.033 45.407 107.42 45.8677C106.074 46.6696 104.625 47.2803 103.083 47.7304V47.7311ZM111.572 45.9203C111.817 46.4322 112.301 47.0727 112.444 47.6145C112.903 49.3578 109.826 47.0791 109.437 46.7279C109.186 46.5011 108.939 46.2665 108.696 46.0262C109.403 45.5555 110.075 45.0337 110.705 44.46C110.807 44.5446 110.91 44.6285 111.015 44.7102C111.192 45.1176 111.381 45.5193 111.572 45.9196V45.9203ZM124.857 38.313C124.221 41.8379 123.014 45.5321 119 46.2267C116.206 46.7101 113.657 45.579 111.53 43.8962C111.506 43.8386 111.483 43.7803 111.461 43.722C111.953 43.2094 112.418 42.6641 112.843 42.0775C113.742 40.8348 114.621 39.1384 114.055 37.575C114.002 37.4278 113.936 37.2906 113.864 37.1591C114.305 36.9636 114.765 36.805 115.225 36.6756C117.728 35.9732 120.929 36.0998 122.986 34.3032C124.324 33.1351 124.451 31.3705 124.188 29.6698C124.516 29.5234 124.832 29.357 125.129 29.1615C125.769 32.1291 125.363 35.4947 124.855 38.3123L124.857 38.313ZM125.058 26.2587C124.955 26.0553 124.64 25.97 124.451 26.0994C124.119 26.3269 123.785 26.5466 123.448 26.7577C122.719 24.5196 121.725 22.3839 121.183 20.0832C120.764 18.303 120.403 16.0208 119.662 13.9861C121.615 15.5601 123.457 17.4143 124.78 19.437C126.227 21.6474 127.515 25.3152 125.63 27.6223C125.468 27.153 125.279 26.6966 125.057 26.2579L125.058 26.2587Z" fill="white"/>
</g>
<defs>
<linearGradient id="paint0_linear_4246_33550" x1="43.371" y1="170.482" x2="8.00075" y2="170.482" gradientUnits="userSpaceOnUse">
<stop stop-color="#AA80F9"/>
<stop offset="1" stop-color="#6165D7"/>
</linearGradient>
<linearGradient id="paint1_linear_4246_33550" x1="31.3876" y1="154.134" x2="26.708" y2="154.134" gradientUnits="userSpaceOnUse">
<stop stop-color="#AA80F9"/>
<stop offset="1" stop-color="#6165D7"/>
</linearGradient>
<linearGradient id="paint2_linear_4246_33550" x1="5.81445" y1="149.157" x2="14.395" y2="137.977" gradientUnits="userSpaceOnUse">
<stop stop-color="#311944"/>
<stop offset="1" stop-color="#893976"/>
</linearGradient>
<linearGradient id="paint3_linear_4246_33550" x1="25.3767" y1="124.183" x2="14.3511" y2="94.9572" gradientUnits="userSpaceOnUse">
<stop stop-color="#311944"/>
<stop offset="1" stop-color="#893976"/>
</linearGradient>
<linearGradient id="paint4_linear_4246_33550" x1="31.5427" y1="129.395" x2="31.7112" y2="143.698" gradientUnits="userSpaceOnUse">
<stop stop-color="#311944"/>
<stop offset="1" stop-color="#893976"/>
</linearGradient>
<linearGradient id="paint5_linear_4246_33550" x1="63.7189" y1="187.377" x2="52.8248" y2="187.377" gradientUnits="userSpaceOnUse">
<stop stop-color="#311944"/>
<stop offset="1" stop-color="#6B3976"/>
</linearGradient>
<linearGradient id="paint6_linear_4246_33550" x1="58.9416" y1="193.675" x2="40.7424" y2="139.077" gradientUnits="userSpaceOnUse">
<stop stop-color="#311944"/>
<stop offset="1" stop-color="#A03976"/>
</linearGradient>
<linearGradient id="paint7_linear_4246_33550" x1="84.9816" y1="179.983" x2="74.0875" y2="179.983" gradientUnits="userSpaceOnUse">
<stop stop-color="#311944"/>
<stop offset="1" stop-color="#6B3976"/>
</linearGradient>
<linearGradient id="paint8_linear_4246_33550" x1="80.2046" y1="186.282" x2="62.0054" y2="131.685" gradientUnits="userSpaceOnUse">
<stop stop-color="#311944"/>
<stop offset="1" stop-color="#A03976"/>
</linearGradient>
<linearGradient id="paint9_linear_4246_33550" x1="61.4287" y1="179.599" x2="48.507" y2="138.703" gradientUnits="userSpaceOnUse">
<stop stop-color="#444B8C"/>
<stop offset="1" stop-color="#3E4177"/>
</linearGradient>
<linearGradient id="paint10_linear_4246_33550" x1="60.0558" y1="140.091" x2="28.7451" y2="146.48" gradientUnits="userSpaceOnUse">
<stop stop-color="#444B8C"/>
<stop offset="1" stop-color="#3E4177"/>
</linearGradient>
<linearGradient id="paint11_linear_4246_33550" x1="82.085" y1="44.1321" x2="-3.47481" y2="157.373" gradientUnits="userSpaceOnUse">
<stop stop-color="#FFC444"/>
<stop offset="0.26" stop-color="#FEC044"/>
<stop offset="0.46" stop-color="#FDB646"/>
<stop offset="0.65" stop-color="#FAA64A"/>
<stop offset="0.82" stop-color="#F78E4F"/>
<stop offset="0.99" stop-color="#F37055"/>
<stop offset="1" stop-color="#F36F56"/>
</linearGradient>
<linearGradient id="paint12_linear_4246_33550" x1="93.225" y1="92.9649" x2="-8.2034" y2="130.577" gradientUnits="userSpaceOnUse">
<stop stop-color="#FFC444"/>
<stop offset="1" stop-color="#F36F56"/>
</linearGradient>
<linearGradient id="paint13_linear_4246_33550" x1="70.1278" y1="71.2741" x2="62.4455" y2="77.7288" gradientUnits="userSpaceOnUse">
<stop stop-color="#311944"/>
<stop offset="0.22" stop-color="#49204E"/>
<stop offset="0.31" stop-color="#532353"/>
<stop offset="1" stop-color="#A03976"/>
</linearGradient>
<linearGradient id="paint14_linear_4246_33550" x1="60.6251" y1="80.8238" x2="80.0964" y2="66.1036" gradientUnits="userSpaceOnUse">
<stop stop-color="#444B8C"/>
<stop offset="1" stop-color="#26264F"/>
</linearGradient>
<linearGradient id="paint15_linear_4246_33550" x1="60.6759" y1="57.054" x2="79.7821" y2="82.0655" gradientUnits="userSpaceOnUse">
<stop stop-color="#311944"/>
<stop offset="0.22" stop-color="#49204E"/>
<stop offset="0.31" stop-color="#532353"/>
<stop offset="1" stop-color="#A03976"/>
</linearGradient>
<linearGradient id="paint16_linear_4246_33550" x1="105.471" y1="61.9377" x2="20.0897" y2="174.942" gradientUnits="userSpaceOnUse">
<stop stop-color="#FFC444"/>
<stop offset="0.26" stop-color="#FEC044"/>
<stop offset="0.46" stop-color="#FDB646"/>
<stop offset="0.65" stop-color="#FAA64A"/>
<stop offset="0.82" stop-color="#F78E4F"/>
<stop offset="0.99" stop-color="#F37055"/>
<stop offset="1" stop-color="#F36F56"/>
</linearGradient>
<linearGradient id="paint17_linear_4246_33550" x1="104.819" y1="62.8015" x2="22.5341" y2="171.707" gradientUnits="userSpaceOnUse">
<stop stop-color="#FFC444"/>
<stop offset="0.26" stop-color="#FEC044"/>
<stop offset="0.46" stop-color="#FDB646"/>
<stop offset="0.65" stop-color="#FAA64A"/>
<stop offset="0.82" stop-color="#F78E4F"/>
<stop offset="0.99" stop-color="#F37055"/>
<stop offset="1" stop-color="#F36F56"/>
</linearGradient>
<linearGradient id="paint18_linear_4246_33550" x1="84.0038" y1="76.0927" x2="77.7125" y2="74.2051" gradientUnits="userSpaceOnUse">
<stop stop-color="#311944"/>
<stop offset="0.22" stop-color="#49204E"/>
<stop offset="0.31" stop-color="#532353"/>
<stop offset="1" stop-color="#A03976"/>
</linearGradient>
<linearGradient id="paint19_linear_4246_33550" x1="100.816" y1="66.4063" x2="35.3729" y2="153.023" gradientUnits="userSpaceOnUse">
<stop stop-color="#FFC444"/>
<stop offset="0.26" stop-color="#FEC044"/>
<stop offset="0.46" stop-color="#FDB646"/>
<stop offset="0.65" stop-color="#FAA64A"/>
<stop offset="0.82" stop-color="#F78E4F"/>
<stop offset="0.99" stop-color="#F37055"/>
<stop offset="1" stop-color="#F36F56"/>
</linearGradient>
<linearGradient id="paint20_linear_4246_33550" x1="95.2632" y1="121.023" x2="76.4071" y2="115.366" gradientUnits="userSpaceOnUse">
<stop stop-color="#311944"/>
<stop offset="0.22" stop-color="#49204E"/>
<stop offset="0.31" stop-color="#532353"/>
<stop offset="1" stop-color="#A03976"/>
</linearGradient>
<linearGradient id="paint21_linear_4246_33550" x1="94.5315" y1="40.9306" x2="-53.1364" y2="236.374" gradientUnits="userSpaceOnUse">
<stop stop-color="#FFC444"/>
<stop offset="0.26" stop-color="#FEC044"/>
<stop offset="0.46" stop-color="#FDB646"/>
<stop offset="0.65" stop-color="#FAA64A"/>
<stop offset="0.82" stop-color="#F78E4F"/>
<stop offset="0.99" stop-color="#F37055"/>
<stop offset="1" stop-color="#F36F56"/>
</linearGradient>
<linearGradient id="paint22_linear_4246_33550" x1="146.917" y1="90.4382" x2="89.2236" y2="90.4382" gradientUnits="userSpaceOnUse">
<stop stop-color="#AA80F9"/>
<stop offset="1" stop-color="#6165D7"/>
</linearGradient>
<linearGradient id="paint23_linear_4246_33550" x1="107.178" y1="73.2091" x2="136.971" y2="118.483" gradientUnits="userSpaceOnUse">
<stop stop-color="#AA80F9"/>
<stop offset="1" stop-color="#6165D7"/>
</linearGradient>
<linearGradient id="paint24_linear_4246_33550" x1="146.438" y1="103.801" x2="90.3198" y2="103.801" gradientUnits="userSpaceOnUse">
<stop stop-color="#AA80F9"/>
<stop offset="1" stop-color="#6165D7"/>
</linearGradient>
<linearGradient id="paint25_linear_4246_33550" x1="108.287" y1="111.371" x2="123.621" y2="120.572" gradientUnits="userSpaceOnUse">
<stop stop-color="#AA80F9"/>
<stop offset="1" stop-color="#6165D7"/>
</linearGradient>
<linearGradient id="paint26_linear_4246_33550" x1="118.699" y1="92.5786" x2="129.798" y2="139.312" gradientUnits="userSpaceOnUse">
<stop stop-color="#AA80F9"/>
<stop offset="1" stop-color="#6165D7"/>
</linearGradient>
<linearGradient id="paint27_linear_4246_33550" x1="126.432" y1="-2.91987" x2="85.4349" y2="64.3967" gradientUnits="userSpaceOnUse">
<stop stop-color="#FF9085"/>
<stop offset="1" stop-color="#FB6FBB"/>
</linearGradient>
<clipPath id="clip0_4246_33550">
<rect width="168" height="208" fill="white"/>
</clipPath>
</defs>
</svg>
