<svg width="246" height="33" viewBox="0 0 246 33" fill="none" xmlns="http://www.w3.org/2000/svg">
<path d="M0.0115733 27.048C0.0115733 31.794 -0.450427 32.172 4.46357 32.172C6.35357 32.172 8.24357 31.962 10.0916 31.794C16.9376 31.164 19.8776 30.828 23.5316 24.444C23.9936 23.688 24.4976 22.932 24.7496 22.05C25.2536 20.37 25.1696 18.018 25.1696 16.296C25.1696 15.036 24.9596 11.466 24.5816 10.374C24.1616 9.156 23.3636 7.938 22.6916 6.846C19.8356 2.1 14.8376 0.336 9.50357 0.336C7.90757 0.336 6.35357 0.798002 4.79957 0.798002C3.70757 0.798002 2.57357 0.630001 1.48157 0.630001C-0.0304269 0.630001 0.0115733 5.25 0.0115733 6.426C0.0115733 7.602 0.179573 8.82 0.305573 9.996C0.599573 12.978 0.557573 16.296 0.557573 19.236C0.557573 21.84 0.0115733 24.444 0.0115733 27.048ZM8.28557 14.112C8.28557 11.97 7.90757 8.316 8.49557 6.384C8.70557 6.384 8.95757 6.594 9.16757 6.678C11.7716 7.728 12.4856 7.266 15.0476 9.156C15.6356 9.576 16.2656 10.038 16.6436 10.71C17.0636 11.508 17.3156 14.616 17.3156 15.624C17.3156 16.674 17.2316 21.168 16.8116 21.966C15.7616 24.024 10.8476 25.956 8.66357 25.956C8.49557 25.956 8.28557 25.914 8.11757 25.83C7.78157 25.368 7.69757 22.848 7.69757 22.176C7.69757 20.202 8.28557 18.312 8.28557 16.38V14.112Z" fill="#300045"/>
<path d="M29.2232 16.044C29.2232 17.052 29.4752 17.892 29.6852 18.858C31.0712 25.284 34.2632 30.786 41.2352 32.004C42.0752 32.13 43.2092 32.424 44.0072 32.424C45.2252 32.424 47.1992 32.382 48.3332 32.004C50.7272 31.248 54.5492 28.266 55.9772 26.292C56.6072 25.41 57.6572 22.554 57.8252 21.42C58.0352 19.782 57.9512 17.934 57.9512 16.296C57.9512 14.616 57.9932 12.81 57.7832 11.13C57.6572 10.122 57.2372 9.198 56.8172 8.316C54.4232 3.192 49.7192 0 43.9232 0C40.9832 0 37.6652 0.714 35.2712 2.52C34.6412 2.982 34.2632 3.696 33.8012 4.326C31.6172 7.308 29.2232 12.264 29.2232 16.044ZM43.7972 25.788C43.8812 25.788 43.7972 25.956 43.7132 25.914C42.9152 25.704 41.4032 25.242 40.7312 24.78C40.4372 24.612 39.7232 23.604 39.5132 23.31C39.1352 22.764 38.6312 22.176 38.4212 21.546C38.0852 20.454 37.8332 16.548 37.8332 15.288C37.8332 11.508 38.2952 8.568 42.2432 7.308C42.7052 7.14 43.7552 6.762 44.2172 6.762C46.6952 6.762 47.4092 7.266 48.7952 9.156C49.2152 9.702 49.8032 10.542 50.0132 11.172C50.3912 12.432 50.2652 14.49 50.2652 15.708C50.2652 18.102 50.0132 21.084 48.7112 23.142C48.4592 23.562 47.9972 24.36 47.6192 24.612C46.4852 25.284 44.8892 25.116 43.7972 25.788Z" fill="#300045"/>
<path d="M88.5748 24.738C88.3228 23.142 88.3228 21.504 88.0288 19.95C87.6088 17.808 86.7688 15.75 86.4748 13.566C86.3488 12.474 86.3068 11.34 86.0128 10.29C85.5508 8.652 84.7948 7.14 84.2908 5.502C83.9968 4.494 83.7028 1.68 83.0308 1.134C82.3588 0.587999 79.6708 0.630001 78.7888 0.630001C78.0748 0.630001 77.6128 0.798001 77.2768 1.47C76.0588 3.864 75.6808 6.342 75.5128 8.988C75.3868 11.004 74.3788 13.104 73.9588 15.078C73.3288 17.976 73.0348 20.916 71.9428 23.688C71.1868 21.168 71.3968 18.438 71.1028 15.876C70.8928 13.986 70.0948 12.264 69.8428 10.416C69.5908 8.652 69.5908 6.762 69.4648 4.998C69.4648 4.83 69.4228 0.420002 68.3308 0.420002C67.1968 0.420002 66.0208 0.840001 64.8868 0.924C63.8368 1.008 62.8288 0.924 61.7788 1.008C61.3168 1.05 61.0648 1.26 61.0648 1.722C61.0648 4.368 62.2828 8.568 62.9968 11.172C63.9208 14.532 63.7948 18.27 64.5928 21.63C65.0128 23.394 65.6428 25.2 65.8948 26.964C66.0628 28.224 66.0628 29.568 66.3148 30.828C66.3568 31.08 66.4408 31.416 66.6088 31.584C67.0708 32.046 70.2628 32.256 71.0188 32.256C71.8588 32.256 75.3028 32.046 75.8488 31.626C77.4868 30.45 78.2008 20.748 78.5788 18.522C78.9148 16.716 79.5028 14.322 80.3008 12.726C81.5608 15.918 81.3508 19.53 82.1068 22.806C82.4008 24.066 84.1228 30.912 84.6688 31.332C84.7948 31.416 92.0188 31.962 93.0268 31.962C94.3708 31.962 94.5808 26.796 94.6228 26.544C94.7068 25.704 94.7488 24.822 94.7908 23.982C94.9588 21.21 95.7148 18.984 96.3028 16.254C97.2688 11.676 98.5288 6.342 98.5288 1.512C98.5288 0.168 95.9668 0.462001 95.0848 0.462001C94.3708 0.462001 92.5228 0.377999 91.9348 0.756C90.8008 1.512 90.9688 9.66 90.9268 10.29C90.7588 12.642 90.2128 14.994 90.0028 17.346C89.8348 19.53 89.3308 21.504 88.9948 23.646C88.9948 23.772 88.8688 24.738 88.7008 24.738H88.5748Z" fill="#300045"/>
<path d="M109.263 10.458L109.431 10.206L109.599 10.122C110.985 11.172 118.083 29.526 120.561 31.416C121.023 31.794 121.947 31.668 122.493 31.668C128.205 31.668 128.289 32.802 128.289 26.964C128.289 25.116 128.289 23.268 128.163 21.42C128.079 19.698 127.701 17.934 127.701 16.212C127.701 14.49 127.995 12.768 128.079 11.046C128.205 8.358 128.247 5.544 128.247 2.856C128.247 -0.210001 126.903 0.377999 124.341 0.377999C122.955 0.377999 120.477 -0.0839993 120.477 1.89C120.477 3.15 120.645 4.452 120.645 5.712C120.645 7.518 120.561 9.366 120.687 11.172C120.771 12.138 121.065 13.188 121.233 14.154C121.779 16.884 122.241 19.782 122.241 22.596L122.199 22.848C121.569 22.428 120.477 19.488 120.267 19.026C119.595 17.598 118.797 16.296 118.167 14.868C117.579 13.524 117.201 12.138 116.529 10.836C115.563 8.904 114.429 7.098 113.421 5.208C112.917 4.242 112.035 1.722 111.279 1.134C110.607 0.630001 107.289 0.672001 106.869 0.672001C105.861 0.672001 103.299 0.210002 103.299 1.806C103.299 3.024 103.551 4.242 103.551 5.502C103.551 7.266 103.173 8.988 103.173 10.752C103.173 12.558 103.635 14.322 103.635 16.128C103.635 17.976 103.257 19.782 103.257 21.63C103.257 23.226 103.425 24.822 103.425 26.418C103.425 27.846 103.131 29.274 103.131 30.702C103.131 32.382 107.373 32.298 108.633 32.298C110.649 32.298 110.397 27.762 110.481 26.67C110.649 24.99 110.859 23.184 110.859 21.504C110.859 19.614 110.733 17.64 110.481 15.75C110.271 14.112 109.137 12.264 109.263 10.668V10.458Z" fill="#300045"/>
<path d="M148.099 31.878C149.317 31.878 155.197 32.592 155.197 30.786C155.197 29.694 155.071 27.048 153.979 26.502C151.081 25.074 146.503 26.418 143.647 25.116C142.891 24.78 142.933 24.024 142.933 23.31C142.933 20.622 142.681 17.976 142.681 15.288C142.681 12.054 143.101 8.862 143.101 5.628C143.101 4.242 143.521 0.504001 141.673 0.504001C140.707 0.504001 136.801 0.798002 136.087 1.302C135.835 1.47 135.667 1.764 135.625 2.058C135.373 3.612 134.953 9.996 134.953 11.634C134.953 12.81 135.121 14.028 135.247 15.204C135.541 18.186 135.499 21.462 135.499 24.444C135.499 26.628 135.205 28.77 135.205 30.912C135.205 32.298 138.859 32.256 139.909 32.256C141.673 32.256 143.395 31.878 145.117 31.878H148.099Z" fill="#300045"/>
<path d="M158.628 16.044C158.628 17.052 158.88 17.892 159.09 18.858C160.476 25.284 163.668 30.786 170.64 32.004C171.48 32.13 172.614 32.424 173.412 32.424C174.63 32.424 176.604 32.382 177.738 32.004C180.132 31.248 183.954 28.266 185.382 26.292C186.012 25.41 187.062 22.554 187.23 21.42C187.44 19.782 187.356 17.934 187.356 16.296C187.356 14.616 187.398 12.81 187.188 11.13C187.062 10.122 186.642 9.198 186.222 8.316C183.828 3.192 179.124 0 173.328 0C170.388 0 167.07 0.714 164.676 2.52C164.046 2.982 163.668 3.696 163.206 4.326C161.022 7.308 158.628 12.264 158.628 16.044ZM173.202 25.788C173.286 25.788 173.202 25.956 173.118 25.914C172.32 25.704 170.808 25.242 170.136 24.78C169.842 24.612 169.128 23.604 168.918 23.31C168.54 22.764 168.036 22.176 167.826 21.546C167.49 20.454 167.238 16.548 167.238 15.288C167.238 11.508 167.7 8.568 171.648 7.308C172.11 7.14 173.16 6.762 173.622 6.762C176.1 6.762 176.814 7.266 178.2 9.156C178.62 9.702 179.208 10.542 179.418 11.172C179.796 12.432 179.67 14.49 179.67 15.708C179.67 18.102 179.418 21.084 178.116 23.142C177.864 23.562 177.402 24.36 177.024 24.612C175.89 25.284 174.294 25.116 173.202 25.788Z" fill="#300045"/>
<path d="M203.489 24.36C204.539 24.36 207.647 24.57 208.361 25.284C209.285 26.208 209.495 30.534 210.251 31.458C210.671 31.962 211.343 31.878 211.931 31.878C212.225 31.878 217.643 32.382 217.643 31.038C217.643 27.846 214.115 20.076 213.149 16.464C212.645 14.616 212.141 12.768 211.469 10.962C210.797 9.198 209.915 7.518 209.327 5.754C209.033 4.83 208.487 1.428 207.941 0.924C207.395 0.462001 201.431 0.420002 200.255 0.420002C199.079 0.420002 198.575 2.1 198.239 2.982C196.559 7.35 195.173 11.928 194.039 16.464C193.535 18.522 193.493 20.706 192.863 22.764C192.233 24.822 190.301 29.316 190.301 30.786C190.301 31.878 194.753 32.004 195.593 32.004C198.701 32.004 198.113 25.914 200.423 24.948C200.969 24.738 202.901 24.36 203.489 24.36ZM201.347 18.858C201.053 18.858 200.171 18.858 200.171 18.438C200.171 18.228 203.363 7.98 203.657 7.392C204.203 8.736 204.245 10.29 204.623 11.718C205.085 13.482 205.967 15.162 206.471 16.926C206.597 17.388 206.681 17.892 206.681 18.354C206.471 18.858 205.757 18.858 205.295 18.858H201.347Z" fill="#300045"/>
<path d="M220.758 27.048C220.758 31.794 220.296 32.172 225.21 32.172C227.1 32.172 228.99 31.962 230.838 31.794C237.684 31.164 240.624 30.828 244.278 24.444C244.74 23.688 245.244 22.932 245.496 22.05C246 20.37 245.916 18.018 245.916 16.296C245.916 15.036 245.706 11.466 245.328 10.374C244.908 9.156 244.11 7.938 243.438 6.846C240.582 2.1 235.584 0.336 230.25 0.336C228.654 0.336 227.1 0.798002 225.546 0.798002C224.454 0.798002 223.32 0.630001 222.228 0.630001C220.716 0.630001 220.758 5.25 220.758 6.426C220.758 7.602 220.926 8.82 221.052 9.996C221.346 12.978 221.304 16.296 221.304 19.236C221.304 21.84 220.758 24.444 220.758 27.048ZM229.032 14.112C229.032 11.97 228.654 8.316 229.242 6.384C229.452 6.384 229.704 6.594 229.914 6.678C232.518 7.728 233.232 7.266 235.794 9.156C236.382 9.576 237.012 10.038 237.39 10.71C237.81 11.508 238.062 14.616 238.062 15.624C238.062 16.674 237.978 21.168 237.558 21.966C236.508 24.024 231.594 25.956 229.41 25.956C229.242 25.956 229.032 25.914 228.864 25.83C228.528 25.368 228.444 22.848 228.444 22.176C228.444 20.202 229.032 18.312 229.032 16.38V14.112Z" fill="#300045"/>
</svg>
