<svg width="28" height="26" viewBox="0 0 28 26" fill="none" xmlns="http://www.w3.org/2000/svg">
<path d="M19.6582 10.9785C19.6582 13.3301 19.2389 15.3034 18.4004 16.8984C17.571 18.4844 16.3496 19.6465 14.7363 20.3848L19.5488 25.7578H14.1211L10.457 21.2734H10.1426C7.08008 21.2734 4.72852 20.3848 3.08789 18.6074C1.44727 16.8301 0.626953 14.278 0.626953 10.9512C0.626953 7.62435 1.44727 5.08594 3.08789 3.33594C4.73763 1.57682 7.09831 0.697266 10.1699 0.697266C13.2415 0.697266 15.5885 1.58138 17.2109 3.34961C18.8424 5.11784 19.6582 7.66081 19.6582 10.9785ZM5.07031 10.9785C5.07031 13.2116 5.49414 14.8932 6.3418 16.0234C7.18945 17.1536 8.45638 17.7188 10.1426 17.7188C13.5241 17.7188 15.2148 15.472 15.2148 10.9785C15.2148 6.47591 13.5332 4.22461 10.1699 4.22461C8.48372 4.22461 7.21224 4.79427 6.35547 5.93359C5.4987 7.0638 5.07031 8.74544 5.07031 10.9785ZM22.8848 19.0449C22.8848 18.2793 23.0898 17.7005 23.5 17.3086C23.9102 16.9167 24.5072 16.7207 25.291 16.7207C26.0475 16.7207 26.6309 16.9212 27.041 17.3223C27.4603 17.7233 27.6699 18.2975 27.6699 19.0449C27.6699 19.765 27.4603 20.3346 27.041 20.7539C26.6217 21.1641 26.0384 21.3691 25.291 21.3691C24.5254 21.3691 23.9329 21.1686 23.5137 20.7676C23.0944 20.3574 22.8848 19.7832 22.8848 19.0449Z" fill="#FF5268"/>
</svg>
