<svg width="12" height="12" viewBox="0 0 12 12" fill="none" xmlns="http://www.w3.org/2000/svg">
<path fill-rule="evenodd" clip-rule="evenodd" d="M5.99999 0.960938C4.64905 0.960938 3.2996 1.48532 2.3224 2.37482L2.32191 2.37528C1.13715 3.46026 0.509766 4.86321 0.509766 6.43916C0.509766 9.46589 2.97326 11.9294 5.99999 11.9294C9.02705 11.9294 11.4782 9.47756 11.4782 6.43916C11.4782 5.07656 10.9781 3.77513 10.0645 2.77378C9.00287 1.59991 7.57533 0.960938 5.99999 0.960938ZM2.5645 3.36055C3.47135 2.36186 4.66007 1.82538 5.99999 1.82538C7.12214 1.82538 8.26744 2.26166 9.07669 3.01392L9.07668 3.01393L9.07851 3.01559C10.089 3.93426 10.6138 5.11092 10.6138 6.45116C10.6138 8.99243 8.54126 11.0649 5.99999 11.0649C3.44672 11.0649 1.37421 8.99243 1.37421 6.43916C1.37421 5.29492 1.79728 4.20804 2.5645 3.36055Z" fill="#FF5268"/>
</svg>
