<svg width="13" height="12" viewBox="0 0 13 12" fill="none" xmlns="http://www.w3.org/2000/svg">
<path d="M6.52413 2.31246C4.44786 2.31246 2.76168 3.99864 2.76168 6.06233C2.76168 8.12601 4.44786 9.8122 6.52413 9.8122C8.6004 9.8122 10.274 8.1386 10.274 6.06233C10.274 3.98606 8.6004 2.31246 6.52413 2.31246ZM6.51155 2.79063C8.32356 2.79063 9.79583 4.25031 9.79583 6.06233C9.79583 7.86176 8.32356 9.33402 6.51155 9.33402C4.71212 9.33402 3.23985 7.87434 3.23985 6.06233C3.23985 4.25031 4.69953 2.79063 6.51155 2.79063ZM6.52413 0.550781C5.16512 0.550781 3.80611 1.07929 2.8246 1.97271C1.62917 3.06747 1 4.47681 1 6.06233C1 9.10752 3.47894 11.5865 6.52413 11.5865C9.56932 11.5865 12.0357 9.1201 12.0357 6.06233C12.0357 4.69073 11.5323 3.38206 10.6138 2.37538C9.54416 1.19254 8.10965 0.550781 6.52413 0.550781ZM6.49896 1.05412C9.29249 1.05412 11.5449 3.28139 11.5449 6.06233C11.5449 8.83069 9.29249 11.0831 6.52413 11.0831C3.75577 11.0831 1.50334 8.83069 1.50334 6.06233C1.50334 4.81657 1.95634 3.63372 2.77427 2.71513C3.74319 1.63296 5.0267 1.05412 6.49896 1.05412Z" fill="#FF5268" stroke="#FF5268" stroke-width="0.449409"/>
</svg>
