<svg width="26" height="22" viewBox="0 0 26 22" fill="none" xmlns="http://www.w3.org/2000/svg">
<path d="M14.752 21L13.3027 16.2422H6.01562L4.56641 21H0L7.05469 0.929688H12.2363L19.3184 21H14.752ZM12.291 12.6875C10.9512 8.3763 10.1947 5.93815 10.0215 5.37305C9.85742 4.80794 9.73893 4.36133 9.66602 4.0332C9.36523 5.19987 8.50391 8.08464 7.08203 12.6875H12.291ZM20.9316 19.0449C20.9316 18.2793 21.1367 17.7005 21.5469 17.3086C21.957 16.9167 22.554 16.7207 23.3379 16.7207C24.0944 16.7207 24.6777 16.9212 25.0879 17.3223C25.5072 17.7233 25.7168 18.2975 25.7168 19.0449C25.7168 19.765 25.5072 20.3346 25.0879 20.7539C24.6686 21.1641 24.0853 21.3691 23.3379 21.3691C22.5723 21.3691 21.9798 21.1686 21.5605 20.7676C21.1413 20.3574 20.9316 19.7832 20.9316 19.0449Z" fill="#00CCBC"/>
</svg>
